<?xml version="1.0" encoding="utf-8"?>
<!-- Generator: Adobe Illustrator 25.4.1, SVG Export Plug-In . SVG Version: 6.00 Build 0)  -->
<svg version="1.1" id="Layer_1" xmlns="http://www.w3.org/2000/svg" xmlns:xlink="http://www.w3.org/1999/xlink" x="0px" y="0px"
	 viewBox="0 0 6.3 6.3" style="enable-background:new 0 0 6.3 6.3;" xml:space="preserve">
<style type="text/css">
	.st0{fill:#FABB04;}
</style>
<path class="st0" d="M0.8,0C0.4,0,0,0.4,0,0.8v1.3c0,0.4,0.4,0.8,0.8,0.8h1.3c0.4,0,0.8-0.4,0.8-0.8V0.8C2.9,0.4,2.6,0,2.1,0L0.8,0z
	 M4.2,0C3.8,0,3.4,0.4,3.4,0.8v1.3c0,0.4,0.4,0.8,0.8,0.8h1.3c0.4,0,0.8-0.4,0.8-0.8V0.8C6.3,0.4,6,0,5.6,0L4.2,0z M0.8,3.4
	C0.4,3.4,0,3.8,0,4.2v1.3C0,6,0.4,6.3,0.8,6.3h1.3c0.4,0,0.8-0.4,0.8-0.8V4.2c0-0.4-0.4-0.8-0.8-0.8H0.8z M4.2,3.4
	c-0.4,0-0.8,0.4-0.8,0.8v1.3c0,0.4,0.4,0.8,0.8,0.8h1.3C6,6.3,6.3,6,6.3,5.6V4.2c0-0.4-0.4-0.8-0.8-0.8H4.2z"/>
</svg>
