<svg id="Layer_1" data-name="Layer 1" xmlns="http://www.w3.org/2000/svg" viewBox="0 0 805 753.64">
    <g id="buying_value1" data-name="buying@value1">
        <g id="_06" data-name="06">
            <path
                d="M157.5,543.18a44.3,44.3,0,0,1-21.58-5.62l-86-48.08a44.27,44.27,0,0,1-22.66-38.62V357.19a44.28,44.28,0,0,1,22.66-38.63l86-48.08a44.24,44.24,0,0,1,43.16,0l86,48.08a44.28,44.28,0,0,1,22.66,38.63v93.67a44.27,44.27,0,0,1-22.66,38.62l-86,48.08A44.3,44.3,0,0,1,157.5,543.18Z"
                transform="translate(-27 -27.77)" style="fill:#fff" />
            <path
                d="M157.5,265.08a44.15,44.15,0,0,1,21.48,5.6l86,48.08a44,44,0,0,1,22.55,38.43v93.67A44.06,44.06,0,0,1,265,489.29l-86,48.08a44,44,0,0,1-43,0L50,489.29a44.06,44.06,0,0,1-22.55-38.43V357.19A44,44,0,0,1,50,318.76l86-48.08a44.15,44.15,0,0,1,21.48-5.6m0-.44a44.49,44.49,0,0,0-21.69,5.65l-86,48.08A44.47,44.47,0,0,0,27,357.19v93.67a44.47,44.47,0,0,0,22.77,38.82l86,48.07a44.46,44.46,0,0,0,43.38,0l86-48.07A44.47,44.47,0,0,0,288,450.86V357.19a44.47,44.47,0,0,0-22.77-38.82l-86-48.08a44.52,44.52,0,0,0-21.69-5.65Z"
                transform="translate(-27 -27.77)" />
            <path
                d="M87.59,449.37h2.9l3.89,9.49h.15l3.88-9.49h2.91v13.09H99v-9h-.12l-3.62,8.95H93.6l-3.62-9h-.12v9H87.59Z"
                transform="translate(-27 -27.77)" />
            <path
                d="M108.14,462.66a5,5,0,0,1-2.54-.62,4.1,4.1,0,0,1-1.65-1.75,6.54,6.54,0,0,1,0-5.34,4.4,4.4,0,0,1,1.62-1.79,4.57,4.57,0,0,1,2.45-.64,4.89,4.89,0,0,1,1.72.29,3.85,3.85,0,0,1,1.43.9,4.16,4.16,0,0,1,1,1.54,6.24,6.24,0,0,1,.36,2.23v.71h-8.05v-1.56h5.83a2.44,2.44,0,0,0-.29-1.19,2,2,0,0,0-.78-.82,2.21,2.21,0,0,0-1.17-.3,2.24,2.24,0,0,0-1.24.34,2.42,2.42,0,0,0-.84.9,2.61,2.61,0,0,0-.3,1.21v1.36a3.19,3.19,0,0,0,.31,1.47,2.26,2.26,0,0,0,.88.93,2.53,2.53,0,0,0,1.32.32,2.9,2.9,0,0,0,.91-.14,2,2,0,0,0,.71-.43,1.73,1.73,0,0,0,.45-.69l2.16.24a3.28,3.28,0,0,1-.77,1.49,3.71,3.71,0,0,1-1.46,1A5.63,5.63,0,0,1,108.14,462.66Z"
                transform="translate(-27 -27.77)" />
            <path
                d="M119.37,452.65v1.79h-5.65v-1.79Zm-4.25-2.36h2.31v9.22a1.36,1.36,0,0,0,.15.71.7.7,0,0,0,.38.34,1.42,1.42,0,0,0,.52.09,2.5,2.5,0,0,0,.4,0l.28-.06.39,1.81c-.13,0-.3.09-.53.14a4.68,4.68,0,0,1-.83.09,3.61,3.61,0,0,1-1.57-.27,2.32,2.32,0,0,1-1.1-.9,2.66,2.66,0,0,1-.4-1.54Z"
                transform="translate(-27 -27.77)" />
            <path
                d="M124.13,462.66a4.13,4.13,0,0,1-1.68-.33,2.72,2.72,0,0,1-1.17-1,2.88,2.88,0,0,1-.44-1.62,2.85,2.85,0,0,1,.31-1.38,2.41,2.41,0,0,1,.84-.87,4.32,4.32,0,0,1,1.2-.49,9.92,9.92,0,0,1,1.38-.25l1.4-.16a2.07,2.07,0,0,0,.78-.23.53.53,0,0,0,.25-.49v0a1.45,1.45,0,0,0-.43-1.12,1.76,1.76,0,0,0-1.23-.39,2.19,2.19,0,0,0-1.35.37,1.9,1.9,0,0,0-.67.87l-2.16-.3a3.47,3.47,0,0,1,.85-1.5,3.7,3.7,0,0,1,1.44-.91,5.56,5.56,0,0,1,1.87-.3,6.18,6.18,0,0,1,1.42.16,4.07,4.07,0,0,1,1.28.55,2.83,2.83,0,0,1,.94,1,3.36,3.36,0,0,1,.35,1.63v6.57h-2.22v-1.34H127a3,3,0,0,1-.59.76,2.86,2.86,0,0,1-1,.57A3.89,3.89,0,0,1,124.13,462.66Zm.6-1.7a2.46,2.46,0,0,0,1.21-.28,2.07,2.07,0,0,0,.79-.73,2,2,0,0,0,.28-1v-1.16a1.17,1.17,0,0,1-.37.17,4.16,4.16,0,0,1-.58.13l-.63.11-.55.07a4.58,4.58,0,0,0-.92.23,1.58,1.58,0,0,0-.65.45,1.09,1.09,0,0,0-.24.73,1.11,1.11,0,0,0,.47,1A2.09,2.09,0,0,0,124.73,461Z"
                transform="translate(-27 -27.77)" />
            <path d="M134,449.37v13.09h-2.31V449.37Z" transform="translate(-27 -27.77)" />
            <path d="M143.28,449.37v13.09h-2.37V449.37Z" transform="translate(-27 -27.77)" />
            <path
                d="M148.07,456.71v5.75h-2.32v-9.81H148v1.66h.11a2.89,2.89,0,0,1,1.08-1.31,3.35,3.35,0,0,1,1.85-.48,3.46,3.46,0,0,1,1.77.43,2.94,2.94,0,0,1,1.18,1.26,4.38,4.38,0,0,1,.41,2v6.25h-2.31v-5.89a2.18,2.18,0,0,0-.51-1.54,1.82,1.82,0,0,0-1.4-.56,2.11,2.11,0,0,0-1.08.27,1.87,1.87,0,0,0-.74.76A2.64,2.64,0,0,0,148.07,456.71Z"
                transform="translate(-27 -27.77)" />
            <path
                d="M164.49,455.24l-2.11.23a1.72,1.72,0,0,0-.31-.6,1.5,1.5,0,0,0-.59-.45,2.08,2.08,0,0,0-.91-.18,2.18,2.18,0,0,0-1.21.32.9.9,0,0,0-.48.81.85.85,0,0,0,.31.7,2.88,2.88,0,0,0,1.07.44l1.68.35a4.17,4.17,0,0,1,2.07,1,2.26,2.26,0,0,1,.69,1.7,2.69,2.69,0,0,1-.54,1.64,3.5,3.5,0,0,1-1.48,1.1,5.67,5.67,0,0,1-2.17.4,5.09,5.09,0,0,1-2.91-.76,3,3,0,0,1-1.31-2.11l2.26-.22a1.57,1.57,0,0,0,.65,1,2.24,2.24,0,0,0,1.3.34,2.32,2.32,0,0,0,1.33-.34,1,1,0,0,0,.5-.84A.85.85,0,0,0,162,459a2.07,2.07,0,0,0-1-.42l-1.67-.36a3.9,3.9,0,0,1-2.09-1,2.41,2.41,0,0,1-.67-1.77,2.52,2.52,0,0,1,.49-1.58,3.41,3.41,0,0,1,1.4-1,5.56,5.56,0,0,1,2.08-.36,4.48,4.48,0,0,1,2.72.73A3.13,3.13,0,0,1,164.49,455.24Z"
                transform="translate(-27 -27.77)" />
            <path
                d="M172.87,458.33v-5.68h2.31v9.81h-2.24v-1.74h-.1a3,3,0,0,1-1.09,1.35,3.22,3.22,0,0,1-1.87.52,3.28,3.28,0,0,1-1.7-.43A2.93,2.93,0,0,1,167,460.9a4.38,4.38,0,0,1-.42-2v-6.25h2.31v5.89a2.08,2.08,0,0,0,.52,1.48,1.72,1.72,0,0,0,1.34.55,2.08,2.08,0,0,0,1-.25,2,2,0,0,0,.79-.74A2.3,2.3,0,0,0,172.87,458.33Z"
                transform="translate(-27 -27.77)" />
            <path
                d="M177.56,462.46v-9.81h2.24v1.63h.11a2.37,2.37,0,0,1,.92-1.31,2.55,2.55,0,0,1,1.5-.47l.43,0,.4.05v2.13a2.17,2.17,0,0,0-.46-.1c-.22,0-.42,0-.61,0a2.37,2.37,0,0,0-1.14.27,2.14,2.14,0,0,0-.79.76,2.1,2.1,0,0,0-.29,1.1v5.77Z"
                transform="translate(-27 -27.77)" />
            <path
                d="M189.05,462.66a5,5,0,0,1-2.55-.62,4.22,4.22,0,0,1-1.65-1.75,5.91,5.91,0,0,1-.57-2.68,5.76,5.76,0,0,1,.58-2.66,4.26,4.26,0,0,1,1.62-1.79,4.53,4.53,0,0,1,2.44-.64,4.89,4.89,0,0,1,1.72.29,3.77,3.77,0,0,1,1.43.9,4,4,0,0,1,1,1.54,6.24,6.24,0,0,1,.36,2.23v.71h-8v-1.56h5.83a2.55,2.55,0,0,0-.28-1.19,2.08,2.08,0,0,0-.79-.82,2.2,2.2,0,0,0-1.16-.3,2.25,2.25,0,0,0-1.25.34,2.31,2.31,0,0,0-.83.9,2.62,2.62,0,0,0-.31,1.21v1.36a3.19,3.19,0,0,0,.32,1.47,2.23,2.23,0,0,0,.87.93,2.58,2.58,0,0,0,1.32.32,2.85,2.85,0,0,0,.91-.14,2,2,0,0,0,.71-.43,1.86,1.86,0,0,0,.46-.69l2.16.24a3.39,3.39,0,0,1-.78,1.49,3.71,3.71,0,0,1-1.46,1A5.57,5.57,0,0,1,189.05,462.66Z"
                transform="translate(-27 -27.77)" />
            <path
                d="M199,462.64a3.69,3.69,0,0,1-2.07-.6,4,4,0,0,1-1.44-1.72,7.39,7.39,0,0,1,0-5.52,3.9,3.9,0,0,1,1.46-1.7,3.71,3.71,0,0,1,2.05-.58,3,3,0,0,1,1.42.29,2.7,2.7,0,0,1,.88.69,4.51,4.51,0,0,1,.5.77h.1v-4.9h2.32v13.09H202v-1.54h-.14a3.84,3.84,0,0,1-.51.75,2.74,2.74,0,0,1-.9.68A3.06,3.06,0,0,1,199,462.64Zm.65-1.9a2,2,0,0,0,1.25-.4,2.45,2.45,0,0,0,.79-1.12,4.69,4.69,0,0,0,.26-1.67,4.61,4.61,0,0,0-.26-1.65,2.42,2.42,0,0,0-.78-1.09,2.26,2.26,0,0,0-2.55,0,2.39,2.39,0,0,0-.78,1.11,4.55,4.55,0,0,0-.27,1.62,4.62,4.62,0,0,0,.27,1.64,2.57,2.57,0,0,0,.79,1.14A2,2,0,0,0,199.66,460.74Z"
                transform="translate(-27 -27.77)" />
            <path
                d="M215.09,462.66a5.1,5.1,0,0,1-2.3-.49,3.61,3.61,0,0,1-1.49-1.31,3.44,3.44,0,0,1-.52-1.87,3,3,0,0,1,.32-1.4,4.27,4.27,0,0,1,.9-1.12,11.43,11.43,0,0,1,1.32-1l2.32-1.58a3,3,0,0,0,.78-.7,1.45,1.45,0,0,0,.27-.87,1.15,1.15,0,0,0-.36-.8,1.28,1.28,0,0,0-1-.38,1.39,1.39,0,0,0-.74.2,1.46,1.46,0,0,0-.49.5,1.34,1.34,0,0,0-.17.67,1.85,1.85,0,0,0,.24.87,5.66,5.66,0,0,0,.62.91l.83,1,6.14,7.19h-2.5l-5.1-5.84c-.38-.44-.75-.88-1.1-1.31a6.75,6.75,0,0,1-.86-1.34,3.42,3.42,0,0,1-.34-1.52,3.19,3.19,0,0,1,.43-1.66,3.11,3.11,0,0,1,1.2-1.16,4.07,4.07,0,0,1,3.58,0,3,3,0,0,1,1.15,1.09,2.91,2.91,0,0,1,.4,1.48,3.08,3.08,0,0,1-.46,1.65,5,5,0,0,1-1.28,1.33l-2.65,1.94a3.31,3.31,0,0,0-.93.95,1.69,1.69,0,0,0-.28.82,1.77,1.77,0,0,0,.26.94,2,2,0,0,0,.74.68,2.33,2.33,0,0,0,1.11.25,3.14,3.14,0,0,0,1.39-.32,4.14,4.14,0,0,0,1.25-.9,4.4,4.4,0,0,0,.89-1.41,4.89,4.89,0,0,0,.33-1.83h2a7.68,7.68,0,0,1-.27,2.16A5.71,5.71,0,0,1,220,460a4.8,4.8,0,0,1-.92,1l-.3.21a3.15,3.15,0,0,1-.29.22,4.23,4.23,0,0,1-1.61.92A5.88,5.88,0,0,1,215.09,462.66Z"
                transform="translate(-27 -27.77)" />
            <path
                d="M107.07,486.46h-4.44V473.37h4.53a6.67,6.67,0,0,1,3.35.79,5.25,5.25,0,0,1,2.16,2.24,8.59,8.59,0,0,1,0,7,5.4,5.4,0,0,1-2.18,2.26A7,7,0,0,1,107.07,486.46Zm-2.07-2h2a4.76,4.76,0,0,0,2.29-.5,3.14,3.14,0,0,0,1.37-1.5,5.94,5.94,0,0,0,.46-2.5,5.88,5.88,0,0,0-.46-2.5,3.19,3.19,0,0,0-1.36-1.49,4.57,4.57,0,0,0-2.23-.5h-2Z"
                transform="translate(-27 -27.77)" />
            <path
                d="M119.92,486.66a5,5,0,0,1-2.55-.62,4.22,4.22,0,0,1-1.65-1.75,5.91,5.91,0,0,1-.57-2.68,5.76,5.76,0,0,1,.58-2.66,4.26,4.26,0,0,1,1.62-1.79,4.54,4.54,0,0,1,2.45-.64,4.88,4.88,0,0,1,1.71.29,3.77,3.77,0,0,1,1.43.9,4.18,4.18,0,0,1,1,1.54,6.48,6.48,0,0,1,.35,2.23v.71h-8v-1.56h5.82a2.55,2.55,0,0,0-.28-1.19,2.08,2.08,0,0,0-.79-.82,2.2,2.2,0,0,0-1.16-.3,2.25,2.25,0,0,0-1.25.34,2.39,2.39,0,0,0-.83.9,2.62,2.62,0,0,0-.31,1.21v1.36a3.19,3.19,0,0,0,.32,1.47,2.3,2.3,0,0,0,.87.93,2.58,2.58,0,0,0,1.32.32,2.85,2.85,0,0,0,.91-.14,2,2,0,0,0,.71-.43,1.86,1.86,0,0,0,.46-.69l2.16.24a3.39,3.39,0,0,1-.78,1.49,3.71,3.71,0,0,1-1.46,1A5.57,5.57,0,0,1,119.92,486.66Z"
                transform="translate(-27 -27.77)" />
            <path d="M128.55,473.37v13.09h-2.31V473.37Z" transform="translate(-27 -27.77)" />
            <path
                d="M132.09,475.25a1.31,1.31,0,0,1-.94-.37,1.16,1.16,0,0,1-.4-.89,1.14,1.14,0,0,1,.4-.88,1.39,1.39,0,0,1,1.89,0,1.16,1.16,0,0,1,.4.89,1.14,1.14,0,0,1-.4.88A1.32,1.32,0,0,1,132.09,475.25Zm-1.16,11.21v-9.81h2.31v9.81Z"
                transform="translate(-27 -27.77)" />
            <path d="M144.39,476.65l-3.49,9.81h-2.56l-3.5-9.81h2.47l2.26,7.29h.1l2.26-7.29Z"
                transform="translate(-27 -27.77)" />
            <path
                d="M150.34,486.66a5,5,0,0,1-2.55-.62,4.22,4.22,0,0,1-1.65-1.75,5.91,5.91,0,0,1-.57-2.68,5.76,5.76,0,0,1,.58-2.66,4.26,4.26,0,0,1,1.62-1.79,4.54,4.54,0,0,1,2.45-.64,4.88,4.88,0,0,1,1.71.29,3.77,3.77,0,0,1,1.43.9,4,4,0,0,1,1,1.54,6.24,6.24,0,0,1,.36,2.23v.71h-8v-1.56h5.83a2.55,2.55,0,0,0-.28-1.19,2.08,2.08,0,0,0-.79-.82,2.2,2.2,0,0,0-1.16-.3,2.25,2.25,0,0,0-1.25.34,2.31,2.31,0,0,0-.83.9,2.62,2.62,0,0,0-.31,1.21v1.36a3.19,3.19,0,0,0,.32,1.47,2.3,2.3,0,0,0,.87.93,2.58,2.58,0,0,0,1.32.32,2.85,2.85,0,0,0,.91-.14,2,2,0,0,0,.71-.43,1.86,1.86,0,0,0,.46-.69l2.16.24a3.39,3.39,0,0,1-.78,1.49,3.71,3.71,0,0,1-1.46,1A5.57,5.57,0,0,1,150.34,486.66Z"
                transform="translate(-27 -27.77)" />
            <path
                d="M156.66,486.46v-9.81h2.24v1.63h.1a2.44,2.44,0,0,1,.93-1.31,2.5,2.5,0,0,1,1.5-.47l.43,0,.4.05v2.13a2.15,2.15,0,0,0-.47-.1c-.21,0-.41,0-.61,0a2.33,2.33,0,0,0-1.13.27,2.06,2.06,0,0,0-.79.76,2.1,2.1,0,0,0-.29,1.1v5.77Z"
                transform="translate(-27 -27.77)" />
            <path
                d="M168.15,486.66a5,5,0,0,1-2.55-.62,4.16,4.16,0,0,1-1.65-1.75,5.91,5.91,0,0,1-.57-2.68A5.76,5.76,0,0,1,164,479a4.26,4.26,0,0,1,1.62-1.79,4.53,4.53,0,0,1,2.44-.64,4.89,4.89,0,0,1,1.72.29,3.77,3.77,0,0,1,1.43.9,4.16,4.16,0,0,1,1,1.54,6.24,6.24,0,0,1,.36,2.23v.71h-8v-1.56h5.83a2.44,2.44,0,0,0-.29-1.19,2,2,0,0,0-.78-.82,2.2,2.2,0,0,0-1.16-.3,2.25,2.25,0,0,0-1.25.34,2.42,2.42,0,0,0-.84.9,2.74,2.74,0,0,0-.3,1.21v1.36a3.32,3.32,0,0,0,.31,1.47,2.26,2.26,0,0,0,.88.93,2.53,2.53,0,0,0,1.32.32,2.9,2.9,0,0,0,.91-.14,2,2,0,0,0,.71-.43,1.73,1.73,0,0,0,.45-.69l2.16.24a3.28,3.28,0,0,1-.77,1.49,3.71,3.71,0,0,1-1.46,1A5.61,5.61,0,0,1,168.15,486.66Z"
                transform="translate(-27 -27.77)" />
            <path
                d="M178.11,486.64A3.69,3.69,0,0,1,176,486a4.06,4.06,0,0,1-1.45-1.72,6.52,6.52,0,0,1-.53-2.75,6.39,6.39,0,0,1,.54-2.77,4,4,0,0,1,1.46-1.7,3.77,3.77,0,0,1,2.06-.58,3,3,0,0,1,1.42.29,2.7,2.7,0,0,1,.88.69,4.51,4.51,0,0,1,.5.77h.1v-4.9h2.32v13.09h-2.28v-1.54h-.14a3.51,3.51,0,0,1-.52.75,2.6,2.6,0,0,1-.89.68A3.06,3.06,0,0,1,178.11,486.64Zm.65-1.9a2,2,0,0,0,1.25-.4,2.44,2.44,0,0,0,.78-1.12,4.68,4.68,0,0,0,.27-1.67,4.61,4.61,0,0,0-.26-1.65,2.42,2.42,0,0,0-.78-1.09,2,2,0,0,0-1.26-.39,2.06,2.06,0,0,0-1.3.4,2.54,2.54,0,0,0-.78,1.11,4.79,4.79,0,0,0-.26,1.62,4.62,4.62,0,0,0,.27,1.64,2.56,2.56,0,0,0,.78,1.14A2.05,2.05,0,0,0,178.76,484.74Z"
                transform="translate(-27 -27.77)" />
            <path
                d="M195.18,476.65v1.79h-5.64v-1.79Zm-4.25-2.36h2.32v9.22a1.37,1.37,0,0,0,.14.71.73.73,0,0,0,.38.34,1.46,1.46,0,0,0,.52.09,2.41,2.41,0,0,0,.4,0l.28-.06.39,1.81a5.32,5.32,0,0,1-.53.14,4.47,4.47,0,0,1-.83.09,3.63,3.63,0,0,1-1.57-.27,2.37,2.37,0,0,1-1.1-.9,2.73,2.73,0,0,1-.4-1.54Z"
                transform="translate(-27 -27.77)" />
            <path
                d="M201.4,486.66a4.75,4.75,0,0,1-2.49-.64,4.23,4.23,0,0,1-1.63-1.77,6.39,6.39,0,0,1,0-5.32,4.26,4.26,0,0,1,1.63-1.78,4.75,4.75,0,0,1,2.49-.63,4.81,4.81,0,0,1,2.5.63,4.32,4.32,0,0,1,1.63,1.78,6.39,6.39,0,0,1,0,5.32A4.3,4.3,0,0,1,203.9,486,4.81,4.81,0,0,1,201.4,486.66Zm0-1.86a2,2,0,0,0,1.3-.43,2.54,2.54,0,0,0,.78-1.16,4.91,4.91,0,0,0,.26-1.62,5,5,0,0,0-.26-1.64,2.6,2.6,0,0,0-.78-1.16,2,2,0,0,0-1.3-.44,2,2,0,0,0-1.33.44,2.7,2.7,0,0,0-.79,1.16,5,5,0,0,0-.26,1.64,4.91,4.91,0,0,0,.26,1.62,2.64,2.64,0,0,0,.79,1.16A2,2,0,0,0,201.42,484.8Z"
                transform="translate(-27 -27.77)" />
            <path
                d="M124.33,500.65v1.79h-5.64v-1.79Zm-4.25-2.36h2.32v9.22a1.48,1.48,0,0,0,.14.71.73.73,0,0,0,.38.34,1.47,1.47,0,0,0,.53.09,2.6,2.6,0,0,0,.4,0l.27-.06.39,1.81-.52.14a4.69,4.69,0,0,1-.84.09,3.56,3.56,0,0,1-1.56-.27,2.35,2.35,0,0,1-1.11-.9,2.73,2.73,0,0,1-.4-1.54Z"
                transform="translate(-27 -27.77)" />
            <path
                d="M128.58,504.71v5.75h-2.31V497.37h2.26v4.94h.12a2.88,2.88,0,0,1,1.07-1.31,3.28,3.28,0,0,1,1.85-.48,3.5,3.5,0,0,1,1.78.43,2.86,2.86,0,0,1,1.18,1.25,4.39,4.39,0,0,1,.42,2v6.25h-2.31v-5.89a2.18,2.18,0,0,0-.51-1.54,1.83,1.83,0,0,0-1.42-.56,2.21,2.21,0,0,0-1.1.27,1.89,1.89,0,0,0-.75.76A2.52,2.52,0,0,0,128.58,504.71Z"
                transform="translate(-27 -27.77)" />
            <path
                d="M141.65,510.66a5.07,5.07,0,0,1-2.55-.62,4.14,4.14,0,0,1-1.64-1.75,6.44,6.44,0,0,1,0-5.34,4.4,4.4,0,0,1,1.62-1.79,4.54,4.54,0,0,1,2.45-.64,4.84,4.84,0,0,1,1.71.29,3.89,3.89,0,0,1,1.44.9,4.29,4.29,0,0,1,1,1.54,6.24,6.24,0,0,1,.36,2.23v.71H138v-1.56h5.83a2.55,2.55,0,0,0-.29-1.19,2.12,2.12,0,0,0-.78-.82,2.45,2.45,0,0,0-2.42,0,2.49,2.49,0,0,0-1.13,2.11v1.36a3.19,3.19,0,0,0,.31,1.47,2.3,2.3,0,0,0,.87.93,2.58,2.58,0,0,0,1.32.32,3,3,0,0,0,.92-.14,2.15,2.15,0,0,0,.71-.43,1.73,1.73,0,0,0,.45-.69l2.16.24a3.39,3.39,0,0,1-.78,1.49,3.71,3.71,0,0,1-1.46,1A5.57,5.57,0,0,1,141.65,510.66Z"
                transform="translate(-27 -27.77)" />
            <path d="M161.21,500.65l-3.5,9.81h-2.55l-3.5-9.81h2.47l2.25,7.29h.11l2.26-7.29Z"
                transform="translate(-27 -27.77)" />
            <path
                d="M165.63,510.66a4.13,4.13,0,0,1-1.68-.33,2.78,2.78,0,0,1-1.17-1,2.88,2.88,0,0,1-.43-1.62,2.85,2.85,0,0,1,.3-1.38,2.5,2.5,0,0,1,.84-.87,4.32,4.32,0,0,1,1.2-.49,10.19,10.19,0,0,1,1.38-.25l1.4-.16a2.2,2.2,0,0,0,.79-.23.54.54,0,0,0,.24-.49v0a1.45,1.45,0,0,0-.43-1.12,1.75,1.75,0,0,0-1.23-.39,2.15,2.15,0,0,0-1.34.37,1.78,1.78,0,0,0-.67.87l-2.16-.3a3.45,3.45,0,0,1,.84-1.5,3.7,3.7,0,0,1,1.44-.91,5.62,5.62,0,0,1,1.88-.3,6.16,6.16,0,0,1,1.41.16,4,4,0,0,1,1.28.55,2.75,2.75,0,0,1,.94,1,3.36,3.36,0,0,1,.36,1.63v6.57h-2.23v-1.34h-.07a3,3,0,0,1-.6.76,2.86,2.86,0,0,1-.95.57A3.89,3.89,0,0,1,165.63,510.66Zm.6-1.7a2.43,2.43,0,0,0,1.21-.28,2,2,0,0,0,.79-.73,1.9,1.9,0,0,0,.28-1v-1.16a1.07,1.07,0,0,1-.37.17,3.86,3.86,0,0,1-.58.13l-.63.11-.54.07a4.52,4.52,0,0,0-.93.23,1.64,1.64,0,0,0-.65.45,1.14,1.14,0,0,0-.23.73,1.11,1.11,0,0,0,.46,1A2.11,2.11,0,0,0,166.23,509Z"
                transform="translate(-27 -27.77)" />
            <path
                d="M179.41,506.33v-5.68h2.31v9.81h-2.24v-1.74h-.1a3.05,3.05,0,0,1-1.09,1.35,3.22,3.22,0,0,1-1.87.52,3.28,3.28,0,0,1-1.7-.43,3,3,0,0,1-1.16-1.26,4.51,4.51,0,0,1-.41-2v-6.25h2.31v5.89A2.08,2.08,0,0,0,176,508a1.76,1.76,0,0,0,1.35.55,2.08,2.08,0,0,0,1-.25,2,2,0,0,0,.79-.74A2.39,2.39,0,0,0,179.41,506.33Z"
                transform="translate(-27 -27.77)" />
            <path d="M186.41,497.37v13.09H184.1V497.37Z" transform="translate(-27 -27.77)" />
            <path
                d="M193.69,500.65v1.79h-5.64v-1.79Zm-4.25-2.36h2.32v9.22a1.37,1.37,0,0,0,.14.71.73.73,0,0,0,.38.34,1.47,1.47,0,0,0,.53.09,2.38,2.38,0,0,0,.39,0l.28-.06.39,1.81-.52.14a4.69,4.69,0,0,1-.84.09,3.56,3.56,0,0,1-1.56-.27,2.35,2.35,0,0,1-1.11-.9,2.73,2.73,0,0,1-.4-1.54Z"
                transform="translate(-27 -27.77)" />
            <path
                d="M155.94,347.08A1.89,1.89,0,1,0,154,345.2a1.9,1.9,0,0,0,1.93,1.88Zm18.84,20.21a5.83,5.83,0,0,0-4.38.56l-6.51,3.68a14.06,14.06,0,0,0-16,.1L141.5,368a5.84,5.84,0,0,0-7.9,2.07,5.6,5.6,0,0,0,2.12,7.73h0l6.42,3.63a11.85,11.85,0,0,0-.06,1.19,13.6,13.6,0,0,0,8.31,12.44v5.78a5.78,5.78,0,0,0,11.55,0h0v-6a13.53,13.53,0,0,0,7.8-13.59l6.44-3.65a5.58,5.58,0,0,0,2.11-7.72,5.76,5.76,0,0,0-3.51-2.64Zm-31.71,10.34-5.43-3.07a1.86,1.86,0,0,1-.7-2.58,2,2,0,0,1,2.63-.69l5.42,3.06A13.69,13.69,0,0,0,143.07,377.63Zm15,23.24a1.93,1.93,0,0,1-3.85,0v-4.76a14,14,0,0,0,1.71.11,15.41,15.41,0,0,0,2.14-.16Zm-2.15-8.42a10.17,10.17,0,0,1-3.05-.47h0a9.76,9.76,0,0,1-6.49-12.32A10.05,10.05,0,0,1,159,373.31a9.77,9.77,0,0,1,6.49,12.32A10,10,0,0,1,155.94,392.45Zm19.2-19.22a1.85,1.85,0,0,1-.9,1.15l-5.47,3.11a13.62,13.62,0,0,0-2-3.25l5.52-3.12a2,2,0,0,1,2.63.69,1.85,1.85,0,0,1,.18,1.42Zm29.17-65.86H107.56a9.53,9.53,0,0,0-9.62,9.42v102.3a9.5,9.5,0,0,0,8.59,9.37v1.94a5.74,5.74,0,0,0,5.78,5.66h14.11a5.73,5.73,0,0,0,5.78-5.66v-1.88h47.48v1.88a5.72,5.72,0,0,0,5.77,5.66h14.12a5.73,5.73,0,0,0,5.77-5.66v-1.94a9.51,9.51,0,0,0,8.6-9.37V316.79A9.53,9.53,0,0,0,204.31,307.37Zm-76,123a1.91,1.91,0,0,1-1.93,1.89H112.31a1.92,1.92,0,0,1-1.93-1.89h0v-1.88h18Zm73.14,0a1.91,1.91,0,0,1-1.92,1.89H185.45a1.91,1.91,0,0,1-1.92-1.89h0v-1.88h18Zm8.6-11.31a5.74,5.74,0,0,1-5.78,5.66H107.56a5.72,5.72,0,0,1-5.77-5.66V316.79a5.71,5.71,0,0,1,5.77-5.65h96.75a5.72,5.72,0,0,1,5.78,5.65Zm-9-89.35v-4.15a5.72,5.72,0,0,0-5.78-5.65H116.54a5.72,5.72,0,0,0-5.77,5.65v84.7a5.72,5.72,0,0,0,5.77,5.66h78.79a5.73,5.73,0,0,0,5.78-5.66v-4.14a5.69,5.69,0,0,0,3.72-5.28V397.1a5.68,5.68,0,0,0-3.72-5.28V375.11a5.67,5.67,0,0,0,3.72-5.28v-3.77a5.69,5.69,0,0,0-3.72-5.28V344.06a5.67,5.67,0,0,0,3.72-5.27V335A5.67,5.67,0,0,0,201.11,329.74Zm-86.49,15.58H118a1.91,1.91,0,0,1,1.92,1.89h0v41.47a1.9,1.9,0,0,1-1.92,1.88h-3.36Zm82.64,65a1.91,1.91,0,0,1-1.93,1.89H116.54a1.91,1.91,0,0,1-1.92-1.89v-16H118a5.72,5.72,0,0,0,5.77-5.65V347.21a5.72,5.72,0,0,0-5.77-5.66h-3.36v-16a1.9,1.9,0,0,1,1.92-1.88h78.79a1.91,1.91,0,0,1,1.93,1.88h0v4.05a5.67,5.67,0,0,0-4,5.38v3.77a5.66,5.66,0,0,0,4,5.37v16.52a5.67,5.67,0,0,0-4,5.38v3.77a5.66,5.66,0,0,0,4,5.37v16.52a5.67,5.67,0,0,0-4,5.38v3.77a5.66,5.66,0,0,0,4,5.37Zm3.72-9.42a1.93,1.93,0,0,1-3.85,0V397.1a1.93,1.93,0,0,1,3.85,0Zm0-31a1.93,1.93,0,0,1-3.85,0v-3.77a1.93,1.93,0,0,1,3.85,0Zm0-31a1.93,1.93,0,0,1-3.85,0V335a1.93,1.93,0,0,1,3.85,0h0Zm-45,38.2a5.66,5.66,0,1,0,5.77,5.66h0A5.72,5.72,0,0,0,155.94,377Zm0,7.54a1.89,1.89,0,1,1,1.92-1.88h0A1.9,1.9,0,0,1,155.94,384.53Zm-11.43-28.15a1.07,1.07,0,0,0,.16.14,16.36,16.36,0,0,0,22.54,0l.16-.14a1.07,1.07,0,0,0,.14-.16,15.56,15.56,0,0,0,0-22.07,1.07,1.07,0,0,0-.14-.16l-.16-.14a16.36,16.36,0,0,0-22.54,0,1.07,1.07,0,0,0-.16.14l-.15.16a15.56,15.56,0,0,0,0,22.07A1.17,1.17,0,0,0,144.51,356.38Zm.75-13.07h-1.49a11.91,11.91,0,0,1,2.21-5.2l1,1a2,2,0,0,0,2.73,0,1.85,1.85,0,0,0,0-2.66l-1.05-1a12.45,12.45,0,0,1,5.31-2.16v1.45a1.93,1.93,0,0,0,3.85,0v-1.45a12.45,12.45,0,0,1,5.31,2.16l-1,1a1.85,1.85,0,0,0,.05,2.66,1.94,1.94,0,0,0,2.67,0l1-1a11.8,11.8,0,0,1,2.21,5.2h-1.48a1.89,1.89,0,1,0,0,3.77h1.48a11.8,11.8,0,0,1-2.21,5.2l-1-1a2,2,0,0,0-2.72-.09,1.86,1.86,0,0,0-.1,2.66l.1.09,1,1a12.45,12.45,0,0,1-5.31,2.16v-1.45a1.93,1.93,0,0,0-3.85,0v1.45A12.45,12.45,0,0,1,148.7,355l1.05-1a1.85,1.85,0,0,0-.05-2.66,2,2,0,0,0-2.68,0l-1,1a11.91,11.91,0,0,1-2.21-5.2h1.49a1.89,1.89,0,1,0,0-3.77Z"
                transform="translate(-27 -27.77)" style="fill:#fabb04" />
        </g>
        <g id="_05" data-name="05">
            <path
                d="M288.5,781.18a44.3,44.3,0,0,1-21.58-5.62l-86-48.08a44.27,44.27,0,0,1-22.66-38.62V595.19a44.28,44.28,0,0,1,22.66-38.63l86-48.08a44.24,44.24,0,0,1,43.16,0l86,48.08a44.28,44.28,0,0,1,22.66,38.63v93.67a44.27,44.27,0,0,1-22.66,38.62l-86,48.08A44.3,44.3,0,0,1,288.5,781.18Z"
                transform="translate(-27 -27.77)" style="fill:#fff" />
            <path
                d="M288.5,503.08a44.15,44.15,0,0,1,21.48,5.6l86,48.08a44,44,0,0,1,22.55,38.43v93.67A44.06,44.06,0,0,1,396,727.29l-86,48.08a44,44,0,0,1-43,0l-86-48.08a44.06,44.06,0,0,1-22.55-38.43V595.19A44,44,0,0,1,181,556.76l86-48.08a44.15,44.15,0,0,1,21.48-5.6m0-.44a44.49,44.49,0,0,0-21.69,5.65l-86,48.08A44.47,44.47,0,0,0,158,595.19v93.67a44.47,44.47,0,0,0,22.77,38.82l86,48.07a44.46,44.46,0,0,0,43.38,0l86-48.07A44.47,44.47,0,0,0,419,688.86V595.19a44.47,44.47,0,0,0-22.77-38.82l-86-48.08a44.52,44.52,0,0,0-21.69-5.65Z"
                transform="translate(-27 -27.77)" />
            <path
                d="M248.64,718.37h2.9l3.89,9.49h.15l3.89-9.49h2.9v13.09h-2.28v-9H260l-3.62,8.95h-1.7l-3.61-9h-.12v9h-2.28Z"
                transform="translate(-27 -27.77)" />
            <path
                d="M269.2,731.66a5,5,0,0,1-2.55-.62,4.22,4.22,0,0,1-1.65-1.75,5.91,5.91,0,0,1-.57-2.68A5.76,5.76,0,0,1,265,724a4.26,4.26,0,0,1,1.62-1.79,4.53,4.53,0,0,1,2.44-.64,4.89,4.89,0,0,1,1.72.29,3.77,3.77,0,0,1,1.43.9,4,4,0,0,1,1,1.54,6.24,6.24,0,0,1,.36,2.23v.71h-8.05v-1.56h5.83a2.55,2.55,0,0,0-.28-1.19,2.08,2.08,0,0,0-.79-.82,2.2,2.2,0,0,0-1.16-.3,2.25,2.25,0,0,0-1.25.34,2.31,2.31,0,0,0-.83.9,2.62,2.62,0,0,0-.31,1.21v1.36a3.19,3.19,0,0,0,.32,1.47,2.23,2.23,0,0,0,.87.93,2.58,2.58,0,0,0,1.32.32,2.9,2.9,0,0,0,.91-.14,2,2,0,0,0,.71-.43,1.86,1.86,0,0,0,.46-.69l2.16.24a3.39,3.39,0,0,1-.78,1.49,3.71,3.71,0,0,1-1.46,1A5.57,5.57,0,0,1,269.2,731.66Z"
                transform="translate(-27 -27.77)" />
            <path
                d="M280.42,721.65v1.79h-5.64v-1.79Zm-4.25-2.36h2.31v9.22a1.36,1.36,0,0,0,.15.71.7.7,0,0,0,.38.34,1.46,1.46,0,0,0,.52.09,2.41,2.41,0,0,0,.4,0l.28-.06.39,1.81a5.32,5.32,0,0,1-.53.14,4.57,4.57,0,0,1-.83.09,3.63,3.63,0,0,1-1.57-.27,2.37,2.37,0,0,1-1.1-.9,2.73,2.73,0,0,1-.4-1.54Z"
                transform="translate(-27 -27.77)" />
            <path
                d="M285.18,731.66a4.13,4.13,0,0,1-1.68-.33,2.78,2.78,0,0,1-1.17-1,2.88,2.88,0,0,1-.43-1.62,2.85,2.85,0,0,1,.3-1.38,2.5,2.5,0,0,1,.84-.87,4.32,4.32,0,0,1,1.2-.49,10.19,10.19,0,0,1,1.38-.25c.58-.06,1.05-.11,1.4-.16a2.2,2.2,0,0,0,.79-.23.54.54,0,0,0,.24-.49v0a1.45,1.45,0,0,0-.43-1.12,1.75,1.75,0,0,0-1.23-.39,2.21,2.21,0,0,0-1.35.37,1.82,1.82,0,0,0-.66.87l-2.16-.3a3.45,3.45,0,0,1,.84-1.5,3.7,3.7,0,0,1,1.44-.91,5.58,5.58,0,0,1,1.88-.3,6.16,6.16,0,0,1,1.41.16,4,4,0,0,1,1.28.55,2.83,2.83,0,0,1,.94,1,3.36,3.36,0,0,1,.36,1.63v6.57h-2.23v-1.34h-.08a2.74,2.74,0,0,1-.59.76,2.86,2.86,0,0,1-1,.57A3.89,3.89,0,0,1,285.18,731.66Zm.6-1.7a2.43,2.43,0,0,0,1.21-.28,2,2,0,0,0,.79-.73,1.9,1.9,0,0,0,.28-1v-1.16a1.07,1.07,0,0,1-.37.17,3.86,3.86,0,0,1-.58.13l-.63.11-.54.07a4.52,4.52,0,0,0-.93.23,1.64,1.64,0,0,0-.65.45,1.14,1.14,0,0,0-.23.73,1.11,1.11,0,0,0,.46,1A2.11,2.11,0,0,0,285.78,730Z"
                transform="translate(-27 -27.77)" />
            <path d="M295,718.37v13.09H292.7V718.37Z" transform="translate(-27 -27.77)" />
            <path
                d="M309.08,722a1.72,1.72,0,0,0-.76-1.3,2.91,2.91,0,0,0-1.71-.47,3.4,3.4,0,0,0-1.27.22,1.94,1.94,0,0,0-.82.61,1.51,1.51,0,0,0-.28.88,1.28,1.28,0,0,0,.19.71,1.44,1.44,0,0,0,.51.5,3.43,3.43,0,0,0,.72.35,6.08,6.08,0,0,0,.8.24l1.23.31a8.83,8.83,0,0,1,1.43.46,5.36,5.36,0,0,1,1.23.74,3.44,3.44,0,0,1,.87,1.09,3.26,3.26,0,0,1,.32,1.48,3.53,3.53,0,0,1-.59,2,3.82,3.82,0,0,1-1.7,1.36,6.55,6.55,0,0,1-2.68.49,6.89,6.89,0,0,1-2.65-.47,4,4,0,0,1-1.75-1.38,4,4,0,0,1-.68-2.21h2.33a2.06,2.06,0,0,0,.42,1.13,2.19,2.19,0,0,0,1,.68,3.8,3.8,0,0,0,1.34.23,3.55,3.55,0,0,0,1.36-.24,2.17,2.17,0,0,0,.92-.65,1.62,1.62,0,0,0,.34-1,1.3,1.3,0,0,0-.31-.85,2.24,2.24,0,0,0-.82-.56,8.42,8.42,0,0,0-1.23-.41l-1.49-.38a6,6,0,0,1-2.55-1.26,2.93,2.93,0,0,1-.94-2.26,3.35,3.35,0,0,1,.63-2,4.1,4.1,0,0,1,1.72-1.35,5.84,5.84,0,0,1,2.46-.49,5.65,5.65,0,0,1,2.44.49,4,4,0,0,1,1.66,1.33,3.48,3.48,0,0,1,.62,2Z"
                transform="translate(-27 -27.77)" />
            <path
                d="M317.83,731.66a4.81,4.81,0,0,1-2.5-.64,4.3,4.3,0,0,1-1.63-1.77,6.39,6.39,0,0,1,0-5.32,4.32,4.32,0,0,1,1.63-1.78,5.26,5.26,0,0,1,5,0,4.26,4.26,0,0,1,1.63,1.78,6.39,6.39,0,0,1,0,5.32,4.23,4.23,0,0,1-1.63,1.77A4.78,4.78,0,0,1,317.83,731.66Zm0-1.86a2,2,0,0,0,1.3-.43,2.64,2.64,0,0,0,.79-1.16,4.92,4.92,0,0,0,.25-1.62,5,5,0,0,0-.25-1.64,2.7,2.7,0,0,0-.79-1.16,2,2,0,0,0-1.3-.44,2,2,0,0,0-1.33.44,2.6,2.6,0,0,0-.78,1.16,4.74,4.74,0,0,0-.26,1.64,4.67,4.67,0,0,0,.26,1.62,2.54,2.54,0,0,0,.78,1.16A2,2,0,0,0,317.84,729.8Z"
                transform="translate(-27 -27.77)" />
            <path d="M326.8,718.37v13.09h-2.31V718.37Z" transform="translate(-27 -27.77)" />
            <path
                d="M332.82,731.64a3.69,3.69,0,0,1-2.07-.6,4,4,0,0,1-1.44-1.72,7.39,7.39,0,0,1,0-5.52,3.9,3.9,0,0,1,1.46-1.7,3.71,3.71,0,0,1,2.05-.58,3,3,0,0,1,1.42.29,2.7,2.7,0,0,1,.88.69,4.51,4.51,0,0,1,.5.77h.1v-4.9h2.32v13.09h-2.28v-1.54h-.14a3.84,3.84,0,0,1-.51.75,2.74,2.74,0,0,1-.9.68A3.06,3.06,0,0,1,332.82,731.64Zm.65-1.9a2,2,0,0,0,1.25-.4,2.45,2.45,0,0,0,.79-1.12,4.69,4.69,0,0,0,.26-1.67,4.61,4.61,0,0,0-.26-1.65,2.42,2.42,0,0,0-.78-1.09,2.26,2.26,0,0,0-2.55,0,2.39,2.39,0,0,0-.78,1.11,4.55,4.55,0,0,0-.27,1.62,4.62,4.62,0,0,0,.27,1.64,2.57,2.57,0,0,0,.79,1.14A2,2,0,0,0,333.47,729.74Z"
                transform="translate(-27 -27.77)" />
            <g id="SvgjsG1030">
                <path
                    d="M340.2,575.78a14.22,14.22,0,0,1,5.89,7.18,3.83,3.83,0,0,0,7,0,14.19,14.19,0,0,1,5.9-7.18,3.71,3.71,0,0,0,1.07-5.19,4,4,0,0,0-1.07-1.05,14.17,14.17,0,0,1-5.9-7.19,3.84,3.84,0,0,0-5-2,3.75,3.75,0,0,0-2,2,14.27,14.27,0,0,1-5.9,7.19,3.69,3.69,0,0,0-1.08,5.18,3.76,3.76,0,0,0,1.08,1.06Zm9.4-11.51a18,18,0,0,0,7,8.39,17.92,17.92,0,0,0-7,8.39,17.9,17.9,0,0,0-7-8.39A18,18,0,0,0,349.6,564.27ZM337,549.62a22,22,0,0,1-8.42-11.14,4.57,4.57,0,0,0-5.87-2.58,4.49,4.49,0,0,0-2.63,2.58,22.07,22.07,0,0,1-8.41,11.14,4.42,4.42,0,0,0-1,6.25,4.56,4.56,0,0,0,1,1A22,22,0,0,1,320.07,568a4.58,4.58,0,0,0,8.5,0A22,22,0,0,1,337,556.87a4.43,4.43,0,0,0,1-6.25,4.56,4.56,0,0,0-1-1Zm-2.35,4.08a25.89,25.89,0,0,0-9.79,12.9.56.56,0,0,1-.7.35.51.51,0,0,1-.35-.35A25.94,25.94,0,0,0,314,553.7a.53.53,0,0,1-.17-.75.52.52,0,0,1,.17-.16,26,26,0,0,0,9.79-12.91.54.54,0,0,1,.69-.34.55.55,0,0,1,.36.34,25.91,25.91,0,0,0,9.78,12.91.53.53,0,0,1,.18.74A.69.69,0,0,1,334.64,553.7Zm-94.7,36.14-7.46,20.91a5.9,5.9,0,0,0,3.78,7.5,6,6,0,0,0,1.88.32h95.19a6,6,0,0,0,6-6,5.73,5.73,0,0,0-.31-1.84l-7.45-20.91a6,6,0,0,0-5.65-3.93H312.36a5.8,5.8,0,0,0,0-3.9l-7.45-20.91a6,6,0,0,0-5.65-3.94H272.2a6,6,0,0,0-5.65,3.94L259.1,582a5.8,5.8,0,0,0,0,3.9H245.59A6,6,0,0,0,239.94,589.84Zm85.95,0a2,2,0,0,1,1.88,1.32l7.45,20.9a2,2,0,0,1-1.25,2.5,2,2,0,0,1-.64.11H288.55l8.37-23.51a2,2,0,0,1,1.89-1.32Zm-40.15,20.85-7.42-20.83v0h14.85v0ZM262.87,583.3l7.44-20.9a2,2,0,0,1,1.89-1.31h27.08a2,2,0,0,1,1.88,1.31l7.45,20.9a2,2,0,0,1-1.25,2.5,2.32,2.32,0,0,1-.64.11h-42a2,2,0,0,1-2-2A1.88,1.88,0,0,1,262.87,583.3Zm9.8,6.52a2,2,0,0,1,1.88,1.32l8.38,23.51H238.14a2,2,0,0,1-2-2,1.88,1.88,0,0,1,.11-.62l7.44-20.9a2,2,0,0,1,1.89-1.32Zm-68.83,83.55,7.52,17.78a18.17,18.17,0,0,0,23.57,9.48l27.79-11.51a5.89,5.89,0,0,0,3.61-5.76l1.9-.79a14.24,14.24,0,0,1,7.44-1c14.66,2.16,39.83-2.82,52.79-10.46a321.8,321.8,0,0,0,36.11-24.84c11.3-8.93-1.23-25.49-13-18-3.49,2.24-11.49,7.84-16.5,11.32-1.46-3.76-5.53-6.84-9.63-5.84-1.29.29-2.52.68-3.73,1.06-4.86,1.54-9.89,3.12-21-1-20.92-7.87-41.74,1.92-43.3,2.69l-8.92,3.7a6,6,0,0,0-6.77-1.53c-4.53,1.85-17.5,7.18-28.3,11.62A17.57,17.57,0,0,0,203.84,673.37Zm55.26-33.24c.44-.18,20.46-10,40.26-2.61,12.39,4.65,18.35,2.76,23.61,1.1,1.17-.37,2.27-.73,3.4-1,3.13-.65,5.54,3.09,5.54,5.93,0,3.37-5.83,7.36-8.8,8.66-3.92,1.71-12,1.7-16.24,1.15a2,2,0,0,0-2.23,1.69,2,2,0,0,0,1.72,2.2c4.77.58,13.68.62,18.36-1.46.11-.05,10.77-4.9,11.14-11.89,4.7-3.26,14.1-9.91,18-12.33,7.66-4.8,15.62,5.76,8.24,11.65a310.47,310.47,0,0,1-35.66,24.54c-12.11,7.12-36.49,12-50.16,9.94a18.24,18.24,0,0,0-9.58,1.22l-1.54.64-14.77-35.85Zm-15.78,2.2a2,2,0,0,1,2.61,1v0L262.23,683a2,2,0,0,1-1.06,2.54l-5.73,2.37-18.22-43.06,6.1-2.5Zm-9.79,4,18.23,43.07L233.38,697a14.13,14.13,0,0,1-18.33-7.37l-7.52-17.78A13.65,13.65,0,0,1,215,654l18.5-7.62Z"
                    transform="translate(-27 -27.77)" style="fill:#fabb04" />
            </g>
        </g>
        <g id="_04" data-name="04">
            <path
                d="M571.5,781.18a44.3,44.3,0,0,1-21.58-5.62l-86-48.08a44.27,44.27,0,0,1-22.66-38.62V595.19a44.28,44.28,0,0,1,22.66-38.63l86-48.08a44.24,44.24,0,0,1,43.16,0l86,48.08a44.28,44.28,0,0,1,22.66,38.63v93.67a44.27,44.27,0,0,1-22.66,38.62l-86,48.08A44.3,44.3,0,0,1,571.5,781.18Z"
                transform="translate(-27 -27.77)" style="fill:#fff" />
            <path
                d="M571.5,503.08a44.15,44.15,0,0,1,21.48,5.6l86,48.08a44,44,0,0,1,22.55,38.43v93.67A44.06,44.06,0,0,1,679,727.29l-86,48.08a44,44,0,0,1-43,0l-86-48.08a44.06,44.06,0,0,1-22.55-38.43V595.19A44,44,0,0,1,464,556.76l86-48.08a44.15,44.15,0,0,1,21.48-5.6m0-.44a44.49,44.49,0,0,0-21.69,5.65l-86,48.08A44.47,44.47,0,0,0,441,595.19v93.67a44.47,44.47,0,0,0,22.77,38.82l86,48.07a44.46,44.46,0,0,0,43.38,0l86-48.07A44.47,44.47,0,0,0,702,688.86V595.19a44.47,44.47,0,0,0-22.77-38.82l-86-48.08a44.52,44.52,0,0,0-21.69-5.65Z"
                transform="translate(-27 -27.77)" />
            <path
                d="M508.15,711.44h2.9l3.89,9.48h.15l3.89-9.48h2.9v13.09h-2.27v-9h-.13l-3.61,9h-1.7l-3.62-9h-.12v9h-2.28Z"
                transform="translate(-27 -27.77)" />
            <path
                d="M527.19,724.73a3.94,3.94,0,0,1-1.68-.34,2.66,2.66,0,0,1-1.18-1,3,3,0,0,1-.43-1.63,2.7,2.7,0,0,1,.31-1.37,2.34,2.34,0,0,1,.84-.87,4.08,4.08,0,0,1,1.19-.49,9,9,0,0,1,1.39-.25l1.4-.16a2.07,2.07,0,0,0,.78-.23.54.54,0,0,0,.25-.49v0a1.47,1.47,0,0,0-.43-1.12,1.78,1.78,0,0,0-1.23-.4,2.25,2.25,0,0,0-1.35.37,1.88,1.88,0,0,0-.67.88l-2.16-.31a3.57,3.57,0,0,1,.84-1.5,3.83,3.83,0,0,1,1.44-.9,5.41,5.41,0,0,1,1.88-.31,6,6,0,0,1,1.41.17,3.9,3.9,0,0,1,1.29.55,2.76,2.76,0,0,1,.94,1,3.45,3.45,0,0,1,.35,1.63v6.57h-2.22v-1.35h-.08a2.79,2.79,0,0,1-.59.76,2.7,2.7,0,0,1-1,.57A3.69,3.69,0,0,1,527.19,724.73Zm.6-1.7a2.57,2.57,0,0,0,1.21-.28,2.09,2.09,0,0,0,.79-.74,2,2,0,0,0,.27-1v-1.16a1,1,0,0,1-.36.17l-.58.13-.64.1-.54.08a4.22,4.22,0,0,0-.93.23,1.59,1.59,0,0,0-.64.44,1.23,1.23,0,0,0,.23,1.7A2,2,0,0,0,527.79,723Z"
                transform="translate(-27 -27.77)" />
            <path
                d="M534.7,724.53V711.44H537v13.09Zm2.11-3.08v-2.79h.37l3.53-3.95h2.7l-4.34,4.83h-.48Zm4.06,3.08-3.2-4.47,1.56-1.63,4.4,6.1Z"
                transform="translate(-27 -27.77)" />
            <path
                d="M549.29,724.72a5,5,0,0,1-2.55-.62,4.08,4.08,0,0,1-1.64-1.75,6.41,6.41,0,0,1,0-5.33,4.33,4.33,0,0,1,1.62-1.79,4.57,4.57,0,0,1,2.45-.65,5.18,5.18,0,0,1,1.72.29,4.22,4.22,0,0,1,1.43.9,4.33,4.33,0,0,1,1,1.55,6.15,6.15,0,0,1,.36,2.22v.71h-8v-1.56h5.83a2.54,2.54,0,0,0-.29-1.18,2.12,2.12,0,0,0-.78-.82,2.45,2.45,0,0,0-2.42,0,2.44,2.44,0,0,0-.83.89,2.52,2.52,0,0,0-.3,1.21v1.37a3.12,3.12,0,0,0,.31,1.46,2.22,2.22,0,0,0,.88.94,2.62,2.62,0,0,0,1.31.32,2.69,2.69,0,0,0,.92-.15,1.89,1.89,0,0,0,.71-.42,1.76,1.76,0,0,0,.45-.7l2.16.25a3.35,3.35,0,0,1-.78,1.49,3.72,3.72,0,0,1-1.46,1A5.57,5.57,0,0,1,549.29,724.72Z"
                transform="translate(-27 -27.77)" />
            <path
                d="M560.18,724.53V711.44h4.91a5.3,5.3,0,0,1,2.54.56,3.83,3.83,0,0,1,1.55,1.54,5,5,0,0,1,0,4.47,3.88,3.88,0,0,1-1.57,1.54,5.34,5.34,0,0,1-2.55.56h-3.25v-2h2.93a3,3,0,0,0,1.44-.31A2,2,0,0,0,567,717a3,3,0,0,0,0-2.47,1.9,1.9,0,0,0-.84-.82,3.09,3.09,0,0,0-1.45-.3h-2.18v11.11Z"
                transform="translate(-27 -27.77)" />
            <path
                d="M574.49,724.73a4,4,0,0,1-1.68-.34,2.66,2.66,0,0,1-1.18-1,3,3,0,0,1-.43-1.63,2.7,2.7,0,0,1,.31-1.37,2.34,2.34,0,0,1,.84-.87,4.08,4.08,0,0,1,1.19-.49,9,9,0,0,1,1.39-.25l1.4-.16a2.07,2.07,0,0,0,.78-.23.54.54,0,0,0,.25-.49v0a1.47,1.47,0,0,0-.43-1.12,1.78,1.78,0,0,0-1.23-.4,2.25,2.25,0,0,0-1.35.37,1.88,1.88,0,0,0-.67.88l-2.16-.31a3.48,3.48,0,0,1,.85-1.5,3.71,3.71,0,0,1,1.43-.9,5.41,5.41,0,0,1,1.88-.31,6.2,6.2,0,0,1,1.42.17,3.94,3.94,0,0,1,1.28.55,2.76,2.76,0,0,1,.94,1,3.45,3.45,0,0,1,.35,1.63v6.57h-2.22v-1.35h-.08a2.79,2.79,0,0,1-.59.76,2.7,2.7,0,0,1-.95.57A3.66,3.66,0,0,1,574.49,724.73Zm.6-1.7a2.57,2.57,0,0,0,1.21-.28,2.09,2.09,0,0,0,.79-.74,2,2,0,0,0,.27-1v-1.16a1,1,0,0,1-.36.17l-.58.13-.63.1-.55.08a4,4,0,0,0-.92.23,1.56,1.56,0,0,0-.65.44,1.23,1.23,0,0,0,.23,1.7A2,2,0,0,0,575.09,723Z"
                transform="translate(-27 -27.77)" />
            <path
                d="M583.44,728.21a4.79,4.79,0,0,1-.87-.07,3.81,3.81,0,0,1-.64-.17l.54-1.8a3.6,3.6,0,0,0,.9.14,1.15,1.15,0,0,0,.7-.25,1.85,1.85,0,0,0,.52-.8l.19-.53-3.56-10h2.46l2.26,7.42h.1l2.27-7.42h2.46l-3.93,11a4.32,4.32,0,0,1-.73,1.34,2.94,2.94,0,0,1-1.1.85A3.76,3.76,0,0,1,583.44,728.21Z"
                transform="translate(-27 -27.77)" />
            <path
                d="M592.37,724.53v-9.82h2.21v1.67h.12a2.59,2.59,0,0,1,1-1.32,2.92,2.92,0,0,1,1.69-.48,2.78,2.78,0,0,1,1.68.49,2.57,2.57,0,0,1,1,1.31h.1a2.72,2.72,0,0,1,1.11-1.31,3.41,3.41,0,0,1,1.84-.49,3,3,0,0,1,2.21.86,3.38,3.38,0,0,1,.86,2.5v6.59h-2.32V718.3a1.67,1.67,0,0,0-.49-1.34,1.71,1.71,0,0,0-1.19-.43,1.69,1.69,0,0,0-1.3.52,1.93,1.93,0,0,0-.47,1.36v6.12h-2.27V718.2a1.58,1.58,0,0,0-1.65-1.67,1.69,1.69,0,0,0-.91.26,1.73,1.73,0,0,0-.65.71,2.21,2.21,0,0,0-.24,1.06v6Z"
                transform="translate(-27 -27.77)" />
            <path
                d="M612.88,724.72a4.92,4.92,0,0,1-2.55-.62,4.17,4.17,0,0,1-1.65-1.75,5.84,5.84,0,0,1-.57-2.67,5.76,5.76,0,0,1,.58-2.66,4.2,4.2,0,0,1,1.62-1.79,4.55,4.55,0,0,1,2.45-.65,5.12,5.12,0,0,1,1.71.29,4,4,0,0,1,1.43.9,4.08,4.08,0,0,1,1,1.55,6.15,6.15,0,0,1,.36,2.22v.71h-8v-1.56H615a2.54,2.54,0,0,0-.29-1.18,2.12,2.12,0,0,0-.78-.82,2.45,2.45,0,0,0-2.42,0,2.36,2.36,0,0,0-.83.89,2.65,2.65,0,0,0-.31,1.21v1.37a3.12,3.12,0,0,0,.32,1.46,2.26,2.26,0,0,0,.87.94,2.69,2.69,0,0,0,1.32.32,2.59,2.59,0,0,0,.91-.15,1.81,1.81,0,0,0,.71-.42,1.9,1.9,0,0,0,.46-.7l2.16.25a3.45,3.45,0,0,1-.78,1.49,3.8,3.8,0,0,1-1.46,1A5.57,5.57,0,0,1,612.88,724.72Z"
                transform="translate(-27 -27.77)" />
            <path
                d="M621.51,718.78v5.75H619.2v-9.82h2.21v1.67h.12a2.72,2.72,0,0,1,1.08-1.31,3.34,3.34,0,0,1,1.84-.49,3.53,3.53,0,0,1,1.78.44,3,3,0,0,1,1.17,1.26,4.35,4.35,0,0,1,.42,2v6.25H625.5v-5.89a2.18,2.18,0,0,0-.51-1.54,1.75,1.75,0,0,0-1.4-.56,2.27,2.27,0,0,0-1.08.26,1.94,1.94,0,0,0-.73.77A2.49,2.49,0,0,0,621.51,718.78Z"
                transform="translate(-27 -27.77)" />
            <path
                d="M635.08,714.71v1.79h-5.65v-1.79Zm-4.25-2.35h2.31v9.22a1.51,1.51,0,0,0,.14.71.8.8,0,0,0,.38.33,1.51,1.51,0,0,0,.53.09,2.5,2.5,0,0,0,.4,0l.28-.06.39,1.81a3.86,3.86,0,0,1-.53.14,3.92,3.92,0,0,1-.84.09,3.71,3.71,0,0,1-1.56-.26,2.4,2.4,0,0,1-1.1-.91,2.64,2.64,0,0,1-.4-1.53Z"
                transform="translate(-27 -27.77)" />
            <g id="SvgjsG1013">
                <path
                    d="M606.3,619.77a11.27,11.27,0,0,1,2.23,6.81v52.51c0,6-4.57,10.9-10.21,10.9H512.91c-5.64,0-10.21-4.88-10.21-10.89V626.58c0-6,4.57-10.89,10.21-10.89h21.22"
                    transform="translate(-27 -27.77)"
                    style="fill:#fff;stroke:#fabb04;stroke-miterlimit:5;stroke-width:4.56641959632302px" />
                <line x1="525.48" y1="587.91" x2="532.78" y2="587.91"
                    style="fill:none;stroke:#fabb04;stroke-miterlimit:5;stroke-width:4.56641959632302px" />
                <line x1="475.81" y1="645.62" x2="581.42" y2="647.61"
                    style="fill:none;stroke:#fabb04;stroke-miterlimit:5;stroke-width:4.56641959632302px" />
                <line x1="475.83" y1="632.21" x2="581.44" y2="634.2"
                    style="fill:none;stroke:#fabb04;stroke-miterlimit:5;stroke-width:4.56641959632302px" />
                <path
                    d="M596,556.76l30.74,32.79c-2.77,2.14-6,5.81-8.75,12.14-3.43,7.89-7.14,13.84-11.66,18.08a31.8,31.8,0,0,1-13.49,7.65c-11.53,3.35-21.46,8.38-33.53,15.62s-22.51,2.25-19.9-7.81c2-7.51,12.42-14.72,20.4-19.55,2.7-1.61,5.12-2.95,6.85-3.93,6.78-3.92,13.61-9.49,2.61-14s-16.75,17.92-16.75,17.92H534.13l2.11-19s1.57-24.59,29.86-29.62A97.74,97.74,0,0,0,596,556.76Z"
                    transform="translate(-27 -27.77)"
                    style="fill:#fff;stroke:#fabb04;stroke-miterlimit:5;stroke-width:4.56641959632302px" />
                <polygon
                    points="582.26 506.26 622.7 549.4 605.4 567.85 599.71 561.78 568.98 528.99 564.97 524.71 582.26 506.26"
                    style="fill:#fff;stroke:#fabb04;stroke-miterlimit:5;stroke-width:4.56641959632302px" />
            </g>
        </g>
        <g id="_03" data-name="03">
            <path
                d="M701.5,543.18a44.3,44.3,0,0,1-21.58-5.62l-86-48.08a44.27,44.27,0,0,1-22.66-38.62V357.19a44.28,44.28,0,0,1,22.66-38.63l86-48.08a44.24,44.24,0,0,1,43.16,0l86,48.08a44.28,44.28,0,0,1,22.66,38.63v93.67a44.27,44.27,0,0,1-22.66,38.62l-86,48.08A44.3,44.3,0,0,1,701.5,543.18Z"
                transform="translate(-27 -27.77)" style="fill:#fff" />
            <path
                d="M701.5,265.08a44.15,44.15,0,0,1,21.48,5.6l86,48.08a44,44,0,0,1,22.55,38.43v93.67A44.06,44.06,0,0,1,809,489.29l-86,48.08a44,44,0,0,1-43,0l-86-48.08a44.06,44.06,0,0,1-22.55-38.43V357.19A44,44,0,0,1,594,318.76l86-48.08a44.15,44.15,0,0,1,21.48-5.6m0-.44a44.49,44.49,0,0,0-21.69,5.65l-86,48.08A44.47,44.47,0,0,0,571,357.19v93.67a44.47,44.47,0,0,0,22.77,38.82l86,48.07a44.46,44.46,0,0,0,43.38,0l86-48.07A44.47,44.47,0,0,0,832,450.86V357.19a44.47,44.47,0,0,0-22.77-38.82l-86-48.08a44.52,44.52,0,0,0-21.69-5.65Z"
                transform="translate(-27 -27.77)" />
            <path
                d="M683,462a1.74,1.74,0,0,0-.75-1.3,2.92,2.92,0,0,0-1.72-.47,3.48,3.48,0,0,0-1.27.22,2,2,0,0,0-.81.61,1.52,1.52,0,0,0-.29.88,1.28,1.28,0,0,0,.19.71,1.56,1.56,0,0,0,.52.5,3,3,0,0,0,.72.35,5.65,5.65,0,0,0,.8.24l1.22.31a8.52,8.52,0,0,1,1.43.46,5.65,5.65,0,0,1,1.24.74,3.22,3.22,0,0,1,1.18,2.57,3.46,3.46,0,0,1-.59,2,3.79,3.79,0,0,1-1.69,1.36,6.58,6.58,0,0,1-2.68.49,6.86,6.86,0,0,1-2.65-.47,4,4,0,0,1-1.76-1.38,4.13,4.13,0,0,1-.68-2.21h2.34a1.92,1.92,0,0,0,.42,1.13,2.19,2.19,0,0,0,1,.68,3.76,3.76,0,0,0,1.34.23,3.54,3.54,0,0,0,1.35-.24,2.11,2.11,0,0,0,.92-.65,1.56,1.56,0,0,0,.34-1,1.24,1.24,0,0,0-.3-.85,2.33,2.33,0,0,0-.82-.56,8.42,8.42,0,0,0-1.23-.41l-1.49-.38a6.08,6.08,0,0,1-2.56-1.26,2.92,2.92,0,0,1-.93-2.26,3.35,3.35,0,0,1,.63-2,4.13,4.13,0,0,1,1.71-1.35,5.92,5.92,0,0,1,2.47-.49,5.69,5.69,0,0,1,2.44.49A4,4,0,0,1,684.7,460a3.41,3.41,0,0,1,.62,2Z"
                transform="translate(-27 -27.77)" />
            <path
                d="M691.86,471.66a5,5,0,0,1-2.55-.62,4.16,4.16,0,0,1-1.65-1.75,5.91,5.91,0,0,1-.57-2.68,5.76,5.76,0,0,1,.58-2.66,4.26,4.26,0,0,1,1.62-1.79,4.53,4.53,0,0,1,2.44-.64,4.89,4.89,0,0,1,1.72.29,3.77,3.77,0,0,1,1.43.9,4.16,4.16,0,0,1,1,1.54,6.24,6.24,0,0,1,.36,2.23v.71h-8.05v-1.56H694a2.44,2.44,0,0,0-.29-1.19,2,2,0,0,0-.78-.82,2.2,2.2,0,0,0-1.16-.3,2.25,2.25,0,0,0-1.25.34,2.42,2.42,0,0,0-.84.9,2.74,2.74,0,0,0-.3,1.21v1.36a3.32,3.32,0,0,0,.31,1.47,2.32,2.32,0,0,0,.88.93,2.56,2.56,0,0,0,1.32.32,2.9,2.9,0,0,0,.91-.14,2,2,0,0,0,.71-.43,1.73,1.73,0,0,0,.45-.69l2.16.24a3.28,3.28,0,0,1-.77,1.49,3.71,3.71,0,0,1-1.46,1A5.61,5.61,0,0,1,691.86,471.66Z"
                transform="translate(-27 -27.77)" />
            <path d="M700.49,458.37v13.09h-2.31V458.37Z" transform="translate(-27 -27.77)" />
            <path
                d="M707.21,471.66a5,5,0,0,1-2.54-.62,4.16,4.16,0,0,1-1.65-1.75,5.91,5.91,0,0,1-.57-2.68A5.76,5.76,0,0,1,703,464a4.26,4.26,0,0,1,1.62-1.79,4.53,4.53,0,0,1,2.44-.64,4.89,4.89,0,0,1,1.72.29,3.77,3.77,0,0,1,1.43.9,4.16,4.16,0,0,1,1,1.54,6.24,6.24,0,0,1,.36,2.23v.71h-8.05v-1.56h5.83a2.55,2.55,0,0,0-.28-1.19,2.08,2.08,0,0,0-.79-.82,2.21,2.21,0,0,0-1.17-.3,2.24,2.24,0,0,0-1.24.34,2.42,2.42,0,0,0-.84.9,2.74,2.74,0,0,0-.3,1.21v1.36a3.32,3.32,0,0,0,.31,1.47,2.26,2.26,0,0,0,.88.93,2.53,2.53,0,0,0,1.32.32,2.9,2.9,0,0,0,.91-.14,2,2,0,0,0,.71-.43,1.73,1.73,0,0,0,.45-.69l2.16.24a3.28,3.28,0,0,1-.77,1.49,3.71,3.71,0,0,1-1.46,1A5.59,5.59,0,0,1,707.21,471.66Z"
                transform="translate(-27 -27.77)" />
            <path
                d="M717.82,471.66a4.72,4.72,0,0,1-2.52-.65,4.32,4.32,0,0,1-1.62-1.79,5.78,5.78,0,0,1-.56-2.63,5.86,5.86,0,0,1,.57-2.64,4.28,4.28,0,0,1,1.63-1.79,4.66,4.66,0,0,1,2.49-.64,4.82,4.82,0,0,1,2.12.44,3.59,3.59,0,0,1,2.1,3.09h-2.22a2.16,2.16,0,0,0-.63-1.19,1.86,1.86,0,0,0-1.34-.48,2.15,2.15,0,0,0-1.25.38,2.5,2.5,0,0,0-.83,1.09,4.38,4.38,0,0,0-.3,1.7,4.71,4.71,0,0,0,.29,1.73,2.55,2.55,0,0,0,.83,1.1,2.27,2.27,0,0,0,2.18.2,1.86,1.86,0,0,0,.68-.57,2.14,2.14,0,0,0,.37-.9H722a3.81,3.81,0,0,1-.62,1.84,3.61,3.61,0,0,1-1.44,1.26A5,5,0,0,1,717.82,471.66Z"
                transform="translate(-27 -27.77)" />
            <path
                d="M728.83,461.65v1.79h-5.64v-1.79Zm-4.25-2.36h2.32v9.22a1.37,1.37,0,0,0,.14.71.73.73,0,0,0,.38.34,1.46,1.46,0,0,0,.52.09,2.41,2.41,0,0,0,.4,0l.28-.06.39,1.81a5.32,5.32,0,0,1-.53.14,4.47,4.47,0,0,1-.83.09,3.63,3.63,0,0,1-1.57-.27,2.37,2.37,0,0,1-1.1-.9,2.73,2.73,0,0,1-.4-1.54Z"
                transform="translate(-27 -27.77)" />
            <path
                d="M641.49,481.37h2.9l3.89,9.49h.15l3.89-9.49h2.9v13.09h-2.28v-9h-.12l-3.62,8.95h-1.7l-3.61-9h-.13v9h-2.27Z"
                transform="translate(-27 -27.77)" />
            <path
                d="M662.05,494.66a5,5,0,0,1-2.55-.62,4.22,4.22,0,0,1-1.65-1.75,5.91,5.91,0,0,1-.57-2.68,5.76,5.76,0,0,1,.58-2.66,4.26,4.26,0,0,1,1.62-1.79,4.53,4.53,0,0,1,2.44-.64,4.89,4.89,0,0,1,1.72.29,3.77,3.77,0,0,1,1.43.9,4,4,0,0,1,1,1.54,6.24,6.24,0,0,1,.36,2.23v.71h-8v-1.56h5.83a2.55,2.55,0,0,0-.28-1.19,2.08,2.08,0,0,0-.79-.82,2.2,2.2,0,0,0-1.16-.3,2.25,2.25,0,0,0-1.25.34,2.31,2.31,0,0,0-.83.9,2.62,2.62,0,0,0-.31,1.21v1.36a3.19,3.19,0,0,0,.32,1.47,2.23,2.23,0,0,0,.87.93,2.58,2.58,0,0,0,1.32.32,2.85,2.85,0,0,0,.91-.14,2,2,0,0,0,.71-.43,1.86,1.86,0,0,0,.46-.69l2.16.24a3.39,3.39,0,0,1-.78,1.49,3.71,3.71,0,0,1-1.46,1A5.57,5.57,0,0,1,662.05,494.66Z"
                transform="translate(-27 -27.77)" />
            <path
                d="M673.27,484.65v1.79h-5.64v-1.79ZM669,482.29h2.31v9.22a1.36,1.36,0,0,0,.15.71.7.7,0,0,0,.38.34,1.46,1.46,0,0,0,.52.09,2.41,2.41,0,0,0,.4,0l.28-.06.39,1.81a5.32,5.32,0,0,1-.53.14,4.57,4.57,0,0,1-.83.09,3.63,3.63,0,0,1-1.57-.27,2.37,2.37,0,0,1-1.1-.9,2.73,2.73,0,0,1-.4-1.54Z"
                transform="translate(-27 -27.77)" />
            <path
                d="M678,494.66a4.13,4.13,0,0,1-1.68-.33,2.78,2.78,0,0,1-1.17-1,2.88,2.88,0,0,1-.43-1.62,2.85,2.85,0,0,1,.3-1.38,2.5,2.5,0,0,1,.84-.87,4.32,4.32,0,0,1,1.2-.49,10.19,10.19,0,0,1,1.38-.25l1.4-.16a2.2,2.2,0,0,0,.79-.23.54.54,0,0,0,.24-.49v0a1.45,1.45,0,0,0-.43-1.12,1.75,1.75,0,0,0-1.23-.39,2.19,2.19,0,0,0-1.35.37,1.82,1.82,0,0,0-.66.87l-2.16-.3a3.45,3.45,0,0,1,.84-1.5,3.7,3.7,0,0,1,1.44-.91,5.62,5.62,0,0,1,1.88-.3,6.16,6.16,0,0,1,1.41.16,4,4,0,0,1,1.28.55,2.83,2.83,0,0,1,.94,1,3.36,3.36,0,0,1,.36,1.63v6.57H681v-1.34h-.07a3,3,0,0,1-.6.76,2.86,2.86,0,0,1-1,.57A3.89,3.89,0,0,1,678,494.66Zm.6-1.7a2.43,2.43,0,0,0,1.21-.28,2,2,0,0,0,.79-.73,1.9,1.9,0,0,0,.28-1v-1.16a1.07,1.07,0,0,1-.37.17,3.86,3.86,0,0,1-.58.13l-.63.11-.54.07a4.52,4.52,0,0,0-.93.23,1.64,1.64,0,0,0-.65.45,1.14,1.14,0,0,0-.23.73,1.11,1.11,0,0,0,.46,1A2.09,2.09,0,0,0,678.63,493Z"
                transform="translate(-27 -27.77)" />
            <path d="M687.86,481.37v13.09h-2.31V481.37Z" transform="translate(-27 -27.77)" />
            <path
                d="M706.51,487.92a7.65,7.65,0,0,1-.79,3.62,5.63,5.63,0,0,1-2.15,2.3,6.31,6.31,0,0,1-6.15,0,5.53,5.53,0,0,1-2.15-2.31,8.67,8.67,0,0,1,0-7.23,5.59,5.59,0,0,1,2.15-2.31,6.31,6.31,0,0,1,6.15,0,5.66,5.66,0,0,1,2.15,2.31A7.65,7.65,0,0,1,706.51,487.92Zm-2.39,0a6.13,6.13,0,0,0-.46-2.52,3.54,3.54,0,0,0-1.28-1.55,3.43,3.43,0,0,0-5,1.55,6.13,6.13,0,0,0-.47,2.52,6,6,0,0,0,.47,2.51,3.44,3.44,0,0,0,1.28,1.56,3.68,3.68,0,0,0,3.77,0,3.57,3.57,0,0,0,1.28-1.56A6.05,6.05,0,0,0,704.12,487.92Zm-4.43,2.15h2.15l1.27,1.64.91,1.08,2.18,2.8h-2.31l-1.48-1.88-.63-.9Z"
                transform="translate(-27 -27.77)" />
            <path
                d="M714.93,490.33v-5.68h2.31v9.81H715v-1.74h-.11a2.92,2.92,0,0,1-1.09,1.35,3.16,3.16,0,0,1-1.86.52,3.28,3.28,0,0,1-1.7-.43,3,3,0,0,1-1.16-1.26,4.51,4.51,0,0,1-.41-2v-6.25H711v5.89a2.08,2.08,0,0,0,.51,1.48,1.74,1.74,0,0,0,1.35.55,2.08,2.08,0,0,0,1-.25,2,2,0,0,0,.79-.74A2.39,2.39,0,0,0,714.93,490.33Z"
                transform="translate(-27 -27.77)" />
            <path
                d="M722.44,494.66a4,4,0,0,1-1.67-.33,2.75,2.75,0,0,1-1.18-1,2.88,2.88,0,0,1-.43-1.62,2.85,2.85,0,0,1,.3-1.38,2.5,2.5,0,0,1,.84-.87,4.58,4.58,0,0,1,1.2-.49,10.48,10.48,0,0,1,1.38-.25l1.4-.16a2.2,2.2,0,0,0,.79-.23.54.54,0,0,0,.24-.49v0a1.48,1.48,0,0,0-.42-1.12,1.79,1.79,0,0,0-1.24-.39,2.15,2.15,0,0,0-1.34.37,1.84,1.84,0,0,0-.67.87l-2.16-.3a3.45,3.45,0,0,1,.84-1.5,3.7,3.7,0,0,1,1.44-.91,5.62,5.62,0,0,1,1.88-.3,6.16,6.16,0,0,1,1.41.16,4.12,4.12,0,0,1,1.29.55,2.81,2.81,0,0,1,.93,1,3.36,3.36,0,0,1,.36,1.63v6.57H725.4v-1.34h-.07a3,3,0,0,1-.59.76,3,3,0,0,1-1,.57A3.85,3.85,0,0,1,722.44,494.66Zm.6-1.7a2.43,2.43,0,0,0,1.21-.28A2,2,0,0,0,725,492a1.9,1.9,0,0,0,.28-1v-1.16a1.07,1.07,0,0,1-.37.17,3.86,3.86,0,0,1-.58.13l-.63.11-.54.07a4.52,4.52,0,0,0-.93.23,1.64,1.64,0,0,0-.65.45,1.14,1.14,0,0,0-.23.73,1.09,1.09,0,0,0,.47,1A2.05,2.05,0,0,0,723,493Z"
                transform="translate(-27 -27.77)" />
            <path
                d="M732.27,488.71v5.75H730v-9.81h2.21v1.66h.12a2.77,2.77,0,0,1,1.08-1.31,3.34,3.34,0,0,1,1.84-.48A3.53,3.53,0,0,1,737,485a3,3,0,0,1,1.18,1.26,4.51,4.51,0,0,1,.41,2v6.25h-2.32v-5.89a2.18,2.18,0,0,0-.51-1.54,1.79,1.79,0,0,0-1.4-.56,2.1,2.1,0,0,0-1.07.27,1.87,1.87,0,0,0-.74.76A2.52,2.52,0,0,0,732.27,488.71Z"
                transform="translate(-27 -27.77)" />
            <path
                d="M745.84,484.65v1.79h-5.65v-1.79Zm-4.25-2.36h2.31v9.22a1.36,1.36,0,0,0,.15.71.7.7,0,0,0,.38.34,1.42,1.42,0,0,0,.52.09,2.5,2.5,0,0,0,.4,0l.28-.06.39,1.81c-.13,0-.3.09-.53.14a4.68,4.68,0,0,1-.83.09,3.61,3.61,0,0,1-1.57-.27,2.32,2.32,0,0,1-1.1-.9,2.66,2.66,0,0,1-.4-1.54Z"
                transform="translate(-27 -27.77)" />
            <path
                d="M748.94,483.25a1.34,1.34,0,0,1-1-.37,1.18,1.18,0,0,1-.39-.89,1.16,1.16,0,0,1,.39-.88,1.34,1.34,0,0,1,1-.37,1.32,1.32,0,0,1,.95.37,1.18,1.18,0,0,1,.39.89,1.16,1.16,0,0,1-.39.88A1.32,1.32,0,0,1,748.94,483.25Zm-1.16,11.21v-9.81h2.31v9.81Z"
                transform="translate(-27 -27.77)" />
            <path
                d="M757.37,484.65v1.79h-5.65v-1.79Zm-4.25-2.36h2.31v9.22a1.36,1.36,0,0,0,.15.71.7.7,0,0,0,.38.34,1.42,1.42,0,0,0,.52.09,2.41,2.41,0,0,0,.4,0l.28-.06.39,1.81c-.13,0-.3.09-.53.14a4.68,4.68,0,0,1-.83.09,3.61,3.61,0,0,1-1.57-.27,2.37,2.37,0,0,1-1.1-.9,2.66,2.66,0,0,1-.4-1.54Z"
                transform="translate(-27 -27.77)" />
            <path
                d="M760.74,498.15a4.77,4.77,0,0,1-.87-.08,2.93,2.93,0,0,1-.63-.17l.53-1.8a2.87,2.87,0,0,0,.9.14,1.09,1.09,0,0,0,.7-.25,1.73,1.73,0,0,0,.52-.79l.2-.53-3.56-10H761l2.26,7.41h.11l2.27-7.41h2.46l-3.94,11a4.39,4.39,0,0,1-.72,1.34,3.2,3.2,0,0,1-1.11.86A3.76,3.76,0,0,1,760.74,498.15Z"
                transform="translate(-27 -27.77)" />
            <g id="SvgjsG1008">
                <path
                    d="M627.52,413.42l-9.39,26.23a2.12,2.12,0,0,0,1.15,2.69,1.9,1.9,0,0,0,.7.14H783.75a2,2,0,0,0,2-2.09,2.35,2.35,0,0,0-.13-.74l-9.4-26.23a2,2,0,0,0-1.85-1.35H757.83l-8.91-24.89a2,2,0,0,0-1.85-1.35H730.53l-8.91-24.89a2,2,0,0,0-1.85-1.35H684a2,2,0,0,0-1.85,1.35l-8.91,24.89H656.67a2,2,0,0,0-1.85,1.35l-8.91,24.89H629.37A2,2,0,0,0,627.52,413.42Zm47.05,21.06L668,416.24H681.1Zm2.87,3.83,7.9-22.07H718.4l7.9,22.06H677.44Zm51.72-3.83-6.52-18.24h13.05l-6.52,18.24Zm51.73,3.83H732l7.9-22.07H773l7.9,22.06Zm-27.3-26.24H704.73l7.9-22.07H745.7Zm-51.72-3.83L695.34,390H708.4Zm-16.54-44.48H718.4l7.9,22.07H677.44l7.9-22.07ZM658,390h33.07L699,412.07H650.14L658,390Zm5.77,26.24,7.9,22.06H622.85l7.89-22.06ZM654,368.77a2,2,0,1,0,4,0,13,13,0,0,1,12.68-13.32,2.09,2.09,0,0,0,0-4.17c-7,0-12.67-5.95-12.68-13.31v-.05a2,2,0,1,0-4,0c0,7.37-5.65,13.35-12.65,13.36h0a2.09,2.09,0,0,0,0,4.17C648.36,355.46,654,361.42,654,368.77Zm2-22.52a17.32,17.32,0,0,0,6.76,7.12,17.36,17.36,0,0,0-6.77,7.1,17.21,17.21,0,0,0-6.76-7.1A17.28,17.28,0,0,0,656,346.25Zm94.31,25.8a2,2,0,1,0,4,0A13,13,0,0,1,767,358.73a2.09,2.09,0,0,0,0-4.17c-7,0-12.68-5.95-12.69-13.31v-.05a2,2,0,1,0-4,0c0,7.36-5.65,13.35-12.64,13.36h0a2.09,2.09,0,0,0,0,4.17C744.65,358.74,750.31,364.7,750.32,372.05Zm2-22.52a17.32,17.32,0,0,0,6.76,7.12,17.36,17.36,0,0,0-6.77,7.1,17.25,17.25,0,0,0-6.75-7.1,17.32,17.32,0,0,0,6.76-7.12Zm-52.43-20.59a2,2,0,1,0,4,0,13,13,0,0,1,12.68-13.32,2.09,2.09,0,0,0,0-4.17c-7,0-12.67-5.95-12.68-13.32v0a2,2,0,1,0-4,0c0,7.36-5.65,13.34-12.64,13.36h0a2.09,2.09,0,0,0,0,4.17C694.2,315.63,699.86,321.59,699.87,328.94Zm2-22.53a17.26,17.26,0,0,0,6.76,7.12,17.39,17.39,0,0,0-6.77,7.11,17.19,17.19,0,0,0-6.75-7.1,17.29,17.29,0,0,0,6.76-7.13Z"
                    transform="translate(-27 -27.77)" style="fill:#fabb04" />
            </g>
        </g>
        <g id="_02" data-name="02">
            <path
                d="M565.5,309.18a44.3,44.3,0,0,1-21.58-5.62l-86-48.08a44.27,44.27,0,0,1-22.66-38.62V123.19a44.28,44.28,0,0,1,22.66-38.63l86-48.08a44.24,44.24,0,0,1,43.16,0l86,48.08a44.28,44.28,0,0,1,22.66,38.63v93.67a44.27,44.27,0,0,1-22.66,38.62l-86,48.08A44.3,44.3,0,0,1,565.5,309.18Z"
                transform="translate(-27 -27.77)" style="fill:#fff" />
            <path
                d="M565.5,31.08A44.15,44.15,0,0,1,587,36.68l86,48.08a44,44,0,0,1,22.55,38.43v93.67A44.06,44.06,0,0,1,673,255.29l-86,48.08a44,44,0,0,1-43,0l-86-48.08a44.06,44.06,0,0,1-22.55-38.43V123.19A44,44,0,0,1,458,84.76l86-48.08a44.15,44.15,0,0,1,21.48-5.6m0-.44a44.49,44.49,0,0,0-21.69,5.65l-86,48.08A44.47,44.47,0,0,0,435,123.19v93.67a44.47,44.47,0,0,0,22.77,38.82l86,48.07a44.46,44.46,0,0,0,43.38,0l86-48.07A44.47,44.47,0,0,0,696,216.86V123.19a44.47,44.47,0,0,0-22.77-38.82l-86-48.08a44.52,44.52,0,0,0-21.69-5.65Z"
                transform="translate(-27 -27.77)" />
            <path d="M530.23,217.37l3.41,10.31h.13l3.4-10.31h2.61l-4.62,13.09h-2.92l-4.61-13.09Z"
                transform="translate(-27 -27.77)" />
            <path
                d="M542.56,219.25a1.31,1.31,0,0,1-.94-.37,1.16,1.16,0,0,1-.4-.89,1.14,1.14,0,0,1,.4-.88,1.39,1.39,0,0,1,1.89,0,1.16,1.16,0,0,1,.4.89,1.14,1.14,0,0,1-.4.88A1.3,1.3,0,0,1,542.56,219.25Zm-1.16,11.21v-9.81h2.32v9.81Z"
                transform="translate(-27 -27.77)" />
            <path
                d="M550.44,230.66a5.07,5.07,0,0,1-2.55-.62,4.14,4.14,0,0,1-1.64-1.75,6.44,6.44,0,0,1,0-5.34,4.46,4.46,0,0,1,1.62-1.79,4.54,4.54,0,0,1,2.45-.64,4.84,4.84,0,0,1,1.71.29,3.89,3.89,0,0,1,1.44.9,4.29,4.29,0,0,1,1,1.54,6.24,6.24,0,0,1,.36,2.23v.71h-8v-1.56h5.83a2.55,2.55,0,0,0-.29-1.19,2.12,2.12,0,0,0-.78-.82,2.45,2.45,0,0,0-2.42,0,2.49,2.49,0,0,0-1.13,2.11v1.36a3.19,3.19,0,0,0,.31,1.47,2.3,2.3,0,0,0,.87.93,2.58,2.58,0,0,0,1.32.32,2.69,2.69,0,0,0,.92-.14,2,2,0,0,0,.71-.43,1.73,1.73,0,0,0,.45-.69l2.16.24a3.39,3.39,0,0,1-.78,1.49,3.71,3.71,0,0,1-1.46,1A5.57,5.57,0,0,1,550.44,230.66Z"
                transform="translate(-27 -27.77)" />
            <path
                d="M558.79,230.46,556,220.65h2.36l1.73,6.9h.09l1.76-6.9h2.34l1.76,6.86h.1l1.7-6.86h2.36l-2.78,9.81H565l-1.84-6.63H563l-1.84,6.63Z"
                transform="translate(-27 -27.77)" />
            <path d="M576.4,230.46V217.37h2.38v11.11h5.76v2Z" transform="translate(-27 -27.77)" />
            <path
                d="M587.65,219.25a1.31,1.31,0,0,1-.94-.37,1.16,1.16,0,0,1-.4-.89,1.14,1.14,0,0,1,.4-.88,1.39,1.39,0,0,1,1.89,0,1.16,1.16,0,0,1,.4.89,1.14,1.14,0,0,1-.4.88A1.32,1.32,0,0,1,587.65,219.25Zm-1.16,11.21v-9.81h2.31v9.81Z"
                transform="translate(-27 -27.77)" />
            <path d="M600,220.65l-3.49,9.81H593.9l-3.5-9.81h2.47l2.26,7.29h.1l2.26-7.29Z"
                transform="translate(-27 -27.77)" />
            <path
                d="M605.9,230.66a5,5,0,0,1-2.55-.62,4.22,4.22,0,0,1-1.65-1.75,5.91,5.91,0,0,1-.57-2.68,5.76,5.76,0,0,1,.58-2.66,4.32,4.32,0,0,1,1.62-1.79,4.54,4.54,0,0,1,2.45-.64,4.88,4.88,0,0,1,1.71.29,3.77,3.77,0,0,1,1.43.9,4,4,0,0,1,1,1.54,6.24,6.24,0,0,1,.36,2.23v.71h-8v-1.56H608a2.55,2.55,0,0,0-.28-1.19,2.08,2.08,0,0,0-.79-.82,2.2,2.2,0,0,0-1.16-.3,2.25,2.25,0,0,0-1.25.34,2.31,2.31,0,0,0-.83.9,2.62,2.62,0,0,0-.31,1.21v1.36a3.19,3.19,0,0,0,.32,1.47,2.3,2.3,0,0,0,.87.93,2.94,2.94,0,0,0,2.23.18,2,2,0,0,0,.71-.43,1.86,1.86,0,0,0,.46-.69l2.16.24a3.39,3.39,0,0,1-.78,1.49,3.71,3.71,0,0,1-1.46,1A5.57,5.57,0,0,1,605.9,230.66Z"
                transform="translate(-27 -27.77)" />
            <path
                d="M523.73,242.37h2.91l3.88,9.49h.16l3.88-9.49h2.9v13.09h-2.27v-9h-.12l-3.62,9h-1.7l-3.62-9H526v9h-2.28Z"
                transform="translate(-27 -27.77)" />
            <path
                d="M544.29,255.66a5.07,5.07,0,0,1-2.55-.62,4.14,4.14,0,0,1-1.64-1.75,5.79,5.79,0,0,1-.58-2.68,5.89,5.89,0,0,1,.58-2.66,4.46,4.46,0,0,1,1.62-1.79,4.57,4.57,0,0,1,2.45-.64,4.93,4.93,0,0,1,1.72.29,3.85,3.85,0,0,1,1.43.9,4.29,4.29,0,0,1,1,1.54,6.24,6.24,0,0,1,.36,2.23v.71h-8v-1.56h5.83a2.55,2.55,0,0,0-.29-1.19,2.12,2.12,0,0,0-.78-.82,2.43,2.43,0,0,0-2.41,0,2.42,2.42,0,0,0-.84.9,2.49,2.49,0,0,0-.3,1.21v1.36a3.19,3.19,0,0,0,.31,1.47,2.26,2.26,0,0,0,.88.93,2.52,2.52,0,0,0,1.31.32,2.69,2.69,0,0,0,.92-.14,2,2,0,0,0,.71-.43,1.73,1.73,0,0,0,.45-.69l2.16.24a3.29,3.29,0,0,1-.78,1.49,3.64,3.64,0,0,1-1.46,1A5.57,5.57,0,0,1,544.29,255.66Z"
                transform="translate(-27 -27.77)" />
            <path
                d="M555.52,245.65v1.79h-5.65v-1.79Zm-4.25-2.36h2.31v9.22a1.48,1.48,0,0,0,.14.71.77.77,0,0,0,.38.34,1.51,1.51,0,0,0,.53.09,2.5,2.5,0,0,0,.4,0l.28-.06.38,1.81a5,5,0,0,1-.52.14,4.69,4.69,0,0,1-.84.09,3.56,3.56,0,0,1-1.56-.27,2.4,2.4,0,0,1-1.11-.9,2.66,2.66,0,0,1-.39-1.54Z"
                transform="translate(-27 -27.77)" />
            <path
                d="M560.28,255.66a4.13,4.13,0,0,1-1.68-.33,2.75,2.75,0,0,1-1.18-1,3,3,0,0,1-.43-1.62,2.74,2.74,0,0,1,.31-1.38,2.24,2.24,0,0,1,.84-.86,4.1,4.1,0,0,1,1.19-.5,10.34,10.34,0,0,1,1.39-.25l1.4-.16a1.9,1.9,0,0,0,.78-.23.53.53,0,0,0,.25-.49v0a1.48,1.48,0,0,0-.43-1.12,1.78,1.78,0,0,0-1.23-.39,2.19,2.19,0,0,0-1.35.37,1.9,1.9,0,0,0-.67.87l-2.16-.3a3.37,3.37,0,0,1,.85-1.5,3.73,3.73,0,0,1,1.43-.91,5.66,5.66,0,0,1,1.88-.3,6.18,6.18,0,0,1,1.42.16,4.17,4.17,0,0,1,1.28.55,2.83,2.83,0,0,1,.94,1,3.48,3.48,0,0,1,.35,1.63v6.57h-2.22v-1.34h-.08a3,3,0,0,1-.59.76,2.7,2.7,0,0,1-1,.57A3.93,3.93,0,0,1,560.28,255.66Zm.6-1.7a2.46,2.46,0,0,0,1.21-.28,2.07,2.07,0,0,0,.79-.73,2,2,0,0,0,.27-1v-1.16a1,1,0,0,1-.36.17c-.18.05-.37.1-.58.14l-.63.1-.55.07a4.87,4.87,0,0,0-.93.23,1.61,1.61,0,0,0-.64.45,1.09,1.09,0,0,0-.24.73,1.11,1.11,0,0,0,.47,1A2.09,2.09,0,0,0,560.88,254Z"
                transform="translate(-27 -27.77)" />
            <path d="M570.11,242.37v13.09h-2.32V242.37Z" transform="translate(-27 -27.77)" />
            <path
                d="M577.06,255.46V242.37H582a5.14,5.14,0,0,1,2.53.57,3.77,3.77,0,0,1,1.55,1.54,5,5,0,0,1,0,4.46,3.7,3.7,0,0,1-1.57,1.54,5.34,5.34,0,0,1-2.55.56h-3.25v-1.95h2.93a3,3,0,0,0,1.45-.31,1.92,1.92,0,0,0,.83-.84,2.71,2.71,0,0,0,.27-1.23,2.65,2.65,0,0,0-.27-1.23,2,2,0,0,0-.83-.83,3.13,3.13,0,0,0-1.46-.3h-2.17v11.11Z"
                transform="translate(-27 -27.77)" />
            <path
                d="M588.54,255.46v-9.81h2.24v1.63h.1a2.49,2.49,0,0,1,2.43-1.78l.43,0,.4,0v2.13a2.3,2.3,0,0,0-.47-.1c-.21,0-.41,0-.61,0a2.33,2.33,0,0,0-1.13.27,2.06,2.06,0,0,0-.79.76,2.1,2.1,0,0,0-.29,1.1v5.77Z"
                transform="translate(-27 -27.77)" />
            <path
                d="M596.84,244.25a1.34,1.34,0,0,1-1-.37,1.18,1.18,0,0,1-.39-.89,1.16,1.16,0,0,1,.39-.88,1.34,1.34,0,0,1,1-.37,1.32,1.32,0,0,1,.95.37,1.18,1.18,0,0,1,.39.89,1.16,1.16,0,0,1-.39.88A1.32,1.32,0,0,1,596.84,244.25Zm-1.16,11.21v-9.81H598v9.81Z"
                transform="translate(-27 -27.77)" />
            <path
                d="M604.65,255.66a4.72,4.72,0,0,1-2.52-.65,4.32,4.32,0,0,1-1.62-1.79,5.78,5.78,0,0,1-.56-2.63,5.86,5.86,0,0,1,.57-2.64,4.41,4.41,0,0,1,1.63-1.79,4.66,4.66,0,0,1,2.49-.64,4.79,4.79,0,0,1,2.12.44,3.69,3.69,0,0,1,1.47,1.23,3.63,3.63,0,0,1,.63,1.86h-2.21a2.17,2.17,0,0,0-.64-1.19,1.86,1.86,0,0,0-1.34-.48,2.15,2.15,0,0,0-1.25.38,2.58,2.58,0,0,0-.83,1.09,4.38,4.38,0,0,0-.3,1.7,4.5,4.5,0,0,0,.3,1.73,2.41,2.41,0,0,0,.82,1.1,2.27,2.27,0,0,0,2.18.2,1.86,1.86,0,0,0,.68-.57,2.29,2.29,0,0,0,.38-.9h2.21a3.81,3.81,0,0,1-.62,1.84,3.61,3.61,0,0,1-1.44,1.26A4.83,4.83,0,0,1,604.65,255.66Z"
                transform="translate(-27 -27.77)" />
            <path
                d="M615.11,255.66a5,5,0,0,1-2.55-.62,4.22,4.22,0,0,1-1.65-1.75,5.91,5.91,0,0,1-.57-2.68,5.76,5.76,0,0,1,.58-2.66,4.32,4.32,0,0,1,1.62-1.79,4.54,4.54,0,0,1,2.45-.64,4.88,4.88,0,0,1,1.71.29,3.77,3.77,0,0,1,1.43.9,4.18,4.18,0,0,1,1,1.54,6.48,6.48,0,0,1,.35,2.23v.71h-8v-1.56h5.82a2.43,2.43,0,0,0-.28-1.19,2.08,2.08,0,0,0-.79-.82,2.2,2.2,0,0,0-1.16-.3,2.25,2.25,0,0,0-1.25.34,2.39,2.39,0,0,0-.83.9,2.62,2.62,0,0,0-.31,1.21v1.36a3.19,3.19,0,0,0,.32,1.47,2.3,2.3,0,0,0,.87.93,2.94,2.94,0,0,0,2.23.18,2,2,0,0,0,.71-.43,1.86,1.86,0,0,0,.46-.69l2.16.24a3.39,3.39,0,0,1-.78,1.49,3.71,3.71,0,0,1-1.46,1A5.57,5.57,0,0,1,615.11,255.66Z"
                transform="translate(-27 -27.77)" />
            <g id="SvgjsG1065">
                <path
                    d="M571,131.36c-9.7,0-17.54,8.81-17.51,19.62s7.9,19.55,17.6,19.52,17.54-8.81,17.51-19.62a20.74,20.74,0,0,0-5.15-13.8A16.73,16.73,0,0,0,571,131.36Zm8.32,28.87a11,11,0,0,1-16.69.1,14.24,14.24,0,0,1-.08-18.6,11,11,0,0,1,16.68-.1,14.21,14.21,0,0,1,.09,18.6Zm-29.61-41c-15.6,17.61-15.6,45.93,0,63.53a3.58,3.58,0,0,1-.07,4.66,2.69,2.69,0,0,1-4.08,0c-17.88-20.17-17.88-52.61,0-72.78a2.73,2.73,0,0,1,4.15.09A3.55,3.55,0,0,1,549.71,119.21Zm46.73,68.16a2.78,2.78,0,0,1-2.07.95,3.15,3.15,0,0,1-2.91-3.34,3.49,3.49,0,0,1,.83-2.24c15.6-17.6,15.6-45.92,0-63.53a3.54,3.54,0,0,1,0-4.62,2.73,2.73,0,0,1,4.14,0C614.32,134.76,614.32,167.2,596.44,187.37Zm-64.12,6.73a3.58,3.58,0,0,1-.07,4.66,2.69,2.69,0,0,1-4.09,0c-23.45-25.18-23.45-70.3,0-95.49a2.72,2.72,0,0,1,4.14.09,3.53,3.53,0,0,1,0,4.53c-21.19,22.75-21.19,63.51,0,86.25Zm81.51,4.62a2.76,2.76,0,0,1-2.07,1,3.15,3.15,0,0,1-2.91-3.34,3.49,3.49,0,0,1,.83-2.24c21.19-22.74,21.19-63.5,0-86.25a3.54,3.54,0,0,1,.09-4.62,2.73,2.73,0,0,1,4.07,0c23.45,25.18,23.45,70.3,0,95.48ZM515,205.42a3.54,3.54,0,0,1-.07,4.65,2.67,2.67,0,0,1-4.08,0c-29.08-31.11-29.08-87,0-118.13A2.73,2.73,0,0,1,515,92a3.56,3.56,0,0,1,0,4.54C488.15,125.21,488.16,176.74,515,205.42ZM631.19,210a2.78,2.78,0,0,1-2.08,1,3.15,3.15,0,0,1-2.9-3.35,3.49,3.49,0,0,1,.83-2.23c26.81-28.68,26.8-80.21,0-108.88a3.55,3.55,0,0,1,.09-4.63,2.72,2.72,0,0,1,4.06,0C660.27,123,660.27,178.93,631.19,210Z"
                    transform="translate(-27 -27.77)" style="fill:#fabb04" />
            </g>
        </g>
        <g id="_01" data-name="01">
            <path
                d="M288.5,306.31a44.3,44.3,0,0,1-21.58-5.62l-86-48.08A44.27,44.27,0,0,1,158.22,214V120.31a44.27,44.27,0,0,1,22.66-38.62l86-48.08a44.24,44.24,0,0,1,43.16,0l86,48.08a44.27,44.27,0,0,1,22.66,38.62V214a44.27,44.27,0,0,1-22.66,38.62l-86,48.08A44.3,44.3,0,0,1,288.5,306.31Z"
                transform="translate(-27 -27.77)" style="fill:#fff" />
            <path
                d="M288.5,28.21A44.14,44.14,0,0,1,310,33.8l86,48.08a44.06,44.06,0,0,1,22.55,38.43V214A44.06,44.06,0,0,1,396,252.42L310,300.5a44.06,44.06,0,0,1-43,0l-86-48.08A44.06,44.06,0,0,1,158.44,214V120.31A44.06,44.06,0,0,1,181,81.88L267,33.8a44.14,44.14,0,0,1,21.48-5.59m0-.44a44.38,44.38,0,0,0-21.69,5.65l-86,48.08A44.44,44.44,0,0,0,158,120.31V214a44.47,44.47,0,0,0,22.77,38.81l86,48.08a44.46,44.46,0,0,0,43.38,0l86-48.08A44.47,44.47,0,0,0,419,214V120.31A44.44,44.44,0,0,0,396.23,81.5l-86-48.08a44.41,44.41,0,0,0-21.69-5.65Z"
                transform="translate(-27 -27.77)" />
            <path
                d="M223.19,238.32a1.78,1.78,0,0,0-.75-1.31,2.92,2.92,0,0,0-1.72-.46,3.28,3.28,0,0,0-1.27.22,1.89,1.89,0,0,0-.81.61,1.49,1.49,0,0,0-.29.87,1.26,1.26,0,0,0,.19.71,1.69,1.69,0,0,0,.52.51,3,3,0,0,0,.72.35c.26.09.53.17.8.24l1.22.3a8.55,8.55,0,0,1,1.43.47,5.29,5.29,0,0,1,1.24.74,3.34,3.34,0,0,1,.86,1.08,3.31,3.31,0,0,1,.32,1.49,3.48,3.48,0,0,1-.59,2,3.86,3.86,0,0,1-1.69,1.36,6.58,6.58,0,0,1-2.68.49,6.86,6.86,0,0,1-2.65-.47,4,4,0,0,1-1.76-1.38,4.16,4.16,0,0,1-.68-2.22h2.34a1.93,1.93,0,0,0,.42,1.14,2.28,2.28,0,0,0,1,.68,3.77,3.77,0,0,0,1.34.22,3.54,3.54,0,0,0,1.35-.23,2.19,2.19,0,0,0,.92-.65,1.56,1.56,0,0,0,.34-1,1.23,1.23,0,0,0-.3-.85,2.33,2.33,0,0,0-.82-.56,8.42,8.42,0,0,0-1.23-.41l-1.49-.38a6.08,6.08,0,0,1-2.56-1.26,2.92,2.92,0,0,1-.93-2.26,3.35,3.35,0,0,1,.63-2,4.23,4.23,0,0,1,1.71-1.36,6.08,6.08,0,0,1,2.47-.48,5.84,5.84,0,0,1,2.44.48,4.08,4.08,0,0,1,1.65,1.34,3.41,3.41,0,0,1,.62,2Z"
                transform="translate(-27 -27.77)" />
            <path
                d="M228.82,236.6a1.31,1.31,0,0,1-.94-.37,1.16,1.16,0,0,1-.4-.89,1.14,1.14,0,0,1,.4-.88,1.39,1.39,0,0,1,1.89,0,1.18,1.18,0,0,1,.39.89,1.16,1.16,0,0,1-.39.88A1.32,1.32,0,0,1,228.82,236.6Zm-1.16,11.21V238H230v9.82Z"
                transform="translate(-27 -27.77)" />
            <path
                d="M236.62,251.7a6,6,0,0,1-2.14-.34,3.7,3.7,0,0,1-1.44-.9,3.09,3.09,0,0,1-.75-1.24l2.08-.51a2.26,2.26,0,0,0,.41.57,2.16,2.16,0,0,0,.72.48,3.19,3.19,0,0,0,1.16.19,2.67,2.67,0,0,0,1.63-.48,1.81,1.81,0,0,0,.64-1.56v-1.86h-.11a3.2,3.2,0,0,1-.52.73,2.78,2.78,0,0,1-.9.63,3.26,3.26,0,0,1-1.41.26,4.09,4.09,0,0,1-2.05-.53,3.77,3.77,0,0,1-1.45-1.6,5.88,5.88,0,0,1-.54-2.67,6.21,6.21,0,0,1,.54-2.73,4,4,0,0,1,1.46-1.7,3.81,3.81,0,0,1,2.05-.57,3,3,0,0,1,1.42.29,2.75,2.75,0,0,1,.89.69,3.78,3.78,0,0,1,.51.77H239V238h2.28v10a3.44,3.44,0,0,1-.6,2.08,3.59,3.59,0,0,1-1.65,1.24A6.45,6.45,0,0,1,236.62,251.7Zm0-5.85a2.12,2.12,0,0,0,1.25-.35,2.18,2.18,0,0,0,.79-1,4.34,4.34,0,0,0,.27-1.61,4.53,4.53,0,0,0-.27-1.63,2.44,2.44,0,0,0-.78-1.08,2.23,2.23,0,0,0-2.55,0,2.31,2.31,0,0,0-.78,1.1,4.42,4.42,0,0,0-.26,1.59,4.2,4.2,0,0,0,.26,1.57,2.29,2.29,0,0,0,.79,1A2.11,2.11,0,0,0,236.64,245.85Z"
                transform="translate(-27 -27.77)" />
            <path
                d="M245.92,242.06v5.75h-2.31V238h2.21v1.67h.11a2.8,2.8,0,0,1,1.09-1.31,3.31,3.31,0,0,1,1.84-.48,3.46,3.46,0,0,1,1.77.43,2.94,2.94,0,0,1,1.18,1.26,4.25,4.25,0,0,1,.41,2v6.25h-2.31v-5.89a2.18,2.18,0,0,0-.51-1.54,1.82,1.82,0,0,0-1.4-.56,2.11,2.11,0,0,0-1.08.27,1.79,1.79,0,0,0-.73.76A2.49,2.49,0,0,0,245.92,242.06Z"
                transform="translate(-27 -27.77)" />
            <path d="M261.52,234.72v13.09h-2.37V234.72Z" transform="translate(-27 -27.77)" />
            <path
                d="M266.31,242.06v5.75H264V238h2.21v1.67h.11a2.8,2.8,0,0,1,1.09-1.31,3.31,3.31,0,0,1,1.84-.48,3.46,3.46,0,0,1,1.77.43,2.94,2.94,0,0,1,1.18,1.26,4.25,4.25,0,0,1,.41,2v6.25H270.3v-5.89a2.18,2.18,0,0,0-.51-1.54,1.82,1.82,0,0,0-1.4-.56,2.11,2.11,0,0,0-1.08.27,1.79,1.79,0,0,0-.73.76A2.49,2.49,0,0,0,266.31,242.06Z"
                transform="translate(-27 -27.77)" />
            <path d="M282.76,249.78l-4.22-15.67h2l4.22,15.67Z" transform="translate(-27 -27.77)" />
            <path
                d="M297.94,238.32a1.78,1.78,0,0,0-.75-1.31,2.94,2.94,0,0,0-1.72-.46,3.24,3.24,0,0,0-1.27.22,1.83,1.83,0,0,0-.81.61,1.42,1.42,0,0,0-.29.87,1.26,1.26,0,0,0,.19.71,1.65,1.65,0,0,0,.51.51,3.43,3.43,0,0,0,.72.35l.8.24,1.23.3a8.55,8.55,0,0,1,1.43.47,5,5,0,0,1,1.23.74,3.24,3.24,0,0,1,.87,1.08,3.31,3.31,0,0,1,.32,1.49,3.55,3.55,0,0,1-.59,2,3.89,3.89,0,0,1-1.7,1.36,6.55,6.55,0,0,1-2.68.49,6.89,6.89,0,0,1-2.65-.47,4,4,0,0,1-1.75-1.38,4.08,4.08,0,0,1-.68-2.22h2.33a2,2,0,0,0,.43,1.14,2.24,2.24,0,0,0,1,.68,3.81,3.81,0,0,0,1.34.22,3.56,3.56,0,0,0,1.36-.23,2.19,2.19,0,0,0,.92-.65,1.62,1.62,0,0,0,.34-1,1.33,1.33,0,0,0-.3-.85,2.33,2.33,0,0,0-.82-.56,9.31,9.31,0,0,0-1.23-.41l-1.49-.38a6.08,6.08,0,0,1-2.56-1.26,2.92,2.92,0,0,1-.93-2.26,3.35,3.35,0,0,1,.63-2A4.23,4.23,0,0,1,293,235a6.07,6.07,0,0,1,2.46-.48A5.85,5.85,0,0,1,298,235a4.08,4.08,0,0,1,1.65,1.34,3.41,3.41,0,0,1,.62,2Z"
                transform="translate(-27 -27.77)" />
            <path
                d="M303.57,236.6a1.34,1.34,0,0,1-.95-.37,1.18,1.18,0,0,1-.39-.89,1.16,1.16,0,0,1,.39-.88,1.34,1.34,0,0,1,.95-.37,1.32,1.32,0,0,1,.95.37,1.18,1.18,0,0,1,.39.89,1.16,1.16,0,0,1-.39.88A1.32,1.32,0,0,1,303.57,236.6Zm-1.16,11.21V238h2.31v9.82Z"
                transform="translate(-27 -27.77)" />
            <path
                d="M311.37,251.7a5.93,5.93,0,0,1-2.14-.34,3.7,3.7,0,0,1-1.44-.9,3.12,3.12,0,0,1-.76-1.24l2.09-.51a2.26,2.26,0,0,0,.41.57,2.16,2.16,0,0,0,.72.48,3.19,3.19,0,0,0,1.16.19,2.67,2.67,0,0,0,1.63-.48,1.81,1.81,0,0,0,.64-1.56v-1.86h-.11a3.54,3.54,0,0,1-.52.73,2.72,2.72,0,0,1-.91.63,3.21,3.21,0,0,1-1.4.26,4.07,4.07,0,0,1-2.05-.53,3.86,3.86,0,0,1-1.46-1.6,6,6,0,0,1-.54-2.67,6.35,6.35,0,0,1,.54-2.73,4,4,0,0,1,1.47-1.7,3.79,3.79,0,0,1,2.05-.57,3,3,0,0,1,1.42.29,2.75,2.75,0,0,1,.89.69,4.25,4.25,0,0,1,.51.77h.12V238H316v10a3.44,3.44,0,0,1-.6,2.08,3.64,3.64,0,0,1-1.65,1.24A6.45,6.45,0,0,1,311.37,251.7Zm0-5.85a2.14,2.14,0,0,0,1.25-.35,2.25,2.25,0,0,0,.79-1,5.18,5.18,0,0,0,0-3.24,2.44,2.44,0,0,0-.78-1.08,2.23,2.23,0,0,0-2.55,0,2.31,2.31,0,0,0-.78,1.1,4.42,4.42,0,0,0-.27,1.59,4.2,4.2,0,0,0,.27,1.57,2.35,2.35,0,0,0,.78,1A2.16,2.16,0,0,0,311.39,245.85Z"
                transform="translate(-27 -27.77)" />
            <path
                d="M320.67,242.06v5.75h-2.32V238h2.22v1.67h.11a2.83,2.83,0,0,1,1.08-1.31,3.37,3.37,0,0,1,1.85-.48,3.46,3.46,0,0,1,1.77.43,2.94,2.94,0,0,1,1.18,1.26,4.38,4.38,0,0,1,.41,2v6.25h-2.31v-5.89a2.18,2.18,0,0,0-.51-1.54,1.82,1.82,0,0,0-1.4-.56,2.11,2.11,0,0,0-1.08.27,1.81,1.81,0,0,0-.74.76A2.61,2.61,0,0,0,320.67,242.06Z"
                transform="translate(-27 -27.77)" />
            <path
                d="M342.15,234.72h2.37v8.55a4.64,4.64,0,0,1-.66,2.48,4.49,4.49,0,0,1-1.86,1.66,6.1,6.1,0,0,1-2.79.6,6.18,6.18,0,0,1-2.8-.6,4.46,4.46,0,0,1-1.85-1.66,4.64,4.64,0,0,1-.66-2.48v-8.55h2.37v8.35a2.9,2.9,0,0,0,.36,1.46,2.52,2.52,0,0,0,1,1,3.56,3.56,0,0,0,3.12,0,2.52,2.52,0,0,0,1-1,2.9,2.9,0,0,0,.36-1.46Z"
                transform="translate(-27 -27.77)" />
            <path
                d="M347,251.49V238h2.28v1.63h.13a4.25,4.25,0,0,1,.51-.77,2.6,2.6,0,0,1,.88-.69,3,3,0,0,1,1.42-.29,3.79,3.79,0,0,1,2,.57,4,4,0,0,1,1.46,1.71,6.35,6.35,0,0,1,.54,2.76,6.48,6.48,0,0,1-.53,2.75,4,4,0,0,1-1.44,1.73,3.68,3.68,0,0,1-2.07.59,3,3,0,0,1-1.4-.28,2.64,2.64,0,0,1-.9-.68,4.49,4.49,0,0,1-.52-.76h-.09v5.23Zm2.27-8.59a4.72,4.72,0,0,0,.27,1.67,2.53,2.53,0,0,0,.79,1.12,2,2,0,0,0,1.25.39,2,2,0,0,0,1.28-.41,2.49,2.49,0,0,0,.79-1.13,4.87,4.87,0,0,0,.26-1.64,4.52,4.52,0,0,0-.26-1.62,2.34,2.34,0,0,0-.78-1.11,2,2,0,0,0-1.29-.41,2.05,2.05,0,0,0-1.26.39,2.38,2.38,0,0,0-.78,1.1A4.6,4.6,0,0,0,349.27,242.9Z"
                transform="translate(-27 -27.77)" />
            <polyline points="239.2 144.94 267.43 118.09 239.2 91.23"
                style="fill:none;stroke:#fabb04;stroke-linecap:round;stroke-linejoin:round;stroke-width:7.867931842803955px" />
            <line x1="192.13" y1="118.09" x2="267.41" y2="118.09"
                style="fill:none;stroke:#fabb04;stroke-linecap:round;stroke-linejoin:round;stroke-width:7.867931842803955px" />
            <path d="M294.43,89.58h37.64a5.25,5.25,0,0,1,5.38,5.12V197a5.25,5.25,0,0,1-5.38,5.12H294.43"
                transform="translate(-27 -27.77)"
                style="fill:none;stroke:#fabb04;stroke-linecap:round;stroke-linejoin:round;stroke-width:7.867931842803955px" />
        </g>
    </g>
</svg>