<svg xmlns="http://www.w3.org/2000/svg" xmlns:xlink="http://www.w3.org/1999/xlink" viewBox="0 0 495.75 360.06"><defs><linearGradient id="linear-gradient" x1="153.41" y1="64.99" x2="142.11" y2="295.39" gradientUnits="userSpaceOnUse"><stop offset="0.17" stop-color="#e6d279"/><stop offset="0.21" stop-color="#e6d074"/><stop offset="0.25" stop-color="#e8cc64"/><stop offset="0.31" stop-color="#e9c54a"/><stop offset="0.32" stop-color="#eac343"/><stop offset="0.4" stop-color="#d2a033"/><stop offset="0.51" stop-color="#b47620"/><stop offset="0.62" stop-color="#9a5b1e"/><stop offset="0.71" stop-color="#8a5119"/><stop offset="0.87" stop-color="#60370c"/><stop offset="1" stop-color="#391f00"/></linearGradient><linearGradient id="linear-gradient-2" x1="118.92" y1="-52.97" x2="118.92" y2="248.18" gradientTransform="translate(-8.05 89.19) rotate(2.81)" xlink:href="#linear-gradient"/><linearGradient id="linear-gradient-3" x1="92.74" y1="-52.97" x2="92.74" y2="248.17" gradientTransform="translate(-8.05 89.19) rotate(2.81)" xlink:href="#linear-gradient"/><linearGradient id="linear-gradient-4" x1="110.15" y1="-52.97" x2="110.15" y2="248.18" gradientTransform="translate(-8.05 89.19) rotate(2.81)" xlink:href="#linear-gradient"/><linearGradient id="linear-gradient-5" x1="83.6" y1="-52.96" x2="83.6" y2="248.17" gradientTransform="translate(-8.05 89.19) rotate(2.81)" xlink:href="#linear-gradient"/><linearGradient id="linear-gradient-6" x1="104.19" y1="-52.97" x2="104.19" y2="248.18" gradientTransform="translate(-8.05 89.19) rotate(2.81)" xlink:href="#linear-gradient"/><linearGradient id="linear-gradient-7" x1="76.93" y1="-52.96" x2="76.93" y2="248.16" gradientTransform="translate(-8.05 89.19) rotate(2.81)" xlink:href="#linear-gradient"/><linearGradient id="linear-gradient-8" x1="102.74" y1="-52.97" x2="102.74" y2="248.17" gradientTransform="translate(-8.05 89.19) rotate(2.81)" xlink:href="#linear-gradient"/><linearGradient id="linear-gradient-9" x1="76.33" y1="-52.96" x2="76.33" y2="248.16" gradientTransform="translate(-8.05 89.19) rotate(2.81)" xlink:href="#linear-gradient"/><linearGradient id="linear-gradient-10" x1="107.88" y1="-52.97" x2="107.88" y2="248.17" gradientTransform="translate(-8.05 89.19) rotate(2.81)" xlink:href="#linear-gradient"/><linearGradient id="linear-gradient-11" x1="82.53" y1="-52.96" x2="82.53" y2="248.16" gradientTransform="translate(-8.05 89.19) rotate(2.81)" xlink:href="#linear-gradient"/><linearGradient id="linear-gradient-12" x1="115.89" y1="-52.97" x2="115.89" y2="248.17" gradientTransform="translate(-8.05 89.19) rotate(2.81)" xlink:href="#linear-gradient"/><linearGradient id="linear-gradient-13" x1="94.18" y1="-52.96" x2="94.18" y2="248.17" gradientTransform="translate(-8.05 89.19) rotate(2.81)" xlink:href="#linear-gradient"/><linearGradient id="linear-gradient-14" x1="131.4" y1="-52.97" x2="131.4" y2="248.17" gradientTransform="translate(-8.05 89.19) rotate(2.81)" xlink:href="#linear-gradient"/><linearGradient id="linear-gradient-15" x1="114.87" y1="-52.97" x2="114.87" y2="248.17" gradientTransform="translate(-8.05 89.19) rotate(2.81)" xlink:href="#linear-gradient"/><linearGradient id="linear-gradient-16" x1="153.01" y1="-52.97" x2="153.01" y2="248.17" gradientTransform="translate(-8.05 89.19) rotate(2.81)" xlink:href="#linear-gradient"/><linearGradient id="linear-gradient-17" x1="141.67" y1="-52.98" x2="141.67" y2="248.17" gradientTransform="translate(-8.05 89.19) rotate(2.81)" xlink:href="#linear-gradient"/><linearGradient id="linear-gradient-18" x1="174.67" y1="-52.97" x2="174.67" y2="248.17" gradientTransform="translate(-8.05 89.19) rotate(2.81)" xlink:href="#linear-gradient"/><linearGradient id="linear-gradient-19" x1="166.86" y1="-52.98" x2="166.86" y2="248.17" gradientTransform="translate(-8.05 89.19) rotate(2.81)" xlink:href="#linear-gradient"/><linearGradient id="linear-gradient-20" x1="120.72" y1="-52.97" x2="120.72" y2="248.18" gradientTransform="translate(-8.05 89.19) rotate(2.81)" xlink:href="#linear-gradient"/><radialGradient id="radial-gradient" cx="1077.06" cy="-784.03" r="33.4" gradientTransform="matrix(0.79, -1.41, 2.06, 1.15, 873.42, 2490.6)" gradientUnits="userSpaceOnUse"><stop offset="0" stop-color="#e6d279"/><stop offset="0.07" stop-color="#b47620"/><stop offset="0.1" stop-color="#9b661c" stop-opacity="0.86"/><stop offset="0.15" stop-color="#774e15" stop-opacity="0.66"/><stop offset="0.2" stop-color="#57390f" stop-opacity="0.48"/><stop offset="0.26" stop-color="#3b270b" stop-opacity="0.33"/><stop offset="0.32" stop-color="#251907" stop-opacity="0.21"/><stop offset="0.4" stop-color="#140d04" stop-opacity="0.11"/><stop offset="0.5" stop-color="#090602" stop-opacity="0.05"/><stop offset="0.63" stop-color="#020100" stop-opacity="0.01"/><stop offset="1" stop-opacity="0"/></radialGradient><radialGradient id="radial-gradient-2" cx="1059.33" cy="-2595.28" r="33.41" gradientTransform="matrix(1.43, 0, 0, 0.76, -1415.78, 2047.05)" xlink:href="#radial-gradient"/><radialGradient id="radial-gradient-3" cx="1115.66" cy="-6333.12" r="33.4" gradientTransform="matrix(1.1, -1.97, 0.28, 0.16, 638.37, 3252.16)" xlink:href="#radial-gradient"/><radialGradient id="radial-gradient-4" cx="1090.35" cy="-779.94" r="33.4" gradientTransform="matrix(1.62, 0, 0, 2.36, -1670.52, 1927.24)" xlink:href="#radial-gradient"/><radialGradient id="radial-gradient-5" cx="1074.86" cy="-2584.84" r="33.41" gradientTransform="matrix(1.43, 0, 0, 0.76, -1448.73, 2056.66)" xlink:href="#radial-gradient"/><radialGradient id="radial-gradient-6" cx="1125.13" cy="-6304.14" r="33.4" gradientTransform="matrix(1.05, -2, 0.28, 0.15, 693.09, 3269.72)" xlink:href="#radial-gradient"/><radialGradient id="radial-gradient-7" cx="1232.39" cy="-741.93" r="33.4" gradientTransform="matrix(1.62, 0, 0, 2.36, -1909.26, 1861.32)" xlink:href="#radial-gradient"/><radialGradient id="radial-gradient-8" cx="1235.43" cy="-2465.96" r="33.4" gradientTransform="matrix(1.43, 0, 0, 0.76, -1688.29, 1990)" xlink:href="#radial-gradient"/><radialGradient id="radial-gradient-9" cx="1227.19" cy="-6021.01" r="33.4" gradientTransform="matrix(0.71, -2.15, 0.3, 0.1, 1030.71, 3346.63)" xlink:href="#radial-gradient"/><radialGradient id="radial-gradient-10" cx="1414.89" cy="-663.13" r="33.4" gradientTransform="matrix(1.62, 0, 0, 2.36, -2210.31, 1702.16)" xlink:href="#radial-gradient"/><radialGradient id="radial-gradient-11" cx="1441.08" cy="-2220.72" r="33.41" gradientTransform="matrix(1.43, 0, 0, 0.76, -1988.86, 1830.08)" xlink:href="#radial-gradient"/><radialGradient id="radial-gradient-12" cx="1357.29" cy="-5434.89" r="33.4" gradientTransform="matrix(0.22, -2.25, 0.32, 0.03, 1500.97, 3359.19)" xlink:href="#radial-gradient"/><radialGradient id="radial-gradient-13" cx="1597.19" cy="-531.28" r="33.4" gradientTransform="matrix(0, -1.62, 2.36, 0, 1334.65, 2749.12)" xlink:href="#radial-gradient"/><radialGradient id="radial-gradient-14" cx="1646.72" cy="-1813.03" r="33.41" gradientTransform="matrix(0, -1.43, 0.76, 0, 1462.77, 2528.01)" xlink:href="#radial-gradient"/><radialGradient id="radial-gradient-15" cx="1488.32" cy="-4462.23" r="33.4" gradientTransform="matrix(-0.38, -2.23, 0.31, -0.05, 2052.82, 3238.9)" xlink:href="#radial-gradient"/><radialGradient id="radial-gradient-16" cx="1692.17" cy="-416.05" r="33.4" gradientTransform="matrix(0, -1.62, 2.36, 0, 1067.44, 2929.36)" xlink:href="#radial-gradient"/><radialGradient id="radial-gradient-17" cx="1753.53" cy="-1455.04" r="33.41" gradientTransform="matrix(0, -1.43, 0.76, 0, 1194.8, 2708)" xlink:href="#radial-gradient"/><radialGradient id="radial-gradient-18" cx="1555.83" cy="-3602.76" r="33.39" gradientTransform="matrix(0, -2.26, 0.32, 0, 1232.94, 3709.78)" xlink:href="#radial-gradient"/><radialGradient id="radial-gradient-19" cx="1726.59" cy="-333.63" r="33.4" gradientTransform="matrix(0, -1.62, 2.36, 0, 884.3, 3013.08)" xlink:href="#radial-gradient"/><radialGradient id="radial-gradient-20" cx="1793.29" cy="-1199.75" r="33.41" gradientTransform="matrix(-0.69, -1.26, 0.67, -0.36, 2129.16, 2043.2)" xlink:href="#radial-gradient"/><radialGradient id="radial-gradient-21" cx="1580.87" cy="-2995.23" r="33.39" gradientTransform="matrix(-1.08, -1.99, 0.28, -0.15, 2641.51, 2904.12)" xlink:href="#radial-gradient"/><radialGradient id="radial-gradient-22" cx="1755" cy="-211" r="33.4" gradientTransform="matrix(0, -1.62, 2.36, 0, 614.39, 3087.06)" xlink:href="#radial-gradient"/><radialGradient id="radial-gradient-23" cx="1824.76" cy="-819.8" r="33.41" gradientTransform="matrix(0, -1.43, 0.76, 0, 741.57, 2865.95)" xlink:href="#radial-gradient"/><radialGradient id="radial-gradient-24" cx="1600.71" cy="-2081.7" r="33.4" gradientTransform="matrix(-1.42, -1.76, 0.25, -0.2, 2909.03, 2642.98)" xlink:href="#radial-gradient"/><radialGradient id="radial-gradient-25" cx="1745.86" cy="-25.35" r="33.4" gradientTransform="matrix(0, -1.62, 2.36, 0, 199.78, 3095.01)" xlink:href="#radial-gradient"/><radialGradient id="radial-gradient-26" cx="1814.99" cy="-247.52" r="33.41" gradientTransform="matrix(0, -1.43, 0.76, 0, 328.65, 2874.75)" xlink:href="#radial-gradient"/><radialGradient id="radial-gradient-27" cx="1594.76" cy="-707.29" r="33.4" gradientTransform="matrix(0, -2.26, 0.32, 0, 365.36, 3876.23)" xlink:href="#radial-gradient"/><radialGradient id="radial-gradient-28" cx="1694.7" cy="100.11" r="33.4" gradientTransform="matrix(0, -1.62, 2.36, 0, -72.86, 3026.79)" xlink:href="#radial-gradient"/><radialGradient id="radial-gradient-29" cx="1756.81" cy="142.97" r="33.41" gradientTransform="matrix(0, -1.43, 0.76, 0, 54.72, 2805.8)" xlink:href="#radial-gradient"/><radialGradient id="radial-gradient-30" cx="1557.52" cy="225.24" r="33.4" gradientTransform="matrix(-2.05, -0.95, 0.13, -0.29, 3327.08, 1834.65)" xlink:href="#radial-gradient"/><linearGradient id="linear-gradient-21" x1="342.34" y1="64.99" x2="353.64" y2="295.39" xlink:href="#linear-gradient"/><linearGradient id="linear-gradient-22" x1="287.45" y1="-61.24" x2="287.45" y2="239.91" gradientTransform="matrix(-1, 0.05, 0.05, 1, 672.54, 89.19)" xlink:href="#linear-gradient"/><linearGradient id="linear-gradient-23" x1="261.27" y1="-61.23" x2="261.27" y2="239.9" gradientTransform="matrix(-1, 0.05, 0.05, 1, 672.54, 89.19)" xlink:href="#linear-gradient"/><linearGradient id="linear-gradient-24" x1="278.69" y1="-61.24" x2="278.69" y2="239.92" gradientTransform="matrix(-1, 0.05, 0.05, 1, 672.54, 89.19)" xlink:href="#linear-gradient"/><linearGradient id="linear-gradient-25" x1="252.13" y1="-61.23" x2="252.13" y2="239.9" gradientTransform="matrix(-1, 0.05, 0.05, 1, 672.54, 89.19)" xlink:href="#linear-gradient"/><linearGradient id="linear-gradient-26" x1="272.72" y1="-61.24" x2="272.72" y2="239.91" gradientTransform="matrix(-1, 0.05, 0.05, 1, 672.54, 89.19)" xlink:href="#linear-gradient"/><linearGradient id="linear-gradient-27" x1="245.46" y1="-61.23" x2="245.46" y2="239.9" gradientTransform="matrix(-1, 0.05, 0.05, 1, 672.54, 89.19)" xlink:href="#linear-gradient"/><linearGradient id="linear-gradient-28" x1="271.27" y1="-61.24" x2="271.27" y2="239.91" gradientTransform="matrix(-1, 0.05, 0.05, 1, 672.54, 89.19)" xlink:href="#linear-gradient"/><linearGradient id="linear-gradient-29" x1="244.86" y1="-61.23" x2="244.86" y2="239.89" gradientTransform="matrix(-1, 0.05, 0.05, 1, 672.54, 89.19)" xlink:href="#linear-gradient"/><linearGradient id="linear-gradient-30" x1="276.41" y1="-61.24" x2="276.41" y2="239.91" gradientTransform="matrix(-1, 0.05, 0.05, 1, 672.54, 89.19)" xlink:href="#linear-gradient"/><linearGradient id="linear-gradient-31" x1="251.07" y1="-61.23" x2="251.07" y2="239.89" gradientTransform="matrix(-1, 0.05, 0.05, 1, 672.54, 89.19)" xlink:href="#linear-gradient"/><linearGradient id="linear-gradient-32" x1="284.42" y1="-61.24" x2="284.42" y2="239.9" gradientTransform="matrix(-1, 0.05, 0.05, 1, 672.54, 89.19)" xlink:href="#linear-gradient"/><linearGradient id="linear-gradient-33" x1="262.71" y1="-61.23" x2="262.71" y2="239.9" gradientTransform="matrix(-1, 0.05, 0.05, 1, 672.54, 89.19)" xlink:href="#linear-gradient"/><linearGradient id="linear-gradient-34" x1="299.93" y1="-61.24" x2="299.93" y2="239.9" gradientTransform="matrix(-1, 0.05, 0.05, 1, 672.54, 89.19)" xlink:href="#linear-gradient"/><linearGradient id="linear-gradient-35" x1="283.4" y1="-61.24" x2="283.4" y2="239.9" gradientTransform="matrix(-1, 0.05, 0.05, 1, 672.54, 89.19)" xlink:href="#linear-gradient"/><linearGradient id="linear-gradient-36" x1="321.54" y1="-61.23" x2="321.54" y2="239.9" gradientTransform="matrix(-1, 0.05, 0.05, 1, 672.54, 89.19)" xlink:href="#linear-gradient"/><linearGradient id="linear-gradient-37" x1="310.21" y1="-61.25" x2="310.21" y2="239.9" gradientTransform="matrix(-1, 0.05, 0.05, 1, 672.54, 89.19)" xlink:href="#linear-gradient"/><linearGradient id="linear-gradient-38" x1="343.2" y1="-61.23" x2="343.2" y2="239.9" gradientTransform="matrix(-1, 0.05, 0.05, 1, 672.54, 89.19)" xlink:href="#linear-gradient"/><linearGradient id="linear-gradient-39" x1="335.39" y1="-61.25" x2="335.39" y2="239.9" gradientTransform="matrix(-1, 0.05, 0.05, 1, 672.54, 89.19)" xlink:href="#linear-gradient"/><linearGradient id="linear-gradient-40" x1="289.25" y1="-61.24" x2="289.25" y2="239.91" gradientTransform="matrix(-1, 0.05, 0.05, 1, 672.54, 89.19)" xlink:href="#linear-gradient"/><radialGradient id="radial-gradient-31" cx="1127.87" cy="-721.68" r="33.4" gradientTransform="matrix(-0.79, -1.41, -2.06, 1.15, -208.93, 2490.6)" xlink:href="#radial-gradient"/><radialGradient id="radial-gradient-32" cx="1116.59" cy="-2402.2" r="33.41" gradientTransform="matrix(-0.7, -1.25, -0.67, 0.37, -429.18, 2358.38)" xlink:href="#radial-gradient"/><radialGradient id="radial-gradient-33" cx="1151.99" cy="-5870.78" r="33.4" gradientTransform="matrix(-1.1, -1.97, -0.28, 0.16, 26.11, 3252.16)" xlink:href="#radial-gradient"/><radialGradient id="radial-gradient-34" cx="1138.76" cy="-716.7" r="33.4" gradientTransform="matrix(0, -1.62, -2.36, 0, -1291.74, 1926.15)" xlink:href="#radial-gradient"/><radialGradient id="radial-gradient-35" cx="1129.43" cy="-2389.02" r="33.41" gradientTransform="matrix(0, -1.43, -0.76, 0, -1421.16, 1704.37)" xlink:href="#radial-gradient"/><radialGradient id="radial-gradient-36" cx="1159.76" cy="-5835.28" r="33.4" gradientTransform="matrix(-1.05, -2, -0.28, 0.15, -28.6, 3269.72)" xlink:href="#radial-gradient"/><radialGradient id="radial-gradient-37" cx="1265.29" cy="-674.18" r="33.4" gradientTransform="matrix(0, -1.62, -2.36, 0, -1182.29, 2154.81)" xlink:href="#radial-gradient"/><radialGradient id="radial-gradient-38" cx="1272.52" cy="-2256.17" r="33.4" gradientTransform="matrix(0, -1.43, -0.76, 0, -1310.96, 1933.84)" xlink:href="#radial-gradient"/><radialGradient id="radial-gradient-39" cx="1250.74" cy="-5518.73" r="33.4" gradientTransform="matrix(-0.71, -2.15, -0.3, 0.1, -366.22, 3346.63)" xlink:href="#radial-gradient"/><radialGradient id="radial-gradient-40" cx="1425.14" cy="-592.08" r="33.4" gradientTransform="matrix(0, -1.62, -2.36, 0, -982.34, 2440.56)" xlink:href="#radial-gradient"/><radialGradient id="radial-gradient-41" cx="1452.64" cy="-2000.72" r="33.41" gradientTransform="matrix(0, -1.43, -0.76, 0, -1110.26, 2219.11)" xlink:href="#radial-gradient"/><radialGradient id="radial-gradient-42" cx="1364.62" cy="-4908.07" r="33.4" gradientTransform="matrix(-0.22, -2.25, -0.32, 0.03, -836.49, 3359.19)" xlink:href="#radial-gradient"/><radialGradient id="radial-gradient-43" cx="1579.45" cy="-460.92" r="33.4" gradientTransform="matrix(1.62, 0, 0, -2.36, -2138.57, -924.32)" xlink:href="#radial-gradient"/><radialGradient id="radial-gradient-44" cx="1626.73" cy="-1595.17" r="33.41" gradientTransform="matrix(1.43, 0, 0, -0.76, -1917.46, -1052.44)" xlink:href="#radial-gradient"/><radialGradient id="radial-gradient-45" cx="1475.61" cy="-3940.58" r="33.4" gradientTransform="matrix(0.38, -2.23, -0.31, -0.05, -1388.33, 3238.9)" xlink:href="#radial-gradient"/><radialGradient id="radial-gradient-46" cx="1654.54" cy="-349.46" r="33.4" gradientTransform="matrix(1.62, 0, 0, -2.36, -2265.14, -634.06)" xlink:href="#radial-gradient"/><radialGradient id="radial-gradient-47" cx="1711.11" cy="-1248.86" r="33.41" gradientTransform="matrix(1.43, 0, 0, -0.76, -2043.77, -761.42)" xlink:href="#radial-gradient"/><radialGradient id="radial-gradient-48" cx="1528.91" cy="-3109.2" r="33.39" gradientTransform="matrix(2.26, 0, 0, -0.32, -3045.56, -799.56)" xlink:href="#radial-gradient"/><radialGradient id="radial-gradient-49" cx="1676.79" cy="-270.9" r="33.4" gradientTransform="matrix(1.62, 0, 0, -2.36, -2313.03, -420.61)" xlink:href="#radial-gradient"/><radialGradient id="radial-gradient-50" cx="1737.15" cy="-1005.5" r="33.41" gradientTransform="matrix(0.69, -1.26, -0.67, -0.36, -1464.68, 2043.2)" xlink:href="#radial-gradient"/><radialGradient id="radial-gradient-51" cx="1545.22" cy="-2530.22" r="33.39" gradientTransform="matrix(1.08, -1.99, -0.28, -0.15, -1977.03, 2904.12)" xlink:href="#radial-gradient"/><radialGradient id="radial-gradient-52" cx="1689.37" cy="-155.51" r="33.4" gradientTransform="matrix(1.62, 0, 0, -2.36, -2353.22, -119.88)" xlink:href="#radial-gradient"/><radialGradient id="radial-gradient-53" cx="1750.76" cy="-648" r="33.41" gradientTransform="matrix(1.43, 0, 0, -0.76, -2132.11, -247.06)" xlink:href="#radial-gradient"/><radialGradient id="radial-gradient-54" cx="1553.75" cy="-1670.28" r="33.4" gradientTransform="matrix(1.42, -1.76, -0.25, -0.2, -2244.54, 2642.98)" xlink:href="#radial-gradient"/><radialGradient id="radial-gradient-55" cx="1661.07" cy="16.22" r="33.4" gradientTransform="matrix(1.62, 0, 0, -2.36, -2331.57, 308.76)" xlink:href="#radial-gradient"/><radialGradient id="radial-gradient-56" cx="1719.39" cy="-118.78" r="33.41" gradientTransform="matrix(1.43, 0, 0, -0.76, -2111.3, 179.89)" xlink:href="#radial-gradient"/><radialGradient id="radial-gradient-57" cx="1534.08" cy="-399.09" r="33.4" gradientTransform="matrix(2.26, 0, 0, -0.32, -3112.79, 143.19)" xlink:href="#radial-gradient"/><radialGradient id="radial-gradient-58" cx="1600.13" cy="130.21" r="33.4" gradientTransform="matrix(1.62, 0, 0, -2.36, -2256.92, 592.7)" xlink:href="#radial-gradient"/><radialGradient id="radial-gradient-59" cx="1650.18" cy="236.17" r="33.41" gradientTransform="matrix(1.43, 0, 0, -0.76, -2035.93, 465.12)" xlink:href="#radial-gradient"/><radialGradient id="radial-gradient-60" cx="1489.84" cy="448.39" r="33.4" gradientTransform="matrix(2.05, -0.95, -0.13, -0.29, -2662.6, 1834.65)" xlink:href="#radial-gradient"/></defs><g style="isolation:isolate"><g id="Layer_2" data-name="Layer 2"><g id="OBJECTS"><path d="M213.42,298.5a144.9,144.9,0,0,1-72.58-27A152.42,152.42,0,0,1,78.65,135a141.88,141.88,0,0,1,27.92-72.27l0,0A141.44,141.44,0,0,0,87.92,97a144.92,144.92,0,0,0-8.71,38A152.24,152.24,0,0,0,141,271.28a144.73,144.73,0,0,0,72.43,27.17Z" style="fill:url(#linear-gradient)"/><path d="M95.64,79.37a62.73,62.73,0,0,1,22.87-7.44s-16.13,6.22-24.38,11.32C112.39,88.4,129.18,69,129.18,69,110.64,64.86,100.08,74,95.64,79.37Z" style="fill:url(#linear-gradient-2)"/><path d="M94.13,82.59a62.49,62.49,0,0,0-11-21.38S90.19,77,92.47,86.41c-16.6-9.2-14.86-34.82-14.86-34.82C93.68,61.72,94.77,75.64,94.13,82.59Z" style="fill:url(#linear-gradient-3)"/><path d="M86,102.52a62.74,62.74,0,0,1,22.46-8.6s-15.78,7-23.77,12.55c18.51,4.21,34.28-16,34.28-16C100.2,87.26,90.11,96.92,86,102.52Z" style="fill:url(#linear-gradient-4)"/><path d="M84.61,105.81A62.6,62.6,0,0,0,72.52,85s7.87,15.39,10.63,24.69c-17.05-8.34-16.62-34-16.62-34C83.1,85,84.89,98.84,84.61,105.81Z" style="fill:url(#linear-gradient-5)"/><path d="M79.57,132.42a62.72,62.72,0,0,1,20.66-12.31S85.88,129.74,79,136.53c19,1,31-21.66,31-21.66C91,115,82.71,126.18,79.57,132.42Z" style="fill:url(#linear-gradient-6)"/><path d="M78.81,135.89a62.49,62.49,0,0,0-15.46-18.42S73.73,131.28,78,140c-18.22-5.31-22.18-30.68-22.18-30.68C73.76,115.63,77.89,129,78.81,135.89Z" style="fill:url(#linear-gradient-7)"/><path d="M79.17,161a62.36,62.36,0,0,1,17.18-16.84s-11.68,12.74-16.81,21c18.66-3.52,25-28.38,25-28.38C86.16,141.28,80.75,154.16,79.17,161Z" style="fill:url(#linear-gradient-8)"/><path d="M79.26,164.51a62.55,62.55,0,0,0-19.38-14.25s13.35,11,19.59,18.4c-19-.85-28.8-24.57-28.8-24.57C69.57,146,76.73,158,79.26,164.51Z" style="fill:url(#linear-gradient-9)"/><path d="M84.34,188.91a62.7,62.7,0,0,1,15.33-18.54S89.38,184.26,85.14,193c18.18-5.44,22-30.84,22-30.84C89.24,168.61,85.2,182,84.34,188.91Z" style="fill:url(#linear-gradient-10)"/><path d="M84.81,192.13A62.88,62.88,0,0,0,64.05,180s14.43,9.53,21.4,16.27c-18.94,1.12-31.19-21.44-31.19-21.44C73.25,174.74,81.62,185.92,84.81,192.13Z" style="fill:url(#linear-gradient-11)"/><path d="M94.84,216.72A62.41,62.41,0,0,1,105.07,195s-6.5,16-8.44,25.53c16.26-9.8,13.59-35.34,13.59-35.34C94.52,195.85,94,209.8,94.84,216.72Z" style="fill:url(#linear-gradient-12)"/><path d="M96.09,219.73A62.37,62.37,0,0,0,73,213.13s16.34,5.62,24.78,10.42c-18.07,5.81-35.56-13-35.56-13C80.57,205.77,91.46,214.51,96.09,219.73Z" style="fill:url(#linear-gradient-13)"/><path d="M113.23,245.25a62.58,62.58,0,0,1,3.6-23.78s-1.66,17.2-.81,26.87c12.79-14,3-37.74,3-37.74C107,225.33,110.41,238.87,113.23,245.25Z" style="fill:url(#linear-gradient-14)"/><path d="M115.29,247.78a62.42,62.42,0,0,0-24,.27s17.26.73,26.72,2.92c-15.66,10.72-37.79-2.31-37.79-2.31C96.43,238.83,109.37,244.09,115.29,247.78Z" style="fill:url(#linear-gradient-15)"/><path d="M137.22,268.76a62.59,62.59,0,0,1-2.3-23.94s2.58,17.08,5.76,26.25c9-16.72-6.33-37.32-6.33-37.32C126.31,251,132.93,263.25,137.22,268.76Z" style="fill:url(#linear-gradient-16)"/><path d="M139.84,270.7a62.64,62.64,0,0,0-23.26,6.12s16.92-3.49,26.62-3.67c-12.58,14.21-37.21,7-37.21,7C119.36,266.61,133.19,268.57,139.84,270.7Z" style="fill:url(#linear-gradient-17)"/><path d="M160.35,283.14a62.58,62.58,0,0,1-5.81-23.33s5.07,16.52,9.57,25.11c6.42-17.85-11.77-36-11.77-36C146.93,267.15,155.29,278.34,160.35,283.14Z" style="fill:url(#linear-gradient-18)"/><path d="M163.22,284.68a62.61,62.61,0,0,0-22.1,9.48s16.22-6,25.79-7.56C156.56,302.52,131.13,299,131.13,299,142.37,283.66,156.33,283.56,163.22,284.68Z" style="fill:url(#linear-gradient-19)"/><path d="M108.28,65.49a62.48,62.48,0,0,0,12-20.86s-9.39,14.51-16.06,21.55c-1.31-18.93,21.14-31.4,21.14-31.4C125.56,53.77,114.46,62.25,108.28,65.49Z" style="fill:url(#linear-gradient-20)"/><path d="M130.34,19c38.08,21.24,57.17,59.59,42.63,85.66s-57.2,30-95.28,8.74S20.53,53.78,35.07,27.71,92.26-2.27,130.34,19Z" style="mix-blend-mode:screen;fill:url(#radial-gradient)"/><ellipse cx="104.02" cy="66.17" rx="47.93" ry="25.5" transform="translate(-4.44 124.78) rotate(-60.85)" style="mix-blend-mode:screen;fill:url(#radial-gradient-2)"/><path d="M140.81.21c5.13,2.86-7.18,34.72-27.5,71.15S72.36,135,67.22,132.14,74.4,97.42,94.72,61,135.68-2.66,140.81.21Z" style="mix-blend-mode:screen;fill:url(#radial-gradient-3)"/><ellipse cx="93.52" cy="83.81" rx="54.04" ry="78.95" transform="translate(-24.12 127.75) rotate(-62.35)" style="mix-blend-mode:screen;fill:url(#radial-gradient-4)"/><ellipse cx="93.52" cy="83.81" rx="47.93" ry="25.5" transform="translate(-24.12 127.75) rotate(-62.35)" style="mix-blend-mode:screen;fill:url(#radial-gradient-5)"/><path d="M128.57,16.9c5.21,2.73-6.26,34.9-25.62,71.85s-39.28,64.69-44.49,62,6.27-34.89,25.63-71.84S123.37,14.17,128.57,16.9Z" style="mix-blend-mode:screen;fill:url(#radial-gradient-6)"/><ellipse cx="84.58" cy="107.75" rx="54.04" ry="78.95" transform="translate(-44.35 154.02) rotate(-71.61)" style="mix-blend-mode:screen;fill:url(#radial-gradient-7)"/><ellipse cx="84.58" cy="107.75" rx="47.93" ry="25.5" transform="translate(-44.34 154.02) rotate(-71.61)" style="mix-blend-mode:screen;fill:url(#radial-gradient-8)"/><path d="M108.4,36.07c5.58,1.85-.56,35.45-13.72,75s-28.35,70.18-33.93,68.32.57-35.45,13.73-75S102.83,34.22,108.4,36.07Z" style="mix-blend-mode:screen;fill:url(#radial-gradient-9)"/><ellipse cx="78.75" cy="134.91" rx="54.04" ry="78.95" transform="translate(-63.24 200.01) rotate(-84.36)" style="mix-blend-mode:screen;fill:url(#radial-gradient-10)"/><ellipse cx="78.75" cy="134.91" rx="47.93" ry="25.5" transform="translate(-63.24 200.01) rotate(-84.36)" style="mix-blend-mode:screen;fill:url(#radial-gradient-11)"/><path d="M86.18,59.74c5.85.58,7.27,34.7,3.16,76.21s-12.17,74.7-18,74.12-7.26-34.7-3.16-76.21S80.33,59.16,86.18,59.74Z" style="mix-blend-mode:screen;fill:url(#radial-gradient-12)"/><ellipse cx="78.97" cy="165.07" rx="78.95" ry="54.04" transform="matrix(0.99, -0.17, 0.17, 0.99, -26.93, 15.84)" style="mix-blend-mode:screen;fill:url(#radial-gradient-13)"/><ellipse cx="78.97" cy="165.07" rx="25.5" ry="47.93" transform="translate(-26.93 15.84) rotate(-9.79)" style="mix-blend-mode:screen;fill:url(#radial-gradient-14)"/><path d="M66.12,90.64c5.8-1,16.25,31.52,23.34,72.62s8.15,75.24,2.36,76.24S75.58,208,68.48,166.88,60.33,91.64,66.12,90.64Z" style="mix-blend-mode:screen;fill:url(#radial-gradient-15)"/><ellipse cx="84.2" cy="191.8" rx="78.95" ry="54.04" transform="translate(-63.52 43.28) rotate(-21.14)" style="mix-blend-mode:screen;fill:url(#radial-gradient-16)"/><ellipse cx="84.2" cy="191.8" rx="25.5" ry="47.93" transform="translate(-63.52 43.29) rotate(-21.14)" style="mix-blend-mode:screen;fill:url(#radial-gradient-17)"/><ellipse cx="84.2" cy="191.8" rx="10.64" ry="75.53" transform="translate(-63.52 43.28) rotate(-21.14)" style="mix-blend-mode:screen;fill:url(#radial-gradient-18)"/><ellipse cx="95.84" cy="219.59" rx="78.95" ry="54.04" transform="translate(-93.22 72.41) rotate(-28.52)" style="mix-blend-mode:screen;fill:url(#radial-gradient-19)"/><path d="M73,177.47c12.37-6.72,32.65,6.68,45.29,29.94s12.86,47.57.48,54.29S86.08,255,73.44,231.76,60.58,184.19,73,177.47Z" style="mix-blend-mode:screen;fill:url(#radial-gradient-20)"/><path d="M59.78,153.22c5.16-2.81,25.5,24.63,45.42,61.28s31.88,68.64,26.71,71.45-25.5-24.63-45.42-61.28S54.61,156,59.78,153.22Z" style="mix-blend-mode:screen;fill:url(#radial-gradient-21)"/><ellipse cx="115.73" cy="247.64" rx="78.95" ry="54.04" transform="translate(-130.05 128.01) rotate(-39)" style="mix-blend-mode:screen;fill:url(#radial-gradient-22)"/><ellipse cx="115.73" cy="247.64" rx="25.5" ry="47.93" transform="matrix(0.78, -0.63, 0.63, 0.78, -130.05, 128.01)" style="mix-blend-mode:screen;fill:url(#radial-gradient-23)"/><path d="M68.2,188.94c4.57-3.7,29.55,19.58,55.81,52s43.82,61.7,39.26,65.4-29.56-19.58-55.81-52S63.63,192.64,68.2,188.94Z" style="mix-blend-mode:screen;fill:url(#radial-gradient-24)"/><ellipse cx="139.89" cy="270.4" rx="78.95" ry="54.04" transform="translate(-161.4 226.68) rotate(-54.39)" style="mix-blend-mode:screen;fill:url(#radial-gradient-25)"/><ellipse cx="139.89" cy="270.4" rx="25.5" ry="47.93" transform="translate(-161.4 226.68) rotate(-54.39)" style="mix-blend-mode:screen;fill:url(#radial-gradient-26)"/><ellipse cx="139.89" cy="270.4" rx="10.64" ry="75.53" transform="translate(-161.4 226.68) rotate(-54.39)" style="mix-blend-mode:screen;fill:url(#radial-gradient-27)"/><ellipse cx="163.8" cy="284.91" rx="78.95" ry="54.04" transform="translate(-163.61 313.33) rotate(-65.07)" style="mix-blend-mode:screen;fill:url(#radial-gradient-28)"/><ellipse cx="163.8" cy="284.91" rx="25.5" ry="47.93" transform="translate(-163.61 313.33) rotate(-65.07)" style="mix-blend-mode:screen;fill:url(#radial-gradient-29)"/><path d="M95.31,253.07c2.47-5.33,35.15,4.6,73,22.19s66.49,36.16,64,41.49-35.15-4.6-73-22.19S92.83,258.4,95.31,253.07Z" style="mix-blend-mode:screen;fill:url(#radial-gradient-30)"/><path d="M282.32,298.45a144.73,144.73,0,0,0,72.43-27.17A152.24,152.24,0,0,0,416.54,135a144.92,144.92,0,0,0-8.71-38,141.44,141.44,0,0,0-18.69-34.26l0,0A141.88,141.88,0,0,1,417.1,135,152.42,152.42,0,0,1,354.91,271.5a144.9,144.9,0,0,1-72.58,27Z" style="fill:url(#linear-gradient-21)"/><path d="M400.11,79.37a62.8,62.8,0,0,0-22.87-7.44s16.13,6.22,24.38,11.32C383.36,88.4,366.56,69,366.56,69,385.11,64.86,395.67,74,400.11,79.37Z" style="fill:url(#linear-gradient-22)"/><path d="M401.62,82.59a62.61,62.61,0,0,1,11-21.38s-7.08,15.77-9.36,25.2c16.61-9.2,14.87-34.82,14.87-34.82C402.07,61.72,401,75.64,401.62,82.59Z" style="fill:url(#linear-gradient-23)"/><path d="M409.8,102.52a62.74,62.74,0,0,0-22.46-8.6s15.78,7,23.77,12.55c-18.51,4.21-34.29-16-34.29-16C395.55,87.26,405.64,96.92,409.8,102.52Z" style="fill:url(#linear-gradient-24)"/><path d="M411.14,105.81A62.42,62.42,0,0,1,423.23,85s-7.88,15.39-10.63,24.69c17-8.34,16.62-34,16.62-34C412.65,85,410.86,98.84,411.14,105.81Z" style="fill:url(#linear-gradient-25)"/><path d="M416.18,132.42a62.72,62.72,0,0,0-20.66-12.31s14.35,9.63,21.28,16.42c-19,1-31-21.66-31-21.66C404.75,115,413,126.18,416.18,132.42Z" style="fill:url(#linear-gradient-26)"/><path d="M416.94,135.89a62.49,62.49,0,0,1,15.46-18.42S422,131.28,417.71,140c18.22-5.31,22.18-30.68,22.18-30.68C422,115.63,417.85,129,416.94,135.89Z" style="fill:url(#linear-gradient-27)"/><path d="M416.58,161a62.51,62.51,0,0,0-17.18-16.84s11.68,12.74,16.8,21c-18.65-3.52-25-28.38-25-28.38C409.59,141.28,415,154.16,416.58,161Z" style="fill:url(#linear-gradient-28)"/><path d="M416.49,164.51a62.55,62.55,0,0,1,19.38-14.25s-13.35,11-19.59,18.4c19-.85,28.8-24.57,28.8-24.57C426.18,146,419,158,416.49,164.51Z" style="fill:url(#linear-gradient-29)"/><path d="M411.41,188.91a62.7,62.7,0,0,0-15.33-18.54s10.28,13.89,14.53,22.62c-18.19-5.44-22-30.84-22-30.84C406.51,168.61,410.54,182,411.41,188.91Z" style="fill:url(#linear-gradient-30)"/><path d="M410.94,192.13A62.66,62.66,0,0,1,431.7,180s-14.43,9.53-21.4,16.27c18.94,1.12,31.19-21.44,31.19-21.44C422.5,174.74,414.13,185.92,410.94,192.13Z" style="fill:url(#linear-gradient-31)"/><path d="M400.91,216.72A62.41,62.41,0,0,0,390.68,195s6.5,16,8.44,25.53c-16.26-9.8-13.59-35.34-13.59-35.34C401.22,195.85,401.8,209.8,400.91,216.72Z" style="fill:url(#linear-gradient-32)"/><path d="M399.65,219.73a62.49,62.49,0,0,1,23.13-6.6s-16.34,5.62-24.78,10.42c18.07,5.81,35.56-13,35.56-13C415.18,205.77,404.29,214.51,399.65,219.73Z" style="fill:url(#linear-gradient-33)"/><path d="M382.51,245.25a62.33,62.33,0,0,0-3.59-23.78s1.66,17.2.8,26.87c-12.78-14-2.94-37.74-2.94-37.74C388.77,225.33,385.34,238.87,382.51,245.25Z" style="fill:url(#linear-gradient-34)"/><path d="M380.45,247.78a62.47,62.47,0,0,1,24.05.27s-17.26.73-26.72,2.92c15.66,10.72,37.79-2.31,37.79-2.31C399.32,238.83,386.38,244.09,380.45,247.78Z" style="fill:url(#linear-gradient-35)"/><path d="M358.53,268.76a62.59,62.59,0,0,0,2.3-23.94s-2.58,17.08-5.76,26.25c-9-16.72,6.33-37.32,6.33-37.32C369.44,251,362.82,263.25,358.53,268.76Z" style="fill:url(#linear-gradient-36)"/><path d="M355.91,270.7a62.64,62.64,0,0,1,23.26,6.12s-16.92-3.49-26.63-3.67c12.59,14.21,37.22,7,37.22,7C376.39,266.61,362.56,268.57,355.91,270.7Z" style="fill:url(#linear-gradient-37)"/><path d="M335.4,283.14a62.58,62.58,0,0,0,5.81-23.33s-5.07,16.52-9.57,25.11c-6.42-17.85,11.77-36,11.77-36C348.82,267.15,340.46,278.34,335.4,283.14Z" style="fill:url(#linear-gradient-38)"/><path d="M332.53,284.68a62.61,62.61,0,0,1,22.1,9.48s-16.22-6-25.79-7.56C339.19,302.52,364.61,299,364.61,299,353.38,283.66,339.42,283.56,332.53,284.68Z" style="fill:url(#linear-gradient-39)"/><path d="M387.47,65.49a62.48,62.48,0,0,1-12-20.86s9.39,14.51,16.06,21.55c1.31-18.93-21.14-31.4-21.14-31.4C370.19,53.77,381.29,62.25,387.47,65.49Z" style="fill:url(#linear-gradient-40)"/><path d="M365.41,19c-38.08,21.24-57.17,59.59-42.63,85.66s57.2,30,95.28,8.74,57.16-59.59,42.62-85.66S403.49-2.27,365.41,19Z" style="mix-blend-mode:screen;fill:url(#radial-gradient-31)"/><path d="M368.38,24.31c-12.29,6.86-11.81,31.16,1.08,54.28s33.32,36.3,45.62,29.44S426.9,76.87,414,53.75,380.68,17.45,368.38,24.31Z" style="mix-blend-mode:screen;fill:url(#radial-gradient-32)"/><path d="M354.94.21c-5.13,2.86,7.18,34.72,27.5,71.15s40.95,63.64,46.09,60.78S421.35,97.42,401,61,360.07-2.66,354.94.21Z" style="mix-blend-mode:screen;fill:url(#radial-gradient-33)"/><ellipse cx="402.23" cy="83.81" rx="78.95" ry="54.04" transform="translate(7.05 196.25) rotate(-27.65)" style="mix-blend-mode:screen;fill:url(#radial-gradient-34)"/><ellipse cx="402.23" cy="83.81" rx="25.5" ry="47.93" transform="translate(7.05 196.25) rotate(-27.65)" style="mix-blend-mode:screen;fill:url(#radial-gradient-35)"/><path d="M367.18,16.9c-5.21,2.73,6.26,34.9,25.62,71.85s39.28,64.69,44.49,62S431,115.82,411.66,78.87,372.38,14.17,367.18,16.9Z" style="mix-blend-mode:screen;fill:url(#radial-gradient-36)"/><ellipse cx="411.17" cy="107.75" rx="78.95" ry="54.04" transform="translate(-12.99 135.2) rotate(-18.39)" style="mix-blend-mode:screen;fill:url(#radial-gradient-37)"/><ellipse cx="411.17" cy="107.75" rx="25.5" ry="47.93" transform="translate(-13 135.2) rotate(-18.39)" style="mix-blend-mode:screen;fill:url(#radial-gradient-38)"/><path d="M387.34,36.07c-5.57,1.85.57,35.45,13.73,75s28.35,70.18,33.93,68.32-.57-35.45-13.73-75S392.92,34.22,387.34,36.07Z" style="mix-blend-mode:screen;fill:url(#radial-gradient-39)"/><ellipse cx="417" cy="134.91" rx="78.95" ry="54.04" transform="matrix(1, -0.1, 0.1, 1, -11.24, 41.66)" style="mix-blend-mode:screen;fill:url(#radial-gradient-40)"/><ellipse cx="417" cy="134.91" rx="25.5" ry="47.93" transform="translate(-11.24 41.66) rotate(-5.64)" style="mix-blend-mode:screen;fill:url(#radial-gradient-41)"/><path d="M409.57,59.74c-5.85.58-7.27,34.7-3.16,76.21s12.16,74.7,18,74.12,7.27-34.7,3.17-76.21S415.42,59.16,409.57,59.74Z" style="mix-blend-mode:screen;fill:url(#radial-gradient-42)"/><ellipse cx="416.78" cy="165.07" rx="54.04" ry="78.95" transform="translate(183.22 547.7) rotate(-80.21)" style="mix-blend-mode:screen;fill:url(#radial-gradient-43)"/><ellipse cx="416.78" cy="165.07" rx="47.93" ry="25.5" transform="translate(183.22 547.7) rotate(-80.21)" style="mix-blend-mode:screen;fill:url(#radial-gradient-44)"/><path d="M429.62,90.64c-5.79-1-16.24,31.52-23.33,72.62s-8.15,75.24-2.36,76.24,16.24-31.51,23.34-72.62S435.42,91.64,429.62,90.64Z" style="mix-blend-mode:screen;fill:url(#radial-gradient-45)"/><ellipse cx="411.55" cy="191.8" rx="54.04" ry="78.95" transform="translate(84.21 506.46) rotate(-68.86)" style="mix-blend-mode:screen;fill:url(#radial-gradient-46)"/><ellipse cx="411.55" cy="191.8" rx="47.93" ry="25.5" transform="translate(84.21 506.46) rotate(-68.86)" style="mix-blend-mode:screen;fill:url(#radial-gradient-47)"/><ellipse cx="411.55" cy="191.8" rx="75.53" ry="10.64" transform="translate(84.21 506.46) rotate(-68.86)" style="mix-blend-mode:screen;fill:url(#radial-gradient-48)"/><ellipse cx="399.9" cy="219.59" rx="54.04" ry="78.95" transform="translate(16.02 466.11) rotate(-61.48)" style="mix-blend-mode:screen;fill:url(#radial-gradient-49)"/><path d="M422.79,177.47c-12.37-6.72-32.65,6.68-45.29,29.94S364.64,255,377,261.7s32.65-6.68,45.29-29.94S435.16,184.19,422.79,177.47Z" style="mix-blend-mode:screen;fill:url(#radial-gradient-50)"/><path d="M436,153.22c-5.17-2.81-25.5,24.63-45.42,61.28S358.67,283.14,363.84,286s25.5-24.63,45.42-61.28S441.13,156,436,153.22Z" style="mix-blend-mode:screen;fill:url(#radial-gradient-51)"/><ellipse cx="380.02" cy="247.64" rx="54.04" ry="78.95" transform="translate(-51.58 387.14) rotate(-51)" style="mix-blend-mode:screen;fill:url(#radial-gradient-52)"/><ellipse cx="380.02" cy="247.64" rx="47.93" ry="25.5" transform="translate(-51.58 387.14) rotate(-51)" style="mix-blend-mode:screen;fill:url(#radial-gradient-53)"/><path d="M427.55,188.94c-4.57-3.7-29.56,19.58-55.81,52s-43.82,61.7-39.26,65.4,29.56-19.58,55.81-52S432.12,192.64,427.55,188.94Z" style="mix-blend-mode:screen;fill:url(#radial-gradient-54)"/><ellipse cx="355.86" cy="270.4" rx="54.04" ry="78.95" transform="translate(-90.9 257.79) rotate(-35.61)" style="mix-blend-mode:screen;fill:url(#radial-gradient-55)"/><ellipse cx="355.86" cy="270.4" rx="47.93" ry="25.5" transform="translate(-90.9 257.78) rotate(-35.61)" style="mix-blend-mode:screen;fill:url(#radial-gradient-56)"/><ellipse cx="355.86" cy="270.4" rx="75.53" ry="10.64" transform="translate(-90.9 257.78) rotate(-35.61)" style="mix-blend-mode:screen;fill:url(#radial-gradient-57)"/><ellipse cx="331.95" cy="284.91" rx="54.04" ry="78.95" transform="translate(-89.17 166.5) rotate(-24.93)" style="mix-blend-mode:screen;fill:url(#radial-gradient-58)"/><ellipse cx="331.95" cy="284.91" rx="47.93" ry="25.5" transform="translate(-89.17 166.5) rotate(-24.93)" style="mix-blend-mode:screen;fill:url(#radial-gradient-59)"/><path d="M400.44,253.07c-2.47-5.33-35.15,4.6-73,22.19s-66.48,36.16-64,41.49,35.15-4.6,73-22.19S402.92,258.4,400.44,253.07Z" style="mix-blend-mode:screen;fill:url(#radial-gradient-60)"/></g></g></g></svg>