<svg xmlns="http://www.w3.org/2000/svg" viewBox="0 0 805 753.64">
    <g id="Layer_2" data-name="Layer 2">
        <g id="Layer_1-2" data-name="Layer 1">
            <g id="Selling_value1" data-name="Selling@value1">
                <g id="_06" data-name="06">
                    <path
                        d="M130.5,515.42a44.31,44.31,0,0,1-21.58-5.63l-86-48.08A44.26,44.26,0,0,1,.22,423.09V329.42a44.29,44.29,0,0,1,22.66-38.63l86-48.07a44.17,44.17,0,0,1,43.16,0l86,48.07a44.29,44.29,0,0,1,22.66,38.63v93.67a44.26,44.26,0,0,1-22.66,38.62l-86,48.08A44.31,44.31,0,0,1,130.5,515.42Z"
                        style="fill:#fff" />
                    <path
                        d="M130.5,237.31a44.15,44.15,0,0,1,21.48,5.6L238,291a44,44,0,0,1,22.55,38.43v93.67A44,44,0,0,1,238,461.52L152,509.6a44,44,0,0,1-43,0L23,461.52A44,44,0,0,1,.44,423.09V329.42A44,44,0,0,1,23,291l86-48.08a44.15,44.15,0,0,1,21.48-5.6m0-.43a44.48,44.48,0,0,0-21.69,5.64l-86,48.08A44.47,44.47,0,0,0,0,329.42v93.67a44.47,44.47,0,0,0,22.77,38.82l86,48.08a44.46,44.46,0,0,0,43.38,0l86-48.08A44.47,44.47,0,0,0,261,423.09V329.42a44.47,44.47,0,0,0-22.77-38.82l-86-48.08a44.51,44.51,0,0,0-21.69-5.64Z" />
                    <path
                        d="M53.11,434.7V421.6H58a5.55,5.55,0,0,1,2.54.53,3.62,3.62,0,0,1,1.55,1.47,4.41,4.41,0,0,1,.53,2.19A4.22,4.22,0,0,1,62.1,428a3.5,3.5,0,0,1-1.56,1.43,5.91,5.91,0,0,1-2.55.5H54.5v-2h3.17a3.75,3.75,0,0,0,1.45-.24A1.75,1.75,0,0,0,60,427a2.3,2.3,0,0,0,.27-1.17A2.46,2.46,0,0,0,60,424.6a1.84,1.84,0,0,0-.84-.76,3.53,3.53,0,0,0-1.45-.25H55.49V434.7Zm6.77-5.94,3.24,5.94H60.47l-3.18-5.94Z" />
                    <path
                        d="M69.07,434.89a5,5,0,0,1-2.55-.62,4.08,4.08,0,0,1-1.64-1.75,6.44,6.44,0,0,1,0-5.34,4.32,4.32,0,0,1,1.62-1.79,4.54,4.54,0,0,1,2.45-.64,5.12,5.12,0,0,1,1.71.29,3.77,3.77,0,0,1,1.43.9,4.18,4.18,0,0,1,1,1.54,6.48,6.48,0,0,1,.35,2.23v.71h-8v-1.56h5.83a2.58,2.58,0,0,0-.29-1.19,2.19,2.19,0,0,0-.78-.82,2.26,2.26,0,0,0-1.17-.3,2.36,2.36,0,0,0-1.25.34,2.47,2.47,0,0,0-.83.9,2.62,2.62,0,0,0-.31,1.21v1.36a3.19,3.19,0,0,0,.32,1.47,2.18,2.18,0,0,0,.87.93,2.94,2.94,0,0,0,2.23.18,2.09,2.09,0,0,0,.71-.42,1.78,1.78,0,0,0,.46-.7l2.16.24a3.39,3.39,0,0,1-.78,1.49,3.71,3.71,0,0,1-1.46,1A5.57,5.57,0,0,1,69.07,434.89Z" />
                    <path
                        d="M79.67,434.89a4.72,4.72,0,0,1-2.52-.65,4.36,4.36,0,0,1-1.62-1.78,6,6,0,0,1-.56-2.64,5.89,5.89,0,0,1,.57-2.64,4.41,4.41,0,0,1,1.63-1.79,4.66,4.66,0,0,1,2.49-.64,4.93,4.93,0,0,1,2.12.44,3.59,3.59,0,0,1,2.1,3.09H81.67a2.11,2.11,0,0,0-.64-1.19,1.84,1.84,0,0,0-1.34-.47,2,2,0,0,0-1.24.38,2.41,2.41,0,0,0-.84,1.09,4.34,4.34,0,0,0-.3,1.7,4.45,4.45,0,0,0,.3,1.72,2.36,2.36,0,0,0,.83,1.1,2,2,0,0,0,1.25.39,2.1,2.1,0,0,0,.92-.19,1.78,1.78,0,0,0,.68-.57,2.29,2.29,0,0,0,.38-.9h2.21a3.91,3.91,0,0,1-.61,1.84,3.63,3.63,0,0,1-1.45,1.26A4.8,4.8,0,0,1,79.67,434.89Z" />
                    <path
                        d="M90.13,434.89a5.07,5.07,0,0,1-2.55-.62,4.08,4.08,0,0,1-1.64-1.75,6.44,6.44,0,0,1,0-5.34,4.46,4.46,0,0,1,1.62-1.79,4.54,4.54,0,0,1,2.45-.64,5.07,5.07,0,0,1,1.71.29,3.89,3.89,0,0,1,1.44.9,4.29,4.29,0,0,1,1,1.54,6.24,6.24,0,0,1,.36,2.23v.71h-8v-1.56h5.83a2.58,2.58,0,0,0-.29-1.19,2.19,2.19,0,0,0-.78-.82,2.26,2.26,0,0,0-1.17-.3,2.36,2.36,0,0,0-1.25.34A2.49,2.49,0,0,0,87.66,429v1.36a3.19,3.19,0,0,0,.31,1.47,2.18,2.18,0,0,0,.87.93,2.58,2.58,0,0,0,1.32.32,2.69,2.69,0,0,0,.92-.14,2.3,2.3,0,0,0,.71-.42,1.76,1.76,0,0,0,.45-.7l2.16.24a3.39,3.39,0,0,1-.78,1.49,3.71,3.71,0,0,1-1.46,1A5.57,5.57,0,0,1,90.13,434.89Z" />
                    <path
                        d="M97.62,423.48a1.32,1.32,0,0,1-1-.37,1.18,1.18,0,0,1,0-1.77,1.32,1.32,0,0,1,1-.37,1.3,1.3,0,0,1,.94.37,1.17,1.17,0,0,1,.4.89,1.16,1.16,0,0,1-.4.89A1.33,1.33,0,0,1,97.62,423.48ZM96.45,434.7v-9.82h2.32v9.82Z" />
                    <path d="M109.91,424.88l-3.49,9.82h-2.56l-3.5-9.82h2.47l2.26,7.29h.1l2.26-7.29Z" />
                    <path
                        d="M115.86,434.89a5,5,0,0,1-2.55-.62,4.08,4.08,0,0,1-1.64-1.75,6.44,6.44,0,0,1,0-5.34,4.32,4.32,0,0,1,1.62-1.79,4.54,4.54,0,0,1,2.45-.64,5.12,5.12,0,0,1,1.71.29,3.77,3.77,0,0,1,1.43.9,4.18,4.18,0,0,1,1,1.54,6.48,6.48,0,0,1,.35,2.23v.71h-8v-1.56H118a2.58,2.58,0,0,0-.29-1.19,2.19,2.19,0,0,0-.78-.82,2.26,2.26,0,0,0-1.17-.3,2.36,2.36,0,0,0-1.25.34,2.39,2.39,0,0,0-.83.9,2.62,2.62,0,0,0-.31,1.21v1.36a3.19,3.19,0,0,0,.32,1.47,2.18,2.18,0,0,0,.87.93,2.94,2.94,0,0,0,2.23.18,2.09,2.09,0,0,0,.71-.42,1.78,1.78,0,0,0,.46-.7l2.16.24a3.39,3.39,0,0,1-.78,1.49,3.71,3.71,0,0,1-1.46,1A5.57,5.57,0,0,1,115.86,434.89Z" />
                    <path
                        d="M126.75,434.7V421.6h4.91a5.12,5.12,0,0,1,2.53.57,3.74,3.74,0,0,1,1.56,1.54,4.65,4.65,0,0,1,.52,2.23,4.51,4.51,0,0,1-.53,2.23,3.68,3.68,0,0,1-1.56,1.54,5.34,5.34,0,0,1-2.55.56h-3.26v-1.95h2.94a3,3,0,0,0,1.44-.3,2,2,0,0,0,.84-.85,2.71,2.71,0,0,0,.27-1.23,2.65,2.65,0,0,0-.27-1.23,1.93,1.93,0,0,0-.84-.83,3.11,3.11,0,0,0-1.46-.29h-2.17V434.7Z" />
                    <path
                        d="M141.05,434.89a4,4,0,0,1-1.67-.33,2.75,2.75,0,0,1-1.18-1,2.88,2.88,0,0,1-.43-1.62,2.7,2.7,0,0,1,.31-1.37,2.24,2.24,0,0,1,.83-.87,4.28,4.28,0,0,1,1.2-.5,10.34,10.34,0,0,1,1.39-.24l1.4-.17a2,2,0,0,0,.78-.23.54.54,0,0,0,.24-.49v0a1.44,1.44,0,0,0-.42-1.11,1.75,1.75,0,0,0-1.24-.4,2.17,2.17,0,0,0-1.34.37,1.82,1.82,0,0,0-.67.88l-2.16-.31a3.45,3.45,0,0,1,.84-1.5,3.77,3.77,0,0,1,1.44-.91,6,6,0,0,1,3.29-.13,4.1,4.1,0,0,1,1.29.54,2.8,2.8,0,0,1,.93,1,3.36,3.36,0,0,1,.36,1.63v6.58H144v-1.35h-.07a3,3,0,0,1-.59.76,2.75,2.75,0,0,1-1,.57A3.85,3.85,0,0,1,141.05,434.89Zm.61-1.7a2.53,2.53,0,0,0,1.2-.27,2,2,0,0,0,.79-.74,1.88,1.88,0,0,0,.28-1V430a1,1,0,0,1-.37.16c-.17.05-.36.1-.57.14l-.64.1-.54.08a3.62,3.62,0,0,0-.93.23,1.44,1.44,0,0,0-.64.44,1.09,1.09,0,0,0-.24.73,1.11,1.11,0,0,0,.47,1A2.06,2.06,0,0,0,141.66,433.19Z" />
                    <path
                        d="M150,438.38a4.6,4.6,0,0,1-.87-.08,3,3,0,0,1-.64-.17l.54-1.8a2.87,2.87,0,0,0,.9.14,1.1,1.1,0,0,0,.7-.24,1.84,1.84,0,0,0,.51-.8l.2-.53-3.56-10h2.46l2.26,7.41h.1l2.27-7.41h2.46l-3.93,11a4.41,4.41,0,0,1-.73,1.34,2.92,2.92,0,0,1-1.11.86A3.68,3.68,0,0,1,150,438.38Z" />
                    <path
                        d="M158.94,434.7v-9.82h2.21v1.66h.12a2.56,2.56,0,0,1,1-1.31,3,3,0,0,1,1.7-.48,2.87,2.87,0,0,1,1.68.48,2.57,2.57,0,0,1,1,1.31h.1a2.73,2.73,0,0,1,1.1-1.3,3.38,3.38,0,0,1,1.85-.49,3,3,0,0,1,2.21.86,3.37,3.37,0,0,1,.86,2.49v6.6h-2.32v-6.24a1.72,1.72,0,0,0-.49-1.34,1.75,1.75,0,0,0-1.19-.42,1.67,1.67,0,0,0-1.31.52,2,2,0,0,0-.47,1.35v6.13h-2.26v-6.33a1.68,1.68,0,0,0-.46-1.22,1.63,1.63,0,0,0-1.19-.45,1.66,1.66,0,0,0-.91.25,1.86,1.86,0,0,0-.65.71,2.16,2.16,0,0,0-.25,1.06v6Z" />
                    <path
                        d="M179.45,434.89a5,5,0,0,1-2.55-.62,4.11,4.11,0,0,1-1.65-1.75,5.91,5.91,0,0,1-.57-2.68,5.79,5.79,0,0,1,.58-2.66,4.32,4.32,0,0,1,1.62-1.79,4.53,4.53,0,0,1,2.44-.64A5.13,5.13,0,0,1,181,425a3.77,3.77,0,0,1,1.43.9,4.16,4.16,0,0,1,1,1.54,6.24,6.24,0,0,1,.36,2.23v.71h-8.05v-1.56h5.83a2.58,2.58,0,0,0-.28-1.19,2.14,2.14,0,0,0-.79-.82,2.2,2.2,0,0,0-1.16-.3,2.34,2.34,0,0,0-1.25.34,2.31,2.31,0,0,0-.83.9A2.62,2.62,0,0,0,177,429v1.36a3.19,3.19,0,0,0,.32,1.47,2.12,2.12,0,0,0,.87.93,2.56,2.56,0,0,0,1.32.32,2.63,2.63,0,0,0,.91-.14,2.19,2.19,0,0,0,.71-.42,1.76,1.76,0,0,0,.45-.7l2.16.24a3.28,3.28,0,0,1-.77,1.49,3.71,3.71,0,0,1-1.46,1A5.57,5.57,0,0,1,179.45,434.89Z" />
                    <path
                        d="M188.08,428.94v5.76h-2.31v-9.82H188v1.66h.11a2.9,2.9,0,0,1,1.09-1.31,3.31,3.31,0,0,1,1.84-.48,3.46,3.46,0,0,1,1.77.43,2.94,2.94,0,0,1,1.18,1.26,4.25,4.25,0,0,1,.41,2v6.26h-2.31v-5.9a2.2,2.2,0,0,0-.51-1.54,1.81,1.81,0,0,0-1.4-.55,2.11,2.11,0,0,0-1.08.26,1.85,1.85,0,0,0-.73.76A2.54,2.54,0,0,0,188.08,428.94Z" />
                    <path
                        d="M201.65,424.88v1.79H196v-1.79Zm-4.26-2.36h2.32v9.22a1.56,1.56,0,0,0,.14.72.8.8,0,0,0,.38.33,1.47,1.47,0,0,0,.53.09,2.6,2.6,0,0,0,.4,0l.27-.06.39,1.81-.52.14a4.69,4.69,0,0,1-.84.09,3.56,3.56,0,0,1-1.56-.27,2.35,2.35,0,0,1-1.11-.9,2.73,2.73,0,0,1-.4-1.54Z" />
                    <path
                        d="M62.93,447.48a1.31,1.31,0,0,1-.94-.37,1.18,1.18,0,0,1,0-1.77,1.39,1.39,0,0,1,1.89,0,1.21,1.21,0,0,1,.4.89,1.19,1.19,0,0,1-.4.89A1.36,1.36,0,0,1,62.93,447.48ZM61.77,458.7v-9.82h2.31v9.82Z" />
                    <path
                        d="M68.78,452.94v5.76H66.46v-9.82h2.21v1.66h.12a2.87,2.87,0,0,1,1.08-1.31,3.35,3.35,0,0,1,1.85-.48,3.52,3.52,0,0,1,1.77.43,3,3,0,0,1,1.18,1.26,4.51,4.51,0,0,1,.41,2v6.26H72.76v-5.9a2.25,2.25,0,0,0-.5-1.54,1.82,1.82,0,0,0-1.41-.55,2.1,2.1,0,0,0-1.07.26,1.87,1.87,0,0,0-.74.76A2.54,2.54,0,0,0,68.78,452.94Z" />
                    <path
                        d="M83.34,462.38a4.77,4.77,0,0,1-.87-.08,3,3,0,0,1-.64-.17l.54-1.8a2.87,2.87,0,0,0,.9.14,1.08,1.08,0,0,0,.7-.24,1.85,1.85,0,0,0,.52-.8l.19-.53-3.56-10h2.46l2.26,7.41h.1l2.27-7.41h2.46l-3.93,11a4.2,4.2,0,0,1-.73,1.34,3,3,0,0,1-1.1.86A3.76,3.76,0,0,1,83.34,462.38Z" />
                    <path
                        d="M96.55,458.89a4.69,4.69,0,0,1-2.49-.64,4.23,4.23,0,0,1-1.63-1.77,6.39,6.39,0,0,1,0-5.32,4.26,4.26,0,0,1,1.63-1.78,5.26,5.26,0,0,1,5,0,4.32,4.32,0,0,1,1.63,1.78,6.39,6.39,0,0,1,0,5.32,4.3,4.3,0,0,1-1.63,1.77A4.72,4.72,0,0,1,96.55,458.89Zm0-1.86a2,2,0,0,0,1.3-.43,2.54,2.54,0,0,0,.78-1.16,4.59,4.59,0,0,0,.26-1.62,4.74,4.74,0,0,0-.26-1.64,2.6,2.6,0,0,0-.78-1.16,2,2,0,0,0-1.3-.44,2,2,0,0,0-1.33.44,2.7,2.7,0,0,0-.79,1.16,5,5,0,0,0-.25,1.64,4.83,4.83,0,0,0,.25,1.62,2.64,2.64,0,0,0,.79,1.16A2,2,0,0,0,96.57,457Z" />
                    <path
                        d="M109.47,454.57v-5.69h2.32v9.82h-2.25V457h-.1a2.92,2.92,0,0,1-1.09,1.35,3.18,3.18,0,0,1-1.86.52,3.32,3.32,0,0,1-1.71-.43,3,3,0,0,1-1.15-1.26,4.38,4.38,0,0,1-.42-2v-6.25h2.32v5.89a2.08,2.08,0,0,0,.51,1.48,1.74,1.74,0,0,0,1.34.55,2.08,2.08,0,0,0,1-.25,1.93,1.93,0,0,0,.79-.74A2.28,2.28,0,0,0,109.47,454.57Z" />
                    <path
                        d="M114.16,458.7v-9.82h2.25v1.63h.1a2.44,2.44,0,0,1,2.42-1.77h.43l.4.05v2.13a1.67,1.67,0,0,0-.46-.09,4.3,4.3,0,0,0-.61,0,2.23,2.23,0,0,0-1.13.28,2,2,0,0,0-.79.75,2,2,0,0,0-.29,1.1v5.78Z" />
                    <path
                        d="M127.55,458.7H125l4.61-13.1h2.93l4.61,13.1h-2.53l-3.49-10.41H131Zm.09-5.14h6.9v1.91h-6.9Z" />
                    <path
                        d="M143.08,458.89a4.72,4.72,0,0,1-2.52-.65,4.36,4.36,0,0,1-1.62-1.78,6,6,0,0,1-.56-2.64,5.89,5.89,0,0,1,.57-2.64,4.41,4.41,0,0,1,1.63-1.79,4.66,4.66,0,0,1,2.49-.64,4.93,4.93,0,0,1,2.12.44,3.69,3.69,0,0,1,1.47,1.23,3.63,3.63,0,0,1,.63,1.86h-2.21a2.17,2.17,0,0,0-.64-1.19,1.86,1.86,0,0,0-1.34-.47,2.08,2.08,0,0,0-1.25.38,2.46,2.46,0,0,0-.83,1.09,4.34,4.34,0,0,0-.3,1.7,4.45,4.45,0,0,0,.3,1.72,2.41,2.41,0,0,0,.82,1.1,2.27,2.27,0,0,0,2.18.2,1.86,1.86,0,0,0,.68-.57,2.29,2.29,0,0,0,.38-.9h2.21a3.81,3.81,0,0,1-.62,1.84,3.53,3.53,0,0,1-1.44,1.26A4.83,4.83,0,0,1,143.08,458.89Z" />
                    <path
                        d="M153.47,458.89a4.72,4.72,0,0,1-2.52-.65,4.27,4.27,0,0,1-1.61-1.78,5.86,5.86,0,0,1-.57-2.64,5.76,5.76,0,0,1,.58-2.64,4.32,4.32,0,0,1,1.62-1.79,4.66,4.66,0,0,1,2.49-.64,4.93,4.93,0,0,1,2.12.44,3.55,3.55,0,0,1,1.47,1.23,3.63,3.63,0,0,1,.63,1.86h-2.21a2.11,2.11,0,0,0-.64-1.19,1.84,1.84,0,0,0-1.34-.47,2,2,0,0,0-1.24.38,2.41,2.41,0,0,0-.84,1.09,4.35,4.35,0,0,0-.29,1.7,4.46,4.46,0,0,0,.29,1.72,2.42,2.42,0,0,0,.83,1.1,2,2,0,0,0,1.25.39,2.1,2.1,0,0,0,.92-.19,1.78,1.78,0,0,0,.68-.57,2.15,2.15,0,0,0,.38-.9h2.21a3.91,3.91,0,0,1-.61,1.84,3.63,3.63,0,0,1-1.45,1.26A4.8,4.8,0,0,1,153.47,458.89Z" />
                    <path
                        d="M163.87,458.89a4.66,4.66,0,0,1-2.49-.64,4.25,4.25,0,0,1-1.64-1.77,6.39,6.39,0,0,1,0-5.32,4.28,4.28,0,0,1,1.64-1.78,5.24,5.24,0,0,1,5,0,4.26,4.26,0,0,1,1.63,1.78,6.39,6.39,0,0,1,0,5.32,4.23,4.23,0,0,1-1.63,1.77A4.66,4.66,0,0,1,163.87,458.89Zm0-1.86a2,2,0,0,0,1.3-.43,2.64,2.64,0,0,0,.79-1.16,4.83,4.83,0,0,0,.26-1.62,5,5,0,0,0-.26-1.64,2.7,2.7,0,0,0-.79-1.16,2,2,0,0,0-1.3-.44,2,2,0,0,0-1.33.44,2.6,2.6,0,0,0-.78,1.16,5,5,0,0,0-.26,1.64,4.83,4.83,0,0,0,.26,1.62,2.54,2.54,0,0,0,.78,1.16A2,2,0,0,0,163.88,457Z" />
                    <path
                        d="M176.79,454.57v-5.69h2.31v9.82h-2.24V457h-.11a2.92,2.92,0,0,1-1.09,1.35,3.16,3.16,0,0,1-1.86.52,3.28,3.28,0,0,1-1.7-.43,3,3,0,0,1-1.16-1.26,4.51,4.51,0,0,1-.41-2v-6.25h2.31v5.89a2.08,2.08,0,0,0,.51,1.48,1.74,1.74,0,0,0,1.35.55,2.08,2.08,0,0,0,1-.25,2,2,0,0,0,.79-.74A2.37,2.37,0,0,0,176.79,454.57Z" />
                    <path
                        d="M183.79,452.94v5.76h-2.31v-9.82h2.21v1.66h.11a2.9,2.9,0,0,1,1.09-1.31,3.31,3.31,0,0,1,1.84-.48,3.53,3.53,0,0,1,1.78.43,3,3,0,0,1,1.17,1.26,4.25,4.25,0,0,1,.41,2v6.26h-2.31v-5.9a2.2,2.2,0,0,0-.51-1.54,1.79,1.79,0,0,0-1.4-.55,2.13,2.13,0,0,0-1.08.26,1.85,1.85,0,0,0-.73.76A2.54,2.54,0,0,0,183.79,452.94Z" />
                    <path
                        d="M197.36,448.88v1.79h-5.65v-1.79Zm-4.26-2.36h2.32v9.22a1.56,1.56,0,0,0,.14.72.8.8,0,0,0,.38.33,1.51,1.51,0,0,0,.53.09,2.5,2.5,0,0,0,.4,0l.27-.06.39,1.81a5,5,0,0,1-.52.14,4.69,4.69,0,0,1-.84.09,3.56,3.56,0,0,1-1.56-.27,2.35,2.35,0,0,1-1.11-.9,2.73,2.73,0,0,1-.4-1.54Z" />
                    <path
                        d="M61.76,385.41a1.76,1.76,0,0,0,1.85,1.86h8a9.9,9.9,0,0,0,9.84-9.84h0a32.39,32.39,0,0,1,12.43,3.16L123,394.5a14.84,14.84,0,0,0,6.13,1.49,13.12,13.12,0,0,0,5.93-1.3L189.79,370a3.71,3.71,0,0,0,1.86-2.23,3.76,3.76,0,0,0-.37-2.78,19.8,19.8,0,0,0-20-9.28l-27.09,3.16a10.88,10.88,0,0,0,.55-3.53,10,10,0,0,0-10-10H120.4A28.52,28.52,0,0,0,100.17,337H81.43v-1.11A9.9,9.9,0,0,0,71.59,326h-8a1.75,1.75,0,0,0-1.85,1.86Zm38.41-44.72a25.18,25.18,0,0,1,17.63,7.24l.55.55a1.68,1.68,0,0,0,1.3.56h15a6.31,6.31,0,1,1,0,12.62H102a1.86,1.86,0,1,0,0,3.71h32.65a10,10,0,0,0,6.5-2.41l30.24-3.53a16,16,0,0,1,16.33,7.42l-54.18,24.5a10,10,0,0,1-8.91-.19l-29.31-14.1a36.88,36.88,0,0,0-13.92-3.53V340.69Zm-34.7-10.95h6.12a6.19,6.19,0,0,1,6.13,6.13v41.56a6.19,6.19,0,0,1-6.13,6.13H65.47Zm122.47-52.51H106.29a3.72,3.72,0,0,0-3.71,3.71v48.25a3.72,3.72,0,0,0,3.71,3.71h81.65a3.72,3.72,0,0,0,3.71-3.71V280.94A3.72,3.72,0,0,0,187.94,277.23Zm0,15.22a13.79,13.79,0,0,1-11.51-11.51h11.51ZM117.8,280.94a13.79,13.79,0,0,1-11.51,11.51V280.94Zm-11.51,36.74a13.79,13.79,0,0,1,11.51,11.51H106.29Zm15.22,11.51A17.36,17.36,0,0,0,106.29,314V296.16a17.36,17.36,0,0,0,15.22-15.22h51.21a17.36,17.36,0,0,0,15.22,15.22V314a17.36,17.36,0,0,0-15.22,15.22Zm54.92,0a13.79,13.79,0,0,1,11.51-11.51v11.51Z"
                        style="fill:#fabb04" />
                    <path
                        d="M149,323.43l-14.1-14.84v-2.78h7a11.53,11.53,0,0,0,4.64-.75,5.7,5.7,0,0,0,3-2,5.17,5.17,0,0,0,1.11-3.34,6.42,6.42,0,0,0-2-4.82c-1.48-1.11-3.53-1.67-6.49-1.67h-7.43l1.3-3.71h6.13a19,19,0,0,1,7.79,1.3,8.92,8.92,0,0,1,4.45,3.71,9.94,9.94,0,0,1,1.49,5.19,9,9,0,0,1-1.3,4.83,9.14,9.14,0,0,1-4.27,3.52,18.38,18.38,0,0,1-7.79,1.3h-.19l13,13.73v.19H149Zm11.69-25.79-1.3,3.9H134.31l1.3-3.9Zm0-8-1.3,3.9-19.67-.19,1.3-3.71Z"
                        style="fill:#fabb04" />
                </g>
                <g id="_05" data-name="05">
                    <path
                        d="M261.5,753.42a44.31,44.31,0,0,1-21.58-5.63l-86-48.08a44.26,44.26,0,0,1-22.66-38.62V567.42a44.3,44.3,0,0,1,22.66-38.63l86-48.07a44.17,44.17,0,0,1,43.16,0l86,48.07a44.3,44.3,0,0,1,22.66,38.63v93.67a44.26,44.26,0,0,1-22.66,38.62l-86,48.08A44.31,44.31,0,0,1,261.5,753.42Z"
                        style="fill:#fff" />
                    <path
                        d="M261.5,475.31a44.15,44.15,0,0,1,21.48,5.6L369,529a44,44,0,0,1,22.55,38.43v93.67A44,44,0,0,1,369,699.52L283,747.6a44,44,0,0,1-43,0l-86-48.08a44,44,0,0,1-22.55-38.43V567.42A44,44,0,0,1,154,529l86-48.08a44.15,44.15,0,0,1,21.48-5.6m0-.43a44.48,44.48,0,0,0-21.69,5.64l-86,48.08A44.47,44.47,0,0,0,131,567.42v93.67a44.47,44.47,0,0,0,22.77,38.82l86,48.08a44.46,44.46,0,0,0,43.38,0l86-48.08A44.47,44.47,0,0,0,392,661.09V567.42a44.47,44.47,0,0,0-22.77-38.82l-86-48.08a44.51,44.51,0,0,0-21.69-5.64Z" />
                    <path
                        d="M201,680.6h2.91l3.88,9.49H208l3.88-9.49h2.9v13.1h-2.27v-9h-.12l-3.62,9h-1.7l-3.62-9h-.12v9H201Z" />
                    <path
                        d="M221.59,693.89a5.07,5.07,0,0,1-2.55-.62,4.08,4.08,0,0,1-1.64-1.75,5.79,5.79,0,0,1-.58-2.68,5.92,5.92,0,0,1,.58-2.66,4.46,4.46,0,0,1,1.62-1.79,4.57,4.57,0,0,1,2.45-.64,5.13,5.13,0,0,1,1.72.29,3.85,3.85,0,0,1,1.43.9,4.29,4.29,0,0,1,1,1.54,6.24,6.24,0,0,1,.36,2.23v.71h-8.05v-1.56h5.83a2.58,2.58,0,0,0-.29-1.19,2.19,2.19,0,0,0-.78-.82,2.24,2.24,0,0,0-1.17-.3,2.3,2.3,0,0,0-1.24.34,2.42,2.42,0,0,0-.84.9,2.49,2.49,0,0,0-.3,1.21v1.36a3.19,3.19,0,0,0,.31,1.47,2.14,2.14,0,0,0,.88.93,2.52,2.52,0,0,0,1.31.32,2.69,2.69,0,0,0,.92-.14,2.19,2.19,0,0,0,.71-.42,1.76,1.76,0,0,0,.45-.7l2.16.24a3.29,3.29,0,0,1-.78,1.49,3.64,3.64,0,0,1-1.46,1A5.57,5.57,0,0,1,221.59,693.89Z" />
                    <path
                        d="M232.82,683.88v1.79h-5.65v-1.79Zm-4.25-2.36h2.31v9.22a1.56,1.56,0,0,0,.14.72.8.8,0,0,0,.38.33,1.51,1.51,0,0,0,.53.09,2.5,2.5,0,0,0,.4,0l.28-.06.39,1.81c-.13,0-.3.09-.53.14a4.69,4.69,0,0,1-.84.09,3.56,3.56,0,0,1-1.56-.27,2.4,2.4,0,0,1-1.11-.9,2.66,2.66,0,0,1-.39-1.54Z" />
                    <path
                        d="M237.58,693.89a4.13,4.13,0,0,1-1.68-.33,2.75,2.75,0,0,1-1.18-1,3,3,0,0,1-.43-1.62,2.7,2.7,0,0,1,.31-1.37,2.2,2.2,0,0,1,.84-.87,4.1,4.1,0,0,1,1.19-.5A10.34,10.34,0,0,1,238,688l1.4-.17a1.9,1.9,0,0,0,.78-.23.53.53,0,0,0,.25-.49v0a1.45,1.45,0,0,0-.43-1.11,1.74,1.74,0,0,0-1.23-.4,2.19,2.19,0,0,0-1.35.37,1.88,1.88,0,0,0-.67.88l-2.16-.31a3.37,3.37,0,0,1,.85-1.5,3.73,3.73,0,0,1,1.43-.91,6,6,0,0,1,3.3-.13,4.15,4.15,0,0,1,1.28.54,2.92,2.92,0,0,1,.94,1,3.48,3.48,0,0,1,.35,1.63v6.58h-2.22v-1.35h-.08a3,3,0,0,1-.59.76,2.7,2.7,0,0,1-1,.57A3.89,3.89,0,0,1,237.58,693.89Zm.6-1.7a2.57,2.57,0,0,0,1.21-.27,2.17,2.17,0,0,0,.79-.74,2,2,0,0,0,.27-1V689a1,1,0,0,1-.36.16c-.18.05-.37.1-.58.14l-.63.1-.55.08a3.54,3.54,0,0,0-.92.23,1.47,1.47,0,0,0-.65.44,1.09,1.09,0,0,0-.24.73,1.11,1.11,0,0,0,.47,1A2.09,2.09,0,0,0,238.18,692.19Z" />
                    <path d="M247.41,680.6v13.1h-2.32V680.6Z" />
                    <path
                        d="M254.25,693.7v-9.82h2.25v1.63h.1a2.44,2.44,0,0,1,2.42-1.77h.43l.4,0v2.13a1.67,1.67,0,0,0-.46-.09,4.3,4.3,0,0,0-.61-.05,2.23,2.23,0,0,0-1.13.28,2,2,0,0,0-.79.75,2,2,0,0,0-.29,1.1v5.78Z" />
                    <path
                        d="M265.74,693.89a5.07,5.07,0,0,1-2.55-.62,4.08,4.08,0,0,1-1.64-1.75,5.79,5.79,0,0,1-.58-2.68,5.92,5.92,0,0,1,.58-2.66,4.46,4.46,0,0,1,1.62-1.79,4.57,4.57,0,0,1,2.45-.64,5.07,5.07,0,0,1,1.71.29,3.89,3.89,0,0,1,1.44.9,4.29,4.29,0,0,1,1,1.54,6.24,6.24,0,0,1,.36,2.23v.71h-8.05v-1.56h5.83a2.58,2.58,0,0,0-.29-1.19,2.19,2.19,0,0,0-.78-.82,2.26,2.26,0,0,0-1.17-.3,2.36,2.36,0,0,0-1.25.34,2.49,2.49,0,0,0-1.13,2.11v1.36a3.19,3.19,0,0,0,.31,1.47,2.14,2.14,0,0,0,.88.93,2.52,2.52,0,0,0,1.31.32,2.69,2.69,0,0,0,.92-.14,2.19,2.19,0,0,0,.71-.42,1.76,1.76,0,0,0,.45-.7l2.16.24a3.29,3.29,0,0,1-.78,1.49,3.64,3.64,0,0,1-1.46,1A5.57,5.57,0,0,1,265.74,693.89Z" />
                    <path d="M274.38,680.6v13.1h-2.32V680.6Z" />
                    <path
                        d="M281.1,693.89a5.07,5.07,0,0,1-2.55-.62,4.08,4.08,0,0,1-1.64-1.75,5.79,5.79,0,0,1-.58-2.68,5.92,5.92,0,0,1,.58-2.66,4.46,4.46,0,0,1,1.62-1.79,4.57,4.57,0,0,1,2.45-.64,5.18,5.18,0,0,1,1.72.29,3.93,3.93,0,0,1,1.43.9,4.29,4.29,0,0,1,1,1.54,6.24,6.24,0,0,1,.36,2.23v.71h-8.05v-1.56h5.83a2.58,2.58,0,0,0-.29-1.19,2.19,2.19,0,0,0-.78-.82,2.26,2.26,0,0,0-1.17-.3,2.36,2.36,0,0,0-1.25.34,2.49,2.49,0,0,0-1.13,2.11v1.36a3.19,3.19,0,0,0,.31,1.47,2.14,2.14,0,0,0,.88.93,2.52,2.52,0,0,0,1.31.32,2.69,2.69,0,0,0,.92-.14,2.19,2.19,0,0,0,.71-.42,1.76,1.76,0,0,0,.45-.7l2.16.24a3.29,3.29,0,0,1-.78,1.49,3.64,3.64,0,0,1-1.46,1A5.57,5.57,0,0,1,281.1,693.89Z" />
                    <path
                        d="M290.25,693.89a4.1,4.1,0,0,1-1.68-.33,2.75,2.75,0,0,1-1.18-1,3,3,0,0,1-.43-1.62,2.7,2.7,0,0,1,.31-1.37,2.2,2.2,0,0,1,.84-.87,4.1,4.1,0,0,1,1.19-.5,10.34,10.34,0,0,1,1.39-.24l1.4-.17a1.9,1.9,0,0,0,.78-.23.53.53,0,0,0,.25-.49v0a1.45,1.45,0,0,0-.43-1.11,1.74,1.74,0,0,0-1.23-.4,2.19,2.19,0,0,0-1.35.37,1.88,1.88,0,0,0-.67.88l-2.16-.31a3.45,3.45,0,0,1,.84-1.5,3.85,3.85,0,0,1,1.44-.91,6,6,0,0,1,3.3-.13,4.15,4.15,0,0,1,1.28.54,2.92,2.92,0,0,1,.94,1,3.48,3.48,0,0,1,.35,1.63v6.58h-2.22v-1.35h-.08a3,3,0,0,1-.59.76,2.7,2.7,0,0,1-1,.57A3.89,3.89,0,0,1,290.25,693.89Zm.6-1.7a2.57,2.57,0,0,0,1.21-.27,2.17,2.17,0,0,0,.79-.74,2,2,0,0,0,.27-1V689a1,1,0,0,1-.36.16c-.18.05-.37.1-.58.14l-.64.1-.54.08a3.54,3.54,0,0,0-.92.23,1.47,1.47,0,0,0-.65.44,1.09,1.09,0,0,0-.24.73,1.11,1.11,0,0,0,.47,1A2.09,2.09,0,0,0,290.85,692.19Z" />
                    <path
                        d="M305.52,686.47l-2.1.23a1.75,1.75,0,0,0-.32-.6,1.43,1.43,0,0,0-.59-.45,2,2,0,0,0-.9-.18,2.21,2.21,0,0,0-1.22.32.94.94,0,0,0-.48.81.85.85,0,0,0,.32.7,2.66,2.66,0,0,0,1.07.44l1.67.36a4.25,4.25,0,0,1,2.08.95,2.3,2.3,0,0,1,.69,1.7,2.76,2.76,0,0,1-.54,1.64,3.5,3.5,0,0,1-1.48,1.1,5.72,5.72,0,0,1-2.18.4,5.05,5.05,0,0,1-2.9-.76,3,3,0,0,1-1.31-2.11l2.26-.22a1.57,1.57,0,0,0,.65,1,2.22,2.22,0,0,0,1.3.34,2.29,2.29,0,0,0,1.32-.34,1,1,0,0,0,.5-.83.85.85,0,0,0-.32-.7,2.34,2.34,0,0,0-1-.42l-1.67-.35a3.94,3.94,0,0,1-2.09-1,2.4,2.4,0,0,1-.68-1.77,2.59,2.59,0,0,1,.5-1.58,3.19,3.19,0,0,1,1.4-1,5.35,5.35,0,0,1,2.07-.37,4.48,4.48,0,0,1,2.72.73A3.05,3.05,0,0,1,305.52,686.47Z" />
                    <path
                        d="M312,693.89a5,5,0,0,1-2.54-.62,4,4,0,0,1-1.65-1.75,6.44,6.44,0,0,1,0-5.34,4.46,4.46,0,0,1,1.62-1.79,4.57,4.57,0,0,1,2.45-.64,5.13,5.13,0,0,1,1.72.29,3.85,3.85,0,0,1,1.43.9,4.29,4.29,0,0,1,1,1.54,6.24,6.24,0,0,1,.36,2.23v.71h-8.05v-1.56h5.83a2.47,2.47,0,0,0-.29-1.19,2.12,2.12,0,0,0-.78-.82,2.21,2.21,0,0,0-1.17-.3,2.3,2.3,0,0,0-1.24.34,2.42,2.42,0,0,0-.84.9,2.49,2.49,0,0,0-.3,1.21v1.36a3.19,3.19,0,0,0,.31,1.47,2.14,2.14,0,0,0,.88.93,2.52,2.52,0,0,0,1.31.32,2.65,2.65,0,0,0,.92-.14,2.19,2.19,0,0,0,.71-.42,1.76,1.76,0,0,0,.45-.7l2.16.24a3.28,3.28,0,0,1-.77,1.49,3.78,3.78,0,0,1-1.46,1A5.63,5.63,0,0,1,312,693.89Z" />
                    <path
                        d="M322,693.87a3.69,3.69,0,0,1-2.07-.6,4.06,4.06,0,0,1-1.45-1.72,6.52,6.52,0,0,1-.53-2.75,6.42,6.42,0,0,1,.54-2.77,4,4,0,0,1,1.46-1.7,3.76,3.76,0,0,1,2-.58,3.09,3.09,0,0,1,1.42.29,2.77,2.77,0,0,1,.89.7,4.69,4.69,0,0,1,.5.76h.1v-4.9h2.32v13.1h-2.28v-1.55h-.14a3.82,3.82,0,0,1-.52.76,2.87,2.87,0,0,1-.89.68A3.2,3.2,0,0,1,322,693.87Zm.64-1.9a2,2,0,0,0,1.26-.4,2.51,2.51,0,0,0,.78-1.12,4.66,4.66,0,0,0,.27-1.66,4.86,4.86,0,0,0-.26-1.66,2.42,2.42,0,0,0-.78-1.09,2.27,2.27,0,0,0-2.56,0,2.54,2.54,0,0,0-.78,1.11,4.85,4.85,0,0,0-.26,1.63,4.66,4.66,0,0,0,.27,1.64,2.45,2.45,0,0,0,.78,1.13A2,2,0,0,0,322.6,692Z" />
                    <path
                        d="M224.71,703.88v1.79H218.9v-1.79Zm-4.36,9.82V703a3.1,3.1,0,0,1,.41-1.65,2.56,2.56,0,0,1,1.11-1,3.59,3.59,0,0,1,1.55-.33,4.93,4.93,0,0,1,1.07.1,5.74,5.74,0,0,1,.69.17l-.46,1.79-.37-.09a2,2,0,0,0-.5-.05,1.12,1.12,0,0,0-.91.31,1.29,1.29,0,0,0-.27.88v10.6Z" />
                    <path
                        d="M226.52,713.7v-9.82h2.24v1.63h.11a2.41,2.41,0,0,1,.92-1.31,2.54,2.54,0,0,1,1.5-.46h.43l.4,0v2.13a1.76,1.76,0,0,0-.46-.09,4.56,4.56,0,0,0-.62-.05,2.26,2.26,0,0,0-1.13.28,2,2,0,0,0-.79.75,2.12,2.12,0,0,0-.29,1.1v5.78Z" />
                    <path
                        d="M237.94,713.89a4.66,4.66,0,0,1-2.49-.64,4.23,4.23,0,0,1-1.63-1.77,6.39,6.39,0,0,1,0-5.32,4.26,4.26,0,0,1,1.63-1.78,5.24,5.24,0,0,1,5,0,4.28,4.28,0,0,1,1.64,1.78,6.39,6.39,0,0,1,0,5.32,4.25,4.25,0,0,1-1.64,1.77A4.66,4.66,0,0,1,237.94,713.89Zm0-1.86a2,2,0,0,0,1.3-.43,2.54,2.54,0,0,0,.78-1.16,4.83,4.83,0,0,0,.26-1.62,5,5,0,0,0-.26-1.64,2.6,2.6,0,0,0-.78-1.16,2,2,0,0,0-1.3-.44,2,2,0,0,0-1.33.44,2.61,2.61,0,0,0-.79,1.16,5,5,0,0,0-.26,1.64,4.83,4.83,0,0,0,.26,1.62,2.56,2.56,0,0,0,.79,1.16A2,2,0,0,0,238,712Z" />
                    <path
                        d="M244.6,713.7v-9.82h2.21v1.66h.12a2.52,2.52,0,0,1,1-1.31,2.92,2.92,0,0,1,1.69-.48,2.85,2.85,0,0,1,1.68.48,2.57,2.57,0,0,1,1,1.31h.1a2.69,2.69,0,0,1,1.11-1.3,3.33,3.33,0,0,1,1.84-.49,3,3,0,0,1,2.21.86,3.37,3.37,0,0,1,.86,2.49v6.6h-2.32v-6.24a1.68,1.68,0,0,0-.49-1.34,1.75,1.75,0,0,0-1.19-.42,1.65,1.65,0,0,0-1.3.52,1.92,1.92,0,0,0-.47,1.35v6.13h-2.27v-6.33a1.64,1.64,0,0,0-.46-1.22,1.61,1.61,0,0,0-1.19-.45,1.68,1.68,0,0,0-.91.25,1.86,1.86,0,0,0-.65.71,2.27,2.27,0,0,0-.24,1.06v6Z" />
                    <path
                        d="M272.45,704.2a1.72,1.72,0,0,0-.76-1.3,2.91,2.91,0,0,0-1.71-.47,3.2,3.2,0,0,0-1.27.23,1.93,1.93,0,0,0-.82.6,1.51,1.51,0,0,0-.28.88,1.28,1.28,0,0,0,.19.71,1.55,1.55,0,0,0,.51.51,4,4,0,0,0,.72.35,8,8,0,0,0,.8.23l1.23.31a8.83,8.83,0,0,1,1.43.46,5.06,5.06,0,0,1,1.23.75,3.4,3.4,0,0,1,.87,1.08,3.26,3.26,0,0,1,.32,1.48,3.53,3.53,0,0,1-.59,2,3.82,3.82,0,0,1-1.7,1.36,6.55,6.55,0,0,1-2.68.49,6.71,6.71,0,0,1-2.65-.47,4,4,0,0,1-1.75-1.38,4,4,0,0,1-.68-2.21h2.33a2.13,2.13,0,0,0,.42,1.14,2.26,2.26,0,0,0,1,.67,3.8,3.8,0,0,0,1.34.23,3.55,3.55,0,0,0,1.36-.24,2.17,2.17,0,0,0,.92-.65,1.59,1.59,0,0,0,.34-1,1.35,1.35,0,0,0-.3-.85,2.37,2.37,0,0,0-.83-.56,7.41,7.41,0,0,0-1.23-.4l-1.49-.39a6,6,0,0,1-2.55-1.26,2.92,2.92,0,0,1-.94-2.25,3.36,3.36,0,0,1,.63-2,4.16,4.16,0,0,1,1.72-1.35,6,6,0,0,1,2.46-.49,5.88,5.88,0,0,1,2.45.49,4,4,0,0,1,1.65,1.33,3.51,3.51,0,0,1,.62,2Z" />
                    <path
                        d="M281.82,703.88v1.79h-5.65v-1.79Zm-4.25-2.36h2.31v9.22a1.56,1.56,0,0,0,.14.72.8.8,0,0,0,.38.33,1.51,1.51,0,0,0,.53.09,2.5,2.5,0,0,0,.4,0l.28-.06.39,1.81c-.13,0-.3.09-.53.14a4.69,4.69,0,0,1-.84.09,3.56,3.56,0,0,1-1.56-.27,2.4,2.4,0,0,1-1.11-.9,2.66,2.66,0,0,1-.39-1.54Z" />
                    <path
                        d="M288,713.89a4.72,4.72,0,0,1-2.5-.64,4.23,4.23,0,0,1-1.63-1.77,6.39,6.39,0,0,1,0-5.32,4.26,4.26,0,0,1,1.63-1.78,5.26,5.26,0,0,1,5,0,4.26,4.26,0,0,1,1.63,1.78,6.39,6.39,0,0,1,0,5.32,4.23,4.23,0,0,1-1.63,1.77A4.69,4.69,0,0,1,288,713.89Zm0-1.86a2,2,0,0,0,1.3-.43,2.64,2.64,0,0,0,.79-1.16,4.83,4.83,0,0,0,.25-1.62,5,5,0,0,0-.25-1.64,2.7,2.7,0,0,0-.79-1.16,2,2,0,0,0-1.3-.44,2,2,0,0,0-1.33.44,2.6,2.6,0,0,0-.78,1.16,4.74,4.74,0,0,0-.26,1.64,4.59,4.59,0,0,0,.26,1.62,2.54,2.54,0,0,0,.78,1.16A2,2,0,0,0,288.05,712Z" />
                    <path
                        d="M299,713.89a4.72,4.72,0,0,1-2.52-.65,4.36,4.36,0,0,1-1.62-1.78,6.35,6.35,0,0,1,0-5.28,4.34,4.34,0,0,1,1.63-1.79,4.66,4.66,0,0,1,2.49-.64,4.88,4.88,0,0,1,2.11.44,3.65,3.65,0,0,1,1.48,1.23,3.71,3.71,0,0,1,.62,1.86H301a2.16,2.16,0,0,0-.63-1.19,1.86,1.86,0,0,0-1.34-.47,2.06,2.06,0,0,0-1.25.38,2.39,2.39,0,0,0-.83,1.09,4.34,4.34,0,0,0-.3,1.7,4.65,4.65,0,0,0,.29,1.72,2.49,2.49,0,0,0,.83,1.1A2.1,2.1,0,0,0,299,712a2.13,2.13,0,0,0,.92-.19,1.86,1.86,0,0,0,.68-.57,2.28,2.28,0,0,0,.37-.9h2.21a3.8,3.8,0,0,1-.61,1.84,3.53,3.53,0,0,1-1.44,1.26A4.83,4.83,0,0,1,299,713.89Z" />
                    <path
                        d="M305.09,713.7V700.6h2.31v13.1Zm2.11-3.09v-2.79h.37l3.53-3.94h2.71l-4.34,4.83H309Zm4.05,3.09-3.19-4.47,1.56-1.63,4.4,6.1Z" />
                    <path
                        d="M263.94,566.31a1.89,1.89,0,1,0-1.93-1.88,1.9,1.9,0,0,0,1.93,1.88Zm18.84,20.21a5.87,5.87,0,0,0-4.38.56l-6.51,3.68a14.06,14.06,0,0,0-16,.1l-6.37-3.6a5.85,5.85,0,0,0-7.9,2.07,5.6,5.6,0,0,0,2.12,7.73h0l6.42,3.64a11.56,11.56,0,0,0-.06,1.19,13.59,13.59,0,0,0,8.31,12.43v5.78a5.78,5.78,0,0,0,11.55,0h0v-6a13.52,13.52,0,0,0,7.8-13.59l6.44-3.64a5.59,5.59,0,0,0,2.11-7.73,5.71,5.71,0,0,0-3.51-2.63Zm-31.71,10.34-5.43-3.07a1.86,1.86,0,0,1-.7-2.58,2,2,0,0,1,2.63-.69l5.42,3.07A13.63,13.63,0,0,0,251.07,596.86Zm15,23.24a1.93,1.93,0,0,1-3.85,0v-4.76a13.91,13.91,0,0,0,3.85-.05Zm-2.15-8.42a10.49,10.49,0,0,1-3.05-.46h0a9.77,9.77,0,0,1-6.49-12.33A10.05,10.05,0,0,1,267,592.54a9.77,9.77,0,0,1,6.49,12.32A10,10,0,0,1,263.94,611.68Zm19.2-19.22a1.85,1.85,0,0,1-.9,1.15l-5.47,3.12a13.24,13.24,0,0,0-1.95-3.25l5.52-3.12A2,2,0,0,1,283,591a1.86,1.86,0,0,1,.18,1.42Zm29.17-65.86H215.56a9.53,9.53,0,0,0-9.62,9.42v102.3a9.49,9.49,0,0,0,8.59,9.37v1.94a5.73,5.73,0,0,0,5.78,5.66h14.11a5.72,5.72,0,0,0,5.78-5.66v-1.88h47.48v1.88a5.71,5.71,0,0,0,5.77,5.66h14.12a5.72,5.72,0,0,0,5.77-5.66v-1.94a9.5,9.5,0,0,0,8.6-9.37V536A9.53,9.53,0,0,0,312.31,526.6Zm-76,123a1.91,1.91,0,0,1-1.93,1.89H220.31a1.92,1.92,0,0,1-1.93-1.89h0v-1.88h18Zm73.14,0a1.91,1.91,0,0,1-1.92,1.89H293.45a1.91,1.91,0,0,1-1.92-1.89h0v-1.88h18Zm8.6-11.31a5.73,5.73,0,0,1-5.78,5.66H215.56a5.71,5.71,0,0,1-5.77-5.66V536a5.71,5.71,0,0,1,5.77-5.65h96.75a5.72,5.72,0,0,1,5.78,5.65Zm-9-89.35v-4.15a5.72,5.72,0,0,0-5.78-5.65H224.54a5.72,5.72,0,0,0-5.77,5.65v84.71a5.72,5.72,0,0,0,5.77,5.65h78.79a5.72,5.72,0,0,0,5.78-5.65v-4.15a5.69,5.69,0,0,0,3.72-5.28v-3.77a5.69,5.69,0,0,0-3.72-5.28V594.34a5.67,5.67,0,0,0,3.72-5.28v-3.77a5.67,5.67,0,0,0-3.72-5.27V563.3a5.69,5.69,0,0,0,3.72-5.28v-3.77A5.67,5.67,0,0,0,309.11,549Zm-86.49,15.58H226a1.91,1.91,0,0,1,1.92,1.89h0v41.47A1.91,1.91,0,0,1,226,609.8h-3.36Zm82.64,65a1.91,1.91,0,0,1-1.93,1.88H224.54a1.9,1.9,0,0,1-1.92-1.88v-16H226a5.73,5.73,0,0,0,5.77-5.66V566.44a5.73,5.73,0,0,0-5.77-5.66h-3.36v-16a1.9,1.9,0,0,1,1.92-1.88h78.79a1.91,1.91,0,0,1,1.93,1.88h0v4a5.67,5.67,0,0,0-4,5.38V558a5.66,5.66,0,0,0,4,5.37v16.52a5.67,5.67,0,0,0-4,5.38v3.77a5.66,5.66,0,0,0,4,5.37V611a5.66,5.66,0,0,0-4,5.37v3.77a5.66,5.66,0,0,0,4,5.37ZM309,620.1a1.93,1.93,0,0,1-3.85,0v-3.77a1.93,1.93,0,0,1,3.85,0Zm0-31a1.93,1.93,0,0,1-3.85,0v-3.77a1.93,1.93,0,0,1,3.85,0Zm0-31a1.93,1.93,0,0,1-3.85,0v-3.77a1.93,1.93,0,0,1,3.85,0h0Zm-45,38.2a5.66,5.66,0,1,0,5.77,5.66h0A5.73,5.73,0,0,0,263.94,596.22Zm0,7.54a1.89,1.89,0,1,1,1.92-1.88h0A1.9,1.9,0,0,1,263.94,603.76Zm-11.43-28.15a1.07,1.07,0,0,0,.16.14,16.36,16.36,0,0,0,22.54,0l.16-.14.14-.15a15.57,15.57,0,0,0,0-22.08l-.14-.16-.16-.14a16.38,16.38,0,0,0-22.54,0l-.16.14-.15.16a15.57,15.57,0,0,0,0,22.08Zm.75-13.07h-1.49a11.91,11.91,0,0,1,2.21-5.2l1,1a2,2,0,0,0,2.73,0,1.85,1.85,0,0,0,0-2.66l-1.05-1a12.45,12.45,0,0,1,5.31-2.16V554a1.93,1.93,0,0,0,3.85,0v-1.46a12.45,12.45,0,0,1,5.31,2.16l-1,1a1.85,1.85,0,0,0,.05,2.66,1.94,1.94,0,0,0,2.67,0l1-1a11.8,11.8,0,0,1,2.21,5.2h-1.48a1.89,1.89,0,1,0,0,3.77h1.48a11.75,11.75,0,0,1-2.21,5.2l-1-1a2,2,0,0,0-2.72-.09,1.86,1.86,0,0,0-.1,2.66l.1.1,1,1a12.45,12.45,0,0,1-5.31,2.16v-1.45a1.93,1.93,0,0,0-3.85,0v1.45a12.45,12.45,0,0,1-5.31-2.16l1.05-1a1.87,1.87,0,0,0-.05-2.67,2,2,0,0,0-2.68,0l-1,1a11.86,11.86,0,0,1-2.21-5.2h1.49a1.89,1.89,0,1,0,0-3.77Z"
                        style="fill:#fabb04" />
                </g>
                <g id="_04" data-name="04">
                    <path
                        d="M544.5,753.42a44.31,44.31,0,0,1-21.58-5.63l-86-48.08a44.26,44.26,0,0,1-22.66-38.62V567.42a44.3,44.3,0,0,1,22.66-38.63l86-48.07a44.17,44.17,0,0,1,43.16,0l86,48.07a44.3,44.3,0,0,1,22.66,38.63v93.67a44.26,44.26,0,0,1-22.66,38.62l-86,48.08A44.31,44.31,0,0,1,544.5,753.42Z"
                        style="fill:#fff" />
                    <path
                        d="M544.5,475.31a44.15,44.15,0,0,1,21.48,5.6L652,529a44,44,0,0,1,22.55,38.43v93.67A44,44,0,0,1,652,699.52L566,747.6a44,44,0,0,1-43,0l-86-48.08a44,44,0,0,1-22.55-38.43V567.42A44,44,0,0,1,437,529l86-48.08a44.15,44.15,0,0,1,21.48-5.6m0-.43a44.48,44.48,0,0,0-21.69,5.64l-86,48.08A44.47,44.47,0,0,0,414,567.42v93.67a44.47,44.47,0,0,0,22.77,38.82l86,48.08a44.46,44.46,0,0,0,43.38,0l86-48.08A44.47,44.47,0,0,0,675,661.09V567.42a44.47,44.47,0,0,0-22.77-38.82l-86-48.08a44.51,44.51,0,0,0-21.69-5.64Z" />
                    <path
                        d="M510.22,692.27a1.78,1.78,0,0,0-.75-1.31,2.92,2.92,0,0,0-1.72-.46,3.24,3.24,0,0,0-1.27.22,1.89,1.89,0,0,0-.81.61,1.43,1.43,0,0,0-.29.88,1.25,1.25,0,0,0,.19.7,1.77,1.77,0,0,0,.51.51,3.29,3.29,0,0,0,.73.35c.26.09.53.17.8.24l1.22.3a8.55,8.55,0,0,1,1.43.47,5,5,0,0,1,1.23.74,3.24,3.24,0,0,1,.87,1.08,3.29,3.29,0,0,1,.32,1.48,3.56,3.56,0,0,1-.59,2,3.92,3.92,0,0,1-1.69,1.36,6.6,6.6,0,0,1-2.69.49,6.93,6.93,0,0,1-2.65-.47,4,4,0,0,1-1.75-1.38,4.16,4.16,0,0,1-.68-2.22H505a2,2,0,0,0,.43,1.14,2.22,2.22,0,0,0,1,.68,4.13,4.13,0,0,0,2.69,0,2.19,2.19,0,0,0,.92-.65,1.62,1.62,0,0,0,.34-1,1.28,1.28,0,0,0-.3-.85,2.33,2.33,0,0,0-.82-.56,8.42,8.42,0,0,0-1.23-.41l-1.49-.38a6,6,0,0,1-2.56-1.27,2.88,2.88,0,0,1-.93-2.25,3.35,3.35,0,0,1,.63-2,4.15,4.15,0,0,1,1.71-1.36,6.07,6.07,0,0,1,2.46-.48,5.85,5.85,0,0,1,2.45.48,4,4,0,0,1,1.65,1.34,3.41,3.41,0,0,1,.62,2Z" />
                    <path
                        d="M519,702a5,5,0,0,1-2.54-.61,4.13,4.13,0,0,1-1.65-1.76,6.52,6.52,0,0,1,0-5.33,4.4,4.4,0,0,1,1.62-1.79,4.57,4.57,0,0,1,2.45-.65,4.9,4.9,0,0,1,1.72.3,4,4,0,0,1,1.43.89,4.2,4.2,0,0,1,1,1.55,6.17,6.17,0,0,1,.36,2.23v.7h-8v-1.56h5.83a2.43,2.43,0,0,0-.29-1.18,2,2,0,0,0-.78-.82,2.21,2.21,0,0,0-1.17-.3,2.24,2.24,0,0,0-1.24.34,2.47,2.47,0,0,0-.84.89,2.65,2.65,0,0,0-.3,1.22v1.36a3.12,3.12,0,0,0,.31,1.46,2.22,2.22,0,0,0,.88.94,2.63,2.63,0,0,0,1.32.32A2.9,2.9,0,0,0,520,700a2,2,0,0,0,.71-.43,1.76,1.76,0,0,0,.45-.7l2.16.25a3.28,3.28,0,0,1-.77,1.49,3.8,3.8,0,0,1-1.46,1A5.42,5.42,0,0,1,519,702Z" />
                    <path d="M527.67,688.67v13.09h-2.31V688.67Z" />
                    <path d="M532.36,688.67v13.09h-2.31V688.67Z" />
                    <path
                        d="M539.31,688.67h2.9l3.89,9.49h.15l3.89-9.49H553v13.09h-2.28v-9h-.12l-3.62,9h-1.7l-3.61-9h-.13v9h-2.27Z" />
                    <path
                        d="M559.87,702a5,5,0,0,1-2.55-.61,4.25,4.25,0,0,1-1.65-1.76,5.84,5.84,0,0,1-.57-2.67,5.76,5.76,0,0,1,.58-2.66,4.26,4.26,0,0,1,1.62-1.79,4.54,4.54,0,0,1,2.44-.65,4.9,4.9,0,0,1,1.72.3,3.88,3.88,0,0,1,1.43.89,4.2,4.2,0,0,1,1,1.55,6.17,6.17,0,0,1,.36,2.23v.7h-8.05v-1.56H562a2.54,2.54,0,0,0-.28-1.18,2.08,2.08,0,0,0-.79-.82,2.2,2.2,0,0,0-1.16-.3,2.25,2.25,0,0,0-1.25.34,2.36,2.36,0,0,0-.83.89,2.66,2.66,0,0,0-.31,1.22v1.36a3.12,3.12,0,0,0,.32,1.46,2.2,2.2,0,0,0,.87.94,2.66,2.66,0,0,0,1.32.32,2.9,2.9,0,0,0,.91-.14,2,2,0,0,0,.71-.43,1.9,1.9,0,0,0,.46-.7l2.16.25a3.39,3.39,0,0,1-.78,1.49,3.8,3.8,0,0,1-1.46,1A5.37,5.37,0,0,1,559.87,702Z" />
                    <path
                        d="M571.09,691.94v1.79h-5.64v-1.79Zm-4.25-2.35h2.31v9.22a1.36,1.36,0,0,0,.15.71.74.74,0,0,0,.38.34,1.46,1.46,0,0,0,.52.09,2.35,2.35,0,0,0,.4,0l.28,0,.39,1.81-.53.14a3.89,3.89,0,0,1-.83.08,3.79,3.79,0,0,1-1.57-.26,2.43,2.43,0,0,1-1.1-.9,2.76,2.76,0,0,1-.4-1.54Z" />
                    <path
                        d="M575.85,702a4,4,0,0,1-1.68-.34,2.69,2.69,0,0,1-1.17-1,2.88,2.88,0,0,1-.43-1.62,2.82,2.82,0,0,1,.3-1.38,2.5,2.5,0,0,1,.84-.87,4,4,0,0,1,1.2-.49,8.85,8.85,0,0,1,1.38-.25l1.4-.16a2.2,2.2,0,0,0,.79-.23.55.55,0,0,0,.24-.49v0a1.45,1.45,0,0,0-.43-1.12,1.75,1.75,0,0,0-1.23-.4,2.19,2.19,0,0,0-1.35.38,1.77,1.77,0,0,0-.66.87l-2.16-.3a3.45,3.45,0,0,1,.84-1.5,3.58,3.58,0,0,1,1.44-.91,5.57,5.57,0,0,1,1.88-.31,6.18,6.18,0,0,1,1.41.17,3.76,3.76,0,0,1,1.28.55,2.68,2.68,0,0,1,.94,1,3.33,3.33,0,0,1,.36,1.63v6.57h-2.23v-1.35h-.08a2.78,2.78,0,0,1-.59.77,3,3,0,0,1-.95.57A3.89,3.89,0,0,1,575.85,702Zm.6-1.7a2.43,2.43,0,0,0,1.21-.28,2,2,0,0,0,.79-.74,1.84,1.84,0,0,0,.28-1v-1.16a1.07,1.07,0,0,1-.37.17,5.68,5.68,0,0,1-.58.13c-.21,0-.42.08-.63.1l-.54.08a4,4,0,0,0-.93.23,1.64,1.64,0,0,0-.65.45,1.12,1.12,0,0,0-.23.73,1.1,1.1,0,0,0,.46,1A2,2,0,0,0,576.45,700.26Z" />
                    <path d="M585.68,688.67v13.09h-2.31V688.67Z" />
                    <g id="SvgjsG1013">
                        <g id="SvgjsG1030">
                            <path
                                d="M599.2,548a14.22,14.22,0,0,1,5.89,7.18,3.84,3.84,0,0,0,5,2,3.77,3.77,0,0,0,2-2A14.19,14.19,0,0,1,618,548a3.7,3.7,0,0,0,1.07-5.18,3.86,3.86,0,0,0-1.07-1.06,14.19,14.19,0,0,1-5.9-7.18,3.82,3.82,0,0,0-5-2,3.69,3.69,0,0,0-2,2,14.29,14.29,0,0,1-5.9,7.18,3.69,3.69,0,0,0-1.08,5.18A3.76,3.76,0,0,0,599.2,548Zm9.4-11.51a17.92,17.92,0,0,0,7,8.39,17.92,17.92,0,0,0-7,8.39,17.9,17.9,0,0,0-7-8.39A17.9,17.9,0,0,0,608.6,536.5ZM596,521.85a22,22,0,0,1-8.42-11.14,4.57,4.57,0,0,0-5.87-2.58,4.52,4.52,0,0,0-2.63,2.58,22.07,22.07,0,0,1-8.41,11.14,4.42,4.42,0,0,0-1,6.25,4.56,4.56,0,0,0,1,1,22,22,0,0,1,8.41,11.14,4.59,4.59,0,0,0,5.88,2.58,4.53,4.53,0,0,0,2.62-2.58A22,22,0,0,1,596,529.1a4.43,4.43,0,0,0,1-6.25,4.79,4.79,0,0,0-1-1Zm-2.35,4.08a25.87,25.87,0,0,0-9.79,12.91.56.56,0,0,1-.7.34.52.52,0,0,1-.35-.34A25.93,25.93,0,0,0,573,525.93a.52.52,0,0,1-.17-.74A.46.46,0,0,1,573,525a26,26,0,0,0,9.79-12.91.56.56,0,0,1,1.05,0A25.91,25.91,0,0,0,593.63,525a.53.53,0,0,1,.18.74A.69.69,0,0,1,593.64,525.93Zm-94.7,36.15L491.48,583a5.91,5.91,0,0,0,3.78,7.51,6.33,6.33,0,0,0,1.88.31h95.19a6,6,0,0,0,6-6A5.73,5.73,0,0,0,598,583l-7.45-20.9a6,6,0,0,0-5.65-3.94H571.36a5.8,5.8,0,0,0,0-3.9l-7.45-20.91a6,6,0,0,0-5.65-3.94H531.2a6,6,0,0,0-5.65,3.94l-7.45,20.91a5.8,5.8,0,0,0,0,3.9H504.59A6,6,0,0,0,498.94,562.08Zm85.95,0a2,2,0,0,1,1.88,1.31l7.45,20.9a2,2,0,0,1-1.25,2.5,2,2,0,0,1-.64.11H547.55l8.37-23.51a2,2,0,0,1,1.89-1.31ZM544.74,582.9l-7.42-20.82v0h14.85v0Zm-22.87-27.37,7.44-20.9a2,2,0,0,1,1.89-1.31h27.08a2,2,0,0,1,1.88,1.31l7.45,20.9a2,2,0,0,1-1.25,2.5,2,2,0,0,1-.64.11h-42a2,2,0,0,1-2-2A1.88,1.88,0,0,1,521.87,555.53Zm9.8,6.53a2,2,0,0,1,1.88,1.31l8.38,23.51H497.14a2,2,0,0,1-2-2,1.88,1.88,0,0,1,.11-.62l7.44-20.9a2,2,0,0,1,1.89-1.31ZM462.84,645.6l7.52,17.78a18.17,18.17,0,0,0,23.57,9.49l27.79-11.51a5.9,5.9,0,0,0,3.61-5.76l1.9-.8a14.14,14.14,0,0,1,7.44-.95c14.66,2.15,39.83-2.83,52.79-10.47a321.8,321.8,0,0,0,36.11-24.84c11.3-8.93-1.23-25.49-13-18-3.49,2.24-11.49,7.84-16.5,11.32-1.46-3.76-5.53-6.84-9.63-5.84-1.29.29-2.52.69-3.73,1.06-4.86,1.54-9.89,3.13-21-1-20.92-7.87-41.74,1.93-43.3,2.69l-8.92,3.71a6,6,0,0,0-6.77-1.54c-4.53,1.85-17.5,7.18-28.3,11.63A17.56,17.56,0,0,0,462.84,645.6Zm55.26-33.24c.44-.18,20.46-10,40.26-2.61,12.39,4.65,18.35,2.77,23.61,1.11,1.17-.37,2.27-.74,3.4-1,3.13-.65,5.54,3.09,5.54,5.93,0,3.37-5.83,7.37-8.8,8.66-3.92,1.71-12,1.7-16.24,1.15a2,2,0,0,0-2.23,1.69,2,2,0,0,0,1.72,2.2c4.77.58,13.68.62,18.36-1.46.11,0,10.77-4.9,11.14-11.89,4.7-3.26,14.1-9.91,18-12.33,7.66-4.79,15.62,5.76,8.24,11.65A310.47,310.47,0,0,1,585.41,640c-12.11,7.12-36.49,12-50.16,9.94a18.24,18.24,0,0,0-9.58,1.22l-1.54.64L509.36,616Zm-15.78,2.2a2,2,0,0,1,2.61,1.06h0l16.29,39.59a1.94,1.94,0,0,1-1.06,2.53l-5.73,2.37-18.22-43.06,6.1-2.5Zm-9.79,4,18.23,43.06-18.38,7.62a14.14,14.14,0,0,1-18.33-7.38l-7.52-17.78a13.65,13.65,0,0,1,7.5-17.91l18.5-7.61Z"
                                style="fill:#fabb04" />
                        </g>
                    </g>
                </g>
                <g id="_03" data-name="03">
                    <path
                        d="M674.5,515.42a44.31,44.31,0,0,1-21.58-5.63l-86-48.08a44.26,44.26,0,0,1-22.66-38.62V329.42a44.29,44.29,0,0,1,22.66-38.63l86-48.07a44.17,44.17,0,0,1,43.16,0l86,48.07a44.29,44.29,0,0,1,22.66,38.63v93.67a44.26,44.26,0,0,1-22.66,38.62l-86,48.08A44.31,44.31,0,0,1,674.5,515.42Z"
                        style="fill:#fff" />
                    <path
                        d="M674.5,237.31a44.15,44.15,0,0,1,21.48,5.6L782,291a44,44,0,0,1,22.55,38.43v93.67A44,44,0,0,1,782,461.52L696,509.6a44,44,0,0,1-43,0l-86-48.08a44,44,0,0,1-22.55-38.43V329.42A44,44,0,0,1,567,291l86-48.08a44.15,44.15,0,0,1,21.48-5.6m0-.43a44.48,44.48,0,0,0-21.69,5.64l-86,48.08A44.47,44.47,0,0,0,544,329.42v93.67a44.47,44.47,0,0,0,22.77,38.82l86,48.08a44.46,44.46,0,0,0,43.38,0l86-48.08A44.47,44.47,0,0,0,805,423.09V329.42a44.47,44.47,0,0,0-22.77-38.82l-86-48.08a44.51,44.51,0,0,0-21.69-5.64Z" />
                    <path
                        d="M589.66,431.2a1.74,1.74,0,0,0-.75-1.3,2.91,2.91,0,0,0-1.71-.47,3.29,3.29,0,0,0-1.28.23,2,2,0,0,0-.81.6,1.52,1.52,0,0,0-.29.88,1.37,1.37,0,0,0,.19.71,1.69,1.69,0,0,0,.52.51,4,4,0,0,0,.72.35,7.32,7.32,0,0,0,.8.23l1.23.31a8.83,8.83,0,0,1,1.43.46,5.47,5.47,0,0,1,1.23.75,3.24,3.24,0,0,1,.86,1.08,3.14,3.14,0,0,1,.32,1.48,3.52,3.52,0,0,1-.58,2,3.88,3.88,0,0,1-1.7,1.36,6.55,6.55,0,0,1-2.68.49,6.71,6.71,0,0,1-2.65-.47,4,4,0,0,1-1.75-1.38,4,4,0,0,1-.68-2.21h2.33a2,2,0,0,0,.42,1.14,2.26,2.26,0,0,0,1,.67,3.76,3.76,0,0,0,1.34.23,3.59,3.59,0,0,0,1.36-.24,2.07,2.07,0,0,0,.91-.65,1.48,1.48,0,0,0,.34-1,1.24,1.24,0,0,0-.3-.85,2.24,2.24,0,0,0-.82-.56,7.41,7.41,0,0,0-1.23-.4l-1.49-.39a6,6,0,0,1-2.55-1.26,2.89,2.89,0,0,1-.94-2.25,3.36,3.36,0,0,1,.63-2,4.1,4.1,0,0,1,1.72-1.35,6,6,0,0,1,2.46-.49,5.8,5.8,0,0,1,2.44.49,4.07,4.07,0,0,1,1.66,1.33,3.51,3.51,0,0,1,.62,2Z" />
                    <path
                        d="M598.48,440.89a5,5,0,0,1-2.55-.62,4.17,4.17,0,0,1-1.65-1.75,5.91,5.91,0,0,1-.57-2.68,5.79,5.79,0,0,1,.58-2.66,4.32,4.32,0,0,1,1.62-1.79,4.54,4.54,0,0,1,2.45-.64,5.12,5.12,0,0,1,1.71.29,3.77,3.77,0,0,1,1.43.9,4.18,4.18,0,0,1,1,1.54,6.48,6.48,0,0,1,.35,2.23v.71h-8v-1.56h5.82a2.46,2.46,0,0,0-.28-1.19,2.14,2.14,0,0,0-.79-.82,2.2,2.2,0,0,0-1.16-.3,2.36,2.36,0,0,0-1.25.34,2.39,2.39,0,0,0-.83.9A2.62,2.62,0,0,0,596,435v1.36a3.19,3.19,0,0,0,.32,1.47,2.18,2.18,0,0,0,.87.93,2.94,2.94,0,0,0,2.23.18,2.09,2.09,0,0,0,.71-.42,1.9,1.9,0,0,0,.46-.7l2.16.24a3.39,3.39,0,0,1-.78,1.49,3.71,3.71,0,0,1-1.46,1A5.57,5.57,0,0,1,598.48,440.89Z" />
                    <path d="M607.11,427.6v13.1H604.8V427.6Z" />
                    <path
                        d="M613.84,440.89a5,5,0,0,1-2.55-.62,4.17,4.17,0,0,1-1.65-1.75,5.91,5.91,0,0,1-.57-2.68,5.79,5.79,0,0,1,.58-2.66,4.32,4.32,0,0,1,1.62-1.79,4.54,4.54,0,0,1,2.45-.64,5.12,5.12,0,0,1,1.71.29,3.77,3.77,0,0,1,1.43.9,4.18,4.18,0,0,1,1,1.54,6.48,6.48,0,0,1,.35,2.23v.71h-8v-1.56H616a2.71,2.71,0,0,0-.29-1.19,2.19,2.19,0,0,0-.78-.82,2.26,2.26,0,0,0-1.17-.3,2.36,2.36,0,0,0-1.25.34,2.39,2.39,0,0,0-.83.9,2.62,2.62,0,0,0-.31,1.21v1.36a3.19,3.19,0,0,0,.32,1.47,2.18,2.18,0,0,0,.87.93,2.94,2.94,0,0,0,2.23.18,2.09,2.09,0,0,0,.71-.42,1.9,1.9,0,0,0,.46-.7l2.16.24a3.39,3.39,0,0,1-.78,1.49,3.71,3.71,0,0,1-1.46,1A5.57,5.57,0,0,1,613.84,440.89Z" />
                    <path
                        d="M624.44,440.89a4.72,4.72,0,0,1-2.52-.65,4.36,4.36,0,0,1-1.62-1.78,6,6,0,0,1-.56-2.64,5.89,5.89,0,0,1,.57-2.64,4.41,4.41,0,0,1,1.63-1.79,4.66,4.66,0,0,1,2.49-.64,4.93,4.93,0,0,1,2.12.44,3.59,3.59,0,0,1,2.1,3.09h-2.21a2.17,2.17,0,0,0-.64-1.19,1.84,1.84,0,0,0-1.34-.47,2.08,2.08,0,0,0-1.25.38,2.46,2.46,0,0,0-.83,1.09,4.34,4.34,0,0,0-.3,1.7,4.45,4.45,0,0,0,.3,1.72,2.36,2.36,0,0,0,.83,1.1,2,2,0,0,0,1.25.39,2.1,2.1,0,0,0,.92-.19,1.78,1.78,0,0,0,.68-.57,2.29,2.29,0,0,0,.38-.9h2.21a3.81,3.81,0,0,1-.62,1.84,3.53,3.53,0,0,1-1.44,1.26A4.83,4.83,0,0,1,624.44,440.89Z" />
                    <path
                        d="M635.46,430.88v1.79h-5.65v-1.79Zm-4.26-2.36h2.32v9.22a1.56,1.56,0,0,0,.14.72.76.76,0,0,0,.38.33,1.51,1.51,0,0,0,.53.09,2.6,2.6,0,0,0,.4,0l.27-.06.39,1.81-.52.14a4.69,4.69,0,0,1-.84.09,3.56,3.56,0,0,1-1.56-.27,2.35,2.35,0,0,1-1.11-.9,2.73,2.73,0,0,1-.4-1.54Z" />
                    <path
                        d="M642,427.6h2.9l3.89,9.49h.15l3.89-9.49h2.9v13.1h-2.27v-9h-.13l-3.61,9H648l-3.62-9h-.12v9H642Z" />
                    <path
                        d="M662.52,440.89a5,5,0,0,1-2.55-.62,4.08,4.08,0,0,1-1.64-1.75,6.44,6.44,0,0,1,0-5.34,4.32,4.32,0,0,1,1.62-1.79,4.54,4.54,0,0,1,2.45-.64,5.12,5.12,0,0,1,1.71.29,3.77,3.77,0,0,1,1.43.9,4.18,4.18,0,0,1,1,1.54,6.48,6.48,0,0,1,.35,2.23v.71h-8v-1.56h5.83a2.58,2.58,0,0,0-.29-1.19,2.19,2.19,0,0,0-.78-.82,2.26,2.26,0,0,0-1.17-.3,2.36,2.36,0,0,0-1.25.34,2.47,2.47,0,0,0-.83.9A2.62,2.62,0,0,0,660,435v1.36a3.19,3.19,0,0,0,.32,1.47,2.18,2.18,0,0,0,.87.93,2.94,2.94,0,0,0,2.23.18,2.09,2.09,0,0,0,.71-.42,1.78,1.78,0,0,0,.46-.7l2.16.24a3.39,3.39,0,0,1-.78,1.49,3.71,3.71,0,0,1-1.46,1A5.57,5.57,0,0,1,662.52,440.89Z" />
                    <path
                        d="M673.74,430.88v1.79H668.1v-1.79Zm-4.25-2.36h2.32v9.22a1.44,1.44,0,0,0,.14.72.76.76,0,0,0,.38.33,1.46,1.46,0,0,0,.52.09,2.41,2.41,0,0,0,.4,0l.28-.06.39,1.81a5.32,5.32,0,0,1-.53.14,4.47,4.47,0,0,1-.83.09,3.56,3.56,0,0,1-1.56-.27,2.35,2.35,0,0,1-1.11-.9,2.73,2.73,0,0,1-.4-1.54Z" />
                    <path
                        d="M678.5,440.89a4,4,0,0,1-1.67-.33,2.75,2.75,0,0,1-1.18-1,2.88,2.88,0,0,1-.43-1.62,2.7,2.7,0,0,1,.31-1.37,2.24,2.24,0,0,1,.83-.87,4.28,4.28,0,0,1,1.2-.5A10.34,10.34,0,0,1,679,435l1.4-.17a2,2,0,0,0,.78-.23.55.55,0,0,0,.25-.49v0a1.45,1.45,0,0,0-.43-1.11,1.75,1.75,0,0,0-1.24-.4,2.17,2.17,0,0,0-1.34.37,1.82,1.82,0,0,0-.67.88l-2.16-.31a3.45,3.45,0,0,1,.84-1.5,3.77,3.77,0,0,1,1.44-.91,6,6,0,0,1,3.29-.13,4.1,4.1,0,0,1,1.29.54,2.8,2.8,0,0,1,.93,1,3.36,3.36,0,0,1,.36,1.63v6.58h-2.23v-1.35h-.07a3,3,0,0,1-.59.76,2.75,2.75,0,0,1-1,.57A3.85,3.85,0,0,1,678.5,440.89Zm.61-1.7a2.53,2.53,0,0,0,1.2-.27,2,2,0,0,0,.79-.74,1.88,1.88,0,0,0,.28-1V436a1,1,0,0,1-.37.16c-.17.05-.36.1-.57.14l-.64.1-.54.08a3.62,3.62,0,0,0-.93.23,1.44,1.44,0,0,0-.64.44,1.09,1.09,0,0,0-.24.73,1.11,1.11,0,0,0,.47,1A2.06,2.06,0,0,0,679.11,439.19Z" />
                    <path d="M688.34,427.6v13.1H686V427.6Z" />
                    <path
                        d="M707,434.15a7.65,7.65,0,0,1-.79,3.62,5.65,5.65,0,0,1-2.15,2.31,6,6,0,0,1-3.07.79,5.87,5.87,0,0,1-3.08-.8,5.6,5.6,0,0,1-2.15-2.31,8.67,8.67,0,0,1,0-7.23,5.72,5.72,0,0,1,2.15-2.31,6.31,6.31,0,0,1,6.15,0,5.65,5.65,0,0,1,2.15,2.31A7.65,7.65,0,0,1,707,434.15Zm-2.38,0a6.13,6.13,0,0,0-.47-2.52,3.48,3.48,0,0,0-1.28-1.55,3.62,3.62,0,0,0-3.77,0,3.54,3.54,0,0,0-1.28,1.55,7.13,7.13,0,0,0,0,5,3.54,3.54,0,0,0,1.28,1.55,3.62,3.62,0,0,0,3.77,0,3.48,3.48,0,0,0,1.28-1.55A6.13,6.13,0,0,0,704.6,434.15Zm-4.44,2.15h2.15l1.27,1.65.91,1.07,2.18,2.8h-2.3l-1.49-1.88-.63-.89Z" />
                    <path
                        d="M715.4,436.57v-5.69h2.31v9.82h-2.24V439h-.1a3,3,0,0,1-1.09,1.35,3.22,3.22,0,0,1-1.87.52,3.28,3.28,0,0,1-1.7-.43,2.93,2.93,0,0,1-1.15-1.26,4.38,4.38,0,0,1-.42-2v-6.25h2.32v5.89a2.08,2.08,0,0,0,.51,1.48,1.74,1.74,0,0,0,1.34.55,2.08,2.08,0,0,0,1-.25,2,2,0,0,0,.79-.74A2.28,2.28,0,0,0,715.4,436.57Z" />
                    <path
                        d="M722.92,440.89a4.06,4.06,0,0,1-1.68-.33,2.75,2.75,0,0,1-1.18-1,2.88,2.88,0,0,1-.43-1.62,2.7,2.7,0,0,1,.31-1.37,2.2,2.2,0,0,1,.84-.87,4.1,4.1,0,0,1,1.19-.5,10.34,10.34,0,0,1,1.39-.24l1.4-.17a1.9,1.9,0,0,0,.78-.23.55.55,0,0,0,.25-.49v0a1.45,1.45,0,0,0-.43-1.11,1.75,1.75,0,0,0-1.24-.4,2.17,2.17,0,0,0-1.34.37,1.88,1.88,0,0,0-.67.88l-2.16-.31a3.45,3.45,0,0,1,.84-1.5,3.85,3.85,0,0,1,1.44-.91,6,6,0,0,1,3.29-.13,4.1,4.1,0,0,1,1.29.54,2.92,2.92,0,0,1,.94,1,3.48,3.48,0,0,1,.35,1.63v6.58h-2.22v-1.35h-.08a3,3,0,0,1-.59.76,2.8,2.8,0,0,1-1,.57A3.93,3.93,0,0,1,722.92,440.89Zm.6-1.7a2.6,2.6,0,0,0,1.21-.27,2.06,2.06,0,0,0,.78-.74,1.88,1.88,0,0,0,.28-1V436a1,1,0,0,1-.37.16c-.17.05-.36.1-.57.14l-.64.1-.54.08a3.73,3.73,0,0,0-.93.23,1.5,1.5,0,0,0-.64.44,1.09,1.09,0,0,0-.24.73,1.11,1.11,0,0,0,.47,1A2.09,2.09,0,0,0,723.52,439.19Z" />
                    <path
                        d="M732.75,434.94v5.76h-2.32v-9.82h2.21v1.66h.12a2.94,2.94,0,0,1,1.08-1.31,3.35,3.35,0,0,1,1.85-.48,3.46,3.46,0,0,1,1.77.43,2.94,2.94,0,0,1,1.18,1.26,4.38,4.38,0,0,1,.41,2v6.26h-2.31v-5.9a2.2,2.2,0,0,0-.51-1.54,1.82,1.82,0,0,0-1.41-.55,2.1,2.1,0,0,0-1.07.26,1.87,1.87,0,0,0-.74.76A2.67,2.67,0,0,0,732.75,434.94Z" />
                    <path
                        d="M746.31,430.88v1.79h-5.64v-1.79Zm-4.25-2.36h2.31v9.22a1.43,1.43,0,0,0,.15.72.72.72,0,0,0,.38.33,1.46,1.46,0,0,0,.52.09,2.41,2.41,0,0,0,.4,0l.28-.06.39,1.81a5.32,5.32,0,0,1-.53.14,4.57,4.57,0,0,1-.83.09,3.63,3.63,0,0,1-1.57-.27,2.37,2.37,0,0,1-1.1-.9,2.73,2.73,0,0,1-.4-1.54Z" />
                    <path
                        d="M749.41,429.48a1.34,1.34,0,0,1-.95-.37,1.2,1.2,0,0,1,0-1.77,1.34,1.34,0,0,1,.95-.37,1.32,1.32,0,0,1,1,.37,1.2,1.2,0,0,1,.39.89,1.18,1.18,0,0,1-.39.89A1.36,1.36,0,0,1,749.41,429.48Zm-1.16,11.22v-9.82h2.31v9.82Z" />
                    <path
                        d="M757.84,430.88v1.79H752.2v-1.79Zm-4.25-2.36h2.32v9.22a1.44,1.44,0,0,0,.14.72.76.76,0,0,0,.38.33,1.46,1.46,0,0,0,.52.09,2.41,2.41,0,0,0,.4,0l.28-.06.39,1.81a5.32,5.32,0,0,1-.53.14,4.47,4.47,0,0,1-.83.09,3.63,3.63,0,0,1-1.57-.27,2.37,2.37,0,0,1-1.1-.9,2.73,2.73,0,0,1-.4-1.54Z" />
                    <path
                        d="M761.22,444.38a4.79,4.79,0,0,1-.88-.08,3.1,3.1,0,0,1-.63-.17l.54-1.8a2.79,2.79,0,0,0,.9.14,1.12,1.12,0,0,0,.7-.24,1.84,1.84,0,0,0,.51-.8l.2-.53-3.56-10h2.45l2.27,7.41h.1l2.27-7.41h2.46l-3.93,11a4.63,4.63,0,0,1-.73,1.34,2.92,2.92,0,0,1-1.11.86A3.74,3.74,0,0,1,761.22,444.38Z" />
                    <path
                        d="M604.2,453.88v1.79h-5.81v-1.79Zm-4.35,9.82V453a3,3,0,0,1,.41-1.65,2.45,2.45,0,0,1,1.11-1,3.54,3.54,0,0,1,1.54-.33,4.93,4.93,0,0,1,1.07.1,5.74,5.74,0,0,1,.69.17l-.46,1.79-.37-.09a1.93,1.93,0,0,0-.5,0,1.14,1.14,0,0,0-.91.31,1.29,1.29,0,0,0-.26.88v10.6Z" />
                    <path
                        d="M606,463.7v-9.82h2.25v1.63h.1a2.44,2.44,0,0,1,2.42-1.77h.43l.4.05v2.13a1.76,1.76,0,0,0-.46-.09,4.3,4.3,0,0,0-.61,0,2.29,2.29,0,0,0-1.14.28,2,2,0,0,0-.78.75,2,2,0,0,0-.29,1.1v5.78Z" />
                    <path
                        d="M617.44,463.89a4.72,4.72,0,0,1-2.5-.64,4.3,4.3,0,0,1-1.63-1.77,6.39,6.39,0,0,1,0-5.32,4.32,4.32,0,0,1,1.63-1.78,5.26,5.26,0,0,1,5,0,4.26,4.26,0,0,1,1.63,1.78,6.39,6.39,0,0,1,0,5.32,4.23,4.23,0,0,1-1.63,1.77A4.69,4.69,0,0,1,617.44,463.89Zm0-1.86a2,2,0,0,0,1.3-.43,2.64,2.64,0,0,0,.79-1.16,4.83,4.83,0,0,0,.25-1.62,5,5,0,0,0-.25-1.64,2.7,2.7,0,0,0-.79-1.16,2,2,0,0,0-1.3-.44,2,2,0,0,0-1.33.44,2.6,2.6,0,0,0-.78,1.16,4.74,4.74,0,0,0-.26,1.64,4.59,4.59,0,0,0,.26,1.62,2.54,2.54,0,0,0,.78,1.16A2,2,0,0,0,617.45,462Z" />
                    <path
                        d="M624.1,463.7v-9.82h2.21v1.66h.11a2.63,2.63,0,0,1,1-1.31,3,3,0,0,1,1.69-.48,2.88,2.88,0,0,1,1.69.48,2.57,2.57,0,0,1,1,1.31h.1a2.67,2.67,0,0,1,1.1-1.3,3.35,3.35,0,0,1,1.84-.49,3,3,0,0,1,2.22.86,3.37,3.37,0,0,1,.85,2.49v6.6h-2.32v-6.24a1.71,1.71,0,0,0-.48-1.34,1.77,1.77,0,0,0-1.19-.42,1.66,1.66,0,0,0-1.31.52,2,2,0,0,0-.47,1.35v6.13h-2.27v-6.33a1.55,1.55,0,0,0-1.65-1.67,1.65,1.65,0,0,0-.9.25,1.88,1.88,0,0,0-.66.71,2.27,2.27,0,0,0-.24,1.06v6Z" />
                    <path
                        d="M646.16,467.38a4.68,4.68,0,0,1-.87-.08,3,3,0,0,1-.64-.17l.54-1.8a2.87,2.87,0,0,0,.9.14,1.1,1.1,0,0,0,.7-.24,1.85,1.85,0,0,0,.52-.8l.19-.53-3.56-10h2.46l2.26,7.41h.1l2.27-7.41h2.46l-3.93,11a4.2,4.2,0,0,1-.73,1.34,2.92,2.92,0,0,1-1.11.86A3.68,3.68,0,0,1,646.16,467.38Z" />
                    <path
                        d="M659.37,463.89a4.66,4.66,0,0,1-2.49-.64,4.23,4.23,0,0,1-1.63-1.77,6.39,6.39,0,0,1,0-5.32,4.26,4.26,0,0,1,1.63-1.78,4.75,4.75,0,0,1,2.49-.63,4.81,4.81,0,0,1,2.5.63,4.32,4.32,0,0,1,1.63,1.78,6.39,6.39,0,0,1,0,5.32,4.3,4.3,0,0,1-1.63,1.77A4.72,4.72,0,0,1,659.37,463.89Zm0-1.86a2,2,0,0,0,1.3-.43,2.54,2.54,0,0,0,.78-1.16,4.59,4.59,0,0,0,.26-1.62,4.74,4.74,0,0,0-.26-1.64,2.6,2.6,0,0,0-.78-1.16,2,2,0,0,0-1.3-.44,2,2,0,0,0-1.33.44,2.7,2.7,0,0,0-.79,1.16,5,5,0,0,0-.26,1.64,4.83,4.83,0,0,0,.26,1.62,2.64,2.64,0,0,0,.79,1.16A2,2,0,0,0,659.39,462Z" />
                    <path
                        d="M672.29,459.57v-5.69h2.32v9.82h-2.25V462h-.1a3,3,0,0,1-1.09,1.35,3.18,3.18,0,0,1-1.86.52,3.32,3.32,0,0,1-1.71-.43,3,3,0,0,1-1.15-1.26,4.38,4.38,0,0,1-.42-2v-6.25h2.32v5.89a2.08,2.08,0,0,0,.51,1.48,1.74,1.74,0,0,0,1.34.55,2.08,2.08,0,0,0,1-.25,1.93,1.93,0,0,0,.79-.74A2.28,2.28,0,0,0,672.29,459.57Z" />
                    <path
                        d="M677,463.7v-9.82h2.25v1.63h.1a2.44,2.44,0,0,1,2.42-1.77h.43l.4.05v2.13a1.76,1.76,0,0,0-.46-.09,4.3,4.3,0,0,0-.61,0,2.29,2.29,0,0,0-1.14.28,2,2,0,0,0-1.07,1.85v5.78Z" />
                    <path
                        d="M688.69,463.7V450.6h5a5.49,5.49,0,0,1,2.36.45,3.13,3.13,0,0,1,1.41,1.21A3.29,3.29,0,0,1,698,454a2.73,2.73,0,0,1-.31,1.36,2.52,2.52,0,0,1-.82.92,3.79,3.79,0,0,1-1.16.51v.12a2.93,2.93,0,0,1,1.34.43,3,3,0,0,1,1,1.09,3.34,3.34,0,0,1,.41,1.7A3.4,3.4,0,0,1,698,462a3.34,3.34,0,0,1-1.48,1.28,5.93,5.93,0,0,1-2.5.47Zm2.37-7.53h2.35a2.51,2.51,0,0,0,1.11-.23,1.86,1.86,0,0,0,.77-.64,1.73,1.73,0,0,0,.29-1,1.63,1.63,0,0,0-.54-1.25,2.23,2.23,0,0,0-1.58-.49h-2.4Zm0,5.54h2.56a2.82,2.82,0,0,0,1.86-.49,1.62,1.62,0,0,0,.57-1.28,1.93,1.93,0,0,0-.29-1.05,2,2,0,0,0-.82-.74,2.73,2.73,0,0,0-1.26-.27h-2.62Z" />
                    <path
                        d="M703.25,463.89a4.1,4.1,0,0,1-1.68-.33,2.75,2.75,0,0,1-1.18-1,3,3,0,0,1-.43-1.62,2.7,2.7,0,0,1,.31-1.37,2.2,2.2,0,0,1,.84-.87,4.1,4.1,0,0,1,1.19-.5,10.34,10.34,0,0,1,1.39-.24l1.4-.17a1.9,1.9,0,0,0,.78-.23.53.53,0,0,0,.25-.49v0a1.45,1.45,0,0,0-.43-1.11,1.74,1.74,0,0,0-1.23-.4,2.19,2.19,0,0,0-1.35.37,1.88,1.88,0,0,0-.67.88l-2.16-.31a3.45,3.45,0,0,1,.84-1.5,3.85,3.85,0,0,1,1.44-.91,6,6,0,0,1,3.3-.13,4.15,4.15,0,0,1,1.28.54,2.92,2.92,0,0,1,.94,1,3.48,3.48,0,0,1,.35,1.63v6.58h-2.22v-1.35h-.08a3,3,0,0,1-.59.76,2.7,2.7,0,0,1-.95.57A3.89,3.89,0,0,1,703.25,463.89Zm.6-1.7a2.57,2.57,0,0,0,1.21-.27,2.17,2.17,0,0,0,.79-.74,2,2,0,0,0,.27-1V459a1,1,0,0,1-.36.16c-.18.05-.37.1-.58.14l-.64.1-.54.08a3.54,3.54,0,0,0-.92.23,1.47,1.47,0,0,0-.65.44,1.09,1.09,0,0,0-.24.73,1.11,1.11,0,0,0,.47,1A2.09,2.09,0,0,0,703.85,462.19Z" />
                    <path d="M713.08,450.6v13.1h-2.32V450.6Z" />
                    <path
                        d="M718.28,463.89a4.13,4.13,0,0,1-1.68-.33,2.72,2.72,0,0,1-1.17-1,2.88,2.88,0,0,1-.43-1.62,2.81,2.81,0,0,1,.3-1.37,2.34,2.34,0,0,1,.84-.87,4,4,0,0,1,1.2-.5,10.19,10.19,0,0,1,1.38-.24c.58-.06,1-.12,1.4-.17a2,2,0,0,0,.79-.23.54.54,0,0,0,.24-.49v0a1.41,1.41,0,0,0-.43-1.11,1.7,1.7,0,0,0-1.23-.4,2.19,2.19,0,0,0-1.35.37,1.79,1.79,0,0,0-.66.88l-2.16-.31a3.45,3.45,0,0,1,.84-1.5,3.7,3.7,0,0,1,1.44-.91,5.58,5.58,0,0,1,1.88-.3,5.67,5.67,0,0,1,1.41.17,4,4,0,0,1,1.28.54,2.92,2.92,0,0,1,.94,1,3.36,3.36,0,0,1,.36,1.63v6.58h-2.23v-1.35h-.08a2.74,2.74,0,0,1-.59.76,2.7,2.7,0,0,1-1,.57A3.89,3.89,0,0,1,718.28,463.89Zm.6-1.7a2.54,2.54,0,0,0,1.21-.27,2.17,2.17,0,0,0,.79-.74,1.88,1.88,0,0,0,.28-1V459a1.09,1.09,0,0,1-.37.16c-.17.05-.37.1-.58.14l-.63.1-.54.08a3.52,3.52,0,0,0-.93.23,1.53,1.53,0,0,0-.65.44,1.14,1.14,0,0,0-.23.73,1.11,1.11,0,0,0,.46,1A2.09,2.09,0,0,0,718.88,462.19Z" />
                    <path
                        d="M728.11,457.94v5.76H725.8v-9.82H728v1.66h.11a2.9,2.9,0,0,1,1.09-1.31,3.34,3.34,0,0,1,1.84-.48,3.53,3.53,0,0,1,1.78.43,3,3,0,0,1,1.17,1.26,4.38,4.38,0,0,1,.42,2v6.26H732.1v-5.9a2.2,2.2,0,0,0-.51-1.54,1.79,1.79,0,0,0-1.4-.55,2.16,2.16,0,0,0-1.08.26,1.85,1.85,0,0,0-.73.76A2.54,2.54,0,0,0,728.11,457.94Z" />
                    <path
                        d="M741.06,463.89a4.78,4.78,0,0,1-2.53-.65,4.27,4.27,0,0,1-1.61-1.78,5.86,5.86,0,0,1-.57-2.64,5.76,5.76,0,0,1,.58-2.64,4.32,4.32,0,0,1,1.62-1.79,4.66,4.66,0,0,1,2.49-.64,4.9,4.9,0,0,1,2.12.44,3.65,3.65,0,0,1,1.48,1.23,3.71,3.71,0,0,1,.62,1.86h-2.21a2.16,2.16,0,0,0-.63-1.19,1.88,1.88,0,0,0-1.34-.47,2.06,2.06,0,0,0-1.25.38,2.33,2.33,0,0,0-.83,1.09,4.34,4.34,0,0,0-.3,1.7,4.65,4.65,0,0,0,.29,1.72,2.42,2.42,0,0,0,.83,1.1,2.25,2.25,0,0,0,2.17.2,1.78,1.78,0,0,0,.68-.57,2.15,2.15,0,0,0,.38-.9h2.21a3.8,3.8,0,0,1-.61,1.84,3.63,3.63,0,0,1-1.45,1.26A4.78,4.78,0,0,1,741.06,463.89Z" />
                    <path
                        d="M751.51,463.89a5,5,0,0,1-2.54-.62,4,4,0,0,1-1.65-1.75,6.54,6.54,0,0,1,0-5.34,4.46,4.46,0,0,1,1.62-1.79,4.57,4.57,0,0,1,2.45-.64,5.13,5.13,0,0,1,1.72.29,3.85,3.85,0,0,1,1.43.9,4.16,4.16,0,0,1,1,1.54,6.24,6.24,0,0,1,.36,2.23v.71h-8v-1.56h5.83a2.47,2.47,0,0,0-.29-1.19,2.12,2.12,0,0,0-.78-.82,2.21,2.21,0,0,0-1.17-.3,2.33,2.33,0,0,0-1.24.34,2.42,2.42,0,0,0-.84.9A2.61,2.61,0,0,0,749,458v1.36a3.19,3.19,0,0,0,.31,1.47,2.14,2.14,0,0,0,.88.93,2.52,2.52,0,0,0,1.31.32,2.65,2.65,0,0,0,.92-.14,2.19,2.19,0,0,0,.71-.42,1.76,1.76,0,0,0,.45-.7l2.16.24a3.28,3.28,0,0,1-.77,1.49,3.78,3.78,0,0,1-1.46,1A5.63,5.63,0,0,1,751.51,463.89Z" />
                    <g id="SvgjsG1008">
                        <path
                            d="M600.52,381.65l-9.39,26.24a2,2,0,0,0,1.85,2.82H756.75a2,2,0,0,0,2-2.09,2.24,2.24,0,0,0-.13-.73l-9.4-26.24a2,2,0,0,0-1.85-1.35H730.83l-8.91-24.89a2,2,0,0,0-1.85-1.35H703.53l-8.91-24.89a2,2,0,0,0-1.85-1.35H657a2,2,0,0,0-1.85,1.35l-8.91,24.89H629.67a2,2,0,0,0-1.85,1.35l-8.91,24.89H602.37A2,2,0,0,0,600.52,381.65Zm47.05,21.06L641,384.47H654.1Zm2.87,3.83,7.9-22.07H691.4l7.9,22.06H650.44Zm51.72-3.83-6.52-18.24h13.05l-6.52,18.24Zm51.73,3.83H705l7.9-22.07H746l7.9,22.06Zm-27.3-26.24H677.73l7.9-22.07H718.7Zm-51.72-3.83-6.53-18.24H681.4ZM658.33,332H691.4l7.9,22.06H650.44l7.9-22.06ZM631,358.23h33.07L672,380.3H623.14l7.9-22.07Zm5.77,26.24,7.9,22.06H595.85l7.89-22.06ZM627,337a2,2,0,1,0,4,0,13,13,0,0,1,12.68-13.31,2.09,2.09,0,0,0,0-4.18c-7,0-12.67-5.95-12.68-13.31v-.05a2,2,0,1,0-4,0c0,7.37-5.65,13.35-12.65,13.36h0a2.09,2.09,0,0,0,0,4.18C621.36,323.69,627,329.65,627,337Zm2-22.52a17.32,17.32,0,0,0,6.76,7.12,17.36,17.36,0,0,0-6.77,7.1,17.27,17.27,0,0,0-6.76-7.1A17.22,17.22,0,0,0,629,314.48Zm94.31,25.8a2,2,0,1,0,4,0A13,13,0,0,1,740,327a2.09,2.09,0,0,0,0-4.18c-7,0-12.68-5.94-12.69-13.31v-.05a2,2,0,1,0-4,0c0,7.37-5.65,13.35-12.64,13.36h0a2.09,2.09,0,0,0,0,4.18C717.65,327,723.31,332.93,723.32,340.28Zm2-22.52a17.32,17.32,0,0,0,6.76,7.12,17.36,17.36,0,0,0-6.77,7.1,17.25,17.25,0,0,0-6.75-7.1,17.26,17.26,0,0,0,6.76-7.12Zm-52.43-20.59a2,2,0,1,0,4,0,13,13,0,0,1,12.68-13.32,2.09,2.09,0,0,0,0-4.17c-7,0-12.67-5.95-12.68-13.31v-.05a2,2,0,1,0-4,0c0,7.36-5.65,13.35-12.64,13.36h0a2.09,2.09,0,0,0,0,4.17C667.2,283.86,672.86,289.82,672.87,297.17Zm2-22.53a17.2,17.2,0,0,0,6.76,7.12,17.45,17.45,0,0,0-6.77,7.11,17.19,17.19,0,0,0-6.75-7.1,17.29,17.29,0,0,0,6.76-7.13Z"
                            style="fill:#fabb04" />
                    </g>
                </g>
                <g id="_02" data-name="02">
                    <path
                        d="M538.5,281.42a44.31,44.31,0,0,1-21.58-5.63l-86-48.07a44.29,44.29,0,0,1-22.66-38.63V95.42a44.29,44.29,0,0,1,22.66-38.63l86-48.07a44.17,44.17,0,0,1,43.16,0l86,48.07a44.29,44.29,0,0,1,22.66,38.63v93.67a44.3,44.3,0,0,1-22.66,38.63l-86,48.07A44.31,44.31,0,0,1,538.5,281.42Z"
                        style="fill:#fff" />
                    <path
                        d="M538.5,3.31A44.15,44.15,0,0,1,560,8.91L646,57a44,44,0,0,1,22.55,38.43v93.67A44,44,0,0,1,646,227.52L560,275.6a44,44,0,0,1-43,0l-86-48.08a44,44,0,0,1-22.55-38.43V95.42A44,44,0,0,1,431,57L517,8.91a44.15,44.15,0,0,1,21.48-5.6m0-.43a44.48,44.48,0,0,0-21.69,5.64l-86,48.08A44.47,44.47,0,0,0,408,95.42v93.67a44.47,44.47,0,0,0,22.77,38.82l86,48.08a44.46,44.46,0,0,0,43.38,0l86-48.08A44.47,44.47,0,0,0,669,189.09V95.42A44.47,44.47,0,0,0,646.23,56.6l-86-48.08A44.51,44.51,0,0,0,538.5,2.88Z" />
                    <path d="M497.23,189.6l3.41,10.31h.13l3.4-10.31h2.61l-4.62,13.1h-2.92l-4.61-13.1Z" />
                    <path
                        d="M509.56,191.48a1.31,1.31,0,0,1-.94-.37,1.18,1.18,0,0,1,0-1.77,1.31,1.31,0,0,1,.94-.37,1.35,1.35,0,0,1,.95.37,1.17,1.17,0,0,1,.4.89,1.16,1.16,0,0,1-.4.89A1.34,1.34,0,0,1,509.56,191.48ZM508.4,202.7v-9.82h2.32v9.82Z" />
                    <path
                        d="M517.44,202.89a5.07,5.07,0,0,1-2.55-.62,4.08,4.08,0,0,1-1.64-1.75,6.44,6.44,0,0,1,0-5.34,4.39,4.39,0,0,1,1.62-1.79,4.54,4.54,0,0,1,2.45-.64A5.07,5.07,0,0,1,519,193a3.89,3.89,0,0,1,1.44.9,4.29,4.29,0,0,1,1,1.54,6.24,6.24,0,0,1,.36,2.23v.71h-8v-1.56h5.83a2.58,2.58,0,0,0-.29-1.19,2.19,2.19,0,0,0-.78-.82,2.26,2.26,0,0,0-1.17-.3,2.36,2.36,0,0,0-1.25.34A2.49,2.49,0,0,0,515,197v1.36a3.19,3.19,0,0,0,.31,1.47,2.18,2.18,0,0,0,.87.93,2.58,2.58,0,0,0,1.32.32,2.69,2.69,0,0,0,.92-.14,2.14,2.14,0,0,0,.7-.42,1.78,1.78,0,0,0,.46-.7l2.16.24a3.39,3.39,0,0,1-.78,1.49,3.71,3.71,0,0,1-1.46,1A5.57,5.57,0,0,1,517.44,202.89Z" />
                    <path
                        d="M525.79,202.7,523,192.88h2.36l1.73,6.9h.09l1.76-6.9h2.34l1.76,6.86h.09l1.71-6.86h2.36l-2.78,9.82H532l-1.84-6.64H530l-1.84,6.64Z" />
                    <path d="M543.4,202.7V189.6h2.38v11.11h5.76v2Z" />
                    <path
                        d="M554.65,191.48a1.31,1.31,0,0,1-.94-.37,1.18,1.18,0,0,1,0-1.77,1.31,1.31,0,0,1,.94-.37,1.36,1.36,0,0,1,1,.37,1.17,1.17,0,0,1,.4.89,1.16,1.16,0,0,1-.4.89A1.36,1.36,0,0,1,554.65,191.48Zm-1.16,11.22v-9.82h2.31v9.82Z" />
                    <path d="M567,192.88l-3.49,9.82H560.9l-3.5-9.82h2.47l2.26,7.29h.1l2.26-7.29Z" />
                    <path
                        d="M572.9,202.89a5,5,0,0,1-2.55-.62,4.17,4.17,0,0,1-1.65-1.75,5.91,5.91,0,0,1-.57-2.68,5.79,5.79,0,0,1,.58-2.66,4.32,4.32,0,0,1,1.62-1.79,4.54,4.54,0,0,1,2.45-.64,5.12,5.12,0,0,1,1.71.29,3.77,3.77,0,0,1,1.43.9,4,4,0,0,1,1,1.54,6.24,6.24,0,0,1,.36,2.23v.71h-8v-1.56H575a2.58,2.58,0,0,0-.28-1.19,2.14,2.14,0,0,0-.79-.82,2.2,2.2,0,0,0-1.16-.3,2.34,2.34,0,0,0-1.25.34,2.31,2.31,0,0,0-.83.9,2.62,2.62,0,0,0-.31,1.21v1.36a3.19,3.19,0,0,0,.32,1.47,2.18,2.18,0,0,0,.87.93,2.94,2.94,0,0,0,2.23.18,2.09,2.09,0,0,0,.71-.42,1.9,1.9,0,0,0,.46-.7l2.16.24a3.39,3.39,0,0,1-.78,1.49,3.71,3.71,0,0,1-1.46,1A5.57,5.57,0,0,1,572.9,202.89Z" />
                    <path
                        d="M490.73,214.6h2.91l3.88,9.49h.16l3.88-9.49h2.9v13.1h-2.27v-9h-.12l-3.62,9h-1.7l-3.62-9H493v9h-2.28Z" />
                    <path
                        d="M511.29,227.89a5.07,5.07,0,0,1-2.55-.62,4.08,4.08,0,0,1-1.64-1.75,5.79,5.79,0,0,1-.58-2.68,5.92,5.92,0,0,1,.58-2.66,4.46,4.46,0,0,1,1.62-1.79,4.57,4.57,0,0,1,2.45-.64,5.18,5.18,0,0,1,1.72.29,3.93,3.93,0,0,1,1.43.9,4.29,4.29,0,0,1,1,1.54,6.24,6.24,0,0,1,.36,2.23v.71h-8v-1.56h5.83a2.58,2.58,0,0,0-.29-1.19,2.19,2.19,0,0,0-.78-.82,2.26,2.26,0,0,0-1.17-.3,2.3,2.3,0,0,0-1.24.34,2.42,2.42,0,0,0-.84.9,2.49,2.49,0,0,0-.3,1.21v1.36a3.19,3.19,0,0,0,.31,1.47,2.14,2.14,0,0,0,.88.93,2.52,2.52,0,0,0,1.31.32,2.69,2.69,0,0,0,.92-.14,2.19,2.19,0,0,0,.71-.42,1.76,1.76,0,0,0,.45-.7l2.16.24a3.29,3.29,0,0,1-.78,1.49,3.64,3.64,0,0,1-1.46,1A5.57,5.57,0,0,1,511.29,227.89Z" />
                    <path
                        d="M522.52,217.88v1.79h-5.65v-1.79Zm-4.26-2.36h2.32v9.22a1.56,1.56,0,0,0,.14.72.8.8,0,0,0,.38.33,1.51,1.51,0,0,0,.53.09,2.5,2.5,0,0,0,.4,0l.27-.06.39,1.81a5,5,0,0,1-.52.14,4.69,4.69,0,0,1-.84.09,3.56,3.56,0,0,1-1.56-.27,2.35,2.35,0,0,1-1.11-.9,2.72,2.72,0,0,1-.4-1.53Z" />
                    <path
                        d="M527.28,227.89a4.13,4.13,0,0,1-1.68-.33,2.75,2.75,0,0,1-1.18-1,3,3,0,0,1-.43-1.62,2.7,2.7,0,0,1,.31-1.37,2.2,2.2,0,0,1,.84-.87,4.1,4.1,0,0,1,1.19-.5,10.34,10.34,0,0,1,1.39-.24l1.4-.17a1.9,1.9,0,0,0,.78-.23.53.53,0,0,0,.25-.49v0a1.45,1.45,0,0,0-.43-1.11,1.74,1.74,0,0,0-1.23-.4,2.19,2.19,0,0,0-1.35.37,1.88,1.88,0,0,0-.67.88l-2.16-.31a3.37,3.37,0,0,1,.85-1.5,3.85,3.85,0,0,1,1.43-.91,5.66,5.66,0,0,1,1.88-.3,5.55,5.55,0,0,1,1.41.17,4.1,4.1,0,0,1,1.29.54,2.92,2.92,0,0,1,.94,1,3.48,3.48,0,0,1,.35,1.63v6.58h-2.22v-1.35h-.08a3,3,0,0,1-.59.76,2.7,2.7,0,0,1-1,.57A3.93,3.93,0,0,1,527.28,227.89Zm.6-1.7a2.57,2.57,0,0,0,1.21-.27,2.17,2.17,0,0,0,.79-.74,2,2,0,0,0,.27-1V223a1,1,0,0,1-.36.16c-.18,0-.37.1-.58.14l-.63.1-.55.08a3.73,3.73,0,0,0-.93.23,1.5,1.5,0,0,0-.64.44,1.09,1.09,0,0,0-.24.73,1.11,1.11,0,0,0,.47,1A2.09,2.09,0,0,0,527.88,226.19Z" />
                    <path d="M537.11,214.6v13.1h-2.32V214.6Z" />
                    <path
                        d="M544.06,227.7V214.6H549a5.16,5.16,0,0,1,2.54.57,3.77,3.77,0,0,1,1.55,1.54,5,5,0,0,1,0,4.47,3.74,3.74,0,0,1-1.57,1.53,5.23,5.23,0,0,1-2.55.56h-3.25v-2h2.93a3.09,3.09,0,0,0,1.45-.3,2,2,0,0,0,.83-.85,2.71,2.71,0,0,0,.27-1.23,2.65,2.65,0,0,0-.27-1.23,1.93,1.93,0,0,0-.84-.83,3.19,3.19,0,0,0-1.45-.29h-2.17V227.7Z" />
                    <path
                        d="M555.54,227.7v-9.82h2.24v1.63h.1a2.46,2.46,0,0,1,2.42-1.77h.44a3.34,3.34,0,0,1,.4.05v2.13a2.44,2.44,0,0,0-.47-.09,4.3,4.3,0,0,0-.61-.05,2.34,2.34,0,0,0-1.13.28,2,2,0,0,0-.79.75,2.12,2.12,0,0,0-.29,1.1v5.78Z" />
                    <path
                        d="M563.84,216.48a1.34,1.34,0,0,1-1-.37,1.2,1.2,0,0,1,0-1.77,1.34,1.34,0,0,1,1-.37,1.36,1.36,0,0,1,.95.37,1.2,1.2,0,0,1,.39.89,1.18,1.18,0,0,1-.39.89A1.36,1.36,0,0,1,563.84,216.48Zm-1.16,11.22v-9.82H565v9.82Z" />
                    <path
                        d="M571.65,227.89a4.72,4.72,0,0,1-2.52-.65,4.29,4.29,0,0,1-1.62-1.78,6.45,6.45,0,0,1,0-5.28,4.41,4.41,0,0,1,1.63-1.79,4.66,4.66,0,0,1,2.49-.64,5,5,0,0,1,2.12.44,3.69,3.69,0,0,1,1.47,1.23,3.63,3.63,0,0,1,.63,1.86h-2.22a2.1,2.1,0,0,0-.63-1.19,1.86,1.86,0,0,0-1.34-.47,2.08,2.08,0,0,0-1.25.38,2.46,2.46,0,0,0-.83,1.09,4.34,4.34,0,0,0-.3,1.7,4.45,4.45,0,0,0,.3,1.72,2.41,2.41,0,0,0,.82,1.1,2.27,2.27,0,0,0,2.18.2,1.86,1.86,0,0,0,.68-.57,2.14,2.14,0,0,0,.37-.9h2.22a3.81,3.81,0,0,1-.62,1.84,3.53,3.53,0,0,1-1.44,1.26A4.83,4.83,0,0,1,571.65,227.89Z" />
                    <path
                        d="M582.11,227.89a5,5,0,0,1-2.55-.62,4.17,4.17,0,0,1-1.65-1.75,5.91,5.91,0,0,1-.57-2.68,5.79,5.79,0,0,1,.58-2.66,4.32,4.32,0,0,1,1.62-1.79,4.54,4.54,0,0,1,2.45-.64,5.12,5.12,0,0,1,1.71.29,3.77,3.77,0,0,1,1.43.9,4.18,4.18,0,0,1,1,1.54,6.48,6.48,0,0,1,.35,2.23v.71h-8v-1.56h5.82a2.46,2.46,0,0,0-.28-1.19,2.14,2.14,0,0,0-.79-.82,2.2,2.2,0,0,0-1.16-.3,2.34,2.34,0,0,0-1.25.34,2.39,2.39,0,0,0-.83.9,2.62,2.62,0,0,0-.31,1.21v1.36a3.19,3.19,0,0,0,.32,1.47,2.18,2.18,0,0,0,.87.93,2.94,2.94,0,0,0,2.23.18,2.09,2.09,0,0,0,.71-.42,1.9,1.9,0,0,0,.46-.7l2.16.24a3.39,3.39,0,0,1-.78,1.49,3.71,3.71,0,0,1-1.46,1A5.57,5.57,0,0,1,582.11,227.89Z" />
                    <g id="SvgjsG1065">
                        <path
                            d="M537,103.59c-9.7,0-17.54,8.81-17.51,19.62s7.9,19.55,17.6,19.52,17.54-8.81,17.51-19.62a20.74,20.74,0,0,0-5.15-13.8A16.73,16.73,0,0,0,537,103.59Zm8.32,28.87a11,11,0,0,1-16.69.1,14.24,14.24,0,0,1-.08-18.6,11,11,0,0,1,16.68-.1,14.21,14.21,0,0,1,.09,18.6Zm-29.61-41c-15.6,17.6-15.6,45.92,0,63.52a3.58,3.58,0,0,1-.07,4.66,2.8,2.8,0,0,1-2,.92,2.75,2.75,0,0,1-2.07-1c-17.88-20.17-17.88-52.61,0-72.78a2.73,2.73,0,0,1,4.15.09A3.56,3.56,0,0,1,515.71,91.45Zm46.73,68.15a2.75,2.75,0,0,1-2.07,1,3.15,3.15,0,0,1-2.91-3.34,3.49,3.49,0,0,1,.83-2.24c15.6-17.6,15.6-45.92,0-63.52a3.55,3.55,0,0,1,0-4.63,2.73,2.73,0,0,1,4.14,0C580.32,107,580.32,139.43,562.44,159.6Zm-64.12,6.73a3.58,3.58,0,0,1-.07,4.66,2.69,2.69,0,0,1-4.09,0c-23.45-25.18-23.45-70.3,0-95.48a2.71,2.71,0,0,1,4.14.08,3.53,3.53,0,0,1,0,4.53c-21.19,22.75-21.19,63.51,0,86.25ZM579.83,171a2.76,2.76,0,0,1-2.07,1,3.15,3.15,0,0,1-2.91-3.34,3.49,3.49,0,0,1,.83-2.24c21.19-22.74,21.19-63.5,0-86.25a3.54,3.54,0,0,1,.09-4.62,2.73,2.73,0,0,1,4.07,0c23.45,25.18,23.45,70.3,0,95.48ZM481,177.65a3.56,3.56,0,0,1-.07,4.66,2.68,2.68,0,0,1-4.08,0c-29.08-31.11-29.08-87,0-118.13a2.73,2.73,0,0,1,4.15.09,3.56,3.56,0,0,1,0,4.54C454.15,97.45,454.16,149,481,177.65Zm116.23,4.62a2.78,2.78,0,0,1-2.08,1,3.14,3.14,0,0,1-2.9-3.34,3.49,3.49,0,0,1,.83-2.24c26.81-28.68,26.8-80.21,0-108.88a3.55,3.55,0,0,1,.09-4.63,2.72,2.72,0,0,1,4.06,0C626.27,95.25,626.27,151.17,597.19,182.27Z"
                            style="fill:#fabb04" />
                    </g>
                </g>
                <g id="_01" data-name="01">
                    <path
                        d="M261.5,278.54a44.3,44.3,0,0,1-21.58-5.62l-86-48.08a44.27,44.27,0,0,1-22.66-38.62V92.54a44.27,44.27,0,0,1,22.66-38.62l86-48.08a44.24,44.24,0,0,1,43.16,0l86,48.08a44.27,44.27,0,0,1,22.66,38.62v93.68a44.27,44.27,0,0,1-22.66,38.62l-86,48.08A44.3,44.3,0,0,1,261.5,278.54Z"
                        style="fill:#fff" />
                    <path
                        d="M261.5.44A44.14,44.14,0,0,1,283,6l86,48.08a44.06,44.06,0,0,1,22.55,38.43v93.68A44.06,44.06,0,0,1,369,224.65l-86,48.08a44.06,44.06,0,0,1-43,0l-86-48.08a44.06,44.06,0,0,1-22.55-38.43V92.54A44.06,44.06,0,0,1,154,54.11L240,6A44.14,44.14,0,0,1,261.5.44m0-.44a44.38,44.38,0,0,0-21.69,5.65l-86,48.08A44.46,44.46,0,0,0,131,92.54v93.68A44.46,44.46,0,0,0,153.77,225l86,48.08a44.46,44.46,0,0,0,43.38,0l86-48.08A44.46,44.46,0,0,0,392,186.22V92.54a44.46,44.46,0,0,0-22.77-38.81l-86-48.08A44.41,44.41,0,0,0,261.5,0Z" />
                    <path
                        d="M196.19,210.55a1.74,1.74,0,0,0-.75-1.3,2.92,2.92,0,0,0-1.72-.47,3.24,3.24,0,0,0-1.27.22,1.89,1.89,0,0,0-.81.61,1.52,1.52,0,0,0-.29.88,1.28,1.28,0,0,0,.19.71,1.62,1.62,0,0,0,.51.5,3.29,3.29,0,0,0,.73.35,5.65,5.65,0,0,0,.8.24l1.22.31a8.52,8.52,0,0,1,1.43.46,5.65,5.65,0,0,1,1.24.74,3.18,3.18,0,0,1,1.18,2.57,3.48,3.48,0,0,1-.59,2,3.79,3.79,0,0,1-1.69,1.36,6.58,6.58,0,0,1-2.68.49,6.86,6.86,0,0,1-2.65-.47,4,4,0,0,1-1.76-1.38,4.16,4.16,0,0,1-.68-2.21h2.34a1.92,1.92,0,0,0,.42,1.13,2.19,2.19,0,0,0,1,.68,3.73,3.73,0,0,0,1.34.22A3.54,3.54,0,0,0,195,218a2.11,2.11,0,0,0,.92-.65,1.56,1.56,0,0,0,.34-1,1.23,1.23,0,0,0-.3-.85,2.33,2.33,0,0,0-.82-.56,8.42,8.42,0,0,0-1.23-.41l-1.49-.38a6.08,6.08,0,0,1-2.56-1.26,2.92,2.92,0,0,1-.93-2.26,3.35,3.35,0,0,1,.63-2,4.13,4.13,0,0,1,1.71-1.35,5.92,5.92,0,0,1,2.47-.49,5.69,5.69,0,0,1,2.44.49,4,4,0,0,1,1.65,1.33,3.41,3.41,0,0,1,.62,2Z" />
                    <path
                        d="M201.82,208.83a1.31,1.31,0,0,1-.94-.37,1.16,1.16,0,0,1-.4-.89,1.14,1.14,0,0,1,.4-.88,1.39,1.39,0,0,1,1.89,0,1.18,1.18,0,0,1,.39.89,1.16,1.16,0,0,1-.39.88A1.32,1.32,0,0,1,201.82,208.83ZM200.66,220v-9.82H203V220Z" />
                    <path
                        d="M209.62,223.93a6,6,0,0,1-2.14-.34,3.8,3.8,0,0,1-1.44-.89,3.19,3.19,0,0,1-.75-1.25l2.08-.51A2.09,2.09,0,0,0,208.5,222a3.19,3.19,0,0,0,1.16.19,2.67,2.67,0,0,0,1.63-.48,1.81,1.81,0,0,0,.64-1.56v-1.86h-.11a3.2,3.2,0,0,1-.52.73,2.8,2.8,0,0,1-.9.64,3.42,3.42,0,0,1-1.41.25,4,4,0,0,1-2-.53,3.73,3.73,0,0,1-1.46-1.6,5.88,5.88,0,0,1-.54-2.67,6.21,6.21,0,0,1,.54-2.73,4,4,0,0,1,1.46-1.7,3.81,3.81,0,0,1,2.05-.57,3,3,0,0,1,1.42.29,2.75,2.75,0,0,1,.89.69,3.78,3.78,0,0,1,.51.77H212v-1.63h2.28v10a3.47,3.47,0,0,1-.6,2.09,3.57,3.57,0,0,1-1.65,1.23A6.45,6.45,0,0,1,209.62,223.93Zm0-5.84a2.12,2.12,0,0,0,1.25-.36,2.18,2.18,0,0,0,.79-1,4.34,4.34,0,0,0,.27-1.61,4.53,4.53,0,0,0-.27-1.63,2.44,2.44,0,0,0-.78-1.08,2.28,2.28,0,0,0-2.55,0,2.36,2.36,0,0,0-.78,1.1,4.42,4.42,0,0,0-.26,1.59,4.2,4.2,0,0,0,.26,1.57,2.29,2.29,0,0,0,.79,1.05A2.13,2.13,0,0,0,209.64,218.09Z" />
                    <path
                        d="M218.92,214.29V220h-2.31v-9.82h2.21v1.67h.11a2.84,2.84,0,0,1,1.09-1.31,3.31,3.31,0,0,1,1.84-.48,3.46,3.46,0,0,1,1.77.43,2.94,2.94,0,0,1,1.18,1.26,4.25,4.25,0,0,1,.41,2V220h-2.31v-5.89a2.18,2.18,0,0,0-.51-1.54,1.82,1.82,0,0,0-1.4-.56,2.11,2.11,0,0,0-1.08.27,1.79,1.79,0,0,0-.73.76A2.52,2.52,0,0,0,218.92,214.29Z" />
                    <path d="M234.52,207V220h-2.37V207Z" />
                    <path
                        d="M239.31,214.29V220H237v-9.82h2.21v1.67h.11a2.84,2.84,0,0,1,1.09-1.31,3.31,3.31,0,0,1,1.84-.48,3.53,3.53,0,0,1,1.78.43,3,3,0,0,1,1.17,1.26,4.25,4.25,0,0,1,.41,2V220H243.3v-5.89a2.18,2.18,0,0,0-.51-1.54,1.82,1.82,0,0,0-1.4-.56,2.11,2.11,0,0,0-1.08.27,1.79,1.79,0,0,0-.73.76A2.52,2.52,0,0,0,239.31,214.29Z" />
                    <path d="M255.76,222l-4.22-15.67h2L257.78,222Z" />
                    <path
                        d="M270.94,210.55a1.74,1.74,0,0,0-.75-1.3,2.94,2.94,0,0,0-1.72-.47,3.24,3.24,0,0,0-1.27.22,1.83,1.83,0,0,0-.81.61,1.45,1.45,0,0,0-.29.88,1.28,1.28,0,0,0,.19.71,1.53,1.53,0,0,0,.51.5,3.29,3.29,0,0,0,.73.35,5.94,5.94,0,0,0,.79.24l1.23.31a8.83,8.83,0,0,1,1.43.46,5.36,5.36,0,0,1,1.23.74,3.24,3.24,0,0,1,.87,1.08,3.34,3.34,0,0,1,.32,1.49,3.55,3.55,0,0,1-.59,2,3.82,3.82,0,0,1-1.7,1.36,6.51,6.51,0,0,1-2.68.49,6.89,6.89,0,0,1-2.65-.47,3.81,3.81,0,0,1-2.43-3.59h2.33a2,2,0,0,0,.43,1.13,2.16,2.16,0,0,0,1,.68,3.81,3.81,0,0,0,1.34.22,3.56,3.56,0,0,0,1.36-.23,2.11,2.11,0,0,0,.92-.65,1.62,1.62,0,0,0,.34-1,1.33,1.33,0,0,0-.3-.85,2.33,2.33,0,0,0-.82-.56,9.31,9.31,0,0,0-1.23-.41l-1.49-.38a6.08,6.08,0,0,1-2.56-1.26,2.92,2.92,0,0,1-.93-2.26,3.35,3.35,0,0,1,.63-2,4.13,4.13,0,0,1,1.71-1.35,5.91,5.91,0,0,1,2.46-.49,5.7,5.7,0,0,1,2.45.49,4,4,0,0,1,1.65,1.33,3.41,3.41,0,0,1,.62,2Z" />
                    <path
                        d="M276.57,208.83a1.34,1.34,0,0,1-.95-.37,1.18,1.18,0,0,1-.39-.89,1.16,1.16,0,0,1,.39-.88,1.34,1.34,0,0,1,.95-.37,1.32,1.32,0,0,1,.95.37,1.18,1.18,0,0,1,.39.89,1.16,1.16,0,0,1-.39.88A1.32,1.32,0,0,1,276.57,208.83ZM275.41,220v-9.82h2.31V220Z" />
                    <path
                        d="M284.37,223.93a5.93,5.93,0,0,1-2.14-.34,3.8,3.8,0,0,1-1.44-.89,3.22,3.22,0,0,1-.76-1.25l2.09-.51a2.09,2.09,0,0,0,1.13,1.05,3.19,3.19,0,0,0,1.16.19,2.67,2.67,0,0,0,1.63-.48,1.81,1.81,0,0,0,.64-1.56v-1.86h-.11a3.27,3.27,0,0,1-.53.73,2.6,2.6,0,0,1-.9.64,3.37,3.37,0,0,1-1.4.25,4.07,4.07,0,0,1-2.05-.53,3.86,3.86,0,0,1-1.46-1.6,6,6,0,0,1-.53-2.67,6.36,6.36,0,0,1,.53-2.73,4.1,4.1,0,0,1,1.47-1.7,3.79,3.79,0,0,1,2.05-.57,3,3,0,0,1,1.42.29,2.75,2.75,0,0,1,.89.69,4.25,4.25,0,0,1,.51.77h.12v-1.63H289v10a3.47,3.47,0,0,1-.6,2.09,3.62,3.62,0,0,1-1.65,1.23A6.45,6.45,0,0,1,284.37,223.93Zm0-5.84a2.14,2.14,0,0,0,1.25-.36,2.25,2.25,0,0,0,.79-1,5.18,5.18,0,0,0,0-3.24,2.44,2.44,0,0,0-.78-1.08,2.28,2.28,0,0,0-2.55,0,2.36,2.36,0,0,0-.78,1.1,4.42,4.42,0,0,0-.27,1.59,4.2,4.2,0,0,0,.27,1.57,2.29,2.29,0,0,0,.79,1.05A2.11,2.11,0,0,0,284.39,218.09Z" />
                    <path
                        d="M293.67,214.29V220h-2.32v-9.82h2.22v1.67h.11a2.89,2.89,0,0,1,1.08-1.31,3.37,3.37,0,0,1,1.85-.48,3.46,3.46,0,0,1,1.77.43,2.94,2.94,0,0,1,1.18,1.26,4.38,4.38,0,0,1,.41,2V220h-2.31v-5.89a2.18,2.18,0,0,0-.51-1.54,1.82,1.82,0,0,0-1.4-.56,2.11,2.11,0,0,0-1.08.27,1.87,1.87,0,0,0-.74.76A2.64,2.64,0,0,0,293.67,214.29Z" />
                    <path
                        d="M315.15,207h2.37v8.55a4.62,4.62,0,0,1-.66,2.48,4.49,4.49,0,0,1-1.86,1.66,6.1,6.1,0,0,1-2.79.6,6.18,6.18,0,0,1-2.8-.6,4.46,4.46,0,0,1-1.85-1.66,4.62,4.62,0,0,1-.66-2.48V207h2.37v8.36a2.89,2.89,0,0,0,.36,1.45,2.52,2.52,0,0,0,1,1,3.56,3.56,0,0,0,3.12,0,2.52,2.52,0,0,0,1-1,2.89,2.89,0,0,0,.36-1.45Z" />
                    <path
                        d="M320,223.72v-13.5h2.28v1.63h.13a4.25,4.25,0,0,1,.51-.77,2.6,2.6,0,0,1,.88-.69,3,3,0,0,1,1.42-.29,3.79,3.79,0,0,1,2,.57,4,4,0,0,1,1.46,1.71,6.39,6.39,0,0,1,.54,2.77,6.47,6.47,0,0,1-.53,2.74,4,4,0,0,1-1.44,1.73,3.69,3.69,0,0,1-2.08.59,3,3,0,0,1-1.39-.28,2.74,2.74,0,0,1-.9-.68,4.87,4.87,0,0,1-.52-.75h-.09v5.22Zm2.27-8.59a4.72,4.72,0,0,0,.27,1.67,2.53,2.53,0,0,0,.79,1.12,2,2,0,0,0,1.25.4,2,2,0,0,0,1.28-.42,2.49,2.49,0,0,0,.79-1.13,4.87,4.87,0,0,0,.26-1.64,4.52,4.52,0,0,0-.26-1.62,2.39,2.39,0,0,0-.78-1.11,2,2,0,0,0-1.29-.4,2,2,0,0,0-1.26.38,2.36,2.36,0,0,0-.78,1.1A4.6,4.6,0,0,0,322.27,215.13Z" />
                    <polyline points="239.2 144.94 267.43 118.09 239.2 91.23"
                        style="fill:none;stroke:#fabb04;stroke-linecap:round;stroke-linejoin:round;stroke-width:7.867931842803955px" />
                    <line x1="192.13" y1="118.09" x2="267.41" y2="118.09"
                        style="fill:none;stroke:#fabb04;stroke-linecap:round;stroke-linejoin:round;stroke-width:7.867931842803955px" />
                    <path d="M267.43,61.81h37.64a5.25,5.25,0,0,1,5.38,5.12V169.24a5.25,5.25,0,0,1-5.38,5.12H267.43"
                        style="fill:none;stroke:#fabb04;stroke-linecap:round;stroke-linejoin:round;stroke-width:7.867931842803955px" />
                </g>
            </g>
        </g>
    </g>
</svg>