<?xml version="1.0" encoding="utf-8"?>
<!-- Generator: Adobe Illustrator 27.5.0, SVG Export Plug-In . SVG Version: 6.00 Build 0)  -->
<svg version="1.1" id="Layer_1" xmlns="http://www.w3.org/2000/svg" xmlns:xlink="http://www.w3.org/1999/xlink" x="0px" y="0px"
	 viewBox="0 0 1000 1000" style="enable-background:new 0 0 1000 1000;" xml:space="preserve">
<g>
	<defs>
		<rect id="SVGID_1_" width="1000" height="1000"/>
	</defs>
	<clipPath id="SVGID_00000121255832790868031870000009989954870027587211_">
		<use xlink:href="#SVGID_1_"  style="overflow:visible;"/>
	</clipPath>
	<g style="clip-path:url(#SVGID_00000121255832790868031870000009989954870027587211_);">
		<g id="all_4">
			<g transform="translate(50,50) scale(0.2) rotate(0)">
				<g id="shape_4_1">
					<path d="M40,50l8-2l2-8l2,8l8,2l-8,2l-2,8l-2-8L40,50z"/>
				</g>
			</g>
			<g transform="translate(50,150) scale(0.28) rotate(0)">
				<g id="shape_4_1_1_">
					<path d="M36,150l11.2-2.8L50,136l2.8,11.2L64,150l-11.2,2.8L50,164l-2.8-11.2L36,150z"/>
				</g>
			</g>
			<g transform="translate(50,250) scale(0.36) rotate(0)">
				<g id="shape_4_1_2_">
					<path d="M32,250l14.4-3.6L50,232l3.6,14.4L68,250l-14.4,3.6L50,268l-3.6-14.4L32,250z"/>
				</g>
			</g>
			<g transform="translate(50,350) scale(0.44) rotate(0)">
				<g id="shape_4_1_3_">
					<path d="M28,350l17.6-4.4L50,328l4.4,17.6L72,350l-17.6,4.4L50,372l-4.4-17.6L28,350z"/>
				</g>
			</g>
			<g transform="translate(50,450) scale(0.52) rotate(0)">
				<g id="shape_4_1_4_">
					<path d="M24,450l20.8-5.2L50,424l5.2,20.8L76,450l-20.8,5.2L50,476l-5.2-20.8L24,450z"/>
				</g>
			</g>
			<g transform="translate(50,550) scale(0.6) rotate(0)">
				<g id="shape_4_1_5_">
					<path d="M20,550l24-6l6-24l6,24l24,6l-24,6l-6,24l-6-24L20,550z"/>
				</g>
			</g>
			<g transform="translate(50,650) scale(0.68) rotate(0)">
				<g id="shape_4_1_6_">
					<path d="M16,650l27.2-6.8L50,616l6.8,27.2L84,650l-27.2,6.8L50,684l-6.8-27.2L16,650z"/>
				</g>
			</g>
			<g transform="translate(50,750) scale(0.76) rotate(0)">
				<g id="shape_4_1_7_">
					<path d="M12,750l30.4-7.6L50,712l7.6,30.4L88,750l-30.4,7.6L50,788l-7.6-30.4L12,750z"/>
				</g>
			</g>
			<g transform="translate(50,850) scale(0.84) rotate(0)">
				<g id="shape_4_1_8_">
					<path d="M8,850l33.6-8.4L50,808l8.4,33.6L92,850l-33.6,8.4L50,892l-8.4-33.6L8,850z"/>
				</g>
			</g>
			<g transform="translate(50,950) scale(0.92) rotate(0)">
				<g id="shape_4_1_9_">
					<path d="M4,950l36.8-9.2L50,904l9.2,36.8L96,950l-36.8,9.2L50,996l-9.2-36.8L4,950z"/>
				</g>
			</g>
			<g transform="translate(150,50) scale(0.2) rotate(0)">
				<g id="shape_4_1_10_">
					<path d="M140,50l8-2l2-8l2,8l8,2l-8,2l-2,8l-2-8L140,50z"/>
				</g>
			</g>
			<g transform="translate(150,150) scale(0.28) rotate(0)">
				<g id="shape_4_1_11_">
					<path d="M136,150l11.2-2.8L150,136l2.8,11.2L164,150l-11.2,2.8L150,164l-2.8-11.2L136,150z"/>
				</g>
			</g>
			<g transform="translate(150,250) scale(0.36) rotate(0)">
				<g id="shape_4_1_12_">
					<path d="M132,250l14.4-3.6L150,232l3.6,14.4L168,250l-14.4,3.6L150,268l-3.6-14.4L132,250z"/>
				</g>
			</g>
			<g transform="translate(150,350) scale(0.44) rotate(0)">
				<g id="shape_4_1_13_">
					<path d="M128,350l17.6-4.4L150,328l4.4,17.6L172,350l-17.6,4.4L150,372l-4.4-17.6L128,350z"/>
				</g>
			</g>
			<g transform="translate(150,450) scale(0.52) rotate(0)">
				<g id="shape_4_1_14_">
					<path d="M124,450l20.8-5.2L150,424l5.2,20.8L176,450l-20.8,5.2L150,476l-5.2-20.8L124,450z"/>
				</g>
			</g>
			<g transform="translate(150,550) scale(0.6) rotate(0)">
				<g id="shape_4_1_15_">
					<path d="M120,550l24-6l6-24l6,24l24,6l-24,6l-6,24l-6-24L120,550z"/>
				</g>
			</g>
			<g transform="translate(150,650) scale(0.68) rotate(0)">
				<g id="shape_4_1_16_">
					<path d="M116,650l27.2-6.8L150,616l6.8,27.2L184,650l-27.2,6.8L150,684l-6.8-27.2L116,650z"/>
				</g>
			</g>
			<g transform="translate(150,750) scale(0.76) rotate(0)">
				<g id="shape_4_1_17_">
					<path d="M112,750l30.4-7.6L150,712l7.6,30.4L188,750l-30.4,7.6L150,788l-7.6-30.4L112,750z"/>
				</g>
			</g>
			<g transform="translate(150,850) scale(0.84) rotate(0)">
				<g id="shape_4_1_18_">
					<path d="M108,850l33.6-8.4L150,808l8.4,33.6L192,850l-33.6,8.4L150,892l-8.4-33.6L108,850z"/>
				</g>
			</g>
			<g transform="translate(150,950) scale(0.92) rotate(0)">
				<g id="shape_4_1_19_">
					<path d="M104,950l36.8-9.2L150,904l9.2,36.8L196,950l-36.8,9.2L150,996l-9.2-36.8L104,950z"/>
				</g>
			</g>
			<g transform="translate(250,50) scale(0.2) rotate(0)">
				<g id="shape_4_1_20_">
					<path d="M240,50l8-2l2-8l2,8l8,2l-8,2l-2,8l-2-8L240,50z"/>
				</g>
			</g>
			<g transform="translate(250,150) scale(0.28) rotate(0)">
				<g id="shape_4_1_21_">
					<path d="M236,150l11.2-2.8L250,136l2.8,11.2L264,150l-11.2,2.8L250,164l-2.8-11.2L236,150z"/>
				</g>
			</g>
			<g transform="translate(250,250) scale(0.36) rotate(0)">
				<g id="shape_4_1_22_">
					<path d="M232,250l14.4-3.6L250,232l3.6,14.4L268,250l-14.4,3.6L250,268l-3.6-14.4L232,250z"/>
				</g>
			</g>
			<g transform="translate(250,350) scale(0.44) rotate(0)">
				<g id="shape_4_1_23_">
					<path d="M228,350l17.6-4.4L250,328l4.4,17.6L272,350l-17.6,4.4L250,372l-4.4-17.6L228,350z"/>
				</g>
			</g>
			<g transform="translate(250,450) scale(0.52) rotate(0)">
				<g id="shape_4_1_24_">
					<path d="M224,450l20.8-5.2L250,424l5.2,20.8L276,450l-20.8,5.2L250,476l-5.2-20.8L224,450z"/>
				</g>
			</g>
			<g transform="translate(250,550) scale(0.6) rotate(0)">
				<g id="shape_4_1_25_">
					<path d="M220,550l24-6l6-24l6,24l24,6l-24,6l-6,24l-6-24L220,550z"/>
				</g>
			</g>
			<g transform="translate(250,650) scale(0.68) rotate(0)">
				<g id="shape_4_1_26_">
					<path d="M216,650l27.2-6.8L250,616l6.8,27.2L284,650l-27.2,6.8L250,684l-6.8-27.2L216,650z"/>
				</g>
			</g>
			<g transform="translate(250,750) scale(0.76) rotate(0)">
				<g id="shape_4_1_27_">
					<path d="M212,750l30.4-7.6L250,712l7.6,30.4L288,750l-30.4,7.6L250,788l-7.6-30.4L212,750z"/>
				</g>
			</g>
			<g transform="translate(250,850) scale(0.84) rotate(0)">
				<g id="shape_4_1_28_">
					<path d="M208,850l33.6-8.4L250,808l8.4,33.6L292,850l-33.6,8.4L250,892l-8.4-33.6L208,850z"/>
				</g>
			</g>
			<g transform="translate(250,950) scale(0.92) rotate(0)">
				<g id="shape_4_1_29_">
					<path d="M204,950l36.8-9.2L250,904l9.2,36.8L296,950l-36.8,9.2L250,996l-9.2-36.8L204,950z"/>
				</g>
			</g>
			<g transform="translate(350,50) scale(0.2) rotate(0)">
				<g id="shape_4_1_30_">
					<path d="M340,50l8-2l2-8l2,8l8,2l-8,2l-2,8l-2-8L340,50z"/>
				</g>
			</g>
			<g transform="translate(350,150) scale(0.28) rotate(0)">
				<g id="shape_4_1_31_">
					<path d="M336,150l11.2-2.8L350,136l2.8,11.2L364,150l-11.2,2.8L350,164l-2.8-11.2L336,150z"/>
				</g>
			</g>
			<g transform="translate(350,250) scale(0.36) rotate(0)">
				<g id="shape_4_1_32_">
					<path d="M332,250l14.4-3.6L350,232l3.6,14.4L368,250l-14.4,3.6L350,268l-3.6-14.4L332,250z"/>
				</g>
			</g>
			<g transform="translate(350,350) scale(0.44) rotate(0)">
				<g id="shape_4_1_33_">
					<path d="M328,350l17.6-4.4L350,328l4.4,17.6L372,350l-17.6,4.4L350,372l-4.4-17.6L328,350z"/>
				</g>
			</g>
			<g transform="translate(350,450) scale(0.52) rotate(0)">
				<g id="shape_4_1_34_">
					<path d="M324,450l20.8-5.2L350,424l5.2,20.8L376,450l-20.8,5.2L350,476l-5.2-20.8L324,450z"/>
				</g>
			</g>
			<g transform="translate(350,550) scale(0.6) rotate(0)">
				<g id="shape_4_1_35_">
					<path d="M320,550l24-6l6-24l6,24l24,6l-24,6l-6,24l-6-24L320,550z"/>
				</g>
			</g>
			<g transform="translate(350,650) scale(0.68) rotate(0)">
				<g id="shape_4_1_36_">
					<path d="M316,650l27.2-6.8L350,616l6.8,27.2L384,650l-27.2,6.8L350,684l-6.8-27.2L316,650z"/>
				</g>
			</g>
			<g transform="translate(350,750) scale(0.76) rotate(0)">
				<g id="shape_4_1_37_">
					<path d="M312,750l30.4-7.6L350,712l7.6,30.4L388,750l-30.4,7.6L350,788l-7.6-30.4L312,750z"/>
				</g>
			</g>
			<g transform="translate(350,850) scale(0.84) rotate(0)">
				<g id="shape_4_1_38_">
					<path d="M308,850l33.6-8.4L350,808l8.4,33.6L392,850l-33.6,8.4L350,892l-8.4-33.6L308,850z"/>
				</g>
			</g>
			<g transform="translate(350,950) scale(0.92) rotate(0)">
				<g id="shape_4_1_39_">
					<path d="M304,950l36.8-9.2L350,904l9.2,36.8L396,950l-36.8,9.2L350,996l-9.2-36.8L304,950z"/>
				</g>
			</g>
			<g transform="translate(450,50) scale(0.2) rotate(0)">
				<g id="shape_4_1_40_">
					<path d="M440,50l8-2l2-8l2,8l8,2l-8,2l-2,8l-2-8L440,50z"/>
				</g>
			</g>
			<g transform="translate(450,150) scale(0.28) rotate(0)">
				<g id="shape_4_1_41_">
					<path d="M436,150l11.2-2.8L450,136l2.8,11.2L464,150l-11.2,2.8L450,164l-2.8-11.2L436,150z"/>
				</g>
			</g>
			<g transform="translate(450,250) scale(0.36) rotate(0)">
				<g id="shape_4_1_42_">
					<path d="M432,250l14.4-3.6L450,232l3.6,14.4L468,250l-14.4,3.6L450,268l-3.6-14.4L432,250z"/>
				</g>
			</g>
			<g transform="translate(450,350) scale(0.44) rotate(0)">
				<g id="shape_4_1_43_">
					<path d="M428,350l17.6-4.4L450,328l4.4,17.6L472,350l-17.6,4.4L450,372l-4.4-17.6L428,350z"/>
				</g>
			</g>
			<g transform="translate(450,450) scale(0.52) rotate(0)">
				<g id="shape_4_1_44_">
					<path d="M424,450l20.8-5.2L450,424l5.2,20.8L476,450l-20.8,5.2L450,476l-5.2-20.8L424,450z"/>
				</g>
			</g>
			<g transform="translate(450,550) scale(0.6) rotate(0)">
				<g id="shape_4_1_45_">
					<path d="M420,550l24-6l6-24l6,24l24,6l-24,6l-6,24l-6-24L420,550z"/>
				</g>
			</g>
			<g transform="translate(450,650) scale(0.68) rotate(0)">
				<g id="shape_4_1_46_">
					<path d="M416,650l27.2-6.8L450,616l6.8,27.2L484,650l-27.2,6.8L450,684l-6.8-27.2L416,650z"/>
				</g>
			</g>
			<g transform="translate(450,750) scale(0.76) rotate(0)">
				<g id="shape_4_1_47_">
					<path d="M412,750l30.4-7.6L450,712l7.6,30.4L488,750l-30.4,7.6L450,788l-7.6-30.4L412,750z"/>
				</g>
			</g>
			<g transform="translate(450,850) scale(0.84) rotate(0)">
				<g id="shape_4_1_48_">
					<path d="M408,850l33.6-8.4L450,808l8.4,33.6L492,850l-33.6,8.4L450,892l-8.4-33.6L408,850z"/>
				</g>
			</g>
			<g transform="translate(450,950) scale(0.92) rotate(0)">
				<g id="shape_4_1_49_">
					<path d="M404,950l36.8-9.2L450,904l9.2,36.8L496,950l-36.8,9.2L450,996l-9.2-36.8L404,950z"/>
				</g>
			</g>
			<g transform="translate(550,50) scale(0.2) rotate(0)">
				<g id="shape_4_1_50_">
					<path d="M540,50l8-2l2-8l2,8l8,2l-8,2l-2,8l-2-8L540,50z"/>
				</g>
			</g>
			<g transform="translate(550,150) scale(0.28) rotate(0)">
				<g id="shape_4_1_51_">
					<path d="M536,150l11.2-2.8L550,136l2.8,11.2L564,150l-11.2,2.8L550,164l-2.8-11.2L536,150z"/>
				</g>
			</g>
			<g transform="translate(550,250) scale(0.36) rotate(0)">
				<g id="shape_4_1_52_">
					<path d="M532,250l14.4-3.6L550,232l3.6,14.4L568,250l-14.4,3.6L550,268l-3.6-14.4L532,250z"/>
				</g>
			</g>
			<g transform="translate(550,350) scale(0.44) rotate(0)">
				<g id="shape_4_1_53_">
					<path d="M528,350l17.6-4.4L550,328l4.4,17.6L572,350l-17.6,4.4L550,372l-4.4-17.6L528,350z"/>
				</g>
			</g>
			<g transform="translate(550,450) scale(0.52) rotate(0)">
				<g id="shape_4_1_54_">
					<path d="M524,450l20.8-5.2L550,424l5.2,20.8L576,450l-20.8,5.2L550,476l-5.2-20.8L524,450z"/>
				</g>
			</g>
			<g transform="translate(550,550) scale(0.6) rotate(0)">
				<g id="shape_4_1_55_">
					<path d="M520,550l24-6l6-24l6,24l24,6l-24,6l-6,24l-6-24L520,550z"/>
				</g>
			</g>
			<g transform="translate(550,650) scale(0.68) rotate(0)">
				<g id="shape_4_1_56_">
					<path d="M516,650l27.2-6.8L550,616l6.8,27.2L584,650l-27.2,6.8L550,684l-6.8-27.2L516,650z"/>
				</g>
			</g>
			<g transform="translate(550,750) scale(0.76) rotate(0)">
				<g id="shape_4_1_57_">
					<path d="M512,750l30.4-7.6L550,712l7.6,30.4L588,750l-30.4,7.6L550,788l-7.6-30.4L512,750z"/>
				</g>
			</g>
			<g transform="translate(550,850) scale(0.84) rotate(0)">
				<g id="shape_4_1_58_">
					<path d="M508,850l33.6-8.4L550,808l8.4,33.6L592,850l-33.6,8.4L550,892l-8.4-33.6L508,850z"/>
				</g>
			</g>
			<g transform="translate(550,950) scale(0.92) rotate(0)">
				<g id="shape_4_1_59_">
					<path d="M504,950l36.8-9.2L550,904l9.2,36.8L596,950l-36.8,9.2L550,996l-9.2-36.8L504,950z"/>
				</g>
			</g>
			<g transform="translate(650,50) scale(0.2) rotate(0)">
				<g id="shape_4_1_60_">
					<path d="M640,50l8-2l2-8l2,8l8,2l-8,2l-2,8l-2-8L640,50z"/>
				</g>
			</g>
			<g transform="translate(650,150) scale(0.28) rotate(0)">
				<g id="shape_4_1_61_">
					<path d="M636,150l11.2-2.8L650,136l2.8,11.2L664,150l-11.2,2.8L650,164l-2.8-11.2L636,150z"/>
				</g>
			</g>
			<g transform="translate(650,250) scale(0.36) rotate(0)">
				<g id="shape_4_1_62_">
					<path d="M632,250l14.4-3.6L650,232l3.6,14.4L668,250l-14.4,3.6L650,268l-3.6-14.4L632,250z"/>
				</g>
			</g>
			<g transform="translate(650,350) scale(0.44) rotate(0)">
				<g id="shape_4_1_63_">
					<path d="M628,350l17.6-4.4L650,328l4.4,17.6L672,350l-17.6,4.4L650,372l-4.4-17.6L628,350z"/>
				</g>
			</g>
			<g transform="translate(650,450) scale(0.52) rotate(0)">
				<g id="shape_4_1_64_">
					<path d="M624,450l20.8-5.2L650,424l5.2,20.8L676,450l-20.8,5.2L650,476l-5.2-20.8L624,450z"/>
				</g>
			</g>
			<g transform="translate(650,550) scale(0.6) rotate(0)">
				<g id="shape_4_1_65_">
					<path d="M620,550l24-6l6-24l6,24l24,6l-24,6l-6,24l-6-24L620,550z"/>
				</g>
			</g>
			<g transform="translate(650,650) scale(0.68) rotate(0)">
				<g id="shape_4_1_66_">
					<path d="M616,650l27.2-6.8L650,616l6.8,27.2L684,650l-27.2,6.8L650,684l-6.8-27.2L616,650z"/>
				</g>
			</g>
			<g transform="translate(650,750) scale(0.76) rotate(0)">
				<g id="shape_4_1_67_">
					<path d="M612,750l30.4-7.6L650,712l7.6,30.4L688,750l-30.4,7.6L650,788l-7.6-30.4L612,750z"/>
				</g>
			</g>
			<g transform="translate(650,850) scale(0.84) rotate(0)">
				<g id="shape_4_1_68_">
					<path d="M608,850l33.6-8.4L650,808l8.4,33.6L692,850l-33.6,8.4L650,892l-8.4-33.6L608,850z"/>
				</g>
			</g>
			<g transform="translate(650,950) scale(0.92) rotate(0)">
				<g id="shape_4_1_69_">
					<path d="M604,950l36.8-9.2L650,904l9.2,36.8L696,950l-36.8,9.2L650,996l-9.2-36.8L604,950z"/>
				</g>
			</g>
			<g transform="translate(750,50) scale(0.2) rotate(0)">
				<g id="shape_4_1_70_">
					<path d="M740,50l8-2l2-8l2,8l8,2l-8,2l-2,8l-2-8L740,50z"/>
				</g>
			</g>
			<g transform="translate(750,150) scale(0.28) rotate(0)">
				<g id="shape_4_1_71_">
					<path d="M736,150l11.2-2.8L750,136l2.8,11.2L764,150l-11.2,2.8L750,164l-2.8-11.2L736,150z"/>
				</g>
			</g>
			<g transform="translate(750,250) scale(0.36) rotate(0)">
				<g id="shape_4_1_72_">
					<path d="M732,250l14.4-3.6L750,232l3.6,14.4L768,250l-14.4,3.6L750,268l-3.6-14.4L732,250z"/>
				</g>
			</g>
			<g transform="translate(750,350) scale(0.44) rotate(0)">
				<g id="shape_4_1_73_">
					<path d="M728,350l17.6-4.4L750,328l4.4,17.6L772,350l-17.6,4.4L750,372l-4.4-17.6L728,350z"/>
				</g>
			</g>
			<g transform="translate(750,450) scale(0.52) rotate(0)">
				<g id="shape_4_1_74_">
					<path d="M724,450l20.8-5.2L750,424l5.2,20.8L776,450l-20.8,5.2L750,476l-5.2-20.8L724,450z"/>
				</g>
			</g>
			<g transform="translate(750,550) scale(0.6) rotate(0)">
				<g id="shape_4_1_75_">
					<path d="M720,550l24-6l6-24l6,24l24,6l-24,6l-6,24l-6-24L720,550z"/>
				</g>
			</g>
			<g transform="translate(750,650) scale(0.68) rotate(0)">
				<g id="shape_4_1_76_">
					<path d="M716,650l27.2-6.8L750,616l6.8,27.2L784,650l-27.2,6.8L750,684l-6.8-27.2L716,650z"/>
				</g>
			</g>
			<g transform="translate(750,750) scale(0.76) rotate(0)">
				<g id="shape_4_1_77_">
					<path d="M712,750l30.4-7.6L750,712l7.6,30.4L788,750l-30.4,7.6L750,788l-7.6-30.4L712,750z"/>
				</g>
			</g>
			<g transform="translate(750,850) scale(0.84) rotate(0)">
				<g id="shape_4_1_78_">
					<path d="M708,850l33.6-8.4L750,808l8.4,33.6L792,850l-33.6,8.4L750,892l-8.4-33.6L708,850z"/>
				</g>
			</g>
			<g transform="translate(750,950) scale(0.92) rotate(0)">
				<g id="shape_4_1_79_">
					<path d="M704,950l36.8-9.2L750,904l9.2,36.8L796,950l-36.8,9.2L750,996l-9.2-36.8L704,950z"/>
				</g>
			</g>
			<g transform="translate(850,50) scale(0.2) rotate(0)">
				<g id="shape_4_1_80_">
					<path d="M840,50l8-2l2-8l2,8l8,2l-8,2l-2,8l-2-8L840,50z"/>
				</g>
			</g>
			<g transform="translate(850,150) scale(0.28) rotate(0)">
				<g id="shape_4_1_81_">
					<path d="M836,150l11.2-2.8L850,136l2.8,11.2L864,150l-11.2,2.8L850,164l-2.8-11.2L836,150z"/>
				</g>
			</g>
			<g transform="translate(850,250) scale(0.36) rotate(0)">
				<g id="shape_4_1_82_">
					<path d="M832,250l14.4-3.6L850,232l3.6,14.4L868,250l-14.4,3.6L850,268l-3.6-14.4L832,250z"/>
				</g>
			</g>
			<g transform="translate(850,350) scale(0.44) rotate(0)">
				<g id="shape_4_1_83_">
					<path d="M828,350l17.6-4.4L850,328l4.4,17.6L872,350l-17.6,4.4L850,372l-4.4-17.6L828,350z"/>
				</g>
			</g>
			<g transform="translate(850,450) scale(0.52) rotate(0)">
				<g id="shape_4_1_84_">
					<path d="M824,450l20.8-5.2L850,424l5.2,20.8L876,450l-20.8,5.2L850,476l-5.2-20.8L824,450z"/>
				</g>
			</g>
			<g transform="translate(850,550) scale(0.6) rotate(0)">
				<g id="shape_4_1_85_">
					<path d="M820,550l24-6l6-24l6,24l24,6l-24,6l-6,24l-6-24L820,550z"/>
				</g>
			</g>
			<g transform="translate(850,650) scale(0.68) rotate(0)">
				<g id="shape_4_1_86_">
					<path d="M816,650l27.2-6.8L850,616l6.8,27.2L884,650l-27.2,6.8L850,684l-6.8-27.2L816,650z"/>
				</g>
			</g>
			<g transform="translate(850,750) scale(0.76) rotate(0)">
				<g id="shape_4_1_87_">
					<path d="M812,750l30.4-7.6L850,712l7.6,30.4L888,750l-30.4,7.6L850,788l-7.6-30.4L812,750z"/>
				</g>
			</g>
			<g transform="translate(850,850) scale(0.84) rotate(0)">
				<g id="shape_4_1_88_">
					<path d="M808,850l33.6-8.4L850,808l8.4,33.6L892,850l-33.6,8.4L850,892l-8.4-33.6L808,850z"/>
				</g>
			</g>
			<g transform="translate(850,950) scale(0.92) rotate(0)">
				<g id="shape_4_1_89_">
					<path d="M804,950l36.8-9.2L850,904l9.2,36.8L896,950l-36.8,9.2L850,996l-9.2-36.8L804,950z"/>
				</g>
			</g>
			<g transform="translate(950,50) scale(0.2) rotate(0)">
				<g id="shape_4_1_90_">
					<path d="M940,50l8-2l2-8l2,8l8,2l-8,2l-2,8l-2-8L940,50z"/>
				</g>
			</g>
			<g transform="translate(950,150) scale(0.28) rotate(0)">
				<g id="shape_4_1_91_">
					<path d="M936,150l11.2-2.8L950,136l2.8,11.2L964,150l-11.2,2.8L950,164l-2.8-11.2L936,150z"/>
				</g>
			</g>
			<g transform="translate(950,250) scale(0.36) rotate(0)">
				<g id="shape_4_1_92_">
					<path d="M932,250l14.4-3.6L950,232l3.6,14.4L968,250l-14.4,3.6L950,268l-3.6-14.4L932,250z"/>
				</g>
			</g>
			<g transform="translate(950,350) scale(0.44) rotate(0)">
				<g id="shape_4_1_93_">
					<path d="M928,350l17.6-4.4L950,328l4.4,17.6L972,350l-17.6,4.4L950,372l-4.4-17.6L928,350z"/>
				</g>
			</g>
			<g transform="translate(950,450) scale(0.52) rotate(0)">
				<g id="shape_4_1_94_">
					<path d="M924,450l20.8-5.2L950,424l5.2,20.8L976,450l-20.8,5.2L950,476l-5.2-20.8L924,450z"/>
				</g>
			</g>
			<g transform="translate(950,550) scale(0.6) rotate(0)">
				<g id="shape_4_1_95_">
					<path d="M920,550l24-6l6-24l6,24l24,6l-24,6l-6,24l-6-24L920,550z"/>
				</g>
			</g>
			<g transform="translate(950,650) scale(0.68) rotate(0)">
				<g id="shape_4_1_96_">
					<path d="M916,650l27.2-6.8L950,616l6.8,27.2L984,650l-27.2,6.8L950,684l-6.8-27.2L916,650z"/>
				</g>
			</g>
			<g transform="translate(950,750) scale(0.76) rotate(0)">
				<g id="shape_4_1_97_">
					<path d="M912,750l30.4-7.6L950,712l7.6,30.4L988,750l-30.4,7.6L950,788l-7.6-30.4L912,750z"/>
				</g>
			</g>
			<g transform="translate(950,850) scale(0.84) rotate(0)">
				<g id="shape_4_1_98_">
					<path d="M908,850l33.6-8.4L950,808l8.4,33.6L992,850l-33.6,8.4L950,892l-8.4-33.6L908,850z"/>
				</g>
			</g>
			<g transform="translate(950,950) scale(0.92) rotate(0)">
				<g id="shape_4_1_99_">
					<path d="M904,950l36.8-9.2L950,904l9.2,36.8L996,950l-36.8,9.2L950,996l-9.2-36.8L904,950z"/>
				</g>
			</g>
			<g transform="translate(0,0) scale(0.16) rotate(0)">
				<g id="shape_other_4_1">
					<path d="M-8,0l6.4-1.6L0-8l1.6,6.4L8,0L1.6,1.6L0,8l-1.6-6.4L-8,0z"/>
				</g>
			</g>
			<g transform="translate(0,100) scale(0.24) rotate(0)">
				<g id="shape_other_4_1_1_">
					<path d="M-12,100l9.6-2.4L0,88l2.4,9.6L12,100l-9.6,2.4L0,112l-2.4-9.6L-12,100z"/>
				</g>
			</g>
			<g transform="translate(0,200) scale(0.32) rotate(0)">
				<g id="shape_other_4_1_2_">
					<path d="M-16,200l12.8-3.2L0,184l3.2,12.8L16,200l-12.8,3.2L0,216l-3.2-12.8L-16,200z"/>
				</g>
			</g>
			<g transform="translate(0,300) scale(0.4) rotate(0)">
				<g id="shape_other_4_1_3_">
					<path d="M-20,300l16-4l4-16l4,16l16,4l-16,4l-4,16l-4-16L-20,300z"/>
				</g>
			</g>
			<g transform="translate(0,400) scale(0.48) rotate(0)">
				<g id="shape_other_4_1_4_">
					<path d="M-24,400l19.2-4.8L0,376l4.8,19.2L24,400l-19.2,4.8L0,424l-4.8-19.2L-24,400z"/>
				</g>
			</g>
			<g transform="translate(0,500) scale(0.56) rotate(0)">
				<g id="shape_other_4_1_5_">
					<path d="M-28,500l22.4-5.6L0,472l5.6,22.4L28,500l-22.4,5.6L0,528l-5.6-22.4L-28,500z"/>
				</g>
			</g>
			<g transform="translate(0,600) scale(0.64) rotate(0)">
				<g id="shape_other_4_1_6_">
					<path d="M-32,600l25.6-6.4L0,568l6.4,25.6L32,600l-25.6,6.4L0,632l-6.4-25.6L-32,600z"/>
				</g>
			</g>
			<g transform="translate(0,700) scale(0.72) rotate(0)">
				<g id="shape_other_4_1_7_">
					<path d="M-36,700l28.8-7.2L0,664l7.2,28.8L36,700l-28.8,7.2L0,736l-7.2-28.8L-36,700z"/>
				</g>
			</g>
			<g transform="translate(0,800) scale(0.8) rotate(0)">
				<g id="shape_other_4_1_8_">
					<path d="M-40,800l32-8l8-32l8,32l32,8l-32,8l-8,32l-8-32L-40,800z"/>
				</g>
			</g>
			<g transform="translate(0,900) scale(0.88) rotate(0)">
				<g id="shape_other_4_1_9_">
					<path d="M-44,900l35.2-8.8L0,856l8.8,35.2L44,900l-35.2,8.8L0,944l-8.8-35.2L-44,900z"/>
				</g>
			</g>
			<g transform="translate(0,1000) scale(0.96) rotate(0)">
				<g id="shape_other_4_1_10_">
					<path d="M-48,1000l38.4-9.6L0,952l9.6,38.4L48,1000l-38.4,9.6L0,1048l-9.6-38.4L-48,1000z"/>
				</g>
			</g>
			<g transform="translate(100,0) scale(0.16) rotate(0)">
				<g id="shape_other_4_1_11_">
					<path d="M92,0l6.4-1.6L100-8l1.6,6.4L108,0l-6.4,1.6L100,8l-1.6-6.4L92,0z"/>
				</g>
			</g>
			<g transform="translate(100,100) scale(0.24) rotate(0)">
				<g id="shape_other_4_1_12_">
					<path d="M88,100l9.6-2.4L100,88l2.4,9.6l9.6,2.4l-9.6,2.4L100,112l-2.4-9.6L88,100z"/>
				</g>
			</g>
			<g transform="translate(100,200) scale(0.32) rotate(0)">
				<g id="shape_other_4_1_13_">
					<path d="M84,200l12.8-3.2L100,184l3.2,12.8L116,200l-12.8,3.2L100,216l-3.2-12.8L84,200z"/>
				</g>
			</g>
			<g transform="translate(100,300) scale(0.4) rotate(0)">
				<g id="shape_other_4_1_14_">
					<path d="M80,300l16-4l4-16l4,16l16,4l-16,4l-4,16l-4-16L80,300z"/>
				</g>
			</g>
			<g transform="translate(100,400) scale(0.48) rotate(0)">
				<g id="shape_other_4_1_15_">
					<path d="M76,400l19.2-4.8L100,376l4.8,19.2L124,400l-19.2,4.8L100,424l-4.8-19.2L76,400z"/>
				</g>
			</g>
			<g transform="translate(100,500) scale(0.56) rotate(0)">
				<g id="shape_other_4_1_16_">
					<path d="M72,500l22.4-5.6L100,472l5.6,22.4L128,500l-22.4,5.6L100,528l-5.6-22.4L72,500z"/>
				</g>
			</g>
			<g transform="translate(100,600) scale(0.64) rotate(0)">
				<g id="shape_other_4_1_17_">
					<path d="M68,600l25.6-6.4L100,568l6.4,25.6L132,600l-25.6,6.4L100,632l-6.4-25.6L68,600z"/>
				</g>
			</g>
			<g transform="translate(100,700) scale(0.72) rotate(0)">
				<g id="shape_other_4_1_18_">
					<path d="M64,700l28.8-7.2L100,664l7.2,28.8L136,700l-28.8,7.2L100,736l-7.2-28.8L64,700z"/>
				</g>
			</g>
			<g transform="translate(100,800) scale(0.8) rotate(0)">
				<g id="shape_other_4_1_19_">
					<path d="M60,800l32-8l8-32l8,32l32,8l-32,8l-8,32l-8-32L60,800z"/>
				</g>
			</g>
			<g transform="translate(100,900) scale(0.88) rotate(0)">
				<g id="shape_other_4_1_20_">
					<path d="M56,900l35.2-8.8L100,856l8.8,35.2L144,900l-35.2,8.8L100,944l-8.8-35.2L56,900z"/>
				</g>
			</g>
			<g transform="translate(100,1000) scale(0.96) rotate(0)">
				<g id="shape_other_4_1_21_">
					<path d="M52,1000l38.4-9.6L100,952l9.6,38.4l38.4,9.6l-38.4,9.6L100,1048l-9.6-38.4L52,1000z"/>
				</g>
			</g>
			<g transform="translate(200,0) scale(0.16) rotate(0)">
				<g id="shape_other_4_1_22_">
					<path d="M192,0l6.4-1.6L200-8l1.6,6.4L208,0l-6.4,1.6L200,8l-1.6-6.4L192,0z"/>
				</g>
			</g>
			<g transform="translate(200,100) scale(0.24) rotate(0)">
				<g id="shape_other_4_1_23_">
					<path d="M188,100l9.6-2.4L200,88l2.4,9.6l9.6,2.4l-9.6,2.4L200,112l-2.4-9.6L188,100z"/>
				</g>
			</g>
			<g transform="translate(200,200) scale(0.32) rotate(0)">
				<g id="shape_other_4_1_24_">
					<path d="M184,200l12.8-3.2L200,184l3.2,12.8L216,200l-12.8,3.2L200,216l-3.2-12.8L184,200z"/>
				</g>
			</g>
			<g transform="translate(200,300) scale(0.4) rotate(0)">
				<g id="shape_other_4_1_25_">
					<path d="M180,300l16-4l4-16l4,16l16,4l-16,4l-4,16l-4-16L180,300z"/>
				</g>
			</g>
			<g transform="translate(200,400) scale(0.48) rotate(0)">
				<g id="shape_other_4_1_26_">
					<path d="M176,400l19.2-4.8L200,376l4.8,19.2L224,400l-19.2,4.8L200,424l-4.8-19.2L176,400z"/>
				</g>
			</g>
			<g transform="translate(200,500) scale(0.56) rotate(0)">
				<g id="shape_other_4_1_27_">
					<path d="M172,500l22.4-5.6L200,472l5.6,22.4L228,500l-22.4,5.6L200,528l-5.6-22.4L172,500z"/>
				</g>
			</g>
			<g transform="translate(200,600) scale(0.64) rotate(0)">
				<g id="shape_other_4_1_28_">
					<path d="M168,600l25.6-6.4L200,568l6.4,25.6L232,600l-25.6,6.4L200,632l-6.4-25.6L168,600z"/>
				</g>
			</g>
			<g transform="translate(200,700) scale(0.72) rotate(0)">
				<g id="shape_other_4_1_29_">
					<path d="M164,700l28.8-7.2L200,664l7.2,28.8L236,700l-28.8,7.2L200,736l-7.2-28.8L164,700z"/>
				</g>
			</g>
			<g transform="translate(200,800) scale(0.8) rotate(0)">
				<g id="shape_other_4_1_30_">
					<path d="M160,800l32-8l8-32l8,32l32,8l-32,8l-8,32l-8-32L160,800z"/>
				</g>
			</g>
			<g transform="translate(200,900) scale(0.88) rotate(0)">
				<g id="shape_other_4_1_31_">
					<path d="M156,900l35.2-8.8L200,856l8.8,35.2L244,900l-35.2,8.8L200,944l-8.8-35.2L156,900z"/>
				</g>
			</g>
			<g transform="translate(200,1000) scale(0.96) rotate(0)">
				<g id="shape_other_4_1_32_">
					<path d="M152,1000l38.4-9.6L200,952l9.6,38.4l38.4,9.6l-38.4,9.6L200,1048l-9.6-38.4L152,1000z"/>
				</g>
			</g>
			<g transform="translate(300,0) scale(0.16) rotate(0)">
				<g id="shape_other_4_1_33_">
					<path d="M292,0l6.4-1.6L300-8l1.6,6.4L308,0l-6.4,1.6L300,8l-1.6-6.4L292,0z"/>
				</g>
			</g>
			<g transform="translate(300,100) scale(0.24) rotate(0)">
				<g id="shape_other_4_1_34_">
					<path d="M288,100l9.6-2.4L300,88l2.4,9.6l9.6,2.4l-9.6,2.4L300,112l-2.4-9.6L288,100z"/>
				</g>
			</g>
			<g transform="translate(300,200) scale(0.32) rotate(0)">
				<g id="shape_other_4_1_35_">
					<path d="M284,200l12.8-3.2L300,184l3.2,12.8L316,200l-12.8,3.2L300,216l-3.2-12.8L284,200z"/>
				</g>
			</g>
			<g transform="translate(300,300) scale(0.4) rotate(0)">
				<g id="shape_other_4_1_36_">
					<path d="M280,300l16-4l4-16l4,16l16,4l-16,4l-4,16l-4-16L280,300z"/>
				</g>
			</g>
			<g transform="translate(300,400) scale(0.48) rotate(0)">
				<g id="shape_other_4_1_37_">
					<path d="M276,400l19.2-4.8L300,376l4.8,19.2L324,400l-19.2,4.8L300,424l-4.8-19.2L276,400z"/>
				</g>
			</g>
			<g transform="translate(300,500) scale(0.56) rotate(0)">
				<g id="shape_other_4_1_38_">
					<path d="M272,500l22.4-5.6L300,472l5.6,22.4L328,500l-22.4,5.6L300,528l-5.6-22.4L272,500z"/>
				</g>
			</g>
			<g transform="translate(300,600) scale(0.64) rotate(0)">
				<g id="shape_other_4_1_39_">
					<path d="M268,600l25.6-6.4L300,568l6.4,25.6L332,600l-25.6,6.4L300,632l-6.4-25.6L268,600z"/>
				</g>
			</g>
			<g transform="translate(300,700) scale(0.72) rotate(0)">
				<g id="shape_other_4_1_40_">
					<path d="M264,700l28.8-7.2L300,664l7.2,28.8L336,700l-28.8,7.2L300,736l-7.2-28.8L264,700z"/>
				</g>
			</g>
			<g transform="translate(300,800) scale(0.8) rotate(0)">
				<g id="shape_other_4_1_41_">
					<path d="M260,800l32-8l8-32l8,32l32,8l-32,8l-8,32l-8-32L260,800z"/>
				</g>
			</g>
			<g transform="translate(300,900) scale(0.88) rotate(0)">
				<g id="shape_other_4_1_42_">
					<path d="M256,900l35.2-8.8L300,856l8.8,35.2L344,900l-35.2,8.8L300,944l-8.8-35.2L256,900z"/>
				</g>
			</g>
			<g transform="translate(300,1000) scale(0.96) rotate(0)">
				<g id="shape_other_4_1_43_">
					<path d="M252,1000l38.4-9.6L300,952l9.6,38.4l38.4,9.6l-38.4,9.6L300,1048l-9.6-38.4L252,1000z"/>
				</g>
			</g>
			<g transform="translate(400,0) scale(0.16) rotate(0)">
				<g id="shape_other_4_1_44_">
					<path d="M392,0l6.4-1.6L400-8l1.6,6.4L408,0l-6.4,1.6L400,8l-1.6-6.4L392,0z"/>
				</g>
			</g>
			<g transform="translate(400,100) scale(0.24) rotate(0)">
				<g id="shape_other_4_1_45_">
					<path d="M388,100l9.6-2.4L400,88l2.4,9.6l9.6,2.4l-9.6,2.4L400,112l-2.4-9.6L388,100z"/>
				</g>
			</g>
			<g transform="translate(400,200) scale(0.32) rotate(0)">
				<g id="shape_other_4_1_46_">
					<path d="M384,200l12.8-3.2L400,184l3.2,12.8L416,200l-12.8,3.2L400,216l-3.2-12.8L384,200z"/>
				</g>
			</g>
			<g transform="translate(400,300) scale(0.4) rotate(0)">
				<g id="shape_other_4_1_47_">
					<path d="M380,300l16-4l4-16l4,16l16,4l-16,4l-4,16l-4-16L380,300z"/>
				</g>
			</g>
			<g transform="translate(400,400) scale(0.48) rotate(0)">
				<g id="shape_other_4_1_48_">
					<path d="M376,400l19.2-4.8L400,376l4.8,19.2L424,400l-19.2,4.8L400,424l-4.8-19.2L376,400z"/>
				</g>
			</g>
			<g transform="translate(400,500) scale(0.56) rotate(0)">
				<g id="shape_other_4_1_49_">
					<path d="M372,500l22.4-5.6L400,472l5.6,22.4L428,500l-22.4,5.6L400,528l-5.6-22.4L372,500z"/>
				</g>
			</g>
			<g transform="translate(400,600) scale(0.64) rotate(0)">
				<g id="shape_other_4_1_50_">
					<path d="M368,600l25.6-6.4L400,568l6.4,25.6L432,600l-25.6,6.4L400,632l-6.4-25.6L368,600z"/>
				</g>
			</g>
			<g transform="translate(400,700) scale(0.72) rotate(0)">
				<g id="shape_other_4_1_51_">
					<path d="M364,700l28.8-7.2L400,664l7.2,28.8L436,700l-28.8,7.2L400,736l-7.2-28.8L364,700z"/>
				</g>
			</g>
			<g transform="translate(400,800) scale(0.8) rotate(0)">
				<g id="shape_other_4_1_52_">
					<path d="M360,800l32-8l8-32l8,32l32,8l-32,8l-8,32l-8-32L360,800z"/>
				</g>
			</g>
			<g transform="translate(400,900) scale(0.88) rotate(0)">
				<g id="shape_other_4_1_53_">
					<path d="M356,900l35.2-8.8L400,856l8.8,35.2L444,900l-35.2,8.8L400,944l-8.8-35.2L356,900z"/>
				</g>
			</g>
			<g transform="translate(400,1000) scale(0.96) rotate(0)">
				<g id="shape_other_4_1_54_">
					<path d="M352,1000l38.4-9.6L400,952l9.6,38.4l38.4,9.6l-38.4,9.6L400,1048l-9.6-38.4L352,1000z"/>
				</g>
			</g>
			<g transform="translate(500,0) scale(0.16) rotate(0)">
				<g id="shape_other_4_1_55_">
					<path d="M492,0l6.4-1.6L500-8l1.6,6.4L508,0l-6.4,1.6L500,8l-1.6-6.4L492,0z"/>
				</g>
			</g>
			<g transform="translate(500,100) scale(0.24) rotate(0)">
				<g id="shape_other_4_1_56_">
					<path d="M488,100l9.6-2.4L500,88l2.4,9.6l9.6,2.4l-9.6,2.4L500,112l-2.4-9.6L488,100z"/>
				</g>
			</g>
			<g transform="translate(500,200) scale(0.32) rotate(0)">
				<g id="shape_other_4_1_57_">
					<path d="M484,200l12.8-3.2L500,184l3.2,12.8L516,200l-12.8,3.2L500,216l-3.2-12.8L484,200z"/>
				</g>
			</g>
			<g transform="translate(500,300) scale(0.4) rotate(0)">
				<g id="shape_other_4_1_58_">
					<path d="M480,300l16-4l4-16l4,16l16,4l-16,4l-4,16l-4-16L480,300z"/>
				</g>
			</g>
			<g transform="translate(500,400) scale(0.48) rotate(0)">
				<g id="shape_other_4_1_59_">
					<path d="M476,400l19.2-4.8L500,376l4.8,19.2L524,400l-19.2,4.8L500,424l-4.8-19.2L476,400z"/>
				</g>
			</g>
			<g transform="translate(500,500) scale(0.56) rotate(0)">
				<g id="shape_other_4_1_60_">
					<path d="M472,500l22.4-5.6L500,472l5.6,22.4L528,500l-22.4,5.6L500,528l-5.6-22.4L472,500z"/>
				</g>
			</g>
			<g transform="translate(500,600) scale(0.64) rotate(0)">
				<g id="shape_other_4_1_61_">
					<path d="M468,600l25.6-6.4L500,568l6.4,25.6L532,600l-25.6,6.4L500,632l-6.4-25.6L468,600z"/>
				</g>
			</g>
			<g transform="translate(500,700) scale(0.72) rotate(0)">
				<g id="shape_other_4_1_62_">
					<path d="M464,700l28.8-7.2L500,664l7.2,28.8L536,700l-28.8,7.2L500,736l-7.2-28.8L464,700z"/>
				</g>
			</g>
			<g transform="translate(500,800) scale(0.8) rotate(0)">
				<g id="shape_other_4_1_63_">
					<path d="M460,800l32-8l8-32l8,32l32,8l-32,8l-8,32l-8-32L460,800z"/>
				</g>
			</g>
			<g transform="translate(500,900) scale(0.88) rotate(0)">
				<g id="shape_other_4_1_64_">
					<path d="M456,900l35.2-8.8L500,856l8.8,35.2L544,900l-35.2,8.8L500,944l-8.8-35.2L456,900z"/>
				</g>
			</g>
			<g transform="translate(500,1000) scale(0.96) rotate(0)">
				<g id="shape_other_4_1_65_">
					<path d="M452,1000l38.4-9.6L500,952l9.6,38.4l38.4,9.6l-38.4,9.6L500,1048l-9.6-38.4L452,1000z"/>
				</g>
			</g>
			<g transform="translate(600,0) scale(0.16) rotate(0)">
				<g id="shape_other_4_1_66_">
					<path d="M592,0l6.4-1.6L600-8l1.6,6.4L608,0l-6.4,1.6L600,8l-1.6-6.4L592,0z"/>
				</g>
			</g>
			<g transform="translate(600,100) scale(0.24) rotate(0)">
				<g id="shape_other_4_1_67_">
					<path d="M588,100l9.6-2.4L600,88l2.4,9.6l9.6,2.4l-9.6,2.4L600,112l-2.4-9.6L588,100z"/>
				</g>
			</g>
			<g transform="translate(600,200) scale(0.32) rotate(0)">
				<g id="shape_other_4_1_68_">
					<path d="M584,200l12.8-3.2L600,184l3.2,12.8L616,200l-12.8,3.2L600,216l-3.2-12.8L584,200z"/>
				</g>
			</g>
			<g transform="translate(600,300) scale(0.4) rotate(0)">
				<g id="shape_other_4_1_69_">
					<path d="M580,300l16-4l4-16l4,16l16,4l-16,4l-4,16l-4-16L580,300z"/>
				</g>
			</g>
			<g transform="translate(600,400) scale(0.48) rotate(0)">
				<g id="shape_other_4_1_70_">
					<path d="M576,400l19.2-4.8L600,376l4.8,19.2L624,400l-19.2,4.8L600,424l-4.8-19.2L576,400z"/>
				</g>
			</g>
			<g transform="translate(600,500) scale(0.56) rotate(0)">
				<g id="shape_other_4_1_71_">
					<path d="M572,500l22.4-5.6L600,472l5.6,22.4L628,500l-22.4,5.6L600,528l-5.6-22.4L572,500z"/>
				</g>
			</g>
			<g transform="translate(600,600) scale(0.64) rotate(0)">
				<g id="shape_other_4_1_72_">
					<path d="M568,600l25.6-6.4L600,568l6.4,25.6L632,600l-25.6,6.4L600,632l-6.4-25.6L568,600z"/>
				</g>
			</g>
			<g transform="translate(600,700) scale(0.72) rotate(0)">
				<g id="shape_other_4_1_73_">
					<path d="M564,700l28.8-7.2L600,664l7.2,28.8L636,700l-28.8,7.2L600,736l-7.2-28.8L564,700z"/>
				</g>
			</g>
			<g transform="translate(600,800) scale(0.8) rotate(0)">
				<g id="shape_other_4_1_74_">
					<path d="M560,800l32-8l8-32l8,32l32,8l-32,8l-8,32l-8-32L560,800z"/>
				</g>
			</g>
			<g transform="translate(600,900) scale(0.88) rotate(0)">
				<g id="shape_other_4_1_75_">
					<path d="M556,900l35.2-8.8L600,856l8.8,35.2L644,900l-35.2,8.8L600,944l-8.8-35.2L556,900z"/>
				</g>
			</g>
			<g transform="translate(600,1000) scale(0.96) rotate(0)">
				<g id="shape_other_4_1_76_">
					<path d="M552,1000l38.4-9.6L600,952l9.6,38.4l38.4,9.6l-38.4,9.6L600,1048l-9.6-38.4L552,1000z"/>
				</g>
			</g>
			<g transform="translate(700,0) scale(0.16) rotate(0)">
				<g id="shape_other_4_1_77_">
					<path d="M692,0l6.4-1.6L700-8l1.6,6.4L708,0l-6.4,1.6L700,8l-1.6-6.4L692,0z"/>
				</g>
			</g>
			<g transform="translate(700,100) scale(0.24) rotate(0)">
				<g id="shape_other_4_1_78_">
					<path d="M688,100l9.6-2.4L700,88l2.4,9.6l9.6,2.4l-9.6,2.4L700,112l-2.4-9.6L688,100z"/>
				</g>
			</g>
			<g transform="translate(700,200) scale(0.32) rotate(0)">
				<g id="shape_other_4_1_79_">
					<path d="M684,200l12.8-3.2L700,184l3.2,12.8L716,200l-12.8,3.2L700,216l-3.2-12.8L684,200z"/>
				</g>
			</g>
			<g transform="translate(700,300) scale(0.4) rotate(0)">
				<g id="shape_other_4_1_80_">
					<path d="M680,300l16-4l4-16l4,16l16,4l-16,4l-4,16l-4-16L680,300z"/>
				</g>
			</g>
			<g transform="translate(700,400) scale(0.48) rotate(0)">
				<g id="shape_other_4_1_81_">
					<path d="M676,400l19.2-4.8L700,376l4.8,19.2L724,400l-19.2,4.8L700,424l-4.8-19.2L676,400z"/>
				</g>
			</g>
			<g transform="translate(700,500) scale(0.56) rotate(0)">
				<g id="shape_other_4_1_82_">
					<path d="M672,500l22.4-5.6L700,472l5.6,22.4L728,500l-22.4,5.6L700,528l-5.6-22.4L672,500z"/>
				</g>
			</g>
			<g transform="translate(700,600) scale(0.64) rotate(0)">
				<g id="shape_other_4_1_83_">
					<path d="M668,600l25.6-6.4L700,568l6.4,25.6L732,600l-25.6,6.4L700,632l-6.4-25.6L668,600z"/>
				</g>
			</g>
			<g transform="translate(700,700) scale(0.72) rotate(0)">
				<g id="shape_other_4_1_84_">
					<path d="M664,700l28.8-7.2L700,664l7.2,28.8L736,700l-28.8,7.2L700,736l-7.2-28.8L664,700z"/>
				</g>
			</g>
			<g transform="translate(700,800) scale(0.8) rotate(0)">
				<g id="shape_other_4_1_85_">
					<path d="M660,800l32-8l8-32l8,32l32,8l-32,8l-8,32l-8-32L660,800z"/>
				</g>
			</g>
			<g transform="translate(700,900) scale(0.88) rotate(0)">
				<g id="shape_other_4_1_86_">
					<path d="M656,900l35.2-8.8L700,856l8.8,35.2L744,900l-35.2,8.8L700,944l-8.8-35.2L656,900z"/>
				</g>
			</g>
			<g transform="translate(700,1000) scale(0.96) rotate(0)">
				<g id="shape_other_4_1_87_">
					<path d="M652,1000l38.4-9.6L700,952l9.6,38.4l38.4,9.6l-38.4,9.6L700,1048l-9.6-38.4L652,1000z"/>
				</g>
			</g>
			<g transform="translate(800,0) scale(0.16) rotate(0)">
				<g id="shape_other_4_1_88_">
					<path d="M792,0l6.4-1.6L800-8l1.6,6.4L808,0l-6.4,1.6L800,8l-1.6-6.4L792,0z"/>
				</g>
			</g>
			<g transform="translate(800,100) scale(0.24) rotate(0)">
				<g id="shape_other_4_1_89_">
					<path d="M788,100l9.6-2.4L800,88l2.4,9.6l9.6,2.4l-9.6,2.4L800,112l-2.4-9.6L788,100z"/>
				</g>
			</g>
			<g transform="translate(800,200) scale(0.32) rotate(0)">
				<g id="shape_other_4_1_90_">
					<path d="M784,200l12.8-3.2L800,184l3.2,12.8L816,200l-12.8,3.2L800,216l-3.2-12.8L784,200z"/>
				</g>
			</g>
			<g transform="translate(800,300) scale(0.4) rotate(0)">
				<g id="shape_other_4_1_91_">
					<path d="M780,300l16-4l4-16l4,16l16,4l-16,4l-4,16l-4-16L780,300z"/>
				</g>
			</g>
			<g transform="translate(800,400) scale(0.48) rotate(0)">
				<g id="shape_other_4_1_92_">
					<path d="M776,400l19.2-4.8L800,376l4.8,19.2L824,400l-19.2,4.8L800,424l-4.8-19.2L776,400z"/>
				</g>
			</g>
			<g transform="translate(800,500) scale(0.56) rotate(0)">
				<g id="shape_other_4_1_93_">
					<path d="M772,500l22.4-5.6L800,472l5.6,22.4L828,500l-22.4,5.6L800,528l-5.6-22.4L772,500z"/>
				</g>
			</g>
			<g transform="translate(800,600) scale(0.64) rotate(0)">
				<g id="shape_other_4_1_94_">
					<path d="M768,600l25.6-6.4L800,568l6.4,25.6L832,600l-25.6,6.4L800,632l-6.4-25.6L768,600z"/>
				</g>
			</g>
			<g transform="translate(800,700) scale(0.72) rotate(0)">
				<g id="shape_other_4_1_95_">
					<path d="M764,700l28.8-7.2L800,664l7.2,28.8L836,700l-28.8,7.2L800,736l-7.2-28.8L764,700z"/>
				</g>
			</g>
			<g transform="translate(800,800) scale(0.8) rotate(0)">
				<g id="shape_other_4_1_96_">
					<path d="M760,800l32-8l8-32l8,32l32,8l-32,8l-8,32l-8-32L760,800z"/>
				</g>
			</g>
			<g transform="translate(800,900) scale(0.88) rotate(0)">
				<g id="shape_other_4_1_97_">
					<path d="M756,900l35.2-8.8L800,856l8.8,35.2L844,900l-35.2,8.8L800,944l-8.8-35.2L756,900z"/>
				</g>
			</g>
			<g transform="translate(800,1000) scale(0.96) rotate(0)">
				<g id="shape_other_4_1_98_">
					<path d="M752,1000l38.4-9.6L800,952l9.6,38.4l38.4,9.6l-38.4,9.6L800,1048l-9.6-38.4L752,1000z"/>
				</g>
			</g>
			<g transform="translate(900,0) scale(0.16) rotate(0)">
				<g id="shape_other_4_1_99_">
					<path d="M892,0l6.4-1.6L900-8l1.6,6.4L908,0l-6.4,1.6L900,8l-1.6-6.4L892,0z"/>
				</g>
			</g>
			<g transform="translate(900,100) scale(0.24) rotate(0)">
				<g id="shape_other_4_1_100_">
					<path d="M888,100l9.6-2.4L900,88l2.4,9.6l9.6,2.4l-9.6,2.4L900,112l-2.4-9.6L888,100z"/>
				</g>
			</g>
			<g transform="translate(900,200) scale(0.32) rotate(0)">
				<g id="shape_other_4_1_101_">
					<path d="M884,200l12.8-3.2L900,184l3.2,12.8L916,200l-12.8,3.2L900,216l-3.2-12.8L884,200z"/>
				</g>
			</g>
			<g transform="translate(900,300) scale(0.4) rotate(0)">
				<g id="shape_other_4_1_102_">
					<path d="M880,300l16-4l4-16l4,16l16,4l-16,4l-4,16l-4-16L880,300z"/>
				</g>
			</g>
			<g transform="translate(900,400) scale(0.48) rotate(0)">
				<g id="shape_other_4_1_103_">
					<path d="M876,400l19.2-4.8L900,376l4.8,19.2L924,400l-19.2,4.8L900,424l-4.8-19.2L876,400z"/>
				</g>
			</g>
			<g transform="translate(900,500) scale(0.56) rotate(0)">
				<g id="shape_other_4_1_104_">
					<path d="M872,500l22.4-5.6L900,472l5.6,22.4L928,500l-22.4,5.6L900,528l-5.6-22.4L872,500z"/>
				</g>
			</g>
			<g transform="translate(900,600) scale(0.64) rotate(0)">
				<g id="shape_other_4_1_105_">
					<path d="M868,600l25.6-6.4L900,568l6.4,25.6L932,600l-25.6,6.4L900,632l-6.4-25.6L868,600z"/>
				</g>
			</g>
			<g transform="translate(900,700) scale(0.72) rotate(0)">
				<g id="shape_other_4_1_106_">
					<path d="M864,700l28.8-7.2L900,664l7.2,28.8L936,700l-28.8,7.2L900,736l-7.2-28.8L864,700z"/>
				</g>
			</g>
			<g transform="translate(900,800) scale(0.8) rotate(0)">
				<g id="shape_other_4_1_107_">
					<path d="M860,800l32-8l8-32l8,32l32,8l-32,8l-8,32l-8-32L860,800z"/>
				</g>
			</g>
			<g transform="translate(900,900) scale(0.88) rotate(0)">
				<g id="shape_other_4_1_108_">
					<path d="M856,900l35.2-8.8L900,856l8.8,35.2L944,900l-35.2,8.8L900,944l-8.8-35.2L856,900z"/>
				</g>
			</g>
			<g transform="translate(900,1000) scale(0.96) rotate(0)">
				<g id="shape_other_4_1_109_">
					<path d="M852,1000l38.4-9.6L900,952l9.6,38.4l38.4,9.6l-38.4,9.6L900,1048l-9.6-38.4L852,1000z"/>
				</g>
			</g>
			<g transform="translate(1000,0) scale(0.16) rotate(0)">
				<g id="shape_other_4_1_110_">
					<path d="M992,0l6.4-1.6L1000-8l1.6,6.4L1008,0l-6.4,1.6L1000,8l-1.6-6.4L992,0z"/>
				</g>
			</g>
			<g transform="translate(1000,100) scale(0.24) rotate(0)">
				<g id="shape_other_4_1_111_">
					<path d="M988,100l9.6-2.4l2.4-9.6l2.4,9.6l9.6,2.4l-9.6,2.4l-2.4,9.6l-2.4-9.6L988,100z"/>
				</g>
			</g>
			<g transform="translate(1000,200) scale(0.32) rotate(0)">
				<g id="shape_other_4_1_112_">
					<path d="M984,200l12.8-3.2l3.2-12.8l3.2,12.8l12.8,3.2l-12.8,3.2L1000,216l-3.2-12.8L984,200z"/>
				</g>
			</g>
			<g transform="translate(1000,300) scale(0.4) rotate(0)">
				<g id="shape_other_4_1_113_">
					<path d="M980,300l16-4l4-16l4,16l16,4l-16,4l-4,16l-4-16L980,300z"/>
				</g>
			</g>
			<g transform="translate(1000,400) scale(0.48) rotate(0)">
				<g id="shape_other_4_1_114_">
					<path d="M976,400l19.2-4.8l4.8-19.2l4.8,19.2l19.2,4.8l-19.2,4.8L1000,424l-4.8-19.2L976,400z"/>
				</g>
			</g>
			<g transform="translate(1000,500) scale(0.56) rotate(0)">
				<g id="shape_other_4_1_115_">
					<path d="M972,500l22.4-5.6l5.6-22.4l5.6,22.4l22.4,5.6l-22.4,5.6L1000,528l-5.6-22.4L972,500z"/>
				</g>
			</g>
			<g transform="translate(1000,600) scale(0.64) rotate(0)">
				<g id="shape_other_4_1_116_">
					<path d="M968,600l25.6-6.4l6.4-25.6l6.4,25.6l25.6,6.4l-25.6,6.4L1000,632l-6.4-25.6L968,600z"/>
				</g>
			</g>
			<g transform="translate(1000,700) scale(0.72) rotate(0)">
				<g id="shape_other_4_1_117_">
					<path d="M964,700l28.8-7.2l7.2-28.8l7.2,28.8l28.8,7.2l-28.8,7.2L1000,736l-7.2-28.8L964,700z"/>
				</g>
			</g>
			<g transform="translate(1000,800) scale(0.8) rotate(0)">
				<g id="shape_other_4_1_118_">
					<path d="M960,800l32-8l8-32l8,32l32,8l-32,8l-8,32l-8-32L960,800z"/>
				</g>
			</g>
			<g transform="translate(1000,900) scale(0.88) rotate(0)">
				<g id="shape_other_4_1_119_">
					<path d="M956,900l35.2-8.8l8.8-35.2l8.8,35.2l35.2,8.8l-35.2,8.8L1000,944l-8.8-35.2L956,900z"/>
				</g>
			</g>
			<g transform="scale(1) ">
				<g id="shape_other_4_1_120_">
					<path d="M952,1000l38.4-9.6l9.6-38.4l9.6,38.4l38.4,9.6l-38.4,9.6l-9.6,38.4l-9.6-38.4L952,1000z"/>
				</g>
			</g>
		</g>
	</g>
</g>
</svg>
