<svg enable-background="new 0 0 318.6753235 48.352478" height="123.42761" viewBox="0 0 318.6753235 48.352478" width="810.191494" xmlns="http://www.w3.org/2000/svg"><g fill="#174171"><path d="m316.5533142 20.2260742c1.1539917 0 2.1220093.9110107 2.1220093 2.1049805 0 1.2160034-.9680176 2.1270142-2.1220093 2.1270142-1.1600037 0-2.1329956-.9110107-2.1329956-2.1270142 0-1.1939697.9729919-2.1049805 2.1329956-2.1049805m0 3.9219971c.980011 0 1.7380066-.7810059 1.7380066-1.8170166 0-1.0130005-.7579956-1.7939453-1.7380066-1.7939453-.9899902 0-1.7479858.7809448-1.7479858 1.7939453 0 1.0360107.7579956 1.8170166 1.7479858 1.8170166m-.8259888-3.0449829h.9559937c.5889893 0 .8659973.2319946.8659973.7080078 0 .4469604-.2829895.6329956-.651001.6729736l.7080078 1.09198h-.4140015l-.6719971-1.0639648h-.4079895v1.0639648h-.3850098v-2.4729614zm.3850098 1.0979614h.4009705c.3400269 0 .651001-.0169678.651001-.4069824 0-.3289795-.2829895-.3800049-.5429993-.3800049h-.5089722z"/><path d="m306.8778992 21.8643799c-2.3919983 0-3.8999939 1.4760132-4.29599 4.1970215l2.3630066-.03302 2.8859863-.065979c1.6390076-.0310059 2.2969971-.4580078 2.2969971-1.3759766 0-1.5100098-1.4790039-2.7220459-3.25-2.7220459m6.1670227 5.3439941-.2940063.3300171h-1.7059937l-3.5420227.0320435-3.3779907.0649414-1.6409912.0980225v.1640015c0 4.4609985 2.2649841 7.0510254 6.164978 7.0510254.4940186 0 .95401-.0320435 1.3780212-.0980225.8859863-.1640015 1.3459778-.3610229 2.3619995-1.0170288l.2949829.1640015-.3939819 1.0820313-.32901 1.1480103c-.4240112.164978-.7529907.2630005-.9490051.3280029-1.0499878.3280029-2.3630066.5249634-3.5740051.5249634-2.492981 0-4.3299866-.7539673-5.6730042-2.3289795-1.3119812-1.5410156-2.0329895-3.6409912-2.0329895-5.8369751 0-4.9850464 3.1459961-8.559021 7.5410156-8.559021 3.5739746 0 5.8029785 2.2310181 5.8029785 5.8059692 0 .2600096 0 .5220335-.0309753 1.0469969"/><path d="m291.5644226 37.0804443c-.3600159 0-.7220154 0-1.0470276-.032959-.9519958-.098999-1.5090027-.2290039-2.7890015-.6890259l.2630005-.8519897.4920044-1.9680176.3269958-.0339966c.8210144 1.4120483 1.8050232 2.0020142 3.2790222 2.0020142 1.7709961 0 3.1159973-1.1809692 3.1159973-2.7550049 0-.7879639-.2940063-1.5100098-.9519958-2.065979-.4570007-.427002-.7839966-.5579834-2.0970154-1.1480103-1.1139832-.5239868-1.7389832-.8190308-2.2309875-1.1469727-1.1790161-.7550049-1.8040161-1.8700562-1.8040161-3.3120117 0-2.9530029 2.230011-4.7220459 5.9040222-4.7220459 1.1479797 0 1.8019714.1300049 3.1469727.5560303l-.1959839.8209839-.230011 1.0820313-.1309814.7219849-.3600159.0319824c-.6900024-1.0830078-1.7380066-1.6399536-3.0489807-1.6399536-1.5740051 0-2.5910034.8859863-2.5910034 2.2630005 0 .6889648.2619934 1.2789917.7859802 1.7039795.460022.3950195.8210144.5910034 2.3300171 1.3120117 1.243988.6239624 1.769989.8869629 2.3269958 1.2789917 1.0830078.7879639 1.70401 2.0009766 1.70401 3.3779907.0000001 3.0819702-2.5250244 5.2149658-6.197998 5.2149658"/><path d="m286.0576172 36.4901733-.8200073.03302-1.9670105.0980225-1.0509949.0969849-.0639954-2.9509888-1.3789978 1.1170044c-1.8690186 1.5079956-3.0820007 2.0639648-4.6570129 2.0639648-1.802002 0-3.2120056-.7519531-4.0010071-2.1309814-.2590027-.4589844-.4239807-.9500122-.5229797-1.4429932-.132019-.6879883-.132019-1.0830078-.132019-2.5570068v-3.7369995c0-2.9869995-.1949768-4.789978-.6559753-6.2000122l.8539734.0339966 1.9660034-.098999.9840088-.032959c-.131012.6879883-.196991 1.2149658-.2609863 1.572998-.132019 1.0839844-.2310181 2.9859619-.2310181 4.065979l.0350037 2.9849854c.0299988 1.7059937.0639954 2.592041.2929993 3.3460083.428009 1.2800293 1.4760132 1.9660034 2.9179993 1.9660034 1.1820068 0 2.1990051-.3930054 3.1159973-1.2119751 1.1170044-1.0180054 1.4100037-1.9030151 1.4100037-4.2310181v-2.1950073c0-2.9869995-.1629944-4.789978-.6239929-6.2000122l.8200073.0339966 1.9689941-.098999.9830017-.032959c-.1289978.6879883-.1970215 1.2149658-.2290039 1.572998-.131012 1.0839844-.2640076 2.8200073-.2640076 4.065979l-.0310059 3.2479858c-.0329895 2.394043.0980225 3.868042.3269958 4.5580444.1970215.6239624.7870178.9839478 1.5760193.9839478h.2609863z"/><path d="m260.6426086 21.7009277c-.1959839 0-.3940125 0-.5899963.032959-2.6560059.3930054-4.1980133 2.8190308-4.1980133 6.5570068 0 4.3950195 2.0010223 7.3779907 4.951004 7.3779907 2.8850098 0 4.7900085-2.6539917 4.7900085-6.5910034.0000001-4.3930053-2.0020141-7.3769531-4.9530029-7.3769531m-.2949829 15.4449463c-4.6560211 0-7.6740265-3.2129517-7.6740265-8.197998 0-4.9839478 3.2139893-8.526001 7.9360199-8.723999.1959839-.0319824.3619995-.0319824.5569763-.0319824 4.6910095 0 7.6100159 3.1489868 7.6100159 8.132019 0 5.1820068-3.4760132 8.8219604-8.4289856 8.8219604"/><path d="m249.132309 36.4901733h-2.3940125l-.9169922.0650024c.0979919-.6549683.1629944-1.1469727.1949768-1.4749756.098999-.7550049.1640015-1.5429688.1970215-2.3619995 0-.0969849.0329895-.8839722.0329895-2.3939819l.0320129-4.8859863-1.9990234-.0310059-3.2139893-.1000366h-3.3789978l-2.3930054.1000366-2.196991.0310059v4.9189453c0 2.9850464.196991 4.7890015.6549988 6.197998l-.8519897-.0650024h-2.3919983l-.9200134.0650024c.098999-.6549683.1640015-1.1469727.1959839-1.4749756.1970215-1.4099731.2320251-1.7379761.2320251-4.7559814l.0299988-10.7880249c0-1.6069946-.0650024-2.7539673-.2270203-3.4099731-.164978-.6890259-.6579895-1.0170288-1.6080017-1.0170288h-.3269958l.6230164-1.3770142.8190002.0320435h3.0489807l1.0180054-.0650024c-.098999 1.0809937-.1650085 1.8689575-.196991 2.427002-.0320129.4580078-.0660095 1.6399536-.0660095 3.5079956v3.6069946l2.1640015.03302 2.3930054.098999h1.2789917c1.3120117 0 2.1000061-.03302 5.3139954-.098999l1.9990234-.03302v-3.3110352c0-2.9849854-.1960144-4.7890015-.6549988-6.197998l.8199768.0320435h2.1300049l1.0509949-.0320435c-.098999 1.0480347-.164978 1.8690186-.197998 2.394043-.0319824.5570068-.0650024 1.7379761-.0650024 3.5409546l-.0339966 10.6900024c0 2.9850464.197998 4.7890015.6570129 6.197998z"/><path d="m214.9943085 21.9290161c-.1289978 0-.2640076.0339966-.3930054.0339966-1.6400146.2299805-2.5889893 1.4420166-2.5889893 3.3439941 0 2.3629761 1.3099976 4.0009766 3.2139893 4.0009766 1.8349915 0 3.0149841-1.3439941 3.0149841-3.3779907 0-2.3599854-1.342987-4.0009766-3.2469787-4.0009766m4.2980041 15.21698c-.7550049-.559021-1.6410217-.7539673-4.5620117-.7539673h-.2929993c-1.2449951 0-1.6390076.0639648-2.230011.3939819-1.2139893.6879883-1.901001 1.7359619-1.901001 2.8850098 0 2.1309814 1.8340149 3.4099731 4.7870178 3.4099731 3.0820007 0 5.1809998-1.5079956 5.1809998-3.7379761.0000001-.9180297-.3600158-1.705017-.9819946-2.1970214m3.901001-15.2490234-.4260254.8530273-1.1159973-.065979-1.3119812-.06604h-.3600159c.7550049 1.0170288.9840088 1.6400146.9840088 2.8530273 0 3.1170044-2.4259949 5.2479858-6.0339966 5.2479858-.5890198 0-.8529968-.03302-1.5410156-.1640015-.8859863.7210083-1.1809998 1.1480103-1.1809998 1.7360229 0 .657959.4590149 1.1820068 1.1809998 1.4439697.6560059.2290039 1.3420105.4260254 2.8520203.4590454.8859863.032959 1.4109802 0 1.6399841 0 1.4769897.032959 2.3940125.2630005 3.1490173.7219849 1.1479797.7189941 1.8039856 1.9989624 1.8039856 3.4760132 0 3.6729736-3.3460083 6.164978-8.2319946 6.164978-4.0660095 0-6.8200073-1.8040161-6.8200073-4.526001 0-.4910278.0979919-.9500122.2619934-1.3430176.132019-.3949585.3610229-.7229614.6240234-1.0499878.2939758-.2940063.6229858-.5900269.9499817-.8209839.131012-.0650024.427002-.2620239.9179993-.5560303l1.0500183-.6569824-.5600281-.2949829c-1.0469971-.5570068-1.6039734-1.3120117-1.6369934-2.0980225 0-.7539673.4580078-1.3439941 1.3430176-2.03302l1.3459778-1.0509644c-.7219849-.3909912-1.0169983-.5230103-1.3789978-.8840332-.9179993-.8200073-1.4419861-2.197998-1.4419861-3.5749512 0-3.0820313 2.4599915-5.1480103 6.1000061-5.1480103 1.0159912 0 1.67099.1309814 2.6559753.4599609h2.8520203c1.3789978 0 1.6090088 0 2.6560059-.1329956l.1959839.197998z"/><path d="m205.4194183 36.4901733h-1.9660034l-.9190063.0650024c.098999-.6549683.197998-1.1469727.2290039-1.4749756.0999756-.7880249.196991-2.7890015.196991-4.7559814v-2.3950195c0-1.40802-.0970154-2.3909912-.3269958-3.0479736-.428009-1.2470093-1.7050171-2.06604-3.2149963-2.06604-1.1159973 0-2.2940063.4260254-3.1820068 1.2460327-1.1140137.9829712-1.4419861 1.9019775-1.4419861 4.1989746v2.0969849c0 2.9850464.196991 4.7890015.6559753 6.197998l-.8190002-.0650024h-2l-.9179993.0650024c.1300049-.6549683.1960144-1.1469727.2290039-1.4749756.0979919-.7880249.1950073-3.0169678.1950073-4.7559814l.0339966-3.6050415c0-1.6079712-.0979919-2.7549438-.2290039-3.4109497-.1650085-.6900024-.6560059-1.0180054-1.4440002-1.0180054h-.2609863l.6229858-1.2789917h.8200073l1.9670105-.1310425 1.0499878-.0979614-.0660095 2.8859863 1.3130188-1.1149902c1.769989-1.5079956 3.2129822-2.0670166 4.8849792-2.0670166 1.8370056 0 3.3110046.7880249 4.132019 2.1640015.2619934.460022.4249878.9520264.5239868 1.4769897.1300049.6890259.1300049 1.0480347.1300049 2.5250244v3.7049561c0 2.9850464.196991 4.7890015.6570129 6.197998z"/><path d="m186.7949066 36.4901733h-2l-.9200134.0650024c.1319885-.6549683.1959839-1.1469727.2290039-1.4749756.098999-.7880249.196991-3.0169678.196991-4.7559814l.0329895-3.6050415c0-1.6079712-.0969849-2.7549438-.2299805-3.4109497-.1620178-.6900024-.6549988-1.0180054-1.4410095-1.0180054h-.2630005l.6239929-1.2789917.8190002-.0310059 2.3940125-.1329956 1.0149841-.0650024c-.1949768 2.8519897-.2619934 4.0339966-.2619934 5.4769897l-.0319824 4.0979614c-.03302 2.9850464.196991 4.7890015.6559753 6.197998z"/><path d="m181.2197113 21.7982788-.4930115 2.2950439-.3940125.0650024c-.3930054-.4910278-.8519897-.6870117-1.539978-.6870117-1.0160217 0-1.9680176.6560059-2.6880188 1.8359985-.5899963.9840088-.7219849 1.6060181-.7219849 3.901001v1.1489868c0 2.9849854.196991 4.7880249.6549988 6.197998l-.8190002-.0650024h-1.9680176l-.9519958.0650024c.1000061-.6549683.1650085-1.1469727.196991-1.4749756.0990295-.7880249.1970215-3.019043.230011-4.757019l.0350037-3.3770142c0-1.5409546-.1340027-2.9829712-.32901-3.6729736-.196991-.6870117-.6900024-.9830322-1.5749817-.9830322h-.2619934l.6239929-1.2789917h.8179932l1.7709961-.1309814 1.2789917-.0980225-.0650024 3.7709961 1.0830078-1.3449707c1.6369934-2.065979 2.6560059-2.7219849 4.1640015-2.7219849.4920044 0 .7210083.032959 1.2460022.2959595z"/><path d="m165.2492828 30.5214233-.0650024-1.4750366c-2.6569824.2290039-3.5089722.3920288-4.4279785.8850098-.9819946.4920044-1.5410156 1.3439941-1.5410156 2.3939819 0 1.5740356 1.0169983 2.6240234 2.460022 2.6240234.7539978 0 1.4749756-.2630005 2.1959839-.8200073 1.0499878-.8209839 1.3779907-1.5419922 1.3779907-3.1820068v-.4259644zm4.1330262 6.0019532h-.8220215l-1.802002.132019-1.0489807.0969849-.0980225-2.427002-1.2469788 1.0830078c-1.3770142 1.2120361-2.526001 1.6719971-3.9349976 1.6719971-2.460022 0-4.0650024-1.7049561-4.0650024-4.2630005 0-1.4759521.5889893-2.6900024 1.7039795-3.5089722.9850159-.7200317 2.7539978-1.2460327 5.2790222-1.5739746 1.7379761-.2290039 1.8369751-.2950439 1.8369751-1.4100342 0-1.7379761-.164978-2.3280029-.7549744-2.9509888-.5580139-.5910034-1.4750061-.9180298-2.5559998-.9180298-.559021 0-1.1170044.0980225-1.6740112.2950439-.7539978.2630005-1.1140137.5570068-1.6730042 1.2799683l-.3590088-.065979.0980225-1.2139893.0309753-1.1799927c1.2470093-.559021 1.7390137-.7230225 2.8200073-.8870239.6910095-.1309814 1.2140198-.1630249 1.7709961-.1630249 3.3130188 0 5.052002 1.4089966 4.9869995 4.2300415l-.0339966 1.6709595v4.1669922c0 1.6380005.1300049 2.9840088.3600159 3.7040405.196991.6889648.6239929.9519653 1.5090027.9519653h.2939758z"/><path d="m148.132309 21.8643799c-2.3940125 0-3.9030151 1.4760132-4.2960205 4.1970215l2.3610229-.03302 2.8840027-.065979c1.6409912-.0310059 2.29599-.4580078 2.29599-1.3759766 0-1.5100098-1.4750061-2.7220459-3.2449951-2.7220459m6.1650085 5.3439941-.2950134.3300171h-1.7059937l-3.5420227.0320435-3.3779907.0649414-1.6399841.0980225v.1640015c0 4.4609985 2.2639771 7.0510254 6.1659851 7.0510254.4909973 0 .9519958-.0320435 1.3779907-.0980225.8850098-.1640015 1.3430176-.3610229 2.3600159-1.0170288l.2949829.1640015-.3929749 1.0820313-.3280029 1.1480103c-.4259949.164978-.7539978.2630005-.9510193.3280029-1.0499878.3280029-2.3609924.5249634-3.5739746.5249634-2.4920044 0-4.3280029-.7539673-5.6730042-2.3289795-1.3120117-1.5410156-2.0339966-3.6409912-2.0339966-5.8369751 0-4.9850464 3.1489868-8.559021 7.5419922-8.559021 3.5749817 0 5.8039856 2.2310181 5.8039856 5.8059692 0 .2600096 0 .5220335-.0309753 1.0469969"/><path d="m138.1313019 36.4901733h-2.0020142l-.9169922.0650024c.1300049-.6549683.1949768-1.1469727.2279968-1.4749756.0650024-.4920044.098999-1.3129883.1319885-2.3619995.0650024-1.0809937.0650024-1.867981.0650024-2.3939819l.0650024-12.3630371c0-1.5719604-.0969849-2.7539673-.2619934-3.4099731-.1629944-.6560059-.6549988-.9830322-1.4429932-.9830322h-.2620239l.6240234-1.3119507h.8190002l2.3929749-.1310425 1.0169983-.098999c-.1949768 2.9850464-.2619934 4.132019-.2619934 5.5100098l-.0329895 12.8209839c0 2.9850464.1959839 4.7890015.6549988 6.197998z"/><path d="m132.0962067 15.3060913-.3930054 1.3120117-.2630005.9830322h-.4580078c-1.5419922-1.8040161-3.3129883-2.559021-5.9349976-2.559021-5.3460083 0-8.6579895 3.6740112-8.6579895 9.6090088 0 6.132019 3.6729736 10.2329712 9.1809998 10.2329712.9509888 0 1.9359741-.164978 2.9189758-.3949585 1.4100037-.3599854 1.9670105-.5880127 3.2770081-1.5410156l.394989.2960205-.2939758.7879639-.3610229 1.0809937-.2949829 1.0170288c-1.5419922.3930054-2.132019.4899902-2.9190063.6220093-.9840088.1309814-2.29599.2290039-3.3460083.2290039-2.3259888 0-4.4249878-.4260254-6.0639954-1.2460327-3.6739807-1.8339844-6.1000061-6.0339966-6.1000061-10.6239624 0-3.5410156 1.5080261-6.7890015 4.0980225-8.9860229 2.3939819-2 5.4109802-2.9169922 9.4449768-2.9169922.9179993 0 1.803009.0639648 2.7539978.1950073 1.2450256.164978 1.8700256.3299561 3.3780212.8209839z"/><path d="m100.003891 21.8674316c-2.3930054 0-3.901001 1.4759521-4.2949982 4.1989746l2.3600006-.0339966 2.8880005-.0670166c1.6380005-.0310059 2.2910004-.4569702 2.2910004-1.3759766 0-1.5090331-1.4730072-2.7219848-3.2440033-2.7219848m6.1650085 5.3459473-.2960052.3280029h-1.7039948l-3.5410004.03302-3.378006.0650024-1.6380005.098999v.1630249c0 4.4589844 2.2599945 7.0479736 6.1629944 7.0479736.4920044 0 .9500122-.0299683 1.378006-.0969849.8849945-.1640015 1.3439941-.3610229 2.3600006-1.0180054l.2939911.164978-.3919983 1.0820313-.3279877 1.1480103c-.4250031.1629639-.7540131.2619629-.951004.3269653-1.0510101.3290405-2.3610077.526001-3.576004.526001-2.4909973 0-4.326004-.7550049-5.6710052-2.3280029-1.3109894-1.5410156-2.0319977-3.6409912-2.0319977-5.8369751 0-4.9840088 3.1490021-8.5579834 7.5400085-8.5579834 3.5759888 0 5.8040009 2.2289429 5.8040009 5.8039551 0 .262024 0 .524048-.0319977 1.0499879"/><path d="m89.6450043 36.4915771h-1.9690094l-.9160004.0650024c.0960083-.6539917.1970062-1.1469727.2299957-1.4749756.0960083-.7869873.1959991-2.7230225.1959991-4.7539673v-2.0010376l.0310059-.2290039c0-1.4099731-.1309967-2.3619995-.3609924-3.0819702-.4240112-1.2789917-1.5400085-2.03302-3.0800018-2.03302-1.1490021-.0009766-2.2620087.4589844-3.1809998 1.2769775-1.1150055.9840088-1.4430084 1.9040527-1.4430084 4.197998v1.9020386c0 2.9829712.1970062 4.7869873.6549988 6.1969604l-.8179932-.0650024h-2.0010071l-.9169922.0650024c.1300049-.6539917.1949921-1.1469727.2290039-1.4749756.0659943-.492981.0979919-1.3120117.1309967-2.3599854.0650024-1.0830078.0650024-1.8699951.0650024-2.3950195l.0650024-12.3609619c0-1.5740356-.0960083-2.7540283-.2610016-3.4090576-.1630096-.6569824-.6560059-.9839478-1.4430084-.9839478h-.2610015l.6210022-1.3130493h.8220062l2.3929901-.1309814 1.0160065-.0980225c-.1970062 2.9190063-.2640076 4.098999-.2640076 5.5090332l-.0319977 6.1309814 1.1470032-.9160156c1.8699951-1.5099487 3.1820068-2.098999 4.7879944-2.098999 1.8360138 0 3.3120117.7860107 4.0980072 2.1630249.2630005.460022.427002.9509888.526001 1.440979.1309967.69104.1309967 1.085022.1309967 2.526001v3.5740356c0 2.9840088.1959991 4.7869873.6549988 6.1969604z"/><path d="m74.5957031 14.7518311-.3590088 1.4100342-.1640015.8200073-.427002.0319824c-.6230011-.5899658-.9169922-.8179932-1.5749969-1.0469971-.4579926-.1660156-.9169922-.2630005-1.375-.3289795-1.0500031-.1310425-1.5740051-.1650391-4.2639923-.197998l-.1300049 4.0999756-.0339966 10.8200073c0 2.9840088.1640015 4.7880249.6239929 6.1959839l-.8209991-.0650024h-2.3919983l-.9830017.0650024c.1289978-.6530151.1940002-1.1469727.2259979-1.4749756.197998-1.4420166.2320099-1.7369995.2320099-4.7550049l.0329895-10.7860107c0-.3289795 0-.9849854-.0329895-2-.0340118-.460022-.0340118-1.1809692-.0660095-2.0999756-.9509888-.0010376-1.6729889.032959-2.1640015.032959-2.2630005.0339966-3.147995.1650391-4.1309967.5580444-.6230011.2609863-.9179993.4589844-1.5090027 1.0169678l-.4259949-.0339966.0650024-.7219849.196991-1.507019.0980072-1.1149902 1.378006.03302c3.0479889.0650024 5.769989.1309814 8.1309967.1309814 2.4609985 0 5.3779907-.065979 8.7539978-.1300049l1.4749908-.0339966z"/><path d="m185.2816925 17.0321655c-1.0510254 0-1.3140259-.2629395-1.3140259-1.4779663 0-1.7730103.2950134-2.1010132 1.9700012-2.1010132 1.0840149 0 1.3139954.2949829 1.3139954 1.5100098v.1640015c0 1.7080078-.29599 1.9049682-1.9699707 1.9049682"/></g><path d="m22.5537109 48.352478v-10c-2.605011-.2949829-4.9980011-1.289978-6.9830017-2.7929688l-6.8560028 6.8560181 2.4899902 2.4889526 3.8720093-3.8719482c1.2449951.6719971 2.571991 1.2059937 3.9629974 1.59198v5.7279663" fill="#206d4a"/><path d="m39.6367035 5.9329834-2.4850006-2.4849854-3.8740082 3.875c-1.0370026-.5609741-2.1320038-1.0249634-3.272995-1.3900146v-5.9329834h-3.5200043v10.0950317c2.3370056.3800049 4.4850006 1.3269653 6.2949982 2.697998z" fill="#206d4a"/><path d="m.0005035 26.4868774v3.5160522h5.9329987c.3629913 1.1419678.8279877 2.2379761 1.3889923 3.276001l-3.871994 3.8729858 2.4850006 2.4849854 6.8580017-6.8569946c-1.3720093-1.809021-2.3180084-3.9569702-2.6990051-6.2930298z" fill="#206d4a"/><path d="m22.5532074.0004883h-3.5150146v5.7280273c-1.3899994.3859863-2.7179871.9199829-3.9609985 1.59198l-3.8739929-3.8739624-2.4889985 2.4899902 6.8560028 6.8569946c1.9859924-1.5029907 4.3789978-2.4979858 6.9830017-2.7940063z" fill="#206d4a"/><path d="m30.0048065 48.352478v-5.93396c1.1399994-.3649902 2.2359924-.8280029 3.272995-1.3890381l3.8730011 3.8730469 2.4869995-2.4860229-6.8580017-6.8569946c-1.8110046 1.3709717-3.9580078 2.3179932-6.2960052 2.6989746v10.0939941" fill="#206d4a"/><path d="m48.3525085 19.0360718h-5.7310028c-.3850098-1.3879395-.9190063-2.7159424-1.5900116-3.9579468l3.8740082-3.875-2.4900055-2.4900513-6.8569946 6.8580322c1.5039978 1.9869995 2.4989929 4.3800049 2.7929993 6.9860229h10.0010071v-3.521057z" fill="#206d4a"/><path d="m5.9340057 8.7158813-2.4850006 2.4850464 3.8739929 3.8729858c-.6730042 1.2440186-1.2079926 2.5720215-1.5939941 3.9619751h-5.7290039v3.5220337h10c.2939911-2.6069946 1.2879944-4.9979858 2.7910004-6.9849854z" fill="#206d4a"/><path d="m42.4155121 39.6381836 2.4889984-2.4899902-3.8730011-3.8739624c.5599976-1.0369873 1.0240021-2.132019 1.3880005-3.2730103h5.9319916v-3.5139771h-10.0939942c-.3820038 2.3379517-1.32901 4.4849854-2.6990051 6.2939453z" fill="#206d4a"/></svg>