<svg width="256" height="256" viewBox="0 0 256 256" fill="none" xmlns="http://www.w3.org/2000/svg">
<path d="M108.543 103.236L109.783 102.084C110.138 102.261 110.492 102.35 110.847 102.438L111.201 104.033C111.378 104.033 111.644 104.033 111.821 104.033C111.998 104.033 112.264 104.033 112.441 104.033L112.884 102.438C113.239 102.35 113.593 102.261 113.948 102.173L115.099 103.413C115.454 103.236 115.897 103.059 116.251 102.793L115.897 101.198C116.163 100.932 116.428 100.755 116.694 100.401L118.289 100.844C118.555 100.489 118.732 100.135 118.998 99.7804L117.846 98.54C118.023 98.1856 118.112 97.8312 118.2 97.4768L119.795 97.1224C119.795 96.9452 119.795 96.6794 119.884 96.5022C119.884 96.325 119.884 96.0592 119.884 95.882L118.289 95.439C118.2 95.0846 118.112 94.7302 118.023 94.3758L119.264 93.2239C119.087 92.8695 118.909 92.4265 118.643 92.0721L117.049 92.4265C116.783 92.1607 116.606 91.8949 116.251 91.6291L116.694 90.0343C116.34 89.7685 115.985 89.5913 115.631 89.3255L114.391 90.4773C114.036 90.3001 113.682 90.2115 113.327 90.1229L112.973 88.528C112.796 88.528 112.53 88.5281 112.353 88.4395C112.176 88.4395 111.91 88.4395 111.733 88.4395L111.29 90.0343C110.935 90.1229 110.581 90.2115 110.226 90.3001L109.075 89.0597C108.72 89.2369 108.277 89.4141 107.923 89.6799L108.277 91.2747C108.011 91.5405 107.745 91.7177 107.48 92.0721L105.885 91.6291C105.619 91.9835 105.442 92.3379 105.176 92.6923L106.328 93.9327C106.151 94.2872 106.062 94.6416 105.973 94.996L104.379 95.3504C104.379 95.5276 104.379 95.7934 104.29 95.9706C104.29 96.1478 104.29 96.4136 104.29 96.5908L105.885 97.0338C105.973 97.3882 106.062 97.7426 106.151 98.097L104.91 99.2488C105.087 99.6033 105.265 100.046 105.53 100.401L107.125 100.046C107.391 100.312 107.568 100.578 107.923 100.844L107.48 102.438C107.834 102.882 108.189 103.059 108.543 103.236ZM112.264 92.7809C114.213 92.8695 115.808 94.4644 115.72 96.5022C115.631 98.4514 114.036 100.046 111.998 99.9577C110.049 99.8691 108.454 98.2742 108.543 96.2364C108.632 94.2871 110.226 92.7809 112.264 92.7809Z" fill="#002A53"/>
<path d="M92.7709 143.018C92.7709 143.904 92.5937 148.599 92.9481 155.51C94.6315 154.27 96.4035 153.03 97.9984 152.055C98.087 151.966 98.2642 151.966 98.3528 151.966C98.4414 151.966 98.53 151.966 98.6186 151.966C98.7958 152.055 98.973 152.144 99.0616 152.409L100.479 155.51C102.074 154.624 103.669 153.738 105.352 153.03L103.58 150.194C103.492 150.017 103.403 149.751 103.492 149.574C103.58 149.397 103.669 149.22 103.935 149.131C106.681 147.891 109.605 146.916 112.529 146.119C112.618 146.119 112.618 146.119 112.706 146.119C112.883 146.119 112.972 146.207 113.149 146.296C113.326 146.384 113.415 146.65 113.504 146.827L113.947 150.194C115.984 149.751 118.022 149.308 120.06 149.131L119.263 145.676C118.731 145.853 118.111 145.941 117.579 146.03C117.491 146.03 117.491 146.03 117.402 146.03C117.136 146.03 116.87 145.853 116.693 145.587C116.073 144.701 115.541 143.815 115.276 143.195H92.7709V143.018Z" fill="#002A53"/>
<path d="M105.353 150.017L109.428 156.75C110.491 156.307 111.643 155.953 112.884 155.51L111.909 147.713C109.694 148.333 107.479 149.131 105.353 150.017Z" fill="#002A53"/>
<path d="M121.036 153.828L120.327 150.461C118.2 150.727 116.074 151.081 114.036 151.613L114.479 155.068C116.606 154.448 118.821 154.094 121.036 153.828Z" fill="#002A53"/>
<path d="M93.3906 162.688C93.4792 164.194 93.6564 165.7 93.745 167.118C94.7196 166.143 95.7829 165.169 96.8461 164.283L94.188 161.802C93.9222 162.156 93.6564 162.422 93.3906 162.688Z" fill="#002A53"/>
<path d="M157.45 167.117C157.627 165.7 157.716 164.194 157.804 162.776C157.45 162.51 157.184 162.244 156.918 161.979L154.438 164.459C155.501 165.168 156.475 166.143 157.45 167.117Z" fill="#002A53"/>
<path d="M118.554 201.584L125.642 216.292L132.73 201.584L125.642 186.521L118.554 201.584ZM126.262 197.065C126.085 197.508 125.996 197.862 125.908 198.217C126.262 197.774 126.971 197.331 128.477 197.242C129.452 197.242 129.806 196.976 129.895 196.888C129.983 196.799 129.983 196.711 129.983 196.711L130.338 196.622C130.338 196.622 130.781 197.419 130.338 198.128C129.983 198.66 129.363 198.926 128.3 198.926H128.211C127.945 198.926 127.768 198.926 127.591 198.926C126.794 198.926 126.351 199.014 126.085 199.103C127.945 200.786 128.388 202.204 128.477 203.179V203.622L128.211 203.356C127.945 203.09 127.414 202.558 126.882 202.204C127.414 203.09 128.3 204.33 128.388 205.659V206.102L128.034 205.748C128.034 205.748 127.237 204.951 126.616 204.419C127.059 205.305 127.768 206.9 127.857 208.229L127.502 208.317C127.502 208.317 127.059 207.431 126.616 206.811C126.971 207.786 127.325 209.203 127.237 210.444L126.882 210.533C126.882 210.533 126.616 209.824 126.351 209.203C126.439 210.178 126.528 211.684 125.908 212.925L125.73 213.279L125.553 212.925C124.933 211.596 124.933 210.178 125.11 209.203C124.844 209.824 124.579 210.444 124.579 210.444L124.224 210.355C124.136 209.115 124.49 207.697 124.844 206.634C124.313 207.343 123.87 208.229 123.87 208.317L123.515 208.229C123.604 206.811 124.313 205.216 124.756 204.33C123.958 205.039 123.338 205.748 123.338 205.748L122.984 206.102L123.072 205.571C123.161 204.33 123.958 203.001 124.579 202.204C123.958 202.647 123.338 203.356 123.338 203.356L123.072 203.622V203.179C123.072 202.293 123.515 200.875 125.376 199.103C125.11 199.014 124.667 198.926 123.87 198.926C123.693 198.926 123.427 198.926 123.161 198.926H123.072C122.009 198.926 121.3 198.66 121.035 198.128C120.592 197.508 121.035 196.711 121.035 196.622L121.3 196.799C121.3 196.799 121.3 196.888 121.3 196.976C121.389 197.154 121.655 197.331 122.629 197.331C123.781 197.419 124.49 197.774 124.933 198.04C124.313 196.711 124.401 195.47 124.933 193.964C125.287 192.724 125.199 192.192 125.199 192.103L125.465 192.015C127.237 194.318 126.705 195.825 126.262 197.065Z" fill="#002A53"/>
<path d="M150.185 157.016C148.591 156.042 146.907 155.156 145.135 154.358L143.274 157.371C145.135 158.168 146.996 159.143 148.679 160.206L150.185 157.016Z" fill="#002A53"/>
<path d="M139.287 147.713L138.312 155.51C139.464 155.864 140.705 156.307 141.857 156.75L145.932 150.017C143.806 149.131 141.591 148.333 139.287 147.713Z" fill="#002A53"/>
<path d="M104.732 198.039C105.087 197.419 108.808 191.66 108.897 191.572C108.985 191.394 109.163 191.394 109.34 191.394C109.34 191.394 109.428 191.394 109.606 191.483L125.111 163.928C125.199 163.751 125.377 163.485 125.731 163.485C125.731 163.485 125.731 163.485 125.82 163.485C125.908 163.485 125.997 163.485 125.997 163.485C126.706 163.485 128.123 163.13 128.655 161.801C128.832 161.447 128.921 161.004 128.921 160.65C128.921 158.878 127.503 157.46 125.731 157.46C123.959 157.46 122.541 158.878 122.541 160.65C122.541 161.004 122.63 161.447 122.807 161.801C122.896 161.979 122.896 162.067 122.807 162.244L108.099 190.597C108.365 190.774 108.365 191.04 108.276 191.306C108.011 191.483 104.998 197.596 104.732 198.039ZM125.731 158.7C126.706 158.7 127.414 159.498 127.414 160.384C127.414 161.358 126.617 162.067 125.731 162.067C124.756 162.067 124.048 161.27 124.048 160.384C123.959 159.409 124.756 158.7 125.731 158.7Z" fill="#002A53"/>
<path d="M108.012 157.372L106.151 154.271C104.379 155.068 102.695 155.954 101.101 156.929L102.607 160.207C104.29 159.144 106.151 158.169 108.012 157.372Z" fill="#002A53"/>
<path d="M130.249 153.828C132.464 154.094 134.679 154.448 136.806 155.068L137.249 151.613C135.211 151.081 133.084 150.727 130.958 150.461L130.249 153.828Z" fill="#002A53"/>
<path d="M121.389 90.3886C120.857 89.857 120.68 89.2368 119.971 88.4394C119.351 87.7306 118.908 87.1989 118.376 87.0217C116.516 86.4015 115.718 87.0217 115.718 87.0217C115.187 86.9331 114.212 86.8445 113.769 87.1989C113.592 87.3761 113.503 87.4648 113.681 87.4648C114.212 87.3761 114.832 87.642 115.275 87.7306C115.984 87.5534 116.604 87.8192 117.225 88.085C117.402 88.1736 117.579 88.528 117.313 88.4394C117.225 88.4394 117.047 88.4394 117.047 88.4394C116.161 88.1736 115.718 88.4394 115.453 88.6166C115.453 88.6166 115.453 88.6166 115.541 88.6166C115.63 88.6166 115.718 88.7052 115.807 88.7052C116.25 88.8824 116.87 88.8824 117.136 89.0596C117.756 89.3254 118.111 89.414 119.528 90.8316C120.237 91.5404 120.414 92.1606 121.389 92.6922C121.478 92.7808 121.655 92.8694 121.832 92.958C122.009 93.0466 122.275 93.1353 122.541 93.2239C123.515 93.6669 124.49 94.1985 124.49 94.1985C125.11 94.3757 125.73 94.8187 126.085 94.4643C126.351 94.1099 126.528 93.4897 126.528 93.2239C126.528 92.8694 126.616 92.6036 126.705 92.3378C126.439 92.6036 126.085 93.2238 125.996 93.1352C125.642 92.072 124.756 91.2746 124.756 91.2746C124.579 91.7176 124.49 91.8062 123.958 91.8062C122.984 91.8948 122.098 91.186 121.389 90.3886Z" fill="#002A53"/>
<path d="M132.287 98.7172C131.578 98.8944 130.603 98.7172 129.363 98.2742C129.009 98.1856 128.654 98.0084 128.3 97.9198C127.768 97.654 127.237 97.8312 126.705 97.7426C125.819 97.654 124.933 98.2742 124.844 98.3628C124.756 98.4514 124.756 98.4514 124.667 98.4514C123.515 98.7172 123.427 99.2488 123.427 99.5146C123.427 99.6032 123.427 99.6032 123.427 99.6918C123.515 99.7804 123.515 99.7804 123.604 99.6918C123.87 99.5146 124.136 99.426 124.401 99.3374C124.49 99.3374 124.667 99.3374 124.667 99.3374H124.756C124.844 99.3374 125.022 99.3374 125.11 99.3374C125.11 99.3374 125.199 99.3374 125.465 99.3374L126.085 99.2488C126.882 99.0716 127.237 99.1602 127.059 99.2488C126.794 99.3374 126.616 99.5146 126.616 99.5146C125.819 99.7804 125.553 99.9576 125.553 100.135C125.553 100.135 125.553 100.223 125.553 100.312L125.642 100.401C125.73 100.401 126.351 100.223 126.794 100.312C126.971 100.312 127.68 100.489 128.477 100.489C128.743 100.489 128.92 100.489 129.186 100.489C130.869 100.578 132.021 100.844 132.021 100.844C132.73 101.198 133.793 101.287 134.059 101.287C134.148 101.287 134.148 101.287 134.148 101.287H134.236C134.413 101.287 134.768 101.287 134.856 101.021C135.034 100.755 134.945 99.9576 134.768 99.426C134.679 99.1602 134.591 98.983 134.591 98.7172C134.325 97.4768 134.148 96.2363 134.148 96.2363C134.148 96.1477 134.148 96.1477 134.059 96.1477C133.439 95.7933 132.907 95.0845 132.553 94.5529L132.376 94.3757C132.376 94.3757 132.287 94.2871 132.198 94.2871C132.11 94.2871 132.11 94.2871 132.11 94.3757L131.844 94.9959C131.844 94.9959 132.11 95.7047 132.198 97.0338C132.287 98.0084 132.287 98.097 132.198 98.3628C132.553 98.6286 132.464 98.7172 132.287 98.7172Z" fill="#002A53"/>
<path d="M167.462 199.456L167.107 199.191L167.462 199.102C169.765 198.57 170.208 196.621 170.297 195.469C170.474 192.634 168.968 189.976 167.196 189.09C167.993 191.128 167.639 192.9 166.221 194.052C165.956 194.318 165.07 194.583 164.184 194.583C163.209 194.583 161.526 194.229 160.994 192.102C160.639 190.596 160.462 188.913 161.437 186.875C160.285 188.027 159.222 189.444 158.424 190.773C156.918 193.254 155.766 200.608 154.526 202.912C153.108 205.393 150.628 205.747 149.387 205.747C149.298 205.747 148.855 205.747 148.767 205.747L147.881 205.57L148.324 206.367C149.564 208.405 151.514 209.646 153.817 209.646C154.703 209.646 155.678 209.468 156.564 209.114C159.222 208.051 160.551 206.19 161.26 204.95L161.437 204.595L161.614 204.95C162.146 206.279 162.943 207.165 163.918 208.228C164.538 208.848 165.158 209.646 165.956 210.62C167.462 212.747 167.55 214.696 167.285 215.936C167.196 216.291 167.107 216.645 167.019 216.911C168.436 215.848 170.12 213.898 170.829 210.354C171.36 207.696 171.183 205.304 170.297 203.178C169.322 200.874 167.993 199.811 167.462 199.456Z" fill="#002A53"/>
<path d="M64.8617 121.133C66.1021 121.133 67.1653 121.576 67.9627 122.551C68.7602 123.525 69.1146 124.411 68.9374 125.209C68.7602 126.183 67.6969 127.158 67.3425 127.513C67.6083 127.778 68.4058 128.31 69.6462 128.31C71.7726 128.31 73.013 126.804 73.6333 125.918L73.7219 125.74L73.8991 125.918C75.5825 127.778 77.7975 128.753 80.5442 128.753H80.7214C83.8224 128.664 85.7717 127.867 86.6577 127.513C85.4173 127.335 82.4048 126.272 79.0379 121.222C77.7089 119.184 76.6457 118.032 75.8483 117.501L75.6711 117.323L75.8483 117.146C77.7975 115.728 78.9493 113.868 79.2151 111.83C79.5696 109.615 78.8607 108.02 78.5949 107.577C78.5063 107.311 78.2405 106.868 78.0633 106.603C77.9747 106.868 77.8861 107.223 77.7089 107.577V107.666C77.4431 108.286 76.7343 109.969 72.6586 110.855C68.4058 111.741 67.4311 112.982 67.0767 113.868L66.9881 113.956H66.8109C66.3679 113.868 65.9249 113.868 65.3933 113.868C63.1783 113.868 57.8622 114.399 56.4445 119.716C55.2927 124.057 56.6217 128.753 57.685 130.436C57.5964 129.107 57.5078 126.006 59.3684 123.437C60.6974 121.842 62.3808 121.133 64.8617 121.133Z" fill="#002A53"/>
<path d="M196.346 119.095C194.928 113.868 189.612 113.248 187.397 113.248C186.954 113.248 186.423 113.248 185.98 113.336H185.802L185.714 113.248C185.359 112.362 184.473 111.121 180.132 110.235C176.056 109.349 175.347 107.666 175.082 107.046V106.957C174.993 106.691 174.816 106.248 174.727 105.982C174.55 106.248 174.284 106.691 174.196 106.957C174.018 107.4 173.31 109.083 173.575 111.21C173.93 113.336 175.082 115.108 176.942 116.526L177.119 116.703L176.942 116.88C176.145 117.412 175.082 118.564 173.753 120.602C170.386 125.563 167.373 126.627 166.133 126.892C167.019 127.335 169.057 128.133 172.069 128.133C172.158 128.133 172.246 128.133 172.246 128.133C174.904 128.133 177.208 127.158 178.891 125.298L179.069 125.12L179.157 125.298C179.777 126.184 181.018 127.69 183.144 127.69C184.385 127.601 185.182 127.07 185.448 126.892C185.005 126.538 183.942 125.563 183.853 124.589C183.676 123.791 184.03 122.905 184.828 121.931C185.448 121.222 186.688 120.69 188.106 120.513C188.195 120.513 188.283 120.513 188.372 120.513C189.524 120.513 191.561 120.868 193.156 122.197C194.84 123.526 195.549 125.918 195.726 126.449C196.523 124.5 196.966 121.754 196.346 119.095Z" fill="#002A53"/>
<path d="M135.743 136.549C136.186 137.258 136.629 138.055 136.895 138.941H143.717C143.806 138.764 144.692 136.992 144.249 135.486C143.363 132.385 136.363 135.22 135.743 136.549Z" fill="#002A53"/>
<path d="M188.283 122.197C188.195 122.197 188.195 122.197 188.106 122.197C189.701 123.703 189.701 126.096 188.815 127.602C186.157 131.677 180.752 132.032 175.082 132.032C172.335 132.032 168.791 131.412 167.373 131.146C162.766 130.26 158.956 128.488 156.032 126.007C153.551 124.058 152.311 121.666 152.311 121.666L152.134 121.4H152.4C152.843 121.4 153.286 121.488 153.729 121.488C159.133 121.488 161.526 118.653 162.234 117.501C162.589 116.97 162.766 116.349 162.943 115.552C161.791 116.881 159.576 117.767 157.539 117.767C157.361 117.767 157.184 117.767 157.007 117.767C151.248 117.324 147.349 114.932 145.134 112.894C145.046 113.603 144.868 114.134 144.868 114.223L144.78 114.577C145.4 115.552 145.932 116.792 146.02 117.944C146.02 118.299 144.425 115.463 140.527 111.831C139.73 111.211 138.844 110.59 137.78 110.059C137.692 111.211 136.806 112.008 136.363 112.274C135.743 112.717 135.034 112.983 134.148 112.983C131.49 112.983 129.806 110.413 129.718 109.882C129.718 109.882 127.68 112.451 129.806 115.729C130.515 116.881 132.198 117.59 133.882 117.944H134.059C134.059 117.944 131.401 121.045 132.021 123.703C132.907 127.513 136.806 128.222 138.223 128.399C138.046 128.222 137.869 127.956 137.692 127.513C137.337 126.539 137.515 125.475 138.312 124.058C139.287 122.109 140.261 120.159 140.261 118.919V118.387C140.261 118.387 141.59 119.362 143.096 121.843C144.071 123.792 147.881 130.348 153.64 135.665C154.083 136.108 154.792 136.639 155.501 137.171C156.032 137.614 156.564 138.057 156.918 138.323C157.716 139.031 158.425 139.74 159.133 140.36H128.3C127.768 140.803 127.414 141.158 126.971 141.512H160.108V141.689C160.108 142.221 160.108 142.841 160.108 143.373V143.462C160.108 153.739 159.754 161.802 159.045 168.27V168.359L159.133 168.447V168.89V168.979C157.804 180.763 155.235 186.876 151.779 194.319C150.893 196.357 149.653 198.395 148.324 200.432L147.792 201.23L147.615 201.407C146.109 203.622 144.337 205.748 142.388 207.963L142.21 208.141L125.819 175.89L109.428 208.141L109.251 207.963C107.213 205.66 105.352 203.356 103.757 201.141L103.137 200.255L103.049 200.167C101.72 198.217 100.656 196.179 99.7703 194.319C94.5428 182.978 91.3531 174.561 91.2645 144.348C91.2645 143.462 91.2645 142.576 91.2645 141.601V141.424H114.478C114.301 141.069 114.212 140.626 114.124 140.272H91.6189C92.5049 139.474 93.391 138.766 94.277 138.234C94.72 137.968 95.163 137.702 95.6946 137.437C97.9096 136.108 100.39 134.601 101.277 133.538L101.454 133.272L101.542 133.538C102.428 136.019 104.998 137.259 106.061 137.348C106.15 137.437 106.415 137.437 106.593 137.437C106.681 137.437 106.77 137.437 106.77 137.437C104.289 134.69 105.264 130.792 105.529 129.728C103.669 129.728 103.049 127.69 103.049 127.69L102.96 127.513H103.137C107.39 127.07 107.656 123.792 107.656 123.703L107.744 123.349L108.01 123.615C109.073 125.121 107.301 129.551 106.593 131.323C106.15 132.829 106.327 133.981 106.504 134.601C106.681 133.361 107.124 132.121 107.744 130.526C108.63 128.222 110.048 125.121 109.339 122.64C105.441 122.729 101.542 122.463 98.5299 121.4C98.3527 121.311 98.0868 121.134 98.0868 121.134C98.0868 121.045 100.39 117.767 105.175 115.02C102.34 116.349 98.8843 117.767 95.5174 118.299C95.163 118.387 94.72 118.387 94.277 118.387C94.0112 118.387 93.834 118.387 93.6568 118.387C93.4796 118.387 93.391 118.387 93.3024 118.387C91.4417 118.387 90.0241 117.856 88.8723 116.792C88.8723 116.792 91.3531 117.235 92.6822 117.235C93.1252 117.235 93.5682 117.235 94.0112 117.147C97.2894 116.792 101.188 115.02 105.352 113.071C106.238 112.717 107.036 112.274 107.922 111.919C107.922 111.654 107.833 111.299 107.833 111.033C107.833 110.856 107.833 110.679 107.833 110.59C106.77 111.033 105.529 111.654 104.643 112.097C100.568 114.046 96.935 115.729 93.5682 116.084C92.948 116.172 92.4163 116.172 91.8847 116.172C89.3153 116.172 87.8977 115.641 87.1888 114.046C87.1002 113.869 87.1002 113.691 87.0116 113.514C86.3914 110.502 87.5433 107.312 89.4925 106.515C90.2013 106.249 90.8215 106.072 91.4417 106.072C94.0998 106.072 94.8972 107.489 95.4288 108.375C95.6946 108.907 95.8718 109.438 95.9604 109.882C96.049 109.616 96.1376 109.173 96.2262 108.641C96.492 100.933 88.4293 100.135 88.3407 100.135H88.0749L88.1635 99.8695C88.5179 99.0721 89.8469 97.3001 94.4542 93.756C97.1122 91.6296 99.0615 89.1487 99.5045 87.1109C99.7703 84.7187 97.4666 82.7694 96.049 82.2378C93.1252 81.086 89.9355 81.6176 88.9609 82.415C88.7837 85.0731 87.2775 87.6425 83.1132 92.427C80.1893 95.7939 78.9489 98.7177 78.4173 100.49L78.3287 100.933L78.1515 100.49C75.7592 95.2622 71.0634 94.7306 69.1141 94.7306H69.0255C67.6079 94.7306 66.7219 94.9078 66.1903 95.0851C67.4307 95.4395 70.2659 97.0343 70.709 103.679C70.8862 106.692 71.595 108.287 72.3038 109.35C72.3038 109.35 72.3924 109.35 72.481 109.35C76.1136 109.261 77.2655 104.388 77.2655 104.211L77.4427 103.414L78.0629 103.945C78.0629 103.945 79.5691 105.363 80.3665 107.223V107.312C82.1386 111.299 81.6069 114.932 78.7717 117.678C79.3919 118.387 80.1007 119.362 80.8981 120.602V120.691C81.3411 121.311 81.6956 121.843 82.1386 122.374C84.8852 124.412 87.6319 125.21 91.0873 125.21C92.5935 125.21 94.0998 125.032 95.606 124.767L96.1376 124.678L95.7832 125.032C91.0873 130.171 85.5054 132.741 78.0629 133.272C77.0883 133.361 76.2023 133.361 75.3162 133.361C70.4432 133.361 66.9877 132.298 64.9498 130.171C63.1778 128.311 63.0892 126.096 63.1778 125.298C63.2664 124.412 63.4436 123.703 63.6208 123.26C62.3804 123.438 61.4944 124.146 60.8742 124.944C59.9882 126.361 59.1908 128.576 59.811 130.969C60.254 132.829 61.4944 134.247 63.4436 135.31C64.3296 135.665 65.3043 135.93 66.2789 136.196L66.6333 136.285V136.196C62.2918 139.297 61.7602 144.702 61.7602 144.879L61.6716 146.297L62.5576 145.234C62.5576 145.234 65.1271 142.132 70.0887 141.424C73.81 140.892 77.7971 138.943 78.3287 138.588C78.7717 138.323 78.8603 138.677 78.5945 138.943C78.3287 139.209 74.7846 141.778 72.481 143.196C71.4178 143.905 70.5318 144.436 69.5571 145.056C66.8991 147.183 65.6587 151.79 66.8105 155.423C67.0763 156.309 67.5193 157.106 68.0509 157.726C69.7343 152.587 77.1769 147.98 81.607 145.765L81.8728 145.677V145.942C81.7842 149.398 82.2272 151.524 83.379 153.03C84.265 154.271 85.7712 154.448 86.923 154.448C87.5433 154.448 88.0749 154.36 88.4293 154.271C87.6319 153.651 85.8598 151.701 87.1002 147.36C87.7205 145.234 88.7837 143.462 90.0241 141.867C90.0241 153.208 90.2899 161.625 91.0873 168.447C91.7075 174.118 92.5935 178.548 93.834 182.712C92.0619 178.636 88.0749 173.232 78.6831 169.156L78.1515 168.979L78.6831 168.89C79.6577 168.713 80.7209 168.359 81.7842 167.916C82.936 167.473 84.3536 166.852 85.5054 166.852C85.594 166.852 85.594 166.852 85.6826 166.852C87.7205 166.941 88.7837 168.536 89.3153 169.51C89.3153 168.093 89.0495 165.169 87.0116 163.042C85.594 161.536 83.5562 160.827 80.9867 160.827C80.8095 160.827 80.6323 160.827 80.4551 160.827H80.2779V160.65C80.4551 159.764 80.4551 158.347 79.8349 156.929C79.0375 155.423 77.5313 154.36 75.3162 153.739L74.253 153.473L74.8732 154.448C74.9618 154.537 76.2023 156.486 75.4934 158.258C74.9618 159.764 73.7214 160.739 72.1266 160.916C71.7722 161.005 71.3292 161.005 70.9748 161.005C68.5825 161.005 66.5447 159.941 65.3929 158.081C63.7094 155.511 63.355 152.942 64.241 149.575C64.4182 148.778 64.7726 148.157 64.9498 147.714C63.355 149.043 59.2793 154.182 62.6462 170.042C65.6587 184.218 62.912 190.686 61.9374 192.281C61.7602 192.547 61.583 192.813 61.4058 192.99H62.2918C62.7348 192.99 66.8991 192.901 69.3799 189.977C70.7976 188.294 71.4178 186.079 71.152 183.332V182.978L71.7722 183.332C73.2784 184.218 75.6706 185.459 76.6453 188.56C76.8225 189.003 76.8225 189.357 76.9111 189.623C77.0883 189.446 77.2655 189.091 77.4427 188.737C77.8857 187.762 80.1007 182.446 76.3795 177.219L76.1136 176.864L76.5567 176.953C77.7971 177.307 82.2272 178.548 86.48 181.294C90.9987 184.218 93.9226 187.674 95.163 191.749C95.163 191.572 95.163 191.484 95.163 191.306C95.2516 190.066 95.3402 187.94 94.8086 185.636C95.8718 188.737 97.2008 191.749 98.7071 195.116C101.631 201.407 106.593 207.875 113.504 214.254C118.908 219.304 123.87 222.671 125.199 223.646L125.819 224L126.351 223.646C127.768 222.76 132.641 219.304 138.046 214.254C144.957 207.875 149.919 201.407 152.843 195.116C153.994 192.635 154.969 190.42 155.855 188.117C155.678 189.623 155.766 190.952 155.855 191.838C155.855 192.015 155.855 192.192 155.855 192.281C157.007 188.205 159.931 184.75 164.538 181.826C168.791 179.168 173.221 177.839 174.461 177.485L174.904 177.396L174.639 177.75C170.917 182.978 173.132 188.294 173.575 189.269C173.753 189.623 173.93 189.977 174.107 190.155C174.107 189.889 174.196 189.534 174.373 189.091C175.347 185.99 177.651 184.661 179.246 183.864L179.866 183.509V183.864C179.6 186.61 180.221 188.826 181.638 190.509C184.119 193.433 188.283 193.521 188.726 193.521H189.612C189.435 193.344 189.258 193.078 189.081 192.813C188.106 191.129 185.359 184.75 188.372 170.574C189.524 164.992 190.587 157.283 188.638 151.879C187.929 149.841 186.954 148.778 186.334 148.246C186.511 148.6 186.688 149.043 186.866 149.752C187.752 153.208 187.131 156.752 185.182 158.878C184.03 160.207 181.727 161.536 179.512 161.536C178.271 161.536 176.499 161.093 175.525 158.878C174.816 157.195 176.056 155.246 176.145 154.98L176.765 154.005L175.613 154.271C173.398 154.891 171.892 155.954 171.095 157.461C170.386 158.79 170.474 160.207 170.652 161.182V161.359H170.474C170.297 161.359 170.12 161.359 169.943 161.359C167.373 161.359 165.335 162.068 163.918 163.574C161.88 165.701 161.614 168.713 161.614 170.042C162.057 169.067 163.209 167.561 165.247 167.384C165.335 167.384 165.335 167.384 165.424 167.384C166.576 167.384 167.994 168.004 169.145 168.447C170.209 168.89 171.272 169.245 172.246 169.422L172.778 169.51L172.335 169.688C164.627 173.054 160.551 177.307 158.336 181.029C160.551 173.054 161.526 163.397 161.526 146.12C161.526 144.968 161.526 143.727 161.526 142.487C163.652 145.145 164.715 147.714 164.361 150.993C164.538 150.638 164.804 150.107 164.892 149.309C165.601 142.487 157.804 136.994 156.475 135.93C155.058 134.69 153.64 133.538 153.286 133.095C148.856 128.488 147.792 126.007 147.084 124.855C150.185 127.956 155.766 129.551 155.855 129.551H156.032V129.728C156.032 130.969 155.412 132.032 155.146 132.475C162.146 136.373 166.044 140.803 166.753 145.499C167.462 150.284 164.627 153.917 163.298 155.423L164.184 155.246C167.639 154.537 168.791 153.208 169.588 151.17C170.12 149.752 170.12 148.069 169.411 146.12L169.234 145.588L169.677 145.942C171.272 147.271 173.753 149.043 177.385 151.436C182.17 154.537 182.613 156.752 182.701 158.081C183.41 157.372 183.942 156.486 184.208 155.423C185.271 152.056 184.562 148.955 182.081 146.208C180.929 144.968 179.955 144.259 178.626 143.284C177.297 142.31 175.613 141.158 173.31 139.031C173.31 139.031 172.778 138.411 173.487 138.766C174.196 139.12 177.651 140.006 180.664 140.715L181.993 140.981C186.511 142.044 188.017 144.613 188.549 145.765C188.726 145.056 188.903 143.816 188.815 142.398C188.638 139.652 187.397 137.614 185.094 136.462L184.651 136.196L185.182 136.108C187.929 135.665 190.144 134.867 191.827 133.538C194.131 131.323 194.663 128.576 193.422 125.298C193.156 125.032 192.005 122.197 188.283 122.197ZM134.148 201.939L126.262 218.241C126.174 218.507 125.908 218.596 125.642 218.596C125.376 218.596 125.11 218.418 125.022 218.241L117.225 201.939C117.136 201.761 117.136 201.496 117.225 201.318L125.022 184.661C125.11 184.395 125.376 184.218 125.642 184.218C125.908 184.218 126.174 184.395 126.262 184.661L134.148 201.318C134.236 201.584 134.236 201.761 134.148 201.939Z" fill="#002A53"/>
<path d="M101.897 205.66C101.808 205.66 101.454 205.66 101.277 205.66C100.036 205.66 97.3783 205.394 96.1378 202.824C94.6316 199.723 95.6062 196.002 92.4166 190.509C91.1762 188.382 89.7585 186.876 88.6067 185.901C90.2015 188.382 90.0243 190.243 89.5813 192.015C89.0497 194.23 87.3663 194.496 86.3917 194.496C85.5057 194.496 84.7082 194.23 84.3538 193.964C82.9362 192.812 82.5818 191.04 83.3792 189.002C81.6958 189.888 80.101 192.546 80.2782 195.382C80.3668 196.534 80.8098 198.483 83.1134 199.014L83.4678 199.103L83.1134 199.369C82.5818 199.723 81.2528 200.786 80.3668 202.913C79.4808 205.039 79.3036 207.432 79.8352 210.09C80.544 213.722 82.2274 215.671 83.645 216.646C83.5564 216.38 83.3792 216.115 83.3792 215.672C83.1134 214.342 83.202 212.393 84.7082 210.355C85.4171 209.381 86.1259 208.672 86.7461 207.963C87.7207 206.9 88.5181 206.014 89.0497 204.685L89.2269 204.33L89.4041 204.685C90.1129 206.014 91.442 207.786 94.1 208.849C94.986 209.204 95.9606 209.381 96.8467 209.381C99.0617 209.381 101.1 208.229 102.251 206.103L102.694 205.305L101.897 205.66Z" fill="#002A53"/>
<path d="M119.085 138.587C118.642 135.752 117.667 133.271 116.604 131.233C114.035 135.486 115.807 140.714 116.958 143.195L119.085 138.587Z" fill="#002A53"/>
<path d="M145.223 89.1484H145.046L145.223 89.237C145.666 89.5914 146.464 90.566 146.995 90.566C147.35 90.566 147.527 90.4774 147.704 90.3888C147.97 89.5914 147.527 87.6421 146.907 87.0219L146.729 86.8447V87.1105C146.729 87.4649 146.729 87.9079 146.464 88.351C146.198 88.794 145.755 89.0598 145.223 89.1484Z" fill="#002A53"/>
<path d="M99.8585 161.978C100.301 161.712 100.744 161.358 101.187 161.092L97.9978 153.915C96.403 154.978 94.631 156.219 93.0361 157.459C93.0361 157.902 93.1247 158.345 93.1247 158.788L98.0864 163.484C98.7066 162.864 99.3268 162.332 99.8585 161.978Z" fill="#002A53"/>
<path d="M158.159 157.194C156.742 156.131 154.97 154.89 153.286 153.827L150.008 161.004C150.894 161.624 151.78 162.156 152.577 162.776L153.286 163.308L158.159 158.434C158.159 158.08 158.159 157.637 158.159 157.194Z" fill="#002A53"/>
<path d="M158.426 143.018H132.554L131.934 145.764L131.313 149.042C133.351 149.308 135.389 149.663 137.427 150.106L137.87 146.65C137.87 146.473 138.047 146.207 138.224 146.119C138.402 146.03 138.49 145.941 138.667 145.941C138.756 145.941 138.756 145.941 138.845 145.941C141.768 146.65 144.692 147.713 147.439 148.954C147.616 149.042 147.793 149.22 147.882 149.397C147.971 149.574 147.882 149.84 147.793 150.017L146.021 152.941C147.705 153.65 149.3 154.536 150.894 155.51L152.312 152.321C152.401 152.144 152.578 151.966 152.755 151.878C152.844 151.878 152.932 151.878 153.021 151.878C153.198 151.878 153.287 151.878 153.375 151.966C155.059 152.941 156.831 154.181 158.337 155.245C158.603 148.511 158.426 143.904 158.426 143.018Z" fill="#002A53"/>
<path d="M120.681 145.055L121.655 149.397V149.485L122.541 153.65C123.605 153.561 124.579 153.561 125.642 153.561C126.617 153.561 127.68 153.561 128.655 153.65L130.427 145.41L130.87 143.018H124.756C123.516 143.904 122.098 144.612 120.681 145.055Z" fill="#002A53"/>
<path d="M141.769 191.306C141.946 191.306 142.123 191.394 142.212 191.571C142.212 191.66 144.515 195.381 145.933 197.685L146.553 198.571L146.464 198.394C145.578 196.533 143.009 191.217 143.009 191.217C142.92 190.951 143.009 190.685 143.186 190.597H143.275L129.364 163.573C128.567 164.636 127.415 164.991 126.795 165.079L141.503 191.571C141.68 191.306 141.769 191.306 141.769 191.306Z" fill="#002A53"/>
<path d="M119.44 63.9849C119.883 64.1621 120.415 64.3393 120.858 64.6051C121.124 64.7823 121.655 65.0481 122.364 65.4911L122.896 64.7823C122.364 64.4279 121.833 64.1621 121.301 63.8963C120.769 63.6305 120.149 63.3647 119.618 63.1875L119.44 63.9849Z" fill="#002A53"/>
<path d="M122.541 63.0993L123.339 61.7702C122.984 61.593 122.63 61.4158 122.275 61.2386C121.921 61.0614 121.567 60.8842 121.212 60.707L120.681 62.1246C121.035 62.3019 121.478 62.4791 121.832 62.6563C122.098 62.9221 122.275 63.0107 122.541 63.0993Z" fill="#002A53"/>
<path d="M115.984 65.0484C117.225 65.3142 118.288 65.6686 119.44 66.2002L119.794 65.4028C118.111 64.694 116.693 64.3396 115.984 64.251V65.0484Z" fill="#002A53"/>
<path d="M126.175 63.6309L125.111 64.7827C125.554 65.1371 125.997 65.5801 126.352 65.9345L127.769 64.9599C127.149 64.5169 126.706 64.0739 126.175 63.6309Z" fill="#002A53"/>
<path d="M120.503 66.732C121.478 67.2636 122.364 67.8838 123.161 68.5926L123.781 68.061C122.984 67.2636 121.832 66.4662 120.857 65.9346L120.503 66.732Z" fill="#002A53"/>
<path d="M118.287 63.6305L118.465 62.7445C117.49 62.4787 116.604 62.3015 116.072 62.2129V63.0989C116.515 63.1875 117.313 63.3647 118.287 63.6305Z" fill="#002A53"/>
<path d="M127.857 45.2902C127.68 45.7332 127.591 45.9991 127.502 46.3535C126.882 48.2141 126.971 49.5431 126.971 49.9861C127.237 50.5177 127.502 51.1379 127.768 51.7582C128.92 55.2136 128.566 59.2007 126.705 62.8334C127.237 63.2764 127.768 63.6308 128.211 64.0738C128.92 61.5929 129.806 58.4919 131.312 56.3654C132.021 55.3908 133.439 54.3276 135.034 52.9986L135.565 52.5556C136.097 52.1126 136.806 51.581 137.426 51.0493C137.426 50.6063 137.337 50.3405 137.337 50.2519L135.831 50.8721L136.451 49.3659C137.603 46.4421 137.426 43.9612 137.16 42.898C135.831 45.0244 134.768 45.6447 134.768 45.6447L134.413 45.8219L134.502 45.4675C134.502 45.3789 136.363 39.8855 134.059 35.9871C134.236 38.4679 133.084 40.683 132.996 40.7716L131.844 42.898H131.667V40.4172C131.667 39.3539 131.49 33.772 127.414 32C128.832 34.0378 129.718 37.6705 129.452 38.2021C129.452 38.2907 129.363 38.2907 129.363 38.2907H129.275C129.009 38.1135 128.743 38.0249 128.654 38.0249C129.275 39.7969 129.009 41.3032 128.743 42.2778C128.566 43.5182 128.211 44.4928 127.857 45.2902Z" fill="#002A53"/>
<path d="M117.756 61.3272L118.021 59.7323C117.401 59.5551 116.692 59.4665 116.072 59.3779V61.0614C116.515 61.0614 117.047 61.15 117.756 61.3272Z" fill="#002A53"/>
<path d="M108.985 52.1132C109.074 52.1132 109.074 52.1132 108.985 52.1132C109.074 52.1132 109.163 52.0245 109.163 51.9359C109.34 51.6701 109.517 51.3157 110.314 51.0499C110.403 51.0499 110.492 51.0499 110.492 51.0499C110.757 51.0499 111.023 51.1385 111.2 51.4043C111.466 51.6701 111.555 52.1131 111.466 52.4676C111.378 53.1764 110.669 53.5308 110.049 53.5308C109.871 53.5308 109.694 53.5308 109.517 53.4422C109.34 53.6194 109.428 53.8852 109.428 54.0624C109.606 54.7712 110.137 55.48 110.314 55.48C112.175 55.1256 112.795 53.9738 113.416 52.7334C113.593 52.4676 113.681 52.1132 113.859 51.8473C114.833 50.1639 116.074 49.8095 116.694 49.6323C117.403 49.4551 118.111 49.2779 118.732 49.2779C119.529 49.2779 120.326 49.4551 120.947 49.8095C122.719 50.7841 123.162 52.7334 123.162 52.7334C123.782 55.48 123.073 57.9608 121.833 59.9101C122.098 59.9987 122.276 60.1759 122.541 60.2645C123.073 60.5303 123.605 60.7961 124.136 61.1505L124.579 61.4163L123.339 63.4541C123.605 63.6314 123.871 63.8086 124.136 63.9858C124.491 63.5428 124.668 63.1884 124.757 63.1884C126.883 59.7329 127.415 55.7458 126.263 52.2904C125.377 49.8095 123.782 47.8603 121.833 47.1515C120.681 46.7085 119.529 46.5312 118.466 46.5312C116.605 46.5312 115.099 47.1515 114.213 47.5945C113.15 48.2147 111.555 48.8349 111.466 48.8349C109.517 49.3665 108.099 50.0753 107.391 50.9613C108.277 51.2271 108.808 51.8473 108.985 52.1132Z" fill="#002A53"/>
<path d="M123.959 65.4033L123.339 66.2007C123.782 66.5551 124.225 66.9095 124.579 67.3526L125.288 66.7323C124.934 66.2893 124.491 65.8463 123.959 65.4033Z" fill="#002A53"/>
<path d="M123.604 90.0348C123.692 90.1234 123.958 90.3006 124.578 90.1234C124.667 90.0348 124.844 89.9462 125.021 90.0348C125.641 90.3006 125.907 91.1866 126.173 91.6296L127.059 90.9208C127.148 90.8322 127.148 90.8322 127.236 90.8322C127.413 90.9208 127.325 91.1866 127.502 91.7182C127.591 91.9841 127.768 92.1613 128.034 92.3385C127.945 91.1866 128.122 90.7436 128.477 90.3892C127.413 89.5032 125.819 88.9716 125.021 88.6172C125.11 89.5032 123.958 89.5918 123.604 90.0348Z" fill="#002A53"/>
<path d="M110.492 52.9094C110.669 52.9094 110.935 52.8208 110.935 52.6436C111.024 52.3778 110.935 51.669 110.315 51.7576C110.138 51.7576 110.138 51.9348 110.226 51.9348C110.403 52.0234 110.581 52.4664 110.403 52.8208C110.403 52.8208 110.403 52.8208 110.492 52.9094Z" fill="#002A53"/>
<path d="M132.554 57.2509C131.313 59.0229 130.427 61.9468 129.807 64.2504L129.63 64.8706C129.275 66.0224 129.01 66.9085 128.744 67.7059C127.503 70.8955 123.693 71.5157 123.605 71.6043H123.516C123.25 71.6043 123.073 71.5157 122.896 71.2499C122.453 70.6297 122.364 69.9209 122.364 69.2121C121.478 68.5033 120.504 67.8831 119.441 67.3515C118.289 66.8199 117.137 66.3768 115.897 66.111C115.542 66.3768 115.276 66.6427 115.099 66.8199L115.011 66.9085C113.061 68.8577 112.087 70.8069 111.821 72.9334C111.821 73.022 111.821 73.1106 111.821 73.1992V73.2878C111.821 73.908 111.555 75.1484 111.023 76.123C111.201 76.0344 111.466 75.8572 111.732 75.68C111.821 75.68 111.821 75.5914 111.909 75.5914C112.175 75.5914 112.352 76.0344 112.352 76.2116C113.061 80.1101 116.162 83.0339 118.555 83.3884C118.643 83.3884 118.732 83.477 118.909 83.6542C119.529 84.2744 121.213 85.7806 125.2 87.1982C128.921 88.5272 129.541 89.2361 130.959 91.3625C131.579 92.2485 131.845 93.0459 131.845 93.7547C132.022 93.4003 132.199 92.9573 132.288 92.6029C132.465 92.1599 132.465 92.0713 132.554 92.0713H132.642C132.731 92.0713 132.731 92.1599 132.819 92.3371C132.908 92.6029 133.174 93.4003 133.174 93.5775C133.617 94.4635 134.326 94.9066 134.946 95.261V95.1724C134.68 94.7294 134.326 94.1977 134.237 93.1345C134.148 92.5143 134.148 91.8941 134.06 91.3625C134.06 90.9195 133.971 90.7423 133.971 90.4765C133.883 90.1221 133.794 89.7677 133.794 89.5905C133.705 89.2361 133.617 89.0589 133.705 88.9703C133.705 88.9703 133.794 88.8817 133.883 88.8817C134.06 88.8817 135.034 89.4133 135.477 89.8563C137.515 92.0713 140.528 91.9827 141.502 91.9827C141.591 91.9827 141.68 91.9827 141.68 91.9827C141.768 91.9827 143.895 93.4003 146.375 91.8055C145.578 91.6283 144.426 90.5651 143.629 89.7677C143.097 89.2361 142.743 89.2361 142.123 88.6159C141.945 88.4386 141.857 88.35 141.68 88.1728C141.414 87.907 141.237 87.7298 141.059 87.464C140.705 87.1096 140.528 86.9324 140.351 86.8438C140.173 86.7552 140.085 86.6666 140.085 86.4894V86.4008L140.173 86.3122C140.262 86.2236 140.262 86.2236 140.351 86.2236H140.439C140.528 86.2236 140.616 86.2236 140.705 86.2236C141.059 86.2236 141.325 86.2236 141.68 86.135H141.857C140.616 85.7806 139.465 84.7174 138.756 84.0972C138.667 84.0086 138.49 83.92 138.401 83.8314C138.136 83.6542 137.87 83.477 137.958 83.2998C137.958 83.1226 138.136 83.0339 138.49 82.9453C138.136 82.7681 137.958 82.4137 137.693 81.9707C137.072 80.9961 136.541 80.1101 133.883 78.9583C133.705 78.8697 133.617 78.8697 133.528 78.7811C133.262 78.6925 133.174 78.6039 133.174 78.5153C133.174 78.4267 133.174 78.3381 133.351 78.3381C136.895 77.452 140.173 74.5282 141.591 72.2246C143.009 69.9209 143.717 67.3515 143.717 67.2629C143.806 67.0857 143.895 66.9085 143.983 66.8199C146.907 65.0478 149.742 63.0986 150.983 61.3266H150.894C150.363 61.3266 149.034 61.1494 148.945 60.7949C148.945 60.6177 149.034 60.5291 149.299 60.3519C149.92 59.9089 151.337 59.0229 152.312 56.3649C151.603 56.6307 150.894 56.6307 150.54 56.6307C150.451 56.6307 150.363 56.6307 150.274 56.6307C148.856 56.5421 148.768 56.2763 148.768 56.1877C148.679 56.0105 148.856 55.9219 149.211 55.7447C150.008 55.213 151.869 53.9726 152.666 50.9602C152.843 50.4286 152.843 49.8083 152.755 49.5425C151.957 50.5172 150.983 50.9602 150.54 51.0488C150.451 51.0488 150.185 51.1374 150.008 51.1374C149.742 51.1374 149.654 51.0488 149.565 50.9602C149.477 50.8716 149.565 50.6944 149.831 50.34C150.451 49.3653 151.78 47.1503 151.603 43.6062C151.603 43.0746 151.426 42.4544 151.337 42.2772C150.806 44.5809 149.388 45.9985 149.122 46.2643L149.034 46.3529C148.591 46.7959 148.148 47.1503 147.882 47.1503H147.793C147.616 47.0617 147.705 46.8845 147.882 46.2643C147.882 46.1757 147.97 46.0871 147.97 45.9985C148.768 42.1886 147.882 38.999 146.73 37.2269C146.553 36.9611 146.375 36.7839 146.287 36.6953C146.818 38.2901 146.907 40.0622 146.464 42.1C146.021 44.3151 145.046 45.8213 145.046 45.9099C144.692 46.4415 144.426 46.7959 144.072 46.8845H143.983L143.895 46.7959C143.806 46.7073 143.895 46.6187 143.895 46.4415C143.895 46.1757 143.983 45.7327 143.983 45.1125C143.983 44.9353 143.983 44.8467 143.895 44.7581C143.363 46.9731 141.68 49.3653 138.933 51.9348L138.844 52.0234C137.958 52.8208 136.984 53.7068 136.009 54.4156C134.414 55.3902 133.085 56.4535 132.554 57.2509ZM138.136 55.4788C141.059 53.7068 142.477 52.0234 143.186 51.226C143.54 50.8716 143.717 50.6944 143.806 50.6944C143.806 50.6944 143.895 50.783 143.895 50.8716C143.895 51.4918 142.743 53.7068 138.844 56.1877C138.047 56.7193 137.338 57.1623 136.895 57.6053C135.3 58.9343 134.857 60.2633 134.503 63.3644C134.414 63.896 134.414 64.339 134.326 64.8706C134.06 67.0857 133.883 68.8577 133.085 70.3639C132.642 71.0727 131.845 71.3385 131.579 71.3385C131.49 71.3385 131.49 71.3385 131.49 71.3385C131.313 71.1613 131.402 70.9841 131.579 70.6297C131.668 70.4525 131.845 70.1867 131.933 69.9209C132.465 68.5033 132.997 66.3768 133.351 63.2758C133.794 59.9975 134.06 58.6685 136.009 56.9851C136.629 56.4535 137.427 55.9219 138.136 55.4788Z" fill="#002A53"/>
<path d="M123.871 69.6552C124.757 69.3894 126.706 68.6806 127.504 66.82C127.592 66.6428 127.592 66.5542 127.681 66.377L126.529 67.1744L123.871 69.478C123.783 69.478 123.783 69.5666 123.871 69.6552Z" fill="#002A53"/>
<path d="M102.695 56.809C102.783 56.6318 103.049 56.366 104.024 56.1888C105.264 56.0116 105.707 55.923 106.062 55.8344C106.859 55.5686 108.72 55.2142 109.163 55.8344C109.074 55.923 108.808 56.0116 108.631 56.0116C108.454 56.0116 108.365 56.1888 108.365 56.1888C107.568 56.9862 106.239 57.7837 105.796 57.8723C105.353 57.9609 106.062 57.4292 106.593 56.8976C106.859 56.6318 107.391 56.0116 107.479 55.8344C107.479 55.8344 107.214 55.923 107.125 55.923C106.859 56.2774 106.505 56.7204 106.062 57.0748C104.733 57.9609 104.555 58.4039 104.467 58.4039C104.378 58.4925 104.201 58.7583 104.644 58.7583H104.733C105.53 58.7583 106.859 57.9609 107.922 57.3406C108.188 57.1634 108.454 57.0748 108.631 56.8976C109.074 56.5432 109.517 56.2774 109.872 56.0116C108.543 54.8598 108.631 53.3536 108.631 53.3536C108.631 52.822 107.745 51.6701 106.593 51.7587C105.53 51.8473 104.998 52.9992 106.062 53.1764C107.568 53.5308 107.745 54.594 107.745 54.594C107.745 54.594 107.125 54.2396 106.505 54.0624C106.15 53.9738 105.885 53.8852 105.796 53.8852C105.353 54.2396 104.91 54.594 104.024 54.8598C102.961 55.2142 102.518 55.5686 102.606 56.1002C102.34 56.4546 102.518 56.7204 102.695 56.809Z" fill="#002A53"/>
<path d="M117.225 103.767C116.871 103.59 116.251 103.679 116.073 103.767C114.744 104.299 113.77 104.831 112.795 105.362C112.529 105.539 112.441 105.805 112.529 105.805C112.707 105.894 112.972 106.071 113.15 106.248C113.77 105.894 115.542 105.096 118.023 104.299C117.668 104.033 117.402 103.945 117.225 103.767Z" fill="#002A53"/>
<path d="M124.403 102.35C124.225 102.172 123.782 101.818 123.073 101.907C121.656 102.084 119.972 102.35 118.643 102.881C118.378 102.97 118.289 103.147 118.466 103.236C118.909 103.59 119.441 104.033 120.061 104.653C120.858 105.628 121.39 105.805 121.744 105.805C123.073 105.539 124.403 105.362 125.82 105.273C126.086 105.273 126.263 105.273 126.529 105.273C126.352 105.008 126.175 104.742 125.909 104.299C125.2 102.97 124.846 102.615 124.403 102.35Z" fill="#002A53"/>
<path d="M110.669 106.779C108.986 108.286 109.163 111.121 109.429 112.627C110.58 111.387 111.998 110.235 113.504 109.172C113.77 108.995 114.124 108.729 114.479 108.551C114.124 108.374 113.77 108.108 113.416 107.754C112.53 107.045 111.909 106.691 111.466 106.514C111.289 106.514 110.935 106.514 110.669 106.779Z" fill="#002A53"/>
<path d="M128.654 102.527C129.806 102.616 130.781 102.704 131.755 102.881C131.489 102.35 131.224 102.084 131.135 102.084C129.717 101.818 128.3 101.729 126.794 101.729H126.616H126.439C126.085 101.729 125.73 101.729 125.376 101.729C125.553 101.907 125.819 102.261 125.996 102.527C126.882 102.438 127.768 102.438 128.654 102.527Z" fill="#002A53"/>
<path d="M75.4057 89.0594C75.8487 89.0594 77.1778 88.9708 77.5322 88.8822C76.5576 88.705 74.6969 87.9962 74.5197 85.4268C74.5197 85.1609 74.2539 82.8573 76.7348 80.9081L77.798 80.1107H76.5576C76.5576 80.1107 74.2539 80.0221 72.4819 79.136C72.4819 79.136 69.7352 77.8956 68.4948 75.8578L68.1404 75.3262L67.786 75.8578C67.6088 76.035 64.0647 80.8195 66.9 85.7812C67.343 86.5786 72.3047 89.0594 75.4057 89.0594Z" fill="#002A53"/>
<path d="M82.4058 79.0481C82.4944 79.4025 82.0514 79.4911 81.9628 79.5797C77.0897 82.4149 76.6467 84.187 76.8239 85.6046C77.0011 87.1994 78.4187 87.288 79.0389 87.288C79.6591 87.288 80.4565 87.1108 80.9881 86.7564C81.4312 86.2248 81.8742 85.6932 82.2286 85.1616C84.1778 82.5921 86.4815 80.3771 89.2281 79.6683C90.4685 79.3139 92.2406 79.0481 93.7468 79.2253C97.2908 79.6683 99.4173 81.5289 100.126 82.8579C99.9489 81.8833 99.1515 79.3139 97.2908 77.9849C95.4302 76.6558 93.481 75.4154 90.1141 74.175C90.0255 74.0864 87.0131 72.9346 84.4436 72.9346C83.8234 72.9346 83.2032 73.0232 82.7602 73.1118C80.8995 73.6434 79.4819 74.8838 78.0643 76.0356C77.1783 76.833 76.2923 77.5418 75.4062 78.0735C76.3809 78.4279 77.9757 78.6051 79.9249 78.6051C80.5451 78.6051 82.3172 78.6937 82.4058 79.0481Z" fill="#002A53"/>
<path d="M103.581 119.095C103.581 119.095 104.201 118.209 105.973 116.969C106.239 116.26 106.593 115.64 106.948 115.108C105.885 115.729 104.821 116.349 103.847 117.058C102.075 118.387 100.923 119.627 100.303 120.247C108.897 122.64 121.922 118.918 128.389 116.792C128.035 116.349 127.681 115.817 127.415 115.286C124.314 116.437 112.441 120.336 103.581 119.095Z" fill="#002A53"/>
<path d="M163.829 82.237C163.829 82.3256 163.829 82.4142 163.918 82.5028C164.538 82.9458 165.69 84.009 166.842 85.3381L167.374 85.9583C169.057 87.9961 171.183 90.477 175.171 90.5656C179.512 90.5656 181.904 87.7303 182.613 86.7557C182.436 86.7557 182.17 86.8443 181.816 86.8443C181.638 86.8443 181.373 86.8443 181.195 86.8443C178.892 86.6671 176.411 83.566 174.107 80.1992C173.133 78.7815 171.981 77.1867 171.272 76.5665C171.183 76.4779 170.12 76.0349 168.791 76.0349C167.019 75.9463 162.943 77.0981 163.829 82.237Z" fill="#002A53"/>
<path d="M138.224 104.21C137.869 103.501 133.794 102.261 132.73 102.349C132.996 102.881 133.262 103.678 133.528 104.653C133.794 105.893 134.237 106.425 134.414 106.602C136.097 107.134 137.515 107.843 138.667 108.551C138.667 108.197 138.667 107.843 138.667 107.4C138.844 105.096 138.312 104.298 138.224 104.21Z" fill="#002A53"/>
<path d="M181.46 84.8066C181.637 84.8066 181.815 84.8952 181.992 84.8952C182.701 84.8952 183.232 84.6294 183.675 84.4522C184.473 82.2372 184.03 79.6677 183.409 78.0729C183.144 77.5413 182.878 76.9211 182.789 76.6553L182.346 77.1869C180.751 78.8703 178.271 79.6677 176.321 80.0221C178.448 82.8574 180.22 84.5408 181.46 84.8066Z" fill="#002A53"/>
<path d="M157.894 94.9956C160.021 96.5018 162.413 98.451 162.945 99.6914L163.033 99.9572H162.768C162.502 99.9572 162.236 99.8686 161.97 99.8686C160.375 99.8686 158.869 100.312 157.363 101.375C153.996 103.679 154.173 107.311 154.35 108.463L154.616 109.349C155.148 108.374 156.831 105.716 159.312 105.716C160.11 105.716 160.996 105.982 161.793 106.602C162.945 107.223 164.097 109.172 164.628 111.564C165.337 114.577 164.894 117.412 163.476 119.272C160.553 122.994 156.3 123.348 155.059 123.348C155.502 123.88 156.654 124.854 158.426 125.12C158.958 125.209 159.489 125.209 160.021 125.209C160.375 125.209 160.73 125.209 161.084 125.209C165.16 124.943 167.995 123.791 170.742 121.222C171.096 120.779 171.716 120.158 171.982 119.715C172.337 119.184 172.602 118.741 172.868 118.298C173.311 117.589 173.577 117.146 174.02 116.614C171.982 114.665 170.122 111.032 172.425 106.159V106.071C173.311 104.21 174.729 102.792 174.729 102.792L175.349 102.261L175.526 103.324C175.792 104.21 176.767 107.577 179.159 107.931C179.336 107.134 179.425 106.514 179.513 105.096C179.956 97.4764 183.057 95.7044 184.121 95.35C183.678 95.0842 182.703 94.6412 181.374 94.6412H181.285C179.336 94.6412 176.324 95.5272 173.134 99.9572L172.957 100.223L172.868 99.8686C172.514 98.3624 171.362 95.35 167.729 92.2489C163.742 88.882 161.616 84.8064 161.793 80.8193C161.882 76.7436 164.628 75.2374 166.223 74.6172C166.134 74.6172 165.426 74.6172 165.337 74.6172C164.805 74.6172 164.185 74.7058 163.476 74.883C161.97 75.326 154.616 78.5157 152.933 82.1483C150.098 88.2618 154.882 92.8691 157.894 94.9956Z" fill="#002A53"/>
<path d="M142.477 106.603C142.034 106.249 141.414 105.894 140.616 105.451C140.35 105.274 140.085 105.097 139.642 105.097C139.73 105.362 139.73 105.717 139.819 106.071C141.414 107.046 142.388 107.843 143.008 108.464C143.186 108.729 143.363 109.084 143.54 109.438C143.717 109.881 143.894 110.324 143.983 110.767C144.072 109.261 143.717 107.578 142.477 106.603Z" fill="#002A53"/>
<path d="M160.02 107.399C159.134 107.577 156.741 108.197 155.855 111.298C157.362 113.247 160.02 113.513 160.994 113.602L160.374 112.804C158.691 110.766 159.134 108.994 159.488 108.108C159.665 107.842 159.843 107.577 160.02 107.399Z" fill="#002A53"/>
<path d="M129.805 107.488C129.983 107.488 130.957 110.235 134.235 110.944C135.742 111.298 136.451 109.881 135.919 108.818C133.261 107.577 129.805 106.602 125.818 106.78C121.388 106.957 116.072 108.64 112.174 111.919C112.085 111.919 112.085 112.007 111.996 112.007C111.996 112.007 111.908 112.096 111.819 112.096C111.288 112.627 110.933 112.982 110.756 113.07C108.718 115.285 108.541 116.614 108.541 116.969C109.338 117.412 118.287 117.057 127.147 113.691C126.882 109.172 129.628 107.488 129.805 107.488Z" fill="#002A53"/>
<path d="M141.946 124.145C142.034 123.791 142.211 123.525 142.3 123.171C142.3 123.082 142.389 122.994 142.389 122.905C142.123 122.373 141.503 121.753 141.325 121.487C141.059 122.551 140.616 123.259 140.173 124.323C139.819 125.12 139.819 125.386 139.73 125.829C140.085 125.829 141.148 125.829 141.503 125.917C141.503 125.563 141.68 124.943 141.946 124.145Z" fill="#002A53"/>
<path d="M139.464 129.816C137.958 129.905 136.097 129.639 134.591 129.196C128.123 132.12 121.744 137.968 120.415 139.119L118.288 144.081C122.895 142.841 126.085 139.917 129.186 137.082C131.224 135.221 133.35 133.272 135.831 131.943C139.552 129.816 142.476 129.728 144.426 131.411C146.463 133.626 145.843 137.082 145.223 138.854H145.577C146.729 136.816 147.172 133.095 145.843 130.525C144.869 128.753 142.742 127.158 139.552 127.513C139.641 127.867 139.907 128.221 140.527 128.753C141.413 129.728 139.464 129.816 139.464 129.816Z" fill="#002A53"/>
<path d="M90.7324 113.425C92.2386 113.691 93.8335 112.982 94.8967 111.83C94.8967 111.033 94.5423 109.792 93.5677 108.729C92.8589 108.02 91.9728 107.577 90.821 107.577C91.0868 107.843 91.3526 108.197 91.4412 108.552C92.8589 111.919 90.7324 113.425 90.7324 113.425Z" fill="#002A53"/>
<path d="M129.718 118.032C125.642 119.45 117.845 121.931 110.226 122.462C112.795 123.969 118.643 128.221 120.415 136.993C122.984 134.601 128.035 130.702 132.908 128.31C132.996 128.31 132.996 128.221 133.085 128.221C132.819 127.956 128.212 124.589 131.224 118.918C131.047 118.918 130.427 118.564 129.718 118.032Z" fill="#002A53"/>
</svg>
