<svg width="256" height="256" viewBox="0 0 256 256" fill="none" xmlns="http://www.w3.org/2000/svg">
<path d="M113.055 40.9499C112.751 36.2515 115.427 32.2484 119.058 32.0121C122.675 31.7624 125.877 35.3942 126.202 40.0926C126.52 44.7977 123.837 48.794 120.22 49.0235C116.603 49.2733 113.394 45.6618 113.055 40.9499Z" fill="#483387"/>
<path d="M115.786 62.2714C115.53 58.4574 117.695 55.2103 120.634 55.0213C123.573 54.8323 126.153 57.7688 126.437 61.5761C126.693 65.3767 124.528 68.6304 121.575 68.8127C118.642 69.0152 116.049 66.0787 115.786 62.2714Z" fill="#483387"/>
<path d="M118.144 81.5704C117.923 78.4787 119.679 75.8595 122.058 75.711C124.437 75.5489 126.54 77.9184 126.754 81.0169C126.975 84.0816 125.198 86.7211 122.826 86.8696C120.447 87.0384 118.358 84.6689 118.144 81.5704Z" fill="#483387"/>
<path d="M138.244 215.05C138.562 219.748 135.886 223.765 132.255 223.987C128.631 224.237 125.422 220.612 125.104 215.907C124.786 211.209 127.462 207.212 131.072 206.969C134.703 206.74 137.905 210.358 138.244 215.05Z" fill="#483387"/>
<path d="M135.512 193.748C135.781 197.541 133.596 200.795 130.664 200.971C127.731 201.173 125.138 198.237 124.882 194.429C124.612 190.622 126.791 187.382 129.716 187.193C132.655 186.997 135.242 189.927 135.512 193.748Z" fill="#483387"/>
<path d="M133.165 174.418C133.366 177.503 131.616 180.142 129.23 180.277C126.858 180.439 124.755 178.07 124.548 174.998C124.34 171.9 126.09 169.281 128.469 169.119C130.848 168.963 132.951 171.346 133.165 174.418Z" fill="#483387"/>
<path d="M79.9069 52.2733C77.7768 48.0542 78.6689 43.3559 81.9194 41.783C85.1768 40.2034 89.5546 42.3568 91.6985 46.5759C93.8494 50.8017 92.9365 55.5069 89.6929 57.0662C86.4217 58.6459 82.0508 56.4992 79.9069 52.2733Z" fill="#483387"/>
<path d="M90.7871 70.9542C89.0512 67.525 89.7774 63.7109 92.4193 62.4485C95.0543 61.1659 98.6021 62.9211 100.345 66.3301C102.067 69.7459 101.341 73.5599 98.692 74.8358C96.0571 76.1116 92.5092 74.3633 90.7871 70.9542Z" fill="#483387"/>
<path d="M100.498 87.9148C99.0876 85.1539 99.6893 82.0689 101.819 81.036C103.949 79.9964 106.827 81.4006 108.237 84.1885C109.641 86.9428 109.04 90.0413 106.903 91.0673C104.766 92.1069 101.902 90.6961 100.498 87.9148Z" fill="#483387"/>
<path d="M171.391 203.714C173.535 207.94 172.629 212.645 169.364 214.218C166.121 215.791 161.75 213.651 159.592 209.418C157.462 205.206 158.361 200.494 161.612 198.928C164.869 197.348 169.261 199.515 171.391 203.714Z" fill="#483387"/>
<path d="M160.526 185.057C162.269 188.459 161.536 192.267 158.894 193.543C156.266 194.818 152.725 193.077 150.982 189.648C149.26 186.239 149.979 182.431 152.621 181.155C155.27 179.873 158.804 181.628 160.526 185.057Z" fill="#483387"/>
<path d="M150.797 168.081C152.194 170.842 151.606 173.94 149.469 174.96C147.332 175.993 144.455 174.595 143.064 171.821C141.654 169.046 142.241 165.961 144.385 164.942C146.516 163.909 149.393 165.313 150.797 168.081Z" fill="#483387"/>
<path d="M53.7005 75.1343C50.0835 72.0223 49.0599 67.3509 51.4459 64.6777C53.8388 62.0045 58.7353 62.3555 62.3661 65.454C66.0039 68.5525 67.0067 73.2374 64.6138 75.8971C62.214 78.5771 57.3452 78.2396 53.7005 75.1343Z" fill="#483387"/>
<path d="M71.0657 88.3171C68.1195 85.8059 67.3034 82.0121 69.2329 79.8519C71.1832 77.685 75.1391 77.9685 78.0853 80.4865C81.0177 82.9909 81.8476 86.7915 79.9042 88.9584C77.9678 91.1253 74.0049 90.8283 71.0657 88.3171Z" fill="#483387"/>
<path d="M86.6792 100.361C84.3001 98.3221 83.6431 95.2574 85.213 93.509C86.776 91.7606 89.985 91.9766 92.3848 94.0153C94.75 96.0405 95.4071 99.1187 93.851 100.874C92.2672 102.636 89.079 102.399 86.6792 100.361Z" fill="#483387"/>
<path d="M197.614 180.88C201.245 183.965 202.262 188.65 199.855 191.316C197.476 193.983 192.587 193.645 188.949 190.54C185.325 187.435 184.308 182.757 186.708 180.09C189.094 177.424 193.99 177.781 197.614 180.88Z" fill="#483387"/>
<path d="M180.24 167.68C183.179 170.185 183.988 173.972 182.052 176.125C180.122 178.305 176.166 178.008 173.213 175.49C170.294 172.979 169.478 169.185 171.401 167.032C173.337 164.865 177.293 165.155 180.24 167.68Z" fill="#483387"/>
<path d="M164.593 155.633C166.965 157.665 167.636 160.736 166.052 162.485C164.489 164.233 161.287 164.017 158.901 161.985C156.522 159.946 155.858 156.868 157.435 155.133C159.005 153.385 162.214 153.608 164.593 155.633Z" fill="#483387"/>
<path d="M38.4406 106.027C33.876 104.508 31.1028 100.559 32.2646 97.2106C33.4265 93.8489 38.0878 92.3435 42.6593 93.8556C47.2376 95.3677 49.9971 99.3101 48.8283 102.665C47.6595 106.027 43.0258 107.539 38.4406 106.027Z" fill="#483387"/>
<path d="M59.6526 111.733C55.9457 110.498 53.7118 107.312 54.6524 104.591C55.593 101.864 59.3622 100.649 63.0691 101.871C66.7622 103.093 69.0168 106.292 68.0624 109.026C67.1356 111.74 63.3526 112.948 59.6526 111.733Z" fill="#483387"/>
<path d="M78.8508 117.007C75.8562 116.021 74.0373 113.436 74.7981 111.242C75.5657 109.034 78.6018 108.035 81.6172 109.034C84.6187 110.007 86.4306 112.592 85.663 114.806C84.9022 117.014 81.8523 118.006 78.8508 117.007Z" fill="#483387"/>
<path d="M212.873 149.966C217.451 151.471 220.218 155.414 219.035 158.775C217.887 162.144 213.226 163.643 208.647 162.144C204.097 160.625 201.33 156.676 202.478 153.321C203.64 149.966 208.302 148.467 212.873 149.966Z" fill="#483387"/>
<path d="M191.64 144.266C195.347 145.481 197.581 148.687 196.634 151.408C195.714 154.121 191.931 155.343 188.217 154.108C184.524 152.886 182.29 149.693 183.231 146.973C184.164 144.252 187.94 143.044 191.64 144.266Z" fill="#483387"/>
<path d="M172.46 138.971C175.455 139.963 177.281 142.549 176.506 144.756C175.752 146.957 172.689 147.949 169.701 146.957C166.706 145.965 164.881 143.379 165.641 141.179C166.402 138.971 169.48 137.986 172.46 138.971Z" fill="#483387"/>
<path d="M214.83 115.727C219.644 115.403 223.759 118.009 223.994 121.553C224.243 125.09 220.529 128.223 215.715 128.54C210.909 128.85 206.801 126.231 206.559 122.701C206.31 119.163 210.037 116.031 214.83 115.727Z" fill="#483387"/>
<path d="M192.997 118.377C196.884 118.12 200.203 120.24 200.397 123.109C200.597 125.964 197.596 128.496 193.702 128.752C189.802 129.002 186.482 126.882 186.274 124.02C186.081 121.158 189.082 118.633 192.997 118.377Z" fill="#483387"/>
<path d="M173.213 120.644C176.373 120.448 179.064 122.156 179.229 124.492C179.389 126.801 176.947 128.86 173.807 129.062C170.633 129.265 167.936 127.55 167.791 125.235C167.611 122.912 170.059 120.853 173.213 120.644Z" fill="#483387"/>
<path d="M203.222 83.3381C207.544 81.2455 212.358 82.1163 213.969 85.3161C215.581 88.4888 213.381 92.7619 209.066 94.8546C204.736 96.9338 199.916 96.0562 198.311 92.8902C196.693 89.7039 198.906 85.4241 203.222 83.3381Z" fill="#483387"/>
<path d="M184.091 93.9457C187.583 92.2648 191.484 92.9669 192.791 95.5523C194.091 98.1175 192.307 101.574 188.807 103.275C185.301 104.956 181.407 104.24 180.1 101.668C178.793 99.1031 180.577 95.6401 184.091 93.9457Z" fill="#483387"/>
<path d="M166.703 103.444C169.545 102.08 172.706 102.654 173.757 104.754C174.815 106.826 173.376 109.627 170.548 111.011C167.698 112.368 164.531 111.788 163.487 109.715C162.429 107.636 163.881 104.821 166.703 103.444Z" fill="#483387"/>
<path d="M179.809 57.7699C182.983 54.2124 187.769 53.2268 190.514 55.5625C193.246 57.905 192.887 62.6708 189.712 66.2216C186.538 69.7589 181.738 70.7513 179.013 68.4156C176.268 66.0799 176.641 61.3005 179.809 57.7699Z" fill="#483387"/>
<path d="M166.298 74.7043C168.864 71.8286 172.75 71.0321 174.957 72.929C177.184 74.8191 176.879 78.6737 174.307 81.5562C171.741 84.4251 167.861 85.215 165.634 83.3248C163.435 81.4346 163.718 77.5733 166.298 74.7043Z" fill="#483387"/>
<path d="M153.954 89.9711C156.042 87.6624 159.196 87.0009 160.98 88.5467C162.772 90.0656 162.543 93.1911 160.469 95.5201C158.38 97.849 155.219 98.4903 153.442 96.9647C151.644 95.4391 151.886 92.3 153.954 89.9711Z" fill="#483387"/>
<path d="M148.146 42.8771C149.689 38.4015 153.721 35.708 157.165 36.8421C160.616 37.9695 162.151 42.5126 160.616 46.9882C159.06 51.4368 155.021 54.1438 151.584 53.0029C148.139 51.8688 146.604 47.319 148.146 42.8771Z" fill="#483387"/>
<path d="M142.315 63.5757C143.56 59.9642 146.838 57.7837 149.619 58.7086C152.406 59.6199 153.644 63.2989 152.399 66.9172C151.147 70.5288 147.876 72.7092 145.082 71.7911C142.308 70.8798 141.064 67.194 142.315 63.5757Z" fill="#483387"/>
<path d="M136.893 82.2962C137.903 79.3664 140.559 77.591 142.82 78.3471C145.075 79.0897 146.092 82.0667 145.075 84.9829C144.065 87.9194 141.403 89.688 139.162 88.9387C136.9 88.2029 135.877 85.2192 136.893 82.2962Z" fill="#483387"/>
</svg>
