<svg xmlns="http://www.w3.org/2000/svg" enable-background="new 0 0 500 500" viewBox="0 0 500 500" id="24-hour-services">
    <path fill="#000000"
        d="M195.224 209.963c-11.796 8.417-19.28 16.842-22.448 24.375-3.275 6.704-5.015 13.662-5.223 22.662H245v-21h-49.386c1.403-2 3.13-4.119 5.184-5.887 2.051-1.765 5.865-4.488 11.435-8.438l8.903-6.246c7.498-5.3 12.887-10.072 16.166-14.387 4.998-6.495 7.498-13.908 7.498-22.275 0-10.913-3.538-19.674-10.612-26.299-7.074-6.626-16.593-9.935-28.558-9.935-15.137 0-25.671 5.762-31.601 17.038-3.121 5.924-4.864 13.428-5.227 23.428h21.591c.259-6 1.091-11.084 2.493-13.995 2.443-5.04 7.041-7.621 13.797-7.621 4.936 0 8.731 1.556 11.38 4.724 2.651 3.171 3.975 7.131 3.975 11.911 0 5.873-2.313 11.27-6.937 16.206C212.086 197.396 205.462 202.635 195.224 209.963zM335 215h-13v-71h-24.9L256 212.379V231h44v26h22v-26h13V215zM300 215h-27.915L300 165.724V215z">
    </path>
    <polygon fill="#000000"
        points="171 296 155 296 155 279 144 279 144 324 155 324 155 303 171 303 171 324 180 324 180 279 171 279">
    </polygon>
    <path fill="#000000"
        d="M208.963 278.225c-6.329 0-11.165 1.723-14.509 5.168-4.487 4.064-6.729 10.152-6.729 18.264 0 7.949 2.242 14.038 6.729 18.264 3.344 3.444 8.18 5.166 14.509 5.166 6.328 0 11.163-1.722 14.509-5.166 4.466-4.225 6.698-10.314 6.698-18.264 0-8.112-2.232-14.199-6.698-18.264C220.126 279.948 215.29 278.225 208.963 278.225zM217.688 313.191c-2.153 2.703-5.061 4.055-8.726 4.055s-6.589-1.352-8.771-4.055c-2.183-2.704-3.275-6.549-3.275-11.535 0-4.987 1.092-8.832 3.275-11.536 2.183-2.703 5.107-4.055 8.771-4.055s6.573 1.357 8.726 4.071 3.229 6.553 3.229 11.52C220.917 306.642 219.841 310.487 217.688 313.191zM264 306.77c0 3.042-.678 5.263-1.396 6.663-1.118 2.481-3.702 3.722-7.433 3.722-3.751 0-6.081-1.241-7.198-3.722-.719-1.4-.973-3.621-.973-6.663V279h-10v27.793c0 4.706.843 8.37 2.303 10.994 2.739 4.806 7.994 7.209 15.651 7.209 7.657 0 12.491-2.403 15.21-7.209 1.46-2.623 1.836-6.288 1.836-10.994V279h-8V306.77zM316.268 320.219c-.163-.721-.268-2.092-.268-4.115v-2.974c0-3.104-.43-5.411-1.281-6.924-.852-1.512-2.3-2.678-4.343-3.499 2.443-.842 4.193-2.278 5.256-4.311 1.061-2.033 1.592-4.1 1.592-6.203 0-1.743-.274-3.294-.821-4.656s-1.289-2.604-2.226-3.725c-1.133-1.362-2.515-2.68-4.145-3.382-1.63-.701-3.959-1.43-6.986-1.43H281v45h10v-18h8.945c2.575 0 4.333.716 5.27 1.657.938.942 1.426 2.947 1.463 5.771l.061 4.177c.02 1.301.15 2.676.39 3.918.12.6.321 1.477.6 2.477H318v-1.258C317 322.202 316.512 321.361 316.268 320.219zM305.315 298.859c-.989.482-2.472 1.141-4.45 1.141H291v-13h10.122c1.902 0 3.328.394 4.279.914 1.692.922 2.539 3 2.539 5.684C307.94 296.082 307.066 298.019 305.315 298.859zM356.669 301.865c-1.7-1.341-4.253-2.413-7.658-3.214l-7.77-1.832c-2.999-.701-4.958-1.311-5.882-1.832-1.437-.781-2.157-1.962-2.157-3.545 0-1.722.729-3.064 2.186-4.025 1.458-.962 3.408-1.442 5.852-1.442 2.196 0 4.034.489 5.512 1.23 2.217 1.122 3.408 2.795 3.572 5.795h8.892c-.162-5-1.91-8.414-5.246-10.888-3.335-2.472-7.364-3.768-12.087-3.768-5.657 0-9.944 1.282-12.863 3.905-2.919 2.625-4.379 5.903-4.379 9.869 0 4.346 1.492 7.532 4.477 9.575 1.762 1.222 4.998 2.35 9.71 3.391l4.794 1.049c2.805.6 4.854 1.29 6.147 2.072 1.291.801 1.939 1.932 1.939 3.394 0 2.503-1.32 4.215-3.957 5.136-1.39.48-3.2.72-5.429.72-3.722 0-6.349-1.004-7.883-2.827-.838-1.002-1.4-2.629-1.687-4.629h-8.831c0 5 1.67 8.32 5.009 10.952 3.34 2.635 7.925 3.997 13.755 3.997 5.707 0 10.125-1.314 13.252-3.987 3.127-2.674 4.692-6.021 4.692-10.066C360.629 306.951 359.309 303.949 356.669 301.865z">
    </path>
    <g>
        <path fill="none" stroke="#000000" stroke-linecap="round" stroke-linejoin="round" stroke-miterlimit="10"
            stroke-width="15"
            d="M79.389 328.746L79.389 328.746c-16.513 0-29.899-13.386-29.899-29.899v-64.889c0-16.513 13.386-29.899 29.899-29.899h0c16.513 0 29.899 13.386 29.899 29.899v64.889C109.288 315.359 95.902 328.746 79.389 328.746zM422 328.746L422 328.746c-16.513 0-29.899-13.386-29.899-29.899v-64.889c0-16.513 13.386-29.899 29.899-29.899h0c16.513 0 29.899 13.386 29.899 29.899v64.889C451.899 315.359 438.513 328.746 422 328.746z">
        </path>
        <path fill="none" stroke="#000000" stroke-linecap="round" stroke-linejoin="round" stroke-miterlimit="10"
            stroke-width="15"
            d="M407.372 324.92v25.014c0 64.752-52.492 117.243-117.243 117.243h-39.411M94.288 207.039v-22.342c0-86.455 70.086-156.541 156.541-156.541h0c86.455 0 156.541 70.086 156.541 156.541v23.186">
        </path>
        <path fill="none" stroke="#000000" stroke-linecap="round" stroke-linejoin="round" stroke-miterlimit="10"
            stroke-width="15" d="
			M265.459,440.703h-31.821c-7.311,0-13.237,5.926-13.237,13.237v0c0,7.311,5.926,13.237,13.237,13.237h31.821
			c7.311,0,13.237-5.926,13.237-13.237v0C278.696,446.629,272.77,440.703,265.459,440.703z"></path>
    </g>
</svg>