<svg id="SvgjsSvg1110" width="256" height="256" xmlns="http://www.w3.org/2000/svg" version="1.1"
    xmlns:xlink="http://www.w3.org/1999/xlink" xmlns:svgjs="http://svgjs.com/svgjs">
    <defs id="SvgjsDefs1111"></defs>
    <g id="SvgjsG1112"><svg xmlns="http://www.w3.org/2000/svg" data-name="Layer 1" viewBox="0 0 128 128" width="256"
            height="256">
            <path
                d="M102,38a37.75177,37.75177,0,0,0-4.1944-17.32074l-2.97839,2.97839a34.04154,34.04154,0,1,1-7.03381-9.936l2.81586-2.81586A37.989,37.989,0,1,0,58,75.52185V82a4,4,0,0,0-4,4v32a10,10,0,0,0,20,0V86a4,4,0,0,0-4-4V75.52185A38.0574,38.0574,0,0,0,102,38ZM62,75.94684q.99371.05182,2,.05316,1.00635,0,2-.05316V82H62ZM70,118a6,6,0,0,1-12,0V86H70Z"
                fill="#000000" class="color000 svgShape"></path>
            <path
                d="M49.56641,16.37891a26.03709,26.03709,0,0,1,32.57117,2.99847l2.829-2.829A29.98565,29.98565,0,1,0,80.6543,62.94824a2.00009,2.00009,0,0,0-2.2207-3.32715A25.99616,25.99616,0,1,1,49.56641,16.37891Z"
                fill="#000000" class="color000 svgShape"></path>
            <path
                d="M99.41406,10.58594a1.99927,1.99927,0,0,0-2.82812,0L60,47.17139l-9.58594-9.58545a1.99979,1.99979,0,0,0-2.82812,2.82813l11,11a1.99927,1.99927,0,0,0,2.82813,0l38-38A1.99927,1.99927,0,0,0,99.41406,10.58594Z"
                fill="#000000" class="color000 svgShape"></path>
        </svg></g>
</svg>