<svg id="SvgjsSvg1345" width="256" height="256" xmlns="http://www.w3.org/2000/svg" version="1.1"
    xmlns:xlink="http://www.w3.org/1999/xlink" xmlns:svgjs="http://svgjs.com/svgjs">
    <defs id="SvgjsDefs1346"></defs>
    <g id="SvgjsG1347"><svg xmlns="http://www.w3.org/2000/svg" viewBox="0 0 1024 1024" width="256" height="256">
            <path
                d="M512.6 846.8c-57.7 0-112-22.5-152.8-63.3-40.8-40.8-63.3-95.1-63.3-152.8s22.5-112 63.3-152.8 95.1-63.3 152.8-63.3 112 22.5 152.8 63.3c40.8 40.8 63.3 95.1 63.3 152.8s-22.5 112-63.3 152.8c-40.8 40.8-95.1 63.3-152.8 63.3zm0-412.4c-108.2 0-196.2 88-196.2 196.2s88 196.2 196.2 196.2 196.2-88 196.2-196.2-88.1-196.2-196.2-196.2z"
                fill="#000000" class="color000 svgShape"></path>
            <path
                d="M460.4 493.6c-4.1 0-8-2.6-9.4-6.7-1.8-5.2.9-10.9 6.1-12.8 7.2-2.5 14.6-4.6 22.1-6.1 5.4-1.1 10.7 2.4 11.8 7.8 1.1 5.4-2.4 10.7-7.8 11.8-6.6 1.3-13.1 3.2-19.4 5.4-1.2.4-2.3.6-3.4.6zm-82.3 67.9c-1.7 0-3.5-.4-5.1-1.4-4.8-2.8-6.3-8.9-3.5-13.7 10.2-17.3 23.4-32.6 39.1-45.2 4.3-3.5 10.6-2.8 14.1 1.5s2.8 10.6-1.5 14.1a145.83 145.83 0 0 0-34.4 39.8c-1.9 3.1-5.2 4.9-8.7 4.9zM446.7 740c-2.2 0-4.4-.7-6.2-2.1-3.1-2.4-4.5-6.4-3.6-10.2l15.9-66.4-51.8-47c-2.9-2.6-4-6.6-2.8-10.3 1.1-3.7 4.3-6.4 8.1-7l68.2-9.7 29-60.3c1.7-3.5 5.2-5.7 9-5.7s7.4 2.2 9 5.7l29 60.3 68.2 9.7c3.8.5 7 3.3 8.1 7 1.1 3.7 0 7.7-2.8 10.3l-51.8 47 15.9 66.4c.9 3.8-.5 7.8-3.6 10.2-3.1 2.4-7.3 2.8-10.8 1l-61.3-32-61.3 32c-1.2.7-2.8 1.1-4.4 1.1zm65.9-54.4c1.6 0 3.2.4 4.6 1.1l46.4 24.2-12.2-50.8c-.9-3.5.3-7.3 3-9.7l40.4-36.7-52.4-7.5c-3.3-.5-6.2-2.6-7.6-5.6l-22.3-46.3-22.3 46.3c-1.4 3-4.3 5.1-7.6 5.6l-52.4 7.5 40.4 36.7c2.7 2.5 3.9 6.2 3 9.7L461.5 711l46.4-24.2c1.5-.8 3.1-1.2 4.7-1.2zM377.9 385.3c-.4 0-.8 0-1.1-.1-3.1-.4-5.8-2.1-7.4-4.7L197.2 97.6c-3.8-6.3-4-14.3-.4-20.7 3.6-6.4 10.5-10.5 17.9-10.5h182.4c7.1 0 13.8 3.8 17.5 9.8l106.5 175c1.9 3.2 1.9 7.2 0 10.4L479 330.9c-2.8 4.6-8.8 6.2-13.5 3.5l-11.4-6.6c-.7-.4-1.4-.8-2-1.1 0 0-.1 0-.1-.1-2.6-1.2-5.3-2.1-8-2.6-12.7-2.2-25.5 3.8-32 15l-19.1 33.1c-2.1 3.7-4.7 7.1-7.7 10.1-2 2.1-4.6 3.1-7.3 3.1zM214.7 86.4c-.1 0-.3 0-.4.3-.1.3-.1.4 0 .5L378.4 357l16.1-27.9c10.6-18.4 31.8-28.3 52.7-24.7 4.6.8 9 2.2 13.2 4.2 1.2.5 2.3 1.2 3.5 1.8l2.9 1.7 33.9-55.7L397.5 86.7c-.1-.1-.3-.2-.4-.2H214.7z"
                fill="#000000" class="color000 svgShape"></path>
            <path
                d="M586.5 957.5c-8.6 0-17.4-2.2-25.3-6.8L528 931.6c-9.5-5.5-21.3-5.5-30.8 0L464 950.7c-24.3 14-55.5 5.7-69.5-18.6L375.4 899c-5.5-9.5-15.7-15.4-26.7-15.4h-38.3c-28 0-50.8-22.8-50.8-50.9v-38.3c0-11-5.9-21.2-15.4-26.7L211 748.6c-11.8-6.8-20.2-17.8-23.7-30.9-3.5-13.1-1.7-26.8 5.1-38.6l19.1-33.1c5.5-9.5 5.5-21.3 0-30.9L192.4 582c-14-24.3-5.7-55.4 18.6-69.5l33.1-19.1c9.5-5.5 15.4-15.7 15.4-26.7v-38.3c0-28 22.8-50.9 50.8-50.9h38.3c8.3 0 16.3-3.4 22.1-9.3 1.8-1.8 3.4-3.9 4.7-6.1l19.1-33.1c10.6-18.4 31.8-28.3 52.7-24.7 4.6.8 9 2.2 13.2 4.2 1.2.5 2.3 1.2 3.5 1.8l33.1 19.1c9.5 5.5 21.3 5.5 30.8 0l33.1-19.1c5.2-3 10.9-5.1 16.8-6.1 20.9-3.6 42.1 6.3 52.7 24.7l19.1 33.1c1.3 2.2 2.9 4.3 4.6 6.1 5.8 5.9 13.8 9.3 22.1 9.3h38.2c28 0 50.9 22.8 50.9 50.9v38.3c0 11 5.9 21.2 15.4 26.7l33.1 19.1c24.3 14 32.6 45.2 18.6 69.5L813.3 615c-5.5 9.5-5.5 21.3 0 30.9l19.1 33.1c6.8 11.8 8.6 25.5 5.1 38.6-3.5 13.1-11.9 24.1-23.7 30.9L781 767.7c-9.5 5.5-15.4 15.7-15.4 26.7v38.3c0 28-22.8 50.9-50.9 50.9h-38.2c-11 0-21.2 5.9-26.7 15.4l-19.1 33.1c-9.5 16.3-26.7 25.4-44.2 25.4zm-73.9-50c8.8 0 17.6 2.3 25.4 6.8l33.1 19.1c14.7 8.5 33.6 3.4 42.1-11.3l19.1-33.1c9-15.7 25.9-25.4 44-25.4h38.2c17 0 30.9-13.8 30.9-30.9v-38.3c0-18.1 9.7-35 25.4-44l33.1-19.1c7.1-4.1 12.2-10.8 14.4-18.7 2.1-8 1-16.3-3.1-23.4l-19-33.2c-9-15.7-9-35.2 0-50.9l19.1-33.1c4.1-7.1 5.2-15.4 3.1-23.4-2.1-8-7.2-14.6-14.4-18.7l-33-19.1c-15.7-9-25.4-25.9-25.4-44v-38.3c0-17-13.8-30.9-30.9-30.9h-38.2c-13.6 0-26.9-5.6-36.4-15.3-3-3-5.5-6.4-7.7-10.1l-19.1-33.1c-6.4-11.2-19.3-17.2-32-15-3.6.6-7 1.9-10.2 3.7L538 346.9c-15.7 9.1-35.2 9.1-50.8 0L454 327.8c-.7-.4-1.4-.8-2-1.1 0 0-.1 0-.1-.1-2.6-1.2-5.3-2.1-8-2.6-12.7-2.2-25.5 3.8-32 15l-19.1 33.1c-2.1 3.7-4.7 7.1-7.7 10.1-9.5 9.7-22.7 15.3-36.4 15.3h-38.3c-17 0-30.8 13.8-30.8 30.9v38.3c0 18.1-9.7 35-25.4 44l-33.1 19.1c-7.1 4.1-12.2 10.8-14.4 18.7-2.1 8-1 16.3 3.1 23.4l19.1 33.1c9.1 15.7 9.1 35.2 0 50.9L209.8 689c-4.1 7.1-5.2 15.4-3.1 23.4 2.1 8 7.2 14.6 14.4 18.7l33.1 19.1c15.7 9 25.4 25.9 25.4 44v38.3c0 17 13.8 30.9 30.8 30.9h38.3c18.1 0 35 9.7 44 25.4l19.1 33.1c8.5 14.7 27.4 19.8 42.2 11.3l33.1-19.1c7.9-4.3 16.7-6.6 25.5-6.6z"
                fill="#000000" class="color000 svgShape"></path>
            <path
                d="M647.2 385.3c-2.7 0-5.3-1.1-7.1-3-3-3-5.5-6.4-7.7-10.1l-19.1-33.1c-6.4-11.2-19.3-17.2-32-15-3.6.6-7 1.9-10.2 3.7L538 346.9c-15.7 9.1-35.2 9.1-50.8 0l-21.7-12.5c-2.3-1.3-4-3.6-4.7-6.2-.7-2.6-.3-5.4 1.1-7.7l42.1-69.2 106.5-175c3.7-6.1 10.4-9.8 17.5-9.8h182.4c7.4 0 14.2 4 17.9 10.5s3.5 14.4-.4 20.7L655.8 380.5c-1.6 2.6-4.3 4.4-7.4 4.7-.4.1-.8.1-1.2.1zm-60.7-81.7c17.9 0 35 9.6 44.1 25.4l16.1 27.9L810.9 87.2c.1-.1.2-.2 0-.5s-.3-.3-.4-.3H628c-.2 0-.3.1-.4.2L484.3 322.2l12.9 7.4c9.5 5.5 21.3 5.5 30.8 0l33.1-19.1c5.2-3 10.9-5.1 16.8-6.1 2.8-.5 5.7-.8 8.6-.8zM928.4 899h-76c-5.5 0-10-4.5-10-10s4.5-10 10-10h76c5.5 0 10 4.5 10 10s-4.4 10-10 10zM125.6 413c-22.1 0-40-17.9-40-40s17.9-40 40-40 40 17.9 40 40-18 40-40 40zm0-60c-11 0-20 9-20 20s9 20 20 20 20-9 20-20-9-20-20-20zm736.9-56.1c-5.5 0-10-4.5-10-10V262c0-5.5 4.5-10 10-10s10 4.5 10 10v24.9c0 5.5-4.5 10-10 10zm0 107.1c-5.5 0-10-4.5-10-10v-24.9c0-5.5 4.5-10 10-10s10 4.5 10 10V394c0 5.5-4.5 10-10 10zM174.2 933.8c-2.6 0-5.1-1-7.1-2.9l-73.5-73.5c-3.9-3.9-3.9-10.2 0-14.1 3.9-3.9 10.2-3.9 14.1 0l73.5 73.5c3.9 3.9 3.9 10.2 0 14.1-1.9 1.9-4.4 2.9-7 2.9zM821.4 338h-24.9c-5.5 0-10-4.5-10-10s4.5-10 10-10h24.9c5.5 0 10 4.5 10 10s-4.5 10-10 10zm107 0h-24.9c-5.5 0-10-4.5-10-10s4.5-10 10-10h24.9c5.5 0 10 4.5 10 10s-4.4 10-10 10z"
                fill="#000000" class="color000 svgShape"></path>
            <path
                d="M100.7 933.8c-2.6 0-5.1-1-7.1-2.9-3.9-3.9-3.9-10.2 0-14.1l73.5-73.5c3.9-3.9 10.2-3.9 14.1 0 3.9 3.9 3.9 10.2 0 14.1l-73.5 73.5c-1.9 1.9-4.4 2.9-7 2.9z"
                fill="#000000" class="color000 svgShape"></path>
        </svg></g>
</svg>