<svg id="SvgjsSvg1332" width="256" height="256" xmlns="http://www.w3.org/2000/svg" version="1.1" xmlns:xlink="http://www.w3.org/1999/xlink" xmlns:svgjs="http://svgjs.com/svgjs"><defs id="SvgjsDefs1333"></defs><g id="SvgjsG1334"><svg xmlns="http://www.w3.org/2000/svg" viewBox="0 0 100 100" width="256" height="256"><g data-name="Layer 2"><path d="M32.93 78.79a1.5 1.5 0 00-1.5 1.5v3a1.5 1.5 0 003 0v-3A1.5 1.5 0 0032.93 78.79zM67.07 78.79a1.5 1.5 0 00-1.5 1.5v3a1.5 1.5 0 003 0v-3A1.5 1.5 0 0067.07 78.79zM32.93 63.12a1.5 1.5 0 00-1.5 1.5v3a1.5 1.5 0 003 0v-3A1.5 1.5 0 0032.93 63.12zM15.43 73.41a1.51 1.51 0 001.5-1.5v-3a1.5 1.5 0 00-3 0v3A1.5 1.5 0 0015.43 73.41zM15.43 84.78a1.5 1.5 0 001.5-1.5v-3a1.5 1.5 0 00-3 0v3A1.5 1.5 0 0015.43 84.78zM65.57 64.62v3a1.5 1.5 0 103 0v-3a1.5 1.5 0 10-3 0zM41.47 63.12a1.5 1.5 0 00-1.5 1.5v3a1.5 1.5 0 003 0v-3A1.5 1.5 0 0041.47 63.12zM50 63.12a1.5 1.5 0 00-1.5 1.5v3a1.5 1.5 0 003 0v-3A1.5 1.5 0 0050 63.12zM58.53 63.12a1.5 1.5 0 00-1.5 1.5v3a1.5 1.5 0 003 0v-3A1.5 1.5 0 0058.53 63.12zM84.57 73.41a1.5 1.5 0 001.5-1.5v-3a1.5 1.5 0 00-3 0v3A1.51 1.51 0 0084.57 73.41zM84.57 84.78a1.5 1.5 0 001.5-1.5v-3a1.5 1.5 0 00-3 0v3A1.5 1.5 0 0084.57 84.78z" fill="#000000" class="color000 svgShape"></path><path d="M95,90.75h-.8V61.21a1.5,1.5,0,0,0-1.5-1.5H78V55.05a1.5,1.5,0,0,0-1.5-1.5H67.77V41h1.48a1.5,1.5,0,0,0,0-3H67.73A18.25,18.25,0,0,0,51,20.7V15.24h8.76a1.5,1.5,0,0,0,1.5-1.5v-6a1.5,1.5,0,0,0-1.5-1.5H49.51A1.5,1.5,0,0,0,48,7.75v13A18.27,18.27,0,0,0,31.28,38h-.53a1.5,1.5,0,1,0,0,3h.49V53.55H23.55a1.5,1.5,0,0,0-1.5,1.5v4.66H7.3a1.5,1.5,0,0,0-1.5,1.5V90.75H5a1.5,1.5,0,0,0,0,3H95a1.5,1.5,0,0,0,0-3ZM51,9.25h7.26v3H51Zm-29,81.5H8.8v-28H22.05ZM49.51,23.62A15.27,15.27,0,0,1,64.73,38H34.28A15.28,15.28,0,0,1,49.51,23.62ZM64.77,41V53.55H59.39V41Zm-8.38,0V53.55H51V41ZM48,41V53.55H42.62V41ZM34.24,41h5.38V53.55H34.24ZM48.5,90.75H43.23V78H48.5Zm8.27,0H51.5V78h5.27Zm18.18,0H59.77V76.48a1.5,1.5,0,0,0-1.5-1.5H41.73a1.5,1.5,0,0,0-1.5,1.5V90.75H25.05V56.55H75Zm16.25,0H78v-28H91.2Z" fill="#000000" class="color000 svgShape"></path></g></svg></g></svg>