<svg id="SvgjsSvg1361" width="256" height="256" xmlns="http://www.w3.org/2000/svg" version="1.1"
    xmlns:xlink="http://www.w3.org/1999/xlink" xmlns:svgjs="http://svgjs.com/svgjs">
    <defs id="SvgjsDefs1362"></defs>
    <g id="SvgjsG1363"><svg xmlns="http://www.w3.org/2000/svg" data-name="Layer 1" viewBox="0 0 57 57" width="256"
            height="256">
            <path fill="#000000"
                d="M37,10H20a.5.5,0,0,1-.5-.5v-5A2.5,2.5,0,0,1,22,2H35a2.5,2.5,0,0,1,2.5,2.5v5A.5.5,0,0,1,37,10ZM20.5,9h16V4.5A1.5,1.5,0,0,0,35,3H22a1.5,1.5,0,0,0-1.5,1.5Z"
                class="color000000 svgShape"></path>
            <path fill="#000000"
                d="M51.5,55H5.5A3.5,3.5,0,0,1,2,51.5v-39A3.5,3.5,0,0,1,5.5,9h46A3.5,3.5,0,0,1,55,12.5v39A3.5,3.5,0,0,1,51.5,55ZM5.5,10A2.5,2.5,0,0,0,3,12.5v39A2.5,2.5,0,0,0,5.5,54h46A2.5,2.5,0,0,0,54,51.5v-39A2.5,2.5,0,0,0,51.5,10Z"
                class="color000000 svgShape"></path>
            <path fill="#000000"
                d="M28.62,21.5h-.24A2.39,2.39,0,0,1,26,19.12a.5.5,0,0,1,1,0,1.38,1.38,0,0,0,1.38,1.38h.24A1.38,1.38,0,0,0,30,19.12v-.24a1.38,1.38,0,0,0-1.38-1.38h-.24A2.39,2.39,0,0,1,26,15.12v-.24a2.39,2.39,0,0,1,2.38-2.38h.24A2.39,2.39,0,0,1,31,14.88a.5.5,0,1,1-1,0,1.38,1.38,0,0,0-1.38-1.38h-.24A1.38,1.38,0,0,0,27,14.88v.24a1.38,1.38,0,0,0,1.38,1.38h.24A2.39,2.39,0,0,1,31,18.88v.24A2.39,2.39,0,0,1,28.62,21.5Z"
                class="color000000 svgShape"></path>
            <path fill="#000000"
                d="M28.5 13.5A.5.5 0 0128 13V11.5a.5.5 0 011 0V13A.5.5 0 0128.5 13.5zM28.5 23a.5.5 0 01-.5-.5V21a.5.5 0 011 0v1.5A.5.5 0 0128.5 23zM11.62 21.5h-.24A2.39 2.39 0 019 19.12a.5.5 0 011 0 1.38 1.38 0 001.38 1.38h.24A1.38 1.38 0 0013 19.12v-.24a1.38 1.38 0 00-1.38-1.38h-.24A2.39 2.39 0 019 15.12v-.24a2.39 2.39 0 012.38-2.38h.24A2.39 2.39 0 0114 14.88a.5.5 0 11-1 0 1.38 1.38 0 00-1.38-1.38h-.24A1.38 1.38 0 0010 14.88v.24a1.38 1.38 0 001.38 1.38h.24A2.39 2.39 0 0114 18.88v.24A2.39 2.39 0 0111.62 21.5z"
                class="color000000 svgShape"></path>
            <path fill="#000000"
                d="M11.5 13.5A.5.5 0 0111 13V11.5a.5.5 0 011 0V13A.5.5 0 0111.5 13.5zM11.5 23a.5.5 0 01-.5-.5V21a.5.5 0 011 0v1.5A.5.5 0 0111.5 23zM45.62 21.5h-.24A2.39 2.39 0 0143 19.12a.5.5 0 011 0 1.38 1.38 0 001.38 1.38h.24A1.38 1.38 0 0047 19.12v-.24a1.38 1.38 0 00-1.38-1.38h-.24A2.39 2.39 0 0143 15.12v-.24a2.39 2.39 0 012.38-2.38h.24A2.39 2.39 0 0148 14.88a.5.5 0 11-1 0 1.38 1.38 0 00-1.38-1.38h-.24A1.38 1.38 0 0044 14.88v.24a1.38 1.38 0 001.38 1.38h.24A2.39 2.39 0 0148 18.88v.24A2.39 2.39 0 0145.62 21.5z"
                class="color000000 svgShape"></path>
            <path fill="#000000"
                d="M45.5 13.5A.5.5 0 0145 13V11.5a.5.5 0 011 0V13A.5.5 0 0145.5 13.5zM45.5 23a.5.5 0 01-.5-.5V21a.5.5 0 011 0v1.5A.5.5 0 0145.5 23zM28.62 36.5h-.24A2.39 2.39 0 0126 34.12a.5.5 0 011 0 1.38 1.38 0 001.38 1.38h.24A1.38 1.38 0 0030 34.12v-.24a1.38 1.38 0 00-1.38-1.38h-.24A2.39 2.39 0 0126 30.12v-.24a2.39 2.39 0 012.38-2.38h.24A2.39 2.39 0 0131 29.88a.5.5 0 01-1 0 1.38 1.38 0 00-1.38-1.38h-.24A1.38 1.38 0 0027 29.88v.24a1.38 1.38 0 001.38 1.38h.24A2.39 2.39 0 0131 33.88v.24A2.39 2.39 0 0128.62 36.5z"
                class="color000000 svgShape"></path>
            <path fill="#000000"
                d="M28.5 28.5A.5.5 0 0128 28V26.5a.5.5 0 011 0V28A.5.5 0 0128.5 28.5zM28.5 38a.5.5 0 01-.5-.5V36a.5.5 0 011 0v1.5A.5.5 0 0128.5 38zM11.62 36.5h-.24A2.39 2.39 0 019 34.12a.5.5 0 011 0 1.38 1.38 0 001.38 1.38h.24A1.38 1.38 0 0013 34.12v-.24a1.38 1.38 0 00-1.38-1.38h-.24A2.39 2.39 0 019 30.12v-.24a2.39 2.39 0 012.38-2.38h.24A2.39 2.39 0 0114 29.88a.5.5 0 01-1 0 1.38 1.38 0 00-1.38-1.38h-.24A1.38 1.38 0 0010 29.88v.24a1.38 1.38 0 001.38 1.38h.24A2.39 2.39 0 0114 33.88v.24A2.39 2.39 0 0111.62 36.5z"
                class="color000000 svgShape"></path>
            <path fill="#000000"
                d="M11.5 28.5A.5.5 0 0111 28V26.5a.5.5 0 011 0V28A.5.5 0 0111.5 28.5zM11.5 38a.5.5 0 01-.5-.5V36a.5.5 0 011 0v1.5A.5.5 0 0111.5 38zM45.62 36.5h-.24A2.39 2.39 0 0143 34.12a.5.5 0 011 0 1.38 1.38 0 001.38 1.38h.24A1.38 1.38 0 0047 34.12v-.24a1.38 1.38 0 00-1.38-1.38h-.24A2.39 2.39 0 0143 30.12v-.24a2.39 2.39 0 012.38-2.38h.24A2.39 2.39 0 0148 29.88a.5.5 0 01-1 0 1.38 1.38 0 00-1.38-1.38h-.24A1.38 1.38 0 0044 29.88v.24a1.38 1.38 0 001.38 1.38h.24A2.39 2.39 0 0148 33.88v.24A2.39 2.39 0 0145.62 36.5z"
                class="color000000 svgShape"></path>
            <path fill="#000000"
                d="M45.5 28.5A.5.5 0 0145 28V26.5a.5.5 0 011 0V28A.5.5 0 0145.5 28.5zM45.5 38a.5.5 0 01-.5-.5V36a.5.5 0 011 0v1.5A.5.5 0 0145.5 38zM52.5 25H4.5a.5.5 0 010-1h48a.5.5 0 010 1zM28.62 51.5h-.24A2.39 2.39 0 0126 49.12a.5.5 0 011 0 1.38 1.38 0 001.38 1.38h.24A1.38 1.38 0 0030 49.12v-.24a1.38 1.38 0 00-1.38-1.38h-.24A2.39 2.39 0 0126 45.12v-.24a2.39 2.39 0 012.38-2.38h.24A2.39 2.39 0 0131 44.88a.5.5 0 01-1 0 1.38 1.38 0 00-1.38-1.38h-.24A1.38 1.38 0 0027 44.88v.24a1.38 1.38 0 001.38 1.38h.24A2.39 2.39 0 0131 48.88v.24A2.39 2.39 0 0128.62 51.5z"
                class="color000000 svgShape"></path>
            <path fill="#000000"
                d="M28.5 43.5A.5.5 0 0128 43V41.5a.5.5 0 011 0V43A.5.5 0 0128.5 43.5zM28.5 53a.5.5 0 01-.5-.5V51a.5.5 0 011 0v1.5A.5.5 0 0128.5 53zM11.62 51.5h-.24A2.39 2.39 0 019 49.12a.5.5 0 011 0 1.38 1.38 0 001.38 1.38h.24A1.38 1.38 0 0013 49.12v-.24a1.38 1.38 0 00-1.38-1.38h-.24A2.39 2.39 0 019 45.12v-.24a2.39 2.39 0 012.38-2.38h.24A2.39 2.39 0 0114 44.88a.5.5 0 01-1 0 1.38 1.38 0 00-1.38-1.38h-.24A1.38 1.38 0 0010 44.88v.24a1.38 1.38 0 001.38 1.38h.24A2.39 2.39 0 0114 48.88v.24A2.39 2.39 0 0111.62 51.5z"
                class="color000000 svgShape"></path>
            <path fill="#000000"
                d="M11.5 43.5A.5.5 0 0111 43V41.5a.5.5 0 011 0V43A.5.5 0 0111.5 43.5zM11.5 53a.5.5 0 01-.5-.5V51a.5.5 0 011 0v1.5A.5.5 0 0111.5 53zM45.62 51.5h-.24A2.39 2.39 0 0143 49.12a.5.5 0 011 0 1.38 1.38 0 001.38 1.38h.24A1.38 1.38 0 0047 49.12v-.24a1.38 1.38 0 00-1.38-1.38h-.24A2.39 2.39 0 0143 45.12v-.24a2.39 2.39 0 012.38-2.38h.24A2.39 2.39 0 0148 44.88a.5.5 0 01-1 0 1.38 1.38 0 00-1.38-1.38h-.24A1.38 1.38 0 0044 44.88v.24a1.38 1.38 0 001.38 1.38h.24A2.39 2.39 0 0148 48.88v.24A2.39 2.39 0 0145.62 51.5z"
                class="color000000 svgShape"></path>
            <path fill="#000000"
                d="M45.5 43.5A.5.5 0 0145 43V41.5a.5.5 0 011 0V43A.5.5 0 0145.5 43.5zM45.5 53a.5.5 0 01-.5-.5V51a.5.5 0 011 0v1.5A.5.5 0 0145.5 53zM52.5 40H4.5a.5.5 0 010-1h48a.5.5 0 010 1z"
                class="color000000 svgShape"></path>
            <path fill="#000000"
                d="M20 52a.5.5 0 01-.5-.5v-40a.5.5 0 011 0v40A.5.5 0 0120 52zM37 52a.5.5 0 01-.5-.5v-40a.5.5 0 011 0v40A.5.5 0 0137 52z"
                class="color000000 svgShape"></path>
        </svg></g>
</svg>