<?xml version="1.0" encoding="utf-8"?>
<!-- Generator: Adobe Illustrator 25.4.1, SVG Export Plug-In . SVG Version: 6.00 Build 0)  -->
<svg version="1.1" id="Layer_1" xmlns="http://www.w3.org/2000/svg" xmlns:xlink="http://www.w3.org/1999/xlink" x="0px" y="0px"
	 viewBox="0 0 725.1 455.1" style="enable-background:new 0 0 725.1 455.1;" xml:space="preserve">
<style type="text/css">
	.st0{fill:#FFE5AD;}
	.st1{fill:#FFFFFF;}
	.st2{fill:#F24C64;}
	.st3{fill:#EFD297;}
	.st4{opacity:0.5;fill:#FFF5DB;enable-background:new    ;}
	.st5{fill:#DDB978;}
	.st6{fill:#FFF5DB;}
	.st7{fill:#3FBCA7;}
	.st8{fill:#4CC8B6;}
	.st9{fill:#D33356;}
	.st10{fill:#E2435F;}
	.st11{fill:#EA9F1B;}
	.st12{fill:#FDBA2E;}
	.st13{fill:#05AFD6;}
	.st14{fill:#03BEEF;}
	.st15{fill:#523D3C;}
	.st16{fill:#FFCA6C;}
	.st17{fill:#3B232F;}
	.st18{fill:#472F2F;}
	.st19{fill:#FF7C6D;}
	.st20{fill:#281017;}
	.st21{fill:#FB9575;}
	.st22{fill:#5B2F50;}
	.st23{fill:#3D2020;}
	.st24{fill:#FF6A59;}
</style>
<path class="st0" d="M546.6,192.1c-6.9,0-13.9,0.5-20.8,1.4c31.2-68.9,0.5-150.1-68.4-181.3s-150.1-0.5-181.3,68.4
	c-7.3,16.2-11.4,33.7-12.1,51.5c-13.3-2.8-26.8-4.2-40.3-4.2c-107.4,0-194.5,87.1-194.5,194.5c-0.1,45.8,16.1,90.1,45.6,125.1h594.5
	c54.2-67.8,43.2-166.8-24.6-221C616.9,204.3,582.3,192.1,546.6,192.1L546.6,192.1z"/>
<path class="st1" d="M534.8,162.1c-30.8,12.1-65.6-3.1-77.7-33.9s3.1-65.6,33.9-77.7c30.8-12.1,65.6,3.1,77.7,33.8
	C580.8,115.2,565.7,150,534.8,162.1C534.9,162.1,534.9,162.1,534.8,162.1L534.8,162.1z"/>
<path class="st1" d="M0,0"/>
<path class="st2" d="M513,84.4L513,84.4L513,84.4c-9.5-15.2-31.5-10.5-30.4,9.8s30.2,48.8,30.2,48.8h0.1c0,0,29.2-28.5,30.3-48.8
	S522.4,69.2,513,84.4L513,84.4z"/>
<path class="st0" d="M257.9,108c0,40.5-32.9,73.4-73.4,73.4s-73.4-32.9-73.4-73.4s32.9-73.4,73.4-73.4c0,0,0,0,0,0
	C225,34.6,257.9,67.5,257.9,108L257.9,108z"/>
<path class="st3" d="M631.5,447.4c78.5-49.9,99.8-158.4,61.8-168.3s-93.9,69.5-91.5,168.8L631.5,447.4z"/>
<path class="st4" d="M692,289.1c-0.6-0.5-1.5-0.4-2,0.1c-0.3,0.4-32,37.6-46,77.2s-14.1,71.9-14.1,72.2c0,0.6,0.5,1.2,1.1,1.4
	c0.1,0,0.2,0.1,0.4,0c0.8,0,1.4-0.6,1.4-1.4c0,0,0,0,0,0c0-0.3,0-32.2,13.9-71.2c3.5-9.6,7.8-19,12.8-28c0.1,0,0.2-0.1,0.3-0.1
	l26-18.7c0.7-0.4,0.9-1.3,0.5-2c-0.4-0.7-1.3-0.9-2-0.5c-0.1,0-0.1,0.1-0.2,0.1l-21.4,15.4c8.7-15,18.5-29.2,29.5-42.5
	C692.7,290.5,692.6,289.6,692,289.1C692,289.1,692,289.1,692,289.1z"/>
<path class="st5" d="M641.1,451.8c58.3-7.6,98.2-68.3,79.2-84.1s-76.5,25.3-101.7,82.8L641.1,451.8z"/>
<path class="st6" d="M637.5,443c-0.4,0-0.7-0.2-1-0.5c-0.5-0.6-0.5-1.4,0.1-1.9c0.2-0.1,17-15.3,30.2-28.3s43.6-37.8,43.9-38
	c0.6-0.5,1.5-0.4,1.9,0.2s0.4,1.5-0.2,1.9c-0.3,0.2-30.5,25-43.7,37.9s-30.1,28.2-30.3,28.4C638.2,442.9,637.8,443.1,637.5,443z"/>
<path class="st6" d="M669.1,413.4c-0.8,0-1.4-0.6-1.4-1.3c0-0.6,0.3-1.1,0.8-1.3l26.6-11.5c0.7-0.3,1.5,0,1.8,0.7
	c0.3,0.7,0,1.5-0.7,1.8l-26.6,11.5C669.4,413.4,669.2,413.4,669.1,413.4z"/>
<path class="st3" d="M113.7,452C33.8,406.3,6.2,302.9,43.3,291.3s91.2,60.6,93.3,158.8L113.7,452z"/>
<path class="st5" d="M84.3,453.4c-57.1-6.6-98.3-59.2-79.9-75s70.3,17.7,95.6,73.6L84.3,453.4z"/>
<path class="st4" d="M109.6,439.2c0-0.2-4.5-19.9-15.6-49.6l3.6-37.4c0-0.8-0.6-1.5-1.5-1.6c-0.8,0-1.4,0.5-1.5,1.3l-3,31.3
	c-1.2-3-2.4-6.1-3.7-9.3c-2.7-6.7-5.6-13.2-8.5-19.5v-0.1c-8.3-17.8-17.7-35.2-27.9-51.9c-0.4-0.7-1.4-0.9-2.1-0.5
	c-0.7,0.4-0.9,1.4-0.5,2.1l0,0c0.2,0.2,12,19,24.4,44.6l-19.6-17.9c-0.5-0.6-1.5-0.7-2.1-0.2c-0.6,0.5-0.7,1.5-0.2,2.1
	c0.1,0.1,0.2,0.2,0.3,0.3l25,22.9c2.9,6.1,5.7,12.5,8.4,19.1c15.5,38.1,21.5,64.5,21.5,64.8c0.2,0.7,0.8,1.2,1.5,1.2
	c0.1,0,0.2,0,0.3,0C109.2,440.9,109.7,440.1,109.6,439.2C109.6,439.2,109.6,439.2,109.6,439.2z"/>
<path class="st6" d="M86.4,451.1c-0.4,0-0.7-0.1-1-0.4c-0.2-0.1-16.9-14.8-30-27.3s-42.9-36.2-43.2-36.4c-0.7-0.5-0.8-1.5-0.2-2.1
	c0.5-0.7,1.5-0.8,2.1-0.2c0.3,0.2,30.3,24,43.4,36.6s29.8,27.1,29.9,27.2c0.6,0.6,0.7,1.5,0.1,2.1C87.3,451,86.9,451.1,86.4,451.1
	L86.4,451.1z"/>
<path class="st6" d="M55.2,422.6c-0.2,0-0.4,0-0.6-0.1l-26.2-10.8c-0.8-0.3-1.1-1.2-0.8-2s1.2-1.1,2-0.8l0,0l26.2,10.8
	c0.8,0.3,1.1,1.2,0.8,2C56.3,422.3,55.8,422.6,55.2,422.6L55.2,422.6z"/>
<rect x="478.3" y="346.6" class="st7" width="101" height="101"/>
<rect x="522.5" y="346.6" class="st8" width="87" height="101"/>
<rect x="361" y="245.6" class="st9" width="101" height="101"/>
<rect x="405.2" y="245.6" class="st10" width="87" height="101"/>
<rect x="303.2" y="144.2" class="st11" width="101" height="101"/>
<rect x="347.4" y="144.2" class="st12" width="87" height="101"/>
<rect x="328.5" y="346.6" class="st13" width="101" height="101"/>
<rect x="372.7" y="346.6" class="st14" width="87" height="101"/>
<rect x="338.6" y="43.3" class="st13" width="101" height="101"/>
<rect x="382.7" y="43.3" class="st14" width="87" height="101"/>
<path class="st14" d="M0,0"/>
<path class="st14" d="M0,0"/>
<path class="st14" d="M0,0"/>
<path class="st15" d="M459.7,347.1H328.5c-0.3,0-0.6-0.2-0.6-0.5c0-0.3,0.2-0.6,0.5-0.6c0,0,0.1,0,0.1,0h131.2
	c0.3,0,0.6,0.2,0.6,0.5c0,0.3-0.2,0.6-0.5,0.6C459.8,347.1,459.7,347.1,459.7,347.1z"/>
<path class="st15" d="M0,0"/>
<path class="st12" d="M137.5,240.7h-12.9v-11.6c0-4.6-3.7-8.3-8.3-8.3c0,0,0,0,0,0H34.6c-4.6,0-8.3,3.7-8.3,8.3c0,0,0,0,0,0v33
	c0,4.6,3.7,8.3,8.3,8.3c0,0,0,0,0,0h81.7c4.6,0,8.3-3.7,8.3-8.3c0,0,0,0,0,0v-10.2C129.3,250.2,136.8,246.6,137.5,240.7z"/>
<rect x="55" y="240.2" class="st1" width="9.8" height="22.4"/>
<path class="st1" d="M71.3,262.6h-4v-22.4h4c5.8-1.3,7.4-7.1,7.9-10.9c0.2-1.3,1.4-2.3,2.7-2.1c0.8,0.1,1.5,0.6,1.9,1.3
	c0.6,1.1,0.9,2.3,0.9,3.6c0.1,4,0.1,6.6,0.1,6.6h2.1c4.8,0,8.7,3.9,8.7,8.7v6.8c0,4.7-3.7,8.5-8.3,8.7L71.3,262.6z"/>
<path class="st1" d="M0,0"/>
<path class="st15" d="M719.8,450.9c0,1-0.4,2-1.1,2.8c-0.8,0.9-2,1.5-3.2,1.5H12.1c-1.3,0-2.5-0.6-3.3-1.5c-1.5-1.7-1.3-4.3,0.5-5.8
	c0.2-0.2,0.4-0.3,0.7-0.5c0.7-0.4,1.4-0.6,2.2-0.6h703.4c1.1,0,2.2,0.4,3,1.1C719.3,448.6,719.8,449.7,719.8,450.9z"/>
<path class="st12" d="M175.1,352.8c21.6,21.6,21.6,56.6,0,78.1c-21.6,21.6-56.6,21.6-78.1,0c-21.6-21.6-21.6-56.6,0-78.1
	C118.5,331.2,153.5,331.2,175.1,352.8C175.1,352.8,175.1,352.8,175.1,352.8z"/>
<path class="st12" d="M0,0"/>
<path class="st16" d="M166.4,361.5c16.8,16.8,16.8,44,0.1,60.8s-44,16.8-60.8,0.1c-16.8-16.8-16.8-44-0.1-60.8c0,0,0,0,0.1-0.1
	C122.4,344.8,149.6,344.8,166.4,361.5z"/>
<path class="st16" d="M0,0"/>
<path class="st17" d="M0,0"/>
<path class="st1" d="M653.5,212.7H541.9c-4,0-7.2,3.2-7.2,7.2c0,0,0,0,0,0v49.7c0,4,3.2,7.2,7.2,7.2h15.4l8.2,14.3
	c0.1,0.2,0.2,0.4,0.4,0.5c0.5,0.4,1.3,0.4,1.8,0c0.2-0.1,0.3-0.3,0.5-0.5l8-14.3h77.3c4,0,7.2-3.2,7.2-7.2v-49.7
	C660.7,216,657.5,212.7,653.5,212.7C653.5,212.7,653.5,212.7,653.5,212.7L653.5,212.7z"/>
<path class="st18" d="M541.9,212.3h111.6c4.2,0,7.6,3.4,7.6,7.6v49.7c0,4.2-3.4,7.6-7.6,7.6h-77.1l-7.9,14.1
	c-0.1,0.3-0.3,0.5-0.6,0.6c-0.7,0.5-1.6,0.5-2.3,0c-0.2-0.2-0.4-0.4-0.5-0.6l-8.2-14.3c-0.1-0.2-0.1-0.4,0.1-0.5c0,0,0,0,0,0
	c0.2-0.1,0.4,0,0.5,0.1l8.2,14.3c0.1,0.1,0.2,0.3,0.3,0.4c0.4,0.3,1,0.3,1.4,0c0.1-0.1,0.3-0.2,0.3-0.4l8-14.3
	c0.1-0.1,0.2-0.2,0.3-0.2h77.3c3.8,0,6.8-3.1,6.8-6.9v-49.7c0-3.8-3.1-6.8-6.8-6.9H541.9c-3.8,0-6.8,3.1-6.8,6.9v49.7
	c0,3.8,3.1,6.9,6.8,6.9c0.2,0,0.4,0.2,0.3,0.4c0,0.2-0.2,0.3-0.3,0.3c-4.2,0-7.6-3.4-7.6-7.6v-49.7
	C534.3,215.7,537.7,212.3,541.9,212.3z"/>
<path class="st18" d="M0,0"/>
<path class="st19" d="M292.4,404.4l11,20.5l1,4l12.4,2.7c0,0,8.4-3.6,9.1-5.9s0.4-9,0.4-9l-12.5-19.4L292.4,404.4z"/>
<path class="st20" d="M316.7,431.9L316.7,431.9l-12.4-2.7c-0.1,0-0.2-0.1-0.2-0.2l-1-4l-11-20.5c0-0.1,0-0.2,0-0.3
	c0-0.1,0.1-0.2,0.2-0.2l21.4-7.1c0.1,0,0.3,0,0.4,0.1l12.5,19.5c0,0,0,0.1,0,0.1c0,0.3,0.4,6.8-0.4,9.1S317.7,431.6,316.7,431.9
	L316.7,431.9L316.7,431.9z M304.6,428.6l12.1,2.6c2.4-1,8.3-3.9,8.9-5.6c0.7-2.1,0.4-8.1,0.4-8.8l-12.3-19.2l-20.8,7l10.8,20.2
	c0,0,0,0,0,0.1L304.6,428.6z"/>
<polygon class="st19" points="212.4,400.5 216.8,418.1 220.7,426.6 239.9,429.8 240.6,421.3 233.8,397.3 "/>
<path class="st20" d="M239.9,430.1L239.9,430.1l-19.2-3.2c-0.1,0-0.2-0.1-0.2-0.2l-3.9-8.6l-4.4-17.6c0-0.1,0-0.2,0-0.2
	c0.1-0.1,0.1-0.1,0.2-0.1l21.4-3.2c0.2,0,0.3,0.1,0.3,0.2l6.8,24c0,0,0,0.1,0,0.1l-0.7,8.5c0,0.1-0.1,0.2-0.1,0.2
	C240,430.1,240,430.1,239.9,430.1L239.9,430.1z M220.9,426.3l18.7,3.1l0.7-8.1l-6.7-23.7l-20.8,3.1l4.3,17.2L220.9,426.3z"/>
<path class="st12" d="M242.2,421c-0.2-0.4-0.6-0.7-1.1-0.7c-0.4,0-0.8,0.2-1.1,0.5c-1.9,2.5-6.3,6.6-12.4,3.7
	c-0.1-0.1-0.2-0.1-0.3-0.2c-0.1-0.1-0.1-0.2-0.2-0.3c-1.2-1.9-7.6-12-16.6-13.1c-0.6-0.1-1.2,0.2-1.4,0.8c-0.7,1.9-2.9,6.5-7.1,7.9
	c0,0-30.9,8.8-36.7,23.9c-0.2,0.4-0.1,0.8,0.1,1.2c0.2,0.3,0.6,0.5,1,0.6l78.3,1.3c0.4,0,0.8-0.2,1-0.5c0.2-0.2,0.3-0.4,0.3-0.6
	C247.2,437.1,245.9,428.6,242.2,421L242.2,421z"/>
<path class="st12" d="M0,0"/>
<path class="st18" d="M228.5,436.3L228.5,436.3c-2.6,0-4.6-2.2-4.6-4.7c0-2.6,2.2-4.6,4.7-4.6l0,0c0.2,0,0.3,0.1,0.3,0.3
	c0,0,0,0,0,0c0,0.2-0.1,0.3-0.3,0.3l0,0c-2.2,0-4.1,1.7-4.1,4c0,2.2,1.7,4.1,4,4.1c0.2,0,0.3,0.2,0.2,0.4
	C228.7,436.1,228.6,436.2,228.5,436.3L228.5,436.3z"/>
<path class="st1" d="M246.3,443.1c0.2-2.8,0.2-5.6-0.1-8.4c-13.7,0.8-27.4,6.8-27.4,6.8L246.3,443.1z"/>
<path class="st1" d="M183.5,439.4v-2c0-2-1.5-3.6-3.5-3.6c0,0,0,0,0,0l-6.9-0.1c-2,1.6-3.8,3.4-5.4,5.5l0,0l-0.1,0.2l0,0
	c-1,1.3-1.8,2.7-2.4,4.2c-0.2,0.4-0.1,0.8,0.1,1.2c0.2,0.3,0.6,0.6,1,0.6l78.3,1.3c0.4,0,0.7-0.2,1-0.5c0.2-0.2,0.3-0.4,0.3-0.6
	c0.3-1.7,0.4-3.4,0.4-5L183.5,439.4z"/>
<path class="st18" d="M244.7,446.9L244.7,446.9l-78.3-1.3c-0.5,0-1-0.3-1.3-0.7c-0.3-0.4-0.4-1-0.2-1.5c0.6-1.5,1.4-3,2.4-4.3
	l0.1-0.2c0,0,0,0,0.1-0.1c1.6-2,3.4-3.9,5.4-5.5c0-0.1,0.1-0.1,0.2-0.1l7,0.1c2.1,0,3.8,1.8,3.8,4v1.7l62.6,1c0.1,0,0.2,0,0.2,0.1
	c0.1,0.1,0.1,0.1,0.1,0.2c0,1.7-0.2,3.4-0.4,5.1c-0.1,0.3-0.2,0.6-0.4,0.8C245.7,446.7,245.3,446.9,244.7,446.9L244.7,446.9z
	 M167.9,439.4l-0.1,0.1c-1,1.3-1.7,2.7-2.4,4.2c-0.2,0.5,0.1,1.1,0.6,1.3c0.1,0,0.2,0,0.3,0l78.3,1.3c0.3,0,0.6-0.1,0.8-0.3
	c0.1-0.1,0.2-0.3,0.2-0.5c0.2-1.6,0.4-3.1,0.4-4.7l-62.6-1.1c-0.1,0-0.2,0-0.2-0.1c-0.1-0.1-0.1-0.1-0.1-0.2v-2
	c0-1.8-1.4-3.3-3.2-3.3c0,0,0,0,0,0l-6.8-0.1C171.2,435.5,169.5,437.3,167.9,439.4L167.9,439.4L167.9,439.4z"/>
<path class="st18" d="M244.7,446.9L244.7,446.9l-78.3-1.3c-0.5,0-1-0.3-1.3-0.7c-0.3-0.4-0.4-1-0.2-1.5c3.1-7.9,12.9-14,20.7-17.8
	c0.2-0.1,0.3,0,0.4,0.1c0.1,0.2,0,0.3-0.1,0.4c-7.6,3.7-17.4,9.7-20.4,17.5c-0.1,0.3-0.1,0.6,0.1,0.9c0.2,0.3,0.5,0.4,0.8,0.4
	l78.3,1.3c0.3,0,0.6-0.1,0.8-0.3c0.1-0.1,0.2-0.3,0.2-0.5c1.2-8.3-0.1-16.7-3.8-24.3c-0.2-0.3-0.5-0.5-0.8-0.5
	c-0.3,0-0.6,0.1-0.8,0.4c-2.1,2.7-6.6,6.8-12.8,3.8c-0.2-0.1-0.3-0.2-0.4-0.3c-0.1-0.1-0.2-0.2-0.2-0.3c-1.2-2-7.6-11.9-16.4-13
	c-0.2,0-0.5,0-0.7,0.1c-0.2,0.1-0.3,0.3-0.4,0.5c-0.7,1.8-1.6,3.5-2.9,4.9c-0.1,0.1-0.3,0.1-0.4,0c0,0,0,0,0,0
	c-0.1-0.1-0.1-0.3,0-0.4c1.2-1.4,2.1-3,2.8-4.8c0.1-0.3,0.4-0.6,0.7-0.8c0.3-0.2,0.7-0.3,1.1-0.2c9.1,1.1,15.6,11.3,16.9,13.3
	c0,0.1,0.1,0.1,0.2,0.2c0.1,0.1,0.2,0.1,0.2,0.2c5.8,2.8,10-1.1,12-3.6c0.3-0.4,0.8-0.6,1.3-0.6c0.6,0,1.1,0.4,1.3,0.9
	c3.8,7.6,5.1,16.2,3.9,24.6c0,0.3-0.2,0.6-0.4,0.8C245.7,446.7,245.2,446.9,244.7,446.9L244.7,446.9z"/>
<path class="st18" d="M0,0"/>
<path class="st12" d="M298.3,421.9c0.2-0.4,0.6-0.7,1.1-0.7c0.4,0,0.8,0.2,1.1,0.5c1.9,2.5,6.1,6.8,12.3,4.1
	c0.1-0.1,0.2-0.1,0.4-0.2c0.1-0.1,0.1-0.2,0.2-0.2c1.2-1.9,8-11.8,17-12.6c0.3,0,0.6,0,0.8,0.2c0.2,0.1,0.4,0.4,0.5,0.6
	c0.7,2,2.7,6.6,6.9,8.1c0,0,30.6,9.7,35.9,25c0.1,0.4,0.1,0.8-0.2,1.2c-0.3,0.3-0.6,0.5-1.1,0.5l-78.3-1.1c-0.6,0-1.2-0.5-1.3-1.1
	C292.8,437.8,294.4,429.4,298.3,421.9L298.3,421.9z"/>
<path class="st12" d="M0,0"/>
<path class="st18" d="M311.5,437.5c-0.2,0-0.3-0.1-0.3-0.3c0-0.2,0.2-0.3,0.3-0.3c2.2,0,4.1-1.8,4.1-4s-1.8-4.1-4-4.1
	c-0.2,0-0.3-0.1-0.3-0.3c0-0.2,0.1-0.3,0.3-0.3l0,0c2.6,0,4.6,2.1,4.6,4.7C316.2,435.5,314.1,437.6,311.5,437.5
	C311.5,437.5,311.5,437.5,311.5,437.5L311.5,437.5z"/>
<path class="st1" d="M293.5,443.8c-0.2-2.8,0-5.6,0.4-8.4c13.7,1.2,27.2,7.6,27.2,7.6L293.5,443.8z"/>
<path class="st1" d="M356.4,442v-2c0-2,1.6-3.5,3.6-3.5c0,0,0,0,0,0l7,0.1c2,1.7,3.7,3.6,5.2,5.6l0,0c0,0.1,0.1,0.1,0.1,0.2l0,0
	c0.9,1.3,1.7,2.8,2.2,4.3c0.1,0.4,0.1,0.8-0.2,1.2c-0.2,0.3-0.6,0.5-1.1,0.5l-78.3-1c-0.4,0-0.8-0.2-1-0.5c-0.1-0.2-0.2-0.4-0.3-0.6
	c-0.2-1.7-0.3-3.4-0.3-5L356.4,442z"/>
<path class="st18" d="M295,447.6c-0.8,0-1.5-0.6-1.6-1.4c-0.2-1.7-0.3-3.4-0.3-5.1c0-0.1,0-0.2,0.1-0.2c0.1-0.1,0.1-0.1,0.2-0.1
	l62.6,0.9v-1.6c0-2.1,1.8-3.9,3.9-3.8c0,0,0,0,0,0l6.9,0.1c0.1,0,0.1,0,0.2,0.1c2,1.7,3.7,3.6,5.2,5.6c0,0,0,0,0.1,0.1l0.1,0.2
	c1,1.4,1.7,2.8,2.3,4.4c0.2,0.5,0.1,1-0.2,1.5c-0.3,0.4-0.8,0.7-1.3,0.6L295,447.6z M293.8,441.5c0,1.6,0.1,3.2,0.3,4.7
	c0.1,0.5,0.5,0.8,1,0.8l78.3,1.1c0.3,0,0.6-0.1,0.8-0.4c0.2-0.3,0.2-0.6,0.1-0.9c-0.6-1.5-1.3-2.9-2.2-4.2l-0.1-0.1l-0.1,0
	c-1.5-2-3.2-3.9-5.1-5.5l-6.8-0.1c-1.8,0-3.3,1.4-3.3,3.2v2c0,0.2-0.1,0.3-0.3,0.3L293.8,441.5z"/>
<path class="st18" d="M295,447.6c-0.5,0-0.9-0.2-1.2-0.6c-0.2-0.2-0.3-0.5-0.3-0.8c-1-8.4,0.6-17,4.6-24.5c0.3-0.5,0.8-0.8,1.4-0.8
	c0.5,0,1,0.2,1.3,0.6c1.9,2.6,6,6.6,11.9,4c0.1,0,0.2-0.1,0.3-0.2c0.1-0.1,0.1-0.1,0.2-0.2c1.3-2,8.1-11.9,17.3-12.8
	c0.4,0,0.7,0.1,1,0.2c0.3,0.2,0.5,0.5,0.6,0.8c0.6,1.7,1.5,3.4,2.6,4.8c0.1,0.1,0.1,0.3,0,0.4c-0.1,0.1-0.3,0.1-0.4,0c0,0,0,0,0,0
	c-1.2-1.5-2.1-3.2-2.7-5c-0.1-0.2-0.2-0.4-0.4-0.5c-0.2-0.1-0.4-0.2-0.6-0.1c-8.9,0.8-15.5,10.5-16.8,12.5c-0.1,0.1-0.2,0.2-0.3,0.3
	c-0.1,0.1-0.3,0.2-0.4,0.3c-6.3,2.8-10.6-1.4-12.6-4.2c-0.2-0.3-0.5-0.4-0.8-0.4c-0.3,0-0.7,0.2-0.8,0.5c-3.9,7.4-5.5,15.8-4.6,24.1
	c0,0.2,0.1,0.3,0.2,0.5c0.2,0.2,0.5,0.4,0.8,0.4l78.3,1.1c0.3,0,0.6-0.1,0.8-0.4c0.2-0.3,0.2-0.6,0.1-0.9
	c-2.8-7.8-12.3-14.1-19.8-18.1c-0.1-0.1-0.2-0.3-0.1-0.4c0.1-0.1,0.2-0.2,0.4-0.1c7.6,4,17.3,10.4,20.1,18.4c0.2,0.5,0.1,1-0.2,1.5
	c-0.3,0.4-0.8,0.7-1.3,0.6L295,447.6z"/>
<path class="st18" d="M0,0"/>
<path class="st21" d="M145.8,200.6c-0.4-2.2-0.6-4.4-0.7-6.7c0-0.6,0.4-1,1-1.1c0.1,0,0.3,0,0.4,0c0.4,0.1,0.7,0.4,0.8,0.8l0.5,2.2
	l0.2-2.8c0-0.3,0.1-0.6,0.3-0.8c0.5-0.6,1.4-0.7,2-0.2c0.2,0.2,0.4,0.4,0.5,0.7c0.5,1.5,1.3,3.9,1.4,4s-0.1,5.2-0.1,5.3
	c-0.9,0.5-1.7,1-2.6,1.5c0,0-3.2-0.4-3.1-0.6S145.8,200.6,145.8,200.6L145.8,200.6z"/>
<path class="st20" d="M149.4,203.7L149.4,203.7c-3.4-0.4-3.4-0.7-3.4-1s-0.2-1.2-0.5-2.1l0,0c-0.4-2.2-0.6-4.5-0.7-6.7
	c0-0.4,0.2-0.9,0.6-1.1c0.2-0.1,0.4-0.2,0.7-0.3c0.2,0,0.3,0,0.5,0c0.5,0.1,0.9,0.5,1,1.1l0.1,0.3l0.1-0.9c0-0.4,0.2-0.7,0.4-1
	c0.2-0.3,0.6-0.5,1-0.6c0.5-0.1,1,0,1.4,0.4c0.3,0.2,0.4,0.5,0.6,0.8c1.3,3.9,1.4,4,1.4,4s0,0.2-0.1,5v0.4c0,0.2,0,0.3-2.8,1.8
	L149.4,203.7L149.4,203.7z M146.6,202.6c0.9,0.2,1.9,0.4,2.8,0.5c1-0.5,2.1-1.1,2.4-1.3c0-0.1,0-0.2,0-0.3c0.1-3,0.1-4.6,0.1-4.8
	s-0.2-0.6-1.4-4c-0.1-0.2-0.2-0.4-0.4-0.5c-0.3-0.2-0.6-0.3-0.9-0.2c-0.3,0.1-0.5,0.2-0.7,0.4c-0.1,0.2-0.2,0.4-0.2,0.6l-0.2,2.9
	c0,0.1-0.1,0.3-0.3,0.3c-0.2,0-0.3-0.1-0.3-0.2l-0.5-2.2c-0.1-0.3-0.3-0.5-0.6-0.6c-0.1,0-0.2,0-0.3,0c-0.1,0-0.3,0.1-0.4,0.1
	c-0.2,0.2-0.3,0.4-0.3,0.6c0,2.2,0.3,4.4,0.6,6.6C146.2,200.9,146.5,202.1,146.6,202.6L146.6,202.6z"/>
<path class="st19" d="M210.4,98.5c-16.1-0.5-30,12.9-47.2,20.2c-8.5,3.6-13.5,5.5-16.3,6.5c-2.4,0.9-4.4,2.6-5.5,4.9
	c-0.5,0.9-0.8,1.9-0.9,2.9c-0.2,1-0.2,2,0,3c2.1,12.4,14.9,44.4,14.8,49.9c-6.6,2.3-6.3,15.6-6.3,15.6c-1.4-0.3-4.1-2.5-4.1-2.5
	l-1-2.7c-0.1-0.3-0.3-0.5-0.5-0.6c-0.3-0.2-0.6-0.2-0.9-0.2c-0.2,0-0.4,0.1-0.5,0.2c-0.5,0.3-0.7,0.9-0.4,1.5l2.2,6l8.9,5.6l9.9-5.6
	l7.7-18c-6-16-7-42.7-7-42.7l23.7-9.7l22.4-17.7L210.4,98.5z"/>
<path class="st20" d="M152.4,209.2c-0.1,0-0.1,0-0.2,0l-8.9-5.6c-0.1,0-0.1-0.1-0.1-0.2l-2.2-6c-0.3-0.7,0-1.4,0.6-1.9
	c0.2-0.1,0.4-0.2,0.6-0.3c0.4-0.1,0.8,0,1.1,0.2c0.3,0.2,0.5,0.5,0.6,0.8l1,2.6c1.1,0.9,2.3,1.6,3.6,2.2c0-2.3,0.4-13.1,6.4-15.4
	c-0.1-2.8-3.1-11.8-6.3-21.2c-3.5-10.3-7.4-22-8.5-28.4c-0.2-1-0.2-2.1,0-3.1c0.2-1,0.5-2.1,0.9-3c0.6-1.3,1.5-2.5,2.7-3.4
	c0.9-0.7,1.9-1.3,3-1.7c2.6-0.9,7.5-2.8,16.3-6.5c5.9-2.6,11.5-5.6,17-9c10.2-5.9,19.7-11.6,30.4-11.2c0.1,0,0.2,0,0.2,0.1
	c0.1,0.1,0.1,0.1,0.1,0.2l-1.2,16.6c0,0.1,0,0.2-0.1,0.2L187,133c0,0-0.1,0-0.1,0l-23.5,9.7c0.1,2.6,1.4,27.4,7,42.4
	c0,0.1,0,0.2,0,0.2l-7.7,18c0,0.1-0.1,0.1-0.1,0.1l-9.9,5.6C152.6,209.1,152.5,209.1,152.4,209.2L152.4,209.2z M143.8,203.1l8.7,5.4
	l9.6-5.5l7.6-17.8c-5.9-15.9-7-42.4-7-42.7c0-0.1,0.1-0.2,0.2-0.3l23.7-9.7l22.3-17.6l1.2-16.1H210c-10.2-0.2-19.6,5.3-29.6,11.2
	c-5.5,3.4-11.2,6.4-17.1,9c-7,2.9-12.6,5.2-16.4,6.5c-1,0.4-2,0.9-2.8,1.6c-2.6,2.2-3.9,5.5-3.4,8.9c1.1,6.4,5,18,8.5,28.3
	s6.4,18.9,6.4,21.6c0,0.1-0.1,0.2-0.2,0.3c-6.3,2.2-6.1,15.2-6.1,15.3c0,0.1,0,0.2-0.1,0.2c-0.1,0.1-0.2,0.1-0.3,0.1
	c-1.4-0.3-4.1-2.4-4.3-2.5c0,0-0.1-0.1-0.1-0.1l-1-2.7c-0.1-0.2-0.3-0.4-0.5-0.5c-0.2-0.1-0.5-0.2-0.7-0.1c-0.1,0-0.3,0.1-0.4,0.2
	c-0.4,0.3-0.5,0.7-0.4,1.1L143.8,203.1z"/>
<path class="st20" d="M163,142.8c-0.2,0-0.3-0.1-0.3-0.3c-0.1-2.1-0.7-4.2-1.8-6c-0.1-0.1-0.1-0.3,0.1-0.4c0,0,0,0,0,0
	c0.1-0.1,0.3-0.1,0.4,0.1c0,0,0,0,0,0c1.1,1.9,1.8,4.1,1.9,6.3C163.3,142.6,163.2,142.8,163,142.8C163,142.8,163,142.8,163,142.8
	L163,142.8z"/>
<path class="st22" d="M187.5,160.1c-18.9,14.8-30.5,43.7-31.8,61.4s49.6,184.7,49.6,184.7l43.4-3.7l-38.3-147.1l33.4,46.9L289.5,413
	l39-10l-44.1-118.8c-16-27.2-48.6-104.7-67.6-119.5S187.5,160.1,187.5,160.1z"/>
<path class="st20" d="M289.5,413.3c-0.1,0-0.2-0.1-0.3-0.2l-45.6-110.6L211.2,257l37.9,145.5c0,0.1,0,0.2-0.1,0.3
	c0,0.1-0.1,0.1-0.2,0.1l-43.4,3.6c-0.1,0-0.3-0.1-0.3-0.2c-2.1-6.8-50.9-167.1-49.6-184.8c1.3-19,13.6-47.3,31.9-61.6
	c0.4-0.4,11-9.9,29.7,4.6c13,10.1,32.7,50,48.4,82c7.3,14.9,14.2,28.9,19.3,37.6l44.1,118.8c0,0.1,0,0.2,0,0.2
	c0,0.1-0.1,0.1-0.2,0.2L289.5,413.3L289.5,413.3z M210.5,255.2c0.1,0,0.2,0.1,0.2,0.1l33.5,46.9c0,0,0,0,0,0.1l45.5,110.4l38.4-9.8
	l-43.9-118.5c-5.1-8.6-12-22.7-19.3-37.6c-15.7-32-35.3-71.8-48.2-81.8c-18.6-14.4-28.8-4.8-28.9-4.6s0,0,0,0
	c-18.1,14.2-30.3,42.3-31.6,61.2c-1.2,17.2,47.4,177.1,49.6,184.3l42.8-3.6l-38.3-146.7c0-0.1,0-0.3,0.2-0.4L210.5,255.2
	L210.5,255.2z"/>
<path class="st23" d="M228.6,39.9c8.6-0.9,12.2-5.8,16.5-4.9c-0.9,0.2-1.6,0.8-2.1,1.5c7.1,0.2,13.5,0.6,15.2,3.2
	c2.6,4.1,2.6,9.2,0.2,13.4c-3.2,5.8-0.3,12.7,5.5,15.6s13.4,18.4-3.2,22.5c1.5-3.2,0.6-4.4,0.6-4.4c-0.1,3.7-6.8,7.4-14,6.8
	c1.3,0.9,3,1.3,4.6,1.1c-5.1,2.9-22.8,4.4-35.2,1.6s-13.4-9.1-11.7-11.6c-1.9,0.9-2.8,3.3-1.8,5.2c0.1,0.2,0.3,0.5,0.4,0.7
	c-7.7-2.3-12.4-10.7-4.2-15.2s9.6-7.5,6-13.2s-0.6-16.5,6.2-19.7S225.8,39.3,228.6,39.9L228.6,39.9z"/>
<path class="st20" d="M230.5,98.1c-4.7,0-9.4-0.5-13.9-1.5c-8.8-2-11.4-5.6-12.1-7.6c-0.4-1.1-0.5-2.3-0.2-3.4
	c-0.5,0.5-0.9,1.1-1.1,1.8c-0.1,1,0.1,2,0.7,2.9c0.1,0.1,0.1,0.3,0,0.4c-0.1,0.1-0.2,0.2-0.3,0.1c-4.6-1.4-8.3-5-8.7-8.7
	c-0.3-2.8,1.3-5.3,4.4-7c4.8-2.6,7-4.6,7.6-6.7c0.4-1.6-0.1-3.5-1.7-6c-1.7-2.8-2-6.9-0.9-10.9c1.2-4.3,3.9-7.7,7.2-9.2
	c6.7-3.1,14-3.2,17.1-2.6c3.5-0.4,6.8-1.5,9.9-3.2c2.5-1.2,4.5-2.2,6.7-1.7c0.1,0,0.2,0.1,0.2,0.3c0,0.1-0.1,0.3-0.2,0.3
	c-0.6,0.2-1.1,0.5-1.6,0.9c7.1,0.2,13.1,0.7,14.8,3.3c2.6,4.2,2.8,9.5,0.3,13.8c-1.4,2.4-1.6,5.3-0.8,8c1,3.1,3.2,5.7,6.1,7.2
	c3.3,1.7,7.6,7.8,7,13.6c-0.4,3.2-2.4,7.5-10.2,9.5c-0.1,0-0.2,0-0.3-0.1c-0.1-0.1-0.1-0.2,0-0.3c0.4-0.9,0.7-1.8,0.8-2.7
	c-0.4,0.8-1,1.4-1.6,2c-2.5,2.3-6.7,3.6-10.9,3.6c1,0.4,2.1,0.6,3.1,0.4c0.1,0,0.3,0,0.3,0.2c0.1,0.1,0,0.3-0.1,0.4
	C248.6,96.8,239.7,98.1,230.5,98.1L230.5,98.1z M205,84.3c0.1,0,0.2,0,0.2,0.1c0.1,0.1,0.1,0.3,0,0.4c-0.7,1.2-0.8,2.7-0.2,4
	c0.7,1.9,3.2,5.3,11.7,7.2c11.1,2.5,27.3,1.6,33.8-1c-1.2-0.1-2.3-0.5-3.3-1.2c-0.1-0.1-0.2-0.2-0.1-0.4c0.1-0.1,0.2-0.2,0.3-0.2
	c4.5,0.4,9.1-1,11.8-3.4c1-0.8,1.7-1.9,1.9-3.2c0-0.1,0.1-0.2,0.2-0.3c0.1,0,0.3,0,0.3,0.1c0,0.1,0.8,1.2-0.4,4.1
	c5.5-1.5,8.7-4.6,9.2-8.8c0.6-5.6-3.5-11.4-6.7-13c-3.1-1.5-5.4-4.2-6.5-7.5c-0.9-2.8-0.6-5.9,0.9-8.5c2.4-4.1,2.3-9.1-0.2-13.1
	c-1.6-2.4-7.9-2.8-14.9-3c-0.1,0-0.2-0.1-0.3-0.2c-0.1-0.1-0.1-0.2,0-0.3c0.3-0.5,0.7-0.8,1.2-1.1c-1.8,0.3-3.6,0.9-5.1,1.9
	c-3.1,1.7-6.6,2.8-10.1,3.2h-0.1c-3-0.7-10.2-0.5-16.8,2.5c-3.1,1.4-5.7,4.8-6.9,8.8c-1.2,3.9-0.9,7.8,0.8,10.5s2.2,4.7,1.8,6.5
	c-0.6,2.3-2.9,4.4-7.9,7.1c-3,1.6-4.4,3.8-4.1,6.4c0.3,3.2,3.4,6.5,7.5,8c-0.4-0.8-0.5-1.7-0.4-2.6c0.3-1.3,1.1-2.4,2.3-3
	c0.1,0,0.1,0,0.2,0L205,84.3z"/>
<path class="st19" d="M223.3,75.8L219,99.3l-8.6-0.9c-7.7,15-14.7,17.1-23.2,24.4c-8.5,7.3-0.5,17.3,0.4,22.4s-2.4,16.1-2.4,16.1
	c12.2,8.9,37.6,7.3,37.6,7.3c0.1-6.4,16.1-21.6,18-23.8l2-2.2c-1.7-12.9,10.8-37.7,10.8-37.7l-14.7-4.1l0.5-15L223.3,75.8z"/>
<path class="st20" d="M219,99.6L219,99.6l-8.6-0.8c-0.2,0-0.3-0.2-0.3-0.3c0-0.2,0.2-0.3,0.3-0.3c0,0,0,0,0,0l8.3,0.8l4.2-23.2
	c0-0.2,0.2-0.3,0.4-0.2c0.2,0,0.3,0.2,0.3,0.3c0,0,0,0,0,0l-4.3,23.5C219.3,99.5,219.2,99.6,219,99.6L219,99.6z"/>
<path class="st19" d="M248.8,46c4.8,4.5,6.4,10.2,5.7,14.2s0.4,7.2,0.6,12s-3.9,18.5-8.3,19.2s-23.2-5.9-26.7-21.4
	c7-4.3,9.5-13.3,9.5-13.3C237.3,59.1,248.8,47.6,248.8,46L248.8,46z"/>
<path class="st20" d="M246.1,91.7c-2.8,0-8.4-1.7-13.9-5.3c-0.1-0.1-0.2-0.3-0.1-0.4c0.1-0.1,0.3-0.2,0.4-0.1
	c6,3.9,12.1,5.4,14.3,5.1c4-0.6,8.2-13.9,8-18.8c-0.1-1.7-0.3-3.2-0.5-4.6c-0.4-2.5-0.5-5-0.2-7.4c0.6-3.6-0.5-9-5.4-13.7
	c-0.1-0.1-0.1-0.3,0-0.4c0,0,0,0,0,0c0.1-0.1,0.3-0.1,0.4,0c5.1,4.9,6.2,10.6,5.6,14.3c-0.3,2.4-0.3,4.9,0.2,7.2
	c0.2,1.4,0.4,2.9,0.5,4.7c0.2,4.6-3.9,18.8-8.5,19.5C246.6,91.6,246.3,91.7,246.1,91.7L246.1,91.7z"/>
<path class="st20" d="M231.6,57.1c-2.8,0-5.4-1.6-6.5-4.2c-0.1-0.2,0-0.3,0.1-0.4c0.2-0.1,0.3,0,0.4,0.1c1.1,2.6,3.7,4.1,6.4,3.9
	c6.7-0.3,15.2-7.7,16.9-12c0.3-1.2,1.3-2,2.5-2c1.4,0.2,2.5,1.2,2.6,2.6c0,0.2,0,0.3-0.2,0.4c0,0,0,0,0,0c-0.2,0-0.3-0.1-0.4-0.2
	c-0.1-1.1-1-2-2.1-2.1c-0.9,0-1.7,0.7-1.9,1.6c-1.7,4.5-10.6,12.1-17.5,12.4L231.6,57.1L231.6,57.1z"/>
<path class="st20" d="M0,0"/>
<path class="st1" d="M233.9,64.9c3.4-4.8,9-4.3,9.6,2.8C241.3,71,236.1,71.2,233.9,64.9z"/>
<path class="st8" d="M242.9,66.1c0,1.9-1.2,3.4-2.6,3.4s-2.6-1.6-2.5-3.5s1.2-3.4,2.6-3.4S242.9,64.2,242.9,66.1z"/>
<path class="st20" d="M242.3,66.1c0,1.2-0.8,2.2-1.6,2.2s-1.6-1-1.6-2.2s0.8-2.2,1.6-2.2S242.3,64.8,242.3,66.1z M253.6,65.8
	l0.9-0.8c-1-2.6-2.1-3.8-3.9-3.4c-2,0.4-3.6,4.2-3.6,6.3C250.3,64.5,253.6,65.8,253.6,65.8L253.6,65.8z"/>
<path class="st1" d="M247,67.8c0.5-5.9,5.9-8.6,6.6-2C252.9,70.2,250,70.4,247,67.8z"/>
<path class="st8" d="M252.8,65.7c0,1.7-0.9,3.1-2,3.1s-1.9-1.4-1.9-3.2s0.9-3.1,2-3.1S252.8,64,252.8,65.7z"/>
<path class="st20" d="M252.4,65.7c0,1.1-0.6,2-1.2,1.9s-1.2-0.9-1.2-2s0.6-2,1.2-1.9S252.4,64.6,252.4,65.7L252.4,65.7z"/>
<polygon class="st1" points="246.9,64.9 250.5,65.2 246.8,65.6 "/>
<path class="st24" d="M248.9,61.6c-2.5,5.7,3.2,10.7,3.2,10.7c-0.1,0.8-2.7,2.9-2.9,3c-0.4,0-2.5-0.6-4-0.4S245.1,60.6,248.9,61.6
	L248.9,61.6z"/>
<path class="st24" d="M0,0"/>
<path class="st24" d="M244.8,58.8c-0.1,0-0.1,0-0.2-0.1c-0.1-0.1-0.1-0.3,0-0.4c0.3-0.4,0.5-0.9,0.5-1.4c0-0.2-0.1-0.3-0.3-0.3
	c-0.1-0.1-0.2-0.3-0.1-0.4c0.1-0.2,0.3-0.2,0.4-0.1c0.3,0.1,0.5,0.4,0.6,0.8c0.1,0.7-0.1,1.4-0.6,1.9
	C245.1,58.7,245,58.8,244.8,58.8L244.8,58.8z"/>
<polygon class="st1" points="236,64.6 239.5,64.9 235.9,65.3 "/>
<path class="st24" d="M240.8,79.1c5.2-1.1,10-1.8,8.6,0.2C249,82.7,246.5,81.9,240.8,79.1z"/>
<path class="st24" d="M0,0"/>
<path class="st24" d="M247.4,83.9c-1,0-2-0.2-3-0.6c-0.2-0.1-0.2-0.2-0.2-0.4c0.1-0.2,0.2-0.2,0.4-0.2c2,0.7,3.9,0.6,4.2,0.2
	c0.1-0.2,0.2-0.2,0.4-0.2c0.2,0.1,0.2,0.2,0.2,0.4c0,0,0,0.1-0.1,0.1C249,83.7,248.3,83.9,247.4,83.9L247.4,83.9z"/>
<path class="st14" d="M242.8,102c-22.9,23.1-31.1,7.7-28.2-3.1l-4.2-0.4c-7.7,15.1-14.7,17.1-23.2,24.4c-8.5,7.3-0.5,17.3,0.4,22.4
	s-2.4,16.1-2.4,16.1c12.2,8.8,37.6,7.3,37.6,7.3c0.1-6.4,16.1-21.6,18-23.8l2-2.2c-1.7-12.9,10.9-37.7,10.9-37.7L242.8,102z"/>
<path class="st14" d="M0,0"/>
<path class="st19" d="M243,142.7c2.6,3.3,13.1,45.1,28.9,53.3c1.1,0.6,2.3,0.8,3.6,0.6l3.8-0.6c2.3-0.4,4.2-2,4.8-4.3
	c1.6-6.1,4.3-18.2,2.9-26.7c-1.9-11.8-10.8-26.8-17.6-53.2l-1.9-15.1c-0.1-0.5-0.2-1-0.5-1.5c-0.3-0.5-0.7-0.9-1.2-1.2l-12.2-7.5
	l-11.7,1c-0.4,0-0.7,0.2-1,0.5c-0.2,0.3-0.4,0.7-0.3,1.1c0,0.2,0.1,0.5,0.2,0.7c0.2,0.4,0.7,0.6,1.1,0.7l9,0.7l-2.3,1.2
	c-0.9,0.5-1.6,1.3-1.9,2.3c-0.2,0.5-0.3,1.1-0.2,1.7l0.1,0.6c0,0.4,0.2,0.7,0.3,1c0.2,0.2,0.3,0.5,0.6,0.7l-0.2,1
	c-0.1,0.6-0.1,1.2,0,1.8c0.1,0.2,0.1,0.4,0.2,0.7l0.1,0.3c0.2,0.4,0.4,0.8,0.7,1.1c0.4,0.5,1,0.9,1.6,1.1h0.1l-0.1,0.2
	c-0.2,0.6-0.2,1.2-0.1,1.8c0.1,0.3,0.2,0.6,0.3,0.8c0.4,0.7,0.9,1.4,1.4,2C246.4,119.3,241,137.5,243,142.7L243,142.7z"/>
<path class="st20" d="M274.4,196.9c-0.3,0-0.6,0-0.9-0.1c-0.6-0.1-1.2-0.3-1.8-0.6c-11.9-6.2-20.9-31.4-25.7-44.9
	c-1.5-4.3-2.7-7.6-3.3-8.4c0,0,0-0.1-0.1-0.1c-2.1-5.4,3.6-23.9,8.3-33.4c-0.5-0.6-0.9-1.2-1.3-1.9c-0.2-0.3-0.3-0.6-0.4-0.9
	c-0.1-0.6-0.1-1.3,0.1-1.9c-0.6-0.3-1.1-0.7-1.6-1.2c-0.3-0.4-0.6-0.8-0.7-1.2l-0.1-0.3c-0.1-0.2-0.1-0.5-0.2-0.7
	c-0.1-0.6-0.1-1.3,0-1.9l0.2-0.8c-0.2-0.2-0.3-0.4-0.5-0.6c-0.2-0.4-0.3-0.7-0.4-1.2l-0.1-0.6c-0.1-0.6,0-1.2,0.2-1.8
	c0.4-1,1.1-1.9,2.1-2.4l1.4-0.7l-8-0.6c-0.6,0-1.1-0.3-1.4-0.8c-0.2-0.2-0.2-0.5-0.3-0.8c-0.1-0.5,0.1-1,0.4-1.3
	c0.3-0.4,0.8-0.6,1.2-0.6l11.7-1c0.1,0,0.1,0,0.2,0l12.2,7.5c0.5,0.3,1,0.8,1.3,1.3c0.3,0.5,0.5,1,0.5,1.6l1.9,15.1
	c3.1,11.5,6.8,22.7,11.3,33.7c3,7.8,5.5,14,6.4,19.5c1.4,8.5-1.3,20.5-3,26.9c-0.3,1-0.7,1.8-1.4,2.6c-0.1,0.1-0.2,0.3-0.4,0.4
	c-0.9,0.8-2,1.4-3.2,1.6l-3.8,0.6C275.1,196.8,274.7,196.8,274.4,196.9L274.4,196.9z M243.3,142.5c0.7,0.9,1.8,4,3.4,8.6
	c4.8,13.5,13.7,38.5,25.4,44.6c0.5,0.3,1,0.4,1.6,0.5c0.6,0.1,1.2,0.1,1.8,0l3.8-0.6c1.1-0.2,2.1-0.7,2.9-1.4
	c0.1-0.1,0.2-0.2,0.4-0.3c0.6-0.7,1-1.5,1.2-2.3c1.7-6.3,4.3-18.2,3-26.6c-0.9-5.4-3.3-11.6-6.3-19.4c-4.5-11-8.3-22.3-11.4-33.8
	l-1.9-15.2c-0.1-0.5-0.2-0.9-0.5-1.3c-0.3-0.5-0.6-0.8-1.1-1.1l-12.1-7.4l-11.6,1c-0.3,0-0.6,0.2-0.8,0.4c-0.2,0.2-0.3,0.6-0.3,0.9
	c0,0.2,0.1,0.4,0.2,0.5c0.2,0.3,0.5,0.5,0.9,0.5l9,0.7c0.1,0,0.3,0.1,0.3,0.2c0,0.1,0,0.3-0.2,0.3l-2.3,1.2
	c-0.8,0.4-1.5,1.2-1.8,2.1c-0.2,0.5-0.2,1-0.2,1.6l0.1,0.6c0,0.3,0.1,0.6,0.3,0.9c0.1,0.2,0.3,0.4,0.5,0.6c0.1,0.1,0.1,0.2,0.1,0.3
	l-0.2,1c-0.1,0.5-0.1,1.1,0,1.6c0,0.2,0.1,0.4,0.2,0.6l0.1,0.3c0.2,0.4,0.4,0.7,0.6,1c0.4,0.5,0.9,0.8,1.5,1.1h0.1
	c0.2,0.1,0.2,0.2,0.2,0.4c0,0,0,0,0,0l-0.1,0.2c-0.2,0.5-0.2,1.1-0.1,1.6c0.1,0.3,0.1,0.5,0.3,0.8c0.4,0.7,0.9,1.4,1.4,2
	c0.1,0.1,0.1,0.2,0,0.3c-5.3,10.5-10.2,28.1-8.4,33L243.3,142.5z M0,0"/>
<g>
	<path class="st22" d="M148.9,364.3l-14.8,5.5c3.3,0.9,6.2,2.9,8.1,6.5l9.8-3.6l1.5,4.1c-18.4,3.6-0.6,15.4-24.3,24.7
		c9.4,4,20.1,9.5,30.8,15.1c0,0-8.6,3.2-8.6,3.2c-3.9-4-45-16.4-27.4-21.7c9.7-3.6,13.6-9.2,12.2-15l-20.5,7.5c0,0-1.5-4.1-1.5-4.1
		l20.2-7.4c-3.5-6.6-15.7-2.8-22.9,0.3c0,0-1.9-5.3-1.9-5.3l37.9-13.9C147.4,360.3,148.9,364.3,148.9,364.3z"/>
</g>
</svg>
