<?xml version="1.0" encoding="utf-8"?>
<!-- Generator: Adobe Illustrator 25.4.1, SVG Export Plug-In . SVG Version: 6.00 Build 0)  -->
<svg version="1.1" id="SvgjsSvg1024" xmlns:svgjs="http://svgjs.com/svgjs"
	 xmlns="http://www.w3.org/2000/svg" xmlns:xlink="http://www.w3.org/1999/xlink" x="0px" y="0px" viewBox="0 0 256 256"
	 style="enable-background:new 0 0 256 256;" xml:space="preserve">
<style type="text/css">
	.st0{fill:#FFFFFF;}
	.st1{fill-rule:evenodd;clip-rule:evenodd;fill:#FABB04;}
	.st2{fill-rule:evenodd;clip-rule:evenodd;fill:url(#SVGID_1_);}
	.st3{fill-rule:evenodd;clip-rule:evenodd;fill:url(#SVGID_00000005972367809415882020000016061458108855799700_);}
</style>
<g id="SvgjsG1026">
	<rect x="128" y="92.9" class="st0" width="85" height="53"/>
	<path class="st1" d="M215.4,67.7c6.5,0,10.8,2.2,15,7.1c4.3,4.9,5,11.9,4.1,18.3l-10.1,70c-1.9,13.4-13.4,23.4-27,23.4H81
		c-14.2,0-25.9-10.9-27.1-24.9L44.1,45.3L28,42.5c-4.3-0.8-7.2-4.9-6.5-9.2c0.7-4.4,4.9-7.3,9.3-6.6l25.5,3.8
		c3.6,0.7,6.3,3.6,6.6,7.3l2,23.9c0.3,3.4,3.1,6,6.5,6C71.3,67.7,215.4,67.7,215.4,67.7z M150.7,123.2h29.5c4.5,0,8-3.6,8-8
		c0-4.5-3.5-8-8-8h-29.5c-4.5,0-8,3.5-8,8C142.7,119.6,146.2,123.2,150.7,123.2z"/>
	
		<linearGradient id="SVGID_1_" gradientUnits="userSpaceOnUse" x1="67" y1="38.49" x2="106" y2="38.49" gradientTransform="matrix(1 0 0 -1 0 255.89)">
		<stop  offset="0" style="stop-color:#FFFFFF"/>
		<stop  offset="0.8587" style="stop-color:#FFFFFF"/>
		<stop  offset="1" style="stop-color:#FFFFFF"/>
	</linearGradient>
	<circle class="st2" cx="86.5" cy="217.4" r="19.5"/>
	
		<linearGradient id="SVGID_00000055690463804724586570000005648870743630093954_" gradientUnits="userSpaceOnUse" x1="168.8" y1="38.49" x2="207.8" y2="38.49" gradientTransform="matrix(1 0 0 -1 0 255.89)">
		<stop  offset="0" style="stop-color:#FFFFFF"/>
		<stop  offset="0.8587" style="stop-color:#FFFFFF"/>
		<stop  offset="1" style="stop-color:#FFFFFF"/>
	</linearGradient>
	
		<circle style="fill-rule:evenodd;clip-rule:evenodd;fill:url(#SVGID_00000055690463804724586570000005648870743630093954_);" cx="188.3" cy="217.4" r="19.5"/>
</g>
</svg>
