<?xml version="1.0" encoding="utf-8"?>
<!-- Generator: Adobe Illustrator 25.4.1, SVG Export Plug-In . SVG Version: 6.00 Build 0)  -->
<svg version="1.1" id="SvgjsSvg1012" xmlns:svgjs="http://svgjs.com/svgjs"
	 xmlns="http://www.w3.org/2000/svg" xmlns:xlink="http://www.w3.org/1999/xlink" x="0px" y="0px" viewBox="0 0 256 256"
	 style="enable-background:new 0 0 256 256;" xml:space="preserve">
<style type="text/css">
	.st0{fill:#FABB04;}
	.st1{fill:#FFFFFF;}
</style>
<g id="SvgjsG1014">
	<path class="st0" d="M232.2,64.9H24.7c-3.7,0-6.8,3-6.8,6.8v132.6c0,3.7,3,6.8,6.8,6.8h207.4c3.7,0,6.8-3,6.8-6.8V71.7
		C238.9,67.9,235.9,64.9,232.2,64.9z"/>
	<rect x="32" y="78.9" class="st1" width="192.9" height="118.2"/>
	<polygon class="st1" points="196.9,239.7 174.7,223.2 152.4,239.7 152.4,172.5 196.9,172.5 	"/>
	<circle class="st0" cx="174.7" cy="162.8" r="42.7"/>
	<path class="st1" d="M174.7,193.1c-16.7,0-30.4-13.6-30.4-30.4s13.6-30.4,30.4-30.4c16.7,0,30.4,13.6,30.4,30.4
		S191.4,193.1,174.7,193.1z"/>
	<polygon class="st0" points="174.7,143.6 179.4,158.2 194.9,158.2 182.4,167.3 187.2,182 174.7,172.9 162.2,182 167,167.3 
		154.5,158.2 169.9,158.2 	"/>
	<rect x="46" y="100.1" class="st0" width="164.9" height="14.7"/>
	<path class="st0" d="M127.1,131.7H46c-1,0-1.8-0.8-1.8-1.8s0.8-1.8,1.8-1.8h81.1c1,0,1.8,0.8,1.8,1.8S128.1,131.7,127.1,131.7z
		 M105,154.7H46c-1,0-1.8-0.8-1.8-1.8c0-1,0.8-1.8,1.8-1.8h59c1,0,1.8,0.8,1.8,1.8C106.8,153.9,106,154.7,105,154.7z M85.4,177.7H46
		c-1,0-1.8-0.8-1.8-1.8c0-1,0.8-1.8,1.8-1.8h39.3c1,0,1.8,0.8,1.8,1.8C87.1,176.9,86.3,177.7,85.4,177.7z"/>
	<path class="st1" d="M173.4,46.4l0,31.6c0,16.4-91.1,16.4-91.1,0l0-31.9"/>
	<polygon class="st0" points="195.6,40.2 128.4,63.1 61.1,40.2 128.4,17.3 	"/>
	<ellipse class="st1" cx="128.4" cy="40.2" rx="13.1" ry="5.7"/>
	<polygon class="st1" points="202.9,93.1 188.4,93.1 195.6,78.5 195.6,78.5 	"/>
	<path class="st1" d="M232.2,61.4h-34.8V40.3c0,0,0,0,0,0c0-0.6-0.1-0.8-1.2-1.7l-67.3-22.9c-0.4-0.1-0.8-0.1-1.1,0L60.5,38.6
		c-0.7,0.2-1.2,0.9-1.2,1.7c0,0.7,0.5,1.4,1.2,1.6l20.1,6.8v12.7H24.8c-5.7,0-10.3,4.6-10.3,10.3v132.6c0,5.7,4.6,10.3,10.3,10.3
		h125.9v25c0,0.7,0.4,1.3,1,1.6c0.6,0.3,1.3,0.2,1.8-0.2l21.2-15.7l21.2,15.7c0.3,0.2,0.7,0.4,1,0.4c0.3,0,0.6-0.1,0.8-0.2
		c0.6-0.3,0.9-0.9,0.9-1.6v-25h33.5c5.6,0,10.3-4.6,10.3-10.3V71.7C242.4,66,237.8,61.4,232.2,61.4z M84.1,49.9
		c54,18.4,40.6,13.8,43.7,14.9c0.2,0.1,0.4,0.1,0.6,0.1c0.2,0,0.4,0,0.6-0.1c58.5-19.9,38.4-13.1,42.7-14.6V78
		c0,5.9-19.2,10.6-43.8,10.6c-24.6,0-43.8-4.6-43.8-10.6L84.1,49.9z M175.2,49c0.4-0.1,19.1-6.5,18.7-6.4v18.7h-18.7V49z
		 M128.4,19.2L185,38.5l-42.2,0c0,0,0,0,0,0c-1.5-3.3-7.2-5.7-14.5-5.7c-8.4,0-14.8,3.2-14.8,7.4c0,4.3,6.4,7.5,14.8,7.5
		c7.2,0,13-2.3,14.4-5.7l42.4,0l0,0c-0.4,0.1-14.3,4.9-13.4,4.6l-43.3,14.7c-6.3-2.2,22.9,7.8-61.9-21L128.4,19.2z M139.7,40.2
		c0,1.6-4.5,4-11.3,4c-6.8,0-11.3-2.4-11.3-4c0-1.5,4.5-3.9,11.3-3.9C135.1,36.3,139.7,38.7,139.7,40.2
		C139.7,40.2,139.7,40.2,139.7,40.2z M174.7,203.7c-22.7,0-40.9-18.5-40.9-40.9c0-22.6,18.3-40.9,40.9-40.9
		c22.6,0,40.9,18.4,40.9,40.9C215.6,185.3,197.2,203.7,174.7,203.7z M195.2,236.2l-19.5-14.5c-0.3-0.2-0.7-0.4-1-0.4
		c-0.4,0-0.7,0.1-1.1,0.4l-19.5,14.5v-34.1c6.1,3.2,13.1,5.1,20.5,5.1c7.4,0,14.3-1.8,20.5-5L195.2,236.2L195.2,236.2z M235.4,204.3
		c0,1.8-1.5,3.3-3.3,3.3h-33.5v-7.5c12.3-7.9,20.4-21.7,20.4-37.4c0-24.5-19.9-44.4-44.4-44.4c-24.5,0-44.4,20-44.4,44.4
		c0,15.6,8.1,29.4,20.4,37.4v7.5H24.8c-1.8,0-3.3-1.5-3.3-3.3V71.7c0-1.8,1.5-3.3,3.3-3.3h55.8V78c0,12.4,34.9,14.1,47.3,14.1
		c21.8,0,47.3-3.7,47.3-14.1v-9.6h18.7v9.7l-7.1,14.2c-0.2,0.6-0.2,1.2,0.1,1.7c0.3,0.5,0.9,0.8,1.5,0.8h14.6c0,0,0,0,0.1,0
		c1,0,1.8-0.8,1.8-1.8c0-0.5-0.2-0.9-0.5-1.2l-6.9-13.8l0,0v-9.7h34.8c1.8,0,3.3,1.5,3.3,3.3V204.3z M195.7,82.4l4.4,8.9h-8.9
		L195.7,82.4z"/>
</g>
</svg>
