<svg xmlns="http://www.w3.org/2000/svg" data-name="Layer 1" viewBox="0 0 512 512" id="rupee">
    <path
        d="M256 512A256 256 0 0 1 74.98 74.98a256 256 0 0 1 362.04 362.04A254.324 254.324 0 0 1 256 512Zm0-505A249 249 0 0 0 79.93 432.07 249 249 0 1 0 432.07 79.93 247.368 247.368 0 0 0 256 7Z">
    </path>
    <path
        d="M256.218 484h-.318a3.5 3.5 0 0 1 0-7h.218a3.543 3.543 0 0 1 3.55 3.5 3.458 3.458 0 0 1-3.45 3.5zm-21.245-.966q-.154 0-.31-.013l-.151-.015a3.5 3.5 0 0 1 .717-6.963 3.542 3.542 0 0 1 3.176 3.819 3.462 3.462 0 0 1-3.432 3.172zm42.187-.012a3.5 3.5 0 0 1-.385-6.979l.16-.015a3.5 3.5 0 0 1 .616 6.973l-.308-3.486.268 3.49a3.525 3.525 0 0 1-.35.017zm-63.035-2.897a3.515 3.515 0 0 1-.661-.063l-.068-.012a3.5 3.5 0 1 1 1.252-6.887l.13.024a3.5 3.5 0 0 1-.653 6.938zm83.856-.02a3.5 3.5 0 0 1-.604-6.947 3.54 3.54 0 0 1 4.098 2.795 3.458 3.458 0 0 1-2.715 4.068l-.166.03a3.547 3.547 0 0 1-.613.054zm-104.352-4.833a3.47 3.47 0 0 1-.96-.137l-.122-.035a3.5 3.5 0 0 1 1.992-6.711 3.543 3.543 0 0 1 2.411 4.351 3.476 3.476 0 0 1-3.321 2.532zm124.831-.028a3.5 3.5 0 0 1-.995-6.856l.124-.036a3.5 3.5 0 1 1 1.935 6.727l-.967-3.364.9 3.384a3.5 3.5 0 0 1-.997.145zm-144.77-6.741a3.441 3.441 0 0 1-1.254-.238l-.128-.051a3.5 3.5 0 1 1 2.617-6.492 3.543 3.543 0 0 1 1.991 4.555 3.484 3.484 0 0 1-3.227 2.226zm164.699-.036a3.5 3.5 0 0 1-1.31-6.747l.128-.05a3.5 3.5 0 0 1 2.547 6.52l-1.273-3.26 1.215 3.282a3.492 3.492 0 0 1-1.307.255zm-183.88-8.59a3.481 3.481 0 0 1-1.604-.39l1.607-3.11-1.63 3.098a3.52 3.52 0 0 1-1.574-4.686 3.48 3.48 0 0 1 4.64-1.607c.027.013.143.071.17.086a3.5 3.5 0 0 1-1.61 6.61zm203.076-.046a3.5 3.5 0 0 1-1.568-6.632 3.54 3.54 0 0 1 4.73 1.522 3.457 3.457 0 0 1-1.47 4.673l-.13.066a3.486 3.486 0 0 1-1.562.37zm-221.37-10.36a3.482 3.482 0 0 1-1.842-.527l-.168-.107a3.505 3.505 0 1 1 2.01.634zm239.66-.058a3.5 3.5 0 0 1-1.896-6.445l.094-.06a3.5 3.5 0 1 1 3.766 5.902l-1.883-2.951 1.809 2.998a3.484 3.484 0 0 1-1.89.556zm-256.89-12.025a3.481 3.481 0 0 1-2.147-.738l2.148-2.762-2.195 2.726a3.5 3.5 0 0 1 4.232-5.575l.112.086a3.5 3.5 0 0 1-2.15 6.263zm274.12-.07a3.5 3.5 0 0 1-2.12-6.287 3.542 3.542 0 0 1 4.931.625 3.458 3.458 0 0 1-.587 4.865l-.111.085a3.483 3.483 0 0 1-2.114.713zm-290.2-13.58a3.411 3.411 0 0 1-2.32-.908 9.016 9.016 0 0 0-.1-.094 3.5 3.5 0 0 1 4.795-5.1 3.517 3.517 0 0 1-2.375 6.102zm306.227-.065a3.5 3.5 0 0 1-2.371-6.076 3.528 3.528 0 0 1 4.97.132 3.474 3.474 0 0 1-.13 4.926l-.1.094a3.49 3.49 0 0 1-2.37.924zM88.186 408.679a3.409 3.409 0 0 1-2.545-1.136l-.119-.132a3.5 3.5 0 0 1 5.301-4.573 3.518 3.518 0 0 1-2.637 5.84zm335.656-.071a3.5 3.5 0 0 1-2.627-5.812l.096-.107a3.5 3.5 0 1 1 5.197 4.689l-2.599-2.344 2.562 2.386a3.493 3.493 0 0 1-2.63 1.188zM74.975 392.355a3.497 3.497 0 0 1-2.834-1.441l2.83-2.059-2.848 2.034a3.5 3.5 0 0 1 5.57-4.239l.11.146a3.5 3.5 0 0 1-2.828 5.56zm362.119-.093a3.5 3.5 0 0 1-2.81-5.583 3.544 3.544 0 0 1 4.913-.779 3.46 3.46 0 0 1 .79 4.84 7.06 7.06 0 0 0-.078.106 3.495 3.495 0 0 1-2.815 1.416zM63.303 374.85a3.51 3.51 0 0 1-2.986-1.66 7.056 7.056 0 0 1-.11-.183 3.508 3.508 0 1 1 3.096 1.843zm385.462-.101a3.5 3.5 0 0 1-2.985-5.324 3.541 3.541 0 0 1 4.81-1.223 3.457 3.457 0 0 1 1.248 4.73l-.083.14a3.497 3.497 0 0 1-2.99 1.677zM53.326 356.315a3.511 3.511 0 0 1-3.151-1.961 11.788 11.788 0 0 1-.092-.194 3.507 3.507 0 1 1 3.243 2.155zm405.399-.134a3.435 3.435 0 0 1-1.463-.326 3.476 3.476 0 0 1-1.719-4.585l.092-.194a3.5 3.5 0 1 1 6.281 3.089l-3.14-1.544 3.13 1.564a3.544 3.544 0 0 1-3.181 1.996zm-413.63-19.307a3.43 3.43 0 0 1-3.23-2.231c-.011-.03-.057-.155-.067-.186a3.5 3.5 0 1 1 6.619-2.275 3.542 3.542 0 0 1-2.11 4.479 3.579 3.579 0 0 1-1.211.213zm421.795-.088a3.437 3.437 0 0 1-1.158-.2 3.479 3.479 0 0 1-2.146-4.413l.066-.185a3.5 3.5 0 0 1 6.555 2.458l-3.277-1.23 3.267 1.254a3.534 3.534 0 0 1-3.307 2.316zm-428.084-20a3.437 3.437 0 0 1-3.338-2.535l-.047-.18a3.5 3.5 0 1 1 6.797-1.673 3.543 3.543 0 0 1-2.507 4.272 3.604 3.604 0 0 1-.905.117zm434.374-.088a3.437 3.437 0 0 1-.852-.106 3.479 3.479 0 0 1-2.547-4.194l.05-.192a3.5 3.5 0 0 1 6.754 1.841l-3.377-.92 3.37.945a3.533 3.533 0 0 1-3.398 2.626zM34.47 296.245a3.502 3.502 0 0 1-3.458-2.984l3.462-.517-3.465.493a3.522 3.522 0 0 1 2.875-4.018 3.476 3.476 0 0 1 4.02 2.81l.032.199a3.505 3.505 0 0 1-3.466 4.017zm443.08-.114a3.539 3.539 0 0 1-.613-.054 3.5 3.5 0 0 1-2.837-4.055 3.552 3.552 0 0 1 4.016-2.896 3.458 3.458 0 0 1 2.907 3.922l-.03.19a3.5 3.5 0 0 1-3.443 2.893zM32.044 275.34a3.5 3.5 0 0 1-3.491-3.295l3.494-.205-3.495.182a3.523 3.523 0 0 1 3.22-3.745 3.469 3.469 0 0 1 3.754 3.152l.015.205a3.501 3.501 0 0 1-3.289 3.7q-.104.006-.208.006zm447.922-.121c-.104 0-.207-.005-.312-.014a3.55 3.55 0 1 1 3.809-3.38l-.015.201a3.5 3.5 0 0 1-3.482 3.193zM31.56 254.288c-.036 0-.07 0-.105-.002a3.5 3.5 0 0 1-3.395-3.601l3.498.103-3.498-.127a3.5 3.5 0 0 1 7 .026l-.004.204a3.5 3.5 0 0 1-3.496 3.397zm448.877-.12a3.55 3.55 0 1 1 3.497-3.703c.002.035.003.169.003.203a3.5 3.5 0 0 1-3.5 3.5zm-447.43-20.882a3.603 3.603 0 0 1-.413-.025 3.5 3.5 0 0 1-3.067-3.885l.012-.1a3.5 3.5 0 1 1 6.951.819l-.012.099a3.5 3.5 0 0 1-3.471 3.092zm445.971-.112a3.5 3.5 0 0 1-3.471-3.092 3.542 3.542 0 0 1 3.057-3.934 3.457 3.457 0 0 1 3.882 3.012l.012.104a3.5 3.5 0 0 1-3.066 3.885 3.588 3.588 0 0 1-.414.025zM36.391 212.46a3.418 3.418 0 0 1-.705-.074 3.457 3.457 0 0 1-2.715-4.092l.022-.107a3.5 3.5 0 1 1 6.848 1.452 3.562 3.562 0 0 1-3.45 2.821zm439.186-.055a3.501 3.501 0 0 1-3.42-2.774l-.022-.108a3.5 3.5 0 0 1 6.851-1.432l-3.425.716 3.444-.628a3.502 3.502 0 0 1-3.428 4.226zM41.715 192.096a3.41 3.41 0 0 1-1.05-.165 3.458 3.458 0 0 1-2.285-4.313l.06-.188a3.5 3.5 0 0 1 6.631 2.244 3.571 3.571 0 0 1-3.356 2.422zm428.507-.069a3.468 3.468 0 0 1-3.294-2.358c-.011-.03-.051-.156-.06-.188a3.5 3.5 0 0 1 6.69-2.058l-3.345 1.03 3.352-1.006a3.51 3.51 0 0 1-3.343 4.58zM48.96 172.391a3.504 3.504 0 0 1-3.235-4.845c.014-.035.069-.162.085-.196a3.501 3.501 0 1 1 3.15 5.04zm414.013-.126a3.458 3.458 0 0 1-3.163-2.039l-.085-.197a3.5 3.5 0 0 1 6.47-2.67l-3.235 1.335 3.243-1.315a3.51 3.51 0 0 1-3.23 4.886zM58.026 153.34a3.417 3.417 0 0 1-1.614-.402 3.458 3.458 0 0 1-1.464-4.692l.047-.088a3.5 3.5 0 1 1 6.176 3.294 3.576 3.576 0 0 1-3.145 1.888zm395.868-.053a3.463 3.463 0 0 1-3.024-1.76l-.09-.167a3.5 3.5 0 1 1 6.175-3.294l-3.088 1.647 3.102-1.622a3.51 3.51 0 0 1-3.075 5.196zm-385.03-17.993a3.482 3.482 0 0 1-2.907-5.387l.071-.107a3.5 3.5 0 0 1 5.793 3.931 3.58 3.58 0 0 1-2.957 1.563zm374.21-.034a3.498 3.498 0 0 1-2.9-1.535c-.004-.008-.066-.1-.07-.107a3.5 3.5 0 1 1 5.824-3.883l-2.912 1.941 2.952-1.882a3.501 3.501 0 0 1-2.894 5.466zm-361.73-16.85a3.502 3.502 0 0 1-2.74-5.681l.134-.165a3.502 3.502 0 1 1 2.606 5.845zm349.24-.096a3.53 3.53 0 1 1 2.628-5.813l.113.14a3.5 3.5 0 0 1-2.741 5.673zm-335.24-15.626a3.5 3.5 0 0 1-2.5-5.949l2.5 2.45-2.457-2.494a3.5 3.5 0 0 1 5.054 4.844l-.096.099a3.49 3.49 0 0 1-2.5 1.05zm321.227-.085a3.49 3.49 0 0 1-2.5-1.051l-.07-.072a3.5 3.5 0 0 1 5-4.898l.07.071a3.5 3.5 0 0 1-2.5 5.95zM110.734 88.313a3.5 3.5 0 0 1-2.262-6.171l.047-.04a3.5 3.5 0 1 1 4.58 5.293l-.106.09a3.485 3.485 0 0 1-2.259.828zm290.442-.078a3.485 3.485 0 0 1-2.259-.828 3.543 3.543 0 0 1-.45-4.965 3.459 3.459 0 0 1 4.895-.443l.076.064a3.5 3.5 0 0 1-2.262 6.172zM127.379 75.428a3.5 3.5 0 0 1-2.003-6.372l.048-.034a3.5 3.5 0 0 1 4.068 5.696l-.116.082a3.485 3.485 0 0 1-1.997.628zm257.147-.066a3.485 3.485 0 0 1-1.997-.628 3.543 3.543 0 0 1-.913-4.901 3.459 3.459 0 0 1 4.831-.9l.082.057a3.5 3.5 0 0 1-2.003 6.372zM145.16 64.16a3.5 3.5 0 0 1-1.728-6.546l1.725 3.045-1.643-3.091a3.5 3.5 0 1 1 3.46 6.084l-.091.052a3.482 3.482 0 0 1-1.723.456zm221.585-.056a3.48 3.48 0 0 1-1.727-.458 3.542 3.542 0 0 1-1.357-4.795 3.458 3.458 0 0 1 4.726-1.342l.092.053a3.5 3.5 0 0 1-1.734 6.542zm-202.755-9.52a3.513 3.513 0 0 1-3.214-2.043 3.458 3.458 0 0 1 1.705-4.61l.09-.041a3.5 3.5 0 0 1 2.881 6.38 3.547 3.547 0 0 1-1.462.314zm183.99-.007a3.492 3.492 0 0 1-1.439-.31 3.543 3.543 0 0 1-1.795-4.652 3.455 3.455 0 0 1 4.585-1.77l.091.041a3.5 3.5 0 0 1-1.442 6.691zm-164.424-7.69a3.518 3.518 0 0 1-3.331-2.354 3.472 3.472 0 0 1 2.14-4.437l.126-.042a3.5 3.5 0 1 1 1.065 6.833zm144.84-.015a3.49 3.49 0 0 1-1.107-.18l-.126-.043a3.5 3.5 0 0 1 2.275-6.62l.064.022a3.5 3.5 0 0 1-1.106 6.821zm-124.584-5.81a3.531 3.531 0 0 1-3.444-2.69 3.458 3.458 0 0 1 2.535-4.19c.016-.005.13-.032.146-.036a3.5 3.5 0 0 1 1.55 6.827 3.537 3.537 0 0 1-.787.089zm104.355-.005a3.51 3.51 0 0 1-.755-.082l-.168-.04a3.5 3.5 0 1 1 1.649-6.803l-.825 3.402.858-3.394a3.502 3.502 0 0 1-.759 6.917zm-83.76-3.866a3.5 3.5 0 0 1-.456-6.97l.46 3.47-.422-3.475a3.5 3.5 0 0 1 1.044 6.922l-.164.023a3.543 3.543 0 0 1-.463.03zm63.072-.016a3.55 3.55 0 0 1-3.518-3.999 3.457 3.457 0 0 1 3.875-2.985l.164.023a3.5 3.5 0 0 1-.52 6.961zm-42.018-1.933a3.542 3.542 0 0 1-3.544-3.344 3.458 3.458 0 0 1 3.293-3.648l.1-.005a3.5 3.5 0 1 1 .308 6.993 3.482 3.482 0 0 1-.157.004zm21.057-.002c-.053 0-.105-.001-.158-.004a3.544 3.544 0 0 1-3.392-3.653 3.438 3.438 0 0 1 3.601-3.344l.1.004a3.5 3.5 0 0 1-.151 6.997zM256 453.954c-109.152 0-197.954-88.802-197.954-197.954S146.848 58.046 256 58.046 453.954 146.848 453.954 256 365.152 453.954 256 453.954zm0-388.908C150.708 65.046 65.046 150.708 65.046 256S150.708 446.954 256 446.954 446.954 361.292 446.954 256 361.292 65.046 256 65.046z">
    </path>
    <path
        d="M296.095 399.834a18.612 18.612 0 0 1-12.4-4.728L173.21 296.6a18.766 18.766 0 0 1 12.362-32.555l50.06-.119a42.045 42.045 0 0 0 37.456-23.327l-87.438.162a18.642 18.642 0 0 1-.07-37.283l87.509-.162a42.02 42.02 0 0 0-36.662-23.216l-50.74.095c-12.693-.15-18.407-9.623-18.366-18.361.043-9.152 6.454-18.894 18.25-18.922l49.966-.119c.219 0 .436.007.652.015l.351.01 89.808-.168a18.642 18.642 0 0 1 .07 37.284l-23.72.044a77.59 77.59 0 0 1 9.813 23.264l13.837-.025h.035a18.642 18.642 0 0 1 .035 37.283l-13.874.026a79.512 79.512 0 0 1-76.824 60.684l-1.313.003 74.098 66.066a18.642 18.642 0 0 1-12.411 32.556zm-17.727-166.246a3.5 3.5 0 0 1 3.3 4.667 49.06 49.06 0 0 1-46.019 32.67l-50.06.119a11.769 11.769 0 0 0-7.724 20.327l110.488 98.51a11.642 11.642 0 0 0 15.495-17.378l-80.93-72.157a3.5 3.5 0 0 1 2.321-6.113l10.466-.024a72.466 72.466 0 0 0 70.6-57.874 3.5 3.5 0 0 1 3.424-2.805l16.676-.031a11.642 11.642 0 0 0-.021-23.283l-16.671.03h-.007a3.5 3.5 0 0 1-3.43-2.802 70.945 70.945 0 0 0-13.03-28.845 3.5 3.5 0 0 1 2.785-5.61l30.374-.056a11.642 11.642 0 0 0-.021-23.284l-89.88.167a24.48 24.48 0 0 1-.55-.013c-.139-.005-.277-.01-.416-.01h-.183l-49.765.118c-7.36.017-11.24 6.027-11.268 11.954-.024 5.164 2.947 11.23 11.4 11.329l50.771-.094a48.97 48.97 0 0 1 45.17 32.538 3.5 3.5 0 0 1-3.294 4.667l-92.774.172a11.642 11.642 0 0 0 .021 23.283l92.745-.172zm122.426 46.234A23.822 23.822 0 1 1 424.615 256a23.849 23.849 0 0 1-23.821 23.822zm0-40.644A16.822 16.822 0 1 0 417.615 256a16.841 16.841 0 0 0-16.821-16.822zm-289.588 40.644A23.822 23.822 0 1 1 135.028 256a23.849 23.849 0 0 1-23.822 23.822zm0-40.644A16.822 16.822 0 1 0 128.028 256a16.84 16.84 0 0 0-16.822-16.822z">
    </path>
</svg>