<svg xmlns="http://www.w3.org/2000/svg" viewBox="0 0 1000 700"><g data-name="Layer 1"><rect width="866.18" height="18.62" x="71.18" y="658.88" rx="9.31" style="mix-blend-mode:multiply" fill="#bfd5f7" opacity=".5" class="colorbfd5f7 svgShape"/><path fill="#f5916e" d="M541,504.33l8.06,4.52a5.41,5.41,0,0,0,7-1.5l4.7-6.33Z" class="colorf5916e svgShape"/><path fill="#ffa686" d="M560.17,486.38l-17.28.74a7.79,7.79,0,0,0-7.45,8.12l.08,2a7.79,7.79,0,0,0,8.12,7.45l17.27-.74Z" class="colorffa686 svgShape"/><path fill="#ffa686" d="M560.17,486.38,571,499.82a4.08,4.08,0,0,1-1,6L564.9,509a4.08,4.08,0,0,1-5.74-1.48l-1.9-3.45Z" class="colorffa686 svgShape"/><path fill="#0d0e2c" d="M516.73,406.48a12.94,12.94,0,0,0-15.6-10.37,13.17,13.17,0,0,0-9.81,15.22l7.5,42.57a12.94,12.94,0,0,0,15,10.49h0a12.94,12.94,0,0,0,10.49-15Z" class="color0d0e2c svgShape"/><path fill="#f5916e" d="M546.65,484.86l-28.88-37.44A7.88,7.88,0,0,0,506.71,446h0a7.9,7.9,0,0,0-1.43,11.07l28.87,37.43Z" class="colorf5916e svgShape"/><path fill="#0d0e2c" d="M521.83,444.42a12.94,12.94,0,0,0-18.63-1.95,13.17,13.17,0,0,0-1.63,18l24.67,32A2.69,2.69,0,0,0,530,493l16.2-12.49a2.69,2.69,0,0,0,.49-3.79Z" class="color0d0e2c svgShape"/><rect width="5.22" height="20.6" x="537.12" y="478.51" fill="#e3e3e3" transform="rotate(52.36 539.733 488.81)" class="colore3e3e3 svgShape"/><polygon fill="#008de5" points="440.39 644.58 419.6 640.93 423.96 626.06 444.09 631.96 440.39 644.58" class="color008de5 svgShape"/><path fill="#23212f" d="M446.87,644.89l-1.25-5.82a2.76,2.76,0,0,0-1.75-1.21l-6.78-1.46a2.8,2.8,0,0,0-3.32,2.15l-.63,2.93-13.57-2.92a2.8,2.8,0,0,0-3.32,2.15l-2.46,11.45,50,10.74.74-3.48a5.42,5.42,0,0,0-2.69-5.9l-14-7.7A2.71,2.71,0,0,1,446.87,644.89Z" class="color23212f svgShape"/><rect width="51.17" height="5.03" x="412.7" y="657.48" fill="#222b54" transform="rotate(12.12 438.16 659.761)" class="color222b54 svgShape"/><path fill="#0d0e2c" d="M460.17,539a14.52,14.52,0,0,0-18.11,10.17L420.8,625.35a2.1,2.1,0,0,0,1.45,2.56l22.24,6.53a2.11,2.11,0,0,0,2.62-1.43l22.9-76a14.52,14.52,0,0,0-9.84-18Z" class="color0d0e2c svgShape"/><path fill="#0d0e2c" d="M474.36,488l-31.13-1.87-1.91,65.84a14.57,14.57,0,0,0,13.69,15h0a14.57,14.57,0,0,0,15.42-13.67Z" class="color0d0e2c svgShape"/><path fill="#0d0e2c" d="M407.53,482h66.39a0,0,0,0,1,0,0v9.74a12.87,12.87,0,0,1-12.87,12.87H420.4a12.87,12.87,0,0,1-12.87-12.87V482A0,0,0,0,1,407.53,482Z" transform="rotate(8.25 440.682 493.263)" class="color0d0e2c svgShape"/><rect width="66.39" height="6.53" x="408.69" y="482.12" fill="#0d0e2c" transform="rotate(8.25 441.78 485.308)" class="color0d0e2c svgShape"/><rect width="31.96" height="5.03" x="405.55" y="662.61" fill="#222b54" class="color222b54 svgShape"/><rect width="20.98" height="13.15" x="411.04" y="635.5" fill="#008de5" class="color008de5 svgShape"/><path fill="#23212f" d="M431.24 648.11H429.8v-3.42a2.37 2.37 0 00-2.36-2.37H417.23a2.36 2.36 0 00-2.07 1.22l-.87 4.57h-2.47a6.27 6.27 0 00-6.27 6.27v8.23h32v-8.23A6.27 6.27 0 00431.24 648.11zM408 554.15v81.5a2.11 2.11 0 002.12 2.11h23.17a2.1 2.1 0 002.11-2l2.17-81.11a14.78 14.78 0 00-14.78-15.24h0A14.79 14.79 0 00408 554.15z" class="color23212f svgShape"/><path fill="#23212f" d="M439.15,488H408v66a14.76,14.76,0,0,0,14.75,14.75h0a14.76,14.76,0,0,0,14.75-14.38Z" class="color23212f svgShape"/><path fill="#23212f" d="M430.24,368.25c22.05,3,48.9,3.66,80.19,26.52h0a15.76,15.76,0,0,1,4.82,19.73l-18,36.3-19.85,57.85a5.29,5.29,0,0,1-6.71,3.29l-62.8-21.55a5.29,5.29,0,0,1-3.28-6.71l19.86-57.86-7.05-44.44A11.45,11.45,0,0,1,430.24,368.25Z" class="color23212f svgShape"/><path fill="#f2f2f2" d="M453.35,371.3l10.43,71.58,36.3-55C483.06,377.68,467.47,373.59,453.35,371.3Z" class="colorf2f2f2 svgShape"/><polygon fill="#008de5" points="484.54 390.99 481.11 380.07 470.8 386.27 471.86 396.05 460.52 420.53 463.79 442.88 475.6 424.98 478.59 398.36 484.54 390.99" class="color008de5 svgShape"/><polygon fill="#f5916e" points="494.08 384.52 462.73 373.76 478.34 328.25 505.91 337.71 494.08 384.52" class="colorf5916e svgShape"/><polygon fill="#ffffff" points="457.56 371.96 470.8 386.27 481.11 380.07 463.58 365.12 457.56 371.96" class="colorfff svgShape"/><polygon fill="#ffffff" points="496.56 385.34 484.54 390.99 481.11 380.07 497.1 376.62 496.56 385.34" class="colorfff svgShape"/><path fill="#ffa686" d="M462.88,326.41l-2,19.63a34.34,34.34,0,0,0,2,15.62c2.8,7.37,8.29,21.21,24.45,22.86l5.2.52c6.46.66,12.93-11,13.77-19.24l4.16-41a2.08,2.08,0,0,0-1.86-2.28l-36.43-3.7A8.47,8.47,0,0,0,462.88,326.41Z" class="colorffa686 svgShape"/><path fill="#ffa686" d="M494.13,378.69h-.21l-8.63-.88a2,2,0,1,1,.4-4l8.64.88a2,2,0,0,1-.2,4Z" opacity=".3" class="colorffa686 svgShape"/><path fill="#5e3927" d="M485.23 338.85l-6.92-.7a1.94 1.94 0 01-1.73-2.13h0a1.93 1.93 0 012.12-1.73l6.92.7a1.94 1.94 0 011.73 2.13h0A1.94 1.94 0 01485.23 338.85zM506.69 341l-6.92-.7A1.94 1.94 0 01498 338.2h0a1.94 1.94 0 012.12-1.73l6.92.7a1.94 1.94 0 011.73 2.13h0A1.93 1.93 0 01506.69 341z" class="color5e3927 svgShape"/><circle cx="480.75" cy="345.6" r="2.94" fill="#5b2d15" class="color5b2d15 svgShape"/><path fill="#5b2d15" d="M505.43,348.11a2.94,2.94,0,1,1-2.63-3.23A2.93,2.93,0,0,1,505.43,348.11Z" class="color5b2d15 svgShape"/><path fill="#d53031" d="M490,372.46l-4-.41a6.16,6.16,0,0,1-5.51-6.75h0L496.71,367h0A6.16,6.16,0,0,1,490,372.46Z" class="colord53031 svgShape"/><path fill="#fffefb" d="M505 347.25a1.46 1.46 0 11-1.3-1.6A1.47 1.47 0 01505 347.25zM483.08 345a1.46 1.46 0 11-1.3-1.6A1.46 1.46 0 01483.08 345z" class="colorfffefb svgShape"/><path fill="#f5916e" d="M494.56,359.8h-.15l-5.13-.53a1.5,1.5,0,0,1,.3-3l3.31.34-1.48-15.16a1.49,1.49,0,0,1,1.35-1.63,1.51,1.51,0,0,1,1.64,1.34l1.66,17a1.53,1.53,0,0,1-.44,1.21A1.49,1.49,0,0,1,494.56,359.8Z" class="colorf5916e svgShape"/><path fill="#fab37b" d="M482.09 356.33h-.16l-8-.81a1.5 1.5 0 01.3-3l8 .81a1.5 1.5 0 01-.15 3zM477.7 359.91h-.15l-3-.3a1.5 1.5 0 01.3-3l3 .31a1.49 1.49 0 011.34 1.64A1.5 1.5 0 01477.7 359.91zM504 358.56h-.15l-4-.41a1.5 1.5 0 01-1.34-1.64 1.52 1.52 0 011.65-1.34l4 .41a1.5 1.5 0 01-.15 3zM502.57 362.44h-.15l-1-.1a1.5 1.5 0 01-1.34-1.65 1.51 1.51 0 011.64-1.34l1 .1a1.5 1.5 0 01-.15 3z" opacity=".3" class="colorfab37b svgShape"/><path fill="#fffefb" d="M494.52,366.73l-14.07-1.43a6.18,6.18,0,0,0,.52,3.15l12.24,1.24Z" class="colorfffefb svgShape"/><path fill="#5f3926" d="M462.48,360.49a29.1,29.1,0,0,1-.94-11c11.16,1.13,13.09-37.24,13.4-40.26l-6.92-.7a8.5,8.5,0,0,0-9.32,7.59l-5.35,41.38Z" class="color5f3926 svgShape"/><path fill="#5f3926" d="M507.11,303.18c.69,2.15.95,3.64-1.25,4.17-.53-5.34-6.38-9.88-17.55-8.72,2.66,2.09,2.57,5.28-3.2,6.47-2.16.44-8.71-.16-8.71-.16a7,7,0,0,0-7.62,6.21l-.94,9.25c18.47,7,32.85,7.56,43.06,4.37C519.88,322,521.3,310.8,507.11,303.18Z" class="color5f3926 svgShape"/><path fill="#ffa686" d="M462.43,355.51l-2-.21a7.42,7.42,0,0,1-6.55-7.43l.05-2.34a6.11,6.11,0,0,1,6.84-6.06h0a2.23,2.23,0,0,1,2,2.26Z" class="colorffa686 svgShape"/><path fill="#f5916e" d="M460.34,350.39l-.9-.1a3.25,3.25,0,0,1-2.88-3.27l0-1a2.69,2.69,0,0,1,3-2.67l.9.09Z" class="colorf5916e svgShape"/><path fill="#ffa686" d="M488.77,419.07h0a2.9,2.9,0,0,1-2.42,3.29L475,424.09l-.87-5.71,11.32-1.73A2.9,2.9,0,0,1,488.77,419.07Z" class="colorffa686 svgShape"/><path fill="#f5916e" d="M492.26 434.83h0a2.88 2.88 0 01-2.88 2.89h-9V432h9A2.88 2.88 0 01492.26 434.83zM490.34 440.61h0a2.88 2.88 0 01-2.88 2.89h-7.08v-5.78h7.08A2.88 2.88 0 01490.34 440.61z" class="colorf5916e svgShape"/><path fill="#ffa686" d="M501,429.1h0a2.89,2.89,0,0,1-2.89,2.89l-17.75,0v-5.78l17.76,0A2.89,2.89,0,0,1,501,429.1Z" class="colorffa686 svgShape"/><path fill="#f5916e" d="M488.42,446.39h0a2.88,2.88,0,0,1-2.88,2.89h-5.15v-5.78h5.15A2.89,2.89,0,0,1,488.42,446.39Z" class="colorf5916e svgShape"/><polygon fill="#ffa686" points="460.3 428.2 460.32 443.98 467.63 449.3 480.38 449.29 480.36 426.18 460.3 428.2" class="colorffa686 svgShape"/><polygon fill="#ffa686" points="474.15 418.38 460.3 428.2 478.85 427.55 474.15 418.38" class="colorffa686 svgShape"/><path fill="#312e42" d="M415.73,382a12.94,12.94,0,0,1,15.6-10.37,13.17,13.17,0,0,1,9.81,15.22l-9.25,51.41a12.93,12.93,0,0,1-15,10.49h0a12.94,12.94,0,0,1-10.5-15Z" class="color312e42 svgShape"/><path fill="#f5916e" d="M460.32,444l-41.26,0a7.88,7.88,0,0,1-7.9-7.88h0a7.89,7.89,0,0,1,7.88-7.9l41.26-.05Z" class="colorf5916e svgShape"/><path fill="#312e42" d="M419.16,449.07a12.93,12.93,0,0,1-12.93-13.54,13.17,13.17,0,0,1,13.27-12.32l34.38,0a2.7,2.7,0,0,1,2.71,2.7l0,20.46a2.69,2.69,0,0,1-2.7,2.7Z" class="color312e42 svgShape"/><rect width="5.22" height="20.6" x="456.6" y="425.8" fill="#e3e3e3" transform="rotate(-.07 433.56 409.52)" class="colore3e3e3 svgShape"/><path fill="#bfd5f7" d="M300.58 561.21a2 2 0 01-2-2V497a2 2 0 014 0v62.21A2 2 0 01300.58 561.21zM357.63 561.21a2 2 0 01-2-2V497a2 2 0 014 0v62.21A2 2 0 01357.63 561.21z" class="colorbfd5f7 svgShape"/><rect width="95" height="57.06" x="276" y="439.94" fill="#f7a60f" rx="14.58" class="colorf7a60f svgShape"/><rect width="95" height="57.06" x="286" y="439.94" fill="#fdd247" rx="14.58" class="colorfdd247 svgShape"/><rect width="89.89" height="4" x="247.46" y="621.35" fill="#bfd5f7" transform="rotate(-81.66 292.431 623.357)" class="colorbfd5f7 svgShape"/><rect width="4" height="89.89" x="388.09" y="578.4" fill="#bfd5f7" transform="rotate(-8.32 390.361 623.686)" class="colorbfd5f7 svgShape"/><path fill="#f7a60f" d="M376.24,578.88H288.91a9.84,9.84,0,0,1-9.83-9.84h0a9.83,9.83,0,0,1,9.83-9.83h87.33a9.83,9.83,0,0,1,9.83,9.83h0A9.84,9.84,0,0,1,376.24,578.88Z" class="colorf7a60f svgShape"/><path fill="#fdd247" d="M396.24,578.88H308.91a9.84,9.84,0,0,1-9.83-9.84h0a9.83,9.83,0,0,1,9.83-9.83h87.33a9.83,9.83,0,0,1,9.83,9.83h0A9.84,9.84,0,0,1,396.24,578.88Z" class="colorfdd247 svgShape"/><path fill="#f5916e" d="M384.35,495.2a9,9,0,0,1-8.75-7.2l-10.17-51.42a8.93,8.93,0,0,1,7-10.49,8.49,8.49,0,0,1,1.74-.18,8.94,8.94,0,0,1,8.75,7.21l10.18,51.41a8.9,8.9,0,0,1-3.27,8.78,8.93,8.93,0,0,1-5.51,1.89Z" class="colorf5916e svgShape"/><path fill="#0092de" d="M386.88,432.34a12.94,12.94,0,1,0-25.38,5l4.72,23.83,25.41-4.84Z" class="color0092de svgShape"/><path fill="#f5916e" d="M416.3,480.4H383.78a7.89,7.89,0,0,0-7.89,7.89h0a7.89,7.89,0,0,0,7.89,7.89H416.3Z" class="colorf5916e svgShape"/><path fill="#575e69" d="M349.37,537.54v31.75h71.3a15.87,15.87,0,0,0,15.87-15.87h0a15.87,15.87,0,0,0-15.87-15.88Z" class="color575e69 svgShape"/><path fill="#575e69" d="M314.64,526.71H381a0,0,0,0,1,0,0v29.71a12.87,12.87,0,0,1-12.87,12.87H327.51a12.87,12.87,0,0,1-12.87-12.87V526.71A0,0,0,0,1,314.64,526.71Z" class="color575e69 svgShape"/><rect width="66.39" height="6.53" x="314.64" y="526.68" fill="#484e57" class="color484e57 svgShape"/><rect width="20.98" height="13.15" x="346.93" y="635.67" fill="#f5916e" class="colorf5916e svgShape"/><path fill="#00a7fe" d="M372.58,648.74l-2.43-2.43a2.84,2.84,0,0,0-2-.82h-6.93a2.79,2.79,0,0,0-2.79,2.79H347.56a2.79,2.79,0,0,0-2.79,2.79v11.72h44.17v-3.56a5.44,5.44,0,0,0-3.87-5.21Z" class="color00a7fe svgShape"/><rect width="44.17" height="5.03" x="344.77" y="662.79" fill="#0092de" class="color0092de svgShape"/><polygon fill="#575e69" points="345.66 621.65 346.06 637.43 369.19 637.43 369.19 621.65 345.66 621.65" class="color575e69 svgShape"/><path fill="#747d8b" d="M342.24,552.37l1.46,72.51a2.11,2.11,0,0,0,2.11,2.06H369a2.12,2.12,0,0,0,2.11-2.11V552a14.43,14.43,0,0,0-14.43-14.43h0A14.44,14.44,0,0,0,342.24,552.37Z" class="color747d8b svgShape"/><path fill="#00a7fe" d="M381,526.71H314.64a5.27,5.27,0,0,1-5.28-5.28V475.27L298.21,435c-1.81-6.06,2.22-13.1,8.55-13.1h69.31a10.24,10.24,0,0,1,10.24,10.24v89.28A5.27,5.27,0,0,1,381,526.71Z" class="color00a7fe svgShape"/><path fill="#8fb1e3" d="M408.52,506.49h-37.2c-2.78,0-4.29-2.25-3.37-5l21.73-65.75a7.63,7.63,0,0,1,6.7-5h37.21c2.78,0,4.28,2.25,3.37,5l-21.74,65.75A7.63,7.63,0,0,1,408.52,506.49Z" class="color8fb1e3 svgShape"/><path fill="#bfd5f7" d="M411.92,506.49H374.71c-2.78,0-4.28-2.25-3.36-5l21.73-65.75a7.63,7.63,0,0,1,6.7-5H437c2.78,0,4.28,2.25,3.36,5l-21.73,65.75A7.63,7.63,0,0,1,411.92,506.49Z" class="colorbfd5f7 svgShape"/><path fill="#ffa686" d="M428.39,461.93h0a2.89,2.89,0,0,0-2.18,3.45l2.53,11.18,5.63-1.28-2.52-11.17A2.89,2.89,0,0,0,428.39,461.93Z" class="colorffa686 svgShape"/><path fill="#f5916e" d="M411.9,485.6h0a2.88,2.88,0,0,0,2.42,3.29l8.9,1.36.87-5.72-8.9-1.35A2.88,2.88,0,0,0,411.9,485.6Z" class="colorf5916e svgShape"/><path fill="#f5916e" d="M412.93 491.6h0a2.88 2.88 0 002.42 3.29l7 1.07.87-5.71-7-1.07A2.88 2.88 0 00412.93 491.6zM410.72 479.58h0a2.89 2.89 0 002.42 3.29l10.95 1.66.87-5.71L414 477.15A2.89 2.89 0 00410.72 479.58z" class="colorf5916e svgShape"/><path fill="#f5916e" d="M414,497.6h0a2.89,2.89,0,0,0,2.43,3.29l5.09.78.87-5.71-5.09-.78A2.89,2.89,0,0,0,414,497.6Z" class="colorf5916e svgShape"/><path fill="#ffa686" d="M435.82 479.78l-1.45-4.5-6.45-2.34-3 5.88-3.48 22.85 1.48.13a11.34 11.34 0 006.19-1.23h0a11.31 11.31 0 006-8.34l1.11-7.29A11.42 11.42 0 00435.82 479.78zM317.41 495.2a8.93 8.93 0 01-8.75-7.2l-10.18-51.42a8.94 8.94 0 017-10.49 8.66 8.66 0 011.75-.18 9 9 0 018.75 7.21l10.17 51.41a8.89 8.89 0 01-3.26 8.78 8.77 8.77 0 01-3.77 1.72A8.48 8.48 0 01317.41 495.2z" class="colorffa686 svgShape"/><path fill="#00a7fe" d="M319.93,432.34a12.93,12.93,0,1,0-25.37,5l4.71,23.83,25.41-4.84Z" class="color00a7fe svgShape"/><path fill="#ffa686" d="M367.85 479.42h-49.4a7.89 7.89 0 00-7.89 7.89h0a7.89 7.89 0 007.89 7.89h49.4zM388.06 475.12h0a2.89 2.89 0 01-2.93 2.85l-11.46-.17.09-5.77 11.45.16A2.9 2.9 0 01388.06 475.12z" class="colorffa686 svgShape"/><path fill="#f5916e" d="M388.9 491.25h0a2.88 2.88 0 01-3.32 2.37l-8.89-1.48.95-5.69 8.89 1.48A2.89 2.89 0 01388.9 491.25zM386.05 496.63h0a2.89 2.89 0 01-3.32 2.38l-7-1.17.95-5.7 7 1.17A2.89 2.89 0 01386.05 496.63z" class="colorf5916e svgShape"/><path fill="#f5916e" d="M391.9 485.89h0a2.9 2.9 0 01-3.33 2.38l-10.93-1.82.95-5.7 10.93 1.82A2.89 2.89 0 01391.9 485.89zM383.2 502h0a2.89 2.89 0 01-3.32 2.38l-5.09-.85.95-5.7 5.09.85A2.89 2.89 0 01383.2 502z" class="colorf5916e svgShape"/><polygon fill="#ffa686" points="358.48 479.42 355.88 494.99 362.21 501.44 374.79 503.54 378.59 480.75 358.48 479.42" class="colorffa686 svgShape"/><polygon fill="#ffa686" points="373.76 472.03 358.48 479.42 376.88 481.85 373.76 472.03" class="colorffa686 svgShape"/><path fill="#ffffff" d="M322,421.91c6.53,9.15,16.71,15.44,26.61,15.44s16.8-6.29,18.57-15.44Z" class="colorfff svgShape"/><path fill="#f5916e" d="M328.11,421.91c4.79,6.83,12.26,11.53,19.52,11.53s12.33-4.7,13.62-11.53Z" class="colorf5916e svgShape"/><path fill="#637a8a" d="M329.5 398.43h0a7.56 7.56 0 01-7.56-7.56V378.39h7.56zM365.54 383.18h0a6.07 6.07 0 006.07-6.07v-10h0a13.55 13.55 0 004-9.58v-10a7 7 0 00-6.95-7h0a8.49 8.49 0 00-8.5 8.5v34.13z" class="color637a8a svgShape"/><polygon fill="#f5916e" points="361.25 421.91 328.11 421.91 328.11 373.83 357.25 373.83 361.25 421.91" class="colorf5916e svgShape"/><path fill="#ffa686" d="M326.11,358.89v19.73A34.21,34.21,0,0,0,329.69,394c3.53,7.06,10.38,20.27,26.63,20.27h5.23c6.49,0,11.75-12.26,11.75-20.53V352.48a2.08,2.08,0,0,0-2.08-2.07H334.6A8.49,8.49,0,0,0,326.11,358.89Z" class="colorffa686 svgShape"/><path fill="#f5916e" d="M358.88,399.37a65.31,65.31,0,0,1-8.15-.57,1.5,1.5,0,1,1,.37-3c5.73.72,10.26.72,13.87,0a1.5,1.5,0,0,1,.58,3A34.59,34.59,0,0,1,358.88,399.37Z" class="colorf5916e svgShape"/><path fill="#5e3927" d="M349.6 369h-7a1.94 1.94 0 01-1.94-1.94h0a1.94 1.94 0 011.94-1.94h7a1.94 1.94 0 011.94 1.94h0A1.94 1.94 0 01349.6 369zM371.17 369h-6.95a1.94 1.94 0 01-1.94-1.94h0a1.94 1.94 0 011.94-1.94h6.95a1.94 1.94 0 011.94 1.94h0A1.94 1.94 0 01371.17 369z" class="color5e3927 svgShape"/><path fill="#5b2d15" d="M348.78 376.17a2.95 2.95 0 11-2.95-2.94A2.94 2.94 0 01348.78 376.17zM370.64 376.17a2.94 2.94 0 11-2.94-2.94A2.94 2.94 0 01370.64 376.17z" class="color5b2d15 svgShape"/><path fill="#fffefb" d="M370.08 375.37a1.46 1.46 0 11-1.46-1.46A1.46 1.46 0 01370.08 375.37zM348.09 375.37a1.46 1.46 0 11-1.46-1.46A1.46 1.46 0 01348.09 375.37z" class="colorfffefb svgShape"/><path fill="#f5916e" d="M360.86,388.91H355.7a1.5,1.5,0,0,1,0-3H359L356,371a1.5,1.5,0,0,1,2.94-.59l3.37,16.72a1.5,1.5,0,0,1-1.47,1.79Z" class="colorf5916e svgShape"/><path fill="#fab37b" d="M348.09 386.72h-8a1.5 1.5 0 110-3h8a1.5 1.5 0 010 3zM344.09 390.72h-3a1.5 1.5 0 110-3h3a1.5 1.5 0 010 3zM370.09 386.72h-4a1.5 1.5 0 110-3h4a1.5 1.5 0 010 3zM369.09 390.72h-1a1.5 1.5 0 110-3h1a1.5 1.5 0 010 3z" opacity=".3" class="colorfab37b svgShape"/><path fill="#ffa686" d="M362.28,407.75H353.6a2,2,0,0,1,0-4h8.68a2,2,0,0,1,0,4Z" opacity=".3" class="colorffa686 svgShape"/><path fill="#637a8a" d="M329.41,340.55a8.5,8.5,0,0,0-8.5,8.5c0,6.14-3.53,16.91-7.43,22.62l7.43,11.51h5.42a6.07,6.07,0,0,0,6.07-6.07v-10a13.56,13.56,0,0,0,4-9.58V340.55Z" class="color637a8a svgShape"/><path fill="#ffa686" d="M327.59,388h-2a7.41,7.41,0,0,1-7.26-6.72l-.19-2.33a6.11,6.11,0,0,1,6.18-6.73h0a2.22,2.22,0,0,1,2.22,2.05Z" class="colorffa686 svgShape"/><path fill="#f5916e" d="M325,383.1h-.9a3.26,3.26,0,0,1-3.2-3l-.08-1a2.69,2.69,0,0,1,2.72-3h.91Z" class="colorf5916e svgShape"/><path fill="#637a8a" d="M359.53,336.16H335.44a7,7,0,0,0-7,6.95v9.3h7.89l10.26,8.19,1.46-5.48,10.19,6.74V356l8.88,3.88,3.48-3.58,12.15.8C377.33,341.46,378.13,336.16,359.53,336.16Z" class="color637a8a svgShape"/><polygon fill="#f5916e" points="467.9 651.63 445.76 651.63 441.56 639.17 461.43 632.46 467.9 651.63" class="colorf5916e svgShape"/><polygon fill="#575e69" points="435.87 626.29 441.3 641.11 463.21 633.71 458.16 618.77 435.87 626.29" class="color575e69 svgShape"/><path fill="#747d8b" d="M408.3,557.63,435.05,630a2.09,2.09,0,0,0,2.65,1.27l22-7.41a2.11,2.11,0,0,0,1.33-2.67L435.51,548A14.44,14.44,0,0,0,417.22,539h0A14.43,14.43,0,0,0,408.3,557.63Z" class="color747d8b svgShape"/><path fill="#00a7fe" d="M474.35,648.74l-2.44-2.43a2.79,2.79,0,0,0-2-.82H463a2.78,2.78,0,0,0-2.79,2.79H446.33a2.79,2.79,0,0,0-2.79,2.79v11.72h51.17v-3.56a5.44,5.44,0,0,0-3.87-5.21l-15.32-4.58A2.76,2.76,0,0,1,474.35,648.74Z" class="color00a7fe svgShape"/><rect width="51.17" height="5.03" x="443.54" y="662.79" fill="#0092de" class="color0092de svgShape"/><path fill="#bfd5f7" d="M673.59 561.21a2 2 0 01-2-2V497a2 2 0 014 0v62.21A2 2 0 01673.59 561.21zM616.54 561.21a2 2 0 01-2-2V497a2 2 0 014 0v62.21A2 2 0 01616.54 561.21z" class="colorbfd5f7 svgShape"/><rect width="95" height="57.06" x="603.18" y="439.94" fill="#f7a60f" rx="14.58" transform="rotate(180 650.675 468.465)" class="colorf7a60f svgShape"/><rect width="95" height="57.06" x="593.18" y="439.94" fill="#fdd247" rx="14.58" transform="rotate(180 640.675 468.465)" class="colorfdd247 svgShape"/><rect width="4" height="89.89" x="679.77" y="578.4" fill="#bfd5f7" transform="rotate(-8.32 682.203 623.697)" class="colorbfd5f7 svgShape"/><rect width="89.89" height="4" x="539.14" y="621.35" fill="#bfd5f7" transform="rotate(-81.66 584.101 623.351)" class="colorbfd5f7 svgShape"/><path fill="#f7a60f" d="M597.93,578.88h87.33a9.84,9.84,0,0,0,9.83-9.84h0a9.83,9.83,0,0,0-9.83-9.83H597.93A9.83,9.83,0,0,0,588.1,569h0A9.84,9.84,0,0,0,597.93,578.88Z" class="colorf7a60f svgShape"/><path fill="#fdd247" d="M577.93,578.88h87.33a9.84,9.84,0,0,0,9.83-9.84h0a9.83,9.83,0,0,0-9.83-9.83H577.93A9.83,9.83,0,0,0,568.1,569h0A9.84,9.84,0,0,0,577.93,578.88Z" class="colorfdd247 svgShape"/><path fill="#d64dc4" d="M574.4,481.76a9.89,9.89,0,0,0,18.28,0l18.7-45.28A9.9,9.9,0,0,0,606,423.54a9.9,9.9,0,0,0-12.92,5.36l-18.71,45.29A9.84,9.84,0,0,0,574.4,481.76Z" class="colord64dc4 svgShape"/><path fill="#f5916e" d="M533.72,487.34l50.33.33a7.89,7.89,0,0,0,7.94-7.84h0a7.89,7.89,0,0,0-7.84-7.94l-50.33-.33Z" class="colorf5916e svgShape"/><path fill="#ffa686" d="M530.14,470.82h16.11a8.51,8.51,0,0,1,8.51,8.51V481c0,4.38-2.18,8.47-7.68,8.47h0c-7.12,0-13.28-4.1-20.18-9.41l0-6A3.26,3.26,0,0,1,530.14,470.82Z" class="colorffa686 svgShape"/><path fill="#ffa686" d="M538.43,493.21a3,3,0,0,1-2.86-3.92l3.71-11.59a3,3,0,1,1,5.71,1.82l-3.7,11.6A3,3,0,0,1,538.43,493.21Z" class="colorffa686 svgShape"/><path fill="#ffa686" d="M534.63,493.21a2.89,2.89,0,0,1-.91-.15,3,3,0,0,1-2-3.77l3.71-11.59a3,3,0,1,1,5.71,1.82l-3.7,11.6A3,3,0,0,1,534.63,493.21Z" class="colorffa686 svgShape"/><path fill="#ffa686" d="M530.83 493.21a2.89 2.89 0 01-.91-.15 3 3 0 01-1.95-3.77l3.71-11.59a3 3 0 115.71 1.82l-3.7 11.6A3 3 0 01530.83 493.21zM523.59 493.21a2.89 2.89 0 01-.91-.15 3 3 0 01-1.94-3.77l5.14-16.08a3 3 0 115.71 1.82l-5.14 16.09A3 3 0 01523.59 493.21z" class="colorffa686 svgShape"/><path fill="#130f40" d="M599.53,344.79a31.44,31.44,0,0,1,14.31-3.43h3.9A31.68,31.68,0,0,1,649.39,373v7.71a54.44,54.44,0,0,1-3.59,19.47l-1.62,4.27H593.31s-8.62-17.76-10.44-23.92C574.24,351.36,584.59,336.9,599.53,344.79Z" class="color130f40 svgShape"/><circle cx="638.39" cy="404.45" r="14.39" fill="#130f40" transform="rotate(-67.5 638.385 404.442)" class="color130f40 svgShape"/><path fill="#222b54" d="M592.17,496.41h50l11.41,26.31a46.22,46.22,0,0,1,3.83,18.44v11.52a12.89,12.89,0,0,1-12.89,12.89H589.83a12.89,12.89,0,0,1-12.89-12.89V541.16a46.39,46.39,0,0,1,3.82-18.44Z" class="color222b54 svgShape"/><path fill="#33407d" d="M569.74,536.71H644.4a12.87,12.87,0,0,1,12.87,12.87v0a19.71,19.71,0,0,1-19.71,19.71h-61a19.71,19.71,0,0,1-19.71-19.71v0a12.87,12.87,0,0,1,12.87-12.87Z" transform="rotate(-180 607.07 553.005)" class="color33407d svgShape"/><path fill="#f268df" d="M643.45,422.89H602a14.16,14.16,0,0,0-13.66,10.46l-5.48,20.35a14.74,14.74,0,0,0,3,13.34l6.31,7.29h0l.07,22.08h50l1.23-28.34,12.75-24A14.41,14.41,0,0,0,643.45,422.89Z" class="colorf268df svgShape"/><path fill="#f379e3" d="M619.71,490.82A9.9,9.9,0,0,0,638,490l19.46-53.78a9.89,9.89,0,0,0-18.6-6.74l-19.46,53.78A9.85,9.85,0,0,0,619.71,490.82Z" class="colorf379e3 svgShape"/><path fill="#ffa686" d="M592.7,496.16l36.33.33a7.89,7.89,0,0,0,7.94-7.84h0a7.89,7.89,0,0,0-7.84-7.94l-36.33-.33Z" class="colorffa686 svgShape"/><path fill="#ffa686" d="M589.12,479.64h16.11a8.51,8.51,0,0,1,8.51,8.51v1.71c0,4.38-2.18,8.47-7.68,8.47h0c-7.12,0-13.29-4.1-20.18-9.41l0-6A3.27,3.27,0,0,1,589.12,479.64Z" class="colorffa686 svgShape"/><path fill="#ffa686" d="M597.41,502a3,3,0,0,1-.92-.15,3,3,0,0,1-1.94-3.77l3.7-11.59a3,3,0,1,1,5.72,1.82l-3.71,11.6A3,3,0,0,1,597.41,502Z" class="colorffa686 svgShape"/><path fill="#ffa686" d="M593.61,502a3,3,0,0,1-2.86-3.92l3.71-11.59a3,3,0,1,1,5.71,1.82l-3.71,11.6A3,3,0,0,1,593.61,502Z" class="colorffa686 svgShape"/><path fill="#ffa686" d="M589.81 502a2.89 2.89 0 01-.91-.15 3 3 0 01-1.95-3.77l3.71-11.59a3 3 0 115.71 1.82l-3.7 11.6A3 3 0 01589.81 502zM582.57 502a2.89 2.89 0 01-.91-.15 3 3 0 01-1.95-3.77L584.86 482a3 3 0 115.71 1.82l-5.14 16.09A3 3 0 01582.57 502z" class="colorffa686 svgShape"/><polygon fill="#f5916e" points="606.24 422.89 628.39 422.89 628.39 374.78 610.24 374.78 606.24 422.89" class="colorf5916e svgShape"/><path fill="#ffa686" d="M635.39,373v7.71a44.8,44.8,0,0,1-2.93,15.91l-1.86,4.89a21.23,21.23,0,0,1-19.84,13.66h0a21.23,21.23,0,0,1-20.85-17.25h0a96.81,96.81,0,0,1-1.71-18.13V373a21.64,21.64,0,0,1,21.64-21.64h3.9A21.65,21.65,0,0,1,635.39,373Z" class="colorffa686 svgShape"/><path fill="#f5916e" d="M609.92,395.21H605.1a1.5,1.5,0,0,1-1.47-1.79l1.32-6.65a1.5,1.5,0,0,1,2.95.59l-1,4.85h3a1.5,1.5,0,0,1,0,3Z" class="colorf5916e svgShape"/><path fill="#130f40" d="M626.73,371h4a7.66,7.66,0,0,1,7.66,7.66v11.39a0,0,0,0,1,0,0H626.73a0,0,0,0,1,0,0V371A0,0,0,0,1,626.73,371Z" transform="rotate(180 632.56 380.53)" class="color130f40 svgShape"/><path fill="#5e3927" d="M614.91 377h7A1.94 1.94 0 00623.8 375h0a1.94 1.94 0 00-1.94-1.94h-7A1.94 1.94 0 00613 375h0A1.94 1.94 0 00614.91 377zM593.34 377h6.95a1.94 1.94 0 001.94-1.94h0a1.94 1.94 0 00-1.94-1.94h-6.95A1.94 1.94 0 00591.4 375h0A1.94 1.94 0 00593.34 377z" class="color5e3927 svgShape"/><path fill="#5b2d15" d="M615.73 384.12a2.95 2.95 0 102.95-2.94A2.94 2.94 0 00615.73 384.12zM593.87 384.12a2.94 2.94 0 102.94-2.94A2.94 2.94 0 00593.87 384.12z" class="color5b2d15 svgShape"/><path fill="#d53031" d="M606.81,405.91h4a6.16,6.16,0,0,0,6.16-6.16H600.64A6.16,6.16,0,0,0,606.81,405.91Z" class="colord53031 svgShape"/><path fill="#fffefb" d="M594.43 383.32a1.46 1.46 0 101.46-1.46A1.46 1.46 0 00594.43 383.32zM616.42 383.32a1.46 1.46 0 101.46-1.46A1.46 1.46 0 00616.42 383.32zM602.85 399.75H617a6 6 0 01-.83 3.08h-12.3z" class="colorfffefb svgShape"/><path fill="#ffa686" d="M630.9,396.93H633a7.42,7.42,0,0,0,7.26-6.72l.19-2.33a6.13,6.13,0,0,0-6.19-6.73h0A2.24,2.24,0,0,0,632,383.2Z" class="colorffa686 svgShape"/><path fill="#f5916e" d="M633.5,392.05h.91a3.27,3.27,0,0,0,3.2-3l.08-1a2.7,2.7,0,0,0-2.73-3h-.9Z" class="colorf5916e svgShape"/><path fill="#130f40" d="M626.73,377c-1.21-16.58-27.12-6-27.12-32.22,9.52-8.4,38.09-9.25,40.82,6.22v26Z" class="color130f40 svgShape"/><path fill="#ffffff" d="M610.25,448.37l23.59-25.48H602c-.34,0-.67,0-1,0Z" class="colorfff svgShape"/><polygon fill="#f5916e" points="628.39 422.89 611.76 440.85 605.21 422.89 628.39 422.89" class="colorf5916e svgShape"/><path fill="#ffa686" d="M576.2,557.38l-4.4,92.31a6.67,6.67,0,0,1-6.66,6.35h0a6.67,6.67,0,0,1-6.65-6.35l-4.4-92.31a11.07,11.07,0,0,1,11-11.66h0A11.07,11.07,0,0,1,576.2,557.38Z" class="colorffa686 svgShape"/><path fill="#222b54" d="M548.08,655.2l9.58-9.16h15l.62,1.88a27.47,27.47,0,0,1,.58,14.88l-1.2,5h-5.79v-9.36l-9.36,9.36H532.72V665a2.68,2.68,0,0,1,1.9-2.57l2.54-.78A27.58,27.58,0,0,0,548.08,655.2Z" class="color222b54 svgShape"/><path fill="#ffa686" d="M610.56,557.38l-4.4,92.31A6.67,6.67,0,0,1,599.5,656h0a6.67,6.67,0,0,1-6.65-6.35l-4.41-92.31a11.08,11.08,0,0,1,11.06-11.66h0A11.07,11.07,0,0,1,610.56,557.38Z" class="colorffa686 svgShape"/><path fill="#222b54" d="M584.11,661.66l1.47-.76a4.68,4.68,0,0,0,2.26-2.57L592.25,646H606.9l.54,2.52a30.16,30.16,0,0,1-.14,13.4l-1.4,5.86h-4.8v-6.1l-2.76,6.1H581.58v-2A4.7,4.7,0,0,1,584.11,661.66Z" class="color222b54 svgShape"/><polygon fill="#455788" points="614.78 496.2 521.5 496.2 518.5 500.07 617.78 500.07 614.78 496.2" class="color455788 svgShape"/><path fill="#273c75" d="M574.33,500.07v6.13h50.36a3.06,3.06,0,0,0,3.07-3.06h0a3.06,3.06,0,0,0-3.07-3.07Z" class="color273c75 svgShape"/><rect width="84.4" height="67.24" x="507.4" y="438.96" fill="#273c75" rx="5.79" transform="rotate(180 549.6 472.585)" class="color273c75 svgShape"/><rect width="84.4" height="67.24" x="503.49" y="438.96" fill="#455788" rx="5.79" transform="rotate(180 545.69 472.585)" class="color455788 svgShape"/><rect width="4" height="157.57" x="823.71" y="510.25" fill="#bfd5f7" class="colorbfd5f7 svgShape"/><rect width="4" height="157.57" x="780.71" y="510.25" fill="#bfd5f7" class="colorbfd5f7 svgShape"/><rect width="4" height="157.57" x="205.29" y="510.25" fill="#bfd5f7" class="colorbfd5f7 svgShape"/><rect width="4" height="157.57" x="162.29" y="510.25" fill="#bfd5f7" class="colorbfd5f7 svgShape"/><path fill="#dcb083" d="M154.56,514.29H835.44a4,4,0,0,0,4-4h0a4,4,0,0,0-4-4.05H154.56a4,4,0,0,0-4.05,4.05h0A4,4,0,0,0,154.56,514.29Z" class="colordcb083 svgShape"/><path fill="#ad6e2b" d="M154.56,514.29H217a4,4,0,0,0,4-4h0a4,4,0,0,0-4-4.05H154.56a4,4,0,0,0-4.05,4.05h0A4,4,0,0,0,154.56,514.29Z" class="colorad6e2b svgShape"/><rect width="84.4" height="67.24" x="200.73" y="438.96" fill="#273c75" rx="5.79" class="color273c75 svgShape"/><rect width="84.4" height="67.24" x="196.65" y="438.96" fill="#455788" rx="5.79" class="color455788 svgShape"/><rect width="51.24" height="72.4" x="213.22" y="434.39" fill="#273c75" transform="rotate(90 238.845 470.585)" class="color273c75 svgShape"/><path fill="#455788" d="M240.36,500.07v6.13H159.84a3.07,3.07,0,0,1-3.07-3.06h0a3.07,3.07,0,0,1,3.07-3.07Z" class="color455788 svgShape"/><path fill="#273c75" d="M240.36,500.07v6.13h40.36a3.06,3.06,0,0,0,3.07-3.06h0a3.06,3.06,0,0,0-3.07-3.07Z" class="color273c75 svgShape"/><polygon fill="#273c75" points="264.55 496.2 171.27 496.2 168.27 500.07 267.55 500.07 264.55 496.2" class="color273c75 svgShape"/><path fill="#fbb03b" d="M216.89,453.24l-1-1a.91.91,0,0,0-.66-.28h-4.06a1.17,1.17,0,0,0-1.16,1.17v4.41a1.17,1.17,0,0,0,1.16,1.17h7a1.17,1.17,0,0,0,1.16-1.17v-3.05a.93.93,0,0,0-.93-.94h-.77A1,1,0,0,1,216.89,453.24Z" class="colorfbb03b svgShape"/><rect width="9.3" height="1.02" x="209.97" y="460.03" fill="#ffffff" class="colorfff svgShape"/><rect width="4.77" height="1.02" x="209.97" y="461.85" fill="#ffffff" class="colorfff svgShape"/><path fill="#6b65e0" d="M216.89,466.32l-1-1a.94.94,0,0,0-.66-.27h-4.06a1.16,1.16,0,0,0-1.16,1.16v4.42a1.16,1.16,0,0,0,1.16,1.16h7a1.16,1.16,0,0,0,1.16-1.16v-3.06a.93.93,0,0,0-.93-.93h-.77A1,1,0,0,1,216.89,466.32Z" class="color6b65e0 svgShape"/><rect width="9.3" height="1.02" x="209.97" y="473.12" fill="#ffffff" class="colorfff svgShape"/><rect width="4.77" height="1.02" x="209.97" y="474.93" fill="#ffffff" class="colorfff svgShape"/><path fill="#fbb03b" d="M216.89,479.41l-1-1a.91.91,0,0,0-.66-.28h-4.06a1.17,1.17,0,0,0-1.16,1.17v4.41a1.16,1.16,0,0,0,1.16,1.16h7a1.16,1.16,0,0,0,1.16-1.16v-3.05a.93.93,0,0,0-.93-.94h-.77A1,1,0,0,1,216.89,479.41Z" class="colorfbb03b svgShape"/><rect width="9.3" height="1.02" x="209.97" y="486.2" fill="#ffffff" class="colorfff svgShape"/><rect width="4.77" height="1.02" x="209.97" y="488.02" fill="#ffffff" class="colorfff svgShape"/><path fill="#fbb03b" d="M229.08,453.24l-1-1a.94.94,0,0,0-.66-.28h-4.07a1.17,1.17,0,0,0-1.16,1.17v4.41a1.17,1.17,0,0,0,1.16,1.17h7a1.18,1.18,0,0,0,1.17-1.17v-3.05a.94.94,0,0,0-.94-.94h-.77A.94.94,0,0,1,229.08,453.24Z" class="colorfbb03b svgShape"/><rect width="9.3" height="1.02" x="222.15" y="460.03" fill="#ffffff" class="colorfff svgShape"/><rect width="4.77" height="1.02" x="222.15" y="461.85" fill="#ffffff" class="colorfff svgShape"/><path fill="#fbb03b" d="M229.08,466.32l-1-1a1,1,0,0,0-.66-.27h-4.07a1.16,1.16,0,0,0-1.16,1.16v4.42a1.16,1.16,0,0,0,1.16,1.16h7a1.17,1.17,0,0,0,1.17-1.16v-3.06a.94.94,0,0,0-.94-.93h-.77A.91.91,0,0,1,229.08,466.32Z" class="colorfbb03b svgShape"/><rect width="9.3" height="1.02" x="222.15" y="473.12" fill="#ffffff" class="colorfff svgShape"/><rect width="4.77" height="1.02" x="222.15" y="474.93" fill="#ffffff" class="colorfff svgShape"/><path fill="#6b65e0" d="M229.08,479.41l-1-1a.94.94,0,0,0-.66-.28h-4.07a1.17,1.17,0,0,0-1.16,1.17v4.41a1.16,1.16,0,0,0,1.16,1.16h7a1.17,1.17,0,0,0,1.17-1.16v-3.05a.94.94,0,0,0-.94-.94h-.77A.94.94,0,0,1,229.08,479.41Z" class="color6b65e0 svgShape"/><rect width="9.3" height="1.02" x="222.15" y="486.2" fill="#ffffff" class="colorfff svgShape"/><rect width="4.77" height="1.02" x="222.15" y="488.02" fill="#ffffff" class="colorfff svgShape"/><rect width="35.53" height="23.69" x="234.64" y="451.84" fill="#9f99d1" rx="1.11" class="color9f99d1 svgShape"/><rect width="20" height="33.98" x="242.41" y="447.76" fill="#273c75" rx=".33" transform="rotate(90 252.405 464.755)" class="color273c75 svgShape"/><rect width="13.39" height="13.39" x="238.21" y="458.06" fill="#6b65e0" class="color6b65e0 svgShape"/><path fill="#fbb03b" d="M246.07,464.3h0a3.08,3.08,0,0,0,1.05-2.23,2.21,2.21,0,0,0-4.41,0,3.08,3.08,0,0,0,1.05,2.23h0c-.41.27-1.86.74-1.94.87a5.85,5.85,0,0,0-.78,3c0,1.3,2.72,1.44,3.89,1.44s3.88-.14,3.88-1.44a5.76,5.76,0,0,0-.78-3C247.94,465,246.48,464.57,246.07,464.3Z" class="colorfbb03b svgShape"/><path fill="#9f99d1" d="M253.21,458.06v.76H266.6v-.76Zm0,2.24H266.6v-.76H253.21Zm0,1.47H266.6V461H253.21Zm9.5.71h-9.5v.76h9.5Zm-9.5,4.54H266.6v-.76H253.21Zm0,1.48H266.6v-.76H253.21Zm0,1.47H266.6v-.76H253.21Zm0,1.48h9.5v-.76h-9.5Z" class="color9f99d1 svgShape"/><polygon fill="#f5916e" points="141.3 426.94 108.16 426.94 114.01 379.19 142.94 382.74 141.3 426.94" class="colorf5916e svgShape"/><path fill="#ffffff" d="M144.44,426.94H105.16l1.15-4.87a4.66,4.66,0,0,1,4.52-3.58h25.9a6.8,6.8,0,0,1,6.44,4.64Z" class="colorfff svgShape"/><path fill="#5e3927" d="M163.59,352.24v3.1a12.17,12.17,0,0,1-7,11h0L155.81,354Z" class="color5e3927 svgShape"/><path fill="#f5916e" d="M156.79,378.76l4.75,13.39a2.44,2.44,0,0,1-2.22,3.26l-1.82,0Z" class="colorf5916e svgShape"/><path fill="#ffa686" d="M154.29,357.48l-36.61,1.12a8.48,8.48,0,0,0-8.22,8.74l.6,19.72c.11,3.61.78,7.17,2,9.31l22.77-.7c.24,10.72,5.17,23.67,16.43,21.95,6.15-.95,6.73-8.67,6.48-16.94l-1.26-41.18A2.09,2.09,0,0,0,154.29,357.48Z" class="colorffa686 svgShape"/><path fill="#f5916e" d="M156,405.59H152.1a1.5,1.5,0,1,1,0-3H156a1.5,1.5,0,1,1,0,3Z" class="colorf5916e svgShape"/><path fill="#5e3927" d="M158.67,376l-6.52,2.43a1.92,1.92,0,0,1-2.49-1.14h0a1.92,1.92,0,0,1,1.14-2.49l6.51-2.44a1.94,1.94,0,0,1,2.49,1.14h0A1.94,1.94,0,0,1,158.67,376Z" class="color5e3927 svgShape"/><path fill="#5b2d15" d="M158,384.15a2.94,2.94,0,1,1-3-2.85A2.95,2.95,0,0,1,158,384.15Z" class="color5b2d15 svgShape"/><path fill="#fffefb" d="M157.27,383.37a1.46,1.46,0,1,1-1.5-1.42A1.46,1.46,0,0,1,157.27,383.37Z" class="colorfffefb svgShape"/><path fill="#5e3927" d="M144.13,343.54l-24.09.73a7,7,0,0,0-6.74,7.17l.29,9.29,43.26-1.33a6.94,6.94,0,0,0,6.74-7.16C162.65,347.18,157.27,343.45,144.13,343.54Z" class="color5e3927 svgShape"/><path fill="#5e3927" d="M112.2,348.91a8.5,8.5,0,0,0-8.24,8.75l.92,29.9s4.67,11.16,5.55,20.86h14.33c7-1.07,10.2-6.93,10-12.75l-1.45-47.41Z" class="color5e3927 svgShape"/><path fill="#5e3927" d="M108 400.93h16.75v7.49H108a3.75 3.75 0 01-3.75-3.75h0A3.74 3.74 0 01108 400.93zM133.72 387.34h0l-.83-27.2 7 3.81.56 16.24A6.94 6.94 0 01133.72 387.34z" class="color5e3927 svgShape"/><path fill="#ffa686" d="M135.75,395.64l-2.06.07a7.42,7.42,0,0,1-7.46-6.5l-.26-2.33a6.12,6.12,0,0,1,6-6.91h0a2.23,2.23,0,0,1,2.28,2Z" class="colorffa686 svgShape"/><path fill="#f5916e" d="M135,390.78l-.91,0A3.28,3.28,0,0,1,130.8,388l-.11-1a2.69,2.69,0,0,1,2.63-3l.91,0Z" class="colorf5916e svgShape"/><path fill="#18898d" d="M156.75,648.74l-2.44-2.43a2.79,2.79,0,0,0-2-.82H145.4a2.79,2.79,0,0,0-2.79,2.79H131.73a2.79,2.79,0,0,0-2.79,2.79v11.72h44.17v-3.56a5.45,5.45,0,0,0-3.88-5.21Z" class="color18898d svgShape"/><rect width="20.98" height="13.15" x="131.09" y="635.67" fill="#f5916e" class="colorf5916e svgShape"/><rect width="44.17" height="5.03" x="128.94" y="662.79" fill="#222b54" class="color222b54 svgShape"/><polygon fill="#30336b" points="129.83 621.65 130.23 637.43 153.35 637.43 153.35 621.65 129.83 621.65" class="color30336b svgShape"/><path fill="#30336b" d="M126.41,552.37l1.45,72.51a2.12,2.12,0,0,0,2.11,2.06h23.18a2.11,2.11,0,0,0,2.11-2.11V552a14.43,14.43,0,0,0-14.43-14.43h0A14.43,14.43,0,0,0,126.41,552.37Z" class="color30336b svgShape"/><path fill="#005d61" d="M109.54,501.5a12.93,12.93,0,0,1-20.64-7.69L78.72,442.39a12.94,12.94,0,1,1,25.38-5l10.17,51.42A12.94,12.94,0,0,1,109.54,501.5Z" class="color005d61 svgShape"/><rect width="13.71" height="15.78" x="138.3" y="483.41" fill="#ffa686" class="colorffa686 svgShape"/><path fill="#005d61" d="M101.78,478.37a12.93,12.93,0,0,0-12.92,13.56,13.17,13.17,0,0,0,13.29,12.3H135.6a2.7,2.7,0,0,0,2.7-2.7V481.07a2.7,2.7,0,0,0-2.7-2.7Z" class="color005d61 svgShape"/><rect width="5.22" height="20.6" x="138.3" y="481" fill="#e3e3e3" class="colore3e3e3 svgShape"/><path fill="#ffa686" d="M167.71,477.41l-15.83,3a8.52,8.52,0,0,0-6.76,10l.32,1.68c.83,4.3,3.74,7.91,9.14,6.88h0c7-1.34,12.28-6.52,18-13l-1.1-5.9A3.26,3.26,0,0,0,167.71,477.41Z" class="colorffa686 svgShape"/><path fill="#ffa686" d="M163.21,501a3,3,0,0,1-2.64-1.56l-5.81-10.7a3,3,0,1,1,5.27-2.86l5.81,10.69a3,3,0,0,1-1.2,4.07A2.92,2.92,0,0,1,163.21,501Z" class="colorffa686 svgShape"/><path fill="#ffa686" d="M166.94,500.29a3,3,0,0,1-2.64-1.57L158.49,488a3,3,0,0,1,5.27-2.87l5.82,10.7a3,3,0,0,1-2.64,4.43Z" class="colorffa686 svgShape"/><path fill="#ffa686" d="M170.67 499.58A3 3 0 01168 498l-5.81-10.69a3 3 0 015.27-2.87l5.82 10.69a3 3 0 01-1.21 4.07A2.93 2.93 0 01170.67 499.58zM177.78 498.22a3 3 0 01-2.64-1.57l-8.07-14.83a3 3 0 015.27-2.87l8.07 14.83a3 3 0 01-1.2 4.07A2.93 2.93 0 01177.78 498.22z" class="colorffa686 svgShape"/><path fill="#18898d" d="M196.54,648.74l-2.44-2.43a2.79,2.79,0,0,0-2-.82H185.2a2.79,2.79,0,0,0-2.79,2.79H168.52a2.79,2.79,0,0,0-2.79,2.79v11.72H216.9v-3.56A5.44,5.44,0,0,0,213,654l-15.32-4.58A2.76,2.76,0,0,1,196.54,648.74Z" class="color18898d svgShape"/><polygon fill="#f5916e" points="190.26 648.31 168.26 648.25 172.25 635.72 192.24 642.08 190.26 648.31" class="colorf5916e svgShape"/><polygon fill="#30336b" points="175.3 621.98 170.9 637.13 192.93 644.14 197.72 629.11 175.3 621.98" class="color30336b svgShape"/><path fill="#30336b" d="M192.41,554.76l-20,69.7a2.11,2.11,0,0,0,1.38,2.6l22.09,7a2.11,2.11,0,0,0,2.65-1.38L220,563.13A14.44,14.44,0,0,0,210.65,545h0A14.43,14.43,0,0,0,192.41,554.76Z" class="color30336b svgShape"/><rect width="51.17" height="5.03" x="165.73" y="662.79" fill="#222b54" class="color222b54 svgShape"/><path fill="#30336b" d="M133.54,542.57v31.75h71.29a15.88,15.88,0,0,0,15.88-15.87h0a15.88,15.88,0,0,0-15.88-15.88Z" class="color30336b svgShape"/><path fill="#30336b" d="M98.81,531.74H165.2a0,0,0,0,1,0,0v29.71a12.87,12.87,0,0,1-12.87,12.87H111.67a12.87,12.87,0,0,1-12.87-12.87V531.74A0,0,0,0,1,98.81,531.74Z" class="color30336b svgShape"/><rect width="66.39" height="6.53" x="98.81" y="531.71" fill="#23264f" class="color23264f svgShape"/><path fill="#00666b" d="M165.2,531.74H98.81a5.28,5.28,0,0,1-5.29-5.28V480.29L82.38,440c-1.81-6.06,2.22-13.1,8.54-13.1h69.32a10.25,10.25,0,0,1,10.24,10.24v89.28A5.28,5.28,0,0,1,165.2,531.74Z" class="color00666b svgShape"/><path fill="#f5916e" d="M231.31,497.6a3,3,0,0,1-2.68-1.66l-4.82-9.64H221.2a3,3,0,0,1,0-6h4.46a3,3,0,0,1,2.68,1.66l5.66,11.3a3,3,0,0,1-2.69,4.34Z" class="colorf5916e svgShape"/><path fill="#f5916e" d="M237.53,497.6a3,3,0,0,1-2.69-1.66L230,486.3h-7.61a3,3,0,0,1,0-6h9.46a3,3,0,0,1,2.68,1.66l5.66,11.3a3,3,0,0,1-1.34,4A2.93,2.93,0,0,1,237.53,497.6Z" class="colorf5916e svgShape"/><path fill="#f5916e" d="M243.74,497.6a3,3,0,0,1-2.69-1.66l-4.82-9.64h-7.61a3,3,0,0,1,0-6h9.46a3,3,0,0,1,2.68,1.66l5.66,11.3a3,3,0,0,1-1.34,4A3,3,0,0,1,243.74,497.6Z" class="colorf5916e svgShape"/><path fill="#ffa686" d="M250,497.6a3,3,0,0,1-2.69-1.66l-4.82-9.64h-7.61a3,3,0,1,1,0-6h9.46A3,3,0,0,1,247,482l5.66,11.3a3,3,0,0,1-1.34,4A3,3,0,0,1,250,497.6Z" class="colorffa686 svgShape"/><path fill="#ffa686" d="M234.35,480.31h-12.3a7.79,7.79,0,0,0-7.8,7.79v2a7.8,7.8,0,0,0,7.8,7.79h12.29a7.8,7.8,0,0,0,7.79-7.78v-2A7.78,7.78,0,0,0,234.35,480.31Z" class="colorffa686 svgShape"/><path fill="#18898d" d="M177.54,502a12.92,12.92,0,0,1-12.09-8.34l-18.61-49A12.93,12.93,0,0,1,171,435.49l18.61,49A12.93,12.93,0,0,1,177.54,502Z" class="color18898d svgShape"/><path fill="#18898d" d="M176.66,476.16a12.93,12.93,0,0,0-12.92,13.56A13.17,13.17,0,0,0,177,502h33.46a2.7,2.7,0,0,0,2.7-2.7V478.86a2.7,2.7,0,0,0-2.7-2.7Z" class="color18898d svgShape"/><path fill="#f5916e" d="M219,481.2h-5.82V497H219a7.89,7.89,0,0,0,7.89-7.89h0A7.89,7.89,0,0,0,219,481.2Z" class="colorf5916e svgShape"/><rect width="5.22" height="20.6" x="213.18" y="478.79" fill="#e3e3e3" class="colore3e3e3 svgShape"/><circle cx="95.85" cy="660.11" r="7.71" fill="#9bb1d4" transform="rotate(-13.28 95.88 660.24)" class="color9bb1d4 svgShape"/><circle cx="166.56" cy="660.11" r="7.71" fill="#9bb1d4" transform="rotate(-45 166.565 660.106)" class="color9bb1d4 svgShape"/><rect width="13.5" height="72.01" x="124.45" y="583.91" fill="#bfd5f7" transform="rotate(180 131.2 619.91)" class="colorbfd5f7 svgShape"/><path fill="#bfd5f7" d="M174.27,657.59h0a5.19,5.19,0,0,0-5.19-5.19H93.32a5.18,5.18,0,0,0-5.18,5.19h0a5.18,5.18,0,0,0,5.18,5.18h75.76A5.18,5.18,0,0,0,174.27,657.59Z" class="colorbfd5f7 svgShape"/><polygon fill="#9bb1d4" points="124.45 591.65 137.95 591.65 145.34 583.91 117.06 583.91 124.45 591.65" class="color9bb1d4 svgShape"/><polygon fill="#9bb1d4" points="124.45 644.65 137.95 644.65 145.34 652.4 117.06 652.4 124.45 644.65" class="color9bb1d4 svgShape"/><rect width="95" height="57.06" x="65.28" y="454.97" fill="#f7a60f" rx="14.58" transform="rotate(180 112.78 483.495)" class="colorf7a60f svgShape"/><path fill="#f7a60f" d="M81,583.91H181.37a9.84,9.84,0,0,0,9.83-9.84h0a9.83,9.83,0,0,0-9.83-9.83H81a9.84,9.84,0,0,0-9.84,9.83h0A9.85,9.85,0,0,0,81,583.91Z" class="colorf7a60f svgShape"/><rect width="76.45" height="12.53" x="76.2" y="564.24" fill="#fdd247" rx="6.26" transform="rotate(180 114.425 570.505)" class="colorfdd247 svgShape"/><rect width="13.5" height="52.21" x="105.03" y="512.02" fill="#bfd5f7" transform="rotate(180 111.78 538.13)" class="colorbfd5f7 svgShape"/><path fill="#fdd247" d="M75.55,475.49h63.91a6.27,6.27,0,0,0,6.27-6.26h0a6.27,6.27,0,0,0-6.27-6.26H75.55a6.27,6.27,0,0,0-6.27,6.26h0A6.27,6.27,0,0,0,75.55,475.49Z" class="colorfdd247 svgShape"/><rect width="84.4" height="67.24" x="704.87" y="438.96" fill="#8fb1e3" rx="5.79" transform="rotate(180 747.065 472.585)" class="color8fb1e3 svgShape"/><rect width="84.4" height="67.24" x="708.96" y="438.96" fill="#bfd5f7" rx="5.79" transform="rotate(180 751.155 472.585)" class="colorbfd5f7 svgShape"/><rect width="51.24" height="72.4" x="725.53" y="434.39" fill="#273c75" transform="rotate(90 751.155 470.585)" class="color273c75 svgShape"/><path fill="#bfd5f7" d="M749.64,500.07v6.13h80.52a3.07,3.07,0,0,0,3.07-3.06h0a3.07,3.07,0,0,0-3.07-3.07Z" class="colorbfd5f7 svgShape"/><path fill="#8fb1e3" d="M749.64,500.07v6.13H709.28a3.06,3.06,0,0,1-3.07-3.06h0a3.06,3.06,0,0,1,3.07-3.07Z" class="color8fb1e3 svgShape"/><polygon fill="#8fb1e3" points="725.45 496.2 818.73 496.2 821.73 500.07 722.45 500.07 725.45 496.2" class="color8fb1e3 svgShape"/><path fill="#ffffff" d="M742.39 468.54c-2 0-2.29-1.54-2.6-3-.36-1.72-.73-3.51-3.48-3.51a.21.21 0 01-.22-.21.22.22 0 01.22-.22c3.11 0 3.55 2.13 3.91 3.85.31 1.51.56 2.7 2.17 2.7a.22.22 0 01.22.22A.21.21 0 01742.39 468.54zM736.31 479.56a.22.22 0 110-.44c2.75 0 3.12-1.78 3.48-3.5.31-1.5.63-3.05 2.6-3.05a.22.22 0 010 .44c-1.61 0-1.86 1.19-2.17 2.7C739.86 477.42 739.42 479.56 736.31 479.56zM759.92 468.54a.21.21 0 01-.22-.21.22.22 0 01.22-.22c1.61 0 1.86-1.19 2.17-2.7.36-1.72.8-3.85 3.91-3.85a.22.22 0 01.22.22.21.21 0 01-.22.21c-2.75 0-3.12 1.79-3.48 3.51C762.21 467 761.89 468.54 759.92 468.54zM766 479.56c-3.11 0-3.55-2.14-3.91-3.85-.31-1.51-.56-2.7-2.17-2.7a.22.22 0 110-.44c2 0 2.29 1.55 2.6 3.05.36 1.72.73 3.5 3.48 3.5a.22.22 0 110 .44z" class="colorfff svgShape"/><rect width="17.46" height="4.51" x="718.85" y="459.52" fill="#ffffff" rx=".83" class="colorfff svgShape"/><rect width="17.46" height="4.51" x="718.85" y="477.08" fill="#63d3ff" rx=".83" class="color63d3ff svgShape"/><rect width="17.46" height="4.51" x="766" y="459.52" fill="#63d3ff" rx=".83" transform="rotate(180 774.73 461.775)" class="color63d3ff svgShape"/><rect width="17.46" height="4.51" x="766" y="477.08" fill="#ffffff" rx=".83" transform="rotate(180 774.73 479.34)" class="colorfff svgShape"/><path fill="#ffffff" d="M768.66,470.89H733.72a.22.22,0,0,1-.22-.22.21.21,0,0,1,.22-.21h34.94a.21.21,0,0,1,.22.21A.22.22,0,0,1,768.66,470.89Z" class="colorfff svgShape"/><rect width="17.46" height="6.21" x="742.46" y="467.48" fill="#ffffff" class="colorfff svgShape"/><circle cx="730.66" cy="470.67" r="3.06" fill="#63d3ff" class="color63d3ff svgShape"/><path fill="#ffffff" d="M771.72,467.43a3.06,3.06,0,1,0,3.06,3.06A3.06,3.06,0,0,0,771.72,467.43Z" class="colorfff svgShape"/><rect width="17.46" height="4.51" x="737.32" y="451.9" fill="#ffffff" rx=".83" class="colorfff svgShape"/><rect width=".44" height="12.8" x="748.54" y="455.46" fill="#ffffff" transform="rotate(-17.89 748.687 461.832)" class="colorfff svgShape"/><rect width="17.46" height="4.51" x="747.6" y="484.75" fill="#ffffff" rx=".83" transform="rotate(180 756.33 487.005)" class="colorfff svgShape"/><rect width=".44" height="12.8" x="753.4" y="472.9" fill="#ffffff" transform="rotate(-17.89 753.528 479.261)" class="colorfff svgShape"/><polygon fill="#f5916e" points="848.7 426.94 881.84 426.94 875.99 379.19 847.06 382.74 848.7 426.94" class="colorf5916e svgShape"/><path fill="#f5916e" d="M831,382.19l-2.67,14a2.43,2.43,0,0,0,2.69,2.87l1.81-.22Z" class="colorf5916e svgShape"/><path fill="#ffa686" d="M830.35,361.18l36.35-4.45a8.49,8.49,0,0,1,9.46,7.39l2.4,19.58c.44,3.58.31,7.2-.52,9.5L855.43,396c1.39,10.63-1.51,24.18-12.9,24.18-6.23,0-8-7.54-9-15.75l-5-40.9A2.08,2.08,0,0,1,830.35,361.18Z" class="colorffa686 svgShape"/><path fill="#f5916e" d="M835.72,409a1.47,1.47,0,0,1-1.15-.54,1.49,1.49,0,0,1,.19-2.11l2.51-2.08a1.5,1.5,0,0,1,1.92,2.31l-2.51,2.08A1.5,1.5,0,0,1,835.72,409Z" class="colorf5916e svgShape"/><path fill="#ffffff" d="M845.56,426.94h39.28l-1.15-4.87a4.66,4.66,0,0,0-4.52-3.58h-25.9a6.8,6.8,0,0,0-6.44,4.64Z" class="colorfff svgShape"/><path fill="#5e3927" d="M828.83,380.11l6.81,1.42a2,2,0,0,0,2.29-1.51h0a1.93,1.93,0,0,0-1.5-2.29l-6.81-1.42a1.93,1.93,0,0,0-2.29,1.51h0A1.94,1.94,0,0,0,828.83,380.11Z" class="color5e3927 svgShape"/><path fill="#5b2d15" d="M830.6,387.11a2.94,2.94,0,1,0,2.56-3.28A2.94,2.94,0,0,0,830.6,387.11Z" class="color5b2d15 svgShape"/><path fill="#fffefb" d="M831.18,386.23a1.46,1.46,0,1,0,1.27-1.62A1.45,1.45,0,0,0,831.18,386.23Z" class="colorfffefb svgShape"/><path fill="#fdc957" d="M838.27,345.86l23.92-2.93a6.94,6.94,0,0,1,7.75,6.06l1.13,9.22-43,5.26a7,7,0,0,1-7.75-6.06L818.6,343C822.89,346.31,830.41,346.82,838.27,345.86Z" class="colorfdc957 svgShape"/><path fill="#fdc957" d="M870.65,346.32a8.49,8.49,0,0,1,9.47,7.4l3.64,29.68s-5,14-4.35,23.73L867.27,407c-7,0-11.13-5.29-11.84-11.07l-5.77-47.08Z" class="colorfdc957 svgShape"/><path fill="#fdc957" d="M855.22,387.57h0l-3.31-27-6.35,4.83,1.92,16.14A6.94,6.94,0,0,0,855.22,387.57Z" class="colorfdc957 svgShape"/><path fill="#ffa686" d="M854.47,396.09l2-.25a7.42,7.42,0,0,0,6.39-7.56l-.09-2.34a6.12,6.12,0,0,0-7-5.92h0a2.22,2.22,0,0,0-2,2.3Z" class="colorffa686 svgShape"/><path fill="#f5916e" d="M854.48,391.17l.89-.11a3.27,3.27,0,0,0,2.82-3.33l0-1a2.7,2.7,0,0,0-3.07-2.61l-.9.11Z" class="colorf5916e svgShape"/><path fill="#fdc957" d="M880.81,339c-3.88,3.16-5.74,7.63-4.72,14l-6.94-6.46C871.26,342,875.38,339.77,880.81,339Z" class="colorfdc957 svgShape"/><path fill="#5352ec" d="M833.25,648.74l2.44-2.43a2.79,2.79,0,0,1,2-.82h6.94a2.79,2.79,0,0,1,2.79,2.79h10.88a2.79,2.79,0,0,1,2.79,2.79v11.72H816.89v-3.56a5.45,5.45,0,0,1,3.88-5.21Z" class="color5352ec svgShape"/><rect width="20.98" height="13.15" x="837.93" y="635.67" fill="#f5916e" transform="rotate(180 848.42 642.245)" class="colorf5916e svgShape"/><rect width="44.17" height="5.03" x="816.89" y="662.79" fill="#222b54" transform="rotate(180 838.975 665.305)" class="color222b54 svgShape"/><polygon fill="#30336b" points="860.17 621.65 859.77 637.43 836.65 637.43 836.65 621.65 860.17 621.65" class="color30336b svgShape"/><path fill="#30336b" d="M863.59,552.37l-1.45,72.51a2.12,2.12,0,0,1-2.11,2.06H836.85a2.11,2.11,0,0,1-2.11-2.11V552a14.43,14.43,0,0,1,14.43-14.43h0A14.43,14.43,0,0,1,863.59,552.37Z" class="color30336b svgShape"/><path fill="#4a49d1" d="M880.46,501.5a12.93,12.93,0,0,0,20.64-7.69l10.18-51.42a12.94,12.94,0,1,0-25.38-5l-10.17,51.42A12.94,12.94,0,0,0,880.46,501.5Z" class="color4a49d1 svgShape"/><rect width="13.71" height="15.78" x="837.99" y="483.41" fill="#ffa686" class="colorffa686 svgShape"/><path fill="#4a49d1" d="M888.22,478.37a12.93,12.93,0,0,1,12.92,13.56,13.17,13.17,0,0,1-13.29,12.3H854.4a2.7,2.7,0,0,1-2.7-2.7V481.07a2.7,2.7,0,0,1,2.7-2.7Z" class="color4a49d1 svgShape"/><rect width="5.22" height="20.6" x="846.48" y="481" fill="#e3e3e3" transform="rotate(180 849.085 491.3)" class="colore3e3e3 svgShape"/><path fill="#ffa686" d="M819.94,481.85h16.11a8.51,8.51,0,0,1,8.51,8.51v1.71c0,4.38-2.19,8.47-7.69,8.47h0c-7.11,0-13.28-4.1-20.17-9.41l0-6A3.27,3.27,0,0,1,819.94,481.85Z" class="colorffa686 svgShape"/><path fill="#ffa686" d="M828.22,504.24a2.89,2.89,0,0,1-.91-.15,3,3,0,0,1-1.95-3.77l3.71-11.59a3,3,0,1,1,5.71,1.82l-3.7,11.6A3,3,0,0,1,828.22,504.24Z" class="colorffa686 svgShape"/><path fill="#ffa686" d="M824.42,504.24a2.89,2.89,0,0,1-.91-.15,3,3,0,0,1-1.94-3.77l3.7-11.59a3,3,0,1,1,5.72,1.82l-3.71,11.6A3,3,0,0,1,824.42,504.24Z" class="colorffa686 svgShape"/><path fill="#ffa686" d="M820.63 504.24a3 3 0 01-.92-.15 3 3 0 01-1.94-3.77l3.7-11.59a3 3 0 115.72 1.82l-3.71 11.6A3 3 0 01820.63 504.24zM813.39 504.24a3 3 0 01-2.86-3.92l5.14-16.08a3 3 0 115.72 1.82l-5.14 16.09A3 3 0 01813.39 504.24z" class="colorffa686 svgShape"/><path fill="#5352ec" d="M733.7,648.74l2.43-2.43a2.81,2.81,0,0,1,2-.82H745a2.79,2.79,0,0,1,2.79,2.79h13.89a2.79,2.79,0,0,1,2.79,2.79v11.72H713.33v-3.56a5.45,5.45,0,0,1,3.88-5.21l15.31-4.58A2.73,2.73,0,0,0,733.7,648.74Z" class="color5352ec svgShape"/><polygon fill="#f5916e" points="740.14 651.63 762.28 651.63 766.49 639.17 746.61 632.46 740.14 651.63" class="colorf5916e svgShape"/><polygon fill="#30336b" points="772.17 626.29 766.75 641.11 744.84 633.71 749.88 618.77 772.17 626.29" class="color30336b svgShape"/><path fill="#30336b" d="M798.18,562,773,630a2.1,2.1,0,0,1-2.66,1.27l-22-7.41a2.11,2.11,0,0,1-1.32-2.67L771,552.39a14.42,14.42,0,0,1,18.28-9.06h0A14.43,14.43,0,0,1,798.18,562Z" class="color30336b svgShape"/><rect width="51.17" height="5.03" x="713.33" y="662.79" fill="#222b54" transform="rotate(180 738.92 665.305)" class="color222b54 svgShape"/><path fill="#30336b" d="M856.46,542.57v31.75H785.17a15.88,15.88,0,0,1-15.88-15.87h0a15.88,15.88,0,0,1,15.88-15.88Z" class="color30336b svgShape"/><path fill="#30336b" d="M837.67,531.74h40.65a12.87,12.87,0,0,1,12.87,12.87v29.71a0,0,0,0,1,0,0H824.8a0,0,0,0,1,0,0V544.61A12.87,12.87,0,0,1,837.67,531.74Z" transform="rotate(180 858 553.03)" class="color30336b svgShape"/><rect width="66.39" height="6.53" x="824.8" y="531.71" fill="#23264f" transform="rotate(180 858 534.975)" class="color23264f svgShape"/><path fill="#5352ec" d="M824.8,531.74h66.39a5.28,5.28,0,0,0,5.29-5.28V480.29L907.62,440c1.81-6.06-2.22-13.1-8.54-13.1H829.76a10.25,10.25,0,0,0-10.24,10.24v89.28A5.28,5.28,0,0,0,824.8,531.74Z" class="color5352ec svgShape"/><path fill="#f5916e" d="M758.69,497.6a3,3,0,0,0,2.68-1.66l4.82-9.64h2.61a3,3,0,0,0,0-6h-4.46a3,3,0,0,0-2.68,1.66L756,493.26a3,3,0,0,0,2.69,4.34Z" class="colorf5916e svgShape"/><path fill="#f5916e" d="M752.47,497.6a3,3,0,0,0,2.69-1.66L760,486.3h7.61a3,3,0,0,0,0-6h-9.46a3,3,0,0,0-2.68,1.66l-5.66,11.3a3,3,0,0,0,1.34,4A2.93,2.93,0,0,0,752.47,497.6Z" class="colorf5916e svgShape"/><path fill="#f5916e" d="M746.26,497.6a3,3,0,0,0,2.69-1.66l4.82-9.64h7.61a3,3,0,0,0,0-6h-9.46a3,3,0,0,0-2.68,1.66l-5.66,11.3a3,3,0,0,0,1.34,4A3,3,0,0,0,746.26,497.6Z" class="colorf5916e svgShape"/><path fill="#ffa686" d="M740.05,497.6a3,3,0,0,0,2.69-1.66l4.82-9.64h7.61a3,3,0,0,0,0-6h-9.46A3,3,0,0,0,743,482l-5.66,11.3a3,3,0,0,0,1.34,4A3,3,0,0,0,740.05,497.6Z" class="colorffa686 svgShape"/><path fill="#ffa686" d="M755.65,480.31H768a7.79,7.79,0,0,1,7.8,7.79v2a7.8,7.8,0,0,1-7.8,7.79H755.66a7.8,7.8,0,0,1-7.79-7.78v-2A7.78,7.78,0,0,1,755.65,480.31Z" class="colorffa686 svgShape"/><path fill="#6665ee" d="M812.46,502a12.92,12.92,0,0,0,12.09-8.34l18.61-49A12.93,12.93,0,0,0,819,435.49l-18.61,49A12.93,12.93,0,0,0,812.46,502Z" class="color6665ee svgShape"/><path fill="#6665ee" d="M813.34,476.16a12.93,12.93,0,0,1,12.92,13.56A13.17,13.17,0,0,1,813,502H779.52a2.7,2.7,0,0,1-2.7-2.7V478.86a2.7,2.7,0,0,1,2.7-2.7Z" class="color6665ee svgShape"/><path fill="#f5916e" d="M771,481.2h5.82V497H771a7.89,7.89,0,0,1-7.89-7.89h0A7.89,7.89,0,0,1,771,481.2Z" class="colorf5916e svgShape"/><rect width="5.22" height="20.6" x="771.6" y="478.79" fill="#e3e3e3" transform="rotate(180 774.21 489.09)" class="colore3e3e3 svgShape"/><circle cx="894.15" cy="660.11" r="7.71" fill="#9bb1d4" transform="rotate(-76.72 894.114 660.109)" class="color9bb1d4 svgShape"/><circle cx="823.44" cy="660.11" r="7.71" fill="#9bb1d4" transform="rotate(-45 823.437 660.111)" class="color9bb1d4 svgShape"/><rect width="13.5" height="72.01" x="852.05" y="583.91" fill="#bfd5f7" class="colorbfd5f7 svgShape"/><path fill="#bfd5f7" d="M815.73,657.59h0a5.19,5.19,0,0,1,5.19-5.19h75.76a5.18,5.18,0,0,1,5.18,5.19h0a5.18,5.18,0,0,1-5.18,5.18H820.92A5.18,5.18,0,0,1,815.73,657.59Z" class="colorbfd5f7 svgShape"/><polygon fill="#9bb1d4" points="865.55 591.65 852.05 591.65 844.66 583.91 872.94 583.91 865.55 591.65" class="color9bb1d4 svgShape"/><polygon fill="#9bb1d4" points="865.55 644.65 852.05 644.65 844.66 652.4 872.94 652.4 865.55 644.65" class="color9bb1d4 svgShape"/><rect width="95" height="57.06" x="829.72" y="454.97" fill="#f7a60f" rx="14.58" class="colorf7a60f svgShape"/><path fill="#f7a60f" d="M909,583.91H808.63a9.84,9.84,0,0,1-9.83-9.84h0a9.83,9.83,0,0,1,9.83-9.83H909a9.84,9.84,0,0,1,9.84,9.83h0A9.85,9.85,0,0,1,909,583.91Z" class="colorf7a60f svgShape"/><rect width="76.45" height="12.53" x="837.35" y="564.24" fill="#fdd247" rx="6.26" class="colorfdd247 svgShape"/><rect width="13.5" height="52.21" x="871.47" y="512.02" fill="#bfd5f7" class="colorbfd5f7 svgShape"/><path fill="#fdd247" d="M914.45,475.49H850.54a6.27,6.27,0,0,1-6.27-6.26h0a6.27,6.27,0,0,1,6.27-6.26h63.91a6.27,6.27,0,0,1,6.27,6.26h0A6.27,6.27,0,0,1,914.45,475.49Z" class="colorfdd247 svgShape"/><rect width="176.37" height="111.89" x="53.9" y="159" fill="#48dafa" rx="40.57" class="color48dafa svgShape"/><path fill="#ffffff" d="M200.82,210.34a3,3,0,0,1-1.63-.49l-11.75-7.61a18.67,18.67,0,0,0-20.23,0,24.64,24.64,0,0,1-26.76,0,18.63,18.63,0,0,0-20.23,0,24.65,24.65,0,0,1-26.75,0l-11.75-7.61a3,3,0,0,1,3.26-5l11.75,7.61a18.63,18.63,0,0,0,20.23,0,24.65,24.65,0,0,1,26.75,0,18.65,18.65,0,0,0,20.24,0,24.65,24.65,0,0,1,26.75,0l11.75,7.61a3,3,0,0,1-1.63,5.52Z" class="colorfff svgShape"/><path fill="#ffffff" d="M200.82,225.55a3,3,0,0,1-1.63-.48l-11.75-7.61a18.63,18.63,0,0,0-20.23,0,24.66,24.66,0,0,1-26.76,0,18.63,18.63,0,0,0-20.23,0,24.65,24.65,0,0,1-26.75,0l-11.75-7.61a3,3,0,1,1,3.26-5l11.75,7.6a18.63,18.63,0,0,0,20.23,0,24.65,24.65,0,0,1,26.75,0,18.67,18.67,0,0,0,20.24,0,24.63,24.63,0,0,1,26.75,0L202.45,220a3,3,0,0,1-1.63,5.52Z" class="colorfff svgShape"/><path fill="#ffffff" d="M200.82,240.77a3,3,0,0,1-1.63-.49l-11.75-7.61a18.67,18.67,0,0,0-20.23,0,24.64,24.64,0,0,1-26.76,0,18.63,18.63,0,0,0-20.23,0,24.65,24.65,0,0,1-26.75,0l-11.75-7.61A3,3,0,0,1,85,220l11.75,7.61a18.63,18.63,0,0,0,20.23,0,24.65,24.65,0,0,1,26.75,0,18.65,18.65,0,0,0,20.24,0,24.65,24.65,0,0,1,26.75,0l11.75,7.61a3,3,0,0,1-1.63,5.52Z" class="colorfff svgShape"/><rect width="75.11" height="110.77" x="275.15" y="106.62" fill="#7590a2" rx="37.56" class="color7590a2 svgShape"/><rect width="170.83" height="139.49" x="391.69" y="92.26" fill="#fdc957" rx="37.56" class="colorfdc957 svgShape"/><rect width="92.64" height="130.51" x="618.05" y="102.07" fill="#fe9ef2" rx="17.1" class="colorfe9ef2 svgShape"/><circle cx="909.29" cy="265.43" r="61.52" fill="#d5dbe3" class="colord5dbe3 svgShape"/><path fill="#e3e3e3" d="M909.29,225a40.42,40.42,0,1,0,40.42,40.42A40.46,40.46,0,0,0,909.29,225Zm34.28,37.42h-9.38c-.46-10.76-3.42-20.22-8-27A34.5,34.5,0,0,1,943.57,262.43Zm-37.28-31v31h-15.9C891.17,246.93,897.9,234,906.29,231.47Zm0,37v31c-8.39-2.53-15.12-15.46-15.9-31Zm6,31v-31h15.9C927.41,283.93,920.67,296.86,912.29,299.39Zm0-37v-31c8.38,2.53,15.12,15.46,15.9,31Zm-19.94-27c-4.55,6.73-7.5,16.19-8,27H875A34.48,34.48,0,0,1,892.35,235.48Zm-17.35,33h9.38c.47,10.75,3.42,20.22,8,26.94A34.47,34.47,0,0,1,875,268.43Zm51.23,26.94c4.54-6.72,7.5-16.19,8-26.94h9.38A34.48,34.48,0,0,1,926.23,295.37Z" class="colore3e3e3 svgShape"/><rect width="203.82" height="126.15" x="733.21" y="115.45" fill="#70a0fe" rx="37.56" class="color70a0fe svgShape"/><rect width="78.98" height="78.98" x="191.7" y="225.94" fill="#ff4fa3" rx="17.18" class="colorff4fa3 svgShape"/><path fill="#686ddf" d="M397.32,263.34h0a30.76,30.76,0,0,1-30.76-30.75h0a30.76,30.76,0,0,1,30.76-30.76h0a30.76,30.76,0,0,1,30.76,30.76h0A30.76,30.76,0,0,1,397.32,263.34Z" class="color686ddf svgShape"/><rect width="55.73" height="55.73" x="581.57" y="212.82" fill="#df56fc" rx="11.99" class="colordf56fc svgShape"/><path fill="#7ed5de" d="M946.51,195.71H836.3a17.18,17.18,0,0,1-17.18-17.18h0a17.18,17.18,0,0,1,17.18-17.18H946.51a17.18,17.18,0,0,1,17.18,17.18h0A17.18,17.18,0,0,1,946.51,195.71Z" class="color7ed5de svgShape"/><path fill="#70a0fe" d="M807.23,379.46a2.54,2.54,0,0,1-1.85-.81c-38.93-42.55-46.23-97.66-20-151.2a2.5,2.5,0,1,1,4.49,2.2c-25.27,51.59-18.26,104.67,19.21,145.62a2.5,2.5,0,0,1-1.84,4.19Z" class="color70a0fe svgShape"/><path fill="#fdc957" d="M527.39,336.78a2.46,2.46,0,0,1-1.57-.56,2.51,2.51,0,0,1-.37-3.52c20.9-25.79,25-62.7,12.68-112.85a2.5,2.5,0,0,1,4.86-1.19c12.76,51.76,8.3,90.1-13.66,117.19A2.48,2.48,0,0,1,527.39,336.78Z" class="colorfdc957 svgShape"/><path fill="#df56fc" d="M588,321.28a2.5,2.5,0,0,1-2.49-2.32c-1.77-25-.25-44.41,12.76-69.55a2.5,2.5,0,1,1,4.44,2.29c-12.47,24.11-13.92,42.79-12.21,66.91a2.5,2.5,0,0,1-2.32,2.67Z" class="colordf56fc svgShape"/><path fill="#7590a2" d="M337.59,315a2.49,2.49,0,0,1-2.5-2.5c0-24.27-6.47-34.52-13.32-45.38-8.33-13.21-16.94-26.86-12.46-65.62a2.5,2.5,0,1,1,5,.57c-4.28,37,3.5,49.33,11.73,62.38,6.93,11,14.09,22.34,14.09,48.05A2.49,2.49,0,0,1,337.59,315Z" class="color7590a2 svgShape"/><path fill="#ff4fa3" d="M181.48,394.55a2.5,2.5,0,1,1,0-5c19.24,0,33.82-9.55,43.36-28.38,10-19.77,12.1-44.86,12.1-62.42a2.5,2.5,0,0,1,5,0c0,18.11-2.19,44-12.64,64.68S202.76,394.55,181.48,394.55Z" class="colorff4fa3 svgShape"/><rect width="130.19" height="67.8" x="450.77" y="58.82" fill="#549ffe" rx="16.23" class="color549ffe svgShape"/><path fill="#ffffff" d="M485.55 71.09a21.63 21.63 0 1021.63 21.63A21.63 21.63 0 00485.55 71.09zm-15 17.73a4.57 4.57 0 114.57 4.57A4.58 4.58 0 01470.53 88.82zm15 18.88c-5.06 0-9.44-4-11.64-9.85h23.28C495 103.71 490.6 107.7 485.55 107.7zM496 93.39a4.57 4.57 0 114.57-4.57A4.57 4.57 0 01496 93.39zM387.48 225.88H380a1.25 1.25 0 00-1.26 1.25v17a1.25 1.25 0 001.26 1.25H388a1.25 1.25 0 001.25-1.25V225.87zM415.21 227.43a3.18 3.18 0 00-2-1.15 1.15 1.15 0 00-.37-.06h-8.76c2.24-4 3-7.16 2.37-9.69a6.85 6.85 0 00-3.38-4.32 1.26 1.26 0 00-1.76.52 63.5 63.5 0 01-7 11.34l-3 2.14v17.31a16.3 16.3 0 004 2.33 16.74 16.74 0 006.44 1.28h8.68a1.16 1.16 0 00.42-.07 4 4 0 003.18-3.3 3.33 3.33 0 00-.52-2.34 3.91 3.91 0 001.17-2.26 3.3 3.3 0 00-.53-2.35 3.92 3.92 0 001.18-2.25 3.25 3.25 0 00-.53-2.35 3.94 3.94 0 001.19-2.25A3.26 3.26 0 00415.21 227.43zM846.92 172a6.52 6.52 0 106.51 6.52A6.52 6.52 0 00846.92 172zm22.24 0a6.52 6.52 0 106.51 6.52A6.52 6.52 0 00869.16 172zm22.24 0a6.52 6.52 0 106.52 6.52A6.52 6.52 0 00891.4 172zm22.25 0a6.52 6.52 0 106.51 6.52A6.52 6.52 0 00913.65 172zm22.24 0a6.52 6.52 0 106.52 6.52A6.51 6.51 0 00935.89 172zM526 143H428.18a3 3 0 010-6H526a3 3 0 010 6zM526 159H428.18a3 3 0 010-6H526a3 3 0 010 6zM526 175H428.18a3 3 0 010-6H526a3 3 0 010 6zM476 191H428.18a3 3 0 010-6H476a3 3 0 010 6zM690 189.86H638.78a3 3 0 010-6H690a3 3 0 010 6zM690 202.45H638.78a3 3 0 010-6H690a3 3 0 010 6zM680 215H648.78a3 3 0 010-6H680a3 3 0 010 6zM565.1 89.73H517.25a3 3 0 010-6H565.1a3 3 0 010 6zM545.1 101.71H517.25a3 3 0 010-6H545.1a3 3 0 010 6zM616.91 226a10.34 10.34 0 00-7.47 3.19 10.37 10.37 0 00-17.85 7.18c0 7.4 3.51 9.67 8.65 14 2.69 2.29 7 5 9.2 5s6.5-2.72 9.2-5c5.13-4.36 8.64-6.63 8.64-14A10.37 10.37 0 00616.91 226z" class="colorfff svgShape"/><path fill="#d5dbe3" d="M704.64,332.53a3.65,3.65,0,0,1-1.64-.38l-23-11.52-23.05,11.52a3.68,3.68,0,0,1-3.71-.26,3.25,3.25,0,0,1-1.4-3.27l4.4-24.39L637.55,287a3.24,3.24,0,0,1-.89-3.43,3.49,3.49,0,0,1,2.85-2.28l25.76-3.56,11.53-22.19a3.55,3.55,0,0,1,3.16-1.87h0a3.55,3.55,0,0,1,3.16,1.87l11.52,22.19,25.77,3.56a3.46,3.46,0,0,1,2.84,2.28,3.22,3.22,0,0,1-.89,3.43l-18.64,17.28,4.4,24.39a3.26,3.26,0,0,1-1.41,3.27A3.59,3.59,0,0,1,704.64,332.53Z" class="colord5dbe3 svgShape"/><path fill="#ffffff" d="M225.58 282.61a5.62 5.62 0 105.61-5.61A5.61 5.61 0 00225.58 282.61zm9.28-9.47l3.27-30.51H224.26l3.27 30.51zM778.05 144.87A25.09 25.09 0 00753 170c0 13.86 25.09 42.23 25.09 42.23s25.09-28.37 25.09-42.23A25.09 25.09 0 00778.05 144.87zm0 34.51a9.42 9.42 0 119.42-9.42A9.42 9.42 0 01778.05 179.38z" class="colorfff svgShape"/><path fill="#fe6b6b" d="M892.61 67.06H708.21a3.84 3.84 0 01-3.84-3.84h0a3.83 3.83 0 013.84-3.83h184.4a3.82 3.82 0 013.83 3.83h0A3.83 3.83 0 01892.61 67.06zM689 59.25L668 47.12a4.59 4.59 0 00-6.89 4V75.36a4.59 4.59 0 006.89 4L689 67.2A4.59 4.59 0 00689 59.25z" class="colorfe6b6b svgShape"/><circle cx="748.14" cy="63.22" r="13.16" fill="#f1f2f2" class="colorf1f2f2 svgShape"/><circle cx="748.14" cy="63.22" r="4.4" fill="#fe6b6b" class="colorfe6b6b svgShape"/><path fill="#ffffff" d="M671.31 140.22l-.1-.07a18.22 18.22 0 006.26-13.2 13.1 13.1 0 00-26.2 0 18.22 18.22 0 006.26 13.2l-.1.07c-2.41 1.63-11.07 4.41-11.53 5.18a34.58 34.58 0 00-4.61 18c0 7.73 16.14 8.56 23.08 8.56s23.07-.83 23.07-8.56a34.58 34.58 0 00-4.61-18C682.37 144.63 673.71 141.85 671.31 140.22zM308.52 165.87a5.85 5.85 0 01-4.18-1.73l-11.77-11.77a5.91 5.91 0 018.36-8.36l7.59 7.59 18-18a5.91 5.91 0 018.36 8.37L312.7 164.14A5.88 5.88 0 01308.52 165.87zM295.84 177a5.39 5.39 0 105.39 5.38A5.38 5.38 0 00295.84 177zm16.86 0a5.39 5.39 0 105.39 5.38A5.38 5.38 0 00312.7 177zm16.87 0a5.39 5.39 0 105.39 5.38A5.38 5.38 0 00329.57 177z" class="colorfff svgShape"/><path fill="#d5dbe3" d="M395.54 343.28a9.32 9.32 0 119.31-9.31A9.33 9.33 0 01395.54 343.28zm15.13-23.73a4.13 4.13 0 01-2.95-1.22 17.21 17.21 0 00-24.36 0 4.18 4.18 0 01-5.91-5.91 25.59 25.59 0 0136.18 0 4.18 4.18 0 01-3 7.13zm-39.46-9.19a4.18 4.18 0 01-4.18-4.18 4.11 4.11 0 011.22-2.95 38.57 38.57 0 0154.57 0 4.18 4.18 0 01-2.95 7.13 4.12 4.12 0 01-2.95-1.23 30.25 30.25 0 00-42.76 0A4.15 4.15 0 01371.21 310.36zm57.86-9.2a4.19 4.19 0 01-3-1.22 43.23 43.23 0 00-61.15 0 4.18 4.18 0 11-5.9-5.91 51.59 51.59 0 0173 0 4.18 4.18 0 01-2.95 7.13zM59.51 111.18H39.79v24.37H29.2L49.65 156l20.46-20.46H59.51zm17.11-27.7L56.16 103.93h10.6v24.38H86.48V103.93H97.07z" class="colord5dbe3 svgShape"/><circle cx="160.24" cy="77.08" r="54.58" fill="#d5dbe3" transform="rotate(-45 160.237 77.078)" class="colord5dbe3 svgShape"/><path fill="#e3e3e3" d="M172.69,72.91l4.82-6.42-4.85-4.85-6.42,4.82a24.09,24.09,0,0,0-9-3.72l-1.14-8h-6.86l-1.13,8a24.13,24.13,0,0,0-9,3.72l-6.42-4.82-4.85,4.85,4.82,6.42a24,24,0,0,0-3.72,9L121,83V89.9L129,91a24,24,0,0,0,3.72,9l-4.82,6.43,4.85,4.85,6.42-4.82a24.13,24.13,0,0,0,9,3.72l1.13,8h6.86l1.14-8a23.91,23.91,0,0,0,9-3.71l6.42,4.82,4.85-4.85L172.69,100a24,24,0,0,0,3.72-9l8-1.13V83l-8-1.14A24,24,0,0,0,172.69,72.91ZM161.91,88A9.35,9.35,0,1,1,151.2,77.24,9.39,9.39,0,0,1,161.91,88ZM195.48,51.6V48.17l-4-.57a11.87,11.87,0,0,0-1.86-4.5l2.41-3.21-2.42-2.42-3.21,2.41a11.94,11.94,0,0,0-4.5-1.86l-.57-4h-3.43l-.56,4a11.87,11.87,0,0,0-4.5,1.86l-3.21-2.41-2.43,2.42,2.41,3.21a12.2,12.2,0,0,0-1.86,4.5l-4,.57V51.6l4,.56a12.2,12.2,0,0,0,1.86,4.5l-2.41,3.21,2.43,2.43,3.21-2.41a12,12,0,0,0,4.5,1.85l.56,4h3.43l.57-4a12.08,12.08,0,0,0,4.5-1.85l3.21,2.41,2.42-2.43-2.41-3.21a11.87,11.87,0,0,0,1.86-4.5ZM184.17,51a4.61,4.61,0,0,1-3.37,3.37,4.68,4.68,0,0,1-5.69-5.69,4.61,4.61,0,0,1,3.37-3.37A4.68,4.68,0,0,1,184.17,51Z" class="colore3e3e3 svgShape"/><path fill="#70a0fe" d="M240.37,119.6c-5.45-3.14-14.28-3.14-19.73,0-2.72,1.58-4.09,3.64-4.09,5.7l.6,9.19h0c.06,1.74,1.09,3.68,2.55,6,.76,1.19,1.29,2.73,3.12,3.79a12.72,12.72,0,0,0,2.34,1,5.65,5.65,0,0,0,10.69,0,12.62,12.62,0,0,0,2.33-1c1.84-1.06,2.37-2.6,3.12-3.79,1.42-2.22,2.43-4.12,2.54-5.81h0l.6-9.35C244.46,123.24,243.09,121.18,240.37,119.6Z" class="color70a0fe svgShape"/><path fill="#fdc957" d="M255.23,97.27a24.72,24.72,0,1,0-40.75,18.82,22.06,22.06,0,0,1,4.83,6c.94,1.67,3,3.17,6.29,4.09a18.12,18.12,0,0,0,9.8,0c3.17-.89,5.24-2.34,6.22-3.95a34.06,34.06,0,0,1,5.87-7A24.66,24.66,0,0,0,255.23,97.27Z" class="colorfdc957 svgShape"/><path fill="#fcee21" d="M237.18,87.65a5,5,0,0,0-5,5V96h-3.27V92.7a5,5,0,1,0-10.09,0V93a5,5,0,0,0,5,5h3.06v21.2a1,1,0,0,0,2,0V98h3.27v21.2a1,1,0,0,0,2,0V98h3.05a5,5,0,0,0,5-5V92.7A5,5,0,0,0,237.18,87.65ZM226.88,96h-3.06a3.06,3.06,0,0,1-3-3V92.7a3.06,3.06,0,1,1,6.11,0Zm13.36-3a3.06,3.06,0,0,1-3.06,3h-3.05V92.7a3.06,3.06,0,1,1,6.11,0Z" class="colorfcee21 svgShape"/><path fill="#fdc957" d="M230.5,48.87a2,2,0,0,0-2,2V61.09a2,2,0,1,0,4,0V50.87A2,2,0,0,0,230.5,48.87Zm-21.66,7.27a2,2,0,0,0-3.47,2L210.48,67a2,2,0,0,0,1.74,1,2,2,0,0,0,1-.27A2,2,0,0,0,214,65Zm-9,21.51L191,72.54A2,2,0,0,0,189,76l8.85,5.11a2,2,0,0,0,1,.26,2,2,0,0,0,1-3.73Zm-3.9,20a2,2,0,0,0-2-2H183.7a2,2,0,0,0,0,4h10.22A2,2,0,0,0,195.92,97.67Zm1.9,16.56L189,119.34a2,2,0,0,0-.73,2.74,2,2,0,0,0,2.73.73l8.85-5.11a2,2,0,1,0-2-3.47ZM272,119.34l-8.86-5.11a2,2,0,0,0-2,3.47l8.86,5.11a2,2,0,0,0,1,.27,2,2,0,0,0,1-3.74Zm5.27-23.67H267.09a2,2,0,0,0,0,4h10.22a2,2,0,0,0,0-4ZM262.19,81.38a2,2,0,0,0,1-.26L272,76a2,2,0,0,0-2-3.47l-8.86,5.11a2,2,0,0,0-.73,2.73A2,2,0,0,0,262.19,81.38Zm-7.28-26a2,2,0,0,0-2.74.73L247.06,65a2,2,0,1,0,3.47,2l5.11-8.85A2,2,0,0,0,254.91,55.41Z" class="colorfdc957 svgShape"/></g></svg>