<svg id="SvgjsSvg1001" width="256" height="256" xmlns="http://www.w3.org/2000/svg" version="1.1"
    xmlns:xlink="http://www.w3.org/1999/xlink" xmlns:svgjs="http://svgjs.com/svgjs">
    <defs id="SvgjsDefs1002"></defs>
    <g id="SvgjsG1008"><svg xmlns="http://www.w3.org/2000/svg" fill-rule="evenodd" clip-rule="evenodd"
            image-rendering="optimizeQuality" shape-rendering="geometricPrecision" text-rendering="geometricPrecision"
            viewBox="0 0 1707 1707" width="256" height="256">
            <path fill="#838383"
                d="M1363 1008c-3,0 -4,-7 -7,-8 -4,-2 -9,1 -11,-3 -8,5 -15,-12 -27,-11 -11,2 -27,23 -32,21 -114,-46 -80,-217 42,-217 117,0 161,163 42,217 -2,1 -5,1 -7,1z"
                class="color838383 svgShape"></path>
            <path fill="#222424"
                d="M1275 1294l-996 0c-26,0 -26,-40 0,-40l996 0c26,0 26,40 0,40zm-1129 -258c-11,0 -20,-9 -20,-20l0 -980c0,-11 9,-20 20,-20l1182 0c11,0 20,9 20,20l0 701c0,26 -40,26 -40,0l0 -681 -1142 0 0 960c0,11 -9,20 -20,20z"
                class="color222424 svgShape"></path>
            <path fill="#222424" d="M1328 255l-1182 0c-26,0 -26,-40 0,-40l1182 0c27,0 27,40 0,40z"
                class="color222424 svgShape"></path>
            <path fill="#838383"
                d="M371 155l-104 0c-26 0-26-40 0-40l104 0c26 0 26 40 0 40zM591 155l-103 0c-26 0-26-40 0-40l103 0c27 0 27 40 0 40zM812 155l-103 0c-27 0-27-40 0-40l103 0c26 0 26 40 0 40z"
                class="color838383 svgShape"></path>
            <path fill="#222424"
                d="M1489 1690c-142,0 -252,-157 -344,-250 -77,-78 33,-185 110,-112l0 -299c0,-41 33,-74 73,-74 41,0 74,33 74,74l0 210c0,26 -40,26 -40,0l0 -210c0,-44 -67,-44 -67,0l0 348c0,17 -22,26 -34,14 -24,-25 -44,-53 -73,-46 -26,7 -43,38 -15,67 110,110 236,304 397,215 128,-70 92,-211 92,-342 0,-31 -61,-31 -61,0 0,12 3,37 -20,37 -22,0 -20,-25 -20,-37 0,-35 32,-64 71,-64 39,0 70,29 70,64 0,135 39,294 -112,377 -35,20 -69,28 -101,28z"
                class="color222424 svgShape"></path>
            <path fill="#222424"
                d="M1480 1284c-26 0-20-36-20-65 0-44-58-44-58 0 0 14 3 40-20 40-24 0-20-26-20-40 0-41 31-74 69-74 25 0 47 14 60 36 11-7 25-12 40-12 39 0 70 29 70 64l0 69c0 11-9 20-20 20-11 0-20-9-20-20l0-69c0-30-56-31-60-3 1 27 3 54-21 54zM1382 1079c-23 0-28-32-7-39 59-20 99-75 99-138 0-80-65-145-146-145-80 0-145 65-145 145 0 63 40 118 98 138 25 9 13 46-12 38-76-26-126-96-126-176 0-102 83-185 185-185 103 0 186 83 186 185 0 80-51 150-126 176-2 1-4 1-6 1zM481 732c-11 0-20-8-20-20l0-139c0-27 40-27 40 0l0 139c0 11-9 20-20 20zM652 732c-11 0-20-8-20-20l0-170c0-27 40-27 40 0l0 170c0 11-9 20-20 20zM823 732c-11 0-20-8-20-20l0-258c0-27 40-27 40 0l0 258c0 11-9 20-20 20zM994 732c-11 0-20-8-20-20l0-313c0-26 40-26 40 0l0 313c0 11-9 20-20 20z"
                class="color222424 svgShape"></path>
            <path fill="#222424"
                d="M1121 732l-767 0c-26 0-26-40 0-40l767 0c26 0 26 40 0 40zM817 926l-463 0c-26 0-26-40 0-40l463 0c26 0 26 40 0 40zM871 1028l-517 0c-26 0-26-40 0-40l517 0c26 0 26 40 0 40zM998 1129l-644 0c-26 0-26-40 0-40l644 0c27 0 27 40 0 40zM162 1456l-25 0c-75 0-137-62-137-138l0-117c0-11 9-20 20-20l259 0c11 0 20 9 20 20l0 117c0 76-62 138-137 138zm-122-235l0 97c0 54 44 98 97 98l25 0c53 0 97-44 97-98l0-97-219 0z"
                class="color222424 svgShape"></path>
            <path fill="#222424"
                d="M150 1364c-28 0-20-38-20-72 0-26 40-26 40 0 0 34 7 72-20 72zM59 1221c-11 0-20-9-20-20l0-90c0-60 50-109 110-109 101 0 138 129 91 129-11 0-20-9-20-20 0-38-31-69-70-69-39 0-71 31-71 69l0 90c0 11-9 20-20 20z"
                class="color222424 svgShape"></path>
        </svg></g>
</svg>