<?xml version="1.0" encoding="utf-8"?>
<!-- Generator: Adobe Illustrator 25.4.1, SVG Export Plug-In . SVG Version: 6.00 Build 0)  -->
<svg version="1.1" id="SvgjsSvg1001" xmlns:svgjs="http://svgjs.com/svgjs"
	 xmlns="http://www.w3.org/2000/svg" xmlns:xlink="http://www.w3.org/1999/xlink" x="0px" y="0px" viewBox="0 0 627.6 599.4"
	 style="enable-background:new 0 0 627.6 599.4;" xml:space="preserve">
<style type="text/css">
	.st0{fill:#F2FFFF;}
	.st1{fill:#866446;}
	.st2{fill:#2DCC70;}
	.st3{fill:#27AD61;}
	.st4{fill:#BF633A;}
	.st5{fill:#F08A5D;}
	.st6{fill:#D79024;}
	.st7{fill:#FFB037;}
	.st8{fill:#FFCD6C;}
	.st9{fill:#FFFFFF;}
	.st10{font-family:'MyriadPro-Regular';}
	.st11{font-size:30.2401px;}
</style>
<g id="SvgjsG1008">
	<path class="st0" d="M443,47c0,0-123.3-74.4-179.1,17c-55.8,91.4-123.4,73.5-186.8,124c-63.4,50.5-106.4,156.5-0.8,274.4
		s276,123.4,319.3,113.9c43.4-9.5,105.2-22.2,93-106.2c-12.1-84,61.9-122.9,85.3-145.7C597.4,301.6,695.6,176.9,443,47z"/>
	<path class="st1" d="M332.4,116.5c0.8,44.9,10.2,46.4,7.5,76.5c-2.7,30.1-22.6,59-32.5,76.5c-9.9,17.5-26.4,38.7-6.5,118l33-3.5
		c0,0-16.5-31.2-17.5-47s-2.7-41.3,8.5-61c11.2-19.7,27.7-44.7,27-75.5s-16.9-68.2-13-89.5c3.4-18.4,17.8-38,30-45.1
		C356.2,71.6,331.9,86.6,332.4,116.5z M368.9,65.8c3.6-1.6,6.2-2.5,7.1-2.8c-0.3,0.1-0.8,0.2-1.6,0.4
		C372.6,63.9,370.8,64.7,368.9,65.8z M376,63C376.4,62.9,376.4,62.9,376,63L376,63z"/>
	<path class="st1" d="M405.9,310.5c-3.8,7.6-17,10.4-25.5,10.5c-8.5,0.1-25-7.7-44-3.5s-23.5,15-23.5,15l4.5,14c0,0-1.5-6.2,13-17.5
		c14.5-11.3,23.6-3.8,49-4.5C404.8,323.7,409.7,302.8,405.9,310.5z M174,181.7C172.9,180.5,172.7,180.4,174,181.7L174,181.7z
		 M251.6,275.7c-6.7-3.9-13-7.1-18.2-8.7c-20.9-6.5-41.8-21.1-43-33.5c-1.2-12.4,3-35.9-12.5-48.5c-1.9-1.5-3.1-2.6-3.8-3.3
		c3.3,3.5,14,16.8,10.3,33.8c-5.5,25.7,8.9,34.3,14.5,39c5.6,4.7,91.6,57.5,95,75l1-23.5C294.9,306,271.9,287.5,251.6,275.7z
		 M410.4,161c-6-25.7,5-38.5,5-38.5l-1-2c0,0-2.8,2.3-7,17.5c-4.2,15.2,4,30.8,3.5,70s-16,47.7-31.5,61.5
		c-15.5,13.8-62,18.5-62,18.5l-2,15c0,0,35.7-9.5,54-16.5c18.3-7,37.8-26.4,45-45.5S416.3,186.7,410.4,161z M260.4,158
		c-20.4-3.1-26.8-6.9-34.3-11.1c-5.7-3.1-17.6-9.7-16.7-8.8c-10.8-10.9-8.9-39.2-8.9-39.2s-3.9,28.1,9.5,43
		c13.4,14.9,42.9,18.9,76,31c33.1,12.1,53.5,42,53.5,42l4.5-16.5C333,178.2,289.6,162.4,260.4,158z"/>
	<path class="st1" d="M457.9,151.5c0,0-7.7,9.1-15.5,17.5c-7.8,8.4-28,16.5-28,16.5l-0.5,4c29.6-12.9,44.5-35,44.5-35L457.9,151.5z"
		/>
	<path class="st2" d="M415,301.7c0-0.3-0.2-0.6-0.5-0.7c-0.2-0.2-0.6-0.2-0.9-0.2c-1,0.2-2,0.6-2.8,0.9c-1.9,0.7-3.8,1.5-5.5,2.4
		c-0.7,0.4-1.7,0.9-2.6,1.6c-0.6,0.5-1.4,1.1-1.9,1.8c0,0,0,0,0,0c-1.3,2-1.6,4.6-0.7,6.8c0.5,1.2,1.2,2.3,2.2,3.1l1.2,0.8
		c1.2,0.7,2.7,1,4.1,1c0.3,0,0.6-0.1,1-0.1c1.2-0.2,2.4-0.8,3.3-1.5c0.7-0.5,1.2-1.1,1.5-1.6c0.5-0.9,0.8-1.9,1-2.7
		c0.5-2,0.6-4.1,0.7-6C415.3,305.1,415.2,303.3,415,301.7z"/>
	<path class="st3" d="M370.5,301.9c-0.5-3.3-1.1-6.1-1.9-8.6c-0.2-0.5-0.5-0.9-1-1.1s-1-0.2-1.4,0c-1.6,0.7-3.1,1.5-4.3,2.2
		c-2.9,1.6-5.6,3.4-8.1,5.4c-1.1,0.8-2.4,1.9-3.7,3.3c-0.9,1-1.9,2.1-2.5,3.4c0,0,0,0,0,0c-1.5,3.6-1.2,7.8,0.9,11.1
		c1.1,1.8,2.6,3.3,4.4,4.3l2.1,1c2.2,0.7,4.5,0.9,6.9,0.3c0.5-0.1,1-0.3,1.5-0.5c1.9-0.7,3.6-1.9,4.9-3.4c0.9-1,1.6-2,2-3.1
		c0.6-1.5,0.8-3.2,0.9-4.6C371.3,308.4,370.9,305,370.5,301.9z"/>
	<path class="st2" d="M323.9,249.6c-0.1-0.8-0.2-1.6-0.4-2.4l0,0c-0.7-3-2.2-5.8-4.2-8.1c-1.4-1.6-2.8-2.8-4.3-3.6
		c-2.2-1.2-4.7-1.9-6.9-2.3c-5-1-10.2-1-15-1c-5.1,0.1-9.6,0.5-13.5,1.2c-0.7,0.1-1.4,0.6-1.8,1.2s-0.5,1.4-0.3,2.2
		c0.7,2.5,1.6,4.9,2.4,7c1.9,4.7,4.1,9.2,6.6,13.4c1,1.8,2.5,4.1,4.3,6.3c1.3,1.5,2.8,3.3,4.7,4.4c0,0,0,0,0,0
		c5.2,3,11.6,3.3,17.1,0.9c3-1.3,5.5-3.4,7.4-5.9l1.9-3C323.6,256.8,324.3,253.2,323.9,249.6z M265.1,262.9
		c-0.1-3.6-0.4-6.7-0.9-9.5c-0.1-0.5-0.4-1-0.9-1.3c-0.5-0.3-1-0.4-1.5-0.2c-1.8,0.5-3.5,1.2-4.9,1.7c-3.3,1.3-6.5,2.9-9.4,4.6
		c-1.2,0.7-2.9,1.8-4.4,3c-1.1,0.9-2.3,2-3.1,3.3c0,0,0,0,0,0c-2.1,3.7-2.3,8.2-0.6,12c0.9,2.1,2.4,3.9,4.2,5.2l2.1,1.3
		c2.2,1.1,4.7,1.6,7.3,1.3c0.6-0.1,1.1-0.2,1.7-0.3l0,0c2.1-0.5,4.1-1.5,5.7-2.9c1.1-1,2-2,2.5-3c0.9-1.6,1.3-3.3,1.6-4.8
		C265.2,269.9,265.2,266.3,265.1,262.9z M215.9,251.1c-0.1-2-0.7-4-1.2-5.9c-0.6-2-1.2-3.6-1.9-5.1c-0.1-0.3-0.4-0.5-0.7-0.6
		s-0.6,0-0.9,0.1c-0.9,0.5-1.7,1.1-2.4,1.7c-1.6,1.2-3.1,2.5-4.5,3.9c-0.6,0.6-1.3,1.4-2,2.3c-0.5,0.6-1,1.4-1.2,2.3c0,0,0,0,0,0
		c-0.6,2.3-0.1,4.8,1.4,6.6c0.8,1,1.9,1.8,3,2.2l1.4,0.4c1.4,0.3,2.8,0.2,4.2-0.4c0.3-0.1,0.6-0.2,0.9-0.4c1.1-0.6,2-1.4,2.7-2.4
		c0.5-0.7,0.8-1.4,0.9-2C216,253,216,252,215.9,251.1z"/>
	<path class="st3" d="M207.3,258.5l-0.8-3.4c-1.1-3.3-3.1-6.2-5.9-8.5c-0.6-0.5-1.2-0.9-1.9-1.3l0,0c-2.6-1.6-5.5-2.5-8.5-2.7
		c-2-0.1-3.9,0-5.4,0.5c-2.4,0.7-4.5,2-6.3,3.2c-4.2,2.8-7.7,6.4-11,9.8c-3.5,3.6-6.3,7-8.5,10.3c-0.4,0.6-0.6,1.4-0.4,2.1
		s0.6,1.3,1.3,1.7c2.3,1.3,4.6,2.3,6.5,3.1c4.6,2,9.2,3.5,13.9,4.7c2,0.5,4.5,1.1,7.3,1.4c2,0.2,4.2,0.3,6.4-0.2c0,0,0,0,0,0
		c5.7-1.5,10.3-5.8,12.5-11.3C207.5,264.8,207.8,261.6,207.3,258.5z M295.8,176.4c-0.1-2.5-0.9-4.9-2.2-7l-1.7-2.2
		c-1.9-2-4.3-3.5-7-4.2c-0.6-0.2-1.2-0.3-1.8-0.4l0,0c-2.4-0.3-4.8,0-7.1,0.8c-1.5,0.6-2.8,1.3-3.8,2.1c-1.5,1.3-2.6,2.9-3.5,4.4
		c-2.1,3.4-3.5,7.1-4.8,10.6c-1.4,3.7-2.3,7.1-2.9,10.2c-0.1,0.6,0,1.2,0.4,1.6s0.9,0.8,1.5,0.8c2,0.2,4,0.2,5.7,0.1
		c3.9-0.1,7.8-0.4,11.5-1.1c1.6-0.3,3.6-0.7,5.7-1.4c1.5-0.5,3.1-1.1,4.5-2.2c0,0,0,0,0,0C294,185.7,296,181.1,295.8,176.4z"/>
	<path class="st2" d="M322.3,130.9c-0.1-0.8-0.5-1.6-1.1-2.1c-0.6-0.5-1.5-0.7-2.3-0.6c-2.8,0.5-5.5,1.2-7.7,1.9
		c-5.2,1.5-10.3,3.4-15,5.6c-2,0.9-4.6,2.2-7.1,3.9c-1.8,1.2-3.8,2.6-5.2,4.6c0,0,0,0,0,0c-3.8,5.2-4.8,12-2.8,18.1
		c1.1,3.3,3,6.3,5.5,8.6l3,2.3c3.2,2,6.9,3.1,10.8,3.1c0.9,0,1.7-0.1,2.6-0.2l0,0c3.3-0.4,6.5-1.7,9.1-3.6c1.8-1.3,3.3-2.7,4.3-4.2
		c1.6-2.2,2.5-4.8,3.2-7.1c1.6-5.3,2.2-10.7,2.6-15.9C322.6,140,322.6,135.2,322.3,130.9z M391.2,182.7c-0.3-0.7-0.9-1.2-1.6-1.4
		c-2.5-0.8-4.9-1.4-7-1.9c-4.9-1.1-9.7-1.8-14.5-2.2c-2-0.1-4.7-0.3-7.4,0c-2,0.2-4.2,0.4-6.2,1.4c0,0,0,0,0,0
		c-5.3,2.5-9.2,7.5-10.3,13.3c-0.6,3.1-0.4,6.3,0.6,9.3l1.4,3.2c1.7,3,4.2,5.6,7.3,7.3c0.7,0.4,1.4,0.7,2.1,1l0,0
		c2.8,1.1,5.9,1.5,8.9,1.2c2-0.2,3.8-0.7,5.3-1.4c2.2-1.1,4.1-2.8,5.7-4.3c3.6-3.5,6.5-7.7,9.2-11.6c2.8-4.2,5-8,6.6-11.6
		C391.4,184.1,391.4,183.3,391.2,182.7z M199.8,114.6c-0.2-0.4-0.5-0.7-0.7-1c-1-1.3-2.3-2.3-3.8-2.9c-1-0.4-2-0.7-2.8-0.7
		c-1.3-0.1-2.7,0.2-3.8,0.5c-2.6,0.7-5.1,1.8-7.4,3c-2.4,1.2-4.5,2.4-6.2,3.7c-0.3,0.2-0.5,0.6-0.6,1c0,0.4,0.1,0.8,0.3,1.1
		c0.9,1,1.9,2,2.7,2.8c2,1.8,4,3.5,6.1,4.9c0.9,0.6,2.1,1.4,3.4,2c1,0.4,2.1,0.9,3.3,1c0,0,0,0,0,0c3.2,0.2,6.3-1.1,8.4-3.5
		c1.1-1.3,1.9-2.9,2.2-4.5l0.2-1.9C201.2,118.1,200.8,116.3,199.8,114.6z"/>
	<path class="st3" d="M425.1,107.9c-0.3-1.7-0.9-3.2-1.6-4.4c-1.1-1.8-2.7-3.3-4.1-4.6c-3.3-2.8-7.1-5-10.7-7
		c-3.8-2.1-7.3-3.7-10.5-4.8c-0.6-0.2-1.3-0.2-1.9,0.1c-0.6,0.3-1,0.8-1.1,1.4c-0.5,2.2-0.9,4.3-1.2,6.1c-0.6,4.2-0.9,8.5-0.9,12.6
		c0,1.7,0.1,4,0.5,6.4c0.3,1.7,0.7,3.6,1.6,5.2c0,0,0,0,0,0c2.6,4.4,7.2,7.3,12.3,7.9c2.8,0.3,5.5-0.1,8-1.2l2.7-1.4
		c2.5-1.6,4.5-4,5.8-6.8c0.3-0.6,0.5-1.2,0.7-1.9l0,0C425.4,113.1,425.6,110.4,425.1,107.9z"/>
	<path class="st2" d="M443.2,117.5c-0.1-0.5-0.3-0.9-0.7-1.1c-1.3-0.9-2.7-1.7-3.9-2.3c-2.8-1.5-5.6-2.7-8.4-3.7
		c-1.2-0.4-2.8-0.9-4.5-1.2c-1.2-0.2-2.6-0.4-4-0.2c0,0,0,0,0,0c-3.6,0.7-6.8,3.1-8.4,6.5c-0.9,1.8-1.3,3.8-1.2,5.8l0.3,2.2
		c0.5,2.1,1.6,4.1,3.2,5.6c0.3,0.3,0.7,0.7,1.1,0.9c1.5,1.1,3.3,1.9,5.2,2.1c1.3,0.2,2.4,0.2,3.4,0c1.5-0.3,2.9-1,4.1-1.7
		c2.8-1.6,5.2-3.6,7.4-5.6c2.4-2.1,4.3-4.1,5.9-6C443.1,118.4,443.3,117.9,443.2,117.5z"/>
	<path class="st3" d="M475.4,159.2c-0.9-1.3-2-2.7-3.4-4.1c-1.3-1.4-2.8-2.8-4.4-3.9c-0.7-0.5-1.6-1-2.5-1.3
		c-0.6-0.2-1.4-0.2-2.2-0.2c-1.2,0.1-2.4,0.5-3.4,1.1c-0.3,0.2-0.5,0.4-0.8,0.5c-1.1,0.9-1.9,2.1-2.3,3.4l-0.3,1.4
		c-0.2,1.2,0,2.5,0.4,3.7c0.9,2.2,2.7,3.9,5,4.5c0,0,0,0,0,0c0.9,0.2,1.8,0.2,2.5,0.1c1.1-0.1,2.1-0.3,2.9-0.5
		c1.8-0.5,3.7-1.1,5.5-1.9c0.8-0.3,1.7-0.7,2.6-1.3c0.3-0.1,0.4-0.4,0.5-0.7C475.6,159.8,475.6,159.4,475.4,159.2z"/>
	<path class="st2" d="M462.7,151.3C462.7,151.3,462.7,151.3,462.7,151.3c-0.1-0.7-0.3-1.3-0.6-1.8c-0.3-0.7-0.8-1.4-1.1-1.9
		c-0.8-1.1-1.7-2.2-2.7-3.3c-0.4-0.4-0.9-1-1.5-1.5c-0.2-0.1-0.4-0.2-0.6-0.2c-0.2,0-0.4,0.1-0.5,0.3c-0.7,0.9-1.3,2-2,3.4
		c-0.6,1.2-1.3,2.6-1.6,4c-0.2,0.6-0.3,1.3-0.3,2c0,0.5,0.2,1,0.4,1.5c0.3,0.8,0.9,1.5,1.6,2.1c0.2,0.1,0.4,0.3,0.6,0.4
		c0.9,0.5,1.9,0.8,2.9,0.8l1-0.1c0.9-0.2,1.7-0.6,2.5-1.2C462.2,154.7,462.9,153,462.7,151.3z"/>
	<path class="st3" d="M354.9,69c-0.5-0.9-1-1.7-1.6-2.2c-0.9-0.9-2-1.5-3-1.9c-2.3-1.1-4.7-1.7-7-2.3c-2.4-0.6-4.6-1-6.6-1.1
		c-0.4,0-0.7,0.1-1,0.4c-0.3,0.3-0.4,0.6-0.4,1c0,1.3,0.1,2.5,0.3,3.6c0.3,2.5,0.8,4.9,1.4,7.1c0.3,1,0.6,2.2,1.2,3.5
		c0.4,0.9,0.9,1.9,1.7,2.7c0,0,0,0,0,0c2.1,2.1,5.1,3,8,2.6c1.6-0.2,3.1-0.9,4.3-1.8l1.3-1.2c1.1-1.3,1.9-2.9,2.2-4.6
		c0.1-0.4,0.1-0.8,0.1-1.2l0,0C355.9,71.9,355.6,70.4,354.9,69z"/>
	<path class="st4" d="M360,371.5h-94.3c-13.6,0-22.4,12.2-19.9,26.4l15.4,87.2c1.4,7.9,10,13.9,19.3,13.9h64.7
		c9.3,0,17.9-6.1,19.3-13.9l15.4-87.2C382.5,383.7,373.6,371.5,360,371.5z"/>
	<path class="st5" d="M385.5,359H240.2c-4.1,0-7.5,3.4-7.5,7.5v20.4c0,4.1,3.4,7.5,7.5,7.5h145.3c4.1,0,7.5-3.4,7.5-7.5v-20.4
		C393,362.3,389.7,359,385.5,359z"/>
	<circle class="st6" cx="343.9" cy="115" r="22.5"/>
	<circle class="st7" cx="343.9" cy="112" r="22.5"/>
	<circle class="st8" cx="344" cy="112.1" r="18.4"/>
	<circle class="st6" cx="312.9" cy="198.9" r="22.5"/>
	<circle class="st7" cx="312.9" cy="195.9" r="22.5"/>
	<circle class="st8" cx="313" cy="196.1" r="18.4"/>
	<circle class="st6" cx="211.4" cy="137.5" r="22.5"/>
	<circle class="st7" cx="211.4" cy="134.5" r="22.5"/>
	<circle class="st8" cx="211.5" cy="134.6" r="18.4"/>
	<circle class="st6" cx="440.4" cy="180.4" r="22.5"/>
	<circle class="st7" cx="440.4" cy="177.4" r="22.5"/>
	<circle class="st8" cx="440.5" cy="177.6" r="18.4"/>
	<circle class="st6" cx="350.4" cy="285.4" r="22.5"/>
	<circle class="st7" cx="350.4" cy="282.4" r="22.5"/>
	<circle class="st8" cx="350.5" cy="282.5" r="18.4"/>
	<circle class="st6" cx="252.4" cy="301" r="22.5"/>
	<circle class="st7" cx="252.4" cy="298" r="22.5"/>
	<circle class="st8" cx="252.5" cy="298.1" r="18.4"/>
	<circle class="st6" cx="343.9" cy="346" r="22.5"/>
	<circle class="st7" cx="343.9" cy="343" r="22.5"/>
	<circle class="st8" cx="344" cy="343.1" r="18.4"/>
</g>
<text transform="matrix(1.1578 0 0 1 431.4835 189.453)" class="st9 st10 st11">₹</text>
<text transform="matrix(1.1578 0 0 1 334.7481 123.8338)" class="st9 st10 st11">₹</text>
<text transform="matrix(1.1578 0 0 1 202.5099 144.3719)" class="st9 st10 st11">₹</text>
<text transform="matrix(1.1578 0 0 1 304.0099 206.0662)" class="st9 st10 st11">₹</text>
<text transform="matrix(1.1578 0 0 1 341.4054 292.449)" class="st9 st10 st11">₹</text>
<text transform="matrix(1.1578 0 0 1 242.7423 308.762)" class="st9 st10 st11">₹</text>
<text transform="matrix(1.1578 0 0 1 335.0411 354.8948)" class="st9 st10 st11">₹</text>
</svg>
