<?xml version="1.0" encoding="utf-8"?>
<!-- Generator: Adobe Illustrator 25.4.1, SVG Export Plug-In . SVG Version: 6.00 Build 0)  -->
<svg version="1.1" id="SvgjsSvg1114" xmlns:svgjs="http://svgjs.com/svgjs"
	 xmlns="http://www.w3.org/2000/svg" xmlns:xlink="http://www.w3.org/1999/xlink" x="0px" y="0px" viewBox="0 0 256 256"
	 style="enable-background:new 0 0 256 256;" xml:space="preserve">
<style type="text/css">
	.st0{fill:#E8C79C;}
	.st1{fill:#FDB978;}
	.st2{fill:#D0AA79;}
	.st3{fill:none;}
	.st4{opacity:0.25;fill:#FFFFFF;enable-background:new    ;}
	.st5{fill:#FFC943;}
	.st6{fill:#F7B521;}
	.st7{opacity:0.35;fill:#FFFFFF;enable-background:new    ;}
	.st8{opacity:0.75;fill:#FFFFFF;enable-background:new    ;}
	.st9{fill:#FABB04;}
</style>
<g id="SvgjsG1116">
	<path class="st0" d="M239.5,233.6c-1.4-6-4.7-11.4-6.3-17.4s-1.3-12.7-1.1-19.1c0.6-28.2-3.4-58.1-20.9-80.4
		c-10.3-13.1-28.4-32-39.4-44.6c0,0,0.2-3.1,0.5-7.4c1.2-18.3,5.2-36.3,11.8-53.4l0.2-0.4c1.3-3.3-0.3-7.1-3.6-8.4
		c-1.2-0.5-2.6-0.6-3.9-0.3L136.7,12c-2.3,0.6-4.7,0.6-7,0l-20.5-4.8c-3-0.7-6.2-0.4-9,0.8l0,0L100,8c-6.3,3-9,10.6-5.9,16.9
		c0.5,1,1.1,1.9,1.8,2.8c11.3,13.5,18,29.2,22.2,46.1c-1.8,2.7-3.8,5.3-6,7.8c-11,12.5-25.2,22-35.5,35.1
		c-17.4,22.3-21.5,52.2-20.9,80.4c0.1,6.4,0.5,12.9-1.2,19.1c-2,7.9-7.1,14.8-6.9,23.4c0,2.9,1,5.7,2.9,8c4.8,5.6,11.8,4,18,2.5
		c21.7-5.2,44-7.2,66.3-6c3.1,0.2,6.2,0.4,9.2,0.7c3.1-0.3,6.1-0.5,9.2-0.7c22.3-1.2,44.6,0.8,66.3,6c5,1.2,10.5,2.5,14.9,0
		C239.7,247,240.9,239.6,239.5,233.6z"/>
	<path class="st1" d="M55.3,250.9c9.5-2,19.2-3.3,28.9-4c-5.3,0.9-10.6,2-15.8,3.2C64,251.2,59.3,252.3,55.3,250.9z"/>
	<path class="st2" d="M234.3,250.1c-4.4,2.5-10,1.2-15,0c-1-0.2-2-0.5-2.9-0.6c2.4-4,3.1-8.9,1.9-13.4c-1.4-6-4.7-11.4-6.3-17.4
		s-1.3-12.7-1.1-19.1c0.6-28.2-3.5-58.1-20.9-80.4c-10.3-13.1-28.4-32-39.4-44.6l0.5-7.4c1.2-18.3,5.2-36.3,11.8-53.4l0.2-0.4
		c1-2.6,0.2-5.6-2-7.4l15.6-3.8c3.5-0.8,7,1.3,7.8,4.8c0.3,1.3,0.2,2.7-0.3,3.9l-0.2,0.4c-6.6,17.1-10.6,35.1-11.8,53.4
		c-0.3,4.3-0.5,7.4-0.5,7.4c11,12.5,29.1,31.5,39.4,44.6c17.4,22.2,21.5,52.1,20.9,80.4c-0.1,6.4-0.5,12.9,1.1,19.1
		s4.9,11.4,6.3,17.4S239.7,247,234.3,250.1z"/>
	<path class="st3" d="M118,73.8c0,0,22.3,8.6,53.8-1.7"/>
	<path d="M228.2,253.6c-3.1-0.1-6.3-0.6-9.3-1.5c-21.5-5.2-43.6-7.2-65.7-6c-3,0.2-6,0.4-9.1,0.7h-0.4c-3-0.3-6-0.5-9.1-0.7
		c-22.1-1.2-44.2,0.8-65.7,6c-6,1.5-14.3,3.5-19.9-3.2c-2.1-2.6-3.3-5.9-3.3-9.3c-0.2-6,2-11,4-15.9c1.2-2.6,2.2-5.3,3-8
		c1.1-5.5,1.5-11.2,1.1-16.8v-1.8c-0.8-35.7,6.2-62.4,21.3-81.6c5.9-7.1,12.4-13.7,19.5-19.6c5.6-4.9,11-10.1,16-15.6
		c1.9-2.2,3.7-4.5,5.3-6.8c-4.6-18-11.6-32.5-21.6-44.5c-3-3.6-4.1-8.4-3-13c1-4.3,3.9-7.9,8-9.7h0.2c3.2-1.4,6.8-1.7,10.3-0.9
		l20.4,4.6c2,0.5,4,0.5,6,0l40.2-9.8c4.5-1.1,9.1,1.7,10.2,6.2c0.4,1.7,0.3,3.5-0.4,5.1L186,12c-6.5,16.9-10.5,34.7-11.7,52.8
		l-0.4,6.6c3.5,4,7.8,8.7,12.2,13.5c9.3,10.2,19.8,21.7,26.7,30.5c15.1,19.3,22,46,21.3,81.6v1.8c-0.4,5.6,0,11.3,1.1,16.8
		c0.8,2.7,1.8,5.4,3,8c1.4,3,2.5,6.2,3.3,9.4l0,0c1.6,6.7,0.3,15-6.1,18.7C233.1,253,230.7,253.6,228.2,253.6z M105.9,8.8
		c-1.7,0-3.4,0.3-4.9,1c-3,1.3-5.1,3.9-5.8,7c-0.8,3.4,0.1,6.9,2.3,9.6c10.5,12.6,17.9,28,22.6,46.9l0.2,0.8l-0.5,0.7
		c-1.9,2.8-3.9,5.5-6.1,8c-5.2,5.7-10.6,11-16.4,16c-6.9,5.8-13.2,12.2-19,19.1c-14.5,18.5-21.2,44.4-20.5,79.1v1.8
		c0.4,6,0,12-1.3,17.9c-0.8,2.9-1.9,5.8-3.1,8.6c-2,4.7-3.9,9.2-3.7,14.2c0,2.5,0.8,4.9,2.4,6.8c3.7,4.4,8.9,3.6,15.9,1.9
		c21.9-5.2,44.4-7.3,66.9-6c3,0.2,6,0.4,9.1,0.7c3-0.3,6-0.5,9.1-0.7c22.5-1.3,45,0.8,66.9,6c4.5,1.1,9.7,2.3,13.5,0.2
		c4.6-2.6,5.4-9.2,4.2-14.3l0,0c-0.8-3-1.9-5.9-3.1-8.7c-1.3-2.8-2.3-5.7-3.1-8.6c-1.3-5.9-1.7-11.9-1.3-17.9v-1.8
		c0.8-34.7-6-60.6-20.5-79.1c-6.8-8.7-17.3-20.2-26.5-30.3c-4.7-5.2-9.1-10-12.8-14.2l-0.5-0.6l0.5-8.2c1.3-18.5,5.3-36.7,12-54
		l0.2-0.4c0.6-1.6,0.3-3.4-0.8-4.6c-1.1-1.2-2.8-1.8-4.4-1.4l-40.1,9.6c-2.6,0.7-5.4,0.7-8,0l-20.5-4.7
		C107.8,8.9,106.8,8.8,105.9,8.8z"/>
	<path d="M141,79.2c-8,0.2-16-1-23.7-3.5l1.4-3.6c0.2,0,22.1,8.1,52.4-1.7l1.2,3.7C162.3,77.4,151.7,79.1,141,79.2z"/>
	<path class="st4" d="M122.9,48.2c-0.3-1.6-0.8-3.1-1.3-4.7c-0.6-1.4-2.2-2-3.5-1.4c-1.3,0.5-1.9,1.9-1.5,3.2c0.5,1.3,0.8,2.6,1.1,4
		c0.3,1.2,1.4,2.1,2.6,2.1c0.2,0,0.4,0,0.6,0C122.3,51.2,123.3,49.7,122.9,48.2C123,48.2,122.9,48.2,122.9,48.2z M116.9,34.6
		c-1.7-2.3-3.6-4.5-5.6-6.6l-0.3-0.3c-4-4.5-4.3-6.7-4.2-7.2c0-0.3,0.2-0.6,0.4-0.8c1.4-0.8,8,1.1,10,1.7l1.1,0.3
		c1.4,0.4,2.9-0.4,3.3-1.9s-0.4-2.9-1.8-3.4l-1.1-0.3c-6.4-1.9-11.9-3.2-15-0.7c-1.4,1.1-2.3,2.8-2.4,4.6c-0.2,3.2,1.6,6.9,5.6,11.3
		l0.3,0.3c1.8,1.9,3.6,3.9,5.2,6c0.5,0.7,1.3,1.1,2.2,1.1c0.6,0,1.1-0.2,1.6-0.5C117.4,37.4,117.6,35.8,116.9,34.6z"/>
	<path d="M158.1,125.6c-1.1,0-1.9-0.8-2-1.9c-0.3-5.1-3.2-9.6-6.3-14.3s-6.6-10.3-6.9-16.5c0-1.4,0-2.9,0.2-4.3
		c0-0.9,0.1-1.8,0.2-2.6c0.1-1.9-0.3-3.7-1.3-5.3c-0.9-1.3-1-1.5-6-1.6c-1.1,0-2-0.9-2-2s0.9-2,2-2l0,0c6,0.2,7.3,0.6,9.2,3.3
		c1.5,2.3,2.2,5,2,7.7c0,1-0.1,2-0.2,2.9c-0.1,1.3-0.2,2.6-0.1,3.8c0.3,5.1,3.2,9.7,6.3,14.5s6.5,10,6.9,16.2
		C160.2,124.5,159.3,125.5,158.1,125.6C158.2,125.6,158.2,125.6,158.1,125.6L158.1,125.6z"/>
	<path d="M128.4,101.5c-0.2,0-0.4,0-0.6-0.1c-1.1-0.3-1.6-1.5-1.3-2.5c0,0,0,0,0,0c0.5-1.5,0.9-3.1,1.3-4.8c0.6-3.2,1.7-6.3,3.1-9.2
		c3.5-5.9,9.8-9.6,16.6-9.7c1.1,0,2,0.9,2,2c0,1.1-0.8,1.9-1.9,2c-5.5,0-10.5,2.9-13.3,7.7c-1.3,2.6-2.2,5.4-2.8,8.2
		c-0.4,1.7-0.8,3.4-1.4,5.1C130,100.9,129.3,101.4,128.4,101.5z"/>
	<path class="st5" d="M118.6,235v12.4c0,2.7-2.2,4.9-4.9,4.9H20.9c-2.7,0-4.9-2.2-4.9-4.9V235c0-2.7,2.2-4.9,4.9-4.9h92.8
		C116.4,230.1,118.6,232.3,118.6,235z"/>
	<path class="st6" d="M118.6,235v12.4c0,2.7-2.2,4.9-4.9,4.9H20.9c-2.7,0-4.8-2.2-4.9-4.9V245h89.3c2.7,0,4.9-2.2,4.9-4.9
		c0,0,0,0,0,0v-10h3.5C116.4,230.1,118.6,232.3,118.6,235C118.6,235,118.6,235,118.6,235z"/>
	<path class="st5" d="M20.9,207.9h92.9c2.7,0,4.9,2.2,4.9,4.9v12.4c0,2.7-2.2,4.9-4.9,4.9H20.9c-2.7,0-4.9-2.2-4.9-4.9v-12.4
		C16,210.1,18.2,207.9,20.9,207.9z"/>
	<path class="st6" d="M118.6,212.8v12.4c0,2.7-2.2,4.9-4.9,4.9H20.9c-2.7,0-4.8-2.2-4.9-4.9v-2.4h89.3c2.7,0,4.9-2.2,4.9-4.8v-10
		h3.5C116.4,208,118.6,210.1,118.6,212.8z"/>
	<path class="st5" d="M20.9,185.8h92.9c2.7,0,4.9,2.2,4.9,4.9V203c0,2.7-2.2,4.9-4.9,4.9H20.9c-2.7,0-4.9-2.2-4.9-4.9v-12.4
		C16,188,18.2,185.8,20.9,185.8z"/>
	<path class="st6" d="M118.6,190.6V203c0,2.7-2.1,4.9-4.8,5c0,0-0.1,0-0.1,0H20.9c-2.7,0-4.9-2.2-4.9-4.9c0,0,0,0,0,0v-2.4h89.3
		c2.7,0,4.9-2.2,4.9-4.9c0,0,0,0,0,0v-10h3.5C116.4,185.7,118.6,187.9,118.6,190.6C118.6,190.6,118.6,190.6,118.6,190.6z"/>
	<path class="st5" d="M20.9,163.6h92.9c2.7,0,4.9,2.2,4.9,4.9v12.4c0,2.7-2.2,4.9-4.9,4.9H20.9c-2.7,0-4.9-2.2-4.9-4.9v-12.4
		C16,165.8,18.2,163.6,20.9,163.6z"/>
	<path class="st6" d="M118.6,168.5v12.4c0,2.7-2.2,4.9-4.9,4.9H20.9c-2.7,0-4.8-2.2-4.9-4.9v-2.4h89.3c2.7,0,4.9-2.2,4.9-4.9v-10
		h3.5C116.4,163.6,118.6,165.8,118.6,168.5C118.6,168.5,118.6,168.5,118.6,168.5z"/>
	<path class="st5" d="M20.9,141h92.9c2.7,0,4.9,2.2,4.9,4.9v12.4c0,2.7-2.2,4.9-4.9,4.9H20.9c-2.7,0-4.9-2.2-4.9-4.9v-12.4
		C16,143.2,18.2,141,20.9,141z"/>
	<path class="st6" d="M118.6,145.9v12.4c0,2.7-2.2,4.9-4.9,4.9H20.9c-2.7,0-4.8-2.2-4.9-4.9V156h89.3c2.7,0,4.9-2.2,4.9-4.9v-10h3.5
		C116.4,141.1,118.6,143.2,118.6,145.9z"/>
	<path class="st5" d="M118.6,123.3v12.4c0,2.7-2.2,4.9-4.9,4.9H20.9c-2.7,0-4.8-2.2-4.9-4.9v-12.4c0-2.7,2.2-4.9,4.9-4.9
		c0,0,0,0,0,0h92.8C116.4,118.4,118.6,120.6,118.6,123.3L118.6,123.3z"/>
	<path class="st6" d="M118.6,123.3v12.4c0,2.7-2.2,4.9-4.9,4.9H20.9c-2.7,0-4.8-2.2-4.9-4.9v-2.4h89.3c2.7,0,4.9-2.2,4.9-4.9v-10
		h3.5C116.4,118.4,118.6,120.6,118.6,123.3z"/>
	<rect x="27.2" y="118.4" class="st7" width="5.9" height="133.9"/>
	<rect x="38.1" y="118.4" class="st7" width="11.9" height="133.9"/>
	<path d="M113.7,165.1H20.9c-3.8,0-6.8-3.1-6.9-6.9v-12.4c0-3.8,3.1-6.9,6.9-6.9h92.8c3.8,0,6.9,3.1,6.9,6.9v12.4
		C120.6,162.1,117.5,165.1,113.7,165.1z M20.9,143c-1.6,0-2.9,1.3-2.9,2.9v12.4c0,1.6,1.3,2.9,2.9,2.9h92.8c1.6,0,2.9-1.3,2.9-2.9
		v-12.4c0-1.6-1.3-2.9-2.9-2.9L20.9,143z"/>
	<path d="M113.7,142.5H20.9c-3.8,0-6.8-3.1-6.9-6.9v-12.4c0-3.8,3.1-6.9,6.9-6.9h92.8c3.8,0,6.9,3.1,6.9,6.9v12.4
		C120.6,139.5,117.5,142.5,113.7,142.5z M20.9,120.4c-1.6,0-2.9,1.3-2.9,2.9v12.4c0,1.6,1.3,2.9,2.9,2.9c0,0,0,0,0,0h92.8
		c1.6,0,2.9-1.3,2.9-2.9c0,0,0,0,0,0v-12.4c0-1.6-1.3-2.9-2.9-2.9l0,0H20.9z M113.7,254.3H20.9c-3.8,0-6.8-3.1-6.9-6.9V235
		c0-3.8,3.1-6.9,6.9-6.9h92.8c3.8,0,6.9,3.1,6.9,6.9v12.4C120.6,251.2,117.5,254.2,113.7,254.3z M20.9,232.1c-1.6,0-2.8,1.3-2.9,2.9
		v12.4c0,1.6,1.3,2.9,2.9,2.9h92.8c1.6,0,2.9-1.3,2.9-2.9V235c0-1.6-1.3-2.9-2.9-2.9L20.9,232.1z"/>
	<path d="M113.7,232H20.9c-3.8,0-6.8-3-6.9-6.8v-12.4c0.1-3.8,3.1-6.8,6.9-6.8h92.9c3.8,0,6.9,3.1,6.9,6.9v12.4
		C120.5,229,117.5,232,113.7,232z M20.9,210c-1.6,0-2.8,1.3-2.9,2.8v12.4c0,1.6,1.3,2.8,2.9,2.8h92.9c1.6,0,2.9-1.3,2.9-2.9
		c0,0,0,0,0,0v-12.4c-0.1-1.5-1.4-2.7-2.9-2.7H20.9z"/>
	<path d="M113.7,210H20.9c-3.8,0-6.9-3.2-6.9-7c0,0,0,0,0,0v-12.4c0-3.8,3.1-6.9,6.9-6.9h92.8c3.8,0,6.9,3.1,6.9,6.9V203
		C120.7,206.8,117.6,210,113.7,210C113.8,210,113.8,210,113.7,210z M20.9,187.8c-1.6,0-2.9,1.3-2.9,2.9V203c0,1.6,1.2,2.9,2.8,3
		c0,0,0,0,0,0h92.9c1.6,0,2.9-1.3,2.9-2.9v-12.5c0-1.6-1.3-2.9-2.9-2.9c0,0,0,0,0,0H20.9z"/>
	<path d="M113.7,187.7H20.9c-3.8,0-6.8-3.1-6.9-6.9v-12.4c0-3.8,3.1-6.9,6.9-6.9h92.8c3.8,0,6.9,3.1,6.9,6.9v12.4
		C120.6,184.7,117.5,187.7,113.7,187.7z M20.9,165.6c-1.6,0-2.8,1.3-2.9,2.9v12.4c0,1.6,1.3,2.9,2.9,2.9h92.8c1.6,0,2.9-1.3,2.9-2.9
		v-12.4c0-1.6-1.3-2.9-2.9-2.9H20.9z"/>
	<circle class="st5" cx="117.2" cy="203" r="51"/>
	<circle class="st5" cx="117.2" cy="203" r="40"/>
	<path d="M117.2,245.1c-23.2,0-42-18.8-42-42s18.8-42,42-42s42,18.8,42,42S140.4,245.1,117.2,245.1L117.2,245.1z M117.2,165.1
		c-21,0-38,17-38,38s17,38,38,38s38-17,38-38C155.2,182.1,138.2,165,117.2,165.1C117.2,165,117.2,165,117.2,165.1L117.2,165.1z"/>
	<path d="M117.2,256c-29.3,0-53-23.7-53-53s23.7-53,53-53c29.3,0,53,23.7,53,53c0,0,0,0,0,0C170.1,232.3,146.4,256,117.2,256z
		 M117.2,154c-27.1,0-49,21.9-49,49c0,27.1,21.9,49,49,49s49-21.9,49-49c0,0,0,0,0,0C166.1,175.9,144.2,154,117.2,154z"/>
	<path class="st8" d="M85,200.6h-0.3c-1.2-0.1-2.1-1.2-2-2.5c0,0,0,0,0-0.1c1.6-11.4,8.7-21.2,19-26.3c1.1-0.6,2.5-0.2,3.1,0.9
		c0.6,1.1,0.2,2.5-0.9,3.1c-0.1,0.1-0.3,0.1-0.4,0.2c-8.8,4.5-14.9,13-16.3,22.8C87.1,199.7,86.2,200.6,85,200.6z"/>
	<polygon class="st9" points="109.7,111.1 103.8,100.3 97.9,111.1 87,117 97.9,122.9 103.8,133.8 109.7,122.9 120.5,117 	"/>
	<path d="M103.8,135.8c-0.7,0-1.4-0.4-1.8-1l-5.6-10.3l-10.3-5.6c-0.6-0.4-1-1-1-1.8c0-0.7,0.4-1.4,1-1.8l10.3-5.6l5.6-10.3
		c0.5-1,1.7-1.3,2.7-0.8c0.3,0.2,0.6,0.5,0.8,0.8l5.6,10.3l10.3,5.6c0.6,0.4,1,1,1,1.8c0,0.7-0.4,1.4-1,1.8l-10.3,5.6l-5.6,10.3
		C105.2,135.4,104.5,135.8,103.8,135.8z M91.2,117l7.6,4.2c0.3,0.2,0.6,0.5,0.8,0.8l4.2,7.6l4.2-7.6c0.2-0.3,0.5-0.6,0.8-0.8
		l7.6-4.2l-7.6-4.2c-0.3-0.2-0.6-0.5-0.8-0.9l-4.2-7.6l-4.2,7.6c-0.2,0.3-0.5,0.6-0.8,0.8L91.2,117z"/>
	<polygon class="st9" points="147.7,157.1 141.8,146.3 135.8,157.1 125,163 135.8,168.9 141.8,179.7 147.7,168.9 158.5,163 	"/>
	<path d="M141.8,181.7c-0.7,0-1.4-0.4-1.7-1l-5.6-10.3l-10.4-5.6c-0.6-0.3-1-1-1-1.7c0-0.7,0.4-1.4,1-1.8l10.3-5.6l5.7-10.3
		c0.5-1,1.8-1.3,2.7-0.8c0.3,0.2,0.6,0.5,0.8,0.8l5.6,10.3l10.3,5.6c0.6,0.4,1,1,1,1.8c0,0.7-0.4,1.4-1,1.7l-10.3,5.6l-5.6,10.3
		C143.2,181.3,142.5,181.7,141.8,181.7z M129.2,163l7.6,4.2c0.3,0.2,0.6,0.5,0.8,0.8l4.2,7.6l4.2-7.6c0.2-0.3,0.5-0.6,0.8-0.8
		l7.6-4.2l-7.6-4.2c-0.4-0.2-0.6-0.5-0.8-0.9l-4.2-7.6l-4.2,7.6c-0.2,0.3-0.4,0.6-0.8,0.8L129.2,163z"/>
</g>
</svg>
