<svg id="SvgjsSvg1318" width="256" height="256" xmlns="http://www.w3.org/2000/svg" version="1.1"
    xmlns:xlink="http://www.w3.org/1999/xlink" xmlns:svgjs="http://svgjs.com/svgjs">
    <defs id="SvgjsDefs1319"></defs>
    <g id="SvgjsG1320"><svg xmlns="http://www.w3.org/2000/svg" viewBox="0 0 64 64" width="256" height="256">
            <path fill="#222222"
                d="M43.877 39.844h-24.16a3.668 3.668 0 0 1-3.425-4.98l3.956-10.324a4.778 4.778 0 0 1 4.437-3.052h14.224a4.778 4.778 0 0 1 4.437 3.052L47.3 34.864a3.668 3.668 0 0 1-3.425 4.98ZM24.685 24.488a1.759 1.759 0 0 0-1.635 1.125l-3.956 10.325a.667.667 0 0 0 .623.906h24.16a.667.667 0 0 0 .623-.906l-3.956-10.325a1.759 1.759 0 0 0-1.635-1.125Z"
                class="color222 svgShape"></path>
            <path fill="#222222"
                d="M39.034 32.167a1.5 1.5 0 0 1-1.4-.964l-.765-2h-3.307a1.5 1.5 0 0 1 0-3H37.9a1.5 1.5 0 0 1 1.4.963l1.134 2.959a1.5 1.5 0 0 1-1.4 2.038zm-9.407 24.097H5.468a3.668 3.668 0 0 1-3.426-4.98L6 40.959a4.778 4.778 0 0 1 4.438-3.051H24.66a4.78 4.78 0 0 1 4.44 3.051l3.955 10.325a3.668 3.668 0 0 1-3.425 4.98zM10.436 40.908A1.761 1.761 0 0 0 8.8 42.032L4.844 52.357a.668.668 0 0 0 .624.907h24.159a.667.667 0 0 0 .623-.907L26.3 42.032a1.761 1.761 0 0 0-1.635-1.124z"
                class="color222 svgShape"></path>
            <path fill="#222222"
                d="M24.785 48.586a1.5 1.5 0 0 1-1.4-.964l-.764-2h-3.309a1.5 1.5 0 0 1 0-3h4.338a1.5 1.5 0 0 1 1.4.963l1.134 2.96a1.5 1.5 0 0 1-1.4 2.037zm33.747 7.678H34.373a3.668 3.668 0 0 1-3.425-4.98L34.9 40.959a4.78 4.78 0 0 1 4.437-3.051h14.227A4.778 4.778 0 0 1 58 40.959l3.956 10.325a3.668 3.668 0 0 1-3.426 4.98zM39.34 40.908a1.761 1.761 0 0 0-1.635 1.124L33.75 52.357a.667.667 0 0 0 .623.907h24.159a.668.668 0 0 0 .624-.907L55.2 42.032a1.761 1.761 0 0 0-1.636-1.124z"
                class="color222 svgShape"></path>
            <path fill="#222222"
                d="M53.689 48.586a1.5 1.5 0 0 1-1.4-.964l-.765-2h-3.307a1.5 1.5 0 0 1 0-3h4.338a1.5 1.5 0 0 1 1.4.963l1.134 2.96a1.5 1.5 0 0 1-1.4 2.037zM32 16.736a1.5 1.5 0 0 1-1.5-1.5v-6a1.5 1.5 0 1 1 3 0v6a1.5 1.5 0 0 1-1.5 1.5zM11 27.618a1.5 1.5 0 0 1-.863-.274l-4.9-3.459a1.5 1.5 0 1 1 1.729-2.451l4.9 3.459A1.5 1.5 0 0 1 11 27.618zm42 0a1.5 1.5 0 0 1-.867-2.725l4.9-3.459a1.5 1.5 0 1 1 1.729 2.451l-4.9 3.459a1.5 1.5 0 0 1-.862.274z"
                class="color222 svgShape"></path>
        </svg></g>
</svg>