<?xml version="1.0" encoding="utf-8"?>
<!-- Generator: Adobe Illustrator 25.4.1, SVG Export Plug-In . SVG Version: 6.00 Build 0)  -->
<svg version="1.1"
	 id="SvgjsSvg1065" image-rendering="optimizeQuality" shape-rendering="geometricPrecision" text-rendering="geometricPrecision" xmlns:svgjs="http://svgjs.com/svgjs"
	 xmlns="http://www.w3.org/2000/svg" xmlns:xlink="http://www.w3.org/1999/xlink" x="0px" y="0px" viewBox="0 0 256 256"
	 style="enable-background:new 0 0 256 256;" xml:space="preserve">
<style type="text/css">
	.st0{stroke:#000000;stroke-miterlimit:10;}
	.st1{fill-rule:evenodd;clip-rule:evenodd;fill:#FFFFFF;}
	.st2{fill:#FFFFFF;stroke:#FABB04;stroke-width:5.9269;stroke-linecap:round;stroke-linejoin:round;stroke-miterlimit:28.6798;}
	.st3{fill-rule:evenodd;clip-rule:evenodd;fill:#FABB04;}
	.st4{fill:none;}
	.st5{fill:none;stroke:#FABB04;stroke-width:5.9269;stroke-linecap:round;stroke-linejoin:round;stroke-miterlimit:28.6798;}
</style>
<g id="SvgjsG1067">
	<rect class="st0" width="255.9" height="256"/>
	<rect x="78.4" y="129" class="st1" width="70" height="118.4"/>
	<path class="st2" d="M219.8,162.4c-2.7-9.4-5.8-13.7-8.7-15.9c-2.9-2.1-6.9-3-16-5.2s-23.1-5.8-32.1-9.4
		c-2.9-1.1-22.4-7.9-22.8-7.7c-1.3,0.6,7.6,25,7.5,28.8c-0.7,20.1-15,74-19.2,98.2l-2.4-68.7l-4.4-16.2c-2.9-6.6,6.5-14.6,3-16.6
		L115,144l22.1-13.4c2.1-1.6,3.2-3.8,3.2-6.4v-13.1c3-3.2,4.6-7,4.9-11.4l0.5-7.6c0.3-0.1,0.6-0.2,0.9-0.2c6.1-1.8,7-6.3,8.4-12.2
		c1.1-4.6,3.5-15-2.3-17.2c-0.6-0.2-1.3-0.4-2-0.4c0.9-6.5,1.4-14.3,0.8-20.8c-0.6-6.5-1.4-12.5-4.2-17.9
		c-2.6-5.1-6.8-9.7-11.6-12.8c-6-3.9-13-6.9-20.1-7.6c-6.3-0.6-12.8,1.4-18.6,3.9c-3.8,1.7-7.5,6.1-9.1,8.4s-1.3,4.4-0.5,5.8
		c-0.8-0.6-5.1,0.1-6.4,1.3c-5.4,5-7,15.7-6.2,23.1l1.1,16.1c0,0.2,0.6,0.4,0.2,0.5s-0.9-0.1-1.9,0.2c-6.6,2-1.5,24.3,2.5,27.6
		c1,0.8,2.3,1.3,3.8,1.8h0.1l0,0l0,0c0.5,7.5,0,13.6,5.7,19.6l1.4,12.8c0,2.6,1.1,4.9,3.2,6.4L115,144l-12.6,5.7l0,0
		c-3.4,2,5.9,12.1,4.3,15.7l-4.8,17.1l-1.9,68.6c-4.3-23.8-19-78.3-19.7-98.1c-0.3-7.4,6.8-18,7.5-28.8c0.2-3.4-20.2,6.7-22.8,7.7
		c-8.9,3.5-23,7.1-32.1,9.4s-13.1,3.1-16,5.2c-2.9,2.1-4.5,5.5-7.2,14.9c-1.7,5.8-3.8,55.8-6,64.8c-1.1,4.4-0.3,8.6,2.2,12.3
		s6.2,5.9,10.6,6.5c55.2,6.9,110.4,8.3,165.5,3.4c7.3-0.7,13.5-1.3,18.6-1.7"/>
	<path class="st1" d="M211.9,158.1c-10.3,4.9-23.9,10.4-39,11.9c-1.6,0.1-2.9,1.5-2.8,3c0.4,15.3,0.8,34.5,3.7,43.2
		c5.3,16.7,20.2,30.2,37.7,35.5c0.7,0.1,1.3,0.1,1.8,0c17.7-5.4,31.5-18.7,37.1-35.3c3.6-10.9,3.4-28,3.7-43.2
		c0-1.6-1.2-2.8-2.8-2.9c-15.3-1.3-28.9-7-39.2-11.9L211.9,158.1L211.9,158.1z"/>
	<path class="st3" d="M211.9,173.8c-3.7,1.7-7.8,3.4-12.2,4.9c-4.8,1.6-10,2.9-15.6,3.5v0.2c0.3,11,0.6,24.2,2.5,29.9
		c0,0.1,0,0.1,0.1,0.2c1.8,5.6,5.2,10.6,9.6,14.8c4.5,4.2,10,7.4,15.9,9.2c5.9-1.9,11.2-5.1,15.5-9.2c4.4-4.2,7.7-9.3,9.6-15
		c2.3-6.8,2.4-17.6,2.5-27.8c0-0.8,0-1.5,0-2.2c-5.6-0.6-10.9-1.9-15.7-3.5C219.7,177.2,215.6,175.5,211.9,173.8L211.9,173.8z
		 M211.9,169.4c-7.8,3.7-18.1,7.9-29.6,9c-1.2,0.1-2.2,1.1-2.1,2.3c0.3,11.6,0.6,26.2,2.8,32.8c4,12.7,15.3,22.9,28.6,26.9
		c0.5,0.1,1,0.1,1.4,0c13.4-4.1,23.9-14.2,28.1-26.8c2.7-8.3,2.6-21.2,2.8-32.8c0-1.2-0.9-2.1-2.1-2.2c-11.6-1-21.9-5.3-29.7-9
		L211.9,169.4L211.9,169.4z"/>
	<path class="st3" d="M211.9,163.9c-4.9,2.2-10.3,4.5-16.2,6.5c-6.3,2.1-13.1,3.8-20.4,4.7c0.4,14.6,0.9,32,3.3,39.4
		c0,0.1,0.1,0.2,0.1,0.3c2.4,7.3,6.8,14,12.7,19.4c5.9,5.5,13.1,9.7,20.9,12.2c7.8-2.5,14.7-6.7,20.4-12.1
		c5.8-5.5,10.2-12.3,12.7-19.8c3-9,3.2-23.4,3.3-37c0-0.8,0-1.6,0-2.4c-7.4-0.9-14.2-2.6-20.5-4.7
		C222.2,168.5,216.8,166.2,211.9,163.9L211.9,163.9z M211.8,157.4c-10.4,5-24.2,10.6-39.7,12c-1.6,0.2-2.9,1.5-2.9,3
		c0.4,15.5,0.8,35.1,3.7,43.9c5.4,17,20.5,30.7,38.3,36c0.7,0.2,1.3,0.2,1.9,0c17.9-5.5,32-19,37.7-35.9c3.7-11,3.5-28.4,3.7-43.9
		c0-1.5-1.2-2.9-2.9-3c-15.5-1.4-29.3-7.1-39.8-12V157.4L211.8,157.4z"/>
	<rect x="24.9" y="2" class="st4" width="253" height="253"/>
	<polyline class="st5" points="197.2,207.8 207.7,218 230,192.2 	"/>
</g>
</svg>
