<svg id="SvgjsSvg1159" width="256" height="256" xmlns="http://www.w3.org/2000/svg" version="1.1"
    xmlns:xlink="http://www.w3.org/1999/xlink" xmlns:svgjs="http://svgjs.com/svgjs">
    <defs id="SvgjsDefs1160"></defs>
    <g id="SvgjsG1161"><svg xmlns="http://www.w3.org/2000/svg" enable-background="new 0 0 50 50" viewBox="0 0 50 50"
            width="256" height="256">
            <path fill="#e89c0b" d="M33.3,30.6v-8.7c0,0-3.9-8.2-16.9-7.9C3.6,14.3,1.2,21.3,1.2,21.3L1,30.5c0,0,1.4-9.8,16.1-8.8
				C31.7,22.7,33.3,30.6,33.3,30.6z" class="colorE89C0B svgShape"></path>
            <path fill="#f7be15" d="M1.2,21.3L1,30.4c0,0,2.8,6.9,15.7,7.4c12.9,0.5,16.7-6.7,16.7-6.7v-9.2c0,0-1.9,9.3-16.6,8.1
				C2,28.7,1.2,21.3,1.2,21.3z" class="colorF7BE15 svgShape"></path>
            <path fill="#f7be15" d="M17.2,30.5c-9,0-16.1-3.6-16.1-8.3c0-4.7,7.1-8.3,16.1-8.3c9,0,16.1,3.6,16.1,8.3
					C33.4,26.8,26.3,30.5,17.2,30.5z M17.2,14.8c-8.3,0-15.3,3.4-15.3,7.3s7,7.3,15.3,7.3c8.3,0,15.3-3.4,15.3-7.3
					S25.5,14.8,17.2,14.8z" class="colorF7BE15 svgShape"></path>
            <ellipse cx="30.9" cy="29.3" fill="#ffffff" rx="1.6" ry="1.5" class="colorFFF svgShape"></ellipse>
            <ellipse cx="30.9" cy="29.3" fill="#d4145a" rx="1.4" ry="1.3" class="colorD4145A svgShape"></ellipse>
            <path fill="#ffffff" d="M30.9,28c0.1,0,0.2,0,0.4,0.1c-0.6,0.2-1,0.7-1,1.3s0.4,1.1,1,1.3c-0.1,0-0.2,0.1-0.4,0.1
				c-0.7,0-1.4-0.6-1.4-1.3C29.6,28.6,30.2,28,30.9,28z" opacity=".43" class="colorFFF svgShape"></path>
            <ellipse cx="26.9" cy="33.6" fill="#ffffff" rx="1.6" ry="1.5" class="colorFFF svgShape"></ellipse>
            <ellipse cx="26.9" cy="33.6" fill="#d4145a" rx="1.4" ry="1.3" class="colorD4145A svgShape"></ellipse>
            <path fill="#ffffff" d="M26.9,32.3c0.1,0,0.2,0,0.4,0.1c-0.6,0.2-1,0.7-1,1.3c0,0.6,0.4,1.1,1,1.3
				c-0.1,0-0.2,0.1-0.4,0.1c-0.7,0-1.4-0.6-1.4-1.3C25.5,32.9,26.1,32.3,26.9,32.3z" opacity=".43"
                class="colorFFF svgShape"></path>
            <ellipse cx="21.4" cy="31.9" fill="#ffffff" rx="1.6" ry="1.5" class="colorFFF svgShape"></ellipse>
            <ellipse cx="21.4" cy="31.9" fill="#d4145a" rx="1.4" ry="1.3" class="colorD4145A svgShape"></ellipse>
            <path fill="#ffffff" d="M21.4,30.6c0.1,0,0.2,0,0.4,0.1c-0.6,0.2-1,0.7-1,1.3s0.4,1.1,1,1.3
				c-0.1,0-0.2,0.1-0.4,0.1c-0.7,0-1.4-0.6-1.4-1.3C20.1,31.2,20.7,30.6,21.4,30.6z" opacity=".43"
                class="colorFFF svgShape"></path>
            <ellipse cx="15.8" cy="35.2" fill="#ffffff" rx="1.6" ry="1.5" class="colorFFF svgShape"></ellipse>
            <ellipse cx="15.8" cy="35.2" fill="#d4145a" rx="1.4" ry="1.3" class="colorD4145A svgShape"></ellipse>
            <path fill="#ffffff" d="M15.8,33.9c0.1,0,0.2,0,0.4,0.1c-0.6,0.2-1,0.7-1,1.3c0,0.6,0.4,1.1,1,1.3
				c-0.1,0-0.2,0.1-0.4,0.1c-0.7,0-1.4-0.6-1.4-1.3C14.4,34.4,15,33.9,15.8,33.9z" opacity=".43"
                class="colorFFF svgShape"></path>
            <ellipse cx="10.1" cy="31.7" fill="#ffffff" rx="1.6" ry="1.5" class="colorFFF svgShape"></ellipse>
            <ellipse cx="10.1" cy="31.7" fill="#d4145a" rx="1.4" ry="1.3" class="colorD4145A svgShape"></ellipse>
            <path fill="#ffffff" d="M10.1,30.4c0.1,0,0.2,0,0.4,0.1c-0.6,0.2-1,0.7-1,1.3c0,0.6,0.4,1.1,1,1.3
				c-0.1,0-0.2,0.1-0.4,0.1c-0.7,0-1.4-0.6-1.4-1.3C8.8,31,9.4,30.4,10.1,30.4z" opacity=".43" class="colorFFF svgShape">
            </path>
            <ellipse cx="4.1" cy="29.8" fill="#ffffff" rx="1.6" ry="1.5" class="colorFFF svgShape"></ellipse>
            <ellipse cx="4.1" cy="29.8" fill="#d4145a" rx="1.4" ry="1.3" class="colorD4145A svgShape"></ellipse>
            <path fill="#ffffff" d="M4.1,28.5c0.1,0,0.2,0,0.4,0.1c-0.6,0.2-1,0.7-1,1.3c0,0.6,0.4,1.1,1,1.3
				c-0.1,0-0.2,0.1-0.4,0.1c-0.7,0-1.4-0.6-1.4-1.3C2.8,29.1,3.4,28.5,4.1,28.5z" opacity=".43"
                class="colorFFF svgShape"></path>
            <path fill="#e89c0b" d="M45.5,35.5l3.3-8.1c0,0-0.6-9-12.6-13.7c-12.1-4.6-16.9,0.9-16.9,0.9l-3.6,8.5c0,0,5-8.5,18.3-2
			C47,27.6,45.5,35.5,45.5,35.5z" class="colorE89C0B svgShape"></path>
            <path fill="#f7be15" d="M19.2,14.7l-3.6,8.3c0,0,0,7.5,11.7,12.8C39.1,41.2,45.3,36,45.3,36l3.5-8.5c0,0-5.3,7.9-18.4,1.2
			S19.2,14.7,19.2,14.7z" class="colorF7BE15 svgShape"></path>
            <path fill="#f7be15" d="M30.6,29.3c-8.4-3.4-13.6-9.5-11.8-13.8c1.8-4.3,9.7-5,18.1-1.6c8.4,3.4,13.6,9.5,11.8,13.8
				C46.9,32,39,32.7,30.6,29.3z M36.5,14.8c-7.7-3.1-15.5-2.7-17,1c-1.5,3.7,3.7,9.4,11.4,12.6c7.7,3.1,15.5,2.7,17-1
				C49.4,23.7,44.2,18,36.5,14.8z" class="colorF7BE15 svgShape"></path>
            <g>
                <ellipse cx="43.7" cy="33.4" fill="#ffffff" rx="1.6" ry="1.5" transform="rotate(-157.764 43.726 33.415)"
                    class="colorFFF svgShape"></ellipse>
                <ellipse cx="43.7" cy="33.4" fill="#d4145a" rx="1.4" ry="1.3" transform="rotate(-157.759 43.726 33.411)"
                    class="colorD4145A svgShape"></ellipse>
                <path fill="#ffffff" d="M44.2,32.2c0.1,0,0.2,0.1,0.3,0.2c-0.6-0.1-1.2,0.2-1.4,0.8c-0.2,0.6,0,1.2,0.4,1.5
			c-0.1,0-0.2,0-0.4-0.1c-0.7-0.3-1-1.1-0.8-1.7C42.7,32.2,43.5,31.9,44.2,32.2z" opacity=".43"
                    class="colorFFF svgShape"></path>
            </g>
            <g>
                <ellipse cx="38.3" cy="35.9" fill="#ffffff" rx="1.6" ry="1.5" transform="rotate(-157.764 38.352 35.86)"
                    class="colorFFF svgShape"></ellipse>
                <ellipse cx="38.3" cy="35.9" fill="#d4145a" rx="1.4" ry="1.3" transform="rotate(-157.764 38.352 35.86)"
                    class="colorD4145A svgShape"></ellipse>
                <path fill="#ffffff" d="M38.8,34.6c0.1,0,0.2,0.1,0.3,0.2c-0.6-0.1-1.2,0.2-1.4,0.8s0,1.2,0.4,1.5
			c-0.1,0-0.2,0-0.4-0.1c-0.7-0.3-1-1.1-0.8-1.7C37.4,34.7,38.2,34.4,38.8,34.6z" opacity=".43"
                    class="colorFFF svgShape"></path>
            </g>
            <g>
                <ellipse cx="33.9" cy="32.2" fill="#ffffff" rx="1.6" ry="1.5" transform="rotate(-157.764 33.91 32.23)"
                    class="colorFFF svgShape"></ellipse>
                <ellipse cx="33.9" cy="32.2" fill="#d4145a" rx="1.4" ry="1.3" transform="rotate(-157.759 33.91 32.226)"
                    class="colorD4145A svgShape"></ellipse>
                <path fill="#ffffff" d="M34.4,31c0.1,0,0.2,0.1,0.3,0.2c-0.6-0.1-1.2,0.2-1.4,0.8c-0.2,0.6,0,1.2,0.4,1.5
			c-0.1,0-0.2,0-0.4-0.1c-0.7-0.3-1-1.1-0.8-1.7C32.9,31,33.7,30.7,34.4,31z" opacity=".43" class="colorFFF svgShape">
                </path>
            </g>
            <g>
                <ellipse cx="27.5" cy="33.1" fill="#ffffff" rx="1.6" ry="1.5" transform="rotate(-157.764 27.476 33.08)"
                    class="colorFFF svgShape"></ellipse>
                <ellipse cx="27.5" cy="33.1" fill="#d4145a" rx="1.4" ry="1.3" transform="rotate(-157.764 27.476 33.08)"
                    class="colorD4145A svgShape"></ellipse>
                <path fill="#ffffff" d="M28,31.9c0.1,0,0.2,0.1,0.3,0.2c-0.6-0.1-1.2,0.2-1.4,0.8c-0.2,0.6,0,1.2,0.4,1.5
			c-0.1,0-0.2,0-0.4-0.1c-0.7-0.3-1-1.1-0.8-1.7C26.5,31.9,27.3,31.6,28,31.9z" opacity=".43" class="colorFFF svgShape">
                </path>
            </g>
            <g>
                <ellipse cx="23.5" cy="27.7" fill="#ffffff" rx="1.6" ry="1.5" transform="rotate(-157.764 23.544 27.733)"
                    class="colorFFF svgShape"></ellipse>
                <ellipse cx="23.5" cy="27.7" fill="#d4145a" rx="1.4" ry="1.3" transform="rotate(-157.764 23.544 27.733)"
                    class="colorD4145A svgShape"></ellipse>
                <path fill="#ffffff" d="M24,26.5c0.1,0,0.2,0.1,0.3,0.2c-0.6-0.1-1.2,0.2-1.4,0.8c-0.2,0.6,0,1.2,0.4,1.5
			c-0.1,0-0.2,0-0.4-0.1c-0.7-0.3-1-1.1-0.8-1.7C22.6,26.6,23.3,26.2,24,26.5z" opacity=".43" class="colorFFF svgShape">
                </path>
            </g>
            <ellipse cx="18.7" cy="23.7" fill="#ffffff" rx="1.6" ry="1.5" transform="rotate(-157.764 18.732 23.724)"
                class="colorFFF svgShape"></ellipse>
            <ellipse cx="18.7" cy="23.7" fill="#d4145a" rx="1.4" ry="1.3" transform="rotate(-157.759 18.732 23.721)"
                class="colorD4145A svgShape"></ellipse>
            <path fill="#ffffff" d="M19.2,22.5c0.1,0,0.2,0.1,0.3,0.2c-0.6-0.1-1.2,0.2-1.4,0.8c-0.2,0.6,0,1.2,0.4,1.5
		c-0.1,0-0.2,0-0.4-0.1c-0.7-0.3-1-1.1-0.8-1.7C17.8,22.5,18.5,22.2,19.2,22.5z" opacity=".43" class="colorFFF svgShape">
            </path>
        </svg></g>
</svg>