<?xml version="1.0" encoding="utf-8"?>
<!-- Generator: Adobe Illustrator 25.4.1, SVG Export Plug-In . SVG Version: 6.00 Build 0)  -->
<svg version="1.1" id="SvgjsSvg1339" xmlns:svgjs="http://svgjs.com/svgjs"
	 xmlns="http://www.w3.org/2000/svg" xmlns:xlink="http://www.w3.org/1999/xlink" x="0px" y="0px" viewBox="0 0 256 256"
	 style="enable-background:new 0 0 256 256;" xml:space="preserve">
<style type="text/css">
	.st0{stroke:#000000;stroke-miterlimit:10;}
</style>
<g id="SvgjsG1341">
	<path d="M108,56h104c24.3,0,44-19.7,44-44V4c0-2.2-1.8-4-4-4H108C66,0,32,34,32,76v148H16c-2.2,0-4,1.8-4,4v20H4c-2.2,0-4,1.8-4,4
		s1.8,4,4,4h120c2.2,0,4-1.8,4-4s-1.8-4-4-4h-8v-20c0-2.2-1.8-4-4-4H96v-92h68v20c0,2.2,1.8,4,4,4h15.1c-13.3,19-27.1,42.1-27.1,56
		c0,24.3,19.7,44,44,44s44-19.7,44-44c0-13.9-13.8-37-27.1-56H232c2.2,0,4-1.8,4-4v-20h16c2.2,0,4-1.8,4-4v-16c0-11-9-20-20-20H96
		V68C96,61.4,101.4,56,108,56z M108,8h140v4c0,19.9-16.1,36-36,36H108c-11,0-20,9-20,20v24H40V76C40,38.5,70.5,8,108,8z M108,248H20
		v-16h88V248z M40,224V100h48v124H40z M236,212c0,19.9-16.1,36-36,36s-36-16.1-36-36c0-10.1,10.5-30.4,28.9-56h14.2
		C225.5,181.6,236,201.9,236,212z M228,148h-56v-16h56V148z M248,112v12H96v-24h140C242.6,100,248,105.4,248,112z"/>
</g>
<g>
	<g>
		<path class="st0" d="M203.2,229l-13-15.9l-0.1-3h6.5c1.7,0,3.1-0.2,4.3-0.7s2.1-1.2,2.7-2.2c0.6-1,0.9-2.2,0.9-3.6
			c0-2.2-0.7-3.9-2-5.1c-1.3-1.2-3.3-1.9-6-1.9h-6.8l1.2-4h5.6c2.9,0,5.3,0.5,7.1,1.4c1.9,1,3.2,2.3,4.1,3.9s1.3,3.5,1.3,5.6
			c0,1.9-0.4,3.6-1.2,5.2c-0.8,1.6-2.1,2.8-3.9,3.8s-4.2,1.4-7.1,1.4h-0.1l12,14.7v0.3H203.2z M214,201.2l-1.2,4.1h-23l1.2-4.1H214z
			 M214,192.6l-1.2,4.1l-18.1-0.1l1.2-4H214z"/>
	</g>
</g>
</svg>
