<svg xmlns="http://www.w3.org/2000/svg" enable-background="new 0 0 70 70" viewBox="0 0 70 70" id="safe-deposit">
    <path
        d="M7.44,57.34c-0.08,0-0.16-0.02-0.23-0.06c-2.58-1.35-4.18-4-4.18-6.89V11.12c0-4.29,3.49-7.78,7.79-7.78h45.27
			c2.91,0,5.56,1.6,6.91,4.19c0.13,0.24,0.03,0.55-0.21,0.67c-0.24,0.13-0.55,0.03-0.67-0.21c-1.18-2.25-3.49-3.65-6.03-3.65H10.82
			c-3.74,0-6.79,3.04-6.79,6.78v39.27c0,2.52,1.4,4.83,3.64,6.01c0.25,0.13,0.34,0.43,0.21,0.68C7.8,57.24,7.62,57.34,7.44,57.34z">
    </path>
    <path d="M59.18,61.27H13.91c-4.3,0-7.79-3.5-7.79-7.79V14.21c0-4.29,3.5-7.78,7.79-7.78h45.28c4.29,0,7.78,3.49,7.78,7.78v39.27
			C66.97,57.77,63.48,61.27,59.18,61.27z M13.91,7.42c-3.75,0-6.79,3.04-6.79,6.78v39.27c0,3.75,3.05,6.79,6.79,6.79h45.28
			c3.74,0,6.78-3.05,6.78-6.79V14.21c0-3.74-3.04-6.78-6.78-6.78H13.91z"></path>
    <path d="M12.78,49.22c-1.52,0-2.75-1.23-2.75-2.75v-4.5c0-1.52,1.23-2.75,2.75-2.75c0.75,0,1.44,0.29,1.95,0.81
			c0.52,0.52,0.8,1.21,0.8,1.94v4.5C15.53,47.98,14.3,49.22,12.78,49.22z M12.78,40.22c-0.96,0-1.75,0.79-1.75,1.75v4.5
			c0,0.96,0.79,1.75,1.75,1.75s1.75-0.79,1.75-1.75v-4.5c0-0.47-0.18-0.9-0.51-1.24C13.7,40.4,13.26,40.22,12.78,40.22z">
    </path>
    <path
        d="M58.44 55.1h-43.8c-1.3 0-2.36-1.06-2.36-2.36v-4.02c0-.28.22-.5.5-.5.96 0 1.75-.79 1.75-1.75v-4.5c0-.47-.18-.9-.51-1.24-.33-.33-.76-.51-1.24-.51-.28 0-.5-.22-.5-.5V27.97c0-.28.22-.5.5-.5.96 0 1.75-.79 1.75-1.75v-4.5c0-.47-.18-.9-.51-1.24-.33-.33-.76-.51-1.24-.51-.28 0-.5-.22-.5-.5v-4.03c0-1.29 1.05-2.34 2.35-2.34h43.82c1.29 0 2.34 1.05 2.34 2.34v37.8C60.79 54.04 59.74 55.1 58.44 55.1zM13.28 49.17v3.57c0 .75.61 1.36 1.36 1.36h43.8c.75 0 1.35-.61 1.35-1.36v-37.8c0-.74-.6-1.34-1.34-1.34H14.63c-.75 0-1.35.6-1.35 1.34v3.57c.55.1 1.05.36 1.45.77.52.52.8 1.21.8 1.94v4.5c0 1.35-.97 2.47-2.25 2.7v10.84c.55.1 1.05.36 1.45.77.52.52.8 1.21.8 1.94v4.5C15.53 47.81 14.56 48.93 13.28 49.17zM20.03 66.66h-3.81c-1.04 0-1.89-.85-1.89-1.89v-4.01c0-.28.22-.5.5-.5h9.14c.18 0 .34.1.43.25s.09.35 0 .5l-2.75 4.71C21.32 66.31 20.69 66.66 20.03 66.66zM15.33 61.27v3.51c0 .49.4.89.89.89h3.81c.31 0 .61-.17.77-.44l2.31-3.96H15.33zM56.86 66.66h-3.81c-.67 0-1.29-.36-1.63-.93l-2.75-4.71c-.09-.15-.09-.35 0-.5s.25-.25.43-.25h9.14c.28 0 .5.22.5.5v4.01C58.75 65.82 57.9 66.66 56.86 66.66zM49.98 61.27l2.31 3.96c.16.27.45.44.77.44h3.81c.49 0 .89-.4.89-.89v-3.51H49.98z">
    </path>
    <path
        d="M12.78 28.47c-1.52 0-2.75-1.23-2.75-2.75v-4.5c0-1.52 1.23-2.75 2.75-2.75.75 0 1.44.29 1.95.81.52.52.8 1.21.8 1.94v4.5C15.53 27.23 14.3 28.47 12.78 28.47zM12.78 19.47c-.96 0-1.75.79-1.75 1.75v4.5c0 .96.79 1.75 1.75 1.75s1.75-.79 1.75-1.75v-4.5c0-.47-.18-.9-.51-1.24C13.7 19.65 13.26 19.47 12.78 19.47zM36.54 48c-7.81 0-14.16-6.35-14.16-14.16 0-7.81 6.35-14.16 14.16-14.16S50.7 26.04 50.7 33.84C50.7 41.65 44.35 48 36.54 48zM36.54 20.69c-7.26 0-13.16 5.9-13.16 13.16 0 7.26 5.9 13.16 13.16 13.16S49.7 41.1 49.7 33.84C49.7 26.59 43.8 20.69 36.54 20.69z">
    </path>
    <path
        d="M36.54 38.6c-2.62 0-4.76-2.13-4.76-4.76s2.13-4.76 4.76-4.76c2.62 0 4.76 2.13 4.76 4.76S39.16 38.6 36.54 38.6zM36.54 30.09c-2.07 0-3.76 1.69-3.76 3.76s1.69 3.76 3.76 3.76 3.76-1.69 3.76-3.76S38.61 30.09 36.54 30.09zM36.54 27.09c-.28 0-.5-.22-.5-.5v-2.75c0-.28.22-.5.5-.5s.5.22.5.5v2.75C37.04 26.87 36.82 27.09 36.54 27.09zM36.54 44.34c-.28 0-.5-.22-.5-.5v-2.75c0-.28.22-.5.5-.5s.5.22.5.5v2.75C37.04 44.12 36.82 44.34 36.54 44.34zM32.92 28.07c-.17 0-.34-.09-.43-.25l-1.38-2.38c-.14-.24-.06-.54.18-.68.24-.14.54-.06.68.18l1.38 2.38c.14.24.06.54-.18.68C33.09 28.04 33 28.07 32.92 28.07zM41.54 43c-.17 0-.34-.09-.43-.25l-1.38-2.38c-.14-.24-.06-.54.18-.68.24-.14.54-.06.68.18l1.38 2.38c.14.24.06.54-.18.68C41.71 42.98 41.63 43 41.54 43zM30.26 30.72c-.08 0-.17-.02-.25-.07l-2.38-1.38c-.24-.14-.32-.44-.18-.68.14-.24.44-.32.68-.18l2.38 1.38c.24.14.32.44.18.68C30.6 30.63 30.43 30.72 30.26 30.72zM45.2 39.34c-.08 0-.17-.02-.25-.07l-2.38-1.38c-.24-.14-.32-.44-.18-.68.14-.24.45-.32.68-.18l2.38 1.38c.24.14.32.44.18.68C45.54 39.25 45.37 39.34 45.2 39.34z">
    </path>
    <g>
        <path
            d="M29.29 34.34h-2.75c-.28 0-.5-.22-.5-.5s.22-.5.5-.5h2.75c.28 0 .5.22.5.5S29.57 34.34 29.29 34.34zM46.54 34.34h-2.75c-.28 0-.5-.22-.5-.5s.22-.5.5-.5h2.75c.28 0 .5.22.5.5S46.82 34.34 46.54 34.34z">
        </path>
    </g>
    <g>
        <path
            d="M27.88 39.34c-.17 0-.34-.09-.43-.25-.14-.24-.06-.54.18-.68l2.38-1.38c.24-.14.54-.06.68.18.14.24.06.54-.18.68l-2.38 1.38C28.05 39.32 27.97 39.34 27.88 39.34zM42.82 30.72c-.17 0-.34-.09-.43-.25-.14-.24-.06-.54.18-.68l2.38-1.38c.24-.14.54-.06.68.18.14.24.06.54-.18.68l-2.38 1.38C42.99 30.7 42.9 30.72 42.82 30.72z">
        </path>
    </g>
    <g>
        <path
            d="M31.54 43c-.08 0-.17-.02-.25-.07-.24-.14-.32-.44-.18-.68l1.38-2.38c.14-.24.44-.32.68-.18.24.14.32.44.18.68l-1.38 2.38C31.88 42.92 31.71 43 31.54 43zM40.17 28.07c-.08 0-.17-.02-.25-.07-.24-.14-.32-.44-.18-.68l1.38-2.38c.14-.24.45-.32.68-.18.24.14.32.44.18.68l-1.38 2.38C40.51 27.98 40.34 28.07 40.17 28.07z">
        </path>
    </g>
</svg>