<?xml version="1.0" encoding="utf-8"?>
<!-- Generator: Adobe Illustrator 25.4.1, SVG Export Plug-In . SVG Version: 6.00 Build 0)  -->
<svg version="1.1" id="SvgjsSvg1001" xmlns:svgjs="http://svgjs.com/svgjs"
	 xmlns="http://www.w3.org/2000/svg" xmlns:xlink="http://www.w3.org/1999/xlink" x="0px" y="0px" viewBox="0 0 256 256"
	 style="enable-background:new 0 0 256 256;" xml:space="preserve">
<style type="text/css">
	.st0{fill:#FFFFFF;}
	.st1{opacity:0.1;fill:#010101;enable-background:new    ;}
	.st2{fill:#FFFA4D;}
	.st3{fill:#FABB04;}
	.st4{fill:#FCDD92;}
	.st5{fill:#F5C560;}
	.st6{opacity:0.3;fill:#FFFFFF;enable-background:new    ;}
	.st7{fill:none;}
</style>
<g id="SvgjsG1008">
	<path class="st0" d="M235.5,224.8h-215c-7.1,0-12.8-5.7-12.8-12.8V20.3c0-7.1,5.7-12.8,12.8-12.8h215c7.1,0,12.8,5.7,12.8,12.8
		v191.8C248.3,219.1,242.5,224.8,235.5,224.8z"/>
	<path class="st1" d="M248.3,20.3V212c0,7.1-5.7,12.8-12.8,12.8h-215c-7.1,0-12.8-5.7-12.8-12.8v-12h203c7,0,12.8-5.7,12.8-12.8V7.5
		h12C242.5,7.5,248.3,13.3,248.3,20.3z"/>
	<rect x="27.8" y="27.6" class="st0" width="200.4" height="177.1"/>
	<path class="st1" d="M228.2,27.6v177.1H27.8v-17.1h7.8c92.2,0,168-70.2,176.9-160L228.2,27.6L228.2,27.6z"/>
	<rect x="36.8" y="224.8" class="st2" width="54.8" height="23.6"/>
	<path class="st1" d="M91.6,224.8v23.6H36.8v-8.2h27.9c8.5,0,15.5-6.9,15.5-15.5H91.6z"/>
	<rect x="164.3" y="224.8" class="st2" width="54.9" height="23.6"/>
	<path class="st1" d="M219.2,224.8v23.6h-54.9v-8.2h27.9c8.5,0,15.5-6.9,15.5-15.5H219.2z"/>
	<path class="st3" d="M248.3,54v41.2c0,1.6-1.3,2.9-2.9,2.9h-31.2c-1.6,0-2.9-1.3-2.9-2.9V54c0-1.6,1.3-2.9,2.9-2.9h31.3
		C247,51.1,248.3,52.4,248.3,54z M248.3,137.1v41.2c0,1.6-1.3,2.9-2.9,2.9h-31.2c-1.6,0-2.9-1.3-2.9-2.9v-41.3
		c0-1.6,1.3-2.9,2.9-2.9h31.3C247,134.2,248.3,135.5,248.3,137.1z"/>
	<path class="st1" d="M248.3,137.1v41.2c0,1.6-1.3,2.9-2.9,2.9h-31.2c-1.6,0-2.9-1.3-2.9-2.9v-2.7c8,0,15.3-3.2,20.5-8.5
		c5.3-5.2,8.5-12.5,8.5-20.5v-12.4h5.1C247,134.2,248.3,135.5,248.3,137.1z M248.3,54v41.2c0,1.6-1.3,2.9-2.9,2.9h-31.2
		c-1.6,0-2.9-1.3-2.9-2.9v-2.7c8,0,15.3-3.2,20.5-8.5c5.3-5.2,8.5-12.5,8.5-20.5V51.1h5.1C247,51.1,248.3,52.4,248.3,54z"/>
	<circle class="st4" cx="135" cy="116.2" r="53.3"/>
	<path class="st1" d="M188.3,116.2c0,29.4-23.8,53.3-53.3,53.3c-17,0-32.2-8-41.9-20.5c9,7,20.3,11.1,32.6,11.1
		c29.5,0,53.3-23.9,53.3-53.3c0-12.4-4.2-23.8-11.3-32.8C180.2,83.8,188.3,99,188.3,116.2z"/>
	<path class="st5" d="M135,89.4c-14.8,0-26.8,12-26.8,26.8c0,14.8,12,26.8,26.8,26.8c14.8,0,26.9-12,26.9-26.8
		C161.8,101.4,149.8,89.4,135,89.4z"/>
	<path class="st1" d="M161.8,116.2c0,14.8-12,26.8-26.9,26.8c-9.7,0-18.2-5.1-22.9-12.8c4.1,2.5,8.9,3.9,14,3.9
		c14.8,0,26.9-12,26.9-26.8c0-5.1-1.5-9.9-4-14C156.7,98,161.8,106.5,161.8,116.2z"/>
	<path class="st6" d="M174.6,80.5c-40.4,2.6-72.7,34.9-75.2,75.3c-10.8-9.8-17.6-23.9-17.6-39.6c0-29.4,23.8-53.3,53.3-53.3
		C150.7,62.9,164.8,69.7,174.6,80.5z"/>
	<g>
		<line class="st7" x1="54.8" y1="76.3" x2="54.8" y2="156.1"/>
		<path d="M235.5,2.5h-215c-9.8,0-17.8,8-17.8,17.8v191.8c0,9.8,8,17.8,17.8,17.8h11.3v18.6c0,2.8,2.2,5,5,5h54.8c2.8,0,5-2.2,5-5
			v-18.6h62.7v18.6c0,2.8,2.2,5,5,5h54.8c2.8,0,5-2.2,5-5v-18.6h11.3c9.8,0,17.8-8,17.8-17.8c0-57.9,0-128.5,0-191.8
			C253.3,10.5,245.3,2.5,235.5,2.5z M243.2,176.2h-27v-37h27V176.2z M243.2,93.1h-27v-37h27V93.1z M223.2,46.1h-9.1
			c-4.3,0-7.9,3.5-7.9,7.9v41.3c0,4.4,3.6,7.9,7.9,7.9h9v26.1h-9.1c-4.3,0-7.9,3.5-7.9,7.9v41.3c0,4.4,3.6,7.9,7.9,7.9h9v13.4H32.8
			V32.6h190.3V46.1z M233.2,129.2v-26.1h10v26.1H233.2z M86.6,243.5H41.8v-13.6h44.8V243.5z M214.2,243.5h-44.8v-13.6h44.8
			L214.2,243.5L214.2,243.5z M235.5,219.8c-109.2,0-156.7,0-215,0c-4.3,0-7.8-3.5-7.8-7.8V20.3c0-4.3,3.5-7.8,7.8-7.8h215
			c4.3,0,7.8,3.5,7.8,7.8v25.8h-10V27.6c0-2.8-2.2-5-5-5H27.8c-2.8,0-5,2.2-5,5v177.1c0,2.8,2.2,5,5,5h200.4c2.8,0,5-2.2,5-5v-18.5
			h10v25.8C243.2,216.3,239.8,219.8,235.5,219.8z"/>
		<path d="M109.3,134.8l-3.1,3.1c-2,2-2,5.1,0,7.1c2,2,5.1,2,7.1,0l3.1-3.1c4,2.9,8.6,4.8,13.6,5.7v4.4c0,2.8,2.2,5,5,5s5-2.2,5-5
			v-4.4c5-0.8,9.7-2.8,13.6-5.7l3.1,3.1c2,2,5.1,2,7.1,0c2-2,2-5.1,0-7.1l-3.1-3.1c2.9-4,4.8-8.6,5.7-13.6h4.4c2.8,0,5-2.2,5-5
			s-2.2-5-5-5h-4.4c-0.8-5-2.8-9.7-5.7-13.6l3.1-3.1c2-2,2-5.1,0-7.1c-2-2-5.1-2-7.1,0l-3.1,3.1c-4-2.9-8.6-4.8-13.6-5.7v-4.4
			c0-2.8-2.2-5-5-5s-5,2.2-5,5v4.4c-5,0.8-9.7,2.8-13.6,5.7l-3.1-3.1c-2-2-5.1-2-7.1,0c-2,2-2,5.1,0,7.1l3.1,3.1
			c-2.9,4-4.8,8.6-5.7,13.6h-4.4c-2.8,0-5,2.2-5,5s2.2,5,5,5h4.4C104.4,126.2,106.4,130.9,109.3,134.8z M135,94.4
			c12,0,21.8,9.8,21.8,21.8c0,12-9.8,21.8-21.8,21.8c-12,0-21.8-9.8-21.8-21.8C113.2,104.2,123,94.4,135,94.4z"/>
		<path d="M135,174.5c32.2,0,58.3-26.2,58.3-58.3S167.1,57.9,135,57.9S76.7,84,76.7,116.2S102.8,174.5,135,174.5z M135,67.9
			c26.6,0,48.3,21.7,48.3,48.3c0,26.6-21.7,48.3-48.3,48.3s-48.3-21.7-48.3-48.3C86.7,89.6,108.4,67.9,135,67.9z M54.8,161.1
			c2.8,0,5-2.2,5-5V76.3c0-2.8-2.2-5-5-5s-5,2.2-5,5v79.8C49.7,158.9,52,161.1,54.8,161.1z"/>
	</g>
</g>
</svg>
