<?xml version="1.0" encoding="utf-8"?>
<!-- Generator: Adobe Illustrator 25.4.1, SVG Export Plug-In . SVG Version: 6.00 Build 0)  -->
<svg version="1.1" id="SvgjsSvg1014" xmlns:svgjs="http://svgjs.com/svgjs"
	 xmlns="http://www.w3.org/2000/svg" xmlns:xlink="http://www.w3.org/1999/xlink" x="0px" y="0px" viewBox="0 0 256 256"
	 style="enable-background:new 0 0 256 256;" xml:space="preserve">
<style type="text/css">
	.st0{fill:#FABB04;}
	.st1{fill:#FFFFFF;}
</style>
<g id="SvgjsG1016">
	<path class="st0" d="M208,256H48c-26.5,0-48-21.5-48-48V48C0,21.5,21.5,0,48,0h160c26.5,0,48,21.5,48,48v160
		C256,234.5,234.5,256,208,256z"/>
	<path class="st1" d="M177,133H84c-2.8,0-5-2.2-5-5v0c0-2.8,2.2-5,5-5h93c2.8,0,5,2.2,5,5v0C182,130.8,179.8,133,177,133z"/>
</g>
</svg>
