<?xml version="1.0" encoding="utf-8"?>
<!-- Generator: Adobe Illustrator 25.4.1, SVG Export Plug-In . SVG Version: 6.00 Build 0)  -->
<svg version="1.1" id="offers" xmlns="http://www.w3.org/2000/svg" xmlns:xlink="http://www.w3.org/1999/xlink" x="0px" y="0px"
	 viewBox="0 0 512 512" style="enable-background:new 0 0 512 512;" xml:space="preserve">
<style type="text/css">
	.st0{fill:#FED947;}
	.st1{fill:#FFFFFF;}
	.st2{fill:#EB304A;}
	.st3{fill:#FECC30;}
	.st4{fill:#F8BE32;}
	.st5{fill:#FED030;}
	.st6{fill:#17A454;}
	.st7{fill:#E2E2E2;}
</style>
<path class="st0" d="M432.5,504.6h-353c-16.6,0-30-13.4-30-30l0,0v-275h413v275C462.5,491.1,449.1,504.6,432.5,504.6L432.5,504.6z"
	/>
<path class="st1" d="M350,395.1c-1.4,6.8-14.2,9.6-17,15.6c-2.9,6.2,3.1,17.8-1,23.1s-17,2.4-22.2,6.7s-4.8,17.4-10.9,20.4
	s-16.3-5.2-22.9-3.5s-11.9,13.5-18.7,13.6c-6.6,0.1-12.3-11.7-19.1-13.1s-16.7,7-22.8,4.2c-6.2-2.9-6.2-16-11.5-20.1
	s-18.1-0.9-22.3-6.1s1.4-17-1.6-23.1s-15.9-8.5-17.5-15.1s8.7-14.6,8.6-21.5c-0.1-6.6-10.6-14.5-9.1-21.2s14.2-9.6,17-15.6
	c2.9-6.2-3.1-17.8,1-23.1s17-2.4,22.2-6.7s4.8-17.4,10.9-20.4s16.3,5.2,22.9,3.5s11.8-13.6,18.7-13.6c6.6-0.1,12.3,11.7,19,13.1
	s16.7-7,22.8-4.2c6.2,2.9,6.2,16,11.5,20.1s18,0.9,22.3,6.1s-1.4,17,1.6,23.1s15.9,8.5,17.5,15.1s-8.7,14.6-8.6,21.5
	C340.9,380.5,351.4,388.3,350,395.1z"/>
<path class="st1" d="M178.6,60.5c-17.4,17.4-17.4,45.5,0,62.9c6.6,6.6,15,10.9,24.1,12.4l0,0c17.6-3.7,35.8-3.5,53.3,0.5h-65.2
	c-36,0-65.2-28.9-65.2-64.4s29.2-64.4,65.2-64.4S256,36.3,256,71.8v20c0-24.6-19.9-44.4-44.5-44.4H210
	C198.2,47.4,186.9,52.1,178.6,60.5z"/>
<path class="st1" d="M256,136.3L256,136.3l-46,0.1c-0.8,0-1.6,0-2.4-0.1c-1.6-0.1-3.3-0.3-4.9-0.5
	C220.3,132.1,238.5,132.3,256,136.3z M386.4,71.9c0,35.5-29.2,64.4-65.2,64.4h-65c17.4-4,35.5-4.2,53.1-0.5
	c24.2-4,40.6-26.9,36.6-51.2c-3.6-21.5-22.1-37.2-43.9-37.2h-1.5c-24.6,0-44.5,19.9-44.5,44.5v-20c0-35.5,29.2-64.4,65.2-64.4
	S386.4,36.3,386.4,71.9z"/>
<path class="st2" d="M309.2,135.8c-1.5,0.3-3.1,0.4-4.6,0.5c-0.9,0.1-1.7,0.1-2.6,0.1h-46v-0.1h0.2
	C273.6,132.3,291.7,132.1,309.2,135.8z"/>
<path class="st3" d="M432.5,199.6v275c0,16.6-13.4,30-30,30l0,0h30c16.6,0,30-13.4,30-30l0,0v-275H432.5z"/>
<path class="st3" d="M57.5,136.6h397c16.6,0,30,13.4,30,30v18c0,16.6-13.4,30-30,30h-397c-16.6,0-30-13.4-30-30v-18
	C27.5,150,40.9,136.6,57.5,136.6z"/>
<path class="st4" d="M454.5,136.6h-30c16.6,0,30,13.4,30,30v18c0,16.6-13.4,30-30,30l0,0h30c16.6,0,30-13.4,30-30l0,0v-18
	C484.5,150,471.1,136.6,454.5,136.6z"/>
<path class="st1" d="M256,143.8c-4.1,0-7.5-3.4-7.5-7.5l0,0V66.6c0-4.1,3.5,0,7.6,0s7.4-4.1,7.4,0v69.8
	C263.5,140.5,260.1,143.8,256,143.8L256,143.8z"/>
<path class="st3" d="M378.8,280.6l-28.7-28.9l-35.9,29.8c5.8-22.2,4.8-45.5-2.7-67.1c-14.4-40.4-47.2-58.8-55.4-63.1H256h0.2
	c17.4-4,35.5-4.2,53.1-0.5c0.8,0.2,1.5,0.3,2.3,0.5c29,6.8,53.2,24.4,65.7,48.8C395.5,236.1,381.6,273.5,378.8,280.6z M256,151.3
	l-0.1,0.1c-8.3,4.3-41,22.7-55.4,63c-7.6,21.6-8.5,45-2.7,67.1l-35.9-29.8l-28.7,28.9c-2.8-7.1-16.8-44.6,1.6-80.5
	c12.5-24.4,36.6-41.9,65.5-48.8c0.8-0.2,1.6-0.4,2.3-0.5l0,0C220.3,147.1,238.5,147.3,256,151.3z"/>
<polygon class="st1" points="285.5,214.6 254.5,229.6 226.5,214.6 227.1,136.6 284.8,136.6 "/>
<path class="st1" d="M378.8,265.6l-28.7-28.9l-35.9,29.8c5.8-22.2,4.8-45.5-2.7-67.1c-14.4-40.4-47.2-58.8-55.4-63.1H256h0.2
	c17.4-4,35.5-4.2,53.1-0.5c0.8,0.2,1.5,0.3,2.3,0.5c29,6.8,53.2,24.4,65.7,48.8C395.5,221.1,381.6,258.5,378.8,265.6z M256,136.3
	l-0.1,0.1c-8.3,4.3-41,22.7-55.4,63c-7.6,21.6-8.5,45-2.7,67.1l-35.9-29.8l-28.7,28.9c-2.8-7.1-16.8-44.6,1.6-80.5
	c12.5-24.4,36.6-41.9,65.5-48.8c0.8-0.2,1.6-0.4,2.3-0.5l0,0C220.3,132.1,238.5,132.3,256,136.3z"/>
<path class="st5" d="M357.7,396.7c-1.6,7.3-15.4,10.4-18.4,16.9c-3.1,6.7,3.4,19.3-1,25s-18.4,2.6-24,7.2s-5.2,18.8-11.8,22.1
	s-17.6-5.6-24.8-3.9s-12.8,14.7-20.2,14.9c-7.2,0.1-13.3-12.7-20.6-14.2s-18.1,7.6-24.6,4.6c-6.7-3.1-6.7-17.3-12.4-21.8
	s-19.6-1-24.2-6.6s1.5-18.4-1.8-25s-17.2-9.3-18.9-16.4s9.4-15.9,9.3-23.3c-0.1-7.2-11.5-15.7-9.9-23s15.4-10.4,18.4-16.9
	c3.1-6.7-3.4-19.3,1.1-25s18.4-2.6,24-7.2s5.2-18.9,11.8-22.1s17.6,5.6,24.8,3.9s12.8-14.7,20.2-14.8c7.2-0.1,13.3,12.7,20.6,14.2
	s18.1-7.6,24.6-4.6c6.7,3.1,6.7,17.3,12.4,21.8s19.5,1,24.2,6.6s-1.5,18.4,1.8,25s17.2,9.3,18.9,16.4s-9.4,15.9-9.3,23.3
	C347.9,380.9,359.3,389.4,357.7,396.7z"/>
<path class="st6" d="M223.3,457.9c-3-0.6-6.7,0.7-10.3,2.1c0.7,0.9,1.6,1.6,2.6,2.1c3.2,1.5,7.7-0.3,12.1-2
	C226.4,459,224.9,458.3,223.3,457.9z M258.7,292.1c3.1,0.7,6.9-0.8,10.7-2.2c-5-3.8-9.5-11-14.7-10.9c-2.6,0-5.1,1.8-7.4,4.1
	C251,286.7,254.6,291.3,258.7,292.1z M221,292.6c1.4-0.4,2.8-1.1,3.9-2.1c-4.3-1.5-8.6-3-11.8-1.5c-0.9,0.4-1.6,1.1-2.2,1.8
	C214.5,292.2,218.1,293.4,221,292.6z M261,457.4c-4,1-7.5,5.9-11.3,9.5c2.5,2.3,5,4.2,7.6,4.1c5.4-0.1,9.9-7.6,14.8-11.5
	C268.2,458,264.2,456.6,261,457.4z"/>
<rect x="226.5" y="214.6" class="st1" width="59" height="290"/>
<path class="st5" d="M285.5,283.3V465c-2.8-0.9-5.5-1.4-7.8-0.8c-7,1.7-12.8,14.7-20.2,14.8c-7.2,0.1-13.3-12.7-20.6-14.2
	c-3-0.6-6.7,0.5-10.3,1.9V285c2.8,0.9,5.5,1.4,7.8,0.8c7-1.7,12.8-14.7,20.2-14.8c7.2-0.1,13.3,12.7,20.6,14.2
	C278.2,285.9,281.8,284.7,285.5,283.3z"/>
<path class="st1" d="M350,395.1c-1.4,6.8-14.2,9.6-17,15.6c-2.9,6.2,3.1,17.8-1,23.1s-17,2.4-22.2,6.7s-4.8,17.4-10.9,20.4
	s-16.3-5.2-22.9-3.5s-11.9,13.5-18.7,13.6c-6.6,0.1-12.3-11.7-19.1-13.1s-16.7,7-22.8,4.2c-6.2-2.9-6.2-16-11.5-20.1
	s-18.1-0.9-22.3-6.1s1.4-17-1.6-23.1s-15.9-8.5-17.5-15.1s8.7-14.6,8.6-21.5c-0.1-6.6-10.6-14.5-9.1-21.2s14.2-9.6,17-15.6
	c2.9-6.2-3.1-17.8,1-23.1s17-2.4,22.2-6.7s4.8-17.4,10.9-20.4s16.3,5.2,22.9,3.5s11.8-13.6,18.7-13.6c6.6-0.1,12.3,11.7,19,13.1
	s16.7-7,22.8-4.2c6.2,2.9,6.2,16,11.5,20.1s18,0.9,22.3,6.1s-1.4,17,1.6,23.1s15.9,8.5,17.5,15.1s-8.7,14.6-8.6,21.5
	C340.9,380.5,351.4,388.3,350,395.1z"/>
<path class="st7" d="M340.8,373.8c-0.1-6.9,10.1-15,8.6-21.5s-14.5-9.1-17.5-15.1s2.7-17.8-1.6-23.1s-17-1.9-22.3-6.1
	s-5.3-17.2-11.5-20.1c-3.3-1.5-7.9,0.4-12.4,2.1c3.8,4.8,4.5,14.5,8.9,18c5.4,4.2,18,0.9,22.3,6.1s-1.4,17,1.6,23.1
	s15.9,8.5,17.5,15.1s-8.7,14.6-8.6,21.5c0.1,6.6,10.6,14.5,9.1,21.2s-14.2,9.6-17,15.6c-2.9,6.2,3.1,17.8-1,23.1s-17,2.4-22.2,6.7
	c-4.5,3.7-4.9,13.9-8.7,18.6c4.7,1.7,9.4,3.5,12.8,1.8c6.1-3,5.7-16.1,10.9-20.4s18-1.3,22.2-6.7s-1.9-16.9,1-23.1
	c2.8-6,15.6-8.9,17-15.6S340.9,380.5,340.8,373.8z"/>
<path d="M220.7,416.8c-4.1,0-7.5-3.4-7.5-7.5c0-2,0.8-3.9,2.2-5.3l69.6-69.6c3.1-2.8,7.8-2.5,10.6,0.6c2.6,2.8,2.6,7.1,0,10
	L226,414.6C224.6,416,222.7,416.8,220.7,416.8z M284.8,426.5c-12.6,0-22.8-10.2-22.8-22.8c0-12.6,10.2-22.8,22.8-22.8
	c12.6,0,22.8,10.2,22.8,22.8c0,6-2.4,11.8-6.7,16.1l0,0C296.6,424.2,290.8,426.6,284.8,426.5z M295.6,414.5L295.6,414.5z M284.8,396
	c-4.3,0-7.8,3.5-7.8,7.8s3.5,7.8,7.8,7.8s7.8-3.5,7.8-7.8c0-2.1-0.8-4-2.3-5.5S286.8,396,284.8,396z M227.2,369
	c-12.6,0-22.8-10.2-22.7-22.8c0-12.6,10.2-22.8,22.8-22.7c12.6,0,22.8,10.2,22.7,22.8c0,6-2.4,11.8-6.7,16.1
	C239,366.6,233.2,369,227.2,369z M227.2,338.5c-4.3,0-7.7,3.5-7.7,7.8s3.5,7.7,7.8,7.7s7.7-3.5,7.7-7.8c0-2-0.8-4-2.3-5.5
	C231.3,339.3,229.3,338.4,227.2,338.5L227.2,338.5z"/>
</svg>
