<?xml version="1.0" encoding="utf-8"?>
<!-- Generator: Adobe Illustrator 25.4.1, SVG Export Plug-In . SVG Version: 6.00 Build 0)  -->
<svg version="1.1" id="Layer_1" xmlns="http://www.w3.org/2000/svg" xmlns:xlink="http://www.w3.org/1999/xlink" x="0px" y="0px"
	 viewBox="0 0 3159.7 2174.7" style="enable-background:new 0 0 3159.7 2174.7;" xml:space="preserve">
<style type="text/css">
	.st0{fill:#FFFFFF;fill-opacity:0;}
	.st1{fill:#EDE3CC;}
	.st2{fill:#DB8545;}
	.st3{opacity:0.15;fill:#E7A164;enable-background:new    ;}
	.st4{fill:#E7A164;}
	.st5{fill:#C16B30;}
	.st6{fill:#E5AD88;}
	.st7{fill:#DA1928;}
	.st8{opacity:0.4;fill:#E7A164;enable-background:new    ;}
	.st9{fill:#B6120B;}
	.st10{fill:#19554F;}
	.st11{fill:#3ECAA1;}
	.st12{fill:#2A926E;}
	.st13{fill:none;stroke:#1C1C1B;stroke-width:4.513;stroke-miterlimit:10;}
	.st14{fill:#161310;}
	.st15{fill:#F19A6D;}
	.st16{fill:#EE6A4A;}
	.st17{fill:#F5927E;}
	.st18{fill:#299EF7;}
	.st19{fill:#0071B8;}
	.st20{fill:#0F1231;}
	.st21{fill:#0E0D0B;}
	.st22{fill:#383939;}
	.st23{fill:#FFFFFF;}
	.st24{fill:#7F6036;}
	.st25{fill:#9F845A;}
	.st26{fill:#5E4220;}
	.st27{opacity:0.37;fill:#7F6036;enable-background:new    ;}
	.st28{fill:#1A2E35;}
	.st29{fill:#404040;}
	.st30{fill:#9C9C9C;}
	.st31{fill:#F68B00;}
	.st32{fill:#375A64;}
	.st33{opacity:0.51;fill:#262626;enable-background:new    ;}
	.st34{fill:#757575;}
	.st35{fill:#5C9867;}
	.st36{fill:#FFC043;}
	.st37{fill:#FDD305;}
	.st38{fill:#E43864;}
	.st39{fill:#002C6B;}
	.st40{fill:#003D82;}
	.st41{opacity:0.33;fill:#212123;enable-background:new    ;}
	.st42{fill:#25C1DC;}
	.st43{fill:#B3B3B3;}
	.st44{fill:#D8822D;}
	.st45{fill:#EBEBEB;}
	.st46{fill:#F9D32F;}
	.st47{fill:#212123;}
	.st48{fill:#6B8EC8;}
	.st49{filter:url(#Adobe_OpacityMaskFilter);}
	.st50{clip-path:url(#SVGID_00000154417359196987143680000011195856441177648000_);}
	
		.st51{clip-path:url(#SVGID_00000173846297961825456950000012617860459029972883_);fill:url(#SVGID_00000000212580820681973310000011081974030458846634_);}
	.st52{mask:url(#c_00000066491122105419751670000007164917419186512815_);}
	.st53{fill:#E84B4B;}
	.st54{fill:#F4AD2E;}
	.st55{fill:#FFCC4D;}
	.st56{fill:#D75C14;}
	.st57{fill:#FFEA4D;}
</style>
<g>
	<rect x="-151.9" y="-198.6" class="st0" width="3460.5" height="2617.4"/>
	<path class="st1" d="M2900.1,1295.5c-16.8,204-124.3,355.9-219,452.3c-61,62.1-116.6,101.1-139.2,116.1
		c-30.8,20.6-62.3,39.9-94.3,57.9c-6,3.4-13.8,8.5-22.5,14h2.4c0,0-274.8,180.5-777.5,180.9c-227.2,0.2-413.4-23.1-565-58.5
		c-46.1-10.8-89.1-22.6-128.9-35.4c-6.4-2-12.6-4.1-18.8-6.1c-13.3-4.4-26.3-9-38.9-13.6c-54.1-19.7-102-40.8-144.1-62.3
		c-84.9-43.4-152-114-200.9-183.3c-52.2-74-83.7-146.6-94.2-183.2C418.3,1431,323.9,833.2,971.6,343
		c502.2-380.1,1210.1-256.4,1340.9,14.2c40.1,83.1,37.5,186.3-0.7,299.2c74.3,15.1,166.3,38.8,255.4,79.6
		c44.1,20.2,87.4,44.6,127.6,74.3C2823.8,905.8,2919.9,1055.8,2900.1,1295.5z"/>
	<rect x="1612.6" y="903.9" class="st2" width="637.9" height="722.3"/>
	<rect x="1612.6" y="1574.9" class="st3" width="637.9" height="51.4"/>
	<polygon class="st4" points="2250.5,1626.3 2408.2,1441.3 2408.2,719 2250.5,903.9 	"/>
	<polygon class="st5" points="2250.5,1626.3 2408.2,1441.3 2408.2,719 2250.5,903.9 	"/>
	<polygon class="st6" points="1768.9,719 1728.2,768.4 1612.6,903.9 2250.5,903.9 2408.2,719 2292.6,719 	"/>
	<polygon class="st7" points="2039.4,719 1886.2,903.9 1886.2,1049.5 1976.8,1049.5 1976.8,903.9 1976.9,903.9 2130.1,719 	"/>
	<rect x="1697" y="1477.8" class="st8" width="469" height="10.9"/>
	<rect x="1697" y="1510.2" class="st8" width="469" height="10.9"/>
	<rect x="1697" y="1542.6" class="st8" width="469" height="10.9"/>
	<rect x="1794.1" y="302.2" class="st2" width="471.6" height="534"/>
	<rect x="1794.1" y="799.7" class="st3" width="471.6" height="36.6"/>
	<polygon class="st4" points="2265.7,836.2 2382.3,699.5 2382.3,165.5 2265.7,302.2 	"/>
	<polygon class="st5" points="2265.7,836.2 2382.3,699.5 2382.3,165.5 2265.7,302.2 	"/>
	<polygon class="st6" points="2265.7,302.2 2382.3,165.5 1910.7,165.5 1794.1,302.2 	"/>
	<polygon class="st7" points="2317.4,243.6 1838.3,243.6 1871.2,211.8 2342.8,211.8 	"/>
	<polygon class="st7" points="2113,165.5 1996.4,302.2 1996.4,409.8 2063.3,409.8 2063.3,302.2 2063.4,302.2 2180,165.5 	"/>
	<polygon class="st9" points="1931.9,696.3 1996.4,598.7 1957.3,598.7 1957.3,442.3 1906.6,442.3 1906.6,598.7 1867.4,598.7 	"/>
	<polygon class="st9" points="2192.3,598.7 2153.2,598.7 2153.2,442.3 2102.5,442.3 2102.5,598.7 2063.4,598.7 2127.8,696.3 	"/>
	<rect x="1856.5" y="726.5" class="st8" width="346.7" height="8"/>
	<rect x="1856.5" y="750.4" class="st8" width="346.7" height="8"/>
	<rect x="1856.5" y="774.4" class="st8" width="346.7" height="8"/>
	<path class="st10" d="M2406.1,449.9c2.9-4.9,6.2-9.4,9.9-13.4c31-33.7,71-15.8,102.5,7.1c70.6,51,147.1,133.8,177,248.8
		c32.9,126.5,39.9,271.7,47,409.7c1,19.1,6.4,58.6,2.3,85.3c-12-3.1-24.1-5.8-36.3-6.9c-5.5-17.3-9.8-37-12.9-47.4
		c-36.8-121.6-87.1-233-152.8-319.3c-58.3-76.6-130.7-118.4-153.3-244.7C2382.5,529.8,2387.4,481.2,2406.1,449.9z"/>
	<path class="st11" d="M2771.7,1191.1l-13.5-2.3c0.1-0.3,0.1-0.6,0.2-0.9c1.5-6.7,3.6-13,5.3-20.3c3-13,5.9-25.8,9.7-38.6
		c8.2-27.8,17.7-54.8,26.7-82c14.5-43.5,30.1-86.6,50.1-125.3c20.4-39.4,45.8-74.2,75.6-92.9c71.5-44.9,182.9,7.3,198.8,126.5
		c5.3,39.3-3.2,86.5-25.1,112.9c-10.5,12.7-23.3,19.8-36,23.4c-16.9,4.9-34.7,3.6-50.9-3.7c-39.2-17.8-83.6-45.1-127.9-34.9
		c-4.6,1.1-9,2.6-13.3,4.7c-23.6,11.2-44.1,35.9-62.2,62.3C2794.4,1141.4,2779.8,1163.2,2771.7,1191.1z"/>
	<path class="st12" d="M2823,930.9c-12.7,41.3-23.3,83.8-33.3,126.5c-5,21.2-28.1,95.6-32.2,133.1l-1.4-0.3l-11.3-3
		c-7.5-36.1,0.6-74.2,0.9-113.5c1.3-152.5-9-321.8,34.3-469.4c25-85.3,66.3-164.5,120.8-205.9c54.5-41.4,122.6-38,162.7,21.8
		c7.6,11.4,14.2,24.8,17.3,40.8c7.5,39.7-8.6,84.4-27.7,117.8c-16.3,28.5-35.4,53.4-56.3,73.4c-21.8,20.8-45.5,36.2-66.7,58.5
		c-25.1,26.4-45.5,60.9-62.9,99C2849.9,848.1,2835.7,889.9,2823,930.9z"/>
	<path class="st13" d="M2727,1176.6c-33.5-190.4-65.2-399.8-160.7-533c-26.2-36.6-55-68.5-83.7-100.3L2727,1176.6z M2764.9,1186.8
		c42.6-99.4,81.9-182.4,149.2-217.3c43.4-21.5,85.9-8.4,123.5,3.9L2764.9,1186.8z M2926.6,565.4
		C2788,698.8,2782.1,964.3,2751,1180.8L2926.6,565.4z"/>
	<path class="st10" d="M732.3,688.8c-4.2-4.2-8.8-7.8-13.7-10.9c-40.7-25.4-78,6.1-105.3,39.9c-61.1,75.7-120.5,186.4-123.4,315.9
		c-3.1,142.5,25.3,296.2,52,442.6c3.7,20.2,7.7,63.3,18.6,89.7c11.7-7,23.7-13.7,36.2-18.8c1.4-19.8,1.1-41.8,1.8-53.6
		c8.4-138.6,33.5-270.9,80.8-381.8c42-98.4,107.2-165.1,99.6-304C776.6,764.8,759.5,715.6,732.3,688.8z"/>
	<path class="st11" d="M533.3,1578.6l13.6-6.7c-0.1-0.3-0.3-0.6-0.4-0.9c-3.2-6.5-7-12.5-10.5-19.5c-6.3-12.7-12.6-25.1-19.6-37.2
		c-15.4-26.4-31.9-51.6-48.1-77.1c-25.9-40.8-52.8-80.8-83.2-114.9c-31-34.7-66.2-62.9-101.9-73c-85.7-24.2-189.1,65.6-176.4,195.1
		c4.2,42.7,24.7,89.3,54.1,109.9c14.1,9.9,29.2,13.3,43.3,13c18.8-0.2,37.1-7.2,52.2-20c36.6-31.1,76.2-73.6,125-77
		c5-0.3,10-0.1,15,0.7c27.4,4.2,54.9,23.5,80.3,45.3C497.4,1533.9,517.9,1552,533.3,1578.6z"/>
	<path class="st12" d="M415.6,1323.3c23.4,39.1,45,80.1,66,121.5c10.4,20.5,52.9,90.9,66.4,128.7l1.4-0.7l11.1-6.7
		c-1.1-40-18.9-77.3-28.9-118.2c-39-158.8-69.9-338.8-151.5-479c-47.2-81.1-109.8-150.7-176.8-176.6
		c-67.1-25.9-137.4-0.7-164.4,74.4c-5.2,14.3-8.8,30.4-7.9,48.1c2,43.8,29.8,85.4,58,114.2c24.1,24.6,50.2,44.5,76.9,58.7
		c27.9,14.8,56.4,23.3,84.1,39.9c32.7,19.6,62.6,49.1,90,83.4S392.3,1284.5,415.6,1323.3z"/>
	<path class="st13" d="M576.4,1549.2c-12-209.3-30.5-438,36.4-607.4c18.3-46.5,40.5-88.9,62.6-131.3L576.4,1549.2z M539.3,1571.9
		c-69-90.2-130.5-164.4-209.3-179.4c-50.6-8.7-91.8,18.5-127.9,43.3L539.3,1571.9z M217.4,974.6c177.5,95.2,249.1,370.5,335,586.6
		L217.4,974.6z"/>
	<path class="st14" d="M732.1,1638.3c0,0-22.6,179.1-13.9,183.1s556.5,0,556.5,0l-18.2-183.1H732.1z"/>
	<path class="st15" d="M1883.3,1076.2c-13.2,4.5-80.7,5.2-80.7,5.2s59.2,4.9,63.8,6.8c4.6,1.9,9.5,4.9-5.5,18.2
		c-13.5,11.9-63.4,9-74.3,8c8.7,1.2,42.3,6.1,49.6,9.1c8.6,3.5-5.5,21.6-18.4,25.4c-12.9,3.8-88.8,5.6-88.8,5.6
		s-20.3,14.5-28.8,17.3c-3.3,1-6.8,1.7-10.2,1.9c-3.7,0.3-7.5,0.3-11.2,0.1l-25.3,23.2c-9.4-6.7-19.6-16.6-29.4-31.3
		c-10.5-15.8-15.8-29.4-18.1-40.6l23.5-23.7l2.9-2.7c14.9-13.9,82.7-76.6,98.5-89.3c17.8-14.2,78.2,4.9,123.1,3.7
		c44.8-1.2,58.5,0,55.9,13.6c-2.2,11.5-66.5,21.7-87.3,23.8c15.6-0.1,54.9,1,66,0.8C1902.9,1051.5,1896.5,1071.7,1883.3,1076.2z"/>
	<path class="st16" d="M1774,1005.7c0,0-49.6,38.1-50.8,70.4c-0.8,22.3-12.6,31-19.9,34.4c-1.9,0.2-3.8,0.8-5.6,1.9
		c-13.8,8.5-36.5,6.3-36.5,6.3l-2.2-44.5c25.9-23.9,61-55.9,71.8-64.5C1738.7,1003.5,1754.7,1003.7,1774,1005.7z"/>
	<path class="st15" d="M1679.3,1109.2c-21.4,17.4-44.9,12.7-55.5-7.8s40-99.5,51.3-107.9c11.3-8.4,51.2,2.6,66.2,4.1
		c15,1.5,8.9,22.7-6.5,26.7c-7.5,1.9-15.5,4.1-21.9,5.8c-6.7,1.8-11.5,8.2-12.1,15.9C1699.7,1064.1,1695.3,1096.2,1679.3,1109.2z"/>
	<path class="st17" d="M1636.6,1163.8c-3.2-9.6-1.5-20.4,4.6-28c9.4-11.6,22.4-31.4,20.6-50.3c-4.4-45.8,13.3-92,13.3-92l0,0
		l-1.9,1.7c-14.1,14.2-59.5,86.6-49.4,106.2c0.7,1.3,1.4,2.5,2.2,3.7l-20,20.2c2.3,11.1,7.6,24.7,18.1,40.6
		c9.8,14.7,20,24.7,29.4,31.3l0,0C1645.1,1186.2,1639.9,1173.7,1636.6,1163.8z"/>
	<path class="st18" d="M1676.7,1154c-10.3-57-27.6-148.6-32.1-148.7c-4.2-0.1-146.2,75-245.8,127.9c-33.5-76.7-64.8-149.3-84.9-206
		c-27.2-76.8-70.3-144.7-139-172.6c-29.7-12.1-61.4-23.1-89.6-29.1C964.6,723.2,940.9,700,940.9,700
		c-28.9,15.4-93.1,40.9-149.4,62.4c-63.7,24.2-111,114.9-138.6,184.4c-61.4,154.7-116.8,388-110.7,457.9
		c9.5,107,48.1,145.5,97.9,169.2c4.5,2.1,10.3,3,16.9,3c21.6,0,51.1-9.6,66.5-14.9l-6.7,117.2l510.9-0.1h49.9l-5-274.3l0.1,0.1
		c1.9,1.4,43.1,32.1,86.9,6.2c80.9-47.8,324.8-212.8,324.8-212.8S1681.3,1179.7,1676.7,1154z"/>
	<polygon class="st19" points="711.1,1266.1 782.2,1040.8 775.5,1188.6 934.8,1144.4 	"/>
	<path class="st19" d="M1085.5,1679.2c0,0-241-68.9-210.1-149.2c27.1-70.4,65.5-149.6,113.7-198.6L723.5,1562l-6.7,117.2H1085.5z
		 M1684.5,1198.3c0,0-244,164.9-324.8,212.8c-43.8,25.9-85-4.8-86.9-6.2l-0.1-0.1l-16.3-341c0,0,22.5,208.8,82.7,232
		c51.3,19.7,271.1-105.4,337.4-141.7C1681.3,1179.7,1684.5,1198.3,1684.5,1198.3z"/>
	<path class="st15" d="M1100.1,1075.1c-6.2,7.1-7,18.5-1.6,26.3c1.6,2.4,2.8,5.3,3.4,8.3c3.5,16.8-5.2,32.5-5.2,32.5
		s19.1,12.8,4.3,42.3c0,0,10.4,16.7,0,39.4c0,0-48.6,43.3-57.3,51.2c-3.1,2.9-16.5,7.8-32.3,12.9c-27.8,9-63.1,18.6-63.1,18.6
		l-52.1-104.4l35.6-30.5c0,0,19.3-42.2,34.1-73.2c7.8-16.4,14.4-29.7,16.2-32.1c5.2-6.9,62.5-3.9,62.5-3.9s90.7-68.9,99.3-72.9
		c8.7-3.9,13.9,3,12.2,13.8C1154.9,1010.8,1121.1,1050.8,1100.1,1075.1z"/>
	<path class="st16" d="M1011.4,1288c-27.8,9-63.1,18.6-63.1,18.6l-52.1-104.4l35.6-30.5c0,0,19.3-42.2,34.1-73.2
		C980.2,1124,1018.5,1203,1011.4,1288z"/>
	<path class="st18" d="M695.9,1274.4l238.8-130c0,0,31.3,33.3,46.6,97.5c7.8,32.5,7.8,89.6,7.8,89.6L723.5,1562
		c0,0-69.2-49.4-72.8-149.6C647.1,1312.2,695.9,1274.4,695.9,1274.4z"/>
	<path class="st15" d="M928.5,736.8c19.3,43.4,86.6,108.7,86.6,108.7s88.6-68.1,91.9-104.7l-0.3-13.3l-1.7-51l-2.5-107.7
		l-145.6-30.5L928.5,736.8z"/>
	<path class="st15" d="M915.7,514.6c9.1,68.5,62.3,130.8,113.6,155.1c49.1,23.4,106.8,4.9,123.9-19.2c15.8-22.4,20.5-54.7,19-89.8
		c-0.9-18.8-3.2-37.5-6.7-55.9c-13.6-73.8-42.3-142.8-42.3-142.8C1043.7,240,898,379.5,915.7,514.6z"/>
	<path class="st15" d="M-151.9-198.6"/>
	<path class="st20" d="M1066.1,522.9c1.9,6.1-0.2,12.5-4.8,14.4s-9.8-1.5-11.8-7.6c-1.9-6.1,0.2-12.5,4.8-14.4
		C1058.9,513.4,1064.2,516.8,1066.1,522.9z M1152.6,503c1.9,6.1-0.2,12.5-4.8,14.4c-4.6,1.9-9.8-1.5-11.8-7.6
		c-1.9-6.1,0.2-12.5,4.8-14.4C1145.4,493.6,1150.7,497,1152.6,503z"/>
	<path class="st21" d="M1032.1,495c0,0,14.7-18.9,33.7-27.7s3.8-21.6-9.5-19.4C1043.1,450.1,1026.9,479.9,1032.1,495z M1155.1,467.5
		c0,0-17.3-12.6-37.7-10.6c-20.4,2-2.5-20.8,12.2-18.9C1148.6,440.4,1155.1,467.5,1155.1,467.5z M-151.9-198.6"/>
	<path class="st15" d="M965.9,532.1c-6.4-8.5-8.3-23.5-18-25.4c-2.6-0.5-15.1,0.1-21.4,16.6c-4.8,12.3-6.6,26.1-3,38.9
		c3.6,12.8,11.2,23.8,20.3,32.3c4.3,4.1,9.3,7.7,14.8,8.4c5.6,0.7,11.8-2.5,13.6-8.6L965.9,532.1z"/>
	<path class="st22" d="M1140.4,619.7c-0.7,1.5-1.6,3-2.6,4.3c-6.4,9-17.7,14.8-28.6,14.3c-4.7-0.2-9.4-1.7-13.6-4.1
		c-6.6-4-11.7-10.2-13.7-17.6c-1.2-4.2-0.9-9.7,3-12.1c0.9-0.5,1.9-0.8,2.9-1c1.9-0.1,3.8,0,5.7,0.2c10.3,1.1,20.6-0.1,30.5-3.5
		c3.2-1.3,6.5-1.9,9.9-1.9c3,0.1,5.4,1.2,7,3.7C1143.9,607.2,1143,614,1140.4,619.7z"/>
	<path class="st23" d="M1133.7,598.3c0.1,2.9-0.2,5.9-1.7,8.1c-1.6,2.5-4.3,3.7-6.9,4.6c-9.4,3.4-19.4,4.3-29.2,2.8
		c-2.3-0.4-4.8-1-6.4-2.9s-1.9-4.7-1.8-7.4c1.9-0.1,3.8,0,5.7,0.2c10.3,1.1,20.6-0.1,30.5-3.5C1127,598.9,1130.4,598.3,1133.7,598.3
		z"/>
	<path class="st16" d="M1137.8,624c-6.4,9-17.7,14.8-28.6,14.3c-4.7-0.2-9.4-1.7-13.6-4.1c3.3-6,9.5-9.9,15.7-11.7
		C1120,619.6,1129.6,619.9,1137.8,624z"/>
	<path class="st21" d="M931.3,636.4c18.4-8.8,23-23.6,23.4-34.7c-11.6-7.3-25.4-31.5-27.8-56.7c-2.7-29.5,13.7-42.7,24.7-40.1
		c10.8,2.9,22.8,30.6,22.8,30.6l13.6-118.6c0,0,51.7,4.1,107.8,3.4c33-0.4,88.9,0.8,88.9,0.8c-19.4-173.8-143.4-162-220.7-127.4
		c-87.8,39.3-76.5,111.6-76.5,111.6C810.4,481.2,931.3,636.4,931.3,636.4z"/>
	<polygon class="st24" points="2768.9,1538.1 546.5,1538.1 389.9,1722 2925.6,1722 	"/>
	<path class="st25" d="M2925.6,1722v20.3c-52.1,44.4-107.6,83.2-165.9,116.1c-36.7,20.6-74.2,39.9-112.4,57.9
		c-7.1,3.4-16.4,8.5-26.9,14h2.9c0,0-37.7,20.8-110.9,48.2c-142.6,53.5-419.8,132.4-815.7,132.7c-270.8,0.2-492.7-23.1-673.4-58.5
		c-55-10.8-106.2-22.6-153.6-35.4c-7.6-2-15.1-4.1-22.5-6.1c-15.9-4.4-31.3-9-46.4-13.6c-64.5-19.7-121.5-40.8-171.7-62.3
		c-42.2-18.2-82.5-41.6-120.2-69.9c-43.4-32.6-83.4-70.7-119.3-113.4v-30H2925.6z"/>
	<rect x="389.9" y="1722" class="st26" width="2535.7" height="49.1"/>
	<path class="st27" d="M2512.5,1978.6c-142.6,53.5-419.8,132.4-815.7,132.7c-270.8,0.2-492.7-23.1-673.4-58.5
		c-55-10.8-106.2-22.6-153.6-35.4c-7.6-2-15.1-4.1-22.5-6.1c-15.9-4.4-31.3-9-46.4-13.6c-64.5-19.7-121.5-40.8-171.7-62.3
		c-42.2-18.2-82.5-41.6-120.2-69.9C788.1,1864.1,1968.9,1873.6,2512.5,1978.6z"/>
	<polygon class="st28" points="983,1576.3 1213.7,1696.7 1700.1,1555.4 1495,1432.3 	"/>
	<polygon class="st29" points="986.3,1557.2 1217.1,1677.5 1703.5,1536.3 1498.4,1413.2 	"/>
	<polygon class="st30" points="1091.9,1570.2 1054.6,1553.7 1098,1541 1134.6,1556.3 	"/>
	<polygon class="st30" points="1133.8,1589.6 1096.5,1573.2 1139.9,1560.5 1176.4,1575.8 	"/>
	<polygon class="st30" points="1175.6,1609.1 1138.3,1592.6 1181.7,1579.9 1218.3,1595.2 	"/>
	<polygon class="st30" points="1144.4,1554.9 1107.1,1538.4 1150.5,1525.7 1187.1,1541 	"/>
	<polygon class="st30" points="1186.3,1574.4 1149,1557.9 1192.4,1545.2 1228.9,1560.5 	"/>
	<polygon class="st30" points="1228.1,1593.8 1190.8,1577.4 1234.2,1564.6 1270.8,1580 	"/>
	<polygon class="st30" points="1196.9,1539.6 1159.6,1523.2 1203,1510.5 1239.6,1525.8 	"/>
	<polygon class="st30" points="1238.8,1559.1 1201.5,1542.6 1244.9,1529.9 1281.4,1545.2 	"/>
	<polygon class="st31" points="1280.6,1578.6 1243.3,1562.1 1286.7,1549.4 1323.3,1564.7 	"/>
	<polygon class="st30" points="1249.4,1524.4 1212.1,1507.9 1255.5,1495.2 1292.1,1510.5 	"/>
	<polygon class="st31" points="1291.3,1543.8 1254,1527.4 1297.4,1514.6 1333.9,1530 	"/>
	<polygon class="st31" points="1333.1,1563.3 1295.8,1546.8 1339.2,1534.1 1375.8,1549.4 	"/>
	<path class="st29" d="M1824.1,1182.5c-2.7,6.6-70.1,204.7-102.9,301.6c-10.7,31.5-17.7,52.2-17.7,52.2l-486.4,141.2l125.4-369.1
		l106.7-27.9L1824.1,1182.5z"/>
	<path class="st32" d="M1286.3,1473.8c-0.7-0.1-16.7,45.4-35.8,101.7c-19.1,56.3-34.1,102-33.4,102.1c0.7,0.1,16.7-45.4,35.8-101.7
		C1272,1519.6,1287,1473.9,1286.3,1473.8z"/>
	<path class="st23" d="M1509.8,1421.2c-8.3,15.2-5.5,31.3,6.1,36c11.7,4.7,27.8-3.7,36.1-18.9c8.3-15.2,5.5-31.3-6.1-36
		S1518,1406.1,1509.8,1421.2z"/>
	<path class="st33" d="M1721.2,1484.1c-10.7,31.5-17.7,52.2-17.7,52.2l-486.4,141.2l125.4-369.1l106.7-27.9
		c-17.6,45.4-68.4,188.4-24.8,223C1463.6,1534.7,1637.9,1502,1721.2,1484.1z"/>
	<polygon points="1703.5,1536.3 1700.1,1555.4 1213.7,1696.7 1217.1,1677.5 	"/>
	<polygon points="986.3,1557.2 983,1576.3 1213.7,1696.7 1217.1,1677.5 	"/>
	<polygon points="1206.2,1672.2 1332.4,1297.2 1342.5,1308.5 1217.1,1677.5 	"/>
	<polygon class="st34" points="1824.1,1182.5 1811.8,1176.1 1332.4,1297.2 1342.5,1308.5 	"/>
	<path class="st10" d="M734.2,1561.6c-11.2-48.2-16-98-14.3-147.8c1.1-30.9,6.2-64.8,29.4-85.3c13.6-12.1,32.8-17.7,50.7-14.6
		c17.9,3.2,34.1,15.4,41.6,32c7.6,16.8,6.3,36.1,4.7,54.4c-5.1,57.3-11.8,114.4-20.2,171.4L734.2,1561.6z"/>
	<path class="st10" d="M-151.9-198.6"/>
	<path class="st35" d="M813.5,1563.2c-2.1-35.4,0.2-71,6.9-105.7c2.4-12.7,6-26.2,14.9-33.9c10.3-8.8,25.5-6.8,35.5,2.4
		s15.3,24.3,16.5,39.2s-1.4,29.9-4.6,44.5c-5.5,24.8-12.8,49-22.1,72.2L813.5,1563.2z"/>
	<path class="st35" d="M-151.9-198.6"/>
	<path class="st35" d="M-151.9-198.6"/>
	<path class="st36" d="M907.6,1535c0,0-1.2,35.8-18,71.7l-0.1,0.1c-16.9,36.2-49.7,72.4-113,71.8c-132.4,0-131-143.6-131-143.6
		L907.6,1535z"/>
	<path class="st37" d="M907.6,1535c0,0-1.2,35.8-18,71.7l-0.1,0.1c-19.2,14.4-48.2,24.5-91.7,24.1c-95.4,0-122.9-61.5-130.9-95.9
		H907.6z"/>
	<ellipse class="st19" cx="1726.8" cy="1805.7" rx="162.8" ry="184.7"/>
	<path class="st23" d="M1846.7,1828.3c11-75-33.8-146.1-99.9-158.6c-66.1-12.5-128.8,38.4-139.8,113.3c-10.4,70.8,29,138.2,89.1,156
		c6.1,2.7,12.6,4,19.2,3.9C1778.1,1949.8,1836.1,1900.2,1846.7,1828.3z M1802.2,1813.6c2.6-21.7,2.3-43-0.7-62.5
		c6.8-2.9,13.5-6.2,20-10c12.6,23.7,17.9,51.5,15.1,79L1802.2,1813.6z M1750.1,1685.2c17.3,6.7,30.4,27.4,37,55.3
		c-15.7,5.2-30.9,6.8-45.8,4.9L1750.1,1685.2z M1730.4,1743.3c-9.1-2.3-17.9-5.8-26.2-10.5c-6-3.4-11.7-7.3-17.1-11.7
		c14.6-24.4,33.5-39.1,52.2-38.2L1730.4,1743.3z M1697.6,1746.2c9.7,5.5,20,9.6,30.6,12.1l-5.9,40.2l-58.8-11.1
		c3.2-18.5,8.7-36.4,16.5-53.1C1685.6,1738.8,1691.5,1742.7,1697.6,1746.2L1697.6,1746.2z M1720.5,1810.8l-5.9,40.2
		c-10.8-1.5-21.6-1.4-32.4,0.2c-6.9,1.1-13.7,2.7-20.3,4.9c-2.5-18.7-2.6-37.7-0.2-56.4L1720.5,1810.8z M1684.6,1866.4
		c9.2-1.4,18.6-1.5,27.8-0.3l-9,61.4c-18.2-6.1-31.9-27.2-38.7-56.2C1671.2,1869,1677.8,1867.4,1684.6,1866.4L1684.6,1866.4z
		 M1723.2,1868.1c14.7,3.7,28.8,10.9,42.3,21.7c-14.3,24.4-32.7,39.4-51.3,39.4L1723.2,1868.1z M1725.4,1853.1l5.9-40.2l57.2,10.8
		c-3.1,18.5-8.5,36.3-16.1,53C1756.2,1863.9,1740.3,1856.8,1725.4,1853.1L1725.4,1853.1z M1733.1,1800.6l5.9-40.2
		c15,2,32.1,1.1,50.9-4.9c2.5,18.5,2.7,37.4,0.4,56L1733.1,1800.6z M1798.5,1736.1c-1.2-5-2.7-10-4.4-14.8
		c-2.9-8.4-6.7-16.4-11.4-23.7c12,8,22.5,18.5,31.1,30.9C1808.8,1731.3,1803.7,1733.8,1798.5,1736.1L1798.5,1736.1z M1685.7,1700.8
		c-2.9,3.8-5.6,7.8-8.1,11.9c-3.9-3.8-7.6-7.8-11.1-12c10.9-8,22.9-13.9,35.5-17.2C1696,1688.5,1690.5,1694.3,1685.7,1700.8
		L1685.7,1700.8z M1670.3,1725.9c-8.6,17.4-15,37.6-18.8,59.3l-32.8-6.2c5.2-27,18.1-51.3,36.8-69.1
		C1660.2,1715.6,1665.1,1721,1670.3,1725.9z M1649.8,1797.4c-2.7,21.9-2.5,43.4,0.6,63.1c-6.3,2.7-12.4,5.9-18.3,9.6
		c-12.6-23.7-17.9-51.4-15.1-78.9L1649.8,1797.4z M1653.3,1875.7c1.2,5.1,2.7,10.1,4.4,15.1c2.5,7.2,5.7,14.1,9.4,20.5
		c-10.5-7.6-19.8-17.3-27.4-28.4C1644.2,1880.2,1648.7,1877.8,1653.3,1875.7L1653.3,1875.7z M1766.2,1911.3
		c3.2-4.2,6.1-8.6,8.8-13.1c4.1,3.9,8.1,8.1,12,12.7c-11.2,8.3-23.7,14.2-36.8,17.4C1756.1,1923.3,1761.4,1917.6,1766.2,1911.3z
		 M1782.1,1885c8.4-17.4,14.7-37.5,18.3-59l34.4,6.5c-5.2,27.1-18.2,51.4-36.9,69.2C1793,1895.7,1787.7,1890.1,1782.1,1885
		L1782.1,1885z"/>
	<ellipse class="st38" cx="1848.3" cy="1695.9" rx="68.5" ry="77.8"/>
	<path class="st23" d="M1854.2,1731.1l-8.1-21.9l-16.6,14.2l-19.3-6l28.9-22.7l-13.9-35.2l19.1,5.9l7.9,20.5l15.9-13.1l18.3,5.7
		l-27.6,21.6l15,37L1854.2,1731.1z"/>
	<path class="st39" d="M2810.1,1671.4l-340.1-27c-31.5-2.9-54.9-34.1-52.4-69.8l30.5-451.1c2.5-35.7,30.1-62.3,61.5-59.5
		c0,0,0,0,0,0l341.6,31c31.5,2.9,54.9,34.1,52.4,69.8c0,0,0,0,0,0l-31.9,447C2869.2,1647.5,2841.6,1674.2,2810.1,1671.4
		C2810.1,1671.4,2810.1,1671.4,2810.1,1671.4z"/>
	<path class="st40" d="M2811.2,1655.4l-340.1-27c-31.5-2.9-54.9-34.1-52.4-69.8c0,0,0,0,0,0l30.5-451.1
		c2.5-35.7,30.1-62.3,61.5-59.5l341.6,31c31.5,2.9,54.9,34.1,52.4,69.8c0,0,0,0,0,0l-31.9,447.1
		C2870.2,1631.7,2842.7,1658.3,2811.2,1655.4z"/>
	<path class="st41" d="M2481.4,1586l3-42.5c0.8-11.3,9.5-19.8,19.5-18.9l53.3,4.8c10,0.9,17.4,10.8,16.6,22.1l-3,42.5
		c-0.8,11.3-9.5,19.8-19.5,18.9l-53.3-4.8C2488.1,1607.2,2480.6,1597.3,2481.4,1586z"/>
	<path class="st41" d="M2611.5,1587.5l3-42.7c0.8-11.4,9.6-19.8,19.6-18.9l53.5,4.9c10,0.9,17.5,10.9,16.7,22.2l-3,42.7
		c-0.8,11.4-9.6,19.8-19.6,18.9l-53.5-4.9C2618.1,1608.8,2610.7,1598.9,2611.5,1587.5z"/>
	<path class="st41" d="M2730.9,1608.7l3-42.5c0.8-11.3,9.5-19.8,19.5-18.9l53.3,4.8c10,0.9,17.4,10.8,16.6,22.1l-3,42.5
		c-0.8,11.3-9.5,19.8-19.5,18.9l-53.3-4.8C2737.6,1629.9,2730.1,1620,2730.9,1608.7z"/>
	<path class="st41" d="M2495.7,1389.5l3-42.5c0.8-11.3,9.5-19.8,19.5-18.9l53.3,4.8c10,0.9,17.4,10.8,16.6,22.1l-3,42.5
		c-0.8,11.3-9.5,19.8-19.5,18.9l-53.3-4.8C2502.3,1410.7,2494.9,1400.8,2495.7,1389.5z"/>
	<path class="st41" d="M2745.2,1412.1l3-42.5c0.8-11.3,9.5-19.8,19.5-18.9l53.3,4.8c10,0.9,17.4,10.8,16.6,22.1l-3,42.5
		c-0.8,11.3-9.5,19.8-19.5,18.9l-53.3-4.8C2751.8,1433.3,2744.4,1423.4,2745.2,1412.1z"/>
	<path class="st41" d="M2620.4,1401.2l3-42.5c0.8-11.3,9.5-19.8,19.5-18.9l53.3,4.8c10,0.9,17.4,10.8,16.6,22.1l-3,42.5
		c-0.8,11.3-9.5,19.8-19.5,18.9l-53.3-4.8C2627,1422.4,2619.6,1412.5,2620.4,1401.2z"/>
	<path class="st41" d="M2558.5,1514.6l-53.3-4.8c-10-0.9-17.4-10.8-16.6-22.1c0,0,0,0,0,0l3-42.5c0.8-11.3,9.5-19.8,19.5-18.9
		c0,0,0,0,0,0l53.3,4.8c10,0.9,17.4,10.8,16.6,22.1l-3,42.5C2577.2,1507.1,2568.5,1515.5,2558.5,1514.6
		C2558.5,1514.6,2558.5,1514.6,2558.5,1514.6z"/>
	<path class="st41" d="M2618.5,1489.2l3-42.7c0.8-11.4,9.6-19.8,19.6-18.9l53.5,4.9c10,0.9,17.5,10.9,16.7,22.2l-3,42.7
		c-0.8,11.4-9.6,19.8-19.6,18.9l-53.5-4.9C2625.1,1510.5,2617.7,1500.6,2618.5,1489.2z"/>
	<path class="st41" d="M2738.2,1510.4l3-42.5c0.8-11.3,9.5-19.8,19.5-18.9l53.3,4.8c10,0.9,17.4,10.8,16.6,22.1l-3,42.5
		c-0.8,11.3-9.5,19.8-19.5,18.9l-53.3-4.8C2744.9,1531.7,2737.4,1521.7,2738.2,1510.4z"/>
	<path class="st41" d="M2503.6,1292.3l3-42.5c0.8-11.3,9.5-19.8,19.5-18.9l53.3,4.8c10,0.9,17.4,10.8,16.6,22.1l-3,42.5
		c-0.8,11.3-9.5,19.8-19.5,18.9l-53.3-4.8C2510.2,1313.6,2502.8,1303.6,2503.6,1292.3z"/>
	<path class="st41" d="M2698,1330.5l-53.3-4.8c-10-0.9-17.4-10.8-16.6-22.1c0,0,0,0,0,0l3-42.5c0.8-11.3,9.5-19.8,19.5-18.9
		l53.3,4.8c10,0.9,17.4,10.8,16.6,22.1c0,0,0,0,0,0l-3,42.5C2716.7,1323,2708,1331.4,2698,1330.5z"/>
	<path class="st41" d="M2753.1,1315l3-42.5c0.8-11.3,9.5-19.8,19.5-18.9l53.3,4.8c10,0.9,17.4,10.8,16.6,22.1l-3,42.5
		c-0.8,11.3-9.5,19.8-19.5,18.9l-53.3-4.8C2759.7,1336.2,2752.3,1326.3,2753.1,1315z"/>
	<path class="st42" d="M2830.1,1212.5l-316.3-28.7c-10-0.9-17.4-10.8-16.6-22.1l3.8-53.5c0.8-11.3,9.5-19.8,19.5-18.9c0,0,0,0,0,0
		l316.3,28.7c10,0.9,17.4,10.8,16.6,22.1c0,0,0,0,0,0l-3.8,53.5C2848.8,1204.9,2840.1,1213.4,2830.1,1212.5z"/>
	<path class="st43" d="M2474.6,1576.7l3-42.5c0.8-11.3,9.5-19.8,19.5-18.9l53.3,4.8c10,0.9,17.4,10.8,16.6,22.1l-3,42.5
		c-0.8,11.3-9.5,19.8-19.5,18.9l-53.3-4.8C2481.2,1597.9,2473.8,1588,2474.6,1576.7z"/>
	<path class="st43" d="M2604.6,1578.2l3-42.7c0.8-11.4,9.6-19.8,19.6-18.9l53.5,4.9c10,0.9,17.5,10.9,16.7,22.2l-3,42.7
		c-0.8,11.4-9.6,19.8-19.6,18.9l-53.5-4.9C2611.2,1599.5,2603.8,1589.6,2604.6,1578.2z"/>
	<path class="st44" d="M2724.1,1599.4l3-42.5c0.8-11.3,9.5-19.8,19.5-18.9l53.3,4.8c10,0.9,17.4,10.8,16.6,22.1l-3,42.5
		c-0.8,11.3-9.5,19.8-19.5,18.9l-53.3-4.8C2730.7,1620.6,2723.3,1610.7,2724.1,1599.4z"/>
	<path class="st43" d="M2488.8,1380.2l3-42.5c0.8-11.3,9.5-19.8,19.5-18.9l53.3,4.8c10,0.9,17.4,10.8,16.6,22.1l-3,42.5
		c-0.8,11.3-9.5,19.8-19.5,18.9l-53.3-4.8C2495.4,1401.4,2488,1391.5,2488.8,1380.2z"/>
	<path class="st43" d="M2613.5,1391.5l3-42.5c0.8-11.3,9.5-19.8,19.5-18.9l53.3,4.8c10,0.9,17.4,10.8,16.6,22.1l-3,42.5
		c-0.8,11.3-9.5,19.8-19.5,18.9l-53.3-4.8C2620.2,1412.7,2612.7,1402.8,2613.5,1391.5z"/>
	<path class="st43" d="M2808,1429.7l-53.3-4.8c-10-0.9-17.4-10.8-16.6-22.1c0,0,0,0,0,0l3-42.5c0.8-11.3,9.5-19.8,19.5-18.9
		c0,0,0,0,0,0l53.3,4.8c10,0.9,17.4,10.8,16.6,22.1l-3,42.5C2826.7,1422.1,2818,1430.6,2808,1429.7
		C2808,1429.7,2808,1429.7,2808,1429.7z"/>
	<path class="st43" d="M2481.8,1478.4l3-42.5c0.8-11.3,9.5-19.8,19.5-18.9l53.3,4.8c10,0.9,17.4,10.8,16.6,22.1l-3,42.5
		c-0.8,11.3-9.5,19.8-19.5,18.9l-53.3-4.8C2488.5,1499.7,2481,1489.8,2481.8,1478.4z"/>
	<path class="st43" d="M2606.6,1489.8l3-42.5c0.8-11.3,9.5-19.8,19.5-18.9l53.3,4.8c10,0.9,17.4,10.8,16.6,22.1l-3,42.5
		c-0.8,11.3-9.5,19.8-19.5,18.9l-53.3-4.8C2613.3,1511,2605.8,1501.1,2606.6,1489.8z"/>
	<path class="st43" d="M2731.4,1501.1l3-42.5c0.8-11.3,9.5-19.8,19.5-18.9l53.3,4.8c10,0.9,17.4,10.8,16.6,22.1l-3,42.5
		c-0.8,11.3-9.5,19.8-19.5,18.9l-53.3-4.8C2738,1522.4,2730.6,1512.5,2731.4,1501.1z"/>
	<path class="st45" d="M2475.1,1569.5l3-42.5c0.8-11.3,9.5-19.8,19.5-18.9l53.3,4.8c10,0.9,17.4,10.8,16.6,22.1l-3,42.5
		c-0.8,11.3-9.5,19.8-19.5,18.9l-53.3-4.8C2481.7,1590.7,2474.3,1580.8,2475.1,1569.5z"/>
	<path class="st45" d="M2669.5,1607.7l-53.3-4.8c-10-0.9-17.4-10.8-16.6-22.1c0,0,0,0,0,0l3-42.5c0.8-11.3,9.5-19.8,19.5-18.9
		c0,0,0,0,0,0l53.3,4.8c10,0.9,17.4,10.8,16.6,22.1c0,0,0,0,0,0l-3,42.5C2688.3,1600.1,2679.5,1608.6,2669.5,1607.7
		C2669.5,1607.7,2669.5,1607.7,2669.5,1607.7z"/>
	<path class="st46" d="M2794.3,1619l-53.3-4.8c-10-0.9-17.4-10.8-16.6-22.1c0,0,0,0,0,0l3-42.5c0.8-11.3,9.5-19.8,19.5-18.9
		c0,0,0,0,0,0l53.3,4.8c10,0.9,17.4,10.8,16.6,22.1c0,0,0,0,0,0l-3,42.5C2813,1611.5,2804.3,1619.9,2794.3,1619
		C2794.3,1619,2794.3,1619,2794.3,1619z"/>
	<path class="st46" d="M-151.9-198.6"/>
	<path class="st45" d="M2607.1,1482.6l3-42.5c0.8-11.3,9.5-19.8,19.5-18.9l53.3,4.8c10,0.9,17.4,10.8,16.6,22.1l-3,42.5
		c-0.8,11.3-9.5,19.8-19.5,18.9l-53.3-4.8C2613.8,1503.8,2606.3,1493.9,2607.1,1482.6z"/>
	<path class="st45" d="M2731.9,1493.9l3-42.5c0.8-11.3,9.5-19.8,19.5-18.9l53.3,4.8c10,0.9,17.4,10.8,16.6,22.1l-3,42.5
		c-0.8,11.3-9.5,19.8-19.5,18.9l-53.3-4.8C2738.5,1515.2,2731.1,1505.2,2731.9,1493.9z"/>
	<path class="st47" d="M2830.9,1199.3l-316.3-28.7c-10-0.9-17.4-10.8-16.6-22.1l3.8-53.5c0.8-11.3,9.5-19.8,19.5-18.9l316.3,28.7
		c10,0.9,17.4,10.8,16.6,22.1c0,0,0,0,0,0l-3.8,53.5C2849.6,1191.7,2840.9,1200.2,2830.9,1199.3
		C2830.9,1199.3,2830.9,1199.3,2830.9,1199.3z"/>
	<path class="st48" d="M2830.5,1206.3l-316.3-28.7c-10-0.9-17.4-10.8-16.6-22.1c0,0,0,0,0,0l3.8-53.5c0.8-11.3,9.5-19.8,19.5-18.9
		l316.3,28.7c10,0.9,17.4,10.8,16.6,22.1c0,0,0,0,0,0l-3.8,53.5C2849.3,1198.8,2840.5,1207.2,2830.5,1206.3
		C2830.6,1206.3,2830.6,1206.3,2830.5,1206.3z"/>
	<defs>
		<filter id="Adobe_OpacityMaskFilter" filterUnits="userSpaceOnUse" x="2497.6" y="1083.2" width="237.5" height="105.9">
			<feColorMatrix  type="matrix" values="1 0 0 0 0  0 1 0 0 0  0 0 1 0 0  0 0 0 1 0"/>
		</filter>
	</defs>
	
		<mask maskUnits="userSpaceOnUse" x="2497.6" y="1083.2" width="237.5" height="105.9" id="c_00000066491122105419751670000007164917419186512815_">
		<g class="st49">
			<defs>
				<polygon id="SVGID_1_" points="-151.1,-197.8 -150.4,-197.8 -151.1,-196.9 				"/>
			</defs>
			<defs>
				<polygon id="SVGID_00000042005978822589047480000000182856402844872097_" points="-152.6,-199.4 -153.4,-199.4 -152.6,-200.3 
									"/>
			</defs>
			<clipPath id="SVGID_00000079466715329069071430000011175894491890671255_">
				<use xlink:href="#SVGID_1_"  style="overflow:visible;"/>
			</clipPath>
			
				<clipPath id="SVGID_00000009585227997916657160000014216849857267136145_" style="clip-path:url(#SVGID_00000079466715329069071430000011175894491890671255_);">
				<use xlink:href="#SVGID_00000042005978822589047480000000182856402844872097_"  style="overflow:visible;"/>
			</clipPath>
			<g>
				
					<linearGradient id="SVGID_00000067196723988609973400000002866787005441604014_" gradientUnits="userSpaceOnUse" x1="2931.5955" y1="725.6948" x2="2698.6492" y2="725.6948" gradientTransform="matrix(0.9968 7.967700e-02 7.967700e-02 -0.9968 -248.922 1637.9968)">
					<stop  offset="0" style="stop-color:#FFFFFF"/>
					<stop  offset="0" style="stop-color:#666666"/>
					<stop  offset="0.72" style="stop-color:#000000"/>
				</linearGradient>
				
					<path style="clip-path:url(#SVGID_00000009585227997916657160000014216849857267136145_);fill:url(#SVGID_00000067196723988609973400000002866787005441604014_);" d="
					M2735.1,1102.6l-213-19.3c-10.6-1-19.8,7.4-20.6,18.8l-3.8,53.5c-0.8,11.3,7.1,21.3,17.7,22.2l124.6,11.3L2735.1,1102.6z"/>
			</g>
		</g>
	</mask>
	<g class="st52">
		<path class="st23" d="M2735.1,1102.6l-213-19.3c-10.6-1-19.8,7.4-20.6,18.8l-3.8,53.5c-0.8,11.3,7.1,21.3,17.7,22.2l124.6,11.3
			L2735.1,1102.6z"/>
	</g>
	<path class="st43" d="M2496.7,1283l3-42.5c0.8-11.3,9.5-19.8,19.5-18.9l53.3,4.8c10,0.9,17.4,10.8,16.6,22.1l-3,42.5
		c-0.8,11.3-9.5,19.8-19.5,18.9l-53.3-4.8C2503.3,1304.3,2495.9,1294.3,2496.7,1283z"/>
	<path class="st43" d="M2691.2,1321.2l-53.3-4.8c-10-0.9-17.4-10.8-16.6-22.1c0,0,0,0,0,0l3-42.5c0.8-11.3,9.5-19.8,19.5-18.9
		c0,0,0,0,0,0l53.3,4.8c10,0.9,17.4,10.8,16.6,22.1c0,0,0,0,0,0l-3,42.5C2709.9,1313.7,2701.2,1322.1,2691.2,1321.2
		C2691.2,1321.2,2691.2,1321.2,2691.2,1321.2z"/>
	<path class="st43" d="M2746.2,1305.7l3-42.5c0.8-11.3,9.5-19.8,19.5-18.9l53.3,4.8c10,0.9,17.4,10.8,16.6,22.1l-3,42.5
		c-0.8,11.3-9.5,19.8-19.5,18.9l-53.3-4.8C2752.8,1326.9,2745.4,1317,2746.2,1305.7z"/>
	<path class="st45" d="M2497.2,1275.8l3-42.5c0.8-11.3,9.5-19.8,19.5-18.9l53.3,4.8c10,0.9,17.4,10.8,16.6,22.1l-3,42.5
		c-0.8,11.3-9.5,19.8-19.5,18.9l-53.3-4.8C2503.8,1297.1,2496.4,1287.1,2497.2,1275.8z"/>
	<path class="st45" d="M2622,1287.1l3-42.5c0.8-11.3,9.5-19.8,19.5-18.9l53.3,4.8c10,0.9,17.4,10.8,16.6,22.1l-3,42.5
		c-0.8,11.3-9.5,19.8-19.5,18.9l-53.3-4.8C2628.6,1308.4,2621.2,1298.5,2622,1287.1z"/>
	<path class="st45" d="M2746.7,1298.5l3-42.5c0.8-11.3,9.5-19.8,19.5-18.9l53.3,4.8c10,0.9,17.4,10.8,16.6,22.1l-3,42.5
		c-0.8,11.3-9.5,19.8-19.5,18.9l-53.3-4.8C2753.4,1319.7,2745.9,1309.8,2746.7,1298.5z"/>
	<path class="st53" d="M1219.8,511.4V269.3c0-23.6,16.9-42.8,37.7-42.8h240.6c20.8,0,37.7,19.2,37.7,42.8v242.1
		c0,23.6-16.9,42.8-37.7,42.8h-168.3c-13.2,24.8-41.3,56-101.6,74.8c0,0,31.8-33.7,45-74.8h-15.8
		C1236.6,554.2,1219.8,535.1,1219.8,511.4z"/>
	<path class="st23" d="M1269.8,293.1H1254V284h22.2l7.1,32.3l195.7,0.2l-34.1,140.3h-139.2L1269.8,293.1z M1468.3,325.7l-183.1-0.2
		l26.7,122.1h126.7L1468.3,325.7z"/>
	<polygon class="st23" points="1425.2,484.6 1432.7,481 1420.2,447.4 1325.5,447.4 1315.2,481.3 1322.9,484.3 1331.3,456.6 
		1414.9,456.6 	"/>
	<rect x="1287.1" y="348.4" class="st23" width="177.8" height="9.2"/>
	<polygon class="st23" points="1296.5,391.5 1296.6,382.3 1457.4,383.1 1457.3,392.3 	"/>
	<rect x="1303.3" y="418" class="st23" width="145.7" height="9.2"/>
	<rect x="1370.2" y="321.7" class="st23" width="8.1" height="130.5"/>
	<polygon class="st23" points="1392.2,451.8 1401.4,321.3 1409.5,322 1400.3,452.5 	"/>
	<polygon class="st23" points="1415.2,451.4 1436.3,320.9 1444.3,322.5 1423.1,453 	"/>
	<polygon class="st23" points="1339.3,321.9 1347.4,321.2 1356.6,451.7 1348.6,452.4 	"/>
	<polygon class="st23" points="1304.6,322.5 1312.6,320.8 1333.7,451.3 1325.8,453 	"/>
	<path class="st23" d="M-151.9-198.6"/>
	<path class="st54" d="M2153.9,1525.5c0.6,9.9,1.9,19.8,3.8,29.4c1.2,6.1,2.7,12.1,4.4,18c2.9,10,6.5,19.8,10.8,29.1
		c29.5,64.9,88.2,105.9,152.6,106.6c96,1.2,174.6-86.2,175.7-195c1-108.9-75.9-198.1-171.9-199.3c-62.3-0.7-120.1,36.3-151.7,97.2
		c-7.7,14.8-13.6,30.7-17.7,47.3c-1.4,5.6-2.5,11.3-3.4,17.1c-1.6,9.8-2.5,19.8-2.8,29.7c0,1.2-0.1,2.5-0.1,3.8
		C2153.4,1514.8,2153.6,1520.2,2153.9,1525.5z"/>
	<ellipse class="st55" cx="2358.2" cy="1511.5" rx="173.8" ry="197.2"/>
	<ellipse class="st54" cx="2356.3" cy="1511.5" rx="144.8" ry="164.2"/>
	<path class="st54" d="M-151.9-198.6"/>
	<path class="st56" d="M2344.8,1629v-28.7c-17.9-0.9-35.2-6.4-45.3-13l8-35.4c11.2,6.9,26.9,13.3,44.2,13.3
		c15.2,0,25.6-6.6,25.6-18.7c0-11.5-8.5-18.8-28.3-26.3c-28.5-10.9-48-26-48-55.3c0-26.6,16.5-47.5,45.1-53.8v-28.7h26.1v26.6
		c17.9,0.9,29.9,5.2,38.7,10l-7.7,34.2c-6.9-3.4-19.2-10.3-38.4-10.3c-17.3,0-22.9,8.5-22.9,16.9c0,10,9.3,16.3,32,26
		c31.7,12.7,44.5,29.4,44.5,56.6c0,26.9-16.8,49.9-47.4,55.9v30.8L2344.8,1629z"/>
	<path class="st57" d="M2333.9,1629v-28.7c-17.9-0.9-35.2-6.4-45.3-13l8-35.4c11.2,6.9,26.9,13.3,44.2,13.3
		c15.2,0,25.6-6.6,25.6-18.7c0-11.5-8.5-18.8-28.3-26.3c-28.5-10.9-48-26-48-55.3c0-26.6,16.5-47.5,45.1-53.8v-28.7h26.1v26.6
		c17.9,0.9,29.9,5.2,38.7,10l-7.7,34.2c-6.9-3.4-19.2-10.3-38.4-10.3c-17.3,0-22.9,8.5-22.9,16.9c0,10,9.3,16.3,32,26
		c31.7,12.7,44.5,29.4,44.5,56.6c0,26.9-16.8,49.9-47.4,55.9v30.8L2333.9,1629z"/>
</g>
</svg>
