<svg id="SvgjsSvg1001" width="256" height="256" xmlns="http://www.w3.org/2000/svg" version="1.1"
    xmlns:xlink="http://www.w3.org/1999/xlink" xmlns:svgjs="http://svgjs.com/svgjs">
    <defs id="SvgjsDefs1002"></defs>
    <g id="SvgjsG1008"><svg xmlns="http://www.w3.org/2000/svg" enable-background="new 0 0 66 66" viewBox="0 0 66 66"
            width="256" height="256">
            <path d="M7.4,54.4H12c1.7,0,3-1.3,3-3v-0.6l14.3,4.4c0.7,0.2,1.4,0.3,2.2,0.3c1.4,0,2.8-0.4,4-1.2L60.1,38c1.4-1.1,1.9-3,1.1-4.5
		c-0.9-1.8-3.1-2.6-4.9-1.7l-11.9,5.2c0-0.1,0-0.1,0-0.2c0-2.3-1.8-4.1-4.1-4.1H31c-6.2-5-12.9-2.4-15.9-0.8v-0.2c0-1.7-1.3-3-3-3
		H7.4c-1.7,0-3,1.3-3,3v19.7C4.4,53,5.8,54.4,7.4,54.4z M30,34.4c0.2,0.2,0.4,0.2,0.6,0.2h9.7c1.2,0,2.1,0.9,2.1,2.1
		c0,1.2-0.9,2.1-2.1,2.1H29c-0.6,0-1,0.4-1,1s0.4,1,1,1h11.3c1.1,0,2.1-0.4,2.9-1.2l14-6.2c0.8-0.4,1.8,0,2.2,0.8
		c0.3,0.7,0.1,1.6-0.5,2L34.4,52.6c-1.3,0.9-3,1.1-4.5,0.7L15,48.7V34.2C16.8,33,23.8,29.1,30,34.4z M6.4,31.7c0-0.6,0.4-1,1-1H12
		c0.6,0,1,0.4,1,1c0,6.9,0,15.5,0,19.7c0,0.6-0.4,1-1,1H7.4c-0.6,0-1-0.4-1-1V31.7z" fill="#000000"
                class="color000 svgShape"></path>
            <path
                d="M9.4,23.9h32.7c-0.2,0.5-0.3,1.1-0.3,1.7c0,3.2,2.6,5.7,5.7,5.7c3,0,5.5-2.3,5.7-5.3c0.8,0.4,1.6,0.6,2.5,0.6
		c3.2,0,5.7-2.6,5.7-5.7s-2.6-5.7-5.7-5.7c-0.9,0-1.7,0.2-2.5,0.6c-0.2-3-2.7-5.3-5.7-5.3c-3.2,0-5.7,2.6-5.7,5.7
		c0,0.6,0.1,1.2,0.3,1.7H30.3V12c0-0.6-0.4-1-1-1s-1,0.4-1,1v5.9h-2.1V15c0-0.6-0.4-1-1-1s-1,0.4-1,1v2.9h-2.6l0-5.9
		c0-0.4-0.2-0.7-0.6-0.9c-0.3-0.2-0.8-0.1-1.1,0.1l-3.7,3l-3.7-3c-0.3-0.2-0.7-0.3-1.1-0.1c-0.3,0.2-0.6,0.5-0.6,0.9v5.9H9.4
		c-0.6,0-1,0.4-1,1v4C8.4,23.5,8.9,23.9,9.4,23.9z M13.1,14.1l2.7,2.2c0.4,0.3,0.9,0.3,1.3,0l2.7-2.2l0,3.8h-6.6V14.1z M47.6,29.4
		c-2.1,0-3.7-1.7-3.7-3.7s1.7-3.7,3.7-3.7s3.7,1.7,3.7,3.7S49.7,29.4,47.6,29.4z M59.6,20.9c0,2.1-1.7,3.7-3.7,3.7
		c-2.1,0-3.7-1.7-3.7-3.7s1.7-3.7,3.7-3.7C57.9,17.2,59.6,18.9,59.6,20.9z M47.6,12.5c2.1,0,3.7,1.7,3.7,3.7c0,2.1-1.7,3.7-3.7,3.7
		s-3.7-1.7-3.7-3.7C43.9,14.1,45.6,12.5,47.6,12.5z M10.4,19.9h32.9c0.3,0.4,0.7,0.7,1.1,1c-0.4,0.3-0.8,0.6-1.1,1H10.4V19.9z"
                fill="#000000" class="color000 svgShape"></path>
        </svg></g>
</svg>