<svg id="SvgjsSvg1001" width="256" height="256" xmlns="http://www.w3.org/2000/svg" version="1.1"
    xmlns:xlink="http://www.w3.org/1999/xlink" xmlns:svgjs="http://svgjs.com/svgjs">
    <defs id="SvgjsDefs1002"></defs>
    <g id="SvgjsG1008"><svg xmlns="http://www.w3.org/2000/svg" viewBox="0 0 100 100" width="256" height="256">
            <path fill="#ffffff"
                d="m31.448 78.027 1.226-1.306c.397-.417.604-.956.59-1.528a2.108 2.108 0 0 0-.655-1.489l-.66-.634a2.115 2.115 0 0 0-1.464-.579 2.12 2.12 0 0 0-1.547.656l-1.465 1.562-3.074 3.373c-.143.149-.308.269-.465.397l-1.621 1.727a2.137 2.137 0 0 0 .063 3.019l.656.623c.825.787 2.232.749 3.015-.068l1.458-1.554.013-.017 3.695-3.982c.073-.075.16-.13.235-.2zm-6.008-5.244.212-.232c.412-.432.619-.972.606-1.544a2.107 2.107 0 0 0-.652-1.487l-.66-.632a2.12 2.12 0 0 0-1.468-.582c-.592 0-1.139.232-1.541.654l-3.305 3.625c-.413.433-.62.974-.606 1.546.014.569.247 1.096.655 1.484l.659.628c.702.671 1.839.733 2.641.225l3.459-3.685zm11.484 7.914-.655-.62a2.117 2.117 0 0 0-1.472-.588c-.486 0-.939.166-1.311.457l-3.939 4.196a2.116 2.116 0 0 0-.586 1.521c.014.57.247 1.098.655 1.485l.664.635c.812.774 2.228.742 3.003-.073l3.7-3.985a2.14 2.14 0 0 0-.059-3.028zm5.122 4.901a2.112 2.112 0 0 0-1.471-.592c-.59 0-1.137.233-1.541.657l-1.502 1.678c-.837.881-.806 2.232.042 3.044l.659.627c.819.782 2.231.746 3.01-.071l1.499-1.682a2.14 2.14 0 0 0-.04-3.042l-.656-.619z"
                class="colorFFF svgShape"></path>
            <path fill="#ffecb3"
                d="m50 5.195 4.581 7.698 8.738 1.98-5.902 6.737.813 8.92L50 26.999l-8.232 3.531.813-8.92-5.901-6.737 8.737-1.98zM73.215 16.283l3.333 5.597 6.352 1.441-4.29 4.9.591 6.487-5.986-2.568-5.987 2.568.59-6.487-4.29-4.9 6.353-1.441zM26.785 16.283l3.333 5.597 6.353 1.441-4.29 4.9.59 6.487-5.986-2.568-5.987 2.568.591-6.487-4.29-4.9 6.352-1.441z"
                class="colorB3CCFF svgShape"></path>
            <path fill="#ffffff"
                d="m64.052 50.405-5.888-2.865c-1.293-.63-3.462-.455-4.638.376l-7.233 5.11a2.02 2.02 0 0 0-.842 1.346 2.032 2.032 0 0 0 .382 1.544l.542.733c.727.979 2.228 1.274 3.275.642l2.44-1.477c2.145-1.29 5.406-1.155 7.43.303l.136.112 15.93 14.834 9.699-8.501-11.813-13.504-1.96.986c-2.053 1.247-5.313 1.408-7.46.361z"
                class="colorFFF svgShape"></path>
            <path fill="#ffce40" d="m95 60.826-6.364 5.565-19.417-22.195 8.558-7.491z" class="color4080FF svgShape">
            </path>
            <path fill="#fabb04"
                d="m87.129 64.669-1.844-2.107-9.699 8.501-15.93-14.834-.136-.112c-2.024-1.458-5.285-1.593-7.43-.303l-2.44 1.477c-1.048.633-2.549.337-3.275-.642l-.542-.733a2.028 2.028 0 0 1-.382-1.544 2.025 2.025 0 0 1 .842-1.346l7.233-5.11c1.176-.831 3.344-1.006 4.638-.376l5.888 2.865c2.147 1.047 5.407.886 7.46-.36l1.96-.986-1.904-2.177-1.368.688-.112.063c-1.245.777-3.492.897-4.811.254l-5.889-2.865c-2.195-1.069-5.479-.803-7.477.605l-2.52 1.78c-.487-.14-2.411-.71-3.731-1.371-2.013-1.003-5.271-1.065-7.421-.145l-4.012 1.72c-.644.275-2.101.31-5.387-1.101l-.196-.064-1.999 2.285 1.148.377c1.585.677 3.67 1.445 5.549 1.445.704 0 1.379-.107 1.988-.368l4.012-1.72c1.406-.605 3.775-.568 5.066.075.659.33 1.422.634 2.125.886l-1.855 1.311a4.805 4.805 0 0 0-1.993 3.191 4.806 4.806 0 0 0 .898 3.654l.541.731c1.577 2.125 4.704 2.739 6.974 1.372l2.438-1.476c1.168-.701 3.146-.638 4.281.132.83.776 17.783 16.556 17.783 16.556.859.803.91 2.153.11 3.013l-.617.667c-.799.86-2.15.91-3.01.111l-10.42-9.687a1.4 1.4 0 1 0-1.907 2.051L70.91 81.436c.415.386.655.912.676 1.483a2.111 2.111 0 0 1-.566 1.528l-.615.663a2.121 2.121 0 0 1-1.483.675 2.1 2.1 0 0 1-1.524-.564l-10.043-9.328a1.4 1.4 0 0 0-1.906 2.053l8.858 8.228c.404.384.64.902.66 1.466a2.11 2.11 0 0 1-.563 1.525l-.619.665a2.139 2.139 0 0 1-3.012.112l-9.156-8.492-.076-.07-.001-.001-.001-.001a1.4 1.4 0 0 0-1.902 2.055l4.675 4.336c.354.373.565.852.585 1.374a2.108 2.108 0 0 1-.559 1.521l-.623.668c-.384.413-.91.652-1.48.673a2.12 2.12 0 0 1-1.524-.563l-4.618-4.299c-.14-1.124-.633-2.162-1.465-2.956l-.655-.618a4.895 4.895 0 0 0-3.4-1.361c-.068 0-.134.018-.202.021a4.92 4.92 0 0 0-1.519-3.559l-.656-.621a4.888 4.888 0 0 0-2.398-1.251 4.926 4.926 0 0 0 .264-1.67 4.887 4.887 0 0 0-1.519-3.446l-.66-.634a4.905 4.905 0 0 0-3.399-1.355 4.89 4.89 0 0 0-1.547.275 4.87 4.87 0 0 0-1.399-2.473l-.661-.632a4.908 4.908 0 0 0-3.401-1.356 4.947 4.947 0 0 0-2.908.961l-5.622-4.361-1.847 2.111 5.488 4.258-2.006 2.201a4.9 4.9 0 0 0-1.357 3.524 4.886 4.886 0 0 0 1.524 3.443l.658.626c.591.564 1.31.944 2.082 1.158-.978 1.894-.663 4.278.956 5.825l.657.623a4.9 4.9 0 0 0 3.401 1.359c.632 0 1.252-.133 1.832-.364a4.857 4.857 0 0 0 1.347 2.304l.664.635a4.91 4.91 0 0 0 3.399 1.354c.942 0 1.854-.287 2.64-.786a4.87 4.87 0 0 0 1.255 2.033l.659.628a4.9 4.9 0 0 0 3.399 1.357 4.982 4.982 0 0 0 3.601-1.556s1.945-2.208 2.125-2.498l3.381 3.148a4.886 4.886 0 0 0 3.535 1.311 4.897 4.897 0 0 0 3.428-1.563l.624-.669a4.872 4.872 0 0 0 1.071-1.883l1.411 1.309a4.919 4.919 0 0 0 3.353 1.312 4.913 4.913 0 0 0 3.613-1.571l.618-.664a4.863 4.863 0 0 0 1.256-2.629c.367.086.741.145 1.126.145a4.9 4.9 0 0 0 3.619-1.571l.615-.663a4.893 4.893 0 0 0 1.312-3.536 4.958 4.958 0 0 0-.113-.837 4.89 4.89 0 0 0 2.874-1.499l.617-.666c1.803-1.938 1.726-4.953-.128-6.823l9.494-8.324zM19.34 76.243l-.659-.628a2.102 2.102 0 0 1-.655-1.484 2.134 2.134 0 0 1 .606-1.546l3.305-3.625a2.106 2.106 0 0 1 1.541-.654c.553 0 1.075.207 1.468.582l.66.632c.407.388.639.916.652 1.487a2.136 2.136 0 0 1-.606 1.544l-.212.232-3.459 3.685c-.802.508-1.939.446-2.641-.225zm8.18 5.965-.013.017-1.458 1.554c-.783.817-2.19.855-3.015.068l-.656-.623a2.136 2.136 0 0 1-.063-3.019l1.621-1.727c.158-.129.323-.248.465-.397l3.074-3.373 1.465-1.562a2.12 2.12 0 0 1 1.547-.656c.552 0 1.074.207 1.464.579l.66.634c.409.389.641.918.655 1.489a2.118 2.118 0 0 1-.59 1.528l-1.226 1.306c-.075.07-.162.125-.233.199l-3.697 3.983zm5.763 5.501c-.775.815-2.191.848-3.003.073l-.664-.635a2.105 2.105 0 0 1-.655-1.485 2.122 2.122 0 0 1 .586-1.521l3.939-4.196a2.116 2.116 0 0 1 1.311-.457c.552 0 1.073.207 1.472.588l.655.62a2.14 2.14 0 0 1 .059 3.027l-3.7 3.986zm9.459 1.55-1.499 1.682c-.779.817-2.191.854-3.01.071l-.659-.627c-.848-.812-.879-2.163-.042-3.044l1.502-1.678a2.106 2.106 0 0 1 1.541-.657c.55 0 1.07.208 1.471.592l.656.619a2.14 2.14 0 0 1 .04 3.042z"
                class="color494949 svgShape"></path>
            <path fill="#ffffff"
                d="m53.537 58.211-2.438 1.476c-2.27 1.367-5.396.753-6.974-1.372l-.541-.731a4.803 4.803 0 0 1-.898-3.654 4.804 4.804 0 0 1 1.993-3.191l1.855-1.311a20.059 20.059 0 0 1-2.125-.886c-1.291-.644-3.66-.681-5.066-.075l-4.012 1.72c-.609.261-1.284.368-1.988.368-1.879 0-3.964-.769-5.549-1.445l-1.148-.377-11.698 13.372 5.622 4.361a4.945 4.945 0 0 1 2.908-.961c1.274 0 2.483.481 3.401 1.356l.661.632a4.873 4.873 0 0 1 1.399 2.473 4.895 4.895 0 0 1 1.547-.275c1.275 0 2.482.481 3.399 1.355l.66.634a4.887 4.887 0 0 1 1.519 3.446 4.902 4.902 0 0 1-.264 1.67 4.888 4.888 0 0 1 2.398 1.251l.656.621a4.92 4.92 0 0 1 1.519 3.559c.068-.003.134-.021.202-.021 1.274 0 2.482.483 3.4 1.361l.655.618c.832.794 1.325 1.832 1.465 2.956l4.618 4.299c.413.383.955.581 1.524.563a2.11 2.11 0 0 0 1.48-.673l.623-.668c.381-.41.58-.951.559-1.521a2.101 2.101 0 0 0-.585-1.374l-4.675-4.336a1.4 1.4 0 0 1 1.902-2.055l.001.001v.001l.077.07 9.156 8.492a2.139 2.139 0 0 0 3.012-.112l.619-.665a2.11 2.11 0 0 0 .563-1.525 2.117 2.117 0 0 0-.66-1.466l-8.858-8.228a1.4 1.4 0 0 1 1.906-2.053L67.4 85.219c.413.386.957.588 1.524.564a2.117 2.117 0 0 0 1.483-.675l.615-.663c.387-.416.587-.958.566-1.528a2.114 2.114 0 0 0-.676-1.483L59.757 71.052a1.4 1.4 0 1 1 1.907-2.051l10.42 9.687c.86.799 2.211.749 3.01-.111l.617-.667c.8-.859.75-2.21-.11-3.013 0 0-16.953-15.78-17.782-16.554-1.136-.769-3.113-.833-4.282-.132z"
                class="colorFFF svgShape"></path>
            <path fill="#ffce40" d="m5 60.971 6.198 5.42 19.417-22.195-8.558-7.491z" class="color4080FF svgShape">
            </path>
        </svg></g>
</svg>