<?xml version="1.0" encoding="utf-8"?>
<!-- Generator: Adobe Illustrator 25.4.1, SVG Export Plug-In . SVG Version: 6.00 Build 0)  -->
<svg version="1.1" id="payment" xmlns="http://www.w3.org/2000/svg" xmlns:xlink="http://www.w3.org/1999/xlink" x="0px" y="0px"
	 viewBox="0 0 80 80" style="enable-background:new 0 0 80 80;" xml:space="preserve">
<path d="M5,66.3c0,0.6,0.4,1,1,1h4.3c2.9,0,5.3-2.4,5.3-5.3v0c2.3,0.1,4.6,0.7,6.7,1.7L38,71.2c1.1,0.5,2.2,0.8,3.3,0.8
	c1.1,0,2.2-0.2,3.2-0.7L74,58c0.5-0.2,0.8-0.7,1-1.2c0.1-0.5,0.1-1-0.2-1.5c-2.3-3.7-6.5-5.7-10.8-5L49.4,52
	c0.2-0.6,0.3-1.2,0.3-1.9c0-3-2.4-5.4-5.4-5.4h-7.7l0,0c-2.9-2.9-6.8-4.5-10.9-4.5H15.6v-0.6c0-2.9-2.4-5.3-5.3-5.3H6
	c-0.6,0-1,0.4-1,1C5,35.3,5,66.3,5,66.3z M25.7,42.2c3.6,0,6.9,1.4,9.5,3.9l0.3,0.3c0.2,0.2,0.4,0.3,0.7,0.3h8.1
	c1.9,0,3.4,1.5,3.4,3.4s-1.5,3.4-3.4,3.4H26.7c-0.6,0-1,0.4-1,1s0.4,1,1,1h17.6c1.3,0,2.6-0.5,3.5-1.3l16.3-1.9c3.5-0.6,6.9,1,8.8,4
	L43.7,69.5c-1.5,0.7-3.3,0.7-4.8-0.1l-15.8-7.6c-2.4-1.1-4.9-1.8-7.5-1.9V42.2L25.7,42.2L25.7,42.2z M7,36.3h3.3
	c1.8,0,3.3,1.5,3.3,3.3V62c0,1.8-1.5,3.3-3.3,3.3H7V36.3z M73,8H29c-1.1,0-2,0.9-2,2v26c0,1.1,0.9,2,2,2h44c1.1,0,2-0.9,2-2V10
	C75,8.9,74.1,8,73,8z M73,16.2c-3.2-0.5-5.7-3-6.2-6.2H73V16.2z M35.2,10c-0.5,3.2-3,5.7-6.2,6.2V10H35.2z M29,29.8
	c3.2,0.5,5.7,3,6.2,6.2H29V29.8z M37.2,36c-0.5-4.3-3.9-7.7-8.2-8.2v-9.6c4.3-0.5,7.7-3.9,8.2-8.2h27.6c0.5,4.3,3.9,7.7,8.2,8.2v9.6
	c-4.3,0.5-7.7,3.9-8.2,8.2H37.2z M66.8,36c0.5-3.2,3-5.7,6.2-6.2V36C73,36,66.8,36,66.8,36z"/>
<g>
	<g>
		<path d="M52,32.9l-7.6-8l0-1.5h3.8c1,0,1.8-0.1,2.5-0.4c0.7-0.2,1.2-0.6,1.6-1.1c0.4-0.5,0.6-1.1,0.6-1.8c0-1.1-0.4-1.9-1.1-2.6
			c-0.8-0.6-1.9-0.9-3.5-0.9h-4l0.7-2h3.3c1.7,0,3.1,0.2,4.2,0.7c1.1,0.5,1.9,1.1,2.4,2c0.5,0.8,0.8,1.8,0.8,2.8
			c0,0.9-0.2,1.8-0.7,2.6c-0.5,0.8-1.2,1.4-2.3,1.9s-2.4,0.7-4.2,0.7h-0.1l7,7.4v0.1H52z M58.3,19l-0.7,2.1H44.1l0.7-2.1H58.3z
			 M58.3,14.7l-0.7,2.1L47,16.7l0.7-2H58.3z"/>
	</g>
</g>
</svg>
