<?xml version="1.0" encoding="utf-8"?>
<!-- Generator: Adobe Illustrator 25.4.1, SVG Export Plug-In . SVG Version: 6.00 Build 0)  -->
<svg version="1.1" id="SvgjsSvg1096" xmlns:svgjs="http://svgjs.com/svgjs"
	 xmlns="http://www.w3.org/2000/svg" xmlns:xlink="http://www.w3.org/1999/xlink" x="0px" y="0px" viewBox="0 0 550 550"
	 style="enable-background:new 0 0 550 550;" xml:space="preserve">
<style type="text/css">
	.st0{fill:#1E1E1E;}
	.st1{fill:#2E2E2E;}
	.st2{fill:#524F50;}
	.st3{fill:#FABB04;}
	.st4{fill:#636363;}
	.st5{fill:#D9D3D3;}
	.st6{fill:#162615;}
	.st7{fill:#AEA8A8;}
	.st8{fill:#E5E5E5;}
	.st9{fill:#161E28;}
	.st10{fill:#FFFFFF;}
	.st11{fill:#545454;}
	.st12{fill:#263A56;}
	.st13{fill:#5A749E;}
	.st14{fill:#211F20;}
	.st15{fill:#EDB67A;}
	.st16{fill:#E98705;}
	.st17{fill:#F2F0F0;}
	.st18{fill:#888485;}
	.st19{fill:#C48A4B;}
	.st20{fill:#D39C59;}
	.st21{fill:#DDA766;}
	.st22{fill:#071926;}
	.st23{fill:#FEFDFC;}
	.st24{fill:#212023;}
	.st25{fill:#2D2C30;}
	.st26{fill:#003057;}
	.st27{fill:#00273D;}
	.st28{fill:#002944;}
	.st29{fill:#FCCE83;}
	.st30{fill:#264419;}
	.st31{fill:#345626;}
	.st32{opacity:0.5;fill:#4B7A35;enable-background:new    ;}
	.st33{fill:#D2AF2F;}
	.st34{opacity:0.4;fill:#F8F2B6;enable-background:new    ;}
	.st35{fill:#FFFBFD;}
	.st36{opacity:0.1;fill:#FFFFFF;enable-background:new    ;}
	.st37{fill:#07396D;}
	.st38{fill:#6A8BBA;}
	.st39{fill:#6C9E5A;}
	.st40{fill:#FFA52B;}
	.st41{fill:#1B6B1F;}
	.st42{fill:#1B3968;}
	.st43{fill:#A80400;}
</style>
<g id="SvgjsG1098">
	<polygon class="st0" points="316,494.4 316,222.4 348.3,222.4 348.3,0.2 350.1,0.2 350.1,224.4 317.7,224.4 317.7,494.4 	"/>
	<polygon class="st1" points="308.1,466.7 306.8,469 308.1,471.2 310.7,471.2 311.9,469 310.7,466.7 	"/>
	<path class="st2" d="M310.8,469c0-0.8-0.6-1.4-1.4-1.4s-1.4,0.6-1.4,1.4c0,0.8,0.6,1.4,1.4,1.4S310.8,469.8,310.8,469z"/>
	<polygon class="st1" points="308.1,423.6 306.8,425.8 308.1,428 310.7,428 311.9,425.8 310.7,423.6 	"/>
	<path class="st2" d="M310.8,425.8c0-0.8-0.6-1.4-1.4-1.4s-1.4,0.6-1.4,1.4s0.6,1.4,1.4,1.4S310.8,426.6,310.8,425.8z"/>
	<polygon class="st1" points="308.1,380.4 306.8,382.6 308.1,384.8 310.7,384.8 311.9,382.6 310.7,380.4 	"/>
	<path class="st2" d="M310.8,382.6c0-0.8-0.6-1.4-1.4-1.4s-1.4,0.6-1.4,1.4c0,0.8,0.6,1.4,1.4,1.4S310.8,383.4,310.8,382.6z"/>
	<polygon class="st1" points="308.1,337.2 306.8,339.4 308.1,341.7 310.7,341.7 311.9,339.4 310.7,337.2 	"/>
	<path class="st2" d="M310.8,339.4c0-0.8-0.6-1.4-1.4-1.4s-1.4,0.6-1.4,1.4s0.6,1.4,1.4,1.4S310.8,340.2,310.8,339.4z"/>
	<polygon class="st1" points="308.1,294 306.8,296.3 308.1,298.5 310.7,298.5 311.9,296.3 310.7,294 	"/>
	<path class="st2" d="M310.8,296.3c0-0.8-0.6-1.4-1.4-1.4s-1.4,0.6-1.4,1.4c0,0.8,0.6,1.4,1.4,1.4S310.8,297.1,310.8,296.3z"/>
	<polygon class="st1" points="308.9,251.7 307.6,253.9 308.9,256.2 311.5,256.2 312.8,253.9 311.5,251.7 	"/>
	<circle class="st2" cx="310.2" cy="253.9" r="1.4"/>
	<g>
		<polygon class="st1" points="321.5,466.7 320.3,469 321.5,471.2 324.1,471.2 325.4,469 324.1,466.7 		"/>
		<circle class="st2" cx="322.8" cy="469" r="1.4"/>
	</g>
	<g>
		<polygon class="st1" points="321.5,423.6 320.3,425.8 321.5,428 324.1,428 325.4,425.8 324.1,423.6 		"/>
		<path class="st2" d="M324.2,425.8c0-0.8-0.6-1.4-1.4-1.4s-1.4,0.6-1.4,1.4s0.6,1.4,1.4,1.4S324.2,426.6,324.2,425.8z"/>
	</g>
	<g>
		<polygon class="st1" points="321.5,380.4 320.3,382.6 321.5,384.8 324.1,384.8 325.4,382.6 324.1,380.4 		"/>
		<circle class="st2" cx="322.8" cy="382.6" r="1.4"/>
	</g>
	<g>
		<polygon class="st1" points="321.5,337.2 320.3,339.4 321.5,341.7 324.1,341.7 325.4,339.4 324.1,337.2 		"/>
		<path class="st2" d="M324.2,339.4c0-0.8-0.6-1.4-1.4-1.4s-1.4,0.6-1.4,1.4s0.6,1.4,1.4,1.4S324.2,340.2,324.2,339.4z"/>
	</g>
	<g>
		<polygon class="st1" points="321.5,294 320.3,296.3 321.5,298.5 324.1,298.5 325.4,296.3 324.1,294 		"/>
		<circle class="st2" cx="322.8" cy="296.3" r="1.4"/>
	</g>
	<g>
		<polygon class="st1" points="322.4,251.7 321.1,253.9 322.4,256.2 325,256.2 326.2,253.9 325,251.7 		"/>
		<circle class="st2" cx="323.7" cy="253.9" r="1.4"/>
	</g>
	<g>
		<polygon class="st1" points="341.4,191.9 340.1,194.2 341.4,196.4 344,196.4 345.3,194.2 344,191.9 		"/>
		<circle class="st2" cx="342.7" cy="194.2" r="1.4"/>
		<polygon class="st1" points="341.4,148.8 340.1,151 341.4,153.2 344,153.2 345.3,151 344,148.8 		"/>
		<path class="st2" d="M344.1,151c0-0.8-0.6-1.4-1.4-1.4c-0.8,0-1.4,0.6-1.4,1.4c0,0.8,0.6,1.4,1.4,1.4S344.1,151.8,344.1,151z"/>
		<polygon class="st1" points="341.4,105.6 340.1,107.8 341.4,110 344,110 345.3,107.8 344,105.6 		"/>
		<circle class="st2" cx="342.7" cy="107.8" r="1.4"/>
		<polygon class="st1" points="341.4,62.4 340.1,64.6 341.4,66.9 344,66.9 345.3,64.6 344,62.4 		"/>
		<path class="st2" d="M344.1,64.6c0-0.8-0.6-1.4-1.4-1.4c-0.8,0-1.4,0.6-1.4,1.4c0,0.8,0.6,1.4,1.4,1.4
			C343.5,66.1,344.1,65.4,344.1,64.6z"/>
		<polygon class="st1" points="341.4,19.2 340.1,21.5 341.4,23.7 344,23.7 345.3,21.5 344,19.2 		"/>
		<circle class="st2" cx="342.7" cy="21.5" r="1.4"/>
		<g>
			<polygon class="st1" points="354.9,191.9 353.6,194.2 354.9,196.4 357.5,196.4 358.7,194.2 357.5,191.9 			"/>
			<circle class="st2" cx="356.2" cy="194.2" r="1.4"/>
		</g>
		<g>
			<polygon class="st1" points="354.9,148.8 353.6,151 354.9,153.2 357.5,153.2 358.7,151 357.5,148.8 			"/>
			<path class="st2" d="M357.6,151c0-0.8-0.6-1.4-1.4-1.4c-0.8,0-1.4,0.6-1.4,1.4c0,0.8,0.6,1.4,1.4,1.4S357.6,151.8,357.6,151z"/>
		</g>
		<g>
			<polygon class="st1" points="354.9,105.6 353.6,107.8 354.9,110 357.5,110 358.7,107.8 357.5,105.6 			"/>
			<circle class="st2" cx="356.2" cy="107.8" r="1.4"/>
		</g>
		<g>
			<polygon class="st1" points="354.9,62.4 353.6,64.6 354.9,66.9 357.5,66.9 358.7,64.6 357.5,62.4 			"/>
			<path class="st2" d="M357.6,64.6c0-0.8-0.6-1.4-1.4-1.4c-0.8,0-1.4,0.6-1.4,1.4c0,0.8,0.6,1.4,1.4,1.4S357.6,65.4,357.6,64.6z"/>
		</g>
		<g>
			<polygon class="st1" points="354.9,19.2 353.6,21.5 354.9,23.7 357.5,23.7 358.7,21.5 357.5,19.2 			"/>
			<circle class="st2" cx="356.2" cy="21.5" r="1.4"/>
		</g>
	</g>
	<g>
		<polygon class="st1" points="334.8,214.8 332.6,213.5 330.4,214.8 330.4,217.4 332.6,218.7 334.8,217.4 		"/>
		<circle class="st2" cx="332.6" cy="216.1" r="1.4"/>
	</g>
	<g>
		<polygon class="st1" points="334.8,228.3 332.6,227 330.4,228.3 330.4,230.8 332.6,232.1 334.8,230.8 		"/>
		<path class="st2" d="M332.6,231c0.8,0,1.4-0.6,1.4-1.4c0-0.8-0.6-1.4-1.4-1.4c-0.8,0-1.4,0.6-1.4,1.4S331.8,231,332.6,231z"/>
	</g>
	<g>
		<polygon class="st0" points="106.1,494.4 106.1,222.4 138.5,222.4 138.5,0.2 140.2,0.2 140.2,224.4 107.9,224.4 107.9,494.4 		"/>
		<polygon class="st1" points="98.2,466.7 96.9,469 98.2,471.2 100.8,471.2 102.1,469 100.8,466.7 		"/>
		<circle class="st2" cx="99.5" cy="469" r="1.4"/>
		<polygon class="st1" points="98.2,423.6 96.9,425.8 98.2,428 100.8,428 102.1,425.8 100.8,423.6 		"/>
		<path class="st2" d="M100.9,425.8c0-0.8-0.6-1.4-1.4-1.4c-0.8,0-1.4,0.6-1.4,1.4s0.6,1.4,1.4,1.4
			C100.3,427.2,100.9,426.6,100.9,425.8z"/>
		<polygon class="st1" points="98.2,380.4 96.9,382.6 98.2,384.8 100.8,384.8 102.1,382.6 100.8,380.4 		"/>
		<circle class="st2" cx="99.5" cy="382.6" r="1.4"/>
		<polygon class="st1" points="98.2,337.2 96.9,339.4 98.2,341.7 100.8,341.7 102.1,339.4 100.8,337.2 		"/>
		<path class="st2" d="M100.9,339.4c0-0.8-0.6-1.4-1.4-1.4c-0.8,0-1.4,0.6-1.4,1.4s0.6,1.4,1.4,1.4
			C100.3,340.9,100.9,340.2,100.9,339.4z"/>
		<polygon class="st1" points="98.2,294 96.9,296.3 98.2,298.5 100.8,298.5 102.1,296.3 100.8,294 		"/>
		<circle class="st2" cx="99.5" cy="296.3" r="1.4"/>
		<polygon class="st1" points="99.1,251.7 97.8,253.9 99.1,256.2 101.6,256.2 102.9,253.9 101.6,251.7 		"/>
		<path class="st2" d="M101.8,253.9c0-0.8-0.6-1.4-1.4-1.4c-0.8,0-1.4,0.6-1.4,1.4c0,0.8,0.6,1.4,1.4,1.4
			C101.1,255.4,101.8,254.7,101.8,253.9z"/>
		<g>
			<polygon class="st1" points="111.7,466.7 110.4,469 111.7,471.2 114.2,471.2 115.5,469 114.2,466.7 			"/>
			<path class="st2" d="M114.4,469c0-0.8-0.6-1.4-1.4-1.4c-0.8,0-1.4,0.6-1.4,1.4c0,0.8,0.6,1.4,1.4,1.4
				C113.7,470.4,114.4,469.8,114.4,469z"/>
		</g>
		<g>
			<polygon class="st1" points="111.7,423.6 110.4,425.8 111.7,428 114.2,428 115.5,425.8 114.2,423.6 			"/>
			<path class="st2" d="M114.4,425.8c0-0.8-0.6-1.4-1.4-1.4c-0.8,0-1.4,0.6-1.4,1.4s0.6,1.4,1.4,1.4
				C113.7,427.2,114.4,426.6,114.4,425.8z"/>
		</g>
		<g>
			<polygon class="st1" points="111.7,380.4 110.4,382.6 111.7,384.8 114.2,384.8 115.5,382.6 114.2,380.4 			"/>
			<path class="st2" d="M114.4,382.6c0-0.8-0.6-1.4-1.4-1.4c-0.8,0-1.4,0.6-1.4,1.4c0,0.8,0.6,1.4,1.4,1.4
				C113.7,384,114.4,383.4,114.4,382.6z"/>
		</g>
		<g>
			<polygon class="st1" points="111.7,337.2 110.4,339.4 111.7,341.7 114.2,341.7 115.5,339.4 114.2,337.2 			"/>
			<path class="st2" d="M114.4,339.4c0-0.8-0.6-1.4-1.4-1.4c-0.8,0-1.4,0.6-1.4,1.4s0.6,1.4,1.4,1.4
				C113.7,340.9,114.4,340.2,114.4,339.4z"/>
		</g>
		<g>
			<polygon class="st1" points="111.7,294 110.4,296.3 111.7,298.5 114.2,298.5 115.5,296.3 114.2,294 			"/>
			<path class="st2" d="M114.4,296.3c0-0.8-0.6-1.4-1.4-1.4c-0.8,0-1.4,0.6-1.4,1.4c0,0.8,0.6,1.4,1.4,1.4
				C113.7,297.7,114.4,297.1,114.4,296.3z"/>
		</g>
		<g>
			<polygon class="st1" points="112.5,251.7 111.2,253.9 112.5,256.2 115.1,256.2 116.4,253.9 115.1,251.7 			"/>
			<circle class="st2" cx="113.8" cy="253.9" r="1.4"/>
		</g>
		<g>
			<polygon class="st1" points="131.6,191.9 130.3,194.2 131.6,196.4 134.1,196.4 135.4,194.2 134.1,191.9 			"/>
			<path class="st2" d="M134.3,194.2c0-0.8-0.6-1.4-1.4-1.4c-0.8,0-1.4,0.6-1.4,1.4c0,0.8,0.6,1.4,1.4,1.4
				C133.6,195.6,134.3,195,134.3,194.2z"/>
			<polygon class="st1" points="131.6,148.8 130.3,151 131.6,153.2 134.1,153.2 135.4,151 134.1,148.8 			"/>
			<path class="st2" d="M134.3,151c0-0.8-0.6-1.4-1.4-1.4c-0.8,0-1.4,0.6-1.4,1.4c0,0.8,0.6,1.4,1.4,1.4
				C133.6,152.4,134.3,151.8,134.3,151z"/>
			<polygon class="st1" points="131.6,105.6 130.3,107.8 131.6,110 134.1,110 135.4,107.8 134.1,105.6 			"/>
			<path class="st2" d="M134.3,107.8c0-0.8-0.6-1.4-1.4-1.4c-0.8,0-1.4,0.6-1.4,1.4s0.6,1.4,1.4,1.4
				C133.6,109.2,134.3,108.6,134.3,107.8z"/>
			<polygon class="st1" points="131.6,62.4 130.3,64.6 131.6,66.9 134.1,66.9 135.4,64.6 134.1,62.4 			"/>
			<path class="st2" d="M134.3,64.6c0-0.8-0.6-1.4-1.4-1.4c-0.8,0-1.4,0.6-1.4,1.4c0,0.8,0.6,1.4,1.4,1.4
				C133.6,66.1,134.3,65.4,134.3,64.6z"/>
			<polygon class="st1" points="131.6,19.2 130.3,21.5 131.6,23.7 134.1,23.7 135.4,21.5 134.1,19.2 			"/>
			<path class="st2" d="M134.3,21.5c0-0.8-0.6-1.4-1.4-1.4c-0.8,0-1.4,0.6-1.4,1.4c0,0.8,0.6,1.4,1.4,1.4
				C133.6,22.9,134.3,22.3,134.3,21.5z"/>
			<g>
				<polygon class="st1" points="145,191.9 143.7,194.2 145,196.4 147.6,196.4 148.9,194.2 147.6,191.9 				"/>
				<path class="st2" d="M147.7,194.2c0-0.8-0.6-1.4-1.4-1.4c-0.8,0-1.4,0.6-1.4,1.4c0,0.8,0.6,1.4,1.4,1.4
					C147.1,195.6,147.7,195,147.7,194.2z"/>
			</g>
			<g>
				<polygon class="st1" points="145,148.8 143.7,151 145,153.2 147.6,153.2 148.9,151 147.6,148.8 				"/>
				<path class="st2" d="M147.7,151c0-0.8-0.6-1.4-1.4-1.4c-0.8,0-1.4,0.6-1.4,1.4c0,0.8,0.6,1.4,1.4,1.4
					C147.1,152.4,147.7,151.8,147.7,151z"/>
			</g>
			<g>
				<polygon class="st1" points="145,105.6 143.7,107.8 145,110 147.6,110 148.9,107.8 147.6,105.6 				"/>
				<path class="st2" d="M147.7,107.8c0-0.8-0.6-1.4-1.4-1.4c-0.8,0-1.4,0.6-1.4,1.4s0.6,1.4,1.4,1.4
					C147.1,109.2,147.7,108.6,147.7,107.8z"/>
			</g>
			<g>
				<polygon class="st1" points="145,62.4 143.7,64.6 145,66.9 147.6,66.9 148.9,64.6 147.6,62.4 				"/>
				<path class="st2" d="M147.7,64.6c0-0.8-0.6-1.4-1.4-1.4c-0.8,0-1.4,0.6-1.4,1.4c0,0.8,0.6,1.4,1.4,1.4
					C147.1,66.1,147.7,65.4,147.7,64.6z"/>
			</g>
			<g>
				<polygon class="st1" points="145,19.2 143.7,21.5 145,23.7 147.6,23.7 148.9,21.5 147.6,19.2 				"/>
				<path class="st2" d="M147.7,21.5c0-0.8-0.6-1.4-1.4-1.4c-0.8,0-1.4,0.6-1.4,1.4c0,0.8,0.6,1.4,1.4,1.4
					C147.1,22.9,147.7,22.3,147.7,21.5z"/>
			</g>
		</g>
		<g>
			<polygon class="st1" points="124.9,214.8 122.7,213.5 120.5,214.8 120.5,217.4 122.7,218.7 124.9,217.4 			"/>
			<circle class="st2" cx="122.7" cy="216.1" r="1.4"/>
		</g>
		<g>
			<polygon class="st1" points="124.9,228.3 122.7,227 120.5,228.3 120.5,230.8 122.7,232.1 124.9,230.8 			"/>
			<path class="st2" d="M122.7,231c0.8,0,1.4-0.6,1.4-1.4c0-0.8-0.6-1.4-1.4-1.4c-0.8,0-1.4,0.6-1.4,1.4S121.9,231,122.7,231z"/>
		</g>
	</g>
	<g>
		<polygon class="st0" points="32.4,172.2 0,172.2 0,170.7 31.1,170.7 31.1,0 32.4,0 		"/>
		<polygon class="st1" points="25.9,147.7 24.9,149.3 25.9,151 27.8,151 28.8,149.3 27.8,147.7 		"/>
		<circle class="st2" cx="26.8" cy="149.3" r="1.1"/>
		<polygon class="st1" points="25.9,115 24.9,116.7 25.9,118.4 27.8,118.4 28.8,116.7 27.8,115 		"/>
		<path class="st2" d="M27.9,116.7c0-0.6-0.5-1.1-1.1-1.1s-1.1,0.5-1.1,1.1c0,0.6,0.5,1.1,1.1,1.1S27.9,117.3,27.9,116.7z"/>
		<polygon class="st1" points="25.9,82.4 24.9,84.1 25.9,85.8 27.8,85.8 28.8,84.1 27.8,82.4 		"/>
		<path class="st2" d="M27.9,84.1c0-0.6-0.5-1.1-1.1-1.1s-1.1,0.5-1.1,1.1c0,0.6,0.5,1.1,1.1,1.1S27.9,84.7,27.9,84.1z"/>
		<polygon class="st1" points="25.9,49.8 24.9,51.5 25.9,53.1 27.8,53.1 28.8,51.5 27.8,49.8 		"/>
		<path class="st2" d="M27.9,51.5c0-0.6-0.5-1.1-1.1-1.1s-1.1,0.5-1.1,1.1c0,0.6,0.5,1.1,1.1,1.1S27.9,52,27.9,51.5z"/>
		<polygon class="st1" points="25.9,17.1 24.9,18.8 25.9,20.5 27.8,20.5 28.8,18.8 27.8,17.1 		"/>
		<path class="st2" d="M27.9,18.8c0-0.6-0.5-1.1-1.1-1.1s-1.1,0.5-1.1,1.1s0.5,1.1,1.1,1.1C27.4,19.9,27.9,19.4,27.9,18.8z"/>
		<g>
			<polygon class="st1" points="36,147.7 35.1,149.3 36,151 38,151 39,149.3 38,147.7 			"/>
			<path class="st2" d="M38.1,149.3c0-0.6-0.5-1.1-1.1-1.1s-1.1,0.5-1.1,1.1c0,0.6,0.5,1.1,1.1,1.1
				C37.6,150.4,38.1,149.9,38.1,149.3z"/>
		</g>
		<g>
			<polygon class="st1" points="36,115 35.1,116.7 36,118.4 38,118.4 39,116.7 38,115 			"/>
			<path class="st2" d="M38.1,116.7c0-0.6-0.5-1.1-1.1-1.1c-0.6,0-1.1,0.5-1.1,1.1c0,0.6,0.5,1.1,1.1,1.1
				C37.6,117.8,38.1,117.3,38.1,116.7z"/>
		</g>
		<g>
			<polygon class="st1" points="36,82.4 35.1,84.1 36,85.8 38,85.8 39,84.1 38,82.4 			"/>
			<path class="st2" d="M38.1,84.1c0-0.6-0.5-1.1-1.1-1.1c-0.6,0-1.1,0.5-1.1,1.1s0.5,1.1,1.1,1.1C37.6,85.2,38.1,84.7,38.1,84.1z"
				/>
		</g>
		<g>
			<polygon class="st1" points="36,49.8 35.1,51.5 36,53.1 38,53.1 39,51.5 38,49.8 			"/>
			<circle class="st2" cx="37" cy="51.5" r="1.1"/>
		</g>
		<g>
			<polygon class="st1" points="36,17.1 35.1,18.8 36,20.5 38,20.5 39,18.8 38,17.1 			"/>
			<path class="st2" d="M38.1,18.8c0-0.6-0.5-1.1-1.1-1.1c-0.6,0-1.1,0.5-1.1,1.1s0.5,1.1,1.1,1.1C37.6,19.9,38.1,19.4,38.1,18.8z"
				/>
		</g>
		<g>
			<polygon class="st1" points="20.9,164.9 19.2,164 17.5,164.9 17.5,166.9 19.2,167.9 20.9,166.9 			"/>
			<path class="st2" d="M19.2,167c0.6,0,1.1-0.5,1.1-1.1c0-0.6-0.5-1.1-1.1-1.1s-1.1,0.5-1.1,1.1S18.6,167,19.2,167z"/>
		</g>
		<g>
			<polygon class="st1" points="20.9,175.1 19.2,174.1 17.5,175.1 17.5,177.1 19.2,178 20.9,177.1 			"/>
			<path class="st2" d="M19.2,177.2c0.6,0,1.1-0.5,1.1-1.1c0-0.6-0.5-1.1-1.1-1.1s-1.1,0.5-1.1,1.1
				C18.1,176.7,18.6,177.2,19.2,177.2z"/>
		</g>
	</g>
	<g>
		<polygon class="st0" points="377.9,32.4 377.9,0 379.3,0 379.3,31.1 550,31.1 550,32.4 		"/>
		<polygon class="st1" points="402.4,25.9 400.7,24.9 399,25.9 399,27.8 400.7,28.8 402.4,27.8 		"/>
		<path class="st2" d="M400.7,27.9c0.6,0,1.1-0.5,1.1-1.1s-0.5-1.1-1.1-1.1c-0.6,0-1.1,0.5-1.1,1.1S400.1,27.9,400.7,27.9z"/>
		<polygon class="st1" points="435,25.9 433.3,24.9 431.6,25.9 431.6,27.8 433.3,28.8 435,27.8 		"/>
		<path class="st2" d="M433.3,27.9c0.6,0,1.1-0.5,1.1-1.1s-0.5-1.1-1.1-1.1s-1.1,0.5-1.1,1.1S432.7,27.9,433.3,27.9z"/>
		<polygon class="st1" points="467.6,25.9 465.9,24.9 464.3,25.9 464.3,27.8 465.9,28.8 467.6,27.8 		"/>
		<path class="st2" d="M465.9,27.9c0.6,0,1.1-0.5,1.1-1.1s-0.5-1.1-1.1-1.1c-0.6,0-1.1,0.5-1.1,1.1S465.4,27.9,465.9,27.9z"/>
		<polygon class="st1" points="500.3,25.9 498.6,24.9 496.9,25.9 496.9,27.8 498.6,28.8 500.3,27.8 		"/>
		<path class="st2" d="M498.6,27.9c0.6,0,1.1-0.5,1.1-1.1s-0.5-1.1-1.1-1.1c-0.6,0-1.1,0.5-1.1,1.1C497.5,27.4,498,27.9,498.6,27.9z
			"/>
		<polygon class="st1" points="532.9,25.9 531.2,24.9 529.5,25.9 529.5,27.8 531.2,28.8 532.9,27.8 		"/>
		<path class="st2" d="M531.2,27.9c0.6,0,1.1-0.5,1.1-1.1s-0.5-1.1-1.1-1.1c-0.6,0-1.1,0.5-1.1,1.1S530.6,27.9,531.2,27.9z"/>
		<g>
			<polygon class="st1" points="402.4,36 400.7,35 399,36 399,38 400.7,38.9 402.4,38 			"/>
			<path class="st2" d="M400.7,38.1c0.6,0,1.1-0.5,1.1-1.1c0-0.6-0.5-1.1-1.1-1.1c-0.6,0-1.1,0.5-1.1,1.1
				C399.6,37.6,400.1,38.1,400.7,38.1z"/>
		</g>
		<g>
			<polygon class="st1" points="435,36 433.3,35 431.6,36 431.6,38 433.3,38.9 435,38 			"/>
			<path class="st2" d="M433.3,38.1c0.6,0,1.1-0.5,1.1-1.1c0-0.6-0.5-1.1-1.1-1.1s-1.1,0.5-1.1,1.1
				C432.2,37.6,432.7,38.1,433.3,38.1z"/>
		</g>
		<g>
			<polygon class="st1" points="467.6,36 465.9,35 464.3,36 464.3,38 465.9,38.9 467.6,38 			"/>
			<circle class="st2" cx="465.9" cy="37" r="1.1"/>
		</g>
		<g>
			<polygon class="st1" points="500.3,36 498.6,35 496.9,36 496.9,38 498.6,38.9 500.3,38 			"/>
			<path class="st2" d="M498.6,38.1c0.6,0,1.1-0.5,1.1-1.1c0-0.6-0.5-1.1-1.1-1.1c-0.6,0-1.1,0.5-1.1,1.1
				C497.5,37.6,498,38.1,498.6,38.1z"/>
		</g>
		<g>
			<polygon class="st1" points="532.9,36 531.2,35 529.5,36 529.5,38 531.2,38.9 532.9,38 			"/>
			<path class="st2" d="M531.2,38.1c0.6,0,1.1-0.5,1.1-1.1c0-0.6-0.5-1.1-1.1-1.1c-0.6,0-1.1,0.5-1.1,1.1
				C530.1,37.6,530.6,38.1,531.2,38.1z"/>
		</g>
		<g>
			<polygon class="st1" points="385.1,20.9 386.1,19.2 385.1,17.5 383.1,17.5 382.2,19.2 383.1,20.9 			"/>
			<path class="st2" d="M383,19.2c0,0.6,0.5,1.1,1.1,1.1c0.6,0,1.1-0.5,1.1-1.1c0-0.6-0.5-1.1-1.1-1.1C383.5,18.1,383,18.6,383,19.2
				z"/>
		</g>
		<g>
			<polygon class="st1" points="374.9,20.9 375.9,19.2 374.9,17.5 373,17.5 372,19.2 373,20.9 			"/>
			<path class="st2" d="M372.9,19.2c0,0.6,0.5,1.1,1.1,1.1c0.6,0,1.1-0.5,1.1-1.1c0-0.6-0.5-1.1-1.1-1.1
				C373.3,18.1,372.9,18.6,372.9,19.2z"/>
		</g>
	</g>
	<g>
		<polygon class="st0" points="377.9,463.1 377.9,495.6 379.3,495.6 379.3,464.5 550,464.5 550,463.1 		"/>
		<polygon class="st1" points="402.4,469.7 400.7,470.7 399,469.7 399,467.8 400.7,466.8 402.4,467.8 		"/>
		<path class="st2" d="M400.7,467.7c0.6,0,1.1,0.5,1.1,1.1c0,0.6-0.5,1.1-1.1,1.1c-0.6,0-1.1-0.5-1.1-1.1
			C399.6,468.1,400.1,467.7,400.7,467.7z"/>
		<polygon class="st1" points="435,469.7 433.3,470.7 431.6,469.7 431.6,467.8 433.3,466.8 435,467.8 		"/>
		<path class="st2" d="M433.3,467.7c0.6,0,1.1,0.5,1.1,1.1c0,0.6-0.5,1.1-1.1,1.1s-1.1-0.5-1.1-1.1
			C432.2,468.1,432.7,467.7,433.3,467.7z"/>
		<polygon class="st1" points="467.6,469.7 465.9,470.7 464.3,469.7 464.3,467.8 465.9,466.8 467.6,467.8 		"/>
		<path class="st2" d="M465.9,467.7c0.6,0,1.1,0.5,1.1,1.1c0,0.6-0.5,1.1-1.1,1.1c-0.6,0-1.1-0.5-1.1-1.1
			C464.9,468.1,465.4,467.7,465.9,467.7z"/>
		<polygon class="st1" points="500.3,469.7 498.6,470.7 496.9,469.7 496.9,467.8 498.6,466.8 500.3,467.8 		"/>
		<path class="st2" d="M498.6,467.7c0.6,0,1.1,0.5,1.1,1.1s-0.5,1.1-1.1,1.1c-0.6,0-1.1-0.5-1.1-1.1
			C497.5,468.1,498,467.7,498.6,467.7z"/>
		<polygon class="st1" points="532.9,469.7 531.2,470.7 529.5,469.7 529.5,467.8 531.2,466.8 532.9,467.8 		"/>
		<path class="st2" d="M531.2,467.7c0.6,0,1.1,0.5,1.1,1.1s-0.5,1.1-1.1,1.1c-0.6,0-1.1-0.5-1.1-1.1S530.6,467.7,531.2,467.7z"/>
		<g>
			<polygon class="st1" points="402.4,459.5 400.7,460.5 399,459.5 399,457.6 400.7,456.6 402.4,457.6 			"/>
			<path class="st2" d="M400.7,457.5c0.6,0,1.1,0.5,1.1,1.1s-0.5,1.1-1.1,1.1c-0.6,0-1.1-0.5-1.1-1.1S400.1,457.5,400.7,457.5z"/>
		</g>
		<g>
			<polygon class="st1" points="435,459.5 433.3,460.5 431.6,459.5 431.6,457.6 433.3,456.6 435,457.6 			"/>
			<path class="st2" d="M433.3,457.5c0.6,0,1.1,0.5,1.1,1.1s-0.5,1.1-1.1,1.1s-1.1-0.5-1.1-1.1S432.7,457.5,433.3,457.5z"/>
		</g>
		<g>
			<polygon class="st1" points="467.6,459.5 465.9,460.5 464.3,459.5 464.3,457.6 465.9,456.6 467.6,457.6 			"/>
			<circle class="st2" cx="465.9" cy="458.6" r="1.1"/>
		</g>
		<g>
			<polygon class="st1" points="500.3,459.5 498.6,460.5 496.9,459.5 496.9,457.6 498.6,456.6 500.3,457.6 			"/>
			<path class="st2" d="M498.6,457.5c0.6,0,1.1,0.5,1.1,1.1s-0.5,1.1-1.1,1.1c-0.6,0-1.1-0.5-1.1-1.1S498,457.5,498.6,457.5z"/>
		</g>
		<g>
			<polygon class="st1" points="532.9,459.5 531.2,460.5 529.5,459.5 529.5,457.6 531.2,456.6 532.9,457.6 			"/>
			<path class="st2" d="M531.2,457.5c0.6,0,1.1,0.5,1.1,1.1c0,0.6-0.5,1.1-1.1,1.1c-0.6,0-1.1-0.5-1.1-1.1S530.6,457.5,531.2,457.5z
				"/>
		</g>
		<g>
			<polygon class="st1" points="385.1,474.7 386.1,476.4 385.1,478.1 383.1,478.1 382.2,476.4 383.1,474.7 			"/>
			<path class="st2" d="M383,476.4c0-0.6,0.5-1.1,1.1-1.1c0.6,0,1.1,0.5,1.1,1.1c0,0.6-0.5,1.1-1.1,1.1
				C383.5,477.5,383,477,383,476.4z"/>
		</g>
		<g>
			<polygon class="st1" points="374.9,474.7 375.9,476.4 374.9,478.1 373,478.1 372,476.4 373,474.7 			"/>
			<path class="st2" d="M372.9,476.4c0-0.6,0.5-1.1,1.1-1.1c0.6,0,1.1,0.5,1.1,1.1c0,0.6-0.5,1.1-1.1,1.1
				C373.3,477.5,372.9,477,372.9,476.4z"/>
		</g>
	</g>
	<rect y="495.6" class="st3" width="550" height="54.5"/>
	<g>
		<path class="st4" d="M504.4,247.6c0,2-1.6,3.6-3.6,3.6h-6.1c-2,0-3.6-1.6-3.6-3.6v-89.6c0-2,1.6-3.6,3.6-3.6h6.1
			c2,0,3.6,1.6,3.6,3.6V247.6z"/>
		<path class="st5" d="M500.6,247.6c0,2-0.7,3.6-1.6,3.6h-2.6c-0.9,0-1.6-1.6-1.6-3.6v-89.6c0-2,0.7-3.6,1.6-3.6h2.6
			c0.9,0,1.6,1.6,1.6,3.6V247.6z"/>
		<path class="st4" d="M504.4,446.4c0,2-1.6,3.6-3.6,3.6h-6.1c-2,0-3.6-1.6-3.6-3.6v-89.6c0-2,1.6-3.6,3.6-3.6h6.1
			c2,0,3.6,1.6,3.6,3.6V446.4z"/>
		<path class="st5" d="M500.6,446.4c0,2-0.7,3.6-1.6,3.6h-2.6c-0.9,0-1.6-1.6-1.6-3.6v-89.6c0-2,0.7-3.6,1.6-3.6h2.6
			c0.9,0,1.6,1.6,1.6,3.6V446.4z"/>
		<path class="st6" d="M360,435.5c-18,0-35.4-3.5-51.8-10.5c-15.9-6.7-30.1-16.3-42.3-28.5c-12.2-12.2-21.8-26.5-28.5-42.3
			c-6.9-16.4-10.5-33.9-10.5-51.8c0-18,3.5-35.4,10.5-51.8c6.7-15.9,16.3-30.1,28.5-42.3c12.2-12.2,26.5-21.8,42.3-28.5
			c16.4-6.9,33.9-10.5,51.8-10.5l0,0c18,0,35.4,3.5,51.8,10.5c15.9,6.7,30.1,16.3,42.3,28.5c12.2,12.2,21.8,26.5,28.5,42.3
			c6.9,16.4,10.5,33.9,10.5,51.8c0,18-3.5,35.4-10.5,51.8c-6.7,15.9-16.3,30.1-28.5,42.3c-12.2,12.2-26.5,21.8-42.3,28.5
			C395.4,432,378,435.5,360,435.5L360,435.5L360,435.5L360,435.5z"/>
		<circle class="st7" cx="360" cy="302.4" r="118.6"/>
		<path class="st5" d="M360,417c-30.6,0-59.4-11.9-81.1-33.6c-21.7-21.7-33.6-50.5-33.6-81.1c0-30.6,11.9-59.4,33.6-81.1
			c21.7-21.7,50.5-33.6,81.1-33.6h0c30.6,0,59.4,11.9,81.1,33.6c21.7,21.7,33.6,50.5,33.6,81.1c0,30.6-11.9,59.4-33.6,81.1
			C419.4,405.1,390.6,417,360,417L360,417L360,417z"/>
		<path class="st8" d="M285.8,387.6c-23.1-20.1-36.9-48-39-78.6c-2.1-30.6,7.8-60.1,28-83.2c20.1-23.1,48-37,78.6-39h0
			c30.6-2.1,60.1,7.8,83.2,28L285.8,387.6z"/>
		<rect x="384.5" y="295.4" class="st9" width="130.7" height="11.7"/>
		<rect x="384.5" y="299" class="st7" width="130.7" height="4.5"/>
		<rect x="452" y="292.5" class="st10" width="18.4" height="17.3"/>
		<rect x="504.2" y="284.7" class="st10" width="28.7" height="33.6"/>
		<rect x="504.2" y="284.7" class="st9" width="28.7" height="6.7"/>
		<rect x="504.2" y="311.6" class="st9" width="28.7" height="6.7"/>
		<circle class="st11" cx="528.7" cy="314.9" r="2.1"/>
		<path class="st11" d="M518.2,317c-1.2,0-2.1-0.9-2.1-2.1c0-1.2,0.9-2.1,2.1-2.1c1.2,0,2.1,0.9,2.1,2.1
			C520.2,316.1,519.3,317,518.2,317z"/>
		<circle class="st11" cx="507.6" cy="314.9" r="2.1"/>
		<circle class="st11" cx="528.7" cy="288.3" r="2.1"/>
		<path class="st11" d="M518.2,290.4c-1.2,0-2.1-0.9-2.1-2.1c0-1.2,0.9-2.1,2.1-2.1c1.2,0,2.1,0.9,2.1,2.1
			C520.2,289.4,519.3,290.4,518.2,290.4z"/>
		<circle class="st11" cx="507.6" cy="288.3" r="2.1"/>
		<g>
			<polygon class="st9" points="351.1,278.8 341.7,284.6 276.4,171.4 285.7,165.6 			"/>
			<rect x="311.8" y="159.8" transform="matrix(0.866 -0.5 0.5 0.866 -70.4788 187.2077)" class="st7" width="4.5" height="130.7"/>
			
				<rect x="299.8" y="206.2" transform="matrix(0.866 -0.5 0.5 0.866 -66.3598 183.0686)" class="st10" width="17.3" height="18.4"/>
			<g>
				
					<rect x="263.2" y="151.2" transform="matrix(0.866 -0.5 0.5 0.866 -45.2536 162.1839)" class="st10" width="33.6" height="28.7"/>
				<rect x="265" y="157.9" transform="matrix(0.866 -0.5 0.5 0.866 -50.173 157.2651)" class="st9" width="6.7" height="28.7"/>
				<rect x="288.3" y="144.5" transform="matrix(0.866 -0.5 0.5 0.866 -40.3344 167.1029)" class="st9" width="6.7" height="28.7"/>
				<path class="st11" d="M288.4,148.9c0.6,1,0.2,2.3-0.8,2.8c-1,0.6-2.3,0.2-2.8-0.8c-0.6-1-0.2-2.3,0.8-2.8
					C286.5,147.6,287.8,147.9,288.4,148.9z M293.6,158.1c0.6,1,0.2,2.3-0.8,2.8c-1,0.6-2.3,0.2-2.8-0.8c-0.6-1-0.2-2.3,0.8-2.8
					C291.8,156.7,293.1,157.1,293.6,158.1z M298.9,167.2c0.6,1,0.2,2.3-0.8,2.8s-2.3,0.2-2.8-0.8c-0.6-1-0.2-2.3,0.8-2.8
					C297.1,165.9,298.3,166.2,298.9,167.2z M265.3,162.3c0.6,1,0.2,2.3-0.8,2.8c-1,0.6-2.3,0.2-2.8-0.8c-0.6-1-0.2-2.3,0.8-2.8
					C263.4,160.9,264.7,161.3,265.3,162.3z M270.6,171.4c0.6,1,0.2,2.3-0.8,2.8c-1,0.6-2.3,0.2-2.8-0.8c-0.6-1-0.2-2.3,0.8-2.8
					C268.7,170.1,270,170.4,270.6,171.4z M275.8,180.6c0.6,1,0.2,2.3-0.8,2.8c-1,0.6-2.3,0.2-2.8-0.8c-0.6-1-0.2-2.3,0.8-2.8
					C274,179.2,275.3,179.6,275.8,180.6z"/>
			</g>
		</g>
		<g>
			
				<rect x="250.7" y="374.9" transform="matrix(0.5 -0.866 0.866 0.5 -171.7108 464.1128)" class="st9" width="130.7" height="11.7"/>
			
				<rect x="250.7" y="378.5" transform="matrix(0.5 -0.866 0.866 0.5 -171.7104 464.1136)" class="st7" width="130.7" height="4.5"/>
			
				<rect x="301.3" y="381.9" transform="matrix(0.5 -0.866 0.866 0.5 -182.9928 464.1402)" class="st10" width="18.4" height="17.3"/>
			<g>
				
					<rect x="267.2" y="423.3" transform="matrix(0.5 -0.866 0.866 0.5 -240.3534 463.8364)" class="st10" width="28.7" height="33.6"/>
				
					<rect x="278.8" y="443.4" transform="matrix(0.5 -0.866 0.866 0.5 -240.3527 477.2744)" class="st9" width="28.7" height="6.7"/>
				<rect x="255.5" y="430" transform="matrix(0.5 -0.866 0.866 0.5 -240.3537 450.3971)" class="st9" width="28.7" height="6.7"/>
				<path class="st11" d="M263,441.1c0.6-1,1.9-1.3,2.8-0.8c1,0.6,1.3,1.9,0.8,2.8c-0.6,1-1.9,1.3-2.8,0.8
					C262.7,443.4,262.4,442.1,263,441.1z M268.3,432c0.6-1,1.9-1.3,2.8-0.8c1,0.6,1.3,1.9,0.8,2.8c-0.6,1-1.9,1.3-2.8,0.8
					C268,434.3,267.7,433,268.3,432z M273.5,422.8c0.6-1,1.9-1.3,2.8-0.8c1,0.6,1.3,1.9,0.8,2.8c-0.6,1-1.9,1.3-2.8,0.8
					C273.3,425.1,273,423.8,273.5,422.8z M286.1,454.5c0.6-1,1.9-1.3,2.8-0.8c1,0.6,1.3,1.9,0.8,2.8c-0.6,1-1.9,1.3-2.8,0.8
					C285.8,456.7,285.5,455.5,286.1,454.5z M291.3,445.3c0.6-1,1.9-1.3,2.8-0.8c1,0.6,1.3,1.9,0.8,2.8c-0.6,1-1.9,1.3-2.8,0.8
					C291.1,447.6,290.8,446.3,291.3,445.3z M296.6,436.2c0.6-1,1.9-1.3,2.8-0.8c1,0.6,1.3,1.9,0.8,2.8c-0.6,1-1.9,1.3-2.8,0.8
					C296.4,438.4,296,437.2,296.6,436.2z"/>
			</g>
		</g>
		<g>
			<path class="st4" d="M344.5,254.7c0,1.3-1,2.3-2.3,2.3h-3.9c-1.3,0-2.3-1-2.3-2.3v-57.1c0-1.3,1-2.3,2.3-2.3h3.9
				c1.3,0,2.3,1,2.3,2.3V254.7z"/>
			<path class="st7" d="M342.1,254.7c0,1.3-0.5,2.3-1,2.3h-1.7c-0.6,0-1-1-1-2.3v-57.1c0-1.3,0.5-2.3,1-2.3h1.7c0.6,0,1,1,1,2.3
				V254.7z"/>
		</g>
		<g>
			<path class="st4" d="M344.5,404.3c0,1.3-1,2.3-2.3,2.3h-3.9c-1.3,0-2.3-1-2.3-2.3v-57.1c0-1.3,1-2.3,2.3-2.3h3.9
				c1.3,0,2.3,1,2.3,2.3V404.3z"/>
			<path class="st7" d="M342.1,404.3c0,1.3-0.5,2.3-1,2.3h-1.7c-0.6,0-1-1-1-2.3v-57.1c0-1.3,0.5-2.3,1-2.3h1.7c0.6,0,1,1,1,2.3
				V404.3z"/>
		</g>
		<g>
			<path class="st12" d="M509.4,369.6h-47.4V235h47.4v-46.8h-88.1c-10.2,0-18.6,8.3-18.6,18.6v9.6h-71.4v32.3h70.2v107.3h-70.2v32.3
				h71.4v9.7c0,10.2,8.3,18.6,18.6,18.6h88.1V369.6z"/>
			<path class="st13" d="M413,412.1c-4.9-2.9-8.2-8.2-8.2-14.3v-11.7h-44.1v-28.2h42.9V246.6h-42.9v-28.2h44.1v-11.6
				c0-6.1,3.3-11.4,8.2-14.3V412.1z M453.4,190.2h-31.8v224.2h31.8V190.2z M479.7,190.2v42.8h27.7v-42.8L479.7,190.2L479.7,190.2z
				 M479.7,371.6v42.8h27.7v-42.8H479.7z M352.1,218.3h-18.7v28.2h18.7V218.3z M352.1,357.9h-18.7v28.2h18.7V357.9z"/>
		</g>
		
			<ellipse transform="matrix(0.9845 -0.1756 0.1756 0.9845 -47.4981 67.9144)" class="st14" cx="360" cy="302.4" rx="30.3" ry="30.3"/>
		<path class="st15" d="M373.5,285.2l-4.9-2.9l18-30.3l4.9,2.9L373.5,285.2z M334.7,251.3l-4.9,2.8l17.2,30.7l4.9-2.8L334.7,251.3z
			 M303.2,298.8l-0.1,5.6l35.2,0.5l0.1-5.6L303.2,298.8z M328.5,349.8l4.9,2.9l18-30.3l-4.9-2.9L328.5,349.8z M385.3,353.4l4.9-2.8
			l-17.2-30.7l-4.9,2.8L385.3,353.4z M416.9,306l0.1-5.6l-35.2-0.5l-0.1,5.6L416.9,306z"/>
		<path class="st16" d="M391.4,249.6c-29.1-17.4-66.8-7.8-84.2,21.3c-17.4,29.1-7.8,66.8,21.3,84.2c29.1,17.4,66.8,7.8,84.2-21.3
			C430.1,304.6,420.6,267,391.4,249.6z M332.7,348.2c-25.3-15.1-33.6-47.9-18.5-73.1c15.1-25.3,47.9-33.6,73.1-18.5
			c25.3,15.1,33.6,47.9,18.5,73.1C390.8,354.9,358,363.3,332.7,348.2z"/>
		<g>
			<circle class="st16" cx="360" cy="302.4" r="26.3"/>
			<path class="st15" d="M344.9,321.2c10.4-12.3,20.8-24.7,30.9-37.2c-4.2-3.6-9.7-5.8-15.7-5.8c-13.4,0-24.2,10.8-24.2,24.2
				C335.8,310,339.4,316.8,344.9,321.2z"/>
		</g>
		<g>
			<rect x="484.1" y="161.3" class="st9" width="27.2" height="22.6"/>
			<rect x="489.5" y="161.3" class="st17" width="16.4" height="22.6"/>
			<path class="st4" d="M488.7,164.9c0,1.1-0.9,1.9-1.9,1.9s-1.9-0.9-1.9-1.9s0.9-1.9,1.9-1.9C487.8,162.9,488.7,163.8,488.7,164.9z
				 M486.8,170.9c-1.1,0-1.9,0.9-1.9,1.9s0.9,1.9,1.9,1.9s1.9-0.9,1.9-1.9S487.8,170.9,486.8,170.9z M486.8,178.8
				c-1.1,0-1.9,0.9-1.9,1.9s0.9,1.9,1.9,1.9s1.9-0.9,1.9-1.9S487.8,178.8,486.8,178.8z"/>
			<circle class="st4" cx="508.7" cy="164.9" r="1.9"/>
			<circle class="st4" cx="508.7" cy="172.8" r="1.9"/>
			<path class="st4" d="M510.6,180.7c0,1.1-0.9,1.9-1.9,1.9s-1.9-0.9-1.9-1.9s0.9-1.9,1.9-1.9C509.8,178.8,510.6,179.7,510.6,180.7z
				"/>
		</g>
		<g>
			<rect x="332" y="200.8" class="st18" width="16.6" height="13.9"/>
			<rect x="335.3" y="200.8" class="st17" width="10" height="13.9"/>
			<path class="st4" d="M334.8,203c0,0.7-0.5,1.2-1.2,1.2c-0.7,0-1.2-0.5-1.2-1.2c0-0.7,0.5-1.2,1.2-1.2
				C334.2,201.8,334.8,202.3,334.8,203z M333.6,206.6c-0.7,0-1.2,0.5-1.2,1.2c0,0.7,0.5,1.2,1.2,1.2s1.2-0.5,1.2-1.2
				S334.2,206.6,333.6,206.6z M333.6,211.5c-0.7,0-1.2,0.5-1.2,1.2c0,0.7,0.5,1.2,1.2,1.2s1.2-0.5,1.2-1.2S334.2,211.5,333.6,211.5z
				"/>
			<circle class="st4" cx="347" cy="203" r="1.2"/>
			<path class="st4" d="M348.2,207.8c0,0.7-0.5,1.2-1.2,1.2c-0.7,0-1.2-0.5-1.2-1.2c0-0.7,0.5-1.2,1.2-1.2
				C347.7,206.6,348.2,207.2,348.2,207.8z M348.2,212.7c0,0.7-0.5,1.2-1.2,1.2c-0.7,0-1.2-0.5-1.2-1.2c0-0.7,0.5-1.2,1.2-1.2
				C347.7,211.5,348.2,212,348.2,212.7z"/>
		</g>
		<g>
			<rect x="332" y="390" class="st18" width="16.6" height="13.9"/>
			<rect x="335.3" y="390" class="st17" width="10" height="13.9"/>
			<path class="st4" d="M334.8,392.2c0,0.7-0.5,1.2-1.2,1.2c-0.7,0-1.2-0.5-1.2-1.2s0.5-1.2,1.2-1.2
				C334.2,391,334.8,391.5,334.8,392.2z M333.6,395.8c-0.7,0-1.2,0.5-1.2,1.2s0.5,1.2,1.2,1.2s1.2-0.5,1.2-1.2
				C334.8,396.4,334.2,395.8,333.6,395.8z M333.6,400.7c-0.7,0-1.2,0.5-1.2,1.2s0.5,1.2,1.2,1.2s1.2-0.5,1.2-1.2
				S334.2,400.7,333.6,400.7z M348.2,392.2c0,0.7-0.5,1.2-1.2,1.2c-0.7,0-1.2-0.5-1.2-1.2s0.5-1.2,1.2-1.2
				C347.7,391,348.2,391.5,348.2,392.2z"/>
			<circle class="st4" cx="347" cy="397" r="1.2"/>
			<circle class="st4" cx="347" cy="401.9" r="1.2"/>
		</g>
		<g>
			<rect x="484.1" y="420" class="st9" width="27.2" height="22.6"/>
			<rect x="489.5" y="420" class="st17" width="16.4" height="22.6"/>
			<path class="st4" d="M488.7,423.6c0,1.1-0.9,1.9-1.9,1.9s-1.9-0.9-1.9-1.9s0.9-1.9,1.9-1.9C487.8,421.6,488.7,422.5,488.7,423.6z
				 M486.8,429.5c-1.1,0-1.9,0.9-1.9,1.9s0.9,1.9,1.9,1.9s1.9-0.9,1.9-1.9S487.8,429.5,486.8,429.5z M486.8,437.5
				c-1.1,0-1.9,0.9-1.9,1.9s0.9,1.9,1.9,1.9s1.9-0.9,1.9-1.9S487.8,437.5,486.8,437.5z"/>
			<circle class="st4" cx="508.7" cy="423.6" r="1.9"/>
			<path class="st4" d="M510.6,431.5c0,1.1-0.9,1.9-1.9,1.9s-1.9-0.9-1.9-1.9s0.9-1.9,1.9-1.9S510.6,430.4,510.6,431.5z"/>
			<circle class="st4" cx="508.7" cy="439.4" r="1.9"/>
		</g>
	</g>
	<g>
		<path class="st19" d="M296.7,339.3l-4.8-14.7l20.2-7.5l6.4,17c0,0-9.3,4.2-12.6,4.9C304.3,339.3,296.7,339.3,296.7,339.3z"/>
		<path class="st16" d="M307.8,313.1c-0.4-0.1-0.9-0.1-1.3-0.2c-2.5-0.5-4.9-1.3-7.2-2.1c1.4,10.5,5.4,20.5,11.9,29.1
			c2-1.9,4-3.6,6.1-5.4C312.5,328.1,309.3,320.8,307.8,313.1z"/>
		<path class="st20" d="M320.6,332.6c-0.2,0.5-0.6,0.8-1.1,1l-5.9,2.1c-1,0.3-2-0.2-2.3-1.2c-0.1-0.4-0.1-0.9,0.1-1.3
			c0.2-0.5,0.6-0.8,1.1-1l5.9-2.1c0.5-0.2,1-0.1,1.4,0.1c0.4,0.2,0.8,0.6,0.9,1.1C320.8,331.7,320.8,332.2,320.6,332.6L320.6,332.6z
			 M319.7,328.1c-0.2,0.5-0.7,0.9-1.2,1.1l-6,2.1c-0.5,0.2-1,0.1-1.5-0.1c-0.5-0.2-0.8-0.6-1-1.1c-0.2-0.5-0.1-1,0.1-1.4
			c0.2-0.5,0.7-0.9,1.2-1.1l6-2.1c1-0.3,2.2,0.2,2.5,1.2C319.9,327.2,319.9,327.7,319.7,328.1L319.7,328.1z M317.2,324.5l-6,2.1
			c-0.5,0.2-1,0.1-1.5-0.1c-0.5-0.2-0.8-0.6-1-1.1c-0.2-0.5-0.1-1,0.1-1.4c0.2-0.5,0.7-0.9,1.2-1.1l6-2.1c1-0.3,2.2,0.2,2.5,1.2
			c0.2,0.5,0.1,1-0.1,1.4C318.2,323.9,317.8,324.3,317.2,324.5z M316.7,318.9c-0.2,0.5-0.7,0.9-1.2,1.1l-6,2.1
			c-1,0.3-2.2-0.2-2.5-1.2c-0.2-0.5-0.1-1,0.1-1.4c0.2-0.5,0.7-0.9,1.2-1.1l6-2.1c1-0.3,2.2,0.2,2.5,1.2
			C316.9,318,316.9,318.5,316.7,318.9L316.7,318.9z"/>
		<path class="st21" d="M299.6,339.3l-9.4,2.9l-4.7-13l6.3-4.5l0-0.1c0.7-1.3,2.5-4.3,3.8-6.4l0,0l0.1-0.3c0.2-0.3,0.4-0.6,0.7-0.9
			c0.3-0.3,0.7-0.5,1.1-0.6l7.5-2c1.3-0.3,2.4,0.4,2.9,0.9c1.7,1.5,4.2,3.7,4.2,3.7l0,0c0.3,0.2,0.4,0.6,0.4,1.1
			c0,0.5-0.3,0.9-0.6,1.3c-0.1,0.1-0.2,0.2-0.3,0.3c-0.7,0.6-1.7,0.8-2.3,0.4l-3.2-1.9l-4.1,3.2L299.6,339.3z"/>
		<path class="st22" d="M247.8,360.3l44.3-12.6l-6.6-22.1l-32.6,11.8c0,0-8.4-46.5-8.6-46.7c-2.1-2.2-4.7-5.4-8.1-5.4
			c-6.5,0-12,8.2-12,14.7c0,2.5,0.8,4.8,2.1,6.7c0.4,0.6,8.5,32.2,12.4,47.5C241.7,356.3,244.7,358.3,247.8,360.3z"/>
		<polygon class="st23" points="295.3,342.9 290.6,325 286.1,327.5 291,344 		"/>
		<polygon points="241.7,382.2 217.1,389.4 212.3,521.2 237.2,521.2 237.5,403.4 		"/>
		<polygon class="st24" points="241.7,382.2 192.8,382 192.8,399.5 185.4,512.5 209.1,512.5 215.2,403 		"/>
		<path d="M260.2,512l-22.9-8.1l-24.2,0l-0.1,14.1c-0.5,1.3,0.2,2.8,1.5,3.3h45.4l2-5.8C262.3,514,261.5,512.5,260.2,512z"/>
		<path d="M173.5,512l13-7h22.9l3.9,12.8c0.5,1.3-0.2,2.8-1.5,3.3h-37.9l-2-5.8C171.4,514,172.2,512.5,173.5,512z"/>
		<polygon class="st21" points="229.8,279.3 236.8,323.6 203.5,279.3 202.5,255.9 228.6,266.3 		"/>
		<ellipse class="st15" cx="223.5" cy="233.2" rx="28.5" ry="33.6"/>
		<g>
			<path d="M250.5,222.3c0,0,1.5,4.4,1.5,12.1c1.7-6,3.8-9.4,3.1-16.6C251.4,218.4,250.5,222.3,250.5,222.3z"/>
			<path class="st25" d="M195.7,240c0,0-21.6-25.5,0.2-36.6c5.7-26.9,60-26.1,60,11.3c0,5.7-8.2,13.3-28.9,8.9
				c-10.4-2.2-18.5-14.2-18.5-14.2c3.9,5.3,2.9,10.9-1.4,16.4c-4.3,5.5-4.8,11.3-4.8,11.3C198.9,232.5,195.1,228.9,195.7,240z"/>
		</g>
		<g>
			<polygon class="st23" points="226.4,345.3 203.2,272.5 213.1,279.4 225.2,279.5 229.2,273.3 			"/>
			<polygon points="222.4,287.5 218,287.6 213.1,279.4 225.2,279.5 			"/>
			<polygon points="222.4,287.5 218,287.6 217.8,333.9 227.4,352.5 230.2,329.5 			"/>
			<g>
				<polygon class="st26" points="229.8,278.4 225.5,339.9 203.2,272.5 185.8,289.8 185.2,304.6 193.8,375.2 191.1,385.6 
					219.7,390.2 229.4,379.8 237.3,387.8 243.3,384.1 240.7,349.7 248.7,316.2 244.3,290.6 				"/>
				<polygon class="st27" points="229.2,273.3 225.5,339.9 228.2,358.3 229.4,379.8 237.3,387.8 243.3,384.1 240.7,348.8 
					248.7,316.2 244.3,290.6 				"/>
				<polygon class="st28" points="222.6,359.4 204.4,370.9 202.7,368.1 220.9,356.6 				"/>
				<polygon class="st22" points="231.8,359.4 240.9,366.6 240.7,361.6 233.5,356.6 				"/>
				<polygon class="st28" points="213.6,331 196.2,331.9 195.9,328.7 213.2,327.8 				"/>
				<polygon class="st22" points="244.8,328.1 234.1,329 233.7,325.8 244.4,324.9 				"/>
				<polygon class="st22" points="229.2,273.3 225.5,339.9 203.2,272.5 199.4,276.4 199.9,290.5 204.6,291.5 200.9,301.3 
					227.4,352.5 236.4,298 231.7,290.3 234.3,288.1 231.3,275.7 				"/>
			</g>
		</g>
		<g>
			<path class="st26" d="M187,349.5c0,0,9.8-32.6,9.8-32.9c3.7-15.5-0.5-25.1-0.5-25.1c-4.5-3.9-9.7-2.3-13.6,2.2
				c-1.5,1.7-2.4,3.8-2.6,5.9c-0.1,0.8-14.1,43.4-13,54.4L187,349.5z"/>
		</g>
	</g>
	<g>
		<path class="st29" d="M159.8,292.9c0,2.5,2,4.5,4.5,4.5h12.5c2.5,0,4.5-2,4.5-4.5v-13.4c0-2.5-2-4.5-4.5-4.5h-12.5
			c-2.5,0-4.5,2-4.5,4.5V292.9z"/>
		<path class="st29" d="M163.7,319.7c0,1.7,1.4,3.2,3.2,3.2h9.4c1.7,0,3.2-1.4,3.2-3.2v-22.8c0-1.7-1.4-3.2-3.2-3.2h-9.4
			c-1.7,0-3.2,1.4-3.2,3.2V319.7z"/>
		<path class="st30" d="M187.4,270.6h-26.2c-0.5,0-0.9,0.4-0.9,0.9v16.8c0,0.5,0.4,0.9,0.9,0.9h26.2c0.5,0,0.9-0.4,0.9-0.9v-16.8
			C188.3,271,187.9,270.6,187.4,270.6z"/>
		<path class="st31" d="M187.1,270.3h-26.2c-0.5,0-0.9,0.4-0.9,0.9V288c0,0.5,0.4,0.9,0.9,0.9h26.2c0.5,0,0.9-0.4,0.9-0.9v-16.8
			C188,270.7,187.6,270.3,187.1,270.3z"/>
		<path class="st32" d="M160.5,270.4l20,18.6h6.2l-4.3-18.6h-21.5C160.8,270.3,160.7,270.3,160.5,270.4z"/>
		<path class="st33" d="M180.3,278.3c0.1-0.4,0.4-0.7,0.8-0.7h0.4v0.7H180.3z M180.2,278.5C180.2,278.5,180.2,278.5,180.2,278.5
			l0,0.9h1.3v-0.9H180.2L180.2,278.5z M181.5,280.3v-0.9h-1.3v0.9c0,0,0,0,0,0L181.5,280.3L181.5,280.3z M180.3,280.5
			c0.1,0.4,0.4,0.7,0.8,0.7h0.4v-0.7H180.3z M183.8,278.6v-0.9h-2v0.9H183.8z M181.8,280.2v1h2v-1H181.8z M183.8,280.1v-1.4h-2v1.4
			H183.8z M185.3,278.3c-0.1-0.4-0.4-0.7-0.8-0.7h-0.4v0.7H185.3z M184.1,278.5v0.9h1.3v-0.8c0,0,0,0,0,0L184.1,278.5L184.1,278.5z
			 M185.3,280.3C185.3,280.3,185.3,280.3,185.3,280.3v-0.9h-1.3v0.9L185.3,280.3L185.3,280.3z M184.1,280.5v0.7h0.4
			c0.4,0,0.8-0.3,0.8-0.7H184.1z"/>
		<path class="st34" d="M185.1,277.9c-0.2-0.2-0.4-0.3-0.6-0.3h-3.4c-0.5,0-0.9,0.4-0.9,0.9v1.8c0,0.2,0.1,0.4,0.2,0.6L185.1,277.9z
			"/>
		<rect x="178.6" y="284.2" class="st35" width="7.7" height="3.3"/>
		<path class="st32" d="M160,288c0,0.5,0.4,0.9,0.9,0.9h13.9l7.7-18.6l-22.4,9.2L160,288L160,288z"/>
		<path class="st36" d="M188,273.2h-28V288c0,0.5,0.4,0.9,0.9,0.9h0.5l26.6-13.7V273.2z"/>
		<path class="st30" d="M162.9,283.4H162v-1.5h0.9V283.4z M164.2,281.9h-0.9v1.5h0.9V281.9z M165.5,281.9h-0.9v1.5h0.9V281.9z
			 M166.8,281.9h-0.9v1.5h0.9V281.9z M169.3,281.9h-0.9v1.5h0.9V281.9z M170.6,281.9h-0.9v1.5h0.9V281.9z M171.9,281.9H171v1.5h0.9
			V281.9z M173.2,281.9h-0.9v1.5h0.9V281.9z M175.8,281.9h-0.9v1.5h0.9V281.9z M177.1,281.9h-0.9v1.5h0.9V281.9z M178.4,281.9h-0.9
			v1.5h0.9V281.9z M179.7,281.9h-0.9v1.5h0.9V281.9z M182.3,281.9h-0.9v1.5h0.9V281.9z M183.6,281.9h-0.9v1.5h0.9V281.9z
			 M184.9,281.9h-0.9v1.5h0.9V281.9z M186.1,281.9h-0.9v1.5h0.9V281.9z"/>
		<rect x="162" y="286.6" class="st30" width="7.5" height="1.4"/>
		<rect x="171.2" y="284.6" class="st30" width="0.8" height="1.4"/>
		<rect x="172.3" y="284.6" class="st30" width="0.8" height="1.4"/>
		<rect x="174.3" y="284.6" class="st30" width="0.8" height="1.4"/>
		<rect x="175.4" y="284.6" class="st30" width="0.8" height="1.4"/>
		<rect x="162.6" y="272.1" class="st16" width="10.4" height="4"/>
		<path class="st29" d="M179.4,300.4c4.1-0.9,12.4-5.7,13.4-7.3c1.7-2.7,0.7-14.2-0.5-14.2c-5.2-0.2-4.4,9.6-4.4,9.6
			s-10.8-0.8-12.7,3.2C174.1,293.9,175.5,301.2,179.4,300.4z M164.2,266c1.5,0,2.6,1.2,2.6,2.6l0,0c0,1.5-1.2,2.6-2.6,2.6h-1.2
			c-1.5,0-2.6-1.2-2.6-2.6l0,0c0-1.5,1.2-2.6,2.6-2.6H164.2z M170.8,266c1.5,0,2.6,1.2,2.6,2.6l0,0c0,1.5-1.2,2.6-2.6,2.6h-1.2
			c-1.5,0-2.6-1.2-2.6-2.6l0,0c0-1.5,1.2-2.6,2.6-2.6H170.8z M177.3,266c1.5,0,2.6,1.2,2.6,2.6l0,0c0,1.5-1.2,2.6-2.6,2.6h-1.2
			c-1.5,0-2.6-1.2-2.6-2.6l0,0c0-1.5,1.2-2.6,2.6-2.6H177.3z M183.9,266c1.5,0,2.6,1.2,2.6,2.6l0,0c0,1.5-1.2,2.6-2.6,2.6h-1.2
			c-1.5,0-2.6-1.2-2.6-2.6l0,0c0-1.5,1.2-2.6,2.6-2.6H183.9z"/>
		<g>
			<polygon class="st37" points="159.6,304.9 184.4,305.1 187,349.5 178.1,355.4 167,354 			"/>
			<polygon class="st23" points="182.6,300.6 160.4,297.4 162.3,304.9 181.3,305.1 			"/>
		</g>
	</g>
	<g>
		<rect x="193.8" y="329.9" class="st38" width="19.1" height="11.9"/>
		<rect x="195.2" y="331.8" class="st23" width="6.8" height="7.9"/>
		<rect x="203.3" y="333.4" class="st23" width="8" height="1.7"/>
		<rect x="203.3" y="335.9" class="st23" width="8" height="1"/>
		<rect x="194.4" y="340.1" class="st23" width="18.2" height="1.2"/>
		<rect x="194.4" y="330.2" class="st23" width="18.2" height="1.2"/>
		<rect x="201.4" y="327.9" width="4.4" height="2.3"/>
	</g>
	<g>
		<path class="st39" d="M66.9,134.6c-5.7,0-10.3-4.6-10.3-10.3V60.6c0-5.7,4.6-10.3,10.3-10.3h33.8c5.7,0,10.3,4.6,10.3,10.3v63.7
			c0,5.7-4.6,10.3-10.3,10.3L66.9,134.6L66.9,134.6z"/>
		<path class="st10" d="M60,60.6c0-3.8,3.1-6.9,6.9-6.9h33.8c3.8,0,6.9,3.1,6.9,6.9v63.7c0,3.8-3.1,6.9-6.9,6.9H66.9
			c-3.8,0-6.9-3.1-6.9-6.9C60,124.3,60,60.6,60,60.6z"/>
	</g>
	<g>
		<path class="st39" d="M164.5,141.1c-2.4,0-4.4-2-4.4-4.4v-90c0-2.4,2-4.4,4.4-4.4h312c2.4,0,4.4,2,4.4,4.4v90c0,2.4-2,4.4-4.4,4.4
			L164.5,141.1L164.5,141.1z"/>
		<path class="st10" d="M161.6,46.7c0-1.6,1.3-2.9,2.9-2.9h312c1.6,0,2.9,1.3,2.9,2.9v90c0,1.6-1.3,2.9-2.9,2.9h-312
			c-1.6,0-2.9-1.3-2.9-2.9L161.6,46.7z"/>
		<rect x="164.9" y="47.9" class="st39" width="0.6" height="89"/>
		<rect x="184.5" y="47.9" class="st39" width="0.6" height="89"/>
		<rect x="204" y="47.9" class="st39" width="0.6" height="89"/>
		<rect x="223.6" y="47.9" class="st39" width="0.6" height="89"/>
		<rect x="243.1" y="47.9" class="st39" width="0.6" height="89"/>
		<rect x="262.7" y="47.9" class="st39" width="0.6" height="89"/>
		<rect x="282.2" y="47.9" class="st39" width="0.6" height="89"/>
		<rect x="301.8" y="47.9" class="st39" width="0.6" height="89"/>
		<rect x="321.3" y="47.9" class="st39" width="0.6" height="89"/>
		<rect x="340.9" y="47.9" class="st39" width="0.6" height="89"/>
		<rect x="360.4" y="47.9" class="st39" width="0.6" height="89"/>
		<rect x="380" y="47.9" class="st39" width="0.6" height="89"/>
		<rect x="399.5" y="47.9" class="st39" width="0.6" height="89"/>
		<rect x="419.1" y="47.9" class="st39" width="0.6" height="89"/>
		<rect x="438.6" y="47.9" class="st39" width="0.6" height="89"/>
		<rect x="458.2" y="47.9" class="st39" width="0.6" height="89"/>
		<rect x="165.2" y="136.3" class="st39" width="306.9" height="0.6"/>
		<rect x="165.2" y="120.9" class="st39" width="306.9" height="0.6"/>
		<rect x="165.2" y="105.5" class="st39" width="306.9" height="0.6"/>
		<rect x="165.2" y="90.1" class="st39" width="306.9" height="0.6"/>
		<rect x="165.2" y="74.7" class="st39" width="306.9" height="0.6"/>
		<rect x="165.2" y="59.3" class="st39" width="306.9" height="0.6"/>
		<path class="st40" d="M458.2,67.6l-20.3,20.1l-18.7,6.8L400.3,84l-19.9-17.7l-19.9,1.6l-14.9-4.5c0-2.7-2.2-4.8-4.8-4.8
			c-2.7,0-4.8,2.2-4.8,4.8c0,0.9,0.2,1.7,0.6,2.3l-16.2,16.7L302,90.9l-19.6-5.5l-20.5,21.5l-18.9,4.8l-19.2-3.5L207.4,121
			c-0.8-0.6-1.7-0.9-2.8-0.9c-1.9,0-3.5,1.1-4.3,2.7l-16.2-2.7l-0.5,0.3c-0.7,0.4-18.2,13.6-18.2,13.6v2.3h1.9
			c0,0,12.5-10.2,17.3-13.3l15.1,2.6c0.3,2.4,2.3,4.2,4.8,4.2c2.7,0,4.8-2.2,4.8-4.8c0-0.6-0.1-1.2-0.3-1.7l15.4-12l18.6,3.4
			l20.2-5.2l19.9-20.8l18.9,5.3l19.9-9.2l16.5-17.1c0.7,0.3,1.4,0.5,2.2,0.5c1.7,0,3.1-0.9,4-2.1l15.4,4.7l19.2-1.5l19.1,17l0.1,0.1
			l20.2,11.3l20.4-7.5l18.8-18.5V67.6z"/>
		<path class="st41" d="M457.1,90.8L439,107.9l-19.4-42.7l-19.9,12.4l-16-15.6c0.3-0.6,0.5-1.3,0.5-2c0-2.3-1.9-4.2-4.2-4.2
			c-2.3,0-4.2,1.9-4.2,4.2c0,0.7,0.2,1.4,0.5,2l-16.7,16.3l-18.4,19l-20.4-8l-17.1,27.9c-0.5-0.2-1-0.3-1.6-0.3
			c-1.3,0-2.5,0.6-3.3,1.6l-16.5-8.4l-19.3,5.5l-19.3-22.1l-20.5-4.5l-19.5,15.9l-20-7.7l-0.4,1.1c0,0.1-3.9,12.2-17.8,36v2h1.5
			c11.8-20.1,16.7-32.4,18.1-36.1l19.1,7.3l19.6-16.1l18.6,4.1l19.8,22.7l19.8-5.7l15.8,8.1c0,0.2,0,0.3,0,0.5
			c0,2.3,1.9,4.2,4.2,4.2c2.3,0,4.2-1.9,4.2-4.2c0-0.9-0.3-1.7-0.8-2.4l16.3-26.4l20,7.8l19.4-20.1l16.7-16.3
			c0.6,0.3,1.3,0.5,2.1,0.5c0.8,0,1.5-0.2,2.1-0.5l17.3,16.9l19.2-11.9l19.7,43.2l19.9-18.9v-2.2H457.1z"/>
		<path class="st42" d="M438.5,73.7l-19.3,8.8l-16.7-18.4c0.5-0.6,0.9-1.4,0.9-2.3c0-1.9-1.5-3.4-3.4-3.4s-3.4,1.5-3.4,3.4
			c0,0.6,0.1,1.1,0.4,1.6l-17.6,18.1l-18.5,12.8l-19.4-5.1l-17-25c0.5-0.6,0.8-1.3,0.8-2.2c0-1.9-1.5-3.4-3.4-3.4
			c-1.9,0-3.4,1.5-3.4,3.4c0,0.7,0.2,1.4,0.7,2l-17.3,20l-19-20.7l-20.2,31.8l-17.8,22.1c-0.4-0.2-0.9-0.3-1.4-0.3
			c-0.8,0-1.5,0.3-2.1,0.7l-17.5-17l-20,9.5l-19.2,0.9l-19.1,23.5v1.5h1.2l18.8-23.2l18.7-0.9l19.1-9.1l16.8,16.3
			c-0.1,0.4-0.2,0.8-0.2,1.2c0,1.9,1.5,3.4,3.4,3.4s3.4-1.5,3.4-3.4c0-0.7-0.2-1.4-0.6-1.9L264,96.4l19-29.9L301.8,87l18.7-21.7
			c0.4,0.2,0.8,0.3,1.3,0.3c0.4,0,0.8-0.1,1.1-0.2l17.3,25.5l20.9,5.5L380.6,83l17.7-18.2c0.5,0.3,1.1,0.5,1.8,0.5
			c0.3,0,0.6,0,0.9-0.1l17.9,19.6l19.8-9.1l19.5,5.9v-1.9L438.5,73.7z"/>
		<path class="st43" d="M440,80.8l-17.6-19.3c0.1-0.4,0.2-0.8,0.2-1.2c0-1.8-1.4-3.2-3.2-3.2s-3.2,1.4-3.2,3.2
			c0,0.7,0.2,1.3,0.6,1.9l-17.3,27.2L380,96.2l-19.2-10.4L341,107.9l-16,2.8c-0.5-1.2-1.6-2.1-3-2.1c-0.2,0-0.4,0-0.7,0.1
			l-18.5-38.8l-20.5,8.9L262.7,65L243,78.1l-18.8-7.7l-20.4,6l-20,3.2l-18.2,53.8v2.9h1l18.6-55l19-3l20-5.8l19.1,7.8l19.4-13
			l19.5,13.6l19.8-8.6l17.8,37.3c-0.6,0.6-0.9,1.4-0.9,2.2c0,1.8,1.4,3.2,3.2,3.2c1.5,0,2.8-1,3.1-2.5l16.9-3l19.3-21.5l18.6,10.1
			l20.9-7.4l17.3-27.7c0.4,0.2,0.8,0.3,1.3,0.3c0.6,0,1.2-0.2,1.7-0.5l17.4,19l18.5,23.5h1.2V104L440,80.8z"/>
	</g>
	<g>
		<path d="M144.1,272.5H9.1v224.7l135,0v0h0L144.1,272.5L144.1,272.5z M138.1,418.3H15v-67h123.1V418.3z M138.1,424.2v67H15v-67
			H138.1z M138.1,278.4v67H15v-67H138.1z"/>
		<circle class="st6" cx="121.1" cy="509.6" r="12.2"/>
		<circle class="st6" cx="32.4" cy="510" r="12.2"/>
		<path d="M120.5,506.6H90.8v-13.2h-6v13.2H67.7v-13.2h-6v13.2H33c-1.8,0-3.3,1.5-3.3,3.3s1.5,3.3,3.3,3.3h87.5
			c1.8,0,3.3-1.5,3.3-3.3S122.3,506.6,120.5,506.6z"/>
	</g>
	<g>
		<polygon class="st16" points="76,272.1 16,272.1 25.9,255.3 66.1,255.3 		"/>
		<path class="st15" d="M25.9,255.3l-4.7,8.1c6.5-3.8,12.4-3.4,23,0.5c11.2,4.2,21.9,0.7,24.4-4.4l-2.5-4.2H25.9z"/>
		<polygon class="st16" points="136.5,272.1 76.5,272.1 86.4,255.3 126.6,255.3 		"/>
		<path class="st15" d="M86.4,255.3l-4.7,8.1c6.5-3.8,12.4-3.4,23,0.5c11.2,4.2,21.9,0.7,24.4-4.4l-2.5-4.2H86.4z"/>
		<polygon class="st16" points="76,254.6 16,254.6 25.9,237.7 66.1,237.7 		"/>
		<path class="st15" d="M25.9,237.7l-4.7,8.1c6.5-3.8,12.4-3.4,23,0.5c11.2,4.2,21.9,0.7,24.4-4.4l-2.5-4.2H25.9z"/>
		<g>
			<polygon class="st16" points="136.5,254.6 76.5,254.6 86.4,237.7 126.6,237.7 			"/>
			<path class="st15" d="M86.4,237.7l-4.7,8.1c6.5-3.8,12.4-3.4,23,0.5c11.2,4.2,21.9,0.7,24.4-4.4l-2.5-4.2H86.4z"/>
		</g>
		<g>
			<polygon class="st16" points="76,344.7 16,344.7 25.9,327.9 66.1,327.9 			"/>
			<path class="st15" d="M25.9,327.9l-4.7,8.1c6.5-3.8,12.4-3.4,23,0.5c11.2,4.2,21.9,0.7,24.4-4.4l-2.5-4.2H25.9z"/>
			<polygon class="st16" points="136.5,344.7 76.5,344.7 86.4,327.9 126.6,327.9 			"/>
			<path class="st15" d="M86.4,327.9l-4.7,8.1c6.5-3.8,12.4-3.4,23,0.5c11.2,4.2,21.9,0.7,24.4-4.4l-2.5-4.2H86.4z"/>
			<g>
				<polygon class="st16" points="76,327.2 16,327.2 25.9,310.3 66.1,310.3 				"/>
				<path class="st15" d="M25.9,310.3l-4.7,8.1c6.5-3.8,12.4-3.4,23,0.5c11.2,4.2,21.9,0.7,24.4-4.4l-2.5-4.2L25.9,310.3L25.9,310.3
					z"/>
			</g>
			<g>
				<polygon class="st16" points="136.5,327.2 76.5,327.2 86.4,310.3 126.6,310.3 				"/>
				<path class="st15" d="M86.4,310.3l-4.7,8.1c6.5-3.8,12.4-3.4,23,0.5c11.2,4.2,21.9,0.7,24.4-4.4l-2.5-4.2L86.4,310.3L86.4,310.3
					z"/>
			</g>
			<g>
				<polygon class="st16" points="76,309.7 16,309.7 25.9,292.8 66.1,292.8 				"/>
				<path class="st15" d="M25.9,292.8l-4.7,8.1c6.5-3.8,12.4-3.4,23,0.5c11.2,4.2,21.9,0.7,24.4-4.4l-2.5-4.2H25.9z"/>
				<g>
					<polygon class="st16" points="136.5,309.7 76.5,309.7 86.4,292.8 126.6,292.8 					"/>
					<path class="st15" d="M86.4,292.8l-4.7,8.1c6.5-3.8,12.4-3.4,23,0.5c11.2,4.2,21.9,0.7,24.4-4.4l-2.5-4.2H86.4z"/>
				</g>
			</g>
		</g>
		<g>
			<polygon class="st16" points="76,417.5 16,417.5 25.9,400.7 66.1,400.7 			"/>
			<path class="st15" d="M25.9,400.7l-4.7,8.1c6.5-3.8,12.4-3.4,23,0.5c11.2,4.2,21.9,0.7,24.4-4.4l-2.5-4.2H25.9z"/>
			<polygon class="st16" points="136.5,417.5 76.5,417.5 86.4,400.7 126.6,400.7 			"/>
			<path class="st15" d="M86.4,400.7l-4.7,8.1c6.5-3.8,12.4-3.4,23,0.5c11.2,4.2,21.9,0.7,24.4-4.4l-2.5-4.2H86.4z"/>
			<g>
				<polygon class="st16" points="76,400 16,400 25.9,383.2 66.1,383.2 				"/>
				<path class="st15" d="M25.9,383.2l-4.7,8.1c6.5-3.8,12.4-3.4,23,0.5c11.2,4.2,21.9,0.7,24.4-4.4l-2.5-4.2L25.9,383.2L25.9,383.2
					z"/>
			</g>
			<g>
				<polygon class="st16" points="136.5,400 76.5,400 86.4,383.2 126.6,383.2 				"/>
				<path class="st15" d="M86.4,383.2l-4.7,8.1c6.5-3.8,12.4-3.4,23,0.5c11.2,4.2,21.9,0.7,24.4-4.4l-2.5-4.2L86.4,383.2L86.4,383.2
					z"/>
			</g>
			<g>
				<polygon class="st16" points="76,382.5 16,382.5 25.9,365.6 66.1,365.6 				"/>
				<path class="st15" d="M25.9,365.6l-4.7,8.1c6.5-3.8,12.4-3.4,23,0.5c11.2,4.2,21.9,0.7,24.4-4.4l-2.5-4.2L25.9,365.6L25.9,365.6
					z"/>
				<g>
					<polygon class="st16" points="136.5,382.5 76.5,382.5 86.4,365.6 126.6,365.6 					"/>
					<path class="st15" d="M86.4,365.6l-4.7,8.1c6.5-3.8,12.4-3.4,23,0.5c11.2,4.2,21.9,0.7,24.4-4.4l-2.5-4.2L86.4,365.6
						L86.4,365.6z"/>
				</g>
			</g>
		</g>
		<g>
			<polygon class="st16" points="76,490.4 16,490.4 25.9,473.5 66.1,473.5 			"/>
			<path class="st15" d="M25.9,473.5l-4.7,8.1c6.5-3.8,12.4-3.4,23,0.5c11.2,4.2,21.9,0.7,24.4-4.4l-2.5-4.2H25.9z"/>
			<polygon class="st16" points="136.5,490.4 76.5,490.4 86.4,473.5 126.6,473.5 			"/>
			<path class="st15" d="M86.4,473.5l-4.7,8.1c6.5-3.8,12.4-3.4,23,0.5c11.2,4.2,21.9,0.7,24.4-4.4l-2.5-4.2H86.4z"/>
			<g>
				<polygon class="st16" points="76,472.9 16,472.9 25.9,456 66.1,456 				"/>
				<path class="st15" d="M25.9,456l-4.7,8.1c6.5-3.8,12.4-3.4,23,0.5c11.2,4.2,21.9,0.7,24.4-4.4l-2.5-4.2L25.9,456L25.9,456z"/>
			</g>
			<g>
				<polygon class="st16" points="136.5,472.9 76.5,472.9 86.4,456 126.6,456 				"/>
				<path class="st15" d="M86.4,456l-4.7,8.1c6.5-3.8,12.4-3.4,23,0.5c11.2,4.2,21.9,0.7,24.4-4.4l-2.5-4.2L86.4,456L86.4,456z"/>
			</g>
			<g>
				<polygon class="st16" points="76,455.3 16,455.3 25.9,438.5 66.1,438.5 				"/>
				<path class="st15" d="M25.9,438.5l-4.7,8.1c6.5-3.8,12.4-3.4,23,0.5c11.2,4.2,21.9,0.7,24.4-4.4l-2.5-4.2H25.9z"/>
				<g>
					<polygon class="st16" points="136.5,455.3 76.5,455.3 86.4,438.5 126.6,438.5 					"/>
					<path class="st15" d="M86.4,438.5l-4.7,8.1c6.5-3.8,12.4-3.4,23,0.5c11.2,4.2,21.9,0.7,24.4-4.4l-2.5-4.2H86.4z"/>
				</g>
			</g>
		</g>
		<g>
			<polygon class="st10" points="30.3,253.9 24.8,241.5 11.5,244.7 24,239.1 20.7,225.9 26.3,238.3 39.5,235.1 27.1,240.7 			"/>
			<polygon class="st10" points="120.4,255.8 114.8,243.3 101.6,246.6 114,241 110.8,227.8 116.4,240.2 129.6,237 117.2,242.6 			
				"/>
			<polygon class="st10" points="71.7,277.9 66.1,265.5 52.9,268.7 65.3,263.1 62.1,249.9 67.7,262.4 80.9,259.1 68.4,264.7 			"/>
			<polygon class="st10" points="111.6,309.7 106,297.2 92.8,300.5 105.2,294.9 102,281.7 107.6,294.1 120.8,290.9 108.4,296.5 			
				"/>
			<polygon class="st10" points="52,325.5 46.4,313.1 33.2,316.3 45.7,310.8 42.4,297.5 48,310 61.2,306.7 48.8,312.3 			"/>
			<polygon class="st10" points="133.1,347.6 127.5,335.1 114.3,338.4 126.7,332.8 123.5,319.6 129,332 142.3,328.8 129.8,334.4 			
				"/>
			<polygon class="st10" points="89.7,378.9 84.1,366.4 70.8,369.7 83.3,364.1 80,350.9 85.6,363.3 98.9,360.1 86.4,365.6 			"/>
			<polygon class="st10" points="40.1,403.2 34.5,390.7 21.3,394 33.7,388.4 30.5,375.2 36.1,387.6 49.3,384.4 36.9,390 			"/>
			<polygon class="st10" points="127,418.6 121.4,406.1 108.2,409.4 120.6,403.8 117.4,390.6 123,403 136.2,399.8 123.8,405.4 			
				"/>
			<polygon class="st10" points="69.9,454.1 64.3,441.7 51.1,444.9 63.6,439.3 60.3,426.1 65.9,438.5 79.1,435.3 66.7,440.9 			"/>
			<polygon class="st10" points="129.3,469.5 123.8,457.1 110.5,460.3 123,454.7 119.7,441.5 125.3,453.9 138.5,450.7 126.1,456.3 
							"/>
			<polygon class="st10" points="34.7,486 29.2,473.6 15.9,476.8 28.4,471.2 25.1,458 30.7,470.4 43.9,467.2 31.5,472.8 			"/>
		</g>
	</g>
</g>
<g>
	<path class="st3" d="M94.3,71.4l-11.8,4c8,3.2,3.3,7,14,2.4l1.1,3.1c-14.8,2.7-0.2,11.3-19.6,18.7c7.3,3.2,15.6,7.5,23.8,11.9
		l-6.8,2.3c-6.8-5.5-21.1-6.7-24.8-15.5c7.2-1.7,15.9-7.1,13.8-12.7l-16.2,5.6l-1.1-3.1l16-5.5c-2.6-5.1-12.3-2.3-17.9,0l-1.4-4.1
		l30-10.3L94.3,71.4z"/>
</g>
</svg>
