<svg id="SvgjsSvg1030" width="256" height="256" xmlns="http://www.w3.org/2000/svg" version="1.1"
    xmlns:xlink="http://www.w3.org/1999/xlink" xmlns:svgjs="http://svgjs.com/svgjs">
    <defs id="SvgjsDefs1031"></defs>
    <g id="SvgjsG1032"><svg xmlns="http://www.w3.org/2000/svg" viewBox="0 0 32 32" width="256" height="256">
            <g data-name="1">
                <path fill="#ffffff"
                    d="m25.29 5.29-2.48 2.49a14 14 0 0 0-20.13 7.91 1.09 1.09 0 0 0 0 .62 14 14 0 0 0 4.8 6.79l-2.19 2.19 1.42 1.42 20-20Zm-13.53 6.47a6 6 0 0 1 7.71-.65l-8.35 8.35a6 6 0 0 1 .64-7.7Zm17.56 4.55a14 14 0 0 1-17.73 9l-.12-.05-1.27-.61 15-15 .7.57.08.08a14.17 14.17 0 0 1 3.3 5.45 1.09 1.09 0 0 1 .04.56Z"
                    class="color283b96 svgShape"></path>
                <path fill="none" d="M0 0h32v32H0z"></path>
            </g>
        </svg></g>
</svg>