<?xml version="1.0" encoding="utf-8"?>
<!-- Generator: Adobe Illustrator 25.4.1, SVG Export Plug-In . SVG Version: 6.00 Build 0)  -->
<svg version="1.1" id="Layer_1" xmlns="http://www.w3.org/2000/svg" xmlns:xlink="http://www.w3.org/1999/xlink" x="0px" y="0px"
	 viewBox="0 0 3000 3000" style="enable-background:new 0 0 3000 3000;" xml:space="preserve">
<style type="text/css">
	.st0{fill:#EEEEEE;}
	.st1{fill:#F7C19B;}
	.st2{fill:#333333;}
	.st3{fill:#58595B;}
	.st4{fill:#231F20;}
	.st5{fill:#303030;}
	.st6{fill:#414042;}
	.st7{fill:#E6E7E8;}
	.st8{fill:#F1F2F2;}
	.st9{fill:#1E88E5;}
	.st10{fill:#5B291D;}
	.st11{fill:#7F4833;}
	.st12{fill:#834E34;}
	.st13{fill:#633223;}
	.st14{fill:#683725;}
	.st15{fill:#BDBDBD;}
	.st16{fill:#E0E0E0;}
	.st17{fill:#EAB896;}
	.st18{fill:#FFA726;}
	.st19{fill:#F7991C;}
</style>
<ellipse class="st0" cx="1502.6" cy="2925.7" rx="843.7" ry="49.3"/>
<path class="st1" d="M1127,1464.2c-28.7,49.9-54.7,45-78.2-11.8l-1.7-57.4l74.9,5L1127,1464.2z"/>
<path class="st1" d="M1163.4,1288.5c0,0,27.8,76.6,4,121.1c-12.4,23-40.1,32.5-63.9,22.6c-18.2-7.6-45.1-22.3-66.4-48.6
	c-1.8-2.3,2.2-72,2.2-72l15.9-24l62.1-9.7L1163.4,1288.5z"/>
<path class="st2" d="M1098.8,1353.1l-9.9-26.9c0,0,8.2,3.1,18.2,4.4c14.5,2,27.8-8.5,29.7-23.2l0.5-3.6c0,0,63.6-4.4,39-61.9
	c-3.1-7.3-9.4-12.8-16.9-14.9c-13-3.7-35.9-5-66.3,13.7c-8.8,5.4-20.1,4.1-29.8,0.6c-10.5-3.8-26.4-2.9-36.7,28.6
	c-1.8,5.5-4.4,10.7-7.9,15.3c-9.9,13.4-38.8,63.2,26.3,120.6c1.8,1.6,4.7,0.2,4.5-2.2c-0.9-12.4-1.7-39.5,5.9-53.9
	c4.7-8.9,16.8-9.9,22.9-2l9.2,11.8c2.2,2.8,6.1,3.3,8.9,1.2l0,0C1098.9,1359,1099.8,1355.9,1098.8,1353.1z"/>
<path class="st1" d="M1603.8,1588.1c0,2-0.8,4-2.3,5.4c-10.1,9.5-21.3,18.7-33.4,27.6c-13,9.7-27,19-41.7,28.2l-32.4-41.9l16.6-23.2
	c2.7-3.7,3.7-8.3,2.9-12.8l-3.5-19.3c-0.7-3.7,1.6-7.2,5.2-8c0.5-0.1,0.9-0.2,1.5-0.2c2.4,0,4.7,1.4,5.9,3.7l8,15.5
	c1.7,3.3,5.2,4.7,8.6,3.9c0.9-0.2,1.7-0.6,2.6-1.2l31.9-22.2c3-2.2,7-1.5,9.2,1.5c0.9,1.2,1.3,2.6,1.3,4c0,2-0.8,3.9-2.4,5.2
	l-14.1,12l12.9-10.9c3.3-2.8,8.2-2.2,10.6,1.4c0.9,1.3,1.3,2.7,1.3,4.2c0,2.2-1,4.4-2.8,5.8l-1.5,1.2c2.9-1.3,6.4-0.4,8.4,2.2
	c1,1.3,1.5,2.9,1.5,4.5c0,2.2-1,4.4-2.8,5.8l-0.9,0.6c2.7-0.9,5.8,0,7.7,2.4C1603.3,1584.9,1603.8,1586.4,1603.8,1588.1z"/>
<polygon class="st1" points="1003.2,2858.1 935,2854.7 940,2748.7 1008.2,2752.1 "/>
<path class="st2" d="M936.8,2871l-11.1,13l-3,4.3c-1.7,2.5-2.7,5.4-2.9,8.5l-0.6,11.8c-0.1,2.9,2.1,5.4,5,5.6l12.9,0.6l0.2-3.4
	l7,0.3l-0.2,3.3l15.5,1.1l0.1-2.7l7.3,0.4l-0.1,3l17.4,0.8l9.5-11.1c13.6,4.8,25.9,10.4,36.2,17.1c0.5,0.4,18.1,1.3,18.1,0.9
	l0.1-2.7l6.8,0.3l-0.1,2.7c5.6,0.7,11.2,1,16.8,0.8l0.1-2.8l6.7,0.3l-0.1,2.3c5.9,0.3,11.1-0.1,15.6-1.2l0.1-2.2l6.7-0.5l-0.1,2
	c4-0.3,7.7-1.3,11.2-2.5l-0.2-2.2l6.1-2.2l1.1,2.3c6.6-2.4,12.6-4.9,17.9-7.7c0,0,1.5-9-4-9.7l-70.3-11.4l-90.2-17.1L936.8,2871z"/>
<path class="st3" d="M923.9,2863.9c-0.2,4.4,0,8.9,0.8,13.3l1.1,6.9c27.2,0.8,52.5,4.1,74.8,11.1c4.6,1.4,9.2,3,13.5,4.8
	c37.6,15.3,77.3,15.1,118.8,1.4l0.3-6.5c0.2-4.8-2.9-9.1-7.5-10.3l-30-7.7c-5.3-1.4-10.7-2.6-16.1-3.9
	c-15.1-3.6-28.8-10.4-41.4-20.1c-0.7-0.5-1.4-1.1-2.1-1.6c-0.4-0.3-0.8-0.6-1.2-1c-1.1,6.7-7.9,14.7-8.3,15.1
	c-0.2,0.2-0.5,0.3-0.8,0.3c-0.1,0-0.3-0.1-0.4-0.2c-0.4-0.3-0.4-0.9-0.1-1.2c2.4-2.8,7.6-10.1,8-15.2c-0.3-0.2-0.6-0.5-0.9-0.7
	c-5.2-1.8-14.3-0.1-18,1c-0.5,0.1-0.9-0.1-1-0.6s0.1-0.9,0.6-1.1c0.5-0.1,9-2.4,15.8-1.6c-1-0.9-2-1.8-3-2.8
	c-0.6-0.6-1.3-1.2-1.9-1.8c-1.3-1.3-2.7-2.7-4-4.1c-0.5-0.6-1.1-1.1-1.6-1.7c-1.9-2.1-3.8-4.2-5.7-6.5c-4.3,0.1-9.9,2.9-12.2,4.3
	c-0.4,0.2-0.9,0.1-1.2-0.3c-0.2-0.4-0.1-0.9,0.3-1.2c0.4-0.2,6.3-3.8,11.8-4.4c-0.7-0.9-1.5-1.8-2.2-2.7c-1.2-1.5-3-2.5-4.9-2.7
	l-70.4-6.1c-2.6-0.2-4.8,1.8-4.8,4.4l-0.1,8.5c-0.1,6.3-1.1,12.5-3.1,18.5C925.2,2852.7,924.2,2858.3,923.9,2863.9z"/>
<path class="st4" d="M1025.5,2865.4c0.1,0.1,0.3,0.2,0.4,0.2c0.3,0,0.6-0.1,0.8-0.3c0.4-0.4,7.1-8.4,8.3-15.1
	c-0.5-0.4-1-0.8-1.6-1.3c-0.3,5.1-5.6,12.4-8,15.2C1025.1,2864.5,1025.2,2865.1,1025.5,2865.4z M1013.5,2848.6
	c0.1,0.5,0.6,0.7,1,0.6c3.7-1,12.8-2.7,18-1c-0.9-0.8-1.8-1.5-2.6-2.3c-6.8-0.8-15.3,1.5-15.8,1.6
	C1013.7,2847.6,1013.4,2848.1,1013.5,2848.6z"/>
<path class="st5" d="M1000.4,2833.1c0.2,0.4,0.8,0.6,1.2,0.3c2.3-1.4,7.9-4.2,12.2-4.3c-0.5-0.5-0.9-1.1-1.3-1.6
	c-5.4,0.7-11.4,4.2-11.8,4.4C1000.3,2832.2,1000.1,2832.7,1000.4,2833.1z"/>
<path class="st6" d="M923.9,2863.9c-0.2,4.4,0,8.9,0.8,13.3l1.1,6.9c27.2,0.8,52.5,4.1,74.8,11.1l36-22.8c2.1-1.3,2.6-4.2,1.1-6.2
	l-32.4-44.1l-70.4-6.1c-2.6-0.2-4.8,1.8-4.8,4.4l-0.1,8.5c-0.1,6.3-1.1,12.5-3.1,18.5C925.2,2852.7,924.2,2858.3,923.9,2863.9z"/>
<polygon class="st3" points="1003.8,2825.3 1004.4,2824.8 1004,2824.2 1003.4,2824.2 1003.3,2825 1003.6,2825 "/>
<path class="st3" d="M927.7,2879.2l0.7-0.1l0.2,1l-0.7,0.1L927.7,2879.2z M927.4,2877.1l0.8-0.1l0.2,1l-0.8,0.1L927.4,2877.1z
	 M927,2875.1l0.8-0.1c0,0.3,0.1,0.7,0.2,1l-0.8,0.1C927.1,2875.8,927.1,2875.4,927,2875.1z M926.8,2873l0.8-0.1c0,0.3,0.1,0.7,0.1,1
	l-0.8,0.1C926.9,2873.7,926.8,2873.3,926.8,2873z M926.6,2870.9l0.8-0.1c0,0.3,0.1,0.7,0.1,1l-0.8,0.1
	C926.7,2871.6,926.6,2871.3,926.6,2870.9z M926.5,2868.8h0.8c0,0.3,0,0.7,0,1h-0.8C926.5,2869.5,926.5,2869.2,926.5,2868.8z
	 M926.5,2866.7h0.8c0,0.3,0,0.7,0,1h-0.8C926.5,2867.4,926.5,2867.1,926.5,2866.7z M926.5,2864.6h0.8c0,0.3,0,0.7,0,1h-0.8
	C926.5,2865.3,926.5,2865,926.5,2864.6z M926.6,2863.6c0-0.3,0-0.7,0.1-1l0.8,0.1c0,0.3,0,0.7-0.1,1L926.6,2863.6z M926.7,2861.5
	c0-0.3,0.1-0.7,0.1-1l0.8,0.1c0,0.3-0.1,0.7-0.1,1L926.7,2861.5z M926.9,2859.4c0-0.3,0.1-0.7,0.1-1l0.8,0.1c0,0.3-0.1,0.7-0.1,1
	L926.9,2859.4z M927.2,2857.4c0.1-0.3,0.1-0.7,0.2-1l0.7,0.1c-0.1,0.3-0.1,0.7-0.2,1L927.2,2857.4z M927.5,2855.3
	c0.1-0.3,0.1-0.7,0.2-1l0.7,0.2c-0.1,0.3-0.1,0.7-0.2,1L927.5,2855.3z M928,2853.3c0.1-0.3,0.2-0.7,0.2-1l0.7,0.2
	c-0.1,0.3-0.2,0.7-0.2,1L928,2853.3z M928.5,2851.2c0.1-0.3,0.2-0.7,0.3-1l0.7,0.2c-0.1,0.3-0.2,0.7-0.3,1L928.5,2851.2z
	 M929,2849.2c0.1-0.3,0.2-0.7,0.3-1l0.7,0.2c-0.1,0.3-0.2,0.7-0.3,1L929,2849.2z M929.6,2847.3c0.1-0.3,0.2-0.7,0.3-1l0.7,0.2
	c-0.1,0.3-0.2,0.7-0.3,1L929.6,2847.3z M930.2,2845.3c0.1-0.3,0.2-0.7,0.3-1l0.7,0.2c-0.1,0.3-0.2,0.7-0.3,1L930.2,2845.3z
	 M930.7,2843.3c0.1-0.3,0.2-0.7,0.2-1l0.7,0.2c-0.1,0.3-0.2,0.7-0.2,1L930.7,2843.3z M931.2,2841.3c0.1-0.3,0.1-0.7,0.2-1l0.7,0.1
	c-0.1,0.3-0.1,0.7-0.2,1L931.2,2841.3z M931.6,2839.2c0.1-0.3,0.1-0.7,0.2-1l0.7,0.1c-0.1,0.3-0.1,0.7-0.2,1L931.6,2839.2z
	 M931.9,2837.2c0-0.3,0.1-0.7,0.1-1l0.8,0.1c0,0.3-0.1,0.7-0.1,1L931.9,2837.2z M932.1,2835.2c0-0.3,0.1-0.7,0.1-1l0.8,0.1
	c0,0.3-0.1,0.7-0.1,1L932.1,2835.2z M932.3,2833.1c0-0.3,0-0.7,0.1-1h0.8c0,0.3,0,0.7-0.1,1H932.3z M932.5,2830h0.8c0,0.3,0,0.7,0,1
	h-0.8C932.4,2830.7,932.5,2830.4,932.5,2830z M932.5,2827.9h0.8v1h-0.8V2827.9z M932.5,2825.9h0.8v1h-0.8V2825.9z M932.6,2823.8h0.8
	v1h-0.8V2823.8z M932.6,2821.7h0.8v1h-0.8V2821.7z M1001.3,2824.8l0.1-0.8l1,0.1l-0.1,0.8L1001.3,2824.8z M999.2,2824.6l0.1-0.8
	l1,0.1l-0.1,0.8L999.2,2824.6z M997.2,2824.4l0.1-0.8l1,0.1l-0.1,0.8L997.2,2824.4z M995.1,2824.3l0.1-0.8l1,0.1l-0.1,0.8
	L995.1,2824.3z M993.1,2824.1l0.1-0.8l1,0.1l-0.1,0.8L993.1,2824.1z M991.1,2823.9l0.1-0.8l1,0.1l-0.1,0.8L991.1,2823.9z
	 M989,2823.7l0.1-0.8l1,0.1l-0.1,0.8L989,2823.7z M987,2823.5l0.1-0.8l1,0.1l-0.1,0.8L987,2823.5z M985,2823.4l0.1-0.8l1,0.1
	l-0.1,0.8L985,2823.4z M982.9,2823.2l0.1-0.8l1,0.1l-0.1,0.8L982.9,2823.2z M932.7,2820.6c0.1-0.4,0.2-0.8,0.5-1.1l0.6,0.4
	c-0.2,0.2-0.3,0.5-0.3,0.8L932.7,2820.6z M980.9,2823l0.1-0.8l1,0.1l-0.1,0.8L980.9,2823z M978.9,2822.8l0.1-0.8l1,0.1l-0.1,0.8
	L978.9,2822.8z M976.8,2822.7l0.1-0.8l1,0.1l-0.2,0.8L976.8,2822.7z M974.8,2822.5l0.1-0.8l1,0.1l-0.1,0.8L974.8,2822.5z
	 M972.8,2822.3l0.1-0.8l1,0.1l-0.1,0.8L972.8,2822.3z M970.7,2822.1l0.1-0.8l1,0.1l-0.1,0.8L970.7,2822.1z M968.7,2822l0.1-0.8
	l1,0.1l-0.1,0.8L968.7,2822z M966.7,2821.8l0.1-0.8l1,0.1l-0.1,0.8L966.7,2821.8z M964.6,2821.6l0.1-0.8l1,0.1l-0.1,0.8
	L964.6,2821.6z M962.6,2821.4l0.1-0.8l1,0.1l-0.1,0.8L962.6,2821.4z M960.6,2821.3l0.1-0.8l1,0.1l-0.1,0.8L960.6,2821.3z
	 M958.5,2821.1l0.1-0.8l1,0.1l-0.1,0.8L958.5,2821.1z M956.5,2820.9l0.1-0.8l1,0.1l-0.1,0.8L956.5,2820.9z M954.5,2820.7l0.1-0.8
	l1,0.1l-0.1,0.8L954.5,2820.7z M952.4,2820.5l0.1-0.8l1,0.1l-0.1,0.8L952.4,2820.5z M950.4,2820.4l0.1-0.8l1,0.1l-0.1,0.8
	L950.4,2820.4z M948.4,2820.2l0.1-0.8l1,0.1l-0.1,0.8L948.4,2820.2z M946.3,2820l0.1-0.8l1,0.1l-0.1,0.8L946.3,2820z M944.3,2819.8
	l0.1-0.8l1,0.1l-0.1,0.8L944.3,2819.8z M934,2818.7c0.3-0.2,0.7-0.3,1.1-0.4l0.1,0.8c-0.3,0-0.6,0.1-0.8,0.3L934,2818.7z
	 M942.2,2819.7l0.1-0.8l1,0.1l-0.1,0.8L942.2,2819.7z M940.2,2819.5l0.1-0.8l1,0.1l-0.1,0.8L940.2,2819.5z M938.2,2819.3l0.1-0.8
	l1,0.1l-0.1,0.8L938.2,2819.3z M936.1,2819.1l0.1-0.8l1,0.1l-0.1,0.8L936.1,2819.1z"/>
<polygon class="st3" points="928.1,2881.9 929,2882 929,2881.2 928.8,2881.2 928.8,2881 928,2881.1 "/>
<path class="st3" d="M997.4,2891.9l0.2-0.7l1,0.3l-0.2,0.7L997.4,2891.9z M995.5,2891.3l0.2-0.7l1,0.3l-0.2,0.7L995.5,2891.3z
	 M993.6,2890.8l0.2-0.7l1,0.3l-0.2,0.7L993.6,2890.8z M991.6,2890.3l0.2-0.7l1,0.3l-0.2,0.7L991.6,2890.3z M989.7,2889.8l0.2-0.7
	l1,0.2l-0.2,0.8L989.7,2889.8z M987.7,2889.3l0.2-0.8l1,0.2l-0.2,0.8L987.7,2889.3z M985.8,2888.8l0.2-0.8l1,0.2l-0.2,0.8
	L985.8,2888.8z M983.8,2888.4l0.2-0.8l1,0.2l-0.2,0.8L983.8,2888.4z M981.8,2888l0.2-0.8l1,0.2l-0.2,0.8L981.8,2888z M979.9,2887.6
	l0.1-0.8l1,0.2l-0.2,0.8L979.9,2887.6z M977.9,2887.2l0.1-0.8l1,0.2l-0.1,0.8L977.9,2887.2z M975.9,2886.8l0.1-0.8l1,0.2l-0.1,0.8
	L975.9,2886.8z M973.9,2886.4l0.1-0.8l1,0.2l-0.1,0.8L973.9,2886.4z M972,2886.1l0.1-0.8l1,0.2l-0.1,0.8L972,2886.1z M970,2885.8
	l0.1-0.8l1,0.2l-0.1,0.8L970,2885.8z M968,2885.5l0.1-0.8l1,0.2l-0.1,0.8L968,2885.5z M966,2885.2l0.1-0.8l1,0.1l-0.1,0.8
	L966,2885.2z M964,2884.9l0.1-0.8l1,0.1l-0.1,0.8L964,2884.9z M962,2884.6l0.1-0.8l1,0.1l-0.1,0.8L962,2884.6z M960,2884.4l0.1-0.8
	l1,0.1l-0.1,0.8L960,2884.4z M958,2884.1l0.1-0.8l1,0.1l-0.1,0.8L958,2884.1z M956,2883.9l0.1-0.8l1,0.1l-0.1,0.8L956,2883.9z
	 M954,2883.7l0.1-0.8l1,0.1l-0.1,0.8L954,2883.7z M952,2883.5l0.1-0.8l1,0.1l-0.1,0.8L952,2883.5z M950,2883.3l0.1-0.8l1,0.1
	l-0.1,0.8L950,2883.3z M948,2883.1l0.1-0.8l1,0.1l-0.1,0.8L948,2883.1z M946,2882.9l0.1-0.8l1,0.1l-0.1,0.8L946,2882.9z M944,2882.8
	l0.1-0.8l1,0.1l-0.1,0.8L944,2882.8z M942,2882.6v-0.8l1,0.1l-0.1,0.8L942,2882.6z M940,2882.5v-0.8l1,0.1l-0.1,0.8L940,2882.5z
	 M938,2882.4v-0.8l1,0.1v0.8L938,2882.4z M930,2881.2h1v0.8h-1V2881.2z M936,2882.3v-0.8l1,0.1v0.8L936,2882.3z M932,2881.3h1v0.8
	h-1V2881.3z M934,2882.2v-0.8h1v0.8H934z"/>
<polygon class="st3" points="1000,2892.6 1000.6,2892.3 1000.2,2891.6 999.9,2891.8 999.6,2891.7 999.4,2892.4 "/>
<path class="st3" d="M1001,2891.1l0.9-0.5l0.4,0.7l-0.9,0.5L1001,2891.1z M1002.8,2890l0.9-0.5l0.4,0.7l-0.9,0.5L1002.8,2890z
	 M1004.5,2888.9l0.9-0.5l0.4,0.7l-0.9,0.5L1004.5,2888.9z M1006.2,2887.8l0.9-0.5l0.4,0.7l-0.9,0.5L1006.2,2887.8z M1007.9,2886.7
	l0.9-0.5l0.4,0.7l-0.9,0.5L1007.9,2886.7z M1009.6,2885.7l0.9-0.5l0.4,0.7l-0.9,0.5L1009.6,2885.7z M1011.3,2884.6l0.9-0.5l0.4,0.7
	l-0.9,0.5L1011.3,2884.6z M1013,2883.5l0.9-0.5l0.4,0.7l-0.9,0.5L1013,2883.5z M1014.7,2882.4l0.9-0.5l0.4,0.7l-0.9,0.5
	L1014.7,2882.4z M1016.4,2881.3l0.9-0.5l0.4,0.7l-0.9,0.5L1016.4,2881.3z M1018.1,2880.3l0.9-0.5l0.4,0.7l-0.9,0.5L1018.1,2880.3z
	 M1019.8,2879.2l0.9-0.5l0.4,0.7l-0.9,0.5L1019.8,2879.2z M1021.5,2878.1l0.9-0.5l0.4,0.7l-0.9,0.5L1021.5,2878.1z M1023.2,2877
	l0.9-0.5l0.4,0.7l-0.9,0.5L1023.2,2877z M1024.9,2875.9l0.9-0.5l0.4,0.7l-0.9,0.5L1024.9,2875.9z M1026.7,2874.8l0.9-0.5l0.4,0.7
	l-0.9,0.5L1026.7,2874.8z M1028.4,2873.8l0.9-0.5l0.4,0.7l-0.9,0.5L1028.4,2873.8z M1030.1,2872.7l0.9-0.5l0.4,0.7l-0.9,0.5
	L1030.1,2872.7z M1031.8,2871.6l0.9-0.5l0.4,0.7l-0.9,0.5L1031.8,2871.6z M1033.5,2870.5l0.9-0.5l0.4,0.7l-0.9,0.5L1033.5,2870.5z
	 M1034.9,2869.4c0.1-0.2,0.2-0.4,0.2-0.6c0-0.1,0-0.1,0-0.2l0.8,0.1c0,0.1,0,0.2,0,0.2c-0.1,0.3-0.2,0.6-0.3,0.9L1034.9,2869.4z
	 M1034.8,2867.4l-0.3-0.4l0.6-0.5l0.3,0.4c0.1,0.2,0.2,0.4,0.3,0.6l-0.7,0.3C1035,2867.7,1034.9,2867.5,1034.8,2867.4z
	 M1033.4,2865.4l0.6-0.5l0.6,0.8l-0.6,0.5L1033.4,2865.4z M1032.2,2863.8l0.6-0.5l0.6,0.8l-0.6,0.5L1032.2,2863.8z M1030.9,2862.1
	l0.6-0.5l0.6,0.8l-0.6,0.5L1030.9,2862.1z M1029.7,2860.5l0.6-0.5l0.6,0.8l-0.6,0.5L1029.7,2860.5z M1028.5,2858.8l0.6-0.5l0.6,0.8
	l-0.6,0.5L1028.5,2858.8z M1027.3,2857.2l0.6-0.5l0.6,0.8l-0.6,0.5L1027.3,2857.2z M1026.1,2855.6l0.6-0.5l0.6,0.8l-0.6,0.5
	L1026.1,2855.6z M1024.9,2853.9l0.6-0.5l0.6,0.8l-0.6,0.5L1024.9,2853.9z M1023.7,2852.3l0.6-0.5l0.6,0.8l-0.6,0.5L1023.7,2852.3z
	 M1022.5,2850.6l0.6-0.5l0.6,0.8l-0.6,0.5L1022.5,2850.6z M1021.3,2849l0.6-0.5l0.6,0.8l-0.6,0.5L1021.3,2849z M1020.1,2847.4
	l0.6-0.5l0.6,0.8l-0.6,0.5L1020.1,2847.4z M1018.9,2845.7l0.6-0.5l0.6,0.8l-0.6,0.5L1018.9,2845.7z M1017.7,2844.1l0.6-0.5l0.6,0.8
	l-0.6,0.5L1017.7,2844.1z M1016.5,2842.5l0.6-0.5l0.6,0.8l-0.6,0.5L1016.5,2842.5z M1015.3,2840.8l0.6-0.5l0.6,0.8l-0.6,0.5
	L1015.3,2840.8z M1014.1,2839.2l0.6-0.5l0.6,0.8l-0.6,0.5L1014.1,2839.2z M1012.9,2837.6l0.6-0.5l0.6,0.8l-0.6,0.5L1012.9,2837.6z
	 M1011.7,2835.9l0.6-0.5l0.6,0.8l-0.6,0.5L1011.7,2835.9z M1010.5,2834.3l0.6-0.5l0.6,0.8l-0.6,0.5L1010.5,2834.3z M1009.2,2832.6
	l0.6-0.5l0.6,0.8l-0.6,0.5L1009.2,2832.6z M1008,2831l0.6-0.5l0.6,0.8l-0.6,0.5L1008,2831z M1006.8,2829.4l0.6-0.5l0.6,0.8l-0.6,0.5
	L1006.8,2829.4z M1005.6,2827.7l0.6-0.5l0.6,0.8l-0.6,0.5L1005.6,2827.7z M1004.4,2826.1l0.6-0.5l0.6,0.8l-0.6,0.5L1004.4,2826.1z"
	/>
<path class="st7" d="M1022,2864c0.4-2.2,2.4-3.6,4.5-3.2c2.1,0.4,3.6,2.4,3.2,4.6c-0.4,2.2-2.4,3.6-4.5,3.2
	C1023,2868.2,1021.6,2866.2,1022,2864z M1023.2,2864.2c-0.3,1.5,0.7,2.9,2.2,3.2s2.9-0.7,3.1-2.2c0.3-1.5-0.7-2.9-2.2-3.2
	S1023.4,2862.7,1023.2,2864.2z M1009.6,2848.3c0.4-2.2,2.4-3.6,4.5-3.2c2.1,0.4,3.6,2.4,3.2,4.6c-0.4,2.2-2.4,3.6-4.5,3.2
	C1010.6,2852.6,1009.2,2850.5,1009.6,2848.3z M1010.8,2848.6c-0.3,1.5,0.7,2.9,2.2,3.2s2.9-0.7,3.1-2.2c0.3-1.5-0.7-2.9-2.2-3.2
	C1012.4,2846.1,1011,2847.1,1010.8,2848.6z"/>
<path class="st4" d="M1025.5,2864.2c-0.3,0.4-0.3,0.9,0.1,1.2c0.1,0.1,0.3,0.2,0.4,0.2c0.3,0,0.6-0.1,0.8-0.3
	c0.4-0.4,7.1-8.4,8.3-15.1c0-0.2,0.1-0.4,0.1-0.6c0.1-0.7,0.1-1.4,0-2.1c-0.1-0.8-0.3-1.5-0.6-2.1c-1.3-2.7-4.5-4-9.5-4.1
	c0.6,0.6,1.2,1.2,1.9,1.8c3.2,0.3,5.2,1.3,6.1,3c0.1,0.1,0.1,0.3,0.2,0.5c0.2,0.6,0.3,1.3,0.3,2c0,0.1,0,0.3,0,0.4
	C1033.1,2854.1,1027.9,2861.4,1025.5,2864.2z"/>
<path class="st4" d="M1013.5,2848.6c0.1,0.5,0.6,0.7,1,0.6c3.7-1,12.8-2.7,18-1c0.3,0.1,0.6,0.2,0.9,0.3c0.6,0.3,1.2,0.6,1.6,1
	c0.2,0.2,0.4,0.4,0.5,0.6c0.2,0.3,0.4,0.6,0.6,1c0.7,0.5,1.4,1.1,2.1,1.6c-0.1-1.4-0.5-2.7-1.3-3.7c-0.5-0.6-1.1-1.2-1.8-1.6
	c-0.6-0.4-1.2-0.7-1.9-0.9c-1-0.3-2.1-0.6-3.2-0.7c-6.8-0.8-15.3,1.5-15.8,1.6C1013.7,2847.6,1013.4,2848.1,1013.5,2848.6z"/>
<path class="st7" d="M997.2,2832.5c0.1-2.2,2-3.9,4.1-3.8c2.2,0.1,3.8,2,3.7,4.2s-2,3.9-4.1,3.8
	C998.7,2836.5,997.1,2834.7,997.2,2832.5z M998.4,2832.5c-0.1,1.5,1.1,2.8,2.5,2.9c1.5,0.1,2.8-1.1,2.8-2.6c0.1-1.5-1.1-2.8-2.5-2.9
	C999.7,2829.9,998.5,2831,998.4,2832.5z"/>
<path class="st4" d="M1000.4,2833.1c0.2,0.4,0.8,0.6,1.2,0.3c2.3-1.4,7.9-4.2,12.2-4.3c1.4-0.1,2.7,0.2,3.7,0.9c1.4,1,2.1,2.8,2,5.6
	c0.5,0.6,1.1,1.1,1.6,1.7c0.4-4.2-0.5-7.1-2.6-8.7c-1.6-1.2-3.8-1.4-6-1.1c-5.4,0.7-11.4,4.2-11.8,4.4
	C1000.3,2832.2,1000.1,2832.7,1000.4,2833.1z"/>
<polygon class="st1" points="1243.9,2855 1176.2,2857.6 1172.2,2751.6 1239.9,2748.9 "/>
<path class="st2" d="M1175.9,2871l-11.1,13l-3,4.3c-1.7,2.5-2.7,5.4-2.9,8.5l-0.6,11.8c-0.1,2.9,2.1,5.4,5,5.6l12.9,0.6l0.2-3.4
	l7,0.3l-0.2,3.3l15.5,1.1l0.1-2.7l7.3,0.4l-0.1,3l17.4,0.8l9.5-11.1c13.6,4.8,25.9,10.4,36.2,17.1c0.5,0.4,18.1,1.3,18.1,0.9
	l0.1-2.7l6.8,0.3l-0.1,2.7c5.6,0.7,11.2,1,16.8,0.8l0.1-2.8l6.7,0.3l-0.1,2.3c5.9,0.3,11.1-0.1,15.6-1.2l0.1-2.2l6.7-0.5l-0.1,2
	c4-0.3,7.7-1.3,11.2-2.5l-0.2-2.2l6.1-2.2l1.1,2.3c6.6-2.4,12.6-4.9,17.9-7.7c0,0,1.5-9-4-9.7l-70.3-11.4l-90.2-17.1L1175.9,2871z"
	/>
<path class="st3" d="M1163,2863.9c-0.2,4.4,0,8.9,0.8,13.3l1.1,6.9c27.2,0.8,52.5,4.1,74.8,11.1c4.6,1.4,9.2,3,13.5,4.8
	c37.6,15.3,77.3,15.1,118.8,1.4l0.3-6.5c0.2-4.8-2.9-9.1-7.5-10.3l-30-7.7c-5.3-1.4-10.7-2.6-16.1-3.9
	c-15.1-3.6-28.8-10.4-41.4-20.1c-0.7-0.5-1.4-1.1-2.1-1.6c-0.4-0.3-0.8-0.6-1.2-1c-1.1,6.7-7.9,14.7-8.3,15.1
	c-0.2,0.2-0.5,0.3-0.8,0.3c-0.1,0-0.3-0.1-0.4-0.2c-0.4-0.3-0.4-0.9-0.1-1.2c2.4-2.8,7.6-10.1,8-15.2c-0.3-0.2-0.6-0.5-0.9-0.7
	c-5.3-1.8-14.3-0.1-18,1c-0.5,0.1-0.9-0.1-1-0.6s0.1-0.9,0.6-1.1c0.5-0.1,9-2.4,15.8-1.6c-1-0.9-2-1.8-3-2.8
	c-0.6-0.6-1.3-1.2-1.9-1.8c-1.3-1.3-2.7-2.7-4-4.1c-0.5-0.6-1.1-1.1-1.6-1.7c-1.9-2.1-3.8-4.2-5.7-6.5c-4.3,0.1-9.9,2.9-12.2,4.3
	c-0.4,0.2-0.9,0.1-1.2-0.3c-0.2-0.4-0.1-0.9,0.3-1.2c0.4-0.2,6.3-3.8,11.8-4.4c-0.8-0.9-1.5-1.8-2.2-2.7c-1.2-1.5-3-2.5-4.9-2.7
	l-70.4-6.1c-2.6-0.2-4.8,1.8-4.8,4.4l-0.1,8.5c-0.1,6.3-1.1,12.5-3.1,18.5C1164.3,2852.7,1163.3,2858.3,1163,2863.9z"/>
<path class="st4" d="M1264.7,2865.4c0.1,0.1,0.3,0.2,0.4,0.2c0.3,0,0.6-0.1,0.8-0.3c0.4-0.4,7.1-8.4,8.3-15.1
	c-0.5-0.4-1-0.8-1.6-1.3c-0.3,5.1-5.6,12.4-8,15.2C1264.3,2864.5,1264.3,2865.1,1264.7,2865.4z M1252.6,2848.6
	c0.1,0.5,0.6,0.7,1,0.6c3.7-1,12.8-2.7,18-1c-0.9-0.8-1.8-1.5-2.6-2.3c-6.8-0.8-15.3,1.5-15.8,1.6
	C1252.8,2847.6,1252.5,2848.1,1252.6,2848.6z"/>
<path class="st5" d="M1239.5,2833.1c0.2,0.4,0.8,0.6,1.2,0.3c2.3-1.4,7.9-4.2,12.2-4.3c-0.5-0.5-0.9-1.1-1.3-1.6
	c-5.4,0.7-11.4,4.2-11.8,4.4C1239.4,2832.2,1239.2,2832.7,1239.5,2833.1z"/>
<path class="st6" d="M1163,2863.9c-0.2,4.4,0,8.9,0.8,13.3l1.1,6.9c27.2,0.8,52.5,4.1,74.8,11.1l36-22.8c2.1-1.3,2.6-4.2,1.1-6.2
	l-32.4-44.1l-70.4-6.1c-2.6-0.2-4.8,1.8-4.8,4.4l-0.1,8.5c-0.1,6.3-1.1,12.5-3.1,18.5C1164.3,2852.7,1163.3,2858.3,1163,2863.9z"/>
<polygon class="st3" points="1242.9,2825.3 1243.5,2824.8 1243.1,2824.2 1242.5,2824.2 1242.4,2825 1242.7,2825 "/>
<path class="st3" d="M1166.8,2879.2l0.8-0.1l0.2,1l-0.7,0.1L1166.8,2879.2z M1166.5,2877.1l0.8-0.1l0.2,1l-0.8,0.1L1166.5,2877.1z
	 M1166.2,2875.1l0.8-0.1c0,0.3,0.1,0.7,0.1,1l-0.7,0.1C1166.3,2875.8,1166.2,2875.4,1166.2,2875.1z M1165.9,2873l0.8-0.1
	c0,0.3,0.1,0.7,0.1,1l-0.8,0.1C1166,2873.7,1166,2873.3,1165.9,2873z M1165.7,2870.9l0.8-0.1c0,0.3,0.1,0.7,0.1,1l-0.8,0.1
	C1165.8,2871.6,1165.8,2871.3,1165.7,2870.9z M1165.6,2868.8h0.8c0,0.3,0,0.7,0,1h-0.8C1165.7,2869.5,1165.6,2869.2,1165.6,2868.8z
	 M1165.6,2866.7h0.8c0,0.3,0,0.7,0,1h-0.8C1165.6,2867.4,1165.6,2867.1,1165.6,2866.7z M1165.6,2864.6h0.8c0,0.3,0,0.7,0,1h-0.8
	C1165.6,2865.3,1165.6,2865,1165.6,2864.6z M1165.7,2863.6c0-0.3,0-0.7,0.1-1l0.8,0.1c0,0.3,0,0.7-0.1,1L1165.7,2863.6z
	 M1165.8,2861.5c0-0.3,0.1-0.7,0.1-1l0.8,0.1c0,0.3-0.1,0.7-0.1,1L1165.8,2861.5z M1166,2859.4c0-0.3,0.1-0.7,0.1-1l0.8,0.1
	c0,0.3-0.1,0.7-0.1,1L1166,2859.4z M1166.3,2857.4c0.1-0.3,0.1-0.7,0.2-1l0.7,0.1c-0.1,0.3-0.1,0.7-0.2,1L1166.3,2857.4z
	 M1166.7,2855.3c0.1-0.3,0.1-0.7,0.2-1l0.7,0.2c-0.1,0.3-0.1,0.7-0.2,1L1166.7,2855.3z M1167.1,2853.3c0.1-0.3,0.2-0.7,0.2-1
	l0.7,0.2c-0.1,0.3-0.2,0.7-0.2,1L1167.1,2853.3z M1167.6,2851.2c0.1-0.3,0.2-0.7,0.3-1l0.7,0.2c-0.1,0.3-0.2,0.7-0.3,1
	L1167.6,2851.2z M1168.1,2849.2c0.1-0.3,0.2-0.7,0.3-1l0.7,0.2c-0.1,0.3-0.2,0.7-0.3,1L1168.1,2849.2z M1168.8,2847.3
	c0.1-0.3,0.2-0.7,0.3-1l0.7,0.2c-0.1,0.3-0.2,0.7-0.3,1L1168.8,2847.3z M1169.3,2845.3c0.1-0.3,0.2-0.7,0.3-1l0.7,0.2
	c-0.1,0.3-0.2,0.7-0.3,1L1169.3,2845.3z M1169.8,2843.3c0.1-0.3,0.2-0.7,0.2-1l0.7,0.2c-0.1,0.3-0.2,0.7-0.2,1L1169.8,2843.3z
	 M1170.3,2841.3c0.1-0.3,0.1-0.7,0.2-1l0.7,0.1c-0.1,0.3-0.1,0.7-0.2,1L1170.3,2841.3z M1170.7,2839.2c0.1-0.3,0.1-0.7,0.2-1
	l0.8,0.1c-0.1,0.3-0.1,0.7-0.2,1L1170.7,2839.2z M1171,2837.2c0-0.3,0.1-0.7,0.1-1l0.8,0.1c0,0.3-0.1,0.7-0.1,1L1171,2837.2z
	 M1171.2,2835.2c0-0.3,0.1-0.7,0.1-1l0.8,0.1c0,0.3-0.1,0.7-0.1,1L1171.2,2835.2z M1171.4,2833.1c0-0.3,0-0.7,0.1-1h0.8
	c0,0.3,0,0.7-0.1,1H1171.4z M1171.6,2830h0.8c0,0.3,0,0.7,0,1h-0.8C1171.6,2830.7,1171.6,2830.4,1171.6,2830z M1171.6,2827.9h0.8v1
	h-0.8V2827.9z M1171.7,2825.9h0.8v1h-0.8V2825.9z M1171.7,2823.8h0.8v1h-0.8V2823.8z M1171.7,2821.7h0.8v1h-0.8V2821.7z
	 M1240.4,2824.8l0.1-0.8l1,0.1l-0.1,0.8L1240.4,2824.8z M1238.3,2824.6l0.1-0.8l1,0.1l-0.1,0.8L1238.3,2824.6z M1236.3,2824.4
	l0.1-0.8l1,0.1l-0.1,0.8L1236.3,2824.4z M1234.3,2824.3l0.1-0.8l1,0.1l-0.1,0.8L1234.3,2824.3z M1232.2,2824.1l0.1-0.8l1,0.1
	l-0.1,0.8L1232.2,2824.1z M1230.2,2823.9l0.1-0.8l1,0.1l-0.1,0.8L1230.2,2823.9z M1228.2,2823.7l0.1-0.8l1,0.1l-0.1,0.8
	L1228.2,2823.7z M1226.1,2823.5l0.1-0.8l1,0.1l-0.1,0.8L1226.1,2823.5z M1224.1,2823.4l0.1-0.8l1,0.1l-0.1,0.8L1224.1,2823.4z
	 M1222,2823.2l0.1-0.8l1,0.1l-0.1,0.8L1222,2823.2z M1171.8,2820.6c0.1-0.4,0.2-0.8,0.5-1.1l0.6,0.4c-0.2,0.2-0.3,0.5-0.3,0.8
	L1171.8,2820.6z M1220,2823l0.1-0.8l1,0.1l-0.1,0.8L1220,2823z M1218,2822.8l0.1-0.8l1,0.1l-0.1,0.8L1218,2822.8z M1215.9,2822.7
	l0.1-0.8l1,0.1l-0.2,0.8L1215.9,2822.7z M1213.9,2822.5l0.1-0.8l1,0.1l-0.1,0.8L1213.9,2822.5z M1211.9,2822.3l0.1-0.8l1,0.1
	l-0.1,0.8L1211.9,2822.3z M1209.8,2822.1l0.1-0.8l1,0.1l-0.1,0.8L1209.8,2822.1z M1207.8,2822l0.1-0.8l1,0.1l-0.1,0.8L1207.8,2822z
	 M1205.8,2821.8l0.1-0.8l1,0.1l-0.1,0.8L1205.8,2821.8z M1203.7,2821.6l0.1-0.8l1,0.1l-0.1,0.8L1203.7,2821.6z M1201.7,2821.4
	l0.1-0.8l1,0.1l-0.1,0.8L1201.7,2821.4z M1199.7,2821.3l0.1-0.8l1,0.1l-0.1,0.8L1199.7,2821.3z M1197.6,2821.1l0.1-0.8l1,0.1
	l-0.1,0.8L1197.6,2821.1z M1195.6,2820.9l0.1-0.8l1,0.1l-0.1,0.8L1195.6,2820.9z M1193.6,2820.7l0.1-0.8l1,0.1l-0.1,0.8
	L1193.6,2820.7z M1191.5,2820.5l0.1-0.8l1,0.1l-0.1,0.8L1191.5,2820.5z M1189.5,2820.4l0.1-0.8l1,0.1l-0.1,0.8L1189.5,2820.4z
	 M1187.5,2820.2l0.1-0.8l1,0.1l-0.1,0.8L1187.5,2820.2z M1185.4,2820l0.1-0.8l1,0.1l-0.1,0.8L1185.4,2820z M1183.4,2819.8l0.1-0.8
	l1,0.1l-0.1,0.8L1183.4,2819.8z M1173.1,2818.7c0.3-0.2,0.7-0.3,1.1-0.4l0.1,0.8c-0.3,0-0.6,0.1-0.8,0.3L1173.1,2818.7z
	 M1181.4,2819.7l0.1-0.8l1,0.1l-0.1,0.8L1181.4,2819.7z M1179.3,2819.5l0.1-0.8l1,0.1l-0.1,0.8L1179.3,2819.5z M1177.3,2819.3
	l0.1-0.8l1,0.1l-0.1,0.8L1177.3,2819.3z M1175.2,2819.1l0.1-0.8l1,0.1l-0.1,0.8L1175.2,2819.1z"/>
<polygon class="st3" points="1167.3,2881.9 1168.1,2882 1168.1,2881.2 1167.9,2881.2 1167.9,2881 1167.1,2881.1 "/>
<path class="st3" d="M1236.6,2891.9l0.2-0.7l1,0.3l-0.2,0.7L1236.6,2891.9z M1234.6,2891.3l0.2-0.7l1,0.3l-0.2,0.7L1234.6,2891.3z
	 M1232.7,2890.8l0.2-0.7l1,0.3l-0.2,0.7L1232.7,2890.8z M1230.7,2890.3l0.2-0.7l1,0.3l-0.2,0.7L1230.7,2890.3z M1228.8,2889.8
	l0.2-0.7l1,0.2l-0.2,0.8L1228.8,2889.8z M1226.8,2889.3l0.2-0.8l1,0.2l-0.2,0.8L1226.8,2889.3z M1224.9,2888.8l0.2-0.8l1,0.2
	l-0.2,0.8L1224.9,2888.8z M1222.9,2888.4l0.2-0.8l1,0.2l-0.2,0.8L1222.9,2888.4z M1221,2888l0.2-0.8l1,0.2l-0.2,0.8L1221,2888z
	 M1219,2887.6l0.1-0.8l1,0.2l-0.2,0.8L1219,2887.6z M1217,2887.2l0.1-0.8l1,0.2l-0.1,0.8L1217,2887.2z M1215,2886.8l0.1-0.8l1,0.2
	l-0.1,0.8L1215,2886.8z M1213.1,2886.4l0.1-0.8l1,0.2l-0.1,0.8L1213.1,2886.4z M1211.1,2886.1l0.1-0.8l1,0.2l-0.1,0.8L1211.1,2886.1
	z M1209.1,2885.8l0.1-0.8l1,0.2l-0.1,0.8L1209.1,2885.8z M1207.1,2885.5l0.1-0.8l1,0.2l-0.1,0.8L1207.1,2885.5z M1205.1,2885.2
	l0.1-0.8l1,0.1l-0.1,0.8L1205.1,2885.2z M1203.1,2884.9l0.1-0.8l1,0.1l-0.1,0.8L1203.1,2884.9z M1201.1,2884.6l0.1-0.8l1,0.1
	l-0.1,0.8L1201.1,2884.6z M1199.1,2884.4l0.1-0.8l1,0.1l-0.1,0.8L1199.1,2884.4z M1197.1,2884.1l0.1-0.8l1,0.1l-0.1,0.8
	L1197.1,2884.1z M1195.2,2883.9l0.1-0.8l1,0.1l-0.1,0.8L1195.2,2883.9z M1193.2,2883.7l0.1-0.8l1,0.1l-0.1,0.8L1193.2,2883.7z
	 M1191.2,2883.5l0.1-0.8l1,0.1l-0.1,0.8L1191.2,2883.5z M1189.1,2883.3l0.1-0.8l1,0.1l-0.1,0.8L1189.1,2883.3z M1187.1,2883.1
	l0.1-0.8l1,0.1l-0.1,0.8L1187.1,2883.1z M1185.1,2882.9l0.1-0.8l1,0.1l-0.1,0.8L1185.1,2882.9z M1183.1,2882.8l0.1-0.8l1,0.1
	l-0.1,0.8L1183.1,2882.8z M1181.1,2882.6l0.1-0.8l1,0.1l-0.1,0.8L1181.1,2882.6z M1179.1,2882.5v-0.8l1,0.1l-0.1,0.8L1179.1,2882.5z
	 M1177.1,2882.4v-0.8l1,0.1v0.8L1177.1,2882.4z M1169.1,2881.2h1v0.8h-1V2881.2z M1175.1,2882.3v-0.8l1,0.1v0.8L1175.1,2882.3z
	 M1171.1,2881.3h1v0.8h-1V2881.3z M1173.1,2882.2v-0.8h1v0.8H1173.1z"/>
<polygon class="st3" points="1239.1,2892.6 1239.7,2892.3 1239.3,2891.6 1239,2891.8 1238.7,2891.7 1238.5,2892.4 "/>
<path class="st3" d="M1240.2,2891.1l0.9-0.5l0.4,0.7l-0.9,0.5L1240.2,2891.1z M1241.9,2890l0.9-0.5l0.4,0.7l-0.9,0.5L1241.9,2890z
	 M1243.6,2888.9l0.9-0.5l0.4,0.7l-0.9,0.5L1243.6,2888.9z M1245.3,2887.8l0.9-0.5l0.4,0.7l-0.9,0.5L1245.3,2887.8z M1247,2886.7
	l0.9-0.5l0.4,0.7l-0.9,0.5L1247,2886.7z M1248.7,2885.7l0.9-0.5l0.4,0.7l-0.9,0.5L1248.7,2885.7z M1250.4,2884.6l0.9-0.5l0.4,0.7
	l-0.9,0.5L1250.4,2884.6z M1252.1,2883.5l0.9-0.5l0.4,0.7l-0.9,0.5L1252.1,2883.5z M1253.8,2882.4l0.9-0.5l0.4,0.7l-0.9,0.5
	L1253.8,2882.4z M1255.5,2881.3l0.9-0.5l0.4,0.7l-0.9,0.5L1255.5,2881.3z M1257.2,2880.3l0.9-0.5l0.4,0.7l-0.9,0.5L1257.2,2880.3z
	 M1258.9,2879.2l0.9-0.5l0.4,0.7l-0.9,0.5L1258.9,2879.2z M1260.6,2878.1l0.9-0.5l0.4,0.7l-0.9,0.5L1260.6,2878.1z M1262.4,2877
	l0.9-0.5l0.4,0.7l-0.9,0.5L1262.4,2877z M1264.1,2875.9l0.9-0.5l0.4,0.7l-0.9,0.5L1264.1,2875.9z M1265.8,2874.8l0.9-0.5l0.4,0.7
	l-0.9,0.5L1265.8,2874.8z M1267.5,2873.8l0.9-0.5l0.4,0.7l-0.9,0.5L1267.5,2873.8z M1269.2,2872.7l0.9-0.5l0.4,0.7l-0.9,0.5
	L1269.2,2872.7z M1270.9,2871.6l0.9-0.5l0.4,0.7l-0.9,0.5L1270.9,2871.6z M1272.6,2870.5l0.9-0.5l0.4,0.7l-0.9,0.5L1272.6,2870.5z
	 M1274,2869.4c0.1-0.2,0.2-0.4,0.2-0.6c0-0.1,0-0.1,0-0.2l0.8,0.1c0,0.1,0,0.2,0,0.2c-0.1,0.3-0.2,0.6-0.3,0.9L1274,2869.4z
	 M1274,2867.4l-0.3-0.4l0.6-0.5l0.3,0.4c0.1,0.2,0.2,0.4,0.3,0.6l-0.7,0.3C1274.1,2867.7,1274.1,2867.5,1274,2867.4z M1272.5,2865.4
	l0.6-0.5l0.6,0.8l-0.6,0.5L1272.5,2865.4z M1271.3,2863.8l0.6-0.5l0.6,0.8l-0.6,0.5L1271.3,2863.8z M1270.1,2862.1l0.6-0.5l0.6,0.8
	l-0.6,0.5L1270.1,2862.1z M1268.9,2860.5l0.6-0.5l0.6,0.8l-0.6,0.5L1268.9,2860.5z M1267.7,2858.8l0.6-0.5l0.6,0.8l-0.6,0.5
	L1267.7,2858.8z M1266.4,2857.2l0.6-0.5l0.6,0.8l-0.6,0.5L1266.4,2857.2z M1265.2,2855.6l0.6-0.5l0.6,0.8l-0.6,0.5L1265.2,2855.6z
	 M1264,2853.9l0.6-0.5l0.6,0.8l-0.6,0.5L1264,2853.9z M1262.8,2852.3l0.6-0.5l0.6,0.8l-0.6,0.5L1262.8,2852.3z M1261.6,2850.6
	l0.6-0.5l0.6,0.8l-0.6,0.5L1261.6,2850.6z M1260.4,2849l0.6-0.5l0.6,0.8l-0.6,0.5L1260.4,2849z M1259.2,2847.4l0.6-0.5l0.6,0.8
	l-0.6,0.5L1259.2,2847.4z M1258,2845.7l0.6-0.5l0.6,0.8l-0.6,0.5L1258,2845.7z M1256.8,2844.1l0.6-0.5l0.6,0.8l-0.6,0.5
	L1256.8,2844.1z M1255.6,2842.5l0.6-0.5l0.6,0.8l-0.6,0.5L1255.6,2842.5z M1254.4,2840.8l0.6-0.5l0.6,0.8l-0.6,0.5L1254.4,2840.8z
	 M1253.2,2839.2l0.6-0.5l0.6,0.8l-0.6,0.5L1253.2,2839.2z M1252,2837.6l0.6-0.5l0.6,0.8l-0.6,0.5L1252,2837.6z M1250.8,2835.9
	l0.6-0.5l0.6,0.8l-0.6,0.5L1250.8,2835.9z M1249.6,2834.3l0.6-0.5l0.6,0.8l-0.6,0.5L1249.6,2834.3z M1248.4,2832.6l0.6-0.5l0.6,0.8
	l-0.6,0.5L1248.4,2832.6z M1247.2,2831l0.6-0.5l0.6,0.8l-0.6,0.5L1247.2,2831z M1246,2829.4l0.6-0.5l0.6,0.8l-0.6,0.5L1246,2829.4z
	 M1244.7,2827.7l0.6-0.5l0.6,0.8l-0.6,0.5L1244.7,2827.7z M1243.5,2826.1l0.6-0.5l0.6,0.8l-0.6,0.5L1243.5,2826.1z"/>
<path class="st7" d="M1261.1,2864c0.4-2.2,2.4-3.6,4.5-3.2c2.1,0.4,3.6,2.4,3.2,4.6c-0.4,2.2-2.4,3.6-4.5,3.2
	C1262.1,2868.2,1260.7,2866.2,1261.1,2864z M1262.3,2864.2c-0.3,1.5,0.7,2.9,2.2,3.2s2.9-0.7,3.1-2.2s-0.7-2.9-2.2-3.2
	S1262.5,2862.7,1262.3,2864.2z M1248.7,2848.3c0.4-2.2,2.4-3.6,4.5-3.2c2.1,0.4,3.6,2.4,3.2,4.6c-0.4,2.2-2.4,3.6-4.5,3.2
	C1249.8,2852.6,1248.3,2850.5,1248.7,2848.3z M1249.9,2848.6c-0.3,1.5,0.7,2.9,2.2,3.2s2.9-0.7,3.1-2.2c0.3-1.5-0.7-2.9-2.2-3.2
	S1250.1,2847.1,1249.9,2848.6z"/>
<path class="st4" d="M1264.6,2864.2c-0.3,0.4-0.3,0.9,0.1,1.2c0.1,0.1,0.3,0.2,0.4,0.2c0.3,0,0.6-0.1,0.8-0.3
	c0.4-0.4,7.1-8.4,8.3-15.1c0-0.2,0.1-0.4,0.1-0.6c0.1-0.7,0.1-1.4,0-2.1c-0.1-0.8-0.3-1.5-0.6-2.1c-1.3-2.7-4.5-4-9.5-4.1
	c0.6,0.6,1.2,1.2,1.9,1.8c3.2,0.3,5.2,1.3,6.1,3c0.1,0.1,0.1,0.3,0.2,0.5c0.2,0.6,0.3,1.3,0.3,2c0,0.1,0,0.3,0,0.4
	C1272.2,2854.1,1267,2861.4,1264.6,2864.2z"/>
<path class="st4" d="M1252.6,2848.6c0.1,0.5,0.6,0.7,1,0.6c3.7-1,12.8-2.7,18-1c0.3,0.1,0.6,0.2,0.9,0.3c0.6,0.3,1.2,0.6,1.6,1
	c0.2,0.2,0.4,0.4,0.5,0.6c0.2,0.3,0.4,0.6,0.6,1c0.7,0.5,1.4,1.1,2.1,1.6c-0.1-1.4-0.5-2.7-1.3-3.7c-0.5-0.6-1.1-1.2-1.8-1.6
	c-0.6-0.4-1.2-0.7-1.9-0.9c-1-0.3-2.1-0.6-3.2-0.7c-6.8-0.8-15.3,1.5-15.8,1.6C1252.8,2847.6,1252.5,2848.1,1252.6,2848.6z"/>
<g>
	<path class="st7" d="M1236.3,2832.5c0.1-2.2,2-3.9,4.1-3.8c2.2,0.1,3.8,2,3.7,4.2c-0.1,2.2-2,3.9-4.1,3.8
		C1237.9,2836.5,1236.2,2834.7,1236.3,2832.5z M1237.5,2832.5c-0.1,1.5,1.1,2.8,2.5,2.9c1.5,0.1,2.7-1.1,2.8-2.6
		c0.1-1.5-1.1-2.8-2.5-2.9C1238.9,2829.9,1237.6,2831,1237.5,2832.5z"/>
	<path class="st4" d="M1239.5,2833.1c0.2,0.4,0.8,0.6,1.2,0.3c2.3-1.4,7.9-4.2,12.2-4.3c1.4-0.1,2.7,0.2,3.7,0.9
		c1.4,1,2.1,2.8,2,5.6c0.5,0.6,1.1,1.1,1.6,1.7c0.4-4.2-0.5-7.1-2.6-8.7c-1.6-1.2-3.8-1.4-6-1.1c-5.4,0.7-11.4,4.2-11.8,4.4
		C1239.4,2832.2,1239.2,2832.7,1239.5,2833.1z"/>
</g>
<polygon class="st2" points="943.7,1982.1 924.9,2793.7 1019,2798.3 1101.2,2160.1 1159.6,2793.5 1252.2,2798.1 1251,1930.6 
	1083.4,1902.2 "/>
<path class="st8" d="M1032.6,1483.9l16.2-31.5c22.1,31.3,47.9,36.7,78.2,11.8l82,131.4l-27.6,60l-5.2,215.3l-25.8,101.9
	c-18,26.6-46.6,30-81.3,20.3l-38.8-27.3l-53-215.1l-0.1-90.6c0,0,17.8-63.4,20.7-66.7C1000.7,1590.3,1032.6,1483.9,1032.6,1483.9z"
	/>
<path class="st9" d="M1507.7,1582.5c0,0-150.6,84.3-154.7,77.9c-111.9-176-224.5-195.1-226-196.1c3.7,18.6,7.5,37.1,11.2,55.7
	c7,35,10,68.8,6.9,104.5c-2.5,28.6-6.8,57.2-7,86c-0.2,33.7,7.3,66,11.3,99.1c7.5,61.8,1.8,124.8,0.4,186.9
	c-0.2,8.9,7.4,15.9,16,14.8c34.4-4.4,63.5-18.3,87-41.9c2.5-2.5,3.6-6,3.2-9.5c-4.6-41.1-9.9-82.1-15.8-123
	c-6.4-44.7-21.5-177.8-14-179.5c4-0.9,26.1,29.6,56.8,55.8c26.1,22.3,54.2,49.8,86.3,37.7c96.7-36.3,172.9-104.5,172.9-104.5
	L1507.7,1582.5z"/>
<g>
	<path class="st10" d="M752.3,2123.6c0-11.2,8.9-20.2,19.9-20.2h99c11,0,19.9,9.1,19.9,20.2v42.7H752.3V2123.6z M883.7,2123.6
		c0-7-5.6-12.8-12.6-12.8h-99c-6.9,0-12.6,5.7-12.6,12.8v35.2h124.1L883.7,2123.6L883.7,2123.6z"/>
	<path class="st11" d="M658.9,2156.3V2364c0,12.4,9.8,22.4,22,22.4h140.8c49.9-80,54.6-157,0-230.1L658.9,2156.3L658.9,2156.3z"/>
	<path class="st12" d="M821.7,2156.3v230.1h140.8c12.1,0,22-10,22-22.4v-207.7L821.7,2156.3L821.7,2156.3z"/>
	<path class="st13" d="M653.7,2165.8v69.1c0,3.1,1.9,5.8,4.8,6.9l163.2,58.2c37.6-56.8,29.4-108.3,0-157.4H676.4
		C663.9,2142.6,653.7,2153,653.7,2165.8z"/>
	<path class="st14" d="M821.7,2142.6V2300l163.2-58.2c2.9-1,4.8-3.8,4.8-6.9v-69.1c0-12.8-10.2-23.2-22.8-23.2H821.7z"/>
	<path class="st15" d="M802.9,2282.9v37.9c0,2.3,1.9,4.2,4.1,4.2h14.7v-46.2H807C804.8,2278.8,802.9,2280.7,802.9,2282.9z"/>
	<path class="st16" d="M821.7,2278.8v46.2h14.6c2.3,0,4.1-1.8,4.1-4.2v-37.9c0-2.3-1.8-4.2-4.1-4.2L821.7,2278.8L821.7,2278.8z"/>
</g>
<path class="st9" d="M789.5,2046.8l73.2,7.1l17.9-237.4c1.1-15.2,6.7-29.6,16.1-41.5l41.9-53.3l1.9,319.8c0,3.9,3.2,7,7,6.8
	c23.4-0.9,99.2-7.4,121.5-55.1c2.1-4.4-0.2-10.6-1.1-15.1c-1.5-7.5-2.6-15-3.6-22.5c-11.7-90,10.1-179.6,8.2-269.6
	c-1.5-72-14.4-144-21.6-215.5c-0.1-0.9-2-18.1-2-18.1c-76.8,8.9-177.4,103.4-251.2,282.9C784.7,1766.8,789.5,2046.8,789.5,2046.8z"
	/>
<path class="st1" d="M854.6,2053.1l6.6,16.1c1.3,4.4,4.3,8,8.3,10l17.3,8.7c3.3,1.7,4.7,5.7,3.1,9l0,0c-1.3,2.8-4.2,4.4-7.2,3.9
	l-17-2.8c-4.5-0.7-8.7,2.7-8.8,7.4l-1.3,24.9c-0.1,3.7-3.1,6.6-6.7,6.6l0,0c-3.5,0-6.5-2.8-6.7-6.4l-1.4-26.4l1.5,29.8
	c0.2,4.3-3.2,7.9-7.5,7.8l0,0c-3.8-0.1-6.9-3.3-7-7.2l-1.2-21.9l1.2,13c0.1,4.1-3,7.5-7.1,7.6l0,0c-4,0.1-7.3-3.2-7.3-7.2l-0.6-25
	l0.6,13.5c0.1,4-3,7.3-6.9,7.4l0,0c-3.8,0.1-7-2.8-7.4-6.6c-2.9-28.9-2.3-33.8,0.8-67.5L854.6,2053.1z"/>
<path class="st17" d="M1124.8,1436c0,0-34,4-61.9-21.4c0,0,20.2,35.4,63.3,40.4L1124.8,1436z"/>
<g>
	<path class="st6" d="M1582.7,2288.2l-25-46.4c-45.5-84.3-63.1-182.9-49.5-277.7l51.5-371.9l7.8-947.9l11.6,0.1l-7.9,948.7l-0.1,0.4
		l-51.6,372.3c-13.2,92.4,3.9,188.4,48.2,270.5l25,46.4L1582.7,2288.2z"/>
</g>
<g>
	<polygon class="st6" points="1565.5,1604.9 1067.4,683.4 1077.7,677.9 1565.5,1580.4 2065.8,659 2076.1,664.6 	"/>
</g>
<g>
	<polygon class="st6" points="1565.6,1610.3 1307.2,886.9 1318.1,883 1565.4,1575.1 1812.5,856.2 1823.6,859.9 	"/>
</g>
<g>
	<path class="st18" d="M1890.8,410.7l-189.1,43.7c-21.9,5-39.9,20.5-48.1,41.5L1590,657.4l-0.8,2.1l-1.6,4.1l-5.1,12.8
		c-1.1,2.7-4.9,3.1-6.5,0.5l-7.8-13l-3-5.1l-0.8-1.3l-88.4-147c-11.6-19.3-31.9-31.6-54.3-32.9L1228,465.7c-2.9-0.2-4.5-3.7-2.5-6
		l127.3-146.5c14.7-16.9,20.2-40.1,14.6-61.8l-48.5-187.9c-0.8-2.9,2.1-5.4,4.9-4.2l178.7,75.8c20.7,8.8,44.4,6.8,63.4-5.3
		l163.7-104.2c2.5-1.6,5.8,0.4,5.5,3.4L1718,222.3c-2,22.4,7.2,44.3,24.6,58.6l149.7,123.5C1894.5,406.3,1893.7,410.1,1890.8,410.7z
		"/>
	<path class="st19" d="M1718,222.3c-2,22.4,7.2,44.3,24.6,58.6l149.7,123.5l-197.7-44.6c-99-22.3-187.7-77.1-252-155.5l-119-145
		l178.7,75.8c20.7,8.8,44.4,6.8,63.3-5.3l163.7-104.2c2.5-1.6,5.8,0.4,5.5,3.4L1718,222.3z"/>
	<polygon class="st18" points="1610,692.5 1547.4,696 1562.9,663.5 1565.1,658.9 1565.7,657.8 1575.1,637.8 1587.8,657.7 
		1589.1,659.6 1591.4,663.3 	"/>
	<path class="st6" d="M1591.4,663.3c-1.4,0.2-2.7,0.3-3.9,0.4c-4.2,0.4-8,0.5-11.6,0.5c-2.8,0-5.4-0.1-7.8-0.2
		c-1.8-0.2-3.5-0.4-5.1-0.5l2.1-4.5l-0.8-1.3c0.4,0.1,0.9,0.1,1.4,0.2c5.8,0.5,13.2,0.8,22.2-0.1c0.7-0.1,1.4-0.1,2.1-0.2l-0.8,2.1
		L1591.4,663.3z"/>
</g>
<g>
	<path class="st18" d="M1294.6,513.1l-128.8,60.3c-14.9,6.9-25.4,20.8-28.1,37.1L1116.9,736l-0.3,1.6l-0.5,3.2l-1.7,9.9
		c-0.4,2.1-3.1,3-4.6,1.3l-7.6-8.1l-2.9-3.2l-0.7-0.8l-85.9-91.8c-11.2-12-27.7-17.7-44-15.3L828,654c-2.1,0.3-3.8-2-2.7-3.9
		l68.8-124.5c8-14.4,8.3-31.8,1-46.5l-63.6-127.3c-1-2,0.7-4.2,2.9-3.8l139.7,26.9c16.2,3.1,32.9-1.9,44.6-13.5l101.4-99.8
		c1.5-1.6,4.2-0.6,4.4,1.6l17.6,141.2c2,16.4,11.9,30.7,26.6,38.3l126.2,65.5C1296.6,509.4,1296.6,512.2,1294.6,513.1z"/>
	<path class="st19" d="M1141.8,404.6c2,16.3,12,30.7,26.6,38.2l126.2,65.5l-148.5-1.7c-74.4-0.8-146.3-26.4-204.5-72.8l-107.5-85.7
		L973.8,375c16.2,3.1,32.8-1.9,44.6-13.5l101.4-99.8c1.5-1.6,4.2-0.6,4.5,1.6L1141.8,404.6z"/>
	<polygon class="st18" points="1136.6,758.1 1092.2,770.3 1098.4,744.6 1099.2,741 1099.4,740.1 1103.2,724.3 1115.3,736.6 
		1116.5,737.8 1118.7,740.1 	"/>
	<path class="st6" d="M1118.7,740.1c-0.9,0.3-1.9,0.6-2.8,0.9c-2.9,0.9-5.7,1.6-8.2,2.2c-2,0.4-3.9,0.7-5.7,1
		c-1.3,0.2-2.6,0.3-3.8,0.4l0.8-3.6l-0.7-0.8c0.3,0,0.7-0.1,1-0.1c4.2-0.5,9.6-1.5,15.9-3.5c0.5-0.1,1-0.3,1.4-0.5l-0.3,1.6
		L1118.7,740.1z"/>
</g>
<g>
	<path class="st18" d="M2293.7,627.1l-142.2-5.3c-16.4-0.6-32.2,6.9-42,20.1l-76,102.1l-1,1.3l-1.9,2.6l-6,8.1
		c-1.3,1.7-4.1,1.2-4.7-0.9l-3.1-10.7l-1.2-4.2l-0.3-1.1L1981,618.4c-4.5-15.8-16.5-28.5-32.1-33.7l-134.8-45.5
		c-2-0.7-2.5-3.5-0.6-4.7l118.1-79.3c13.7-9.1,22-24.5,22.1-41l1.7-142.2c0-2.2,2.5-3.4,4.3-2.1l111.9,87.8
		c13,10.2,30.1,13.3,45.8,8.4l135.8-42.4c2.1-0.7,4,1.4,3.2,3.4l-48.9,133.6c-5.7,15.5-3.4,32.7,6.2,46.2l82.3,116
		C2297.2,624.7,2295.9,627.2,2293.7,627.1z"/>
	<path class="st19" d="M2207.5,460.7c-5.7,15.5-3.4,32.7,6.2,46.2l82.3,116l-131.3-69.4c-65.7-34.7-118-90.4-148.5-158.2
		l-56.4-125.4l111.9,87.8c13,10.2,30.1,13.3,45.8,8.4l135.8-42.4c2.1-0.7,4,1.4,3.2,3.4L2207.5,460.7z"/>
	<polygon class="st18" points="2041.1,772.7 1996.1,763.2 2013.3,743.1 2015.7,740.3 2016.3,739.7 2026.9,727.3 2032,743.8 
		2032.5,745.4 2033.5,748.5 	"/>
	<path class="st6" d="M2033.5,748.5c-1-0.1-1.9-0.3-2.9-0.5c-3-0.6-5.8-1.2-8.3-1.8c-2-0.5-3.8-1.1-5.5-1.7
		c-1.3-0.5-2.4-0.9-3.5-1.4l2.4-2.8l-0.3-1.1c0.3,0.1,0.6,0.3,0.9,0.4c4,1.5,9.2,3.1,15.7,4.2c0.5,0.1,1,0.2,1.5,0.2l-1,1.3
		L2033.5,748.5z"/>
</g>
<g>
	<path class="st18" d="M1980.4,868.2l-113.3,3.5c-13.1,0.4-25.2,7.2-32.3,18.3l-54.8,85.3l-0.7,1.1l-1.4,2.2l-4.4,6.7
		c-0.9,1.4-3.2,1.2-3.8-0.5l-3-8.3l-1.1-3.2l-0.3-0.8l-33.9-94.2c-4.4-12.4-14.7-21.7-27.4-25.1l-109.6-28.9
		c-1.7-0.5-2.1-2.6-0.8-3.7l89.6-69.4c10.4-8,16.1-20.6,15.4-33.7l-6.4-113.1c-0.1-1.7,1.8-2.9,3.3-1.9l93.7,63.7
		c10.8,7.4,24.6,9,36.9,4.2l105.6-41c1.6-0.7,3.3,0.9,2.8,2.5l-31.6,108.8c-3.7,12.6-0.9,26.2,7.4,36.4l71.7,87.7
		C1983,866.2,1982.1,868.2,1980.4,868.2z"/>
	<path class="st19" d="M1902.9,740.6c-3.7,12.6-0.9,26.2,7.4,36.4l71.7,87.7l-108.1-48.1c-54.1-24.1-98.7-65.5-126.6-117.7
		l-51.6-96.6l93.7,63.8c10.9,7.4,24.6,8.9,36.9,4.2l105.6-41c1.6-0.7,3.3,0.9,2.8,2.6L1902.9,740.6z"/>
	<polygon class="st18" points="1787.5,997.6 1751.2,992.5 1763.9,975.6 1765.6,973.3 1766.1,972.7 1773.8,962.3 1778.8,975.2 
		1779.3,976.4 1780.2,978.8 	"/>
	<path class="st6" d="M1780.2,978.8c-0.8-0.1-1.6-0.1-2.3-0.2c-2.4-0.3-4.7-0.6-6.7-1c-1.6-0.3-3.1-0.7-4.5-1c-1-0.3-2-0.6-2.9-0.9
		l1.7-2.4l-0.3-0.8c0.2,0.1,0.5,0.2,0.8,0.3c3.2,1,7.5,1.9,12.7,2.5c0.4,0,0.8,0.1,1.2,0.1l-0.7,1.1L1780.2,978.8z"/>
</g>
<g>
	<path class="st18" d="M1515.8,826.3l-105.1,42.3c-12.2,4.9-21.2,15.4-24,28.3l-22.1,98.9l-0.3,1.3l-0.5,2.5l-1.8,7.8
		c-0.4,1.7-2.6,2.2-3.7,0.9l-5.7-6.8l-2.2-2.7l-0.6-0.7l-64.3-76.8c-8.4-10.1-21.2-15.3-34.3-14.1L1138.4,918
		c-1.7,0.1-2.9-1.7-2-3.2l60.2-96c7-11.1,8-24.9,2.8-37l-45-104c-0.7-1.6,0.7-3.3,2.4-2.9l109.9,27.6c12.7,3.2,26.2-0.1,36.1-8.8
		l85-74.9c1.3-1.2,3.4-0.3,3.5,1.4l7.8,113c0.9,13.1,8.2,24.9,19.5,31.6l97.5,57.7C1517.5,823.4,1517.4,825.6,1515.8,826.3z"/>
	<path class="st19" d="M1399,733.2c0.9,13.1,8.2,24.9,19.5,31.6l97.5,57.7l-118.1-7.9c-59.1-3.9-115.2-27.5-159.4-66.9l-81.7-72.9
		l109.9,27.6c12.7,3.2,26.2-0.1,36.1-8.8l85-74.9c1.3-1.2,3.4-0.3,3.5,1.4L1399,733.2z"/>
	<polygon class="st18" points="1379.3,1014.2 1343.5,1021.9 1349.5,1001.7 1350.3,998.9 1350.6,998.2 1354.2,985.8 1363.3,996.1 
		1364.2,997.1 1365.9,999 	"/>
	<path class="st6" d="M1365.9,999c-0.8,0.2-1.5,0.4-2.2,0.6c-2.4,0.6-4.6,1-6.6,1.4c-1.6,0.3-3.1,0.4-4.5,0.6
		c-1.1,0.1-2.1,0.1-3,0.2l0.8-2.8l-0.6-0.7c0.2,0,0.5,0,0.8,0c3.4-0.2,7.7-0.8,12.8-2.1c0.4-0.1,0.8-0.2,1.2-0.3l-0.3,1.3
		L1365.9,999z"/>
</g>
<path class="st1" d="M1603.8,1588.1c0,2-0.8,4-2.3,5.4c-10.1,9.5-21.3,18.7-33.4,27.6l-28.9-54c0.9-0.2,1.7-0.6,2.6-1.2l31.9-22.2
	c3-2.2,7-1.5,9.2,1.5c0.9,1.2,1.3,2.6,1.3,4c0,2-0.8,3.9-2.4,5.2l-14.1,12l12.9-10.9c3.3-2.8,8.2-2.2,10.6,1.4
	c0.9,1.3,1.3,2.7,1.3,4.2c0,2.2-1,4.4-2.8,5.8l-1.5,1.2c2.9-1.3,6.4-0.4,8.4,2.2c1,1.3,1.5,2.9,1.5,4.5c0,2.2-1,4.4-2.8,5.8
	l-0.9,0.6c2.7-0.9,5.8,0,7.7,2.4C1603.3,1584.9,1603.8,1586.4,1603.8,1588.1z"/>
</svg>
