<?xml version="1.0" encoding="utf-8"?>
<!-- Generator: Adobe Illustrator 25.4.1, SVG Export Plug-In . SVG Version: 6.00 Build 0)  -->
<svg version="1.1" id="Layer_1" xmlns="http://www.w3.org/2000/svg" xmlns:xlink="http://www.w3.org/1999/xlink" x="0px" y="0px"
	 viewBox="0 0 30 30" style="enable-background:new 0 0 30 30;" xml:space="preserve">
<style type="text/css">
	.st0{fill:#FFFFFF;fill-opacity:0;}
	.st1{fill:#FABB04;}
</style>
<g>
	<g>
		<rect y="0" class="st0" width="30" height="30"/>
		<path class="st1" d="M21.2,11.2C21.2,7.8,18.5,5,15,5s-6.2,2.8-6.2,6.3c0,0.7,0.6,1.2,1.2,1.2s1.2-0.6,1.2-1.2
			c0-2.1,1.7-3.8,3.8-3.8s3.8,1.7,3.8,3.8S17.1,15,15,15c-0.7,0-1.2,0.6-1.2,1.2v2.5c0,0.7,0.6,1.2,1.2,1.2s1.2-0.6,1.2-1.2v-1.4
			C19.2,16.8,21.3,14.2,21.2,11.2z"/>
		<circle class="st1" cx="15" cy="23.7" r="1.2"/>
	</g>
</g>
</svg>
