<svg id="SvgjsSvg1326" width="256" height="256" xmlns="http://www.w3.org/2000/svg" version="1.1"
    xmlns:xlink="http://www.w3.org/1999/xlink" xmlns:svgjs="http://svgjs.com/svgjs">
    <defs id="SvgjsDefs1327"></defs>
    <g id="SvgjsG1328"><svg xmlns="http://www.w3.org/2000/svg" viewBox="0 0 64 64" width="256" height="256">
            <path
                d="M4 36a1 1 0 0 1 1-1h.969v27h2v-3H19v3h2v-7h2v7h20v-7h3a1 1 0 0 1 1 1v6h2v-6a3 3 0 0 0-3-3h-3v-2h3a5.006 5.006 0 0 1 5 5v6h2v-6a7.008 7.008 0 0 0-7-7h-3v-2h11v15h6V37h2v-2h-2v-2h2v-2h-2v-2h-2v-8a3 3 0 0 0-3-3h-2V2h-7v10h-4V2h-7v12h-4V2h-7v15h-5a3 3 0 0 0-3 3v4h-5V8H9v16a3.034 3.034 0 0 0-3.031 3.031V33H5a3 3 0 0 0-3 3v26h2Zm15 7H7.969V31H19ZM7.969 45H19v12H7.969ZM21 53v-2h2v2Zm13 2h2v5h-2Zm-2 5h-2v-5h2Zm2-7v-2h2v2Zm-2 0h-2v-2h2Zm-4 0h-3v-2h3Zm-3 2h3v5h-3Zm16 5h-3v-5h3Zm0-7h-3v-2h3Zm0-4h-3v-4a1 1 0 0 0-2 0v4h-2v-4a1 1 0 0 0-2 0v4h-2v-4a1 1 0 0 0-2 0v4h-3V25.588l8-4.444 8 4.444V49Zm17 11h-2V47h2Zm-4-15H43V31h15v14Zm1-25a1 1 0 0 1 1 1v8h-3v-9ZM48 4h3v4h-3Zm3 6v19h-3V10Zm-5 4v15h-3v-4.588l-1-.556V14ZM37 4h3v4h-3Zm3 6v12.745l-3-1.667V10Zm-5 6v3.967l-2-1.111-2 1.111V16ZM26 4h3v4h-3Zm3 6v11.078l-3 1.667V10Zm-10 9h5v4.856l-1 .556V49h-2V27.031A3.033 3.033 0 0 0 18 24v-4a1 1 0 0 1 1-1ZM9 26h8.969A1.032 1.032 0 0 1 19 27.031V29H7.969v-1.969A1.032 1.032 0 0 1 9 26Z"
                fill="#000000" class="color000 svgShape"></path>
            <path
                d="M27 35h12v-8H27Zm2-6h8v4h-8ZM28 37h2v2h-2zM32 37h2v2h-2zM36 37h2v2h-2zM28 41h10v2H28zM45 34h2v2h-2zM49 34h2v2h-2zM53 34h2v2h-2zM45 38h2v2h-2zM49 38h2v2h-2zM53 38h2v2h-2zM9 32h4v2H9zM9 35h4v2H9zM9 38h2v2H9z"
                fill="#000000" class="color000 svgShape"></path>
        </svg></g>
</svg>