<svg id="SvgjsSvg1048" width="256" height="256" xmlns="http://www.w3.org/2000/svg" version="1.1"
    xmlns:xlink="http://www.w3.org/1999/xlink" xmlns:svgjs="http://svgjs.com/svgjs">
    <defs id="SvgjsDefs1049"></defs>
    <g id="SvgjsG1050"><svg xmlns="http://www.w3.org/2000/svg" viewBox="0 0 100 100" width="256" height="256">
            <path
                d="M28 13 15.156 25H48V13H28zm24 0v12h32.844L72 13H52zM13 29v58h74V29H13zm33.75 14.969a2 2 0 0 1 .156 0 2 2 0 0 1 1.407 3.531L38.406 56H67a2 2 0 1 1 0 4H38.437l9.876 8.469a2.005 2.005 0 1 1-2.626 3.031l-14-12a2 2 0 0 1 0-3.031l14-12a2 2 0 0 1 1.063-.5z"
                color="#ffffff" overflow="visible" style="marker:none" fill="#ffffff" class="color000 svgShape"></path>
        </svg></g>
</svg>