<svg xmlns="http://www.w3.org/2000/svg" enable-background="new 0 0 3000 3000" viewBox="0 0 3000 3000"><path fill="#363233" d="M56.2,1572.8l1197.5,1197.5c44.4,44.4,121.3,42,159.6-7.4l250.9-330.3c32.1-41.4,28.3-100.3-8.8-137.5       L523.6,1163.4c-37.9-37.9-100.8-42.9-142.1-9.1L62.3,1415.7C14.7,1454.6,12.6,1529.2,56.2,1572.8z" class="color363233 svgShape"/><path fill="#585a5e" d="M98.6,1533.8L1291.8,2727c44.2,44.2,117.2,39.6,155.5-9.7l254.8-328.1c32.1-41.4,28.4-100.2-8.6-137.2       L565.8,1124.3c-37.8-37.8-98-40.7-139.3-6.9L106.2,1380C58.7,1418.9,55.2,1490.3,98.6,1533.8z" class="color585a5e svgShape"/><path fill="#fabc3f" d="M1688.2,2378.4l-222.9,287l-31.9,41.1c-2.2,2.9-4.7,5.7-7.2,8.2c-33.6,33.6-88.2,33.5-121.8-0.1       l-388.9-388.9L681.8,2092l-570.8-570.8c-33.6-33.6-33.7-88.2-0.1-121.8c2-2.1,4.2-4,6.4-5.8l320.3-262.6       c34.4-28.2,84.1-25.8,115.6,5.7l912.2,912.2l215.6,215.6C1711.7,2295.2,1714.8,2344.1,1688.2,2378.4z" class="colorfabc3f svgShape"/><path fill="#585a5e" d="M353.5,1831.6L353.5,1831.6c-6.1,6.1-16,6.1-22.1,0l-89.7-89.7c-6.1-6.1-6.1-16,0-22.1l0,0      c6.1-6.1,16-6.1,22.1,0l89.7,89.7C359.6,1815.7,359.6,1825.6,353.5,1831.6z" class="color585a5e svgShape"/><path fill="#363233" d="M320.8,1282c13.4,13.4,16.2,32.2,6.4,42c-9.8,9.8-28.6,7-42-6.4c-13.4-13.4-16.2-32.2-6.4-42      C288.6,1265.8,307.5,1268.6,320.8,1282z" class="color363233 svgShape"/><path fill="#585a5e" d="M313.1,1289.8c7.5,7.5,9.2,18.1,3.6,23.7c-5.5,5.5-16.1,3.9-23.7-3.6c-7.5-7.5-9.2-18.1-3.6-23.7      C294.9,1280.6,305.5,1282.2,313.1,1289.8z" class="color585a5e svgShape"/><path fill="#eaa22f" d="M1688.2,2378.4l-222.9,287l-210.4-277.1c-32.1-41.4-28.3-100.3,8.9-137.4l201.8-201.8l215.6,215.6       C1711.7,2295.2,1714.8,2344.1,1688.2,2378.4z" class="coloreaa22f svgShape"/><path fill="#363233" d="M2943.8,1554.9L1746.3,2752.4c-44.4,44.4-121.3,42-159.6-7.4l-250.9-330.3       c-32.1-41.4-28.3-100.3,8.8-137.5l1131.8-1131.8c37.9-37.9,100.8-42.9,142.1-9.1l319.2,261.3       C2985.3,1436.7,2987.4,1511.3,2943.8,1554.9z" class="color363233 svgShape"/><path fill="#585a5e" d="M2901.4,1515.9L1708.2,2709.1c-44.2,44.2-117.2,39.6-155.5-9.7l-254.8-328.1       c-32.1-41.4-28.4-100.2,8.6-137.2l1127.7-1127.7c37.8-37.8,98-40.7,139.3-6.9l320.3,262.6       C2941.3,1401,2944.8,1472.4,2901.4,1515.9z" class="color585a5e svgShape"/><path fill="#fabc3f" d="M2888.9,1503.4L2399,1993.2l-110.6,110.7l-236.3,236.3l-81.1,81.1l-275.3,275.3       c-33.6,33.7-88.2,33.7-121.8,0.1c-2.5-2.5-5-5.3-7.2-8.2l-254.8-328.1c-26.6-34.2-23.5-83.2,7.1-113.8l1127.7-1127.8       c31.5-31.5,81.2-33.9,115.6-5.7l320.3,262.6c2.2,1.8,4.4,3.8,6.4,5.8C2922.6,1415.1,2922.5,1469.8,2888.9,1503.4z" class="colorfabc3f svgShape"/><path fill="#585a5e" d="M2646.5,1813.7L2646.5,1813.7c6.1,6.1,16,6.1,22.1,0l89.7-89.7c6.1-6.1,6.1-16,0-22.1l0,0      c-6.1-6.1-16-6.1-22.1,0l-89.7,89.7C2640.4,1797.8,2640.4,1807.6,2646.5,1813.7z" class="color585a5e svgShape"/><path fill="#363233" d="M2679.2,1264.1c-13.4,13.4-16.2,32.2-6.4,42c9.8,9.8,28.6,7,42-6.4c13.4-13.4,16.2-32.2,6.4-42      C2711.4,1247.9,2692.5,1250.7,2679.2,1264.1z" class="color363233 svgShape"/><path fill="#585a5e" d="M2686.9,1271.9c-7.5,7.5-9.2,18.1-3.6,23.7c5.5,5.5,16.1,3.9,23.7-3.6c7.5-7.5,9.2-18.1,3.6-23.7      C2705.1,1262.7,2694.5,1264.3,2686.9,1271.9z" class="color585a5e svgShape"/><path fill="#fdbab3" d="M1662.5,858.2l-35.5-55c-3.9-6-8.3-11.6-13-16.9c-14.4-16.1-46.2-61.2-2.1-108.3c6.7-7.2,18.9-4.1,20.9,5.6   c3.5,17.2,11.5,46.3,24,51.8l10-26.5c1.9-5,7.5-7.3,12.4-5.2v0c3.8,1.7,6,5.7,5.4,9.8l-5,33.4c-1.2,8.2,0.2,16.5,4,23.8l28.1,53.7" class="colorfdbab3 svgShape"/><path fill="#585a5e" d="M2034.7,1226.7L1770.1,1107c-9.5-4.3-18.1-10.6-24.6-18.8c-0.5-0.7-1-1.3-1.6-2c-3.2-4.2-5.9-8.9-8-13.8    l-117-265.8l70.4-38.9L1821,995.5c3.1,5.4,6.7,10.5,11.1,15c0.2,0.3,0.5,0.5,0.8,0.8c11.2,11.4,26,18.7,41.8,21.7l231.7,44.4    l-15.7,26.6l-68.8,85L2034.7,1226.7z" class="color585a5e svgShape"/><path fill="#414143" d="M2584.4,1710.2l13.7-10.1l-25.3-34.2c-0.1-0.2-0.1-0.4,0.1-0.5l70.3-51.9c0.2-0.1,0.4-0.1,0.5,0.1       l25.3,34.2l13.7-10.1l-25.3-34.2c-5.7-7.7-16.6-9.4-24.3-3.7l-70.3,51.9c-7.7,5.7-9.4,16.6-3.7,24.3L2584.4,1710.2z" class="color414143 svgShape"/><path fill="#e2e2e2" d="M2670.7,1659.4l22.7-16.8l-10.8-14.6c-0.9-1.2-2.6-1.5-3.8-0.6l-18.3,13.5c-1.2,0.9-1.5,2.6-0.6,3.8        L2670.7,1659.4z" class="colore2e2e2 svgShape"/><path fill="#c6c7cd" d="M2659.9,1644.8l10.8,14.6l3.4-2.5l-10.8-14.6c-0.9-1.2-0.6-2.9,0.6-3.8l-3.4,2.5        C2659.3,1641.9,2659,1643.6,2659.9,1644.8z" class="colorc6c7cd svgShape"/><g><path fill="#e2e2e2" d="M2586.2,1721.9l22.7-16.8l-10.8-14.6c-0.9-1.2-2.6-1.5-3.8-0.6l-18.3,13.5c-1.2,0.9-1.5,2.6-0.6,3.8        L2586.2,1721.9z" class="colore2e2e2 svgShape"/><path fill="#c6c7cd" d="M2575.4,1707.3l10.8,14.6l3.4-2.5l-10.8-14.6c-0.9-1.2-0.6-2.9,0.6-3.8l-3.4,2.5        C2574.7,1704.3,2574.5,1706.1,2575.4,1707.3z" class="colorc6c7cd svgShape"/></g><g><path fill="#585a5e" d="M2549.4,1850.6l71.1,96.3c3.6,4.9,10.5,5.9,15.4,2.3l260.2-192.3c4.9-3.6,5.9-10.5,2.3-15.4l-71.1-96.3      L2549.4,1850.6z" class="color585a5e svgShape"/><path fill="#585a5e" d="M2492.8,1784.5l57.4,77.7c2.5,3.4,7.2,4.1,10.5,1.6l275.7-203.8c3.4-2.5,4.1-7.2,1.6-10.5l-57.4-77.7       c-1.8-2.5-5.3-3-7.7-1.2l-279,206.2C2491.5,1778.6,2491,1782,2492.8,1784.5z" class="color585a5e svgShape"/><rect width="345.6" height="8.7" x="2528.4" y="1761" fill="#414143" transform="rotate(-36.464 2701.438 1765.479)" class="color414143 svgShape"/></g><g><path fill="#e0e0e0" d="M2788.8,1729.2l18.3-13.5c1.5-1.1,1.9-3.3,0.7-4.9l-20.9-28.3c-1.1-1.5-3.3-1.9-4.9-0.7l-18.3,13.5      c-1.5,1.1-1.9,3.3-0.7,4.9l20.9,28.3C2785.1,1730,2787.2,1730.3,2788.8,1729.2z" class="colore0e0e0 svgShape"/><path fill="#414143" d="M2785.3,1715.8c2,2.8,5.9,3.4,8.7,1.3c2.8-2,3.4-5.9,1.3-8.7c-2-2.8-5.9-3.4-8.7-1.3      S2783.3,1713.1,2785.3,1715.8z" class="color414143 svgShape"/><g><path fill="#e0e0e0" d="M2622.6,1852l18.3-13.5c1.5-1.1,1.9-3.3,0.7-4.9l-20.9-28.3c-1.1-1.5-3.3-1.9-4.9-0.7l-18.3,13.5      c-1.5,1.1-1.9,3.3-0.7,4.9l20.9,28.3C2618.9,1852.8,2621.1,1853.1,2622.6,1852z" class="colore0e0e0 svgShape"/><path fill="#414143" d="M2619.1,1838.6c2,2.8,5.9,3.4,8.7,1.3c2.8-2,3.4-5.9,1.3-8.7c-2-2.8-5.9-3.4-8.7-1.3      S2617.1,1835.9,2619.1,1838.6z" class="color414143 svgShape"/></g></g><g><path fill="#414143" d="M2399,1993.2l-110.6,110.7c-10.1-10-19.2-21.1-27-33.2l-173.6-267.4l-174.3,180.3      c-6.6,4.8,88.6,236.5,138.6,356.5l-81.1,81.1L1770.6,2062c-22.3-39.9-21.9-88.6,1.2-128.2c69.1-118.8,217.3-347.1,217.3-347.1      c217.1-5.6,248.7-58.3,248.7-58.3l2.9,6.4c17.5,38.2,39.8,75.9,47.5,117c8.3,43.6,49,195.4,78.9,282.8      C2374.6,1956,2385.3,1975.8,2399,1993.2z" class="color414143 svgShape"/></g><g><rect width="83.5" height="149.2" x="2099.5" y="982.7" fill="#fdbab3" transform="rotate(-180 2141.257 1057.327)" class="colorfdbab3 svgShape"/><path fill="#fdbab3" d="M2039,959.8c-9.6,62.8,35,101.7,78.6,101.7s79.2-44.6,79.2-101.7c0-57.1-35.3-103.4-78.9-103.4    S2047.5,903.4,2039,959.8z" class="colorfdbab3 svgShape"/><path fill="#414143" d="M2079.8,851c35.2-28.3,65.2-2.7,65.2-2.7c51.7-14.3,60,42.6,60,42.6c59.2-1.6-22,142.4-22,142.4l-5.5-19.2    c-2.8-9.9-2.3-20.5,1.8-29.9c7.9-18.1,9.9-40.3-8.9-43.3c-16.3-2.6-25.1,22-28.4,33.8c-0.9,3.4-4.4,5.4-7.8,4.6l0,0    c-3.2-0.8-5.3-4-4.8-7.3l7.3-47.7c-23.3,7-69.3-1.5-79.3-5.2c0,0-42.7-13.1-35.4-58.2c0,0,5.6,11.4,28.7,12.2    c0,0-19.1-4.4-16.8-31.7C2033.9,841.3,2059.1,867.6,2079.8,851z" class="color414143 svgShape"/></g><g><path fill="#e5e5e5" d="M2029.4,1350.9c0,2.7,0,301.1,0,301.1c92.2,44,176.4,11.3,176.2,12l-4.4-507.2l-18.2-86.7l-65.4,43.6     l-41.1-34.4l-26.4,23.2l-5.4,118.4C2044.7,1220.9,2029.4,1348.2,2029.4,1350.9z" class="colore5e5e5 svgShape"/><path fill="#585a5e" d="M2314.1 1685c2.6 11.3.2 22.8-11 25.7 0 0-213.9 25.5-189.1-235.1l11.9-264.1c0-48.7 15.4-99.5 51.1-132.6l5.9-8.8 44.3 18.6c48.7 23.7 78.5 74.2 75.5 128.3l-.5 101.2C2298.2 1401.5 2308.3 1660.2 2314.1 1685zM2099.5 1073.2l-23 6.1c-35.6 10.4-63.9 38.6-63.9 74.9v62.1c0 37.7-2.5 75.3-7.3 112.6l-56 296.1c-1.7 13.1 4.4 18.3 19.5 27.3l85 35.9c9.6 2.3 17.5-7.8 12.8-16.6l0 0c-17.1-32-24.4-100.9-20.9-137l20.4-210.2c1.8-18.6 2.9-37.3 3.4-56.1L2099.5 1073.2z" class="color585a5e svgShape"/><polygon fill="#c6c7cd" points="2099.5 1073.2 2090.9 1128.8 2140.6 1133.3 2183 1070.1 2117.6 1113.7" class="colorc6c7cd svgShape"/><path fill="#e25651" d="M2117.6,1113.7l10.4,12.6l-3.8,15.7l3.9,31.9c10.8,89,61.9,168.1,138.7,214.4l14,8.4    c42.3,25.5,77.2,61.6,101.2,104.8l29.8,53.5l-22.2,40.7l-45.1-18.5l-36.1-65c-16.3-29.3-38.1-55.1-64.3-76l-27.3-21.8    c-69.1-55.1-109.4-138.6-109.6-227l-0.1-44.1l-1.6-18.1L2117.6,1113.7z" class="colore25651 svgShape"/></g><g><path fill="#fdbab3" d="M2579.7,1509.8l33.9,55.5c3.7,6,7.9,11.7,12.5,17.1c13.9,16.4,37.4,46.9-7.5,92.6c-6.9,7-18.9,3.6-20.6-6.1    c-3.1-17.2-3.3-31.2-15.7-37l-10.6,26.1c-2,4.9-7.7,7.1-12.4,4.8l0,0c-3.7-1.8-5.8-5.8-5.1-9.8l5.8-33.1    c1.4-8.1,0.2-16.4-3.4-23.8l-26.6-54.1" class="colorfdbab3 svgShape"/><path fill="#585a5e" d="M2618.6,1558c0,0-164.5-294.9-172.8-303.2c-93.5-93.2-205.4-158.9-205.4-158.9l-67.2,78.9l7.3,62.8    l187.8,98.4c7.9,3,181.1,275.5,181.1,275.5L2618.6,1558z" class="color585a5e svgShape"/></g><path fill="#414143" d="M2038.3,988.1L2038.3,988.1l87.3-4.7l5.4-22.3l14.1,4.1l-12,63.5c-3.8,20.3-23,33.9-43.4,30.7h0   C2055.9,1054.2,2034.6,1021.9,2038.3,988.1z" class="color414143 svgShape"/><path fill="#fdbab3" d="M1301,853.3l35.5-55c3.9-6,8.3-11.6,13-16.9c14.4-16.1,46.2-61.2,2.1-108.3c-6.7-7.2-18.9-4.1-20.9,5.6   c-3.5,17.2-11.5,46.3-24,51.8l-10-26.5c-1.9-5-7.5-7.3-12.4-5.2v0c-3.8,1.7-6,5.7-5.4,9.8l5,33.4c1.2,8.2-0.2,16.5-4,23.8   l-28.1,53.7" class="colorfdbab3 svgShape"/><g><path fill="#585a5e" d="M928.8,1221.8l264.6-119.7c9.5-4.3,18.1-10.6,24.6-18.8c0.5-0.7,1-1.3,1.6-2c3.2-4.2,5.9-8.9,8-13.8    l117-265.8l-70.4-38.9l-131.6,227.8c-3.1,5.4-6.7,10.5-11.1,15c-0.2,0.3-0.5,0.5-0.8,0.8c-11.2,11.4-26,18.7-41.8,21.7    l-231.7,44.4l15.7,26.6l68.8,85L928.8,1221.8z" class="color585a5e svgShape"/></g><g><path fill="#414143" d="M379,1705.3l-13.7-10.1l25.3-34.2c0.1-0.2,0.1-0.4-0.1-0.5l-70.3-51.9c-0.2-0.1-0.4-0.1-0.5,0.1       l-25.3,34.2l-13.7-10.1l25.3-34.2c5.7-7.7,16.6-9.4,24.3-3.7l70.3,51.9c7.7,5.7,9.4,16.6,3.7,24.3L379,1705.3z" class="color414143 svgShape"/><path fill="#e2e2e2" d="M292.8,1654.5l-22.7-16.8l10.8-14.6c0.9-1.2,2.6-1.5,3.8-0.6l18.3,13.5c1.2,0.9,1.5,2.6,0.6,3.8        L292.8,1654.5z" class="colore2e2e2 svgShape"/><path fill="#c6c7cd" d="M303.5,1640l-10.8,14.6l-3.4-2.5l10.8-14.6c0.9-1.2,0.6-2.9-0.6-3.8l3.4,2.5        C304.2,1637,304.4,1638.7,303.5,1640z" class="colorc6c7cd svgShape"/><g><path fill="#e2e2e2" d="M377.3,1717l-22.7-16.8l10.8-14.6c0.9-1.2,2.6-1.5,3.8-0.6l18.3,13.5c1.2,0.9,1.5,2.6,0.6,3.8        L377.3,1717z" class="colore2e2e2 svgShape"/><path fill="#c6c7cd" d="M388.1,1702.4l-10.8,14.6l-3.4-2.5l10.8-14.6c0.9-1.2,0.6-2.9-0.6-3.8l3.4,2.5        C388.7,1699.5,389,1701.2,388.1,1702.4z" class="colorc6c7cd svgShape"/></g><g><path fill="#585a5e" d="M414.1,1845.8l-71.1,96.3c-3.6,4.9-10.5,5.9-15.4,2.3L67.4,1752.1c-4.9-3.6-5.9-10.5-2.3-15.4l71.1-96.3      L414.1,1845.8z" class="color585a5e svgShape"/><path fill="#585a5e" d="M470.7,1779.6l-57.4,77.7c-2.5,3.4-7.2,4.1-10.5,1.6L127,1655.2c-3.4-2.5-4.1-7.2-1.6-10.5l57.4-77.7       c1.8-2.5,5.3-3,7.7-1.2l279,206.2C472,1773.7,472.5,1777.2,470.7,1779.6z" class="color585a5e svgShape"/><rect width="8.7" height="345.6" x="257.9" y="1587.8" fill="#414143" transform="rotate(-53.536 262.239 1760.57)" class="color414143 svgShape"/></g><g><path fill="#e0e0e0" d="M174.7,1724.4l-18.3-13.5c-1.5-1.1-1.9-3.3-0.7-4.9l20.9-28.3c1.1-1.5,3.3-1.9,4.9-0.7l18.3,13.5      c1.5,1.1,1.9,3.3,0.7,4.9l-20.9,28.3C178.4,1725.2,176.2,1725.5,174.7,1724.4z" class="colore0e0e0 svgShape"/><path fill="#414143" d="M178.2,1711c-2,2.8-5.9,3.4-8.7,1.3c-2.8-2-3.4-5.9-1.3-8.7c2-2.8,5.9-3.4,8.7-1.3      C179.6,1704.3,180.2,1708.2,178.2,1711z" class="color414143 svgShape"/><g><path fill="#e0e0e0" d="M340.9,1847.2l-18.3-13.5c-1.5-1.1-1.9-3.3-0.7-4.9l20.9-28.3c1.1-1.5,3.3-1.9,4.9-0.7l18.3,13.5      c1.5,1.1,1.9,3.3,0.7,4.9l-20.9,28.3C344.6,1848,342.4,1848.3,340.9,1847.2z" class="colore0e0e0 svgShape"/><path fill="#414143" d="M344.3,1833.8c-2,2.8-5.9,3.4-8.7,1.3c-2.8-2-3.4-5.9-1.3-8.7c2-2.8,5.9-3.4,8.7-1.3      C345.8,1827.1,346.4,1831,344.3,1833.8z" class="color414143 svgShape"/></g></g></g><g><path fill="#414143" d="M1192.8,2057.2l-195.4,350.3l-82-82c50.9-122.3,141-342,134.5-346.7l-174.3-180.3L702,2065.9      c-6,9.2-12.8,18-20.2,26.1l-111.5-111.5c11-15.5,19.7-32.5,25.9-50.6c30-87.4,70.7-239.2,78.9-282.8c7.8-41.1,30-78.7,47.5-117      l2.9-6.4c0,0,31.6,52.7,248.8,58.3c0,0,148.2,228.4,217.3,347.1C1214.7,1968.6,1215.1,2017.3,1192.8,2057.2z" class="color414143 svgShape"/></g><g><rect width="83.5" height="149.2" x="780.4" y="977.9" fill="#fdbab3" class="colorfdbab3 svgShape"/><path fill="#fdbab3" d="M924.5,955c9.6,62.8-35,101.7-78.6,101.7c-43.6,0-79.2-44.6-79.2-101.7c0-57.1,35.3-103.4,78.9-103.4    C889.2,851.6,915.9,898.5,924.5,955z" class="colorfdbab3 svgShape"/><path fill="#414143" d="M883.7,846.2c-35.2-28.3-65.2-2.7-65.2-2.7c-51.7-14.3-60,42.6-60,42.6c-59.2-1.6,22,142.4,22,142.4l5.5-19.2    c2.8-9.9,2.3-20.5-1.8-29.9c-7.9-18.1-9.9-40.3,8.9-43.3c16.3-2.6,25.1,22,28.4,33.8c0.9,3.4,4.4,5.4,7.8,4.6l0,0    c3.2-0.8,5.3-4,4.8-7.3l-7.3-47.7c23.3,7,69.3-1.5,79.3-5.2c0,0,42.7-13.1,35.4-58.2c0,0-5.6,11.4-28.7,12.2    c0,0,19.1-4.4,16.8-31.7C929.6,836.5,904.3,862.8,883.7,846.2z" class="color414143 svgShape"/></g><g><path fill="#e5e5e5" d="M934.1,1346.1c0,2.7,0,301.1,0,301.1c-92.2,44-176.4,11.3-176.2,12l4.4-507.2l18.2-86.7l65.4,43.6     l41.1-34.4l26.4,23.2l5.4,118.4C918.8,1216.1,934.1,1343.3,934.1,1346.1z" class="colore5e5e5 svgShape"/><path fill="#585a5e" d="M649.4 1680.1c-2.6 11.3-.2 22.8 11 25.7 0 0 213.9 25.5 189.1-235.1l-11.9-264.1c0-48.7-15.4-99.5-51.1-132.6l-5.9-8.8-44.3 18.6c-48.7 23.7-78.5 74.2-75.5 128.3l.5 101.2C665.3 1396.6 655.1 1655.4 649.4 1680.1zM864 1068.4l23 6.1c35.6 10.4 63.9 38.6 63.9 74.9v62.1c0 37.7 2.5 75.3 7.3 112.6l56 296.1c1.7 13.1-4.4 18.3-19.5 27.3l-85 35.9c-9.6 2.3-17.5-7.8-12.8-16.6l0 0c17.1-32 24.4-100.9 20.9-137l-20.4-210.2c-1.8-18.6-2.9-37.3-3.4-56.1L864 1068.4z" class="color585a5e svgShape"/><polygon fill="#c6c7cd" points="864 1068.4 872.5 1124 822.9 1128.5 780.5 1065.2 845.9 1108.9" class="colorc6c7cd svgShape"/><path fill="#e25651" d="M845.9,1108.9l-10.4,12.6l3.8,15.7l-3.9,31.9c-10.8,89-61.9,168.1-138.7,214.4l-14,8.4    c-42.3,25.5-77.2,61.6-101.2,104.8l-29.8,53.5l22.2,40.7l45.1-18.5l36.1-65c16.3-29.3,38.1-55.1,64.3-76l27.3-21.8    c69.1-55.1,109.4-138.6,109.6-227l0.1-44.1l1.6-18.1L845.9,1108.9z" class="colore25651 svgShape"/></g><g><path fill="#fdbab3" d="M383.8,1505l-33.9,55.5c-3.7,6-7.9,11.7-12.5,17.1c-13.9,16.4-37.4,46.9,7.5,92.6c6.9,7,18.9,3.6,20.6-6.1    c3.1-17.2,3.3-31.2,15.7-37l10.6,26.1c2,4.9,7.7,7.1,12.4,4.8h0c3.7-1.8,5.8-5.8,5.1-9.8l-5.8-33.1c-1.4-8.1-0.2-16.4,3.4-23.8    l26.6-54.1" class="colorfdbab3 svgShape"/><path fill="#585a5e" d="M344.9,1553.2c0,0,164.5-294.9,172.8-303.2c93.5-93.2,205.4-158.9,205.4-158.9l67.2,78.9l-7.3,62.8    l-187.8,98.4c-7.9,3-181.1,275.5-181.1,275.5L344.9,1553.2z" class="color585a5e svgShape"/></g><path fill="#414143" d="M925.2,983.2L925.2,983.2l-87.3-4.7l-5.4-22.3l-14.1,4.1l12,63.5c3.8,20.3,23,33.9,43.4,30.7h0   C907.5,1049.4,928.8,1017.1,925.2,983.2z" class="color414143 svgShape"/><g><rect width="374.4" height="275.5" x="1216.3" y="487.4" fill="#ededed" class="colorededed svgShape"/><rect width="374.4" height="75.8" x="1216.3" y="434.7" fill="#cccccc" class="colorccc svgShape"/><rect width="374.4" height="123.9" x="1216.3" y="372.7" fill="#ededed" class="colorededed svgShape"/><g><rect width="167.6" height="275.5" x="1590.8" y="487.4" fill="#e0e0e0" transform="rotate(-180 1674.58 625.132)" class="colore0e0e0 svgShape"/><rect width="167.6" height="75.8" x="1590.8" y="434.7" fill="#b6b7b7" transform="rotate(-180 1674.58 472.586)" class="colorb6b7b7 svgShape"/><rect width="167.6" height="123.9" x="1590.8" y="372.7" fill="#e0e0e0" transform="rotate(-180 1674.58 434.68)" class="colore0e0e0 svgShape"/></g><rect width="110.9" height="390.1" x="1348.1" y="372.7" fill="#e25651" class="colore25651 svgShape"/><rect width="62.9" height="390.1" x="1643.1" y="372.7" fill="#e25651" class="colore25651 svgShape"/><g><path fill="#e25651" d="M1407.7,371.6l3.4-21.9c1.8-11.7,19.2-114.7,71.4-143.8c17.2-9.6,36.5-10.3,55.9-2.1       c18.3,7.7,33.5,21.3,42.9,38.2c10.7,19.3,11.8,38.8,3.2,56.4c-16.6,33.7-67.3,56.6-154.9,69.9L1407.7,371.6z M1511.9,230.6       c-4.7,0-9.2,1.2-13.6,3.7c-25.8,14.4-42.6,64.3-50.6,98c79.8-15,101.8-36.3,107.7-48.2c1.4-2.9,5.7-11.7-2.4-26.3       c-5.9-10.6-15.5-19.1-27.1-24C1520.9,231.6,1516.3,230.6,1511.9,230.6z" class="colore25651 svgShape"/><path fill="#e25651" d="M1297.7,395.1c-23.8,0-42.3-5-55.7-15c-15.7-11.7-23.6-29.6-22.8-51.7c0.7-19.3,8.1-38.3,20.8-53.5       c13.6-16.1,31.3-24.4,50.8-23.6c59.7,2.2,122.1,86,129,95.6l13,17.9l-21,7C1365.1,387.3,1327.3,395.1,1297.7,395.1z        M1288.3,283.7c-9.1,0-16.6,3.8-23.5,12c-8.1,9.7-12.8,21.6-13.3,33.7c-0.6,16.8,7.3,22.6,9.8,24.6c10.7,8,39.9,16.9,117.8-6.1       c-22.5-26.4-60.2-63.2-89.7-64.2C1289.1,283.7,1288.7,283.7,1288.3,283.7z" class="colore25651 svgShape"/><circle cx="1414.9" cy="357" r="32.1" fill="#e25651" class="colore25651 svgShape"/><path fill="#e25651" d="M1434.6,351.5c0,0,220.7-4.9,270.6-137.1l8.6,49l49.3-14.8c-49.1,115-151.2,168.8-336,127L1434.6,351.5z" class="colore25651 svgShape"/><g><path fill="#e25651" d="M1414.9,382.1c0,0-200.3,92.7-193.3,233.8l-27.5-41.5l-39.3,33.3C1154,482.6,1226,392.5,1412.2,357      L1414.9,382.1z" class="colore25651 svgShape"/></g></g></g></svg>