<svg id="SvgjsSvg1084" width="256" height="256" xmlns="http://www.w3.org/2000/svg" version="1.1"
    xmlns:xlink="http://www.w3.org/1999/xlink" xmlns:svgjs="http://svgjs.com/svgjs">
    <defs id="SvgjsDefs1085"></defs>
    <g id="SvgjsG1086"><svg xmlns="http://www.w3.org/2000/svg" data-name="Layer 1" viewBox="0 0 200 200" width="256"
            height="256">
            <path
                d="M100 159.86h.14c1.72-1.07 3.68-2.34 5.79-3.75a201.16 201.16 0 0 0 17.57-13.18c15.4-13 24.58-25.48 24.58-35.6V62.51c0-5.19.6-3.93-1.13-4.3-.57-.12-1.13-.23-2.46-.47a102.82 102.82 0 0 1-21.76-6.43 158.57 158.57 0 0 1-20.63-10.58c-.68-.43-1.37-.83-2.07-1.21-.37.19-.85.47-2.06 1.21a155.87 155.87 0 0 1-20.66 10.58c-7 3-21.26 6.95-28.61 8.3a4.19 4.19 0 0 1-4.87-3.27 4.15 4.15 0 0 1 3.38-4.75c6.78-1.24 20.42-5 26.87-7.78a148 148 0 0 0 19.58-10c3.45-2.11 4.3-2.53 6.34-2.54s3 .43 6.41 2.54a150.21 150.21 0 0 0 19.51 10 95.18 95.18 0 0 0 20 5.91c1.42.26 2 .38 2.7.52 7.61 1.63 7.62 1.64 7.62 12.29v44.79c0 13.29-10.35 27.35-27.48 41.81-10.84 9.15-26.43 19.62-28.77 19.62s-17.77-10.48-28.58-19.67c-17-14.45-27.4-28.48-27.67-41.68V55.67c0-2.25 1.84-3.19 4.11-3.19A4.1 4.1 0 0 1 52 56.56v50.76c.2 10 9.45 22.53 24.8 35.57a201.49 201.49 0 0 0 17.44 13.2c2.09 1.43 4 2.69 5.74 3.77Zm34.43-83.92 2.24 2.27a3.11 3.11 0 0 1 0 4.39l-41 41.46a3.13 3.13 0 0 1-4.42 0L69.62 102.2a3.14 3.14 0 0 1 0-4.4l2.25-2.27a3.12 3.12 0 0 1 4.42 0l17.14 17.35 36.49-36.94a3.13 3.13 0 0 1 4.42 0Z"
                fill="#000000" class="color000 svgShape"></path>
        </svg></g>
</svg>