<svg id="SvgjsSvg1001" width="256" height="256" xmlns="http://www.w3.org/2000/svg" version="1.1"
    xmlns:xlink="http://www.w3.org/1999/xlink" xmlns:svgjs="http://svgjs.com/svgjs">
    <defs id="SvgjsDefs1002"></defs>
    <g id="SvgjsG1008"><svg xmlns="http://www.w3.org/2000/svg" viewBox="0 0 64 64" width="256" height="256">
            <g data-name="saving money">
                <path fill="#706bbd"
                    d="M56.35,16.06l-24-9a1.05,1.05,0,0,0-.7,0L27.77,8.51,7.65,16.06A1,1,0,0,0,7,17v6a1,1,0,0,0,1,1H56a1,1,0,0,0,1-1V17A1,1,0,0,0,56.35,16.06ZM55,22H9V17.69l20.33-7.62,2.67-1,23,8.62Z"
                    class="color706bbd svgShape"></path>
                <path fill="#706bbd"
                    d="M54 22H10a1 1 0 0 0-1 1v4a1 1 0 0 0 1 1H54a1 1 0 0 0 1-1V23A1 1 0 0 0 54 22zm-1 4H11V24H53zM34 55H8a1 1 0 0 1-1-1V49a1 1 0 0 1 1-1H34a1 1 0 0 1 1 1v5A1 1 0 0 1 34 55zM9 53H33V50H9z"
                    class="color706bbd svgShape"></path>
                <path fill="#706bbd"
                    d="M34 50H10a1 1 0 0 1-1-1V45a1 1 0 0 1 1-1H34a1 1 0 0 1 1 1v4A1 1 0 0 1 34 50zM11 48H33V46H11zM22 26H12a1 1 0 0 0-1 1v2a3 3 0 0 0 2 2.82A2.77 2.77 0 0 0 14 32h6a2.77 2.77 0 0 0 1-.18A3 3 0 0 0 23 29V27A1 1 0 0 0 22 26zm-1 3a1 1 0 0 1-1 1H14a1 1 0 0 1-1-1V28h8z"
                    class="color706bbd svgShape"></path>
                <path fill="#706bbd"
                    d="M22,46H12a1,1,0,0,1-1-1V43a3,3,0,0,1,3-3h6a3,3,0,0,1,3,3v2A1,1,0,0,1,22,46Zm-9-2h8V43a1,1,0,0,0-1-1H14a1,1,0,0,0-1,1Z"
                    class="color706bbd svgShape"></path>
                <path fill="#706bbd"
                    d="M19 38.26V40h1a2.89 2.89 0 0 1 .88.14zM20 30H14a1 1 0 0 0-1 1V41a1 1 0 0 0 1 1h6a1 1 0 0 0 1-1V31A1 1 0 0 0 20 30zM15 40V32h4v8zM52 26H42a1 1 0 0 0-1 1v2a3 3 0 0 0 2 2.82A2.77 2.77 0 0 0 44 32h6a2.77 2.77 0 0 0 1-.18l.06 0A3 3 0 0 0 53 29V27A1 1 0 0 0 52 26zm-1 3a1 1 0 0 1-1 1H44a1 1 0 0 1-1-1V28h8z"
                    class="color706bbd svgShape"></path>
                <path fill="#706bbd"
                    d="M50 30H44a1 1 0 0 0-1 1V42a1 1 0 0 0 1 1h6a1 1 0 0 0 1-1V31A1 1 0 0 0 50 30zM45 41V32h4v9zM32 11a5 5 0 1 0 5 5A5 5 0 0 0 32 11zm0 8a3 3 0 1 1 3-3A3 3 0 0 1 32 19z"
                    class="color706bbd svgShape"></path>
                <circle cx="32" cy="16" r="3" fill="#706bbd" opacity=".5" class="color706bbd svgShape"></circle>
                <path fill="#78c57a"
                    d="M43,42V41H36a3,3,0,0,0-3,3v4h1a1,1,0,0,1,1,1V44a1,1,0,0,1,1-1h8A1,1,0,0,1,43,42Zm11-1H36a3,3,0,0,0-3,3V54a2.77,2.77,0,0,0,.18,1A3,3,0,0,0,36,57H54a3,3,0,0,0,3-3V44A3,3,0,0,0,54,41Zm1,13a1,1,0,0,1-1,1H36a.87.87,0,0,1-.32-.06,1,1,0,0,1-.62-.62A.87.87,0,0,1,35,54V44a1,1,0,0,1,1-1H54a1,1,0,0,1,1,1Z"
                    class="color78c57a svgShape"></path>
                <path fill="#78c57a" d="M45,53a4,4,0,1,1,4-4A4,4,0,0,1,45,53Zm0-6a2,2,0,1,0,2,2A2,2,0,0,0,45,47Z"
                    class="color78c57a svgShape"></path>
                <circle cx="52" cy="49" r="1" fill="#78c57a" class="color78c57a svgShape"></circle>
                <circle cx="38" cy="49" r="1" fill="#78c57a" class="color78c57a svgShape"></circle>
                <path fill="#78c57a" d="M32,41a1,1,0,0,1-1-1V31a1,1,0,0,1,2,0v9A1,1,0,0,1,32,41Z"
                    class="color78c57a svgShape"></path>
                <path fill="#78c57a"
                    d="M35,35a1,1,0,0,1-.71-.29L32,32.41l-2.29,2.3a1,1,0,0,1-1.42-1.42l3-3a1,1,0,0,1,1.42,0l3,3a1,1,0,0,1,0,1.42A1,1,0,0,1,35,35Z"
                    class="color78c57a svgShape"></path>
                <path fill="#78c57a"
                    d="M13 31.82v.44l-9-9A13.62 13.62 0 1 1 23.25 4l4.52 4.52L7.65 16.06A1 1 0 0 0 7 17v6a1 1 0 0 0 1 1H9v3a1 1 0 0 0 1 1h1v1A3 3 0 0 0 13 31.82zM60 60a13.62 13.62 0 0 1-19.26 0l-3-3H54a3 3 0 0 0 3-3V44a3 3 0 0 0-3-3H51V31.82l.06 0 8.95 9A13.62 13.62 0 0 1 60 60z"
                    opacity=".3" class="color78c57a svgShape"></path>
            </g>
        </svg></g>
</svg>