<svg id="SvgjsSvg1240" width="256" height="256" xmlns="http://www.w3.org/2000/svg" version="1.1"
	xmlns:xlink="http://www.w3.org/1999/xlink" xmlns:svgjs="http://svgjs.com/svgjs">
	<defs id="SvgjsDefs1241"></defs>
	<g id="SvgjsG1242"><svg xmlns="http://www.w3.org/2000/svg" data-name="Layer 1" viewBox="0 0 512 512" width="256"
			height="256">
			<path fill="#fff"
				d="M256,156.908a39.116,39.116,0,1,0,39.115,39.116A39.129,39.129,0,0,0,256,156.908Zm0-78.23a60.482,60.482,0,0,1,47.3,22.9l65.922,83.289a31.546,31.546,0,0,1,6.728,19.453V454.183a31.316,31.316,0,0,1-31.292,31.292H167.339a31.316,31.316,0,0,1-31.292-31.292V204.316a31.546,31.546,0,0,1,6.728-19.453L208.7,101.574A60.3,60.3,0,0,1,256,78.678Z"
				data-name="&amp;lt;Group&amp;gt;" class="color77f7aa svgShape"></path>
			<g data-name="&amp;lt;Group&amp;gt;">
				<path fill="#fabb04"
					d="M167.339,495H344.661A40.975,40.975,0,0,0,386,454.183V204.316a41.814,41.814,0,0,0-8.91-25.659L311.184,95.4A70.553,70.553,0,0,0,266,69.4V26.525a10,10,0,1,0-20,0V69.38a69.829,69.829,0,0,0-45.144,25.988L134.877,178.7A41.781,41.781,0,0,0,126,204.316V454.183A40.975,40.975,0,0,0,167.339,495ZM256,166.909a29.115,29.115,0,1,1-29.115,29.114A29.148,29.148,0,0,1,256,166.909ZM146,204.316a21.646,21.646,0,0,1,4.592-13.247l65.938-83.294A49.99,49.99,0,0,1,246,89.686v58.249a49.115,49.115,0,1,0,20,0V89.7a49.473,49.473,0,0,1,11.93,4.025,50.047,50.047,0,0,1,17.532,14.051l65.913,83.247A21.684,21.684,0,0,1,366,204.316V454.183c0,11.74-9.6,20.817-21.339,20.817H167.339C155.6,475,146,465.923,146,454.183Z"
					data-name="&amp;lt;Compound Path&amp;gt;" class="color24b361 svgShape"></path>
				<path fill="#fabb04"
					d="M254.839,361.488A18.4,18.4,0,0,1,241.71,367H222.674a9.913,9.913,0,0,0-6.869,17.147l47.668,45.04a10.006,10.006,0,0,0,13.738-14.552l-29.833-28.2a38.213,38.213,0,0,0,21.641-11.024A36.014,36.014,0,0,0,279.039,358h10.287a10,10,0,0,0,0-20H279.021a25,25,0,0,0-3.483-8h13.788a10,10,0,0,0,0-20H222.674a10,10,0,1,0,0,20H241.71a18.5,18.5,0,0,1,15.694,8h-34.73a10,10,0,1,0,0,20h34.754a25.567,25.567,0,0,1-2.518,3.273C254.887,361.3,254.862,361.464,254.839,361.488Z"
					data-name="&amp;lt;Path&amp;gt;" class="color24b361 svgShape"></path>
			</g>
		</svg></g>
</svg>