<svg id="SvgjsSvg1378" width="256" height="256" xmlns="http://www.w3.org/2000/svg" version="1.1"
    xmlns:xlink="http://www.w3.org/1999/xlink" xmlns:svgjs="http://svgjs.com/svgjs">
    <defs id="SvgjsDefs1379"></defs>
    <g id="SvgjsG1380"><svg xmlns="http://www.w3.org/2000/svg" enable-background="new 0 0 492 492" viewBox="0 0 492 492"
            width="256" height="256">
            <path fill="#000000" fill-rule="evenodd" d="M118.879,379.7c-1.428,0-2.856-0.545-3.945-1.634
						c-14.809-14.808-26.436-32.052-34.559-51.256c-8.41-19.884-12.675-41.004-12.675-62.772s4.264-42.888,12.675-62.772
						c8.122-19.204,19.749-36.449,34.557-51.257c14.808-14.808,32.054-26.435,51.257-34.558
						c19.885-8.411,41.005-12.675,62.772-12.675c3.082,0,5.58,2.498,5.58,5.58v155.682c0,1.48-0.588,2.899-1.634,3.946
						L122.825,378.066C121.736,379.155,120.308,379.7,118.879,379.7L118.879,379.7z M223.382,114.038
						c-80.19,2.947-144.522,69.102-144.522,150c0,38.23,14.194,74.275,40.091,102.12l104.431-104.431V114.038z"
                clip-rule="evenodd" class="color000000 svgShape"></path>
            <path fill="#000000" fill-rule="evenodd"
                d="M228.962 425.3c-21.768 0-42.888-4.264-62.772-12.675-19.204-8.123-36.449-19.75-51.256-34.559-2.179-2.179-2.179-5.712 0-7.891l110.083-110.082c1.046-1.046 2.466-1.634 3.945-1.634h155.682c3.082 0 5.58 2.498 5.58 5.58 0 21.768-4.264 42.887-12.675 62.772-8.123 19.204-19.749 36.449-34.557 51.257-14.808 14.808-32.054 26.435-51.257 34.557C271.849 421.035 250.73 425.3 228.962 425.3L228.962 425.3zM126.842 374.049c27.845 25.897 63.89 40.091 102.12 40.091 80.897 0 147.053-64.332 149.999-144.522H231.274L126.842 374.049zM419.24 235.022H263.558c-3.082 0-5.58-2.498-5.58-5.58V73.76c0-3.082 2.498-5.58 5.58-5.58 21.768 0 42.887 4.264 62.772 12.675 19.204 8.122 36.449 19.749 51.257 34.557 14.808 14.808 26.435 32.054 34.557 51.257 8.411 19.885 12.676 41.005 12.676 62.772C424.82 232.524 422.322 235.022 419.24 235.022L419.24 235.022zM269.138 223.862h144.419c-2.879-78.337-66.082-141.541-144.419-144.419V223.862z"
                clip-rule="evenodd" class="color000000 svgShape"></path>
            <path fill="#000000" fill-rule="evenodd"
                d="M263.558 119.731c-1.428 0-2.856-.545-3.946-1.635-2.179-2.179-2.179-5.712 0-7.891l36.167-36.167c2.179-2.179 5.712-2.179 7.891 0 2.179 2.179 2.179 5.712 0 7.891l-36.167 36.167C266.414 119.186 264.986 119.731 263.558 119.731zM263.558 165.845c-1.428 0-2.856-.545-3.946-1.635-2.179-2.179-2.179-5.712 0-7.891l69.944-69.944c2.179-2.179 5.712-2.179 7.891 0 2.179 2.179 2.179 5.712 0 7.891l-69.944 69.944C266.414 165.3 264.986 165.845 263.558 165.845zM263.558 211.972c-1.428 0-2.856-.545-3.946-1.634-2.179-2.179-2.179-5.712 0-7.891l97.957-97.957c2.179-2.179 5.712-2.179 7.891 0 2.179 2.179 2.179 5.712 0 7.891l-97.957 97.957C266.414 211.428 264.986 211.972 263.558 211.972zM286.637 235.022c-1.428 0-2.856-.545-3.946-1.634-2.179-2.179-2.179-5.712 0-7.891l97.94-97.94c2.179-2.179 5.712-2.179 7.891 0 2.179 2.179 2.179 5.712 0 7.891l-97.94 97.94C289.492 234.477 288.065 235.022 286.637 235.022zM332.764 235.022c-1.428 0-2.856-.545-3.946-1.634-2.179-2.179-2.179-5.712 0-7.891l69.925-69.925c2.179-2.179 5.712-2.179 7.891 0 2.179 2.179 2.179 5.712 0 7.891l-69.925 69.925C335.62 234.477 334.193 235.022 332.764 235.022zM378.892 235.022c-1.428 0-2.856-.545-3.946-1.634-2.179-2.179-2.179-5.712 0-7.891l36.134-36.133c2.179-2.179 5.712-2.179 7.891 0 2.179 2.179 2.179 5.712 0 7.891l-36.134 36.133C381.749 234.477 380.321 235.022 378.892 235.022z"
                clip-rule="evenodd" class="color000000 svgShape"></path>
        </svg></g>
</svg>