<svg id="SvgjsSvg1043" width="256" height="256" xmlns="http://www.w3.org/2000/svg" version="1.1"
    xmlns:xlink="http://www.w3.org/1999/xlink" xmlns:svgjs="http://svgjs.com/svgjs">
    <defs id="SvgjsDefs1044"></defs>
    <g id="SvgjsG1045"><svg xmlns="http://www.w3.org/2000/svg" viewBox="0 0 30 30" width="256" height="256">
            <path fill="#ffffff"
                d="m29.854 11.146-6-6A.5.5 0 0 0 23.5 5h-7a.5.5 0 0 0-.5.5V19h-1.278c.172-.295.278-.634.278-1V9c0-1.103-.897-2-2-2H3c-1.103 0-2 .897-2 2v9c0 .366.106.705.278 1H1c-.552 0-1 .449-1 1v2c0 .551.448 1 1 1h2.351A3.495 3.495 0 0 0 6.5 25a3.495 3.495 0 0 0 3.15-2.002l.006.002h10.688l.006-.002A3.495 3.495 0 0 0 23.5 25c1.39 0 2.585-.822 3.149-2H28c1.103 0 2-.897 2-2v-9.5a.5.5 0 0 0-.146-.354zM6.5 24C5.121 24 4 22.878 4 21.5S5.121 19 6.5 19 9 20.122 9 21.5 7.879 24 6.5 24zm4-10.5a.5.5 0 0 1-.724.447L8 13.06l-1.776.888A.501.501 0 0 1 5.5 13.5V8h5v5.5zm13 10.5c-1.379 0-2.5-1.122-2.5-2.5s1.121-2.5 2.5-2.5 2.5 1.122 2.5 2.5-1.121 2.5-2.5 2.5zm3-10h-6a.5.5 0 0 1-.5-.5v-5a.5.5 0 1 1 1 0V13h5.5a.5.5 0 1 1 0 1z"
                class="color303C42 svgShape"></path>
        </svg></g>
</svg>