<?xml version="1.0" encoding="utf-8"?>
<!-- Generator: Adobe Illustrator 25.4.1, SVG Export Plug-In . SVG Version: 6.00 Build 0)  -->
<svg version="1.1" id="SvgjsSvg1001" xmlns:svgjs="http://svgjs.com/svgjs"
	 xmlns="http://www.w3.org/2000/svg" xmlns:xlink="http://www.w3.org/1999/xlink" x="0px" y="0px" viewBox="0 0 256 256"
	 style="enable-background:new 0 0 256 256;" xml:space="preserve">
<style type="text/css">
	.st0{fill:#FFFFFF;}
</style>
<g id="SvgjsG1008">
	<path class="st0" d="M135.8,95.4c-0.3-0.3-0.7-0.4-1-0.6c-0.4-0.3-0.8-0.6-1.3-0.8c-0.4-0.2-0.9-0.2-1.3-0.3
		c-0.5-0.1-1-0.2-1.5-0.2c-0.5,0-0.9,0.1-1.3,0.2c-0.5,0.1-1,0.1-1.5,0.3c-0.4,0.2-0.8,0.5-1.2,0.7c-0.4,0.2-0.8,0.4-1.1,0.6
		l-114,100.6c-3.1,2.7-3.2,7.3-0.3,10.2c1.4,1.4,3.4,2.3,5.5,2.3c1.9,0,3.7-0.6,5.2-1.9l108.8-96l108.8,96c3.1,2.7,7.9,2.5,10.7-0.4
		c2.9-2.9,2.7-7.4-0.4-10.2L135.8,95.4L135.8,95.4z"/>
	<path class="st0" d="M135.8,44.2c-0.3-0.3-0.7-0.4-1.1-0.6c-0.4-0.3-0.8-0.6-1.3-0.7c-0.5-0.2-0.9-0.2-1.4-0.3
		c-0.5-0.1-0.9-0.2-1.4-0.2s-1,0.1-1.4,0.2c-0.5,0.1-0.9,0.1-1.4,0.3c-0.5,0.2-0.9,0.5-1.3,0.7c-0.3,0.2-0.7,0.3-1.1,0.6l-114,100.6
		c-4.2,0-7.6,3.2-7.6,7.2c0,4,3.4,7.2,7.6,7.1c1.9,0,3.7-0.7,5.1-1.9c1.9,0,3.7-0.6,5.2-1.9l108.8-96l108.8,96
		c3.1,2.7,7.9,2.5,10.7-0.4c2.9-2.9,2.7-7.4-0.4-10.2L135.8,44.2L135.8,44.2z"/>
</g>
</svg>
