<?xml version="1.0" encoding="utf-8"?>
<!-- Generator: Adobe Illustrator 25.4.1, SVG Export Plug-In . SVG Version: 6.00 Build 0)  -->
<svg version="1.1" id="SvgjsSvg1075" xmlns:svgjs="http://svgjs.com/svgjs"
	 xmlns="http://www.w3.org/2000/svg" xmlns:xlink="http://www.w3.org/1999/xlink" x="0px" y="0px" viewBox="0 0 256 256"
	 style="enable-background:new 0 0 256 256;" xml:space="preserve">
<style type="text/css">
	.st0{fill:#FFFFFF;stroke:#000000;stroke-miterlimit:10;}
	.st1{fill:#FABB04;}
</style>
<rect x="52" y="62.9" class="st0" width="154" height="141"/>
<g id="SvgjsG1077">
	<path class="st1" d="M248.3,131.6c4.6-6.3,6.4-14.3,5-22c-1.3-7.8-5.7-14.6-12.2-19.1l-17-11.5c-1.4-1-2.3-2.6-2.4-4.3l-1.5-20.4
		c-0.6-7.8-4.3-15.1-10.4-20.1c-6-5.1-13.8-7.5-21.6-6.7l-20.2,2.1c-1.8,0.2-3.6-0.4-4.8-1.7l-14.3-14.7
		C137.5,1.6,119,1.5,107.5,12.8c-0.1,0.1-0.2,0.2-0.3,0.3L92.9,27.8c-1.2,1.3-3,2-4.8,1.7l-20.2-2.1c-16.1-1.5-30.4,10.3-32,26.4
		c0,0.2,0,0.3,0,0.5l-1.5,20.4c-0.1,1.8-1.1,3.4-2.6,4.4L14.9,90.6c-13.3,9.1-16.6,27.2-7.6,40.5c0.1,0.2,0.2,0.3,0.4,0.5l12,16.6
		c1,1.5,1.3,3.3,0.8,5l-5.6,19.7c-2.1,7.6-1,15.7,2.9,22.5c3.9,6.8,10.4,11.7,18,13.6l19.8,5c1.7,0.4,3.1,1.6,3.8,3.3l8.4,18.6
		c6.6,14.7,23.8,21.2,38.4,14.7c0.3-0.1,0.5-0.2,0.8-0.4l18.4-8.8c1.6-0.8,3.5-0.8,5.1,0l18.4,8.8c3.9,1.9,8.2,2.9,12.6,2.9
		c3.4,0,6.8-0.6,10-1.7c7.4-2.7,13.4-8.3,16.6-15.5l8.4-18.6c0.7-1.6,2.1-2.8,3.8-3.3l19.8-5c15.5-3.9,25-19.7,21.1-35.2
		c-0.1-0.3-0.1-0.6-0.2-0.8l-5.5-19.7c-0.5-1.7-0.2-3.5,0.8-5L248.3,131.6z M181.2,110l-54,54c-10.1,9.9-26.2,9.9-36.3,0l-16.1-16.1
		c-4.9-4.9-5-12.8-0.1-17.8c0,0,0.1-0.1,0.1-0.1c5-4.9,12.9-4.9,17.9,0l16.1,16.1l54.6-54c4.9-4.9,12.9-4.9,17.9,0.1
		C186.2,97.1,186.1,105,181.2,110L181.2,110z"/>
</g>
</svg>
