<?xml version="1.0" encoding="utf-8"?>
<!-- Generator: Adobe Illustrator 25.4.1, SVG Export Plug-In . SVG Version: 6.00 Build 0)  -->
<svg version="1.1" id="SvgjsSvg1230" xmlns:svgjs="http://svgjs.com/svgjs"
	 xmlns="http://www.w3.org/2000/svg" xmlns:xlink="http://www.w3.org/1999/xlink" x="0px" y="0px" viewBox="0 0 256 256"
	 style="enable-background:new 0 0 256 256;" xml:space="preserve">
<style type="text/css">
	.st0{fill:#F9BF30;}
	.st1{fill:#FFFFFF;}
	.st2{fill:#F7DDA4;}
	.st3{fill:#FABB04;}
	.st4{font-family:'MyriadPro-Regular';}
	.st5{font-size:44.1651px;}
</style>
<g id="SvgjsG1232">
	<path class="st0" d="M36,104V48c8.8,0,16-7.2,16-16h152c0,8.8,7.2,16,16,16v56c-8.8,0-16,7.2-16,16H52C52,111.2,44.8,104,36,104z"
		/>
	<path class="st1" d="M31.8,135.4c1.4,0.4,2.8,0.6,4.2,0.6h64c8.8,0,16,7.2,16,16v40H92l36,40l36-40h-24v-40c0-8.8,7.2-16,16-16h64
		c8.8,0,16-7.2,16-16V32c0-7.2-4.8-13.5-11.8-15.4c-1.4-0.4-2.8-0.6-4.2-0.6H36c-8.8,0-16,7.2-16,16v88
		C20,127.2,24.8,133.5,31.8,135.4z M36,48c8.8,0,16-7.2,16-16h152c0,8.8,7.2,16,16,16v56c-8.8,0-16,7.2-16,16H52c0-8.8-7.2-16-16-16
		V48z"/>
	<ellipse class="st2" cx="128" cy="76" rx="24" ry="28"/>
	<path class="st1" d="M128,112c-11.6-0.4-21.7-7.9-25.5-18.9c-0.6-2.1,0.6-4.3,2.7-5c1.9-0.6,3.9,0.3,4.8,2.1
		c2.6,7.9,9.8,13.4,18.1,13.8c11,0,20-10.8,20-24s-9-24-20-24c-9.8,0-18.3,8.8-19.8,20.5c-0.3,2.2-2.3,3.8-4.5,3.5
		c-2.2-0.3-3.8-2.3-3.5-4.5C102.2,60,114.1,48,128,48c15.4,0,28,14.4,28,32S143.4,112,128,112z"/>
	<path class="st3" d="M204,128H52c-2.2,0-4-1.8-4-4c0-6.6-5.4-12-12-12c-2.2,0-4-1.8-4-4V52c0-2.2,1.8-4,4-4c6.6,0,12-5.4,12-12
		c0-2.2,1.8-4,4-4h152c2.2,0,4,1.8,4,4c0,6.6,5.4,12,12,12c2.2,0,4,1.8,4,4v20c0,2.2-1.8,4-4,4s-4-1.8-4-4V55.6
		c-7.9-1.6-14-7.7-15.6-15.6H55.6C54,47.9,47.9,54,40,55.6v48.8c7.9,1.6,14,7.7,15.6,15.6h144.8c1.6-7.9,7.7-14,15.6-15.6V88
		c0-2.2,1.8-4,4-4s4,1.8,4,4v20c0,2.2-1.8,4-4,4c-6.6,0-12,5.4-12,12C208,126.2,206.2,128,204,128z"/>
	<path class="st3" d="M128,240c-1.1,0-2.2-0.5-3-1.3l-36-40c-1.5-1.6-1.4-4.2,0.3-5.6c0.7-0.7,1.7-1,2.7-1h20v-4c0-2.2,1.8-4,4-4
		s4,1.8,4,4v8c0,2.2-1.8,4-4,4h-15l27,30l27-30h-15c-2.2,0-4-1.8-4-4v-40c0-11,9-20,20-20h64c6.6,0,12-5.4,12-12V36
		c0-5.4-3.6-10.1-8.8-11.5c-1-0.3-2.1-0.5-3.2-0.5H76c-2.2,0-4-1.8-4-4s1.8-4,4-4h144c1.8,0,3.6,0.2,5.4,0.8C234,19.2,240,27,240,36
		v88c0,11-9,20-20,20h-64c-6.6,0-12,5.4-12,12v36h20c2.2,0,4,1.8,4,4c0,1-0.4,1.9-1,2.7l-36,40C130.2,239.5,129.1,240,128,240z
		 M116,176c-2.2,0-4-1.8-4-4v-16c0-6.6-5.4-12-12-12H36c-1.8,0-3.6-0.2-5.4-0.8C22,140.8,16,133,16,124V36c0-11,9-20,20-20h24
		c2.2,0,4,1.8,4,4s-1.8,4-4,4H36c-6.6,0-12,5.4-12,12v88c0,5.4,3.6,10.1,8.8,11.5c1,0.3,2.1,0.5,3.2,0.5h64c11,0,20,9,20,20v16
		C120,174.2,118.2,176,116,176z M204,128H52c-2.2,0-4-1.8-4-4c0-6.6-5.4-12-12-12c-2.2,0-4-1.8-4-4V52c0-2.2,1.8-4,4-4
		c6.6,0,12-5.4,12-12c0-2.2,1.8-4,4-4h152c2.2,0,4,1.8,4,4c0,6.6,5.4,12,12,12c2.2,0,4,1.8,4,4v20c0,2.2-1.8,4-4,4s-4-1.8-4-4V55.6
		c-7.9-1.6-14-7.7-15.6-15.6H55.6C54,47.9,47.9,54,40,55.6v48.8c7.9,1.6,14,7.7,15.6,15.6h144.8c1.6-7.9,7.7-14,15.6-15.6V88
		c0-2.2,1.8-4,4-4s4,1.8,4,4v20c0,2.2-1.8,4-4,4c-6.6,0-12,5.4-12,12C208,126.2,206.2,128,204,128z"/>
</g>
<text transform="matrix(1.2901 0 0 1 113.6475 96)" class="st1 st4 st5">₹</text>
</svg>
