<svg id="SvgjsSvg1001" width="256" height="256" xmlns="http://www.w3.org/2000/svg" version="1.1" xmlns:xlink="http://www.w3.org/1999/xlink" xmlns:svgjs="http://svgjs.com/svgjs"><defs id="SvgjsDefs1002"></defs><g id="SvgjsG1008"><svg xmlns="http://www.w3.org/2000/svg" fill-rule="evenodd" stroke-linejoin="round" stroke-miterlimit="2" clip-rule="evenodd" viewBox="0 0 24 24" width="256" height="256"><circle cx="11.5" cy="6.75" r="5.5" fill="#000000" class="color000 svgShape"></circle><path d="M12.931 21.762A6.222 6.222 0 0 1 11.25 17.5c0-1.681.665-3.207 1.745-4.331a19.757 19.757 0 0 0-1.495-.057c-3.322 0-6.263.831-8.089 2.076-1.393.95-2.161 2.157-2.161 3.424v1.451a1.7 1.7 0 0 0 1.7 1.7l9.981-.001Z" fill="#000000" class="color000 svgShape"></path><path d="M17.5 12.25a5.252 5.252 0 0 0-5.25 5.25 5.252 5.252 0 0 0 5.25 5.25 5.252 5.252 0 0 0 5.25-5.25 5.252 5.252 0 0 0-5.25-5.25Zm.75 4.5v-1a.75.75 0 0 0-1.5 0v1h-1a.75.75 0 0 0 0 1.5h1v1a.75.75 0 0 0 1.5 0v-1h1a.75.75 0 0 0 0-1.5h-1Z" fill="#000000" class="color000 svgShape"></path></svg></g></svg>