<svg width="238" height="56" viewBox="0 0 238 56" fill="none" xmlns="http://www.w3.org/2000/svg">
<path d="M77.2373 17.5502H69.7374L68.5382 21.0947H63.4102L70.6981 1H76.3694L83.657 21.0947H78.4762L77.2373 17.5502ZM75.9785 13.7671L73.4873 6.413L71.0293 13.7671H75.9785Z" fill="#F4F3F2"/>
<path d="M104.095 21.0947H99.205L91.016 8.6987V21.0947H86.12V1H91.016L99.205 13.4557V1H104.095V21.0947Z" fill="#F4F3F2"/>
<path d="M127.285 21.0947H122.383L114.2 8.6987V21.0947H109.304V1H114.2L122.383 13.4557V1H127.285V21.0947Z" fill="#F4F3F2"/>
<path d="M143.628 17.5502H136.129L134.929 21.0947H129.801L137.089 1H142.754L150.042 21.0947H144.861L143.628 17.5502ZM142.37 13.7671L139.878 6.413L137.42 13.7671H142.37Z" fill="#F4F3F2"/>
<path d="M69.6457 35.3525V55.4473H64.7495V35.3525H69.6457Z" fill="#F4F3F2"/>
<path d="M92.836 55.4462H87.94L79.7308 43.0766V55.4726H74.8413V35.3779H79.7308L87.92 47.8336V35.3779H92.836V55.4462Z" fill="#F4F3F2"/>
<path d="M97.761 40.0622C98.594 38.5347 99.841 37.2738 101.359 36.4249C102.953 35.533 104.753 35.076 106.58 35.0998C108.774 35.0407 110.927 35.7041 112.708 36.9881C114.412 38.254 115.618 40.0784 116.114 42.1426H110.721C110.359 41.3455 109.766 40.6759 109.018 40.2212C108.259 39.7751 107.393 39.546 106.513 39.5586C105.825 39.5343 105.139 39.6625 104.506 39.934C103.873 40.2054 103.307 40.6135 102.85 41.1289C101.938 42.3435 101.446 43.8209 101.446 45.3393C101.446 46.8577 101.938 48.3351 102.85 49.5498C103.307 50.0652 103.873 50.4733 104.506 50.7447C105.139 51.0161 105.825 51.1443 106.513 51.12C107.393 51.1326 108.259 50.9035 109.018 50.4574C109.766 50.0027 110.359 49.3331 110.721 48.5361H116.1C115.606 50.5972 114.4 52.4179 112.695 53.6773C110.911 54.9544 108.759 55.6128 106.566 55.5523C104.74 55.5789 102.939 55.1217 101.346 54.2272C99.832 53.3814 98.586 52.1282 97.748 50.6098C96.905 48.9703 96.465 47.1532 96.465 45.3095C96.465 43.4658 96.905 41.6487 97.748 40.0092L97.761 40.0622Z" fill="#F4F3F2"/>
<path d="M124.22 35.3525V47.3776C124.153 48.382 124.471 49.3741 125.107 50.1537C125.445 50.495 125.853 50.7588 126.302 50.9269C126.752 51.0951 127.233 51.1636 127.711 51.1276C128.197 51.1625 128.684 51.0936 129.141 50.9257C129.598 50.7578 130.014 50.4947 130.361 50.1537C131.018 49.3838 131.349 48.3876 131.282 47.3776V35.3525H136.178V47.3511C136.228 48.9454 135.831 50.5218 135.032 51.9027C134.3 53.1167 133.229 54.0907 131.951 54.7053C130.608 55.3487 129.134 55.6729 127.645 55.6527C126.174 55.6777 124.717 55.3578 123.391 54.7185C122.147 54.1004 121.116 53.1245 120.43 51.916C119.671 50.5171 119.296 48.942 119.343 47.3511V35.3525H124.22Z" fill="#F4F3F2"/>
<path d="M156.224 46.8733C157.017 47.9273 157.389 49.2392 157.266 50.5526C157.144 51.8661 156.536 53.0865 155.561 53.9756C154.382 54.9562 152.746 55.4465 150.652 55.4465H141.257V35.3517H150.301C152.014 35.2528 153.709 35.749 155.098 36.7563C156.041 37.5858 156.644 38.7345 156.792 39.9818C156.94 41.2291 156.622 42.4871 155.899 43.5142C155.266 44.305 154.399 44.8753 153.421 45.1441C154.536 45.3582 155.533 45.9734 156.224 46.8733ZM146.147 43.4811H149.354C150.013 43.5262 150.667 43.3387 151.202 42.9511C151.426 42.761 151.602 42.5212 151.717 42.251C151.832 41.9807 151.883 41.6872 151.865 41.3941C151.881 41.0982 151.83 40.8024 151.716 40.5291C151.601 40.2558 151.425 40.0123 151.202 39.8172C150.669 39.4249 150.014 39.2327 149.354 39.274H146.147V43.4811ZM151.659 50.9413C151.885 50.7401 152.063 50.4898 152.178 50.2097C152.292 49.9295 152.342 49.6268 152.322 49.3247C152.338 49.0125 152.283 48.7006 152.162 48.4125C152.04 48.1245 151.855 47.8678 151.619 47.6617C151.068 47.2348 150.381 47.0208 149.685 47.0588H146.134V51.4978H149.744C150.428 51.5448 151.107 51.3476 151.659 50.9413Z" fill="#F4F3F2"/>
<path d="M172.826 51.9027H165.326L164.127 55.4473H158.999L166.286 35.3525H171.958L179.246 55.4473H174.065L172.826 51.9027ZM171.567 48.1196L169.076 40.7655L166.618 48.1196H171.567Z" fill="#F4F3F2"/>
<path d="M195.67 35.3525V39.2748H190.369V55.4473H185.473V39.2748H180.173V35.3525H195.67Z" fill="#F4F3F2"/>
<path d="M202.325 54.34C200.767 53.4746 199.471 52.2041 198.575 50.6629C197.664 49.0448 197.186 47.2193 197.186 45.3626C197.186 43.5058 197.664 41.6803 198.575 40.0623C199.472 38.5249 200.767 37.2589 202.325 36.3985C203.92 35.5333 205.705 35.0801 207.519 35.0801C209.334 35.0801 211.119 35.5333 212.714 36.3985C214.268 37.2544 215.556 38.522 216.437 40.0623C217.332 41.6857 217.801 43.5091 217.801 45.3626C217.801 47.2161 217.332 49.0394 216.437 50.6629C215.552 52.2028 214.265 53.4737 212.714 54.34C211.122 55.2051 209.338 55.6583 207.526 55.6583C205.714 55.6583 203.931 55.2051 202.338 54.34H202.325ZM211.369 49.5896C212.309 48.3735 212.819 46.8799 212.819 45.3428C212.819 43.8056 212.309 42.3119 211.369 41.0959C210.337 40.085 208.951 39.5189 207.506 39.5189C206.062 39.5189 204.675 40.085 203.644 41.0959C202.707 42.3184 202.199 43.8156 202.199 45.3559C202.199 46.8962 202.707 48.3936 203.644 49.6161C204.669 50.6381 206.058 51.2118 207.506 51.2118C208.954 51.2118 210.343 50.6381 211.369 49.6161V49.5896Z" fill="#F4F3F2"/>
<path d="M231.708 55.4469L227.527 47.8608H226.355V55.4469H221.458V35.3521H229.681C231.076 35.3138 232.461 35.5972 233.729 36.1803C234.772 36.6738 235.644 37.4675 236.233 38.4595C236.792 39.4393 237.078 40.5513 237.061 41.6794C237.078 42.9617 236.683 44.2155 235.935 45.2571C235.114 46.3539 233.947 47.1408 232.622 47.4899L237.26 55.4403L231.708 55.4469ZM226.355 44.4024H229.389C230.113 44.4482 230.825 44.2106 231.377 43.7399C231.609 43.4916 231.788 43.1982 231.902 42.8779C232.016 42.5576 232.062 42.2173 232.039 41.8781C232.059 41.5483 232.011 41.2178 231.897 40.9077C231.783 40.5975 231.606 40.3143 231.377 40.076C230.825 39.6053 230.113 39.3677 229.389 39.4135H226.355V44.4024Z" fill="#F4F3F2"/>
<path fill-rule="evenodd" clip-rule="evenodd" d="M48.2602 18.861L23.5402 54.261C23.5099 54.3135 23.4895 54.3711 23.4802 54.431C23.4701 54.4939 23.4701 54.5581 23.4802 54.621C23.4989 54.6842 23.5258 54.7448 23.5602 54.801C23.6019 54.8494 23.6489 54.893 23.7002 54.931C23.7844 54.9819 23.882 55.0063 23.9802 55.001H48.7002C48.8416 55.0027 48.9781 54.9488 49.0802 54.851C49.1865 54.7519 49.2508 54.616 49.2602 54.471V19.131C49.2693 19.0062 49.2338 18.8822 49.1602 18.781C49.091 18.6813 48.988 18.6103 48.8702 18.581C48.7535 18.5414 48.627 18.5414 48.5102 18.581C48.3943 18.6391 48.3049 18.7393 48.2602 18.861Z" fill="#F4A626"/>
<path fill-rule="evenodd" clip-rule="evenodd" d="M0.130361 54.0008L37.5204 0.470821C37.6206 0.327314 37.7537 0.209806 37.9085 0.128061C38.0633 0.0463151 38.2353 0.00269365 38.4104 0.000821443H48.5704C48.6889 -0.0053342 48.8066 0.0232103 48.9091 0.0829576C49.0117 0.142705 49.0945 0.23106 49.1476 0.3372C49.2007 0.443339 49.2216 0.562654 49.2079 0.680526C49.1942 0.798398 49.1464 0.909708 49.0704 1.00082L11.6804 54.5308C11.5791 54.6757 11.4445 54.7941 11.2878 54.8759C11.1312 54.9577 10.9571 55.0005 10.7804 55.0008H0.640361C0.522661 55.0047 0.406295 54.975 0.304877 54.9151C0.203459 54.8552 0.121184 54.7677 0.0676812 54.6628C0.0141783 54.5579 -0.00833936 54.4399 0.00276081 54.3227C0.013861 54.2055 0.0581195 54.0938 0.130361 54.0008Z" fill="#F4A626"/>
</svg>
